<svg viewBox="0 0 960 540" fill="none" stroke-linecap="square" stroke-miterlimit="10" xmlns="http://www.w3.org/2000/svg"><clipPath id="a"><path d="M0 0h960v540H0V0z"/></clipPath><g clip-path="url(#a)"><path fill="#fff" d="M0 0h960v540H0z" fill-rule="evenodd"/><path fill="#666" d="M25.705 517.365v-1.93h6.463c.066.34.104.746.104 1.184 0 1.447-.397 3.24-1.672 4.515-1.24 1.293-2.827 1.982-4.929 1.982-3.895 0-7.17-3.17-7.17-7.066 0-3.895 3.275-7.066 7.17-7.066 2.154 0 3.689.844 4.843 1.947l-1.361 1.362c-.827-.776-1.948-1.379-3.481-1.379-2.844 0-5.068 2.292-5.068 5.136 0 2.844 2.224 5.136 5.068 5.136 1.844 0 2.895-.741 3.567-1.413.548-.547.908-1.333 1.048-2.407h-4.582zm16.483 1.213c0 2.62-2.05 4.55-4.567 4.55-2.517 0-4.567-1.93-4.567-4.55 0-2.637 2.05-4.55 4.567-4.55 2.516 0 4.567 1.913 4.567 4.55zm-1.999 0c0-1.637-1.189-2.758-2.568-2.758-1.378 0-2.568 1.12-2.568 2.758 0 1.62 1.189 2.758 2.568 2.758s2.568-1.138 2.568-2.758zm11.963 0c0 2.62-2.05 4.55-4.567 4.55-2.517 0-4.568-1.93-4.568-4.55 0-2.637 2.051-4.55 4.568-4.55 2.516 0 4.567 1.913 4.567 4.55zm-2 0c0-1.637-1.188-2.758-2.567-2.758-1.379 0-2.568 1.12-2.568 2.758 0 1.62 1.189 2.758 2.568 2.758 1.378 0 2.568-1.138 2.568-2.758zm11.55-4.274v8.17c0 3.36-1.982 4.739-4.326 4.739-2.206 0-3.533-1.483-4.033-2.69l1.74-.723c.311.741 1.069 1.62 2.293 1.62 1.5 0 2.43-.93 2.43-2.67v-.656h-.068c-.449.552-1.31 1.034-2.396 1.034-2.275 0-4.36-1.982-4.36-4.533 0-2.568 2.085-4.567 4.36-4.567 1.086 0 1.947.483 2.396 1.018h.068v-.742h1.896zm-1.758 4.291c0-1.602-1.068-2.775-2.43-2.775-1.379 0-2.533 1.173-2.533 2.775 0 1.586 1.154 2.741 2.533 2.741 1.361 0 2.43-1.155 2.43-2.74zm5.144-9.073v13.33H63.09v-13.33h2zm7.722 10.555l1.55 1.034c-.5.742-1.706 2.017-3.791 2.017-2.586 0-4.516-2-4.516-4.55 0-2.707 1.948-4.551 4.292-4.551 2.361 0 3.516 1.879 3.895 2.896l.207.517-6.084 2.516c.465.914 1.19 1.379 2.206 1.379s1.723-.499 2.24-1.258zm-4.775-1.637l4.067-1.69c-.224-.568-.896-.965-1.689-.965-1.017.001-2.43.897-2.378 2.655z" fill-rule="evenodd"/><path fill="#fff" d="M2.37 495.703h96v44.284h-96z" fill-rule="evenodd"/><path fill="#ff9800" d="M505.268 216.677h223.45v85.524c-111.725 0-111.725 32.586-223.45 14.071z" fill-rule="evenodd"/><path stroke="#85200c" stroke-linejoin="round" stroke-linecap="butt" d="M505.268 216.677h223.45v85.524c-111.725 0-111.725 32.586-223.45 14.071z"/><path fill="#f3f3f3" d="M574.866 255.656q-1.734 0-2.812-.703-1.063-.719-1.5-1.844l2.187-.953q.297.672.844 1.016.547.343 1.281.343.672 0 1.11-.218.453-.22.453-.704 0-.468-.406-.687-.407-.234-1.235-.422l-1.109-.25q-1.156-.281-1.922-1.016-.766-.734-.766-1.843 0-.813.485-1.469.5-.656 1.344-1 .859-.36 1.875-.36 2.953 0 3.937 2.063l-2.078.922q-.563-1-1.797-1-.64 0-1.016.234-.359.22-.359.578 0 .672 1.266 1.016l1.39.328q1.422.36 2.141 1.094.719.719.719 1.781 0 .906-.532 1.61-.53.703-1.453 1.093-.922.391-2.047.391zm10.36 0q-1.485 0-2.641-.656-1.157-.672-1.797-1.813-.64-1.156-.64-2.578t.64-2.578q.64-1.156 1.797-1.813 1.156-.671 2.64-.671 1.453 0 2.61.671 1.156.657 1.797 1.813.64 1.156.64 2.578t-.64 2.578q-.641 1.14-1.797 1.813-1.157.656-2.61.656zm0-2.25q.702 0 1.296-.328.61-.344.953-.985.36-.64.36-1.484t-.36-1.469q-.343-.64-.953-.968-.594-.344-1.297-.344-.718 0-1.312.344-.594.328-.969.968-.36.625-.36 1.47 0 .827.36 1.483.375.641.969.985.594.328 1.312.328zm6.91-7.563h2.297v1.188h.157q.437-.688 1.187-1.078.766-.406 1.703-.406 1 0 1.75.484.75.469 1.063 1.187.468-.734 1.281-1.203.812-.468 1.906-.468 1.625 0 2.469 1 .86 1 .86 2.687v6.125h-2.423v-5.672q0-.89-.421-1.375-.422-.484-1.172-.484-.953 0-1.532.75-.562.75-.562 1.984v4.797h-2.438v-5.672q0-.89-.437-1.375-.438-.484-1.234-.484-.907 0-1.454.75-.546.75-.546 1.984v4.797h-2.454v-9.516zm21.465 9.813q-1.422 0-2.562-.64-1.141-.657-1.782-1.798-.64-1.156-.64-2.593 0-1.36.625-2.532.64-1.171 1.75-1.859 1.125-.687 2.515-.687 1.47 0 2.532.64 1.062.625 1.609 1.735.562 1.093.562 2.437 0 .422-.062.828h-7.14q.187 1.125.906 1.719.718.594 1.718.594.844 0 1.453-.36.61-.375.954-.984l1.984.969q-1.453 2.531-4.422 2.531zm2.25-6.203q-.031-.453-.328-.89-.281-.438-.797-.72-.516-.296-1.203-.296-.875 0-1.5.515-.625.5-.906 1.39h4.734zm3.17-3.61h2.75l1.64 6.172h.126l1.906-6.172h2.5l1.906 6.172h.125l1.64-6.172h2.704l-3.031 9.516h-2.64l-1.938-6.156h-.125l-1.922 6.156h-2.61l-3.03-9.516zM635.624 242h2.453v3.375l-.156 1.656h.156q.407-.672 1.188-1.078.781-.406 1.703-.406 1.734 0 2.656 1.03.922 1.032.922 2.876v5.906h-2.437v-5.61q0-.921-.5-1.421t-1.313-.5q-.969 0-1.594.781-.625.781-.625 1.922v4.828h-2.453V242zm14.153 13.656q-1.516 0-2.484-.875-.969-.89-.969-2.328 0-.953.5-1.672.5-.734 1.375-1.125.89-.39 1.953-.39 1.469 0 2.516.421v-.406q0-.781-.594-1.266-.578-.484-1.578-.484-.672 0-1.297.312-.625.297-1.031.797l-1.563-1.234q.688-.89 1.735-1.375 1.046-.484 2.265-.484 2.188 0 3.328 1.015 1.141 1 1.141 2.938v5.86h-2.406v-.97h-.157q-.421.563-1.125.922-.703.344-1.609.344zm.578-1.906q1.063 0 1.688-.672.625-.688.625-1.594-.953-.453-2-.453-1.907 0-1.907 1.422 0 .578.407.937.422.36 1.187.36zm11.107 1.765q-.703 0-1.297-.218-.594-.22-.969-.594-.875-.844-.875-2.39v-4.376h-1.671v-2.094h1.671v-2.687h2.438v2.687h2.328v2.094h-2.328v3.938q0 .718.312 1.047.266.296.907.296.343 0 .578-.093.234-.094.61-.328v2.39q-.798.328-1.704.328zm-108.605 22.141q-1.485 0-2.64-.656-1.157-.672-1.798-1.813-.64-1.156-.64-2.578t.64-2.578q.64-1.156 1.797-1.813 1.156-.671 2.64-.671 1.454 0 2.61.671 1.156.657 1.797 1.813.64 1.156.64 2.578t-.64 2.578q-.64 1.14-1.797 1.813-1.156.656-2.61.656zm0-2.25q.703 0 1.297-.328.609-.344.953-.985.36-.64.36-1.484t-.36-1.469q-.344-.64-.953-.968-.594-.344-1.297-.344-.719 0-1.313.344-.593.328-.968.968-.36.625-.36 1.47 0 .827.36 1.483.375.641.968.985.594.328 1.313.328zm6.848-7.563h2.297V269h.14q.392-.61 1.142-1.032.75-.421 1.718-.421 1.282 0 2.328.64 1.063.64 1.657 1.797.593 1.156.593 2.625t-.593 2.625q-.594 1.14-1.657 1.781-1.046.641-2.328.641-.968 0-1.734-.406-.75-.407-1.125-1.032h-.14l.14 1.344v3.828h-2.438v-13.547zm4.86 7.563q.687 0 1.281-.36.61-.359.953-.984.36-.64.36-1.453 0-.828-.36-1.453-.344-.64-.953-.984-.594-.344-1.281-.344-.672 0-1.266.344-.594.343-.953.984-.344.625-.344 1.453 0 .813.344 1.453.36.625.953.985.594.359 1.266.359zm11.041 2.11q-.703 0-1.297-.22-.594-.218-.969-.593-.875-.844-.875-2.39v-4.376h-1.672v-2.094h1.672v-2.687h2.438v2.687h2.328v2.094h-2.328v3.938q0 .718.312 1.047.266.296.907.296.343 0 .578-.093.234-.094.61-.328v2.39q-.798.328-1.704.328zm5.048-10.72q-.656 0-1.125-.468-.468-.469-.468-1.11 0-.656.468-1.109.469-.469 1.125-.469.657 0 1.11.47.453.452.453 1.108 0 .641-.453 1.11-.453.469-1.11.469zm-1.234 1.047h2.437v9.516h-2.437v-9.516zm4.993 0h2.297v1.188h.156q.437-.688 1.187-1.078.766-.406 1.704-.406 1 0 1.75.484.75.469 1.062 1.187.469-.734 1.281-1.203.813-.468 1.907-.468 1.625 0 2.468 1 .86 1 .86 2.687v6.125h-2.422v-5.672q0-.89-.422-1.375-.422-.484-1.172-.484-.953 0-1.531.75-.563.75-.563 1.984v4.797h-2.437v-5.672q0-.89-.438-1.375-.437-.484-1.234-.484-.906 0-1.453.75t-.547 1.984v4.797h-2.453v-9.516zm18.386-1.046q-.656 0-1.125-.47-.468-.468-.468-1.109 0-.656.468-1.109.469-.469 1.125-.469.657 0 1.11.47.453.452.453 1.108 0 .641-.453 1.11-.453.469-1.11.469zm-1.234 1.046h2.437v9.516h-2.437v-9.516zm4.508 7.516l4.97-5.437h-4.813v-2.079h7.812v2l-4.953 5.438h5.11v2.078h-8.126v-2zm14.487 2.297q-1.422 0-2.563-.64-1.14-.657-1.78-1.798-.642-1.156-.642-2.593 0-1.36.625-2.532.641-1.171 1.75-1.859 1.125-.687 2.516-.687 1.469 0 2.531.64 1.063.625 1.61 1.735.562 1.093.562 2.437 0 .422-.062.828h-7.14q.187 1.125.905 1.719.72.594 1.72.594.843 0 1.452-.36.61-.375.953-.984l1.985.969q-1.453 2.531-4.422 2.531zm2.25-6.203q-.031-.453-.328-.89-.282-.438-.797-.72-.516-.296-1.203-.296-.875 0-1.5.515-.625.5-.907 1.39h4.735zm8.326 6.203q-1.281 0-2.344-.64-1.047-.641-1.656-1.782-.61-1.156-.61-2.625t.61-2.625q.61-1.156 1.656-1.797 1.063-.64 2.344-.64.969 0 1.719.421.75.422 1.14 1.032h.141l-.14-1.344V264h2.421v13.36h-2.281v-1.142h-.14q-.376.625-1.141 1.032-.75.406-1.719.406zm.406-2.25q.688 0 1.282-.36.609-.359.953-.984.359-.64.359-1.453 0-.828-.36-1.453-.343-.64-.952-.984-.594-.344-1.282-.344-.672 0-1.265.344-.594.343-.953.984-.36.625-.36 1.453 0 .813.36 1.453.359.625.953.985.593.359 1.265.359zm6.085 1.953zm10.037.297q-1.437 0-2.578-.64-1.14-.641-1.781-1.798-.64-1.156-.64-2.609 0-1.469.64-2.61.64-1.14 1.781-1.796 1.14-.656 2.578-.656 1.578 0 2.72.687 1.14.672 1.64 1.922l-2.235.937q-.593-1.265-2.125-1.265-1.125 0-1.843.765-.72.766-.72 2.016 0 1.266.72 2.031.718.766 1.843.766 1.547 0 2.235-1.344l2.218.969q-.609 1.25-1.75 1.937-1.14.688-2.703.688zm10.768 0q-1.484 0-2.64-.656-1.156-.672-1.797-1.813-.64-1.156-.64-2.578t.64-2.578q.64-1.156 1.797-1.813 1.156-.671 2.64-.671 1.454 0 2.61.671 1.156.657 1.797 1.813.64 1.156.64 2.578t-.64 2.578q-.64 1.14-1.797 1.813-1.156.656-2.61.656zm0-2.25q.704 0 1.297-.328.61-.344.953-.985.36-.64.36-1.484t-.36-1.469q-.343-.64-.953-.968-.593-.344-1.297-.344-.718 0-1.312.344-.594.328-.969.968-.36.625-.36 1.47 0 .827.36 1.483.375.641.969.985.594.328 1.312.328zm11.005 2.25q-1.28 0-2.343-.64-1.047-.641-1.657-1.782-.61-1.156-.61-2.625t.61-2.625q.61-1.156 1.657-1.797 1.062-.64 2.343-.64.97 0 1.72.421.75.422 1.14 1.032h.14l-.14-1.344V264h2.422v13.36h-2.282v-1.142h-.14q-.375.625-1.14 1.032-.75.406-1.72.406zm.407-2.25q.687 0 1.28-.36.61-.359.954-.984.36-.64.36-1.453 0-.828-.36-1.453-.344-.64-.953-.984-.594-.344-1.281-.344-.672 0-1.266.344-.594.343-.953.984-.36.625-.36 1.453 0 .813.36 1.453.36.625.953.985.594.359 1.266.359zm11.74 2.25q-1.421 0-2.562-.64-1.14-.657-1.781-1.798-.641-1.156-.641-2.593 0-1.36.625-2.532.64-1.171 1.75-1.859 1.125-.687 2.516-.687 1.468 0 2.53.64 1.063.625 1.61 1.735.563 1.093.563 2.437 0 .422-.063.828h-7.14q.187 1.125.906 1.719.719.594 1.719.594.843 0 1.453-.36.61-.375.953-.984l1.984.969q-1.453 2.531-4.422 2.531zm2.25-6.203q-.03-.453-.328-.89-.281-.438-.797-.72-.515-.296-1.203-.296-.875 0-1.5.515-.625.5-.906 1.39h4.734z"/><path fill="#ff9800" d="M224.481 241.563c0-7.85 6.364-14.215 14.215-14.215H388.47a14.215 14.215 0 0 1 14.216 14.215v56.86c0 7.852-6.365 14.216-14.216 14.216H238.696c-7.85 0-14.215-6.364-14.215-14.215z" fill-rule="evenodd"/><path stroke="#5b0f00" stroke-linejoin="round" stroke-linecap="butt" d="M224.481 241.563c0-7.85 6.364-14.215 14.215-14.215H388.47a14.215 14.215 0 0 1 14.216 14.215v56.86c0 7.852-6.365 14.216-14.216 14.216H238.696c-7.85 0-14.215-6.364-14.215-14.215z"/><path fill="#f3f3f3" d="M277.597 263.554h5.219q1.125 0 2.062.469.938.469 1.485 1.265.546.797.546 1.75 0 1.016-.5 1.75-.5.735-1.296 1.125v.157q1.046.375 1.656 1.187.625.813.625 1.938 0 1.11-.594 1.953-.578.844-1.578 1.312-1 .453-2.219.453h-5.406v-13.359zm5.031 5.453q.828 0 1.313-.453.5-.469.5-1.156 0-.672-.485-1.125-.468-.453-1.25-.453h-2.593v3.187h2.515zm.281 5.61q.922 0 1.422-.47.516-.484.516-1.25 0-.765-.516-1.25-.515-.484-1.5-.484h-2.718v3.454h2.796zm9.337 2.593q-1.516 0-2.485-.875-.969-.89-.969-2.328 0-.953.5-1.672.5-.734 1.375-1.125.891-.39 1.954-.39 1.468 0 2.515.422v-.407q0-.78-.594-1.265-.578-.485-1.578-.485-.672 0-1.297.313-.625.297-1.03.797l-1.563-1.235q.687-.89 1.734-1.375 1.047-.484 2.266-.484 2.187 0 3.328 1.016 1.14 1 1.14 2.937v5.86h-2.406v-.97h-.156q-.422.563-1.125.923-.703.343-1.61.343zm.578-1.906q1.062 0 1.687-.672.625-.687.625-1.594-.953-.453-2-.453-1.906 0-1.906 1.422 0 .578.406.938.422.36 1.188.36zm10.59 1.906q-1.733 0-2.812-.703-1.062-.719-1.5-1.844l2.188-.953q.297.672.844 1.016.547.344 1.28.344.673 0 1.11-.22.453-.218.453-.702 0-.469-.406-.688-.406-.234-1.234-.422l-1.11-.25q-1.156-.28-1.921-1.015-.766-.735-.766-1.844 0-.812.484-1.469.5-.656 1.344-1 .86-.36 1.875-.36 2.953 0 3.938 2.063l-2.079.922q-.562-1-1.796-1-.641 0-1.016.235-.36.218-.36.578 0 .672 1.266 1.015l1.39.329q1.423.359 2.141 1.093.72.72.72 1.782 0 .906-.532 1.609-.531.703-1.453 1.094-.922.39-2.047.39zm10.266 0q-1.422 0-2.562-.64-1.141-.657-1.782-1.797-.64-1.156-.64-2.594 0-1.36.625-2.531.64-1.172 1.75-1.86 1.125-.687 2.515-.687 1.47 0 2.532.64 1.062.626 1.609 1.735.562 1.094.562 2.437 0 .422-.062.829h-7.14q.187 1.125.906 1.718.718.594 1.718.594.844 0 1.453-.36.61-.374.954-.984l1.984.97q-1.453 2.53-4.422 2.53zm2.25-6.203q-.031-.453-.328-.89-.281-.438-.797-.72-.516-.296-1.203-.296-.875 0-1.5.516-.625.5-.906 1.39h4.734zm4.233-7.453h2.453v13.36h-2.453v-13.36zm6.24 2.797q-.655 0-1.124-.469-.469-.469-.469-1.11 0-.655.469-1.109.469-.468 1.125-.468t1.11.468q.452.454.452 1.11 0 .64-.453 1.11-.453.468-1.11.468zm-1.234 1.047h2.438v9.515h-2.438v-9.515zm4.993 0h2.297v1.187h.156q.422-.687 1.204-1.078.796-.406 1.703-.406 1.718 0 2.609 1.047.906 1.047.906 2.86v5.905h-2.453v-5.609q0-.922-.469-1.422-.468-.5-1.296-.5-1 0-1.61.766-.594.765-.594 1.922v4.843h-2.453v-9.515zm15.644 9.812q-1.422 0-2.562-.64-1.141-.657-1.782-1.797-.64-1.156-.64-2.594 0-1.36.625-2.531.64-1.172 1.75-1.86 1.125-.687 2.515-.687 1.47 0 2.532.64 1.062.626 1.609 1.735.563 1.094.563 2.437 0 .422-.063.829h-7.14q.187 1.125.906 1.718.718.594 1.718.594.844 0 1.454-.36.609-.374.953-.984l1.984.97q-1.453 2.53-4.422 2.53zm2.25-6.203q-.031-.453-.328-.89-.281-.438-.797-.72-.515-.296-1.203-.296-.875 0-1.5.516-.625.5-.906 1.39h4.734z"/><path fill="#38761d" d="M226.027 88.369c0-6.865 5.565-12.43 12.43-12.43h161.344a12.43 12.43 0 0 1 12.43 12.43v49.722c0 6.865-5.565 12.43-12.43 12.43H238.457c-6.865 0-12.43-5.565-12.43-12.43z" fill-rule="evenodd"/><path stroke="#274e13" stroke-linejoin="round" stroke-linecap="butt" d="M226.027 88.369c0-6.865 5.565-12.43 12.43-12.43h161.344a12.43 12.43 0 0 1 12.43 12.43v49.722c0 6.865-5.565 12.43-12.43 12.43H238.457c-6.865 0-12.43-5.565-12.43-12.43z"/><path fill="#f3f3f3" d="M271.522 109.587q-.656 0-1.125-.469-.469-.468-.469-1.109 0-.656.469-1.11.469-.468 1.125-.468t1.11.469q.452.453.452 1.109 0 .64-.453 1.11-.453.468-1.109.468zm-1.234 1.047h2.437v9.516h-2.437v-9.516zm4.992 0h2.297v1.188h.157q.421-.688 1.203-1.079.797-.406 1.703-.406 1.719 0 2.61 1.047.905 1.047.905 2.86v5.906h-2.453v-5.61q0-.922-.468-1.422-.47-.5-1.297-.5-1 0-1.61.766-.593.766-.593 1.922v4.844h-2.454v-9.516zm15.316 9.672q-.703 0-1.297-.219-.593-.219-.968-.594-.875-.843-.875-2.39v-4.375h-1.672v-2.094h1.672v-2.687h2.437v2.687h2.328v2.094h-2.328v3.937q0 .719.313 1.047.265.297.906.297.344 0 .578-.094.234-.093.61-.328v2.39q-.798.329-1.704.329zm8.127.14q-1.422 0-2.563-.64-1.14-.656-1.781-1.797-.64-1.156-.64-2.594 0-1.36.624-2.531.64-1.172 1.75-1.86 1.125-.687 2.516-.687 1.469 0 2.531.64 1.063.626 1.61 1.735.562 1.094.562 2.438 0 .422-.063.828h-7.14q.187 1.125.906 1.719.719.593 1.719.593.844 0 1.453-.36.61-.374.953-.983l1.984.968q-1.453 2.532-4.421 2.532zm2.25-6.203q-.032-.453-.329-.89-.28-.438-.796-.719-.516-.297-1.204-.297-.875 0-1.5.516-.625.5-.906 1.39h4.735zm4.232-3.609h2.297v1.266h.156q.36-.672 1.094-1.11.75-.437 1.64-.437.657 0 1.204.203v2.453q-.5-.187-.86-.266-.343-.093-.734-.093-1.078 0-1.719.78-.625.782-.625 1.985v4.735h-2.453v-9.516zm7.904 0h2.297v1.156h.14q.39-.61 1.14-1.031.75-.422 1.72-.422 1.28 0 2.328.64 1.062.641 1.656 1.798.594 1.156.594 2.625 0 1.468-.594 2.625-.594 1.14-1.656 1.78-1.047.642-2.328.642-.97 0-1.735-.407-.75-.406-1.125-1.031h-.14l.14 1.344v3.828h-2.437v-13.547zm4.86 7.563q.687 0 1.28-.36.61-.36.954-.984.359-.64.359-1.453 0-.828-.36-1.453-.343-.641-.953-.985-.593-.344-1.28-.344-.673 0-1.266.344-.594.344-.954.985-.343.625-.343 1.453 0 .812.343 1.453.36.625.954.984.593.36 1.265.36zm6.9-7.563h2.297v1.266h.156q.36-.672 1.094-1.11.75-.437 1.64-.437.657 0 1.203.203v2.453q-.5-.187-.859-.266-.344-.093-.734-.093-1.078 0-1.72.78-.624.782-.624 1.985v4.735h-2.453v-9.516zm12.435 9.813q-1.422 0-2.563-.641-1.14-.656-1.781-1.797-.64-1.156-.64-2.594 0-1.36.624-2.531.641-1.172 1.75-1.86 1.125-.687 2.516-.687 1.469 0 2.531.64 1.063.626 1.61 1.735.562 1.094.562 2.438 0 .422-.062.828h-7.141q.187 1.125.906 1.719.719.593 1.719.593.844 0 1.453-.36.61-.374.953-.983l1.985.968q-1.454 2.532-4.422 2.532zm2.25-6.204q-.032-.453-.328-.89-.282-.438-.797-.719-.516-.297-1.203-.297-.875 0-1.5.516-.625.5-.907 1.39h4.735zm8.373 6.063q-.703 0-1.297-.219t-.969-.594q-.875-.843-.875-2.39v-4.375h-1.672v-2.094h1.672v-2.687h2.438v2.687h2.328v2.094h-2.328v3.937q0 .719.312 1.047.266.297.906.297.344 0 .579-.094.234-.093.609-.328v2.39q-.797.329-1.703.329zm8.126.14q-1.422 0-2.562-.64-1.14-.656-1.782-1.797-.64-1.156-.64-2.594 0-1.36.625-2.531.64-1.172 1.75-1.86 1.125-.687 2.515-.687 1.47 0 2.532.64 1.062.626 1.61 1.735.562 1.094.562 2.438 0 .422-.063.828h-7.14q.187 1.125.906 1.719.718.593 1.718.593.844 0 1.454-.36.609-.374.953-.983l1.984.968q-1.453 2.532-4.422 2.532zm2.25-6.203q-.031-.453-.328-.89-.281-.438-.797-.719-.515-.297-1.203-.297-.875 0-1.5.516-.625.5-.906 1.39h4.734zm4.233-3.609h2.297v1.266h.156q.36-.672 1.094-1.11.75-.437 1.64-.437.656 0 1.203.203v2.453q-.5-.187-.859-.266-.344-.093-.734-.093-1.079 0-1.72.78-.624.782-.624 1.985v4.735h-2.453v-9.516z"/><path fill="#6aa84f" d="M505.268 59.912h223.449v85.524c-111.725 0-111.725 32.586-223.45 14.07z" fill-rule="evenodd"/><path stroke="#38761d" stroke-linejoin="round" stroke-linecap="butt" d="M505.268 59.912h223.449v85.524c-111.725 0-111.725 32.586-223.45 14.07z"/><path fill="#fff" d="M580.396 109.89q-.984 0-1.734-.406t-1.125-1.03h-.156v1.14h-2.297v-13.36h2.453v3.657l-.156 1.343h.156q.39-.609 1.125-1.03.75-.423 1.734-.423 1.282 0 2.328.641 1.063.64 1.657 1.797.593 1.156.593 2.625t-.593 2.625q-.594 1.14-1.657 1.781-1.046.64-2.328.64zm-.437-2.25q.687 0 1.281-.359.61-.359.953-.984.36-.64.36-1.453 0-.828-.36-1.453-.344-.64-.953-.985-.594-.343-1.281-.343-.672 0-1.266.343-.594.344-.953.985-.36.625-.36 1.453 0 .812.36 1.453.36.625.953.984.594.36 1.266.36zm9.866 1.5l-4-9.062h2.765l2.47 5.922h.155l2.36-5.922h2.734l-5.89 13.547h-2.626l2.032-4.484zm11.955.61q-.703 0-1.297-.219-.594-.218-.969-.593-.875-.844-.875-2.391v-4.375h-1.672v-2.094h1.672v-2.687h2.438v2.687h2.328v2.094h-2.328v3.937q0 .72.312 1.047.266.297.907.297.343 0 .578-.094.234-.093.609-.328v2.391q-.797.328-1.703.328zm8.126.14q-1.422 0-2.562-.64-1.14-.656-1.781-1.797-.641-1.156-.641-2.594 0-1.359.625-2.53.64-1.173 1.75-1.86 1.125-.688 2.516-.688 1.468 0 2.53.641 1.063.625 1.61 1.734.563 1.094.563 2.438 0 .422-.063.828h-7.14q.187 1.125.906 1.719.719.593 1.719.593.843 0 1.453-.359.61-.375.953-.984l1.984.968q-1.453 2.532-4.422 2.532zm2.25-6.202q-.03-.454-.328-.891-.281-.438-.797-.719-.515-.297-1.203-.297-.875 0-1.5.516-.625.5-.906 1.39h4.734zm8.717 6.203q-1.437 0-2.578-.64-1.14-.642-1.781-1.798-.64-1.156-.64-2.61 0-1.468.64-2.609.64-1.14 1.781-1.796 1.14-.657 2.578-.657 1.578 0 2.719.688 1.14.672 1.64 1.922l-2.234.937q-.594-1.265-2.125-1.265-1.125 0-1.844.765-.718.766-.718 2.016 0 1.265.718 2.031.72.766 1.844.766 1.547 0 2.235-1.344l2.218.969q-.61 1.25-1.75 1.937-1.14.688-2.703.688zm10.768 0q-1.484 0-2.64-.657-1.157-.671-1.797-1.812-.64-1.156-.64-2.578t.64-2.578q.64-1.157 1.797-1.813 1.156-.672 2.64-.672 1.453 0 2.61.672 1.156.656 1.797 1.813.64 1.156.64 2.578t-.64 2.578q-.641 1.14-1.797 1.812-1.157.657-2.61.657zm0-2.25q.703 0 1.297-.328.61-.344.953-.985.36-.64.36-1.484t-.36-1.469q-.343-.64-.953-.969-.594-.343-1.297-.343-.718 0-1.312.343-.594.328-.969.97-.36.624-.36 1.468 0 .828.36 1.484.375.64.969.985.594.328 1.312.328zm11.005 2.25q-1.281 0-2.344-.64-1.046-.642-1.656-1.782-.61-1.156-.61-2.625t.61-2.625q.61-1.156 1.656-1.797 1.063-.64 2.344-.64.969 0 1.719.421.75.422 1.14 1.031h.141l-.14-1.343v-3.657h2.421v13.36h-2.28v-1.14h-.141q-.375.624-1.141 1.03-.75.407-1.719.407zm.406-2.25q.688 0 1.282-.36.61-.359.953-.984.36-.64.36-1.453 0-.828-.36-1.453-.344-.64-.953-.985-.594-.343-1.282-.343-.671 0-1.265.343-.594.344-.953.985-.36.625-.36 1.453 0 .812.36 1.453.36.625.953.984.594.36 1.265.36zm11.741 2.25q-1.422 0-2.562-.64-1.14-.657-1.781-1.798-.641-1.156-.641-2.594 0-1.359.625-2.53.64-1.173 1.75-1.86 1.125-.688 2.516-.688 1.468 0 2.53.641 1.063.625 1.61 1.734.563 1.094.563 2.438 0 .422-.063.828h-7.14q.187 1.125.906 1.719.719.593 1.719.593.843 0 1.453-.359.609-.375.953-.984l1.984.968q-1.453 2.532-4.422 2.532zm2.25-6.203q-.031-.454-.328-.891-.281-.438-.797-.719-.515-.297-1.203-.297-.875 0-1.5.516-.625.5-.906 1.39h4.734z"/><path d="M402.686 269.993h51.291v.063h51.291"/><path stroke="#666" stroke-width="2" stroke-linejoin="round" stroke-linecap="butt" d="M402.686 269.993h51.291v.063h39.291"/><path fill="#666" stroke="#666" stroke-width="2" stroke-linecap="butt" d="M493.268 273.36l9.077-3.304-9.077-3.303z" fill-rule="evenodd"/><path d="M412.231 113.23h46.52v.063h46.52"/><path stroke="#666" stroke-width="2" stroke-linejoin="round" stroke-linecap="butt" d="M412.231 113.23h46.52v.063h34.52"/><path fill="#666" stroke="#666" stroke-width="2" stroke-linecap="butt" d="M493.27 116.596l9.077-3.303-9.076-3.304z" fill-rule="evenodd"/><path d="M800.362 216.129l.063 253.732H752.74l-.063-253.732z"/><path fill="#ea4335" d="M768.714 291.024q0-1.469.734-2.672t2.046-1.906q1.312-.688 3-.688 1.672 0 2.985.688 1.328.703 2.063 1.906.734 1.203.735 2.672 0 1.11-.484 1.953-.469.86-1.172 1.313v.172l1.531-.172h4.172v2.78H769.06v-2.608h1.297v-.172q-.704-.422-1.173-1.297-.469-.86-.469-1.969zm2.578.469q0 .797.407 1.469.406.687 1.125 1.093.735.407 1.672.407.938 0 1.656-.407.735-.406 1.125-1.093.39-.672.39-1.47 0-.765-.39-1.452-.392-.672-1.126-1.078-.719-.407-1.656-.407-.938 0-1.672.407-.719.406-1.125 1.078-.406.687-.406 1.453zm-2.575 13.427q0-1.625.75-2.938.75-1.297 2.062-2.031 1.312-.735 2.953-.735 1.547 0 2.875.72 1.344.734 2.125 2.015.798 1.281.798 2.86 0 1.687-.734 2.89-.718 1.219-1.984 1.844-1.25.64-2.78.64-.5 0-.938-.062l-.002-8.172q-1.313.219-1.984 1.031-.656.828-.656 1.969 0 .969.407 1.656.422.688 1.125 1.094l-1.109 2.265q-2.907-1.656-2.908-5.046zm7.11 2.578q.5-.047 1-.375.516-.328.844-.922.328-.578.328-1.375 0-1-.594-1.719-.579-.703-1.579-1.031l.002 5.422zm-7.106 10.035q0-1.672.749-3 .765-1.328 2.077-2.062 1.313-.735 2.953-.735 1.625 0 2.938.735 1.328.734 2.079 2.062.766 1.328.766 3t-.765 2.984q-.75 1.329-2.077 2.063-1.313.734-2.938.734-1.64 0-2.953-.734t-2.079-2.063q-.75-1.312-.75-2.984zm2.578 0q0 .813.375 1.5.39.688 1.11 1.094.734.406 1.719.406.968 0 1.687-.406.719-.406 1.094-1.094.39-.687.39-1.5 0-.797-.391-1.484-.375-.688-1.094-1.11-.72-.406-1.688-.406-.953 0-1.703.406-.734.422-1.125 1.11-.374.687-.374 1.484zm8.642 7.836l.001 2.625h-1.313v.171q.704.438 1.173 1.297.484.86.485 1.97 0 1.468-.734 2.671-.734 1.203-2.062 1.875-1.313.687-2.984.687-1.688 0-3-.687-1.313-.672-2.048-1.875-.735-1.203-.735-2.672 0-1.11.468-1.984.469-.86 1.172-1.282v-.171l-1.531.171h-4.375l-.001-2.796h15.484zm-8.639 5.562q0 .797.407 1.469.406.687 1.125 1.094.734.406 1.672.406.937 0 1.656-.406.734-.407 1.125-1.094.39-.672.39-1.469 0-.766-.39-1.453-.392-.672-1.126-1.078-.719-.406-1.657-.406-.937 0-1.671.406-.719.406-1.125 1.078-.406.687-.406 1.453zm-2.403 12.623q0-.797.234-1.484.25-.688.687-1.11.953-1 2.719-1h5.015v-1.906h2.39v1.906h3.08v2.797h-3.078v2.656h-2.39l-.001-2.656h-4.5q-.828 0-1.187.36-.344.296-.344 1.015 0 .406.11.672.109.266.36.703h-2.735q-.36-.922-.36-1.953zm12.251 5.759q0-.735.531-1.281.531-.532 1.281-.532.735 0 1.25.532.532.546.532 1.28 0 .75-.53 1.266-.516.532-1.25.532-.75 0-1.282-.532-.531-.515-.532-1.265zm-1.203-1.406v2.796h-10.874l-.001-2.796h10.875zm.001 5.714l.001 2.625h-1.36v.172q.782.516 1.235 1.375.47.875.47 1.938 0 1.14-.547 2-.546.86-1.375 1.218.86.532 1.391 1.454.532.937.532 2.187 0 1.86-1.14 2.828-1.14.969-3.078.969h-7v-2.766h6.484q1.016 0 1.563-.484.562-.484.562-1.328 0-1.094-.86-1.75-.86-.64-2.266-.64h-5.484v-2.798h6.483q1.016 0 1.563-.5.562-.5.562-1.422 0-1.015-.86-1.656-.86-.625-2.266-.625h-5.484v-2.797h10.874zm1.209 21.008q0-.734.53-1.28.532-.532 1.282-.532.734 0 1.25.531.531.547.531 1.281 0 .75-.53 1.266-.516.531-1.25.531-.75 0-1.282-.53-.531-.517-.531-1.267zm-1.204-1.406v2.797H769.08v-2.797h10.874zm-8.592 5.168l6.235 5.672v-5.5h2.359l.002 8.937h-2.282l-6.22-5.672.002 5.844h-2.375l-.003-9.281h2.282zm-2.621 16.555q0-1.625.75-2.938.749-1.296 2.061-2.03 1.312-.735 2.953-.735 1.547 0 2.875.719 1.344.734 2.126 2.015.797 1.281.797 2.86 0 1.687-.733 2.89-.719 1.219-1.984 1.844-1.25.64-2.781.64-.5 0-.938-.062l-.002-8.172q-1.312.219-1.984 1.031-.656.829-.656 1.97 0 .968.407 1.655.422.688 1.125 1.094l-1.109 2.266q-2.906-1.656-2.907-5.047zm7.11 2.578q.5-.047 1-.375.515-.328.843-.922.328-.578.328-1.375 0-1-.594-1.719-.578-.703-1.578-1.03v5.421z"/><path d="M135.588 469.21l.094-409.071h45.796l-.095 409.07z"/><path fill="#34a853" d="M166.348 303.125q0 1.672-.751 3-.766 1.328-2.079 2.062-1.312.735-2.953.735-1.625 0-2.937-.735-1.328-.734-2.078-2.062-.765-1.328-.765-3t.766-2.984q.75-1.329 2.08-2.063 1.312-.734 2.937-.734 1.64 0 2.953.734 1.312.734 2.077 2.063.75 1.312.75 2.984zm-2.578 0q0-.813-.375-1.5-.39-.688-1.11-1.094-.734-.406-1.718-.406-.969 0-1.687.406-.72.406-1.094 1.094-.391.687-.391 1.5 0 .797.39 1.484.375.688 1.093 1.11.719.406 1.688.406.953 0 1.703-.406.734-.422 1.125-1.11.375-.687.376-1.484zm-8.64-7.836l.001-2.625h1.313v-.172q-.703-.437-1.172-1.296-.484-.86-.484-1.97 0-1.468.735-2.671.735-1.203 2.063-1.875 1.313-.688 2.985-.688 1.687 0 3 .688 1.312.672 2.046 1.875.734 1.203.734 2.672 0 1.11-.47 1.984-.468.86-1.171 1.281v.172l1.53-.172h4.376v2.797H155.13zm8.643-5.562q0-.797-.406-1.469-.406-.687-1.125-1.094-.734-.406-1.672-.406-.937 0-1.656.406-.735.407-1.125 1.094-.391.672-.391 1.469 0 .765.39 1.453.39.672 1.125 1.078.718.406 1.656.406.937 0 1.672-.406.719-.406 1.125-1.078.406-.688.407-1.453zm2.409-12.623q0 .797-.235 1.484-.25.688-.688 1.11-.953 1-2.719 1h-5.015v1.906h-2.391v-1.906h-3.078V277.9h3.079v-2.656h2.391v2.656h4.5q.827 0 1.187-.36.344-.296.344-1.015 0-.406-.11-.672-.109-.266-.358-.703h2.734q.36.922.359 1.953zm-12.249-5.759q0 .734-.531 1.281-.532.532-1.282.532-.734 0-1.25-.532-.53-.547-.53-1.28 0-.75.53-1.267.517-.53 1.251-.53.75 0 1.281.53.531.516.531 1.266zm1.203 1.406v-2.797h10.876l-.001 2.797h-10.875zm.001-5.714v-2.625h1.36v-.172q-.78-.516-1.234-1.375-.468-.875-.468-1.938 0-1.14.547-2 .547-.86 1.376-1.219-.86-.53-1.39-1.453-.532-.937-.531-2.187 0-1.86 1.14-2.828 1.142-.969 3.08-.969h7l-.002 2.766h-6.484q-1.016 0-1.562.484-.563.484-.563 1.328 0 1.094.859 1.75.859.64 2.265.64h5.485l-.001 2.798h-6.484q-1.016 0-1.563.5-.563.5-.563 1.421 0 1.016.859 1.657.86.625 2.266.625h5.484v2.797h-10.876zm-1.198-21.009q0 .735-.532 1.282-.53.531-1.28.531-.735 0-1.25-.531-.532-.547-.532-1.282 0-.75.532-1.265.516-.531 1.25-.531.75 0 1.281.53.531.516.531 1.266zm1.203 1.407v-2.797h10.875v2.797h-10.875zm8.595-5.168l-6.233-5.672-.002 5.5h-2.359l.002-8.937h2.281l6.218 5.671.001-5.843h2.375l-.002 9.28h-2.281zm2.629-16.555q0 1.625-.751 2.937-.75 1.297-2.063 2.032-1.313.734-2.953.734-1.547 0-2.875-.719-1.344-.734-2.125-2.015-.796-1.282-.796-2.86 0-1.687.735-2.89.72-1.22 1.985-1.844 1.25-.64 2.781-.64.5 0 .938.062l-.002 8.172q1.312-.22 1.984-1.032.657-.828.657-1.968 0-.97-.406-1.657-.421-.687-1.124-1.093l1.11-2.266q2.905 1.656 2.905 5.047zm-7.11-2.578q-.5.047-1 .375-.515.328-.843.922-.329.578-.329 1.375 0 1 .594 1.718.578.704 1.578 1.032v-5.422z"/><path d="M763.982 10.336h184.045v184.046H763.982zM226.027 113.23c-13.273 0-26.353 39.189-26.546 78.378-.193 39.189 12.501 78.378 25.002 78.378"/><path stroke="#34a853" stroke-width="2" stroke-linejoin="round" stroke-linecap="butt" stroke-dasharray="8.0,6.0" d="M226.027 113.23c-13.273 0-26.353 39.189-26.546 78.378-.096 19.594 3.029 39.189 7.74 53.884 1.179 3.674 2.456 7.042 3.807 10.027a60.767 60.767 0 0 0 2.078 4.181 46.233 46.233 0 0 0 1.62 2.725l.2.304"/><path fill="#34a853" stroke="#34a853" stroke-width="2" stroke-linecap="butt" d="M212.928 265.36l9.227 2.858-5.232-8.12z" fill-rule="evenodd"/><path fill="#ea4335" d="M505.268 373.442h223.45v85.524c-111.725 0-111.725 32.586-223.45 14.071z" fill-rule="evenodd"/><path stroke="#85200c" stroke-linejoin="round" stroke-linecap="butt" d="M505.268 373.442h223.45v85.524c-111.725 0-111.725 32.586-223.45 14.071z"/><path fill="#f3f3f3" d="M552.857 423.421q-1.485 0-2.64-.656-1.157-.672-1.798-1.813-.64-1.156-.64-2.578t.64-2.578q.64-1.156 1.797-1.812 1.156-.672 2.64-.672 1.454 0 2.61.672 1.156.656 1.797 1.812.64 1.156.64 2.578t-.64 2.578q-.64 1.141-1.797 1.813-1.156.656-2.61.656zm0-2.25q.703 0 1.297-.328.609-.344.953-.984.36-.641.36-1.485 0-.844-.36-1.469-.344-.64-.953-.968-.594-.344-1.297-.344-.719 0-1.313.344-.593.328-.968.968-.36.625-.36 1.47 0 .827.36 1.484.375.64.968.984.594.328 1.313.328zm6.848-7.562h2.297v1.156h.14q.392-.61 1.142-1.031.75-.422 1.718-.422 1.282 0 2.328.64 1.063.641 1.657 1.797.593 1.156.593 2.625t-.593 2.625q-.594 1.14-1.657 1.781-1.046.641-2.328.641-.968 0-1.734-.406-.75-.406-1.125-1.031h-.14l.14 1.343v3.828h-2.438V413.61zm4.86 7.562q.687 0 1.281-.36.61-.359.953-.984.36-.64.36-1.453 0-.828-.36-1.453-.344-.64-.953-.984-.594-.344-1.281-.344-.672 0-1.266.344-.594.343-.953.984-.344.625-.344 1.453 0 .813.344 1.453.36.625.953.985.594.36 1.266.36zm11.041 2.11q-.703 0-1.297-.22-.594-.218-.969-.593-.875-.844-.875-2.39v-4.376h-1.672v-2.093h1.672v-2.688h2.438v2.688h2.328v2.093h-2.328v3.938q0 .719.312 1.047.266.297.907.297.343 0 .578-.094.234-.094.61-.328v2.39q-.798.328-1.704.328zm5.048-10.72q-.656 0-1.125-.468-.468-.469-.468-1.11 0-.656.468-1.109.469-.469 1.125-.469.657 0 1.11.47.453.452.453 1.109 0 .64-.453 1.109t-1.11.469zm-1.234 1.048h2.437v9.515h-2.437v-9.515zm4.993 0h2.297v1.187h.156q.437-.687 1.187-1.078.766-.406 1.704-.406 1 0 1.75.484.75.469 1.062 1.188.469-.735 1.281-1.204.813-.468 1.907-.468 1.625 0 2.468 1 .86 1 .86 2.687v6.125h-2.422v-5.672q0-.89-.422-1.375-.422-.484-1.172-.484-.953 0-1.531.75-.563.75-.563 1.984v4.797h-2.437v-5.672q0-.89-.438-1.375-.437-.484-1.234-.484-.906 0-1.453.75t-.547 1.984v4.797h-2.453v-9.515zm18.386-1.047q-.656 0-1.125-.469-.468-.469-.468-1.11 0-.656.468-1.109.469-.469 1.125-.469.657 0 1.11.47.453.452.453 1.109 0 .64-.453 1.109t-1.11.469zm-1.234 1.047h2.437v9.515h-2.437v-9.515zm4.508 7.515l4.97-5.437h-4.813v-2.078h7.812v2l-4.953 5.437h5.11v2.078h-8.126v-2zm14.487 2.297q-1.422 0-2.563-.64-1.14-.657-1.78-1.797-.642-1.157-.642-2.594 0-1.36.625-2.531.641-1.172 1.75-1.86 1.125-.687 2.516-.687 1.469 0 2.531.64 1.063.625 1.61 1.735.562 1.093.562 2.437 0 .422-.062.828h-7.14q.187 1.125.905 1.72.72.593 1.72.593.843 0 1.452-.36.61-.375.953-.984l1.985.969q-1.453 2.531-4.422 2.531zm2.25-6.203q-.031-.453-.328-.89-.282-.438-.797-.72-.516-.296-1.203-.296-.875 0-1.5.515-.625.5-.907 1.391h4.735zm8.326 6.203q-1.281 0-2.344-.64-1.047-.641-1.656-1.782-.61-1.156-.61-2.625t.61-2.625q.61-1.156 1.656-1.797 1.063-.64 2.344-.64.969 0 1.719.422.75.421 1.14 1.03h.141l-.14-1.343v-3.656h2.421v13.36h-2.281v-1.141h-.14q-.376.625-1.141 1.03-.75.407-1.719.407zm.406-2.25q.688 0 1.282-.36.609-.359.953-.984.359-.64.359-1.453 0-.828-.36-1.453-.343-.64-.952-.984-.594-.344-1.282-.344-.672 0-1.265.344-.594.343-.953.984-.36.625-.36 1.453 0 .813.36 1.453.359.625.953.985.593.36 1.265.36zm6.085 1.953zm10.037.297q-1.437 0-2.578-.64-1.14-.641-1.781-1.797-.64-1.157-.64-2.61 0-1.469.64-2.61.64-1.14 1.781-1.796 1.14-.656 2.578-.656 1.578 0 2.72.687 1.14.672 1.64 1.922l-2.235.938q-.593-1.266-2.125-1.266-1.125 0-1.843.766-.72.765-.72 2.015 0 1.266.72 2.031.718.766 1.843.766 1.547 0 2.235-1.344l2.218.97q-.609 1.25-1.75 1.937-1.14.687-2.703.687zm10.768 0q-1.484 0-2.64-.656-1.156-.672-1.797-1.813-.64-1.156-.64-2.578t.64-2.578q.64-1.156 1.797-1.812 1.156-.672 2.64-.672 1.454 0 2.61.672 1.156.656 1.797 1.812.64 1.156.64 2.578t-.64 2.578q-.64 1.141-1.797 1.813-1.156.656-2.61.656zm0-2.25q.704 0 1.297-.328.61-.344.953-.984.36-.641.36-1.485 0-.844-.36-1.469-.343-.64-.953-.968-.593-.344-1.297-.344-.718 0-1.312.344-.594.328-.969.968-.36.625-.36 1.47 0 .827.36 1.484.375.64.969.984.594.328 1.312.328zm11.005 2.25q-1.28 0-2.343-.64-1.047-.641-1.657-1.782-.61-1.156-.61-2.625t.61-2.625q.61-1.156 1.657-1.797 1.062-.64 2.343-.64.97 0 1.72.422.75.421 1.14 1.03h.14l-.14-1.343v-3.656h2.422v13.36h-2.282v-1.141h-.14q-.375.625-1.14 1.03-.75.407-1.72.407zm.407-2.25q.687 0 1.28-.36.61-.359.954-.984.36-.64.36-1.453 0-.828-.36-1.453-.344-.64-.953-.984-.594-.344-1.281-.344-.672 0-1.266.344-.594.343-.953.984-.36.625-.36 1.453 0 .813.36 1.453.36.625.953.985.594.36 1.266.36zm11.74 2.25q-1.421 0-2.562-.64-1.14-.657-1.781-1.797-.641-1.157-.641-2.594 0-1.36.625-2.531.64-1.172 1.75-1.86 1.125-.687 2.516-.687 1.468 0 2.53.64 1.063.625 1.61 1.735.563 1.093.563 2.437 0 .422-.063.828h-7.14q.187 1.125.906 1.72.719.593 1.719.593.843 0 1.453-.36.61-.375.953-.984l1.984.969q-1.453 2.531-4.422 2.531zm2.25-6.203q-.03-.453-.328-.89-.281-.438-.797-.72-.515-.296-1.203-.296-.875 0-1.5.515-.625.5-.906 1.391h4.734z"/><path fill="#ea4335" d="M226.119 398.328c0-7.85 6.364-14.215 14.215-14.215h149.774a14.215 14.215 0 0 1 14.216 14.215v56.861c0 7.85-6.365 14.215-14.216 14.215H240.334c-7.85 0-14.215-6.364-14.215-14.215z" fill-rule="evenodd"/><path stroke="#5b0f00" stroke-linejoin="round" stroke-linecap="butt" d="M226.119 398.328c0-7.85 6.364-14.215 14.215-14.215h149.774a14.215 14.215 0 0 1 14.216 14.215v56.861c0 7.85-6.365 14.215-14.216 14.215H240.334c-7.85 0-14.215-6.364-14.215-14.215z"/><path fill="#f3f3f3" d="M266.847 420.32h2.516v13.358h-2.516V420.32zm9.778 13.655q-1.484 0-2.64-.656-1.157-.672-1.797-1.812-.64-1.157-.64-2.579 0-1.421.64-2.578.64-1.156 1.797-1.812 1.156-.672 2.64-.672 1.453 0 2.61.672 1.156.656 1.796 1.812.641 1.157.641 2.578 0 1.422-.64 2.579-.641 1.14-1.797 1.812-1.157.656-2.61.656zm0-2.25q.703 0 1.297-.328.61-.344.953-.984.36-.64.36-1.485 0-.843-.36-1.468-.344-.64-.953-.969-.594-.344-1.297-.344-.719 0-1.312.344-.594.328-.969.969-.36.625-.36 1.468 0 .829.36 1.485.375.64.969.984.593.328 1.312.328zm6.911-7.562h2.297v1.187h.156q.422-.687 1.204-1.078.796-.406 1.703-.406 1.718 0 2.61 1.047.905 1.047.905 2.86v5.905h-2.453v-5.609q0-.922-.469-1.422-.468-.5-1.296-.5-1 0-1.61.766-.594.765-.594 1.922v4.843h-2.453v-9.515zm11.52-3.844h3.25l3.546 9.39h.14l3.548-9.39h3.265v13.36h-2.5V427.1l.14-2.234h-.14l-3.39 8.812h-1.97l-3.405-8.812h-.157l.157 2.234v6.578h-2.485V420.32zm21.009 13.656q-1.485 0-2.641-.656-1.156-.672-1.797-1.812-.64-1.157-.64-2.579 0-1.421.64-2.578.64-1.156 1.797-1.812 1.156-.672 2.64-.672 1.454 0 2.61.672 1.156.656 1.797 1.812.64 1.157.64 2.578 0 1.422-.64 2.579-.64 1.14-1.797 1.812-1.156.656-2.61.656zm0-2.25q.703 0 1.296-.328.61-.344.954-.984.359-.64.359-1.485 0-.843-.36-1.468-.343-.64-.953-.969-.593-.344-1.296-.344-.72 0-1.313.344-.594.328-.969.969-.36.625-.36 1.468 0 .829.36 1.485.375.64.97.984.593.328 1.312.328zm6.91-7.562h2.298v1.187h.156q.422-.687 1.203-1.078.797-.406 1.703-.406 1.719 0 2.61 1.047.906 1.047.906 2.86v5.905h-2.453v-5.609q0-.922-.47-1.422-.468-.5-1.296-.5-1 0-1.61.766-.593.765-.593 1.922v4.843h-2.453v-9.515zm11.176-3.844h2.453v7.281h.125l3.422-3.437h3v.156l-3.61 3.516 3.782 5.687v.156h-2.891l-2.594-4.156-1.234 1.203v2.953h-2.453V420.32zm14.897 13.656q-1.422 0-2.562-.64-1.14-.657-1.781-1.797-.641-1.156-.641-2.594 0-1.36.625-2.531.64-1.172 1.75-1.86 1.125-.687 2.516-.687 1.468 0 2.53.64 1.063.626 1.61 1.735.563 1.094.563 2.437 0 .422-.063.829h-7.14q.187 1.125.906 1.718.719.594 1.719.594.843 0 1.453-.36.61-.374.953-.984l1.984.97q-1.453 2.53-4.422 2.53zm2.25-6.203q-.03-.453-.328-.89-.281-.438-.797-.72-.515-.296-1.203-.296-.875 0-1.5.516-.625.5-.906 1.39h4.734zm7.202 5.453l-4-9.062h2.765l2.469 5.922h.156l2.36-5.922h2.734l-5.89 13.547h-2.626l2.032-4.485z"/><path d="M311.905 322.161l181.26.095v45.858l-181.26-.094z"/><path fill="#666" d="M360.565 347.072l-2.28-.001v2.265h-1.548v-2.266l-2.265-.001v-1.547l2.265.001v-2.265h1.547v2.266l2.281.001v1.547zm.833 2.844zm3.916-6.795l1.64.001v.828h.11q.281-.437.812-.734.532-.312 1.219-.311.922 0 1.672.47.766.453 1.187 1.281.422.828.422 1.86 0 1.062-.422 1.89-.421.812-1.187 1.28-.75.453-1.672.453-.687 0-1.234-.298-.532-.297-.797-.734h-.11l.11.953v2.734h-1.75v-9.673zm3.484 5.393q.485 0 .906-.25.438-.25.688-.702.25-.453.25-1.047 0-.578-.25-1.032-.25-.453-.688-.703-.421-.25-.906-.25-.484 0-.906.249-.422.25-.688.703-.25.453-.25 1.03 0 .595.25 1.048.266.453.688.703.422.25.906.25zm4.935-5.388h1.64v.907h.094q.266-.484.797-.797.531-.312 1.172-.311.469 0 .844.156v1.735q-.36-.126-.61-.188-.234-.063-.515-.063-.781 0-1.235.562-.453.562-.453 1.406v3.39h-1.734v-6.797zm8.941 7.02q-1.062 0-1.89-.47-.813-.485-1.282-1.297-.453-.829-.453-1.86 0-1 .453-1.828.469-.828 1.281-1.296.829-.484 1.891-.483 1.031 0 1.86.485.828.47 1.28 1.298.47.828.47 1.828 0 1.031-.47 1.859-.452.812-1.28 1.296-.829.469-1.86.468zm0-1.625q.5 0 .922-.234.437-.234.687-.687.25-.453.25-1.078 0-.594-.25-1.047-.25-.453-.687-.688-.422-.25-.922-.25-.516 0-.937.25-.422.233-.688.686-.266.453-.266 1.047 0 .61.266 1.078.266.454.688.688.421.235.937.235zm5.681-3.888h-1.219v-1.5h1.22v-.375q0-1.156.687-1.812.687-.671 1.812-.67.64 0 1.11.156v1.703q-.266-.11-.454-.156-.187-.063-.437-.063-.453 0-.719.265-.265.25-.265.688v.265l1.671.001v1.5h-1.671v5.296h-1.735v-5.298zm5.755-2.247q-.47 0-.813-.328-.328-.328-.328-.797 0-.469.328-.797.344-.328.813-.328.468 0 .78.329.33.328.33.797 0 .469-.33.797-.312.328-.78.327zm-.89.75h1.75v6.798l-1.75-.001v-6.797zm3.584-2.748h1.734v9.548l-1.734-.001v-9.547zm4.45 2.002q-.47 0-.813-.328-.328-.329-.328-.798 0-.468.328-.796.344-.328.813-.328.468 0 .78.329.329.328.329.797 0 .468-.328.796-.313.328-.781.328zm-.891.75h1.75v6.797h-1.75v-6.797zm3.585.002h1.64v.86h.094q.313-.5.875-.781.563-.297 1.203-.296 1.235 0 1.875.75.64.751.64 2.048v4.219l-1.75-.001v-4.016q0-.656-.343-1.016-.328-.36-.922-.36-.703 0-1.14.547-.438.546-.438 1.375v3.468h-1.734v-6.797zm11.108 9.896q-1.297 0-2.156-.58-.844-.578-1.14-1.39l1.64-.672q.219.5.656.798.438.297 1 .297.828 0 1.313-.515.484-.5.484-1.437v-.531h-.11q-.312.453-.843.702-.516.234-1.172.234-.844 0-1.578-.423-.719-.438-1.156-1.235-.438-.797-.438-1.844 0-1.062.438-1.843.437-.797 1.156-1.234.734-.437 1.578-.437.656 0 1.172.251.531.235.844.688h.11v-.719l1.687.001v6.328q0 1.094-.438 1.89-.422.797-1.219 1.234-.78.437-1.828.437zm.031-4.688q.735 0 1.25-.499.516-.515.516-1.406 0-.922-.516-1.422-.5-.5-1.25-.5-.75-.001-1.28.514-.516.5-.516 1.406 0 .907.515 1.407.531.5 1.281.5zm4.302 1.596zm6.884.223q-.906 0-1.672-.454-.75-.47-1.187-1.282-.422-.828-.422-1.89 0-1.032.422-1.86.437-.828 1.187-1.28.766-.47 1.672-.469.703 0 1.234.314.532.297.813.734h.11l-.11-.968v-2.61l1.734.001v9.547h-1.625v-.813h-.11q-.265.437-.812.734-.53.296-1.234.296zm.297-1.625q.5 0 .922-.25.422-.25.672-.702.265-.453.265-1.047 0-.578-.265-1.031-.25-.454-.672-.704-.422-.25-.922-.25-.485 0-.906.25-.422.249-.688.702-.25.453-.25 1.031 0 .594.25 1.047.266.453.688.703.421.25.906.25zm7.285 1.629q-1.078 0-1.781-.626-.688-.641-.688-1.672 0-.688.36-1.203.359-.516.984-.797.625-.28 1.39-.28 1.047 0 1.797.313v-.297q0-.562-.422-.906-.421-.344-1.125-.344-.484 0-.937.218-.438.218-.734.577l-1.11-.875q.485-.64 1.235-.984.75-.359 1.625-.358 1.562 0 2.375.72.812.719.812 2.11v4.187l-1.719-.001v-.687h-.109q-.313.39-.813.655-.5.25-1.14.25zm.406-1.36q.766.001 1.203-.483.453-.5.453-1.14-.687-.33-1.422-.33-1.359 0-1.359 1.015 0 .407.281.672.297.266.844.267zm7.946 1.255q-.5 0-.938-.157-.421-.157-.687-.422-.625-.594-.625-1.704v-3.125h-1.188v-1.5h1.188v-1.922l1.75.001v1.922l1.656.001v1.5h-1.656v2.796q0 .531.219.75.187.219.64.22.25 0 .422-.063.172-.078.438-.234v1.703q-.578.234-1.22.234zm4.696.112q-1.078-.001-1.781-.626-.688-.641-.688-1.673 0-.687.36-1.203.359-.515.984-.796.625-.28 1.39-.28 1.048 0 1.798.313v-.297q0-.562-.422-.906t-1.125-.345q-.485 0-.938.219-.437.218-.734.577l-1.11-.875q.485-.64 1.235-.984.75-.359 1.625-.359 1.562.001 2.375.72.812.72.812 2.11v4.188l-1.718-.001v-.688h-.11q-.312.39-.812.656-.5.25-1.141.25zm.406-1.36q.766 0 1.203-.483.454-.5.454-1.14-.688-.33-1.422-.33-1.36 0-1.36 1.015 0 .407.282.672.296.266.843.266z"/><path d="M728.655 426.756c0-10.798 5.85-9.706 12.531-21.596 6.682-11.89 14.194-36.763 12.532-67.58-1.663-30.818-12.5-67.58-25-67.58"/><path stroke="#ea4335" stroke-width="2" stroke-linejoin="round" stroke-linecap="butt" stroke-dasharray="8.0,6.0" d="M728.655 426.756c0-10.798 5.85-9.706 12.531-21.596 6.682-11.89 14.194-36.763 12.532-67.58-.831-15.409-3.956-32.304-8.436-45.347-1.12-3.26-2.325-6.28-3.6-8.976a55.82 55.82 0 0 0-1.962-3.79 42.257 42.257 0 0 0-1.275-2.094l-.12-.182"/><path fill="#ea4335" stroke="#ea4335" stroke-width="2" stroke-linecap="butt" d="M740.304 274.546l-9.245-2.794 5.286 8.083z" fill-rule="evenodd"/><path d="M404.324 426.759h50.472v.062h50.472"/><path stroke="#666" stroke-width="2" stroke-linejoin="round" stroke-linecap="butt" d="M404.324 426.759h50.472v.063h38.472"/><path fill="#666" stroke="#666" stroke-width="2" stroke-linecap="butt" d="M493.268 430.125l9.077-3.303-9.077-3.304z" fill-rule="evenodd"/><path d="M505.805 306.451c-34.201 10.527-68.752 25.73-104.515 24.518-24.947-.847-56.179-13.999-74.84 2.58-11.972 10.635 20.501 32.722 12.257 46.451"/><path stroke="#666" stroke-width="2" stroke-linejoin="round" stroke-linecap="butt" stroke-dasharray="8.0,6.0" d="M505.805 306.451c-34.201 10.527-68.752 25.73-104.515 24.518-24.947-.847-56.179-13.999-74.84 2.58-5.986 5.317-.86 13.498 4.73 22.065 1.399 2.142 2.826 4.308 4.115 6.46a63.001 63.001 0 0 1 1.811 3.211 42.172 42.172 0 0 1 1.148 2.377l.148.342"/><path fill="#666" stroke="#666" stroke-width="2" stroke-linecap="butt" d="M335.1 368.088l3.533 8.99 3.071-9.158z" fill-rule="evenodd"/><path d="M224.481 269.993c-12.5 0-25.205 39.19-25 78.378.205 39.19 13.319 78.378 26.638 78.378"/><path stroke="#34a853" stroke-width="2" stroke-linejoin="round" stroke-linecap="butt" stroke-dasharray="8.0,6.0" d="M224.481 269.993c-12.5 0-25.205 39.19-25 78.378.102 19.595 3.432 39.19 8.401 53.885 1.242 3.674 2.587 7.042 4.01 10.027a59.461 59.461 0 0 0 2.188 4.181 45.533 45.533 0 0 0 1.707 2.725c.096.14.192.28.289.418l.2.279"/><path fill="#34a853" stroke="#34a853" stroke-width="2" stroke-linecap="butt" d="M214.386 422.596l9.334 2.481-5.555-7.9z" fill-rule="evenodd"/></g></svg>