<svg viewBox="0 0 960 540" fill="none" stroke-linecap="square" stroke-miterlimit="10" xmlns="http://www.w3.org/2000/svg"><clipPath id="a"><path d="M0 0h960v540H0V0z"/></clipPath><g clip-path="url(#a)"><path fill="#fff" d="M0 0h960v540H0z" fill-rule="evenodd"/><path d="M115.26 38.573h729.48v303.623H115.26z"/><path fill="#000" d="M134.885 66.223q.015-1.078-.781-1.828-.782-.766-2.5-1.328-1.094-.344-1.985-.782-.875-.453-1.5-1.062-.625-.625-.969-1.422-.328-.797-.328-1.828 0-.985.297-1.781.297-.797.844-1.391.547-.594 1.312-.953.782-.375 1.735-.485v-2.578h1.75v2.578q1.969.266 3.047 1.657 1.093 1.39 1.11 3.781h-2.157q0-.781-.203-1.438-.188-.671-.563-1.14-.36-.485-.906-.75-.531-.266-1.219-.266-1.422 0-2.156.735-.719.734-.734 1.984 0 .594.187 1.047.188.453.594.828.406.375 1.047.703.64.328 1.547.625 1.093.36 1.968.813.891.437 1.5 1.046.61.594.922 1.375.328.782.328 1.829 0 1.015-.328 1.828-.312.812-.906 1.39-.578.578-1.422.938-.844.344-1.86.453v2.25h-1.75v-2.234q-.906-.094-1.75-.422-.827-.328-1.484-.953-.64-.641-1.03-1.579-.376-.953-.376-2.28h2.156q0 .984.297 1.64.297.64.75 1.031.469.39 1.047.563.594.156 1.188.156.765 0 1.375-.188.609-.187 1.03-.547.423-.359.641-.859.235-.516.235-1.156zm5.418-2.063q0-1.406.344-2.593.343-1.204 1-2.047.656-.86 1.593-1.344.938-.484 2.125-.484 1.172 0 2.047.421.89.422 1.516 1.204l.11-1.391h1.968v12.422q0 1.25-.39 2.219-.391.984-1.11 1.656-.703.687-1.688 1.031-.984.36-2.187.36-.484 0-1.125-.126-.625-.109-1.281-.359-.64-.25-1.25-.672-.61-.422-1.032-1.047l1.125-1.297q.391.485.813.813.422.344.86.531.437.203.859.281.437.094.875.094.765 0 1.39-.219.625-.218 1.063-.656.437-.422.672-1.062.234-.625.234-1.453v-1.079q-.625.72-1.5 1.11-.86.375-1.984.375-1.172 0-2.11-.485-.937-.5-1.593-1.359-.641-.875-1-2.047-.344-1.187-.344-2.547v-.25zm2.172.25q0 .922.187 1.766.203.828.61 1.469.421.625 1.062 1 .64.36 1.547.36.562 0 1.016-.126.453-.14.812-.39.36-.25.64-.579.282-.343.485-.75v-5.812q-.203-.406-.484-.735-.282-.328-.657-.562-.359-.25-.812-.375-.438-.14-.969-.14-.922 0-1.578.374-.64.375-1.062 1.016-.407.64-.61 1.484-.187.828-.187 1.75v.25zm18.23 6.438q-1.328 0-2.453-.453-1.125-.469-1.922-1.282-.797-.828-1.25-1.953-.437-1.125-.437-2.437v-.5q0-1.531.484-2.735.5-1.218 1.313-2.062.828-.844 1.859-1.281 1.031-.453 2.125-.453 1.375 0 2.39.484 1.032.469 1.704 1.312.687.829 1.015 1.97.344 1.14.344 2.468v.969h-9.062q.03.86.328 1.625.312.765.828 1.343.515.563 1.234.891.735.328 1.625.328 1.156 0 2.047-.469.906-.468 1.516-1.25l1.312 1.032q-.312.484-.797.922-.468.437-1.093.78-.61.345-1.407.548-.781.203-1.703.203zm-.281-11.375q-.656 0-1.25.25-.578.234-1.047.703-.469.453-.797 1.14-.312.672-.437 1.547h6.812v-.171q-.031-.625-.234-1.25t-.61-1.11q-.39-.5-1-.797-.609-.312-1.437-.312zm14.215-4.61v3.063h4.828v1.687h-4.828v6.891q0 .734.187 1.219.188.469.516.765.328.282.75.407.437.11.922.11.343 0 .718-.032.375-.047.735-.11.36-.062.672-.125.312-.062.5-.109l.312 1.531q-.265.172-.656.297-.39.125-.844.203-.453.094-.969.141-.515.047-1.015.047-.844 0-1.578-.235-.735-.25-1.282-.765-.53-.531-.843-1.344-.297-.828-.297-2v-6.89h-3.328v-1.688h3.328v-3.063h2.172zm14.558 5.375l3.672-6.687h2.563l-4.953 8.453 5.062 8.61h-2.531l-3.766-6.829-3.781 6.828h-2.578l5.094-8.609-4.954-8.453h2.532l3.64 6.687z"/><path fill="#e67c73" d="M223.174 61.473h-10.469v-1.89h10.469v1.89zm0 4.86h-10.469v-1.876h10.469v1.875z"/><path fill="#000" d="M244.76 70.613v-11h-3.5v-1.687h3.5v-.89q0-1.22.344-2.126.359-.922 1.015-1.547.656-.625 1.563-.937.922-.313 2.047-.313.765 0 1.5.125.734.125 1.5.329l-.25 1.796q-.485-.171-1.125-.296-.641-.125-1.36-.125-1.531.015-2.297.78-.765.766-.765 2.313v.891h4.89v1.687h-4.89v11h-2.172zm10.57-6.453q0-1.375.39-2.547.407-1.187 1.141-2.046.75-.875 1.813-1.375 1.062-.5 2.406-.5t2.406.5q1.079.5 1.829 1.375.75.859 1.14 2.046.406 1.172.406 2.547v.25q0 1.375-.406 2.547-.39 1.172-1.14 2.047-.75.86-1.813 1.36-1.062.484-2.406.484t-2.422-.485q-1.063-.5-1.813-1.359-.734-.875-1.14-2.047-.39-1.172-.39-2.547v-.25zm2.156.25q0 .938.22 1.797.234.844.687 1.485.453.64 1.125 1.015.687.375 1.578.375.89 0 1.562-.375.688-.375 1.125-1.015.453-.641.672-1.485.235-.86.235-1.797v-.25q0-.937-.235-1.78-.219-.845-.672-1.485-.453-.657-1.125-1.032-.672-.39-1.578-.39t-1.578.39q-.656.375-1.11 1.032-.452.64-.687 1.484-.219.844-.219 1.781v.25zm12.247-.25q0-1.375.39-2.547.406-1.187 1.14-2.046.75-.875 1.813-1.375t2.407-.5q1.343 0 2.406.5 1.078.5 1.828 1.375.75.859 1.14 2.046.407 1.172.407 2.547v.25q0 1.375-.406 2.547-.391 1.172-1.141 2.047-.75.86-1.813 1.36-1.062.484-2.406.484t-2.422-.485q-1.062-.5-1.812-1.359-.735-.875-1.14-2.047-.391-1.172-.391-2.547v-.25zm2.156.25q0 .938.219 1.797.234.844.687 1.485.453.64 1.125 1.015.688.375 1.578.375.89 0 1.563-.375.687-.375 1.125-1.015.453-.641.672-1.485.234-.86.234-1.797v-.25q0-.937-.234-1.78-.22-.845-.672-1.485-.453-.657-1.125-1.032-.672-.39-1.578-.39-.907 0-1.579.39-.656.375-1.109 1.032-.453.64-.687 1.484-.22.844-.22 1.781v.25z"/><path fill="#e67c73" d="M288.51 69.207q0-.36.11-.656.109-.313.312-.531.218-.235.531-.36.328-.125.75-.125t.734.125q.328.125.547.36.219.218.328.531.11.297.11.656 0 .344-.11.64-.109.298-.328.516-.219.22-.547.344-.312.125-.734.125t-.75-.125q-.313-.125-.531-.344-.203-.218-.313-.515-.11-.297-.11-.64z"/><path fill="#000" d="M298.74 64.16q0-1.406.344-2.593.344-1.204 1-2.047.656-.86 1.594-1.344.937-.484 2.125-.484 1.172 0 2.047.421.89.422 1.515 1.204l.11-1.391h1.968v12.422q0 1.25-.39 2.219-.39.984-1.11 1.656-.703.687-1.687 1.031-.984.36-2.188.36-.484 0-1.125-.126-.625-.109-1.28-.359-.641-.25-1.25-.672-.61-.422-1.032-1.047l1.125-1.297q.39.485.812.813.422.344.86.531.437.203.86.281.437.094.874.094.766 0 1.39-.219.626-.218 1.063-.656.438-.422.672-1.062.235-.625.235-1.453v-1.079q-.625.72-1.5 1.11-.86.375-1.985.375-1.172 0-2.11-.485-.937-.5-1.593-1.359-.64-.875-1-2.047-.344-1.187-.344-2.547v-.25zm2.172.25q0 .922.188 1.766.203.828.61 1.469.421.625 1.062 1 .64.36 1.546.36.563 0 1.016-.126.453-.14.813-.39.359-.25.64-.579.281-.343.485-.75v-5.812q-.204-.406-.485-.735-.281-.328-.656-.562-.36-.25-.813-.375-.437-.14-.968-.14-.922 0-1.578.374-.641.375-1.063 1.016-.406.64-.61 1.484-.187.828-.187 1.75v.25zm18.23 6.438q-1.327 0-2.452-.453-1.125-.469-1.922-1.282-.797-.828-1.25-1.953-.438-1.125-.438-2.437v-.5q0-1.531.485-2.735.5-1.218 1.312-2.062.828-.844 1.86-1.281 1.03-.453 2.124-.453 1.375 0 2.391.484 1.031.469 1.703 1.312.688.829 1.016 1.97.344 1.14.344 2.468v.969h-9.063q.031.86.328 1.625.313.765.828 1.343.516.563 1.235.891.734.328 1.625.328 1.156 0 2.047-.469.906-.468 1.515-1.25l1.313 1.032q-.313.484-.797.922-.469.437-1.094.78-.61.345-1.406.548-.781.203-1.703.203zm-.28-11.375q-.657 0-1.25.25-.579.234-1.047.703-.47.453-.797 1.14-.313.672-.438 1.547h6.813v-.171q-.032-.625-.235-1.25-.203-.625-.61-1.11-.39-.5-1-.797-.608-.312-1.437-.312zm14.214-4.61v3.063h4.828v1.687h-4.828v6.891q0 .734.188 1.219.187.469.515.765.329.282.75.407.438.11.922.11.344 0 .719-.032.375-.047.734-.11.36-.062.672-.125.313-.062.5-.109l.313 1.531q-.266.172-.656.297-.391.125-.844.203-.453.094-.969.141-.516.047-1.016.047-.843 0-1.578-.235-.734-.25-1.281-.765-.531-.531-.844-1.344-.297-.828-.297-2v-6.89h-3.328v-1.688h3.328v-3.063h2.172zm14.559 5.375l3.672-6.687h2.562l-4.953 8.453 5.063 8.61h-2.532l-3.765-6.829-3.782 6.828h-2.578l5.094-8.609-4.953-8.453h2.531l3.64 6.687z"/><path fill="#e67c73" d="M360.522 59.207q0-.36.109-.656.11-.313.312-.531.22-.235.532-.36.328-.125.75-.125t.734.125q.328.125.547.36.219.218.328.531.11.297.11.656 0 .344-.11.64-.11.298-.328.516-.219.22-.547.344-.312.125-.734.125t-.75-.125q-.313-.125-.532-.344-.203-.218-.312-.515-.11-.297-.11-.64zm3.718 10.906q0 .547-.14 1.141-.125.61-.39 1.203-.267.594-.642 1.125-.375.547-.859.969l-1.344-.734q.563-.829.797-1.75.235-.922.235-1.922V68.05h2.343v2.062z"/><path fill="#ff9800" d="M662.52 364.957c0-6.283 5.093-11.376 11.375-11.376h142.068a11.376 11.376 0 0 1 11.376 11.376v45.5c0 6.283-5.093 11.376-11.376 11.376H673.895c-6.282 0-11.375-5.093-11.375-11.375z" fill-rule="evenodd"/><path stroke="#666" stroke-linejoin="round" stroke-linecap="butt" d="M662.52 364.957c0-6.283 5.093-11.376 11.375-11.376h142.068a11.376 11.376 0 0 1 11.376 11.376v45.5c0 6.283-5.093 11.376-11.376 11.376H673.895c-6.282 0-11.375-5.093-11.375-11.375z"/><path fill="#fff" d="M716.485 392.354q0-.5-.187-.937-.172-.453-.594-.828-.422-.391-1.11-.704-.671-.328-1.687-.593-1.234-.344-2.36-.844-1.124-.516-1.984-1.219-.86-.719-1.375-1.672t-.515-2.187q0-1.203.5-2.172.515-.984 1.406-1.672.906-.687 2.125-1.062 1.219-.375 2.656-.375 1.484 0 2.703.437 1.235.422 2.125 1.203.89.781 1.375 1.844.5 1.062.5 2.344h-3.562q-.032-.64-.235-1.172-.203-.531-.609-.906-.39-.391-.984-.61-.579-.219-1.375-.219-.735 0-1.297.188-.563.172-.953.484-.391.313-.594.75-.203.438-.203.953 0 .532.265.97.266.421.766.765.516.344 1.234.64.72.282 1.641.516 1.297.39 2.39.938 1.094.546 1.876 1.296.796.735 1.234 1.704.437.953.437 2.125 0 1.25-.515 2.218-.5.97-1.39 1.641-.876.672-2.095 1.016-1.218.343-2.671.343-.891 0-1.782-.172-.89-.156-1.718-.484-.813-.344-1.516-.844-.703-.515-1.219-1.187-.5-.688-.797-1.547-.297-.86-.297-1.906h3.594q.031.86.297 1.484.281.61.766 1 .484.39 1.172.578.687.172 1.5.172.734 0 1.296-.172.563-.172.954-.469.39-.296.593-.718.22-.422.22-.938zm9.903-7.187q.703-1.032 1.703-1.61 1.015-.593 2.265-.593 1.11 0 2.032.343.922.328 1.578 1.032.672.687 1.047 1.796.375 1.094.375 2.641v8.531h-3.625v-8.547q0-.765-.188-1.312-.187-.547-.547-.875-.343-.344-.843-.5-.485-.172-1.11-.172-.922 0-1.594.328-.656.328-1.093.906v10.172h-3.625v-20h3.625v7.86zm21.184 12.14q-.141-.265-.235-.593-.078-.344-.156-.72-.297.329-.688.61-.39.281-.875.5-.468.219-1.046.344-.563.125-1.22.125-1.077 0-1.984-.313-.906-.312-1.562-.875-.656-.562-1.016-1.328-.359-.78-.359-1.687 0-2.235 1.656-3.453 1.656-1.219 4.953-1.219h2.016v-.828q0-1.016-.672-1.61-.656-.593-1.906-.593-1.11 0-1.625.484-.5.469-.5 1.266h-3.61q0-.907.391-1.703.406-.813 1.156-1.422.766-.61 1.86-.969 1.11-.36 2.531-.36 1.266 0 2.36.313 1.109.313 1.906.922.812.61 1.265 1.547.469.922.469 2.156v6.031q0 1.141.14 1.891.141.734.407 1.266v.218h-3.656zm-3.454-2.53q.547 0 1.016-.126.469-.14.844-.344.375-.218.64-.484.282-.266.438-.531v-2.422h-1.844q-.844 0-1.453.156-.594.156-.969.453-.375.297-.562.703-.188.407-.188.891 0 .734.516 1.219.516.484 1.562.484zm23.294-4.376q0 1.531-.36 2.844-.36 1.312-1.062 2.281-.688.953-1.719 1.5-1.016.547-2.344.547-1.14 0-2-.39-.86-.391-1.5-1.094v6.64h-3.61v-19.5h3.345l.125 1.375q.656-.781 1.53-1.203.892-.437 2.08-.437 1.343 0 2.358.515 1.032.516 1.735 1.469.703.937 1.062 2.266.36 1.312.36 2.906v.281zm-3.61-.281q0-.875-.172-1.656-.156-.782-.5-1.344-.343-.563-.89-.89-.547-.329-1.313-.329-.953 0-1.562.375-.594.375-.938 1.047v5.89q.344.657.938 1.063.61.39 1.594.39.765 0 1.296-.327.547-.344.891-.922.344-.594.5-1.375.156-.782.156-1.64v-.282zm13.794 7.453q-1.625 0-2.954-.531-1.328-.547-2.28-1.453-.954-.922-1.47-2.157-.515-1.25-.515-2.672v-.515q0-1.625.5-2.953.515-1.328 1.422-2.297.922-.969 2.172-1.5t2.718-.531q1.516 0 2.703.5 1.204.5 2.032 1.421.828.907 1.25 2.188.437 1.281.437 2.828v1.531h-9.562q.109.72.422 1.313.328.594.812 1.031.5.422 1.14.656.641.235 1.391.235.532 0 1.063-.094.531-.11 1-.313.484-.203.906-.5.422-.312.734-.703l1.797 1.953q-.328.47-.875.938-.531.469-1.281.828-.734.344-1.64.563-.891.234-1.922.234zm-.438-11.688q-.61 0-1.125.22-.5.218-.89.624-.376.406-.641.969-.25.547-.39 1.234h5.937v-.28q-.016-.579-.22-1.079-.187-.516-.562-.875-.359-.375-.89-.594-.531-.219-1.219-.219z"/><path fill="#bdbdbd" d="M673.527 422.012H816.11v59.716H673.527z" fill-rule="evenodd"/><path stroke="#666" stroke-linejoin="round" stroke-linecap="butt" d="M673.527 422.012H816.11v59.716H673.527z"/><path fill="#000" d="M730.871 443.707l-.25 4.312h-1.609v-5.609h1.86v1.297zm14.028 8.719l3.39-4.704h2.532l-4.72 6.282 4.86 6.406h-2.515l-3.5-4.828-3.5 4.828h-2.532l4.844-6.406-4.719-6.282h2.5l3.36 4.704zm14.777-8.72l-.25 4.313h-1.61v-5.609h1.86v1.297z"/><path fill="#34a853" d="M410.12 384.655c0-6.282 5.094-11.375 11.376-11.375h166.226a11.376 11.376 0 0 1 11.375 11.375v45.501c0 6.282-5.093 11.376-11.375 11.376H421.496c-6.282 0-11.375-5.094-11.375-11.376z" fill-rule="evenodd"/><path stroke="#666" stroke-linejoin="round" stroke-linecap="butt" d="M410.12 384.655c0-6.282 5.094-11.375 11.376-11.375h166.226a11.376 11.376 0 0 1 11.375 11.375v45.501c0 6.282-5.093 11.376-11.375 11.376H421.496c-6.282 0-11.375-5.094-11.375-11.376z"/><path fill="#fff" d="M451.264 387.052h3.656l.016 13.141q-.016 1.344-.516 2.469-.5 1.11-1.375 1.922-.859.797-2.046 1.25-1.172.437-2.532.437-1.422 0-2.593-.36-1.172-.374-2.016-1.093-.844-.719-1.313-1.812-.468-1.094-.484-2.579h3.672q.016 1.532.672 2.22.672.671 2.062.671.625 0 1.14-.234.532-.235.892-.657.375-.421.562-1 .203-.578.203-1.234v-13.14zm16.903 14q0-.5-.188-.937-.172-.453-.594-.828-.421-.39-1.109-.703-.672-.328-1.687-.594-1.235-.344-2.36-.844-1.125-.515-1.984-1.219-.86-.718-1.375-1.671-.516-.954-.516-2.188 0-1.203.5-2.172.516-.984 1.406-1.672.907-.687 2.125-1.062 1.22-.375 2.657-.375 1.484 0 2.703.437 1.234.422 2.125 1.203.89.782 1.375 1.844.5 1.063.5 2.344h-3.563q-.03-.64-.234-1.172-.203-.531-.61-.906-.39-.39-.984-.61-.578-.218-1.375-.218-.734 0-1.297.187-.562.172-.953.485-.39.312-.594.75-.203.437-.203.953 0 .53.266.968.266.422.766.766.515.344 1.234.64.719.282 1.64.516 1.297.39 2.391.938 1.094.547 1.875 1.297.797.734 1.235 1.703.437.953.437 2.125 0 1.25-.516 2.219-.5.968-1.39 1.64-.875.672-2.094 1.016-1.219.344-2.672.344-.89 0-1.781-.172-.89-.157-1.719-.485-.812-.343-1.515-.843-.704-.516-1.22-1.188-.5-.687-.796-1.547-.297-.86-.297-1.906h3.594q.031.86.297 1.484.281.61.765 1 .485.39 1.172.578.688.172 1.5.172.735 0 1.297-.172.563-.171.953-.468.39-.297.594-.72.219-.421.219-.937zm19.371-3.125q0 1.813-.484 3.36-.469 1.531-1.39 2.64-.907 1.11-2.22 1.735-1.297.61-2.937.61t-2.922-.61q-1.266-.625-2.14-1.735-.876-1.125-1.329-2.656-.453-1.531-.453-3.344v-2.765q0-1.828.453-3.36.453-1.53 1.328-2.64.875-1.125 2.141-1.75t2.906-.625q1.656 0 2.953.625 1.313.625 2.22 1.75.921 1.11 1.39 2.64.484 1.532.484 3.36v2.765zm-3.703-2.796q0-1.157-.188-2.125-.187-.985-.593-1.688-.407-.703-1.047-1.094-.625-.39-1.516-.39-.89 0-1.484.39t-.969 1.094q-.36.703-.516 1.688-.156.968-.156 2.125v2.796q0 1.141.156 2.125.157.97.516 1.688.375.719.969 1.125.594.39 1.5.39.875 0 1.5-.39.64-.406 1.031-1.11.406-.718.594-1.687.203-.984.203-2.14v-2.797zm19.309 3.984q0 1.562-.36 2.89-.343 1.313-1.03 2.266-.688.938-1.72 1.469-1.015.531-2.39.531-1.235 0-2.14-.453-.907-.469-1.548-1.312l-.172 1.5h-3.265v-20h3.625v7.187q.625-.719 1.469-1.125.859-.406 2-.406 1.39 0 2.421.531 1.032.531 1.72 1.484.687.954 1.03 2.282.36 1.312.36 2.875v.28zm-3.625-.281q0-.86-.14-1.625-.126-.766-.438-1.344-.313-.578-.86-.922-.547-.344-1.375-.344-.984 0-1.609.422-.61.422-.953 1.14v5.61q.344.735.953 1.156.625.407 1.64.407.813 0 1.344-.313.547-.328.86-.89.312-.563.437-1.329.14-.78.14-1.687v-.281zm9.09-6.907h7.203v14.407q0 1.406-.406 2.406-.39 1.016-1.172 1.672-.766.656-1.875.969-1.094.312-2.516.312-.593 0-1.187-.047-.594-.047-1.14-.172l.171-2.937q.156.031.438.062.28.032.578.047.297.031.562.031.266.016.39.016.532 0 .985-.125.469-.11.797-.39.328-.266.516-.72.203-.452.203-1.124V394.88h-3.547v-2.954zm3.297-3.609q0-.422.14-.781.157-.36.422-.61.282-.25.657-.39.39-.14.859-.14.953 0 1.516.546.578.531.578 1.375t-.578 1.39q-.563.532-1.516.532-.469 0-.86-.14-.374-.141-.656-.391-.265-.266-.422-.61-.14-.36-.14-.781zm17.371 17.953q-1.625 0-2.953-.531-1.328-.547-2.281-1.453-.953-.922-1.469-2.156-.516-1.25-.516-2.672v-.516q0-1.625.5-2.953.516-1.328 1.422-2.297.922-.969 2.172-1.5t2.719-.531q1.516 0 2.703.5 1.203.5 2.031 1.422.828.906 1.25 2.187.438 1.281.438 2.828v1.532h-9.563q.11.718.422 1.312.328.594.813 1.031.5.422 1.14.657.64.234 1.39.234.532 0 1.063-.094.532-.11 1-.312.485-.203.907-.5.422-.313.734-.703l1.797 1.953q-.328.468-.875.937-.531.469-1.281.828-.735.344-1.641.563-.89.234-1.922.234zm-.437-11.687q-.61 0-1.125.218-.5.22-.891.625-.375.407-.64.97-.25.546-.391 1.234h5.937v-.282q-.015-.578-.218-1.078-.188-.515-.563-.875-.36-.375-.89-.594-.532-.218-1.22-.218zm15.824 8.797q.547 0 1.016-.157.484-.156.843-.437.375-.297.579-.703.203-.407.171-.891h3.407q.031 1.094-.453 2.031-.47.938-1.297 1.61-.813.672-1.907 1.062-1.078.375-2.28.375-1.641 0-2.891-.547-1.235-.547-2.063-1.515-.812-.97-1.25-2.25-.422-1.297-.422-2.782v-.39q0-1.485.422-2.781.422-1.297 1.25-2.25.828-.97 2.063-1.532 1.234-.562 2.859-.562 1.297 0 2.406.39 1.11.391 1.906 1.11.797.703 1.235 1.719.453 1 .422 2.25h-3.407q.032-.516-.156-.985-.187-.469-.547-.812-.343-.344-.843-.547-.485-.203-1.063-.203-.86 0-1.422.359-.562.344-.89.938-.329.578-.47 1.343-.14.75-.14 1.563v.39q0 .813.125 1.579.14.765.469 1.343.328.578.89.938.579.344 1.438.344zm16.403-14.907v3.453h5.265v2.657h-5.265v6.062q0 .766.172 1.281.187.516.5.829.328.296.796.437.47.125 1.032.125.422 0 .86-.031.437-.047.827-.11.406-.062.75-.125.344-.062.578-.125l.36 2.485q-.375.219-.89.39-.5.157-1.079.25-.563.11-1.188.157-.625.062-1.218.062-1.157 0-2.11-.297-.937-.312-1.609-.953-.672-.64-1.031-1.64-.36-1-.36-2.391v-6.406h-3.218v-2.657h3.218v-3.453h3.61zm-69.517 41.851v-7.984h-2.594v-1.875h2.594v-.531q0-.985.312-1.719.313-.75.875-1.266.579-.515 1.391-.765.828-.266 1.844-.266.312 0 .61.031.296.016.577.063.282.031.563.078.297.047.61.094l-.173 1.984q-.343-.062-.78-.11-.438-.062-1.032-.062-1.188 0-1.719.5-.531.5-.531 1.438v.531h3.547v1.875h-3.547v7.984h-2.547zm8.399-5.015q0-1.078.312-1.985.313-.921.906-1.593.594-.688 1.454-1.063.859-.375 1.968-.375 1.125 0 1.985.375.859.375 1.453 1.063.61.672.906 1.593.313.907.313 1.985v.187q0 1.078-.313 2-.297.922-.89 1.594-.594.672-1.47 1.047-.859.375-1.952.375-1.125 0-2-.375-.86-.375-1.454-1.047-.593-.672-.906-1.594-.312-.922-.312-2v-.187zm2.53.187q0 .625.11 1.172.125.531.375.938.266.406.672.64.406.235.985.235.546 0 .937-.235.406-.234.656-.64.25-.407.375-.938.125-.547.125-1.172v-.187q0-.61-.125-1.14-.125-.548-.375-.954-.25-.406-.656-.64-.39-.235-.969-.235-.562 0-.968.234-.391.235-.657.641-.25.406-.375.953-.11.531-.11 1.14v.188zm8.665-.187q0-1.078.313-1.985.312-.921.906-1.593.594-.688 1.453-1.063.86-.375 1.969-.375 1.125 0 1.984.375.86.375 1.453 1.063.61.672.907 1.593.312.907.312 1.985v.187q0 1.078-.312 2-.297.922-.891 1.594-.594.672-1.469 1.047-.86.375-1.953.375-1.125 0-2-.375-.86-.375-1.453-1.047-.594-.672-.906-1.594-.313-.922-.313-2v-.187zm2.531.187q0 .625.11 1.172.125.531.375.938.265.406.672.64.406.235.984.235.547 0 .938-.235.406-.234.656-.64.25-.407.375-.938.125-.547.125-1.172v-.187q0-.61-.125-1.14-.125-.548-.375-.954-.25-.406-.656-.64-.391-.235-.97-.235-.562 0-.968.234-.39.235-.656.641-.25.406-.375.953-.11.531-.11 1.14v.188z"/><path fill="#bdbdbd" d="M422.742 441.709h163.496v59.716H422.742z" fill-rule="evenodd"/><path stroke="#666" stroke-linejoin="round" stroke-linecap="butt" d="M422.742 441.709h163.496v59.716H422.742z"/><path fill="#000" d="M482.857 464.357v3.063h4.828v1.687h-4.828v6.89q0 .735.187 1.22.188.468.516.765.328.281.75.406.438.11.922.11.344 0 .719-.031.375-.047.734-.11.36-.062.672-.125.312-.062.5-.11l.312 1.532q-.265.172-.656.297-.39.125-.844.203-.453.094-.968.14-.516.048-1.016.048-.844 0-1.578-.235-.734-.25-1.281-.765-.532-.532-.844-1.344-.297-.828-.297-2v-6.89h-3.328v-1.688h3.328v-3.063h2.172zm17.574 2.828q.313 0 .64.032.329.015.626.062.297.031.547.094.25.047.421.125l-.296 2.125q-.625-.14-1.204-.203-.562-.078-1.187-.078-1.516 0-2.469.703-.937.687-1.39 1.922v8.14h-2.172V467.42h2.062l.11 2.015q.765-1.031 1.843-1.64 1.094-.61 2.47-.61zm14.324 11.172q-.625.938-1.578 1.469-.953.516-2.187.516-1 0-1.813-.313-.812-.312-1.39-.969-.563-.656-.875-1.672-.313-1.015-.313-2.421v-7.547h2.172v7.562q0 1.031.156 1.719.172.672.5 1.078t.797.578q.484.156 1.094.156 1.328 0 2.14-.53.813-.548 1.22-1.47v-9.093h2.171v12.687h-1.969l-.125-1.75zm11.778 1.985q-1.328 0-2.453-.454-1.125-.468-1.922-1.28-.797-.829-1.25-1.954-.438-1.125-.438-2.437v-.5q0-1.532.485-2.735.5-1.219 1.312-2.062.828-.844 1.86-1.282 1.03-.453 2.124-.453 1.375 0 2.391.485 1.031.468 1.703 1.312.688.828 1.016 1.969.344 1.14.344 2.469v.968h-9.063q.031.86.328 1.625.313.766.828 1.344.516.563 1.235.89.734.329 1.625.329 1.156 0 2.047-.469.906-.469 1.515-1.25l1.313 1.031q-.313.485-.797.922-.469.438-1.094.782-.61.343-1.406.546-.781.204-1.703.204zm-.282-11.375q-.656 0-1.25.25-.578.234-1.046.703-.47.453-.797 1.14-.313.672-.438 1.547h6.813v-.172q-.032-.625-.235-1.25-.203-.625-.609-1.11-.39-.5-1-.796-.61-.312-1.438-.312z"/><path d="M599.097 407.406c15.856 0 23.782-4.922 31.712-9.843 7.929-4.921 15.86-9.843 31.721-9.843"/><path stroke="#595959" stroke-width="4" stroke-linejoin="round" stroke-linecap="butt" d="M599.097 407.406c15.856 0 23.782-4.922 31.712-9.843 1.982-1.23 3.964-2.46 6.07-3.614a62.058 62.058 0 0 1 1.606-.85l.59-.294"/><path fill="#595959" stroke="#595959" stroke-width="4" stroke-linecap="butt" d="M640.474 399.262l16.341-10.303-19.14-2.611z" fill-rule="evenodd"/><path fill="#34a853" d="M410.12 177.814c0-6.283 5.094-11.376 11.376-11.376h166.226a11.376 11.376 0 0 1 11.375 11.376v45.5c0 6.283-5.093 11.376-11.375 11.376H421.496c-6.282 0-11.375-5.093-11.375-11.375z" fill-rule="evenodd"/><path stroke="#666" stroke-linejoin="round" stroke-linecap="butt" d="M410.12 177.814c0-6.283 5.094-11.376 11.376-11.376h166.226a11.376 11.376 0 0 1 11.375 11.376v45.5c0 6.283-5.093 11.376-11.375 11.376H421.496c-6.282 0-11.375-5.093-11.375-11.375z"/><path fill="#fff" d="M451.264 180.211h3.656l.016 13.14q-.016 1.345-.516 2.47-.5 1.109-1.375 1.921-.859.797-2.046 1.25-1.172.438-2.532.438-1.422 0-2.593-.36-1.172-.374-2.016-1.093-.844-.719-1.313-1.813-.468-1.093-.484-2.578h3.672q.016 1.531.672 2.219.672.672 2.062.672.625 0 1.14-.235.532-.234.892-.656.375-.422.562-1 .203-.578.203-1.234v-13.14zm16.903 14q0-.5-.188-.937-.172-.453-.594-.828-.421-.391-1.109-.704-.672-.328-1.687-.593-1.235-.344-2.36-.844-1.125-.516-1.984-1.219-.86-.719-1.375-1.672-.516-.953-.516-2.187 0-1.203.5-2.172.516-.984 1.406-1.672.907-.687 2.125-1.062 1.22-.375 2.657-.375 1.484 0 2.703.437 1.234.422 2.125 1.203.89.781 1.375 1.844.5 1.062.5 2.344h-3.563q-.03-.64-.234-1.172-.203-.531-.61-.906-.39-.391-.984-.61-.578-.219-1.375-.219-.734 0-1.297.188-.562.172-.953.484-.39.313-.594.75-.203.438-.203.953 0 .532.266.97.266.421.766.765.515.344 1.234.64.719.282 1.64.516 1.297.39 2.391.938 1.094.546 1.875 1.296.797.735 1.235 1.704.437.953.437 2.125 0 1.25-.516 2.218-.5.97-1.39 1.64-.875.673-2.094 1.017-1.219.343-2.672.343-.89 0-1.781-.172-.89-.156-1.719-.484-.812-.344-1.515-.844-.704-.515-1.22-1.187-.5-.688-.796-1.547-.297-.86-.297-1.906h3.594q.031.86.297 1.484.281.61.765 1 .485.39 1.172.578.688.172 1.5.172.735 0 1.297-.172.563-.172.953-.469.39-.296.594-.718.219-.422.219-.938zm19.371-3.125q0 1.813-.484 3.36-.469 1.53-1.39 2.64-.907 1.11-2.22 1.735-1.297.609-2.937.609t-2.922-.61q-1.266-.624-2.14-1.734-.876-1.125-1.329-2.656-.453-1.531-.453-3.344v-2.765q0-1.829.453-3.36t1.328-2.64q.875-1.125 2.141-1.75t2.906-.625q1.656 0 2.953.625 1.313.625 2.22 1.75.921 1.109 1.39 2.64.484 1.531.484 3.36v2.765zm-3.703-2.797q0-1.156-.188-2.125-.187-.984-.593-1.687-.407-.703-1.047-1.094-.625-.39-1.516-.39-.89 0-1.484.39t-.969 1.094q-.36.703-.516 1.687-.156.97-.156 2.125v2.797q0 1.14.156 2.125.157.969.516 1.688.375.718.969 1.125.594.39 1.5.39.875 0 1.5-.39.64-.407 1.031-1.11.406-.718.594-1.687.203-.985.203-2.14v-2.798zm19.309 3.985q0 1.562-.36 2.89-.343 1.313-1.03 2.266-.688.937-1.72 1.469-1.015.53-2.39.53-1.235 0-2.14-.452-.907-.469-1.548-1.313l-.172 1.5h-3.265v-20h3.625v7.188q.625-.719 1.469-1.125.859-.406 2-.406 1.39 0 2.421.53 1.032.532 1.72 1.485.687.953 1.03 2.281.36 1.313.36 2.875v.282zm-3.625-.282q0-.859-.14-1.625-.126-.765-.438-1.343-.313-.578-.86-.922-.547-.344-1.375-.344-.984 0-1.609.422-.61.422-.953 1.14v5.61q.344.734.953 1.156.625.406 1.64.406.813 0 1.344-.312.547-.328.86-.89.312-.563.437-1.329.14-.781.14-1.687v-.282zm9.09-6.906h7.203v14.406q0 1.407-.406 2.407-.39 1.015-1.172 1.672-.766.656-1.875.968-1.094.313-2.516.313-.593 0-1.187-.047-.594-.047-1.14-.172l.171-2.937q.156.03.438.062.28.031.578.047.297.031.562.031.266.016.39.016.532 0 .985-.125.469-.11.797-.39.328-.266.516-.72.203-.453.203-1.125V188.04h-3.547v-2.953zm3.297-3.61q0-.421.14-.78.157-.36.422-.61.282-.25.657-.39.39-.141.859-.141.953 0 1.516.547.578.531.578 1.375t-.578 1.39q-.563.532-1.516.532-.469 0-.86-.14-.374-.142-.656-.392-.265-.265-.422-.609-.14-.36-.14-.781zm17.371 17.954q-1.625 0-2.953-.531-1.328-.547-2.281-1.453-.953-.922-1.469-2.157-.516-1.25-.516-2.672v-.515q0-1.625.5-2.953.516-1.328 1.422-2.297.922-.969 2.172-1.5t2.719-.531q1.516 0 2.703.5 1.203.5 2.031 1.421.828.907 1.25 2.188.438 1.281.438 2.828v1.531h-9.563q.11.72.422 1.313.328.594.813 1.031.5.422 1.14.656.64.235 1.39.235.532 0 1.063-.094.532-.11 1-.313.485-.203.907-.5.422-.312.734-.703l1.797 1.953q-.328.47-.875.938-.531.469-1.281.828-.735.344-1.641.563-.89.234-1.922.234zm-.437-11.688q-.61 0-1.125.22-.5.218-.891.624-.375.406-.64.969-.25.547-.391 1.234h5.937v-.28q-.015-.58-.218-1.08-.188-.515-.563-.874-.36-.375-.89-.594-.532-.219-1.22-.219zm15.824 8.797q.547 0 1.016-.156.484-.156.843-.437.375-.297.579-.704.203-.406.171-.89h3.407q.031 1.094-.453 2.031-.47.938-1.297 1.61-.813.671-1.907 1.062-1.078.375-2.28.375-1.641 0-2.891-.547-1.235-.547-2.063-1.516-.812-.968-1.25-2.25-.422-1.296-.422-2.78v-.391q0-1.485.422-2.782t1.25-2.25q.828-.968 2.063-1.53 1.234-.563 2.859-.563 1.297 0 2.406.39 1.11.39 1.906 1.11.797.703 1.235 1.718.453 1 .422 2.25h-3.407q.032-.515-.156-.984-.187-.469-.547-.813-.343-.343-.843-.546-.485-.204-1.063-.204-.86 0-1.422.36-.562.344-.89.937-.329.578-.47 1.344-.14.75-.14 1.563v.39q0 .813.125 1.578.14.766.469 1.344.328.578.89.938.579.343 1.438.343zm16.403-14.906v3.453h5.265v2.656h-5.265v6.063q0 .766.172 1.281.187.516.5.828.328.297.796.438.47.125 1.032.125.422 0 .86-.031.437-.047.827-.11.406-.062.75-.125.344-.062.578-.125l.36 2.485q-.375.218-.89.39-.5.156-1.079.25-.563.11-1.188.156-.625.063-1.218.063-1.157 0-2.11-.297-.937-.312-1.609-.953-.672-.64-1.031-1.64-.36-1-.36-2.391v-6.407h-3.218v-2.656h3.218v-3.453h3.61zM433.01 223.484V210.22h4.453q1.093 0 1.968.218.891.22 1.516.672.64.438.984 1.125.344.688.344 1.61-.015.937-.5 1.672-.484.734-1.437 1.125.578.14.984.437.422.281.703.688.281.39.406.859.141.469.141.969 0 .953-.328 1.687-.328.735-.938 1.235-.609.484-1.484.734-.875.234-1.969.234h-4.843zm2.578-5.843v3.78h2.265q1.047-.015 1.594-.515.563-.515.563-1.328.015-.906-.5-1.422-.5-.515-1.547-.515h-2.375zm0-1.86h1.89q1.078 0 1.641-.437.578-.438.594-1.282 0-.937-.578-1.343-.579-.407-1.657-.407h-1.89v3.47zm14.883 7.703q-.094-.187-.156-.422-.063-.234-.11-.5-.203.235-.484.438-.266.187-.61.344-.328.156-.734.234-.39.094-.86.094-.75 0-1.39-.219-.625-.219-1.078-.61-.453-.39-.719-.937-.25-.547-.25-1.187 0-1.547 1.156-2.391 1.172-.86 3.47-.86h1.421v-.593q0-.703-.469-1.11-.468-.421-1.343-.421-.766 0-1.125.328-.36.328-.36.89h-2.53q0-.625.281-1.187.281-.578.813-1 .53-.422 1.297-.672.765-.25 1.765-.25.89 0 1.656.219.782.219 1.344.64.563.422.875 1.079.328.656.328 1.5v4.234q0 .797.094 1.312.094.516.297.891v.156h-2.578zm-2.406-1.781q.375 0 .703-.078.328-.094.593-.234.266-.157.454-.344.203-.188.312-.375v-1.703h-1.297q-.594 0-1.015.125-.422.109-.688.312-.266.203-.39.5-.126.281-.126.625 0 .5.36.844.36.328 1.094.328zm14.523-8.25q.578 0 1.063.078.484.063.797.156l-.375 2.532q-.5-.125-1.032-.172-.515-.063-1-.063-1.062 0-1.703.407-.64.406-.969 1.171v5.922h-2.53v-9.86h2.359l.125 1.61q.593-.828 1.437-1.297.844-.484 1.828-.484zm6.68 8.563q0-.36.11-.657.125-.312.343-.531.235-.219.563-.344.328-.14.75-.14.406 0 .734.14.328.125.547.344.219.219.344.531.125.297.125.657 0 .343-.125.656-.125.297-.344.515-.219.22-.547.344-.328.14-.734.14-.422 0-.75-.14-.328-.125-.563-.344-.218-.218-.343-.515-.11-.313-.11-.656zm17.493-3.375q0 1.078-.25 2-.25.921-.75 1.593-.485.672-1.204 1.063-.718.375-1.64.375-.797 0-1.406-.266-.594-.281-1.032-.781v4.656h-2.53v-13.656h2.327l.094.969q.453-.547 1.078-.844.625-.297 1.453-.297.938 0 1.656.36.72.359 1.204 1.015.5.656.75 1.578t.25 2.047v.188zm-2.532-.188q0-.61-.125-1.156-.109-.547-.359-.938-.234-.406-.61-.625-.374-.234-.906-.234-.672 0-1.093.266-.422.265-.657.734v4.11q.235.468.657.75.421.28 1.109.28.531 0 .906-.234.39-.25.625-.656t.344-.953q.11-.547.11-1.156v-.188zm11.946-5q.578 0 1.062.078.485.063.797.156l-.375 2.532q-.5-.125-1.031-.172-.516-.063-1-.063-1.062 0-1.703.407-.64.406-.969 1.171v5.922h-2.531v-9.86h2.36l.124 1.61q.594-.828 1.438-1.297.844-.484 1.828-.484zm3.774 5.016q0-1.078.312-1.985.313-.922.906-1.593.594-.688 1.454-1.063.859-.375 1.968-.375 1.125 0 1.985.375.859.375 1.453 1.063.61.671.906 1.593.313.907.313 1.985v.187q0 1.078-.313 2-.297.922-.89 1.594-.594.672-1.47 1.047-.859.375-1.952.375-1.125 0-2-.375-.86-.375-1.454-1.047-.593-.672-.906-1.594-.312-.922-.312-2v-.187zm2.53.187q0 .625.11 1.172.125.531.375.938.266.406.672.64.406.235.985.235.546 0 .937-.235.406-.234.656-.64.25-.407.375-.938.125-.547.125-1.172v-.187q0-.61-.125-1.141-.125-.547-.375-.953-.25-.406-.656-.64-.39-.235-.969-.235-.562 0-.968.234-.391.235-.657.64-.25.407-.375.954-.11.531-.11 1.14v.188zm13.665-7.437v2.406h3.672v1.875h-3.672v4.234q0 .532.11.89.125.36.343.579.235.219.563.313.328.078.719.078.296 0 .593-.016.313-.031.594-.062.281-.047.516-.094.25-.047.422-.094l.234 1.734q-.25.157-.61.282-.359.109-.765.172-.39.078-.828.109-.438.047-.844.047-.812 0-1.484-.203-.657-.22-1.125-.672-.469-.453-.735-1.14-.25-.704-.25-1.673V215.5h-2.25v-1.875h2.25v-2.406h2.547zm6.196 7.25q0-1.078.312-1.985.313-.922.907-1.593.593-.688 1.453-1.063.859-.375 1.968-.375 1.125 0 1.985.375.86.375 1.453 1.063.61.671.906 1.593.313.907.313 1.985v.187q0 1.078-.313 2-.297.922-.89 1.594-.594.672-1.47 1.047-.859.375-1.952.375-1.125 0-2-.375-.86-.375-1.453-1.047-.594-.672-.907-1.594-.312-.922-.312-2v-.187zm2.531.187q0 .625.11 1.172.124.531.374.938.266.406.672.64.407.235.985.235.547 0 .937-.235.406-.234.656-.64.25-.407.375-.938.125-.547.125-1.172v-.187q0-.61-.125-1.141-.125-.547-.375-.953-.25-.406-.656-.64-.39-.235-.969-.235-.562 0-.968.234-.391.235-.657.64-.25.407-.375.954-.109.531-.109 1.14v.188zm13.664-7.437v2.406h3.672v1.875h-3.672v4.234q0 .532.11.89.125.36.343.579.235.219.563.313.328.078.719.078.297 0 .593-.016.313-.031.594-.062.281-.047.516-.094.25-.047.422-.094l.234 1.734q-.25.157-.61.282-.359.109-.765.172-.39.078-.828.109-.438.047-.844.047-.812 0-1.484-.203-.656-.22-1.125-.672-.469-.453-.735-1.14-.25-.704-.25-1.673V215.5h-2.25v-1.875h2.25v-2.406h2.547zm10.743 8.125l.297 1.062 2.625-6.781h2.797l-5.016 11.328q-.156.375-.422.813-.25.437-.64.812-.391.375-.954.625-.562.266-1.328.266-.187 0-.344-.016-.156-.016-.296-.047-.141-.015-.282-.047-.14-.031-.312-.078l.312-1.922h.391q.25.016.39.016.297 0 .532-.188.234-.171.39-.39.172-.219.266-.406.11-.172.14-.172l.61-1.157-4.172-9.437h2.781l2.235 5.719zm15.852-.703q0 1.078-.25 2-.25.921-.75 1.593-.485.672-1.203 1.063-.72.375-1.641.375-.797 0-1.406-.266-.594-.281-1.032-.781v4.656h-2.53v-13.656h2.327l.094.969q.453-.547 1.078-.844.625-.297 1.453-.297.938 0 1.657.36.718.359 1.203 1.015.5.656.75 1.578t.25 2.047v.188zm-2.532-.188q0-.61-.125-1.156-.109-.547-.359-.938-.234-.406-.61-.625-.374-.234-.906-.234-.671 0-1.093.266-.422.265-.657.734v4.11q.235.468.657.75.422.28 1.109.28.531 0 .906-.234.39-.25.625-.656t.344-.953q.11-.547.11-1.156v-.188zm9.65 5.219q-1.142 0-2.08-.375-.92-.375-1.593-1.016-.656-.64-1.015-1.515-.36-.875-.36-1.86v-.375q0-1.125.36-2.047.359-.937.984-1.61.64-.687 1.516-1.046.875-.375 1.906-.375 1.062 0 1.89.344.844.344 1.422.984t.875 1.547q.313.89.313 1.969v1.078h-6.688q.063.5.282.922.234.406.578.719.343.296.78.468.454.157.985.157.375 0 .735-.079.375-.078.703-.218.344-.141.64-.344.297-.219.516-.5l1.266 1.375q-.235.328-.625.656-.375.328-.89.578-.517.25-1.142.407-.625.156-1.359.156zm-.298-8.172q-.422 0-.781.156-.36.14-.625.422-.266.281-.453.672-.188.39-.266.875h4.14v-.203q-.015-.39-.155-.75-.125-.36-.391-.61-.25-.265-.625-.406-.36-.156-.844-.156z"/><path fill="#bdbdbd" d="M422.742 234.868h163.496v59.716H422.742z" fill-rule="evenodd"/><path stroke="#666" stroke-linejoin="round" stroke-linecap="butt" d="M422.742 234.868h163.496v59.716H422.742z"/><path fill="#000" d="M456.324 250.38h1.72v9.235q-.017.922-.36 1.703-.328.765-.907 1.328-.562.547-1.343.875-.782.312-1.703.312-.922 0-1.688-.28-.766-.282-1.328-.813-.547-.532-.89-1.266-.344-.75-.423-1.656h1.72q.015.547.218 1.031.203.469.531.828.344.344.813.531.468.188 1.047.188.609 0 1.078-.219.468-.219.797-.594.343-.39.515-.89.172-.516.203-1.078v-9.235zm11.915 9.907q0-.61-.282-1.016-.28-.422-.718-.703-.438-.297-.97-.485-.515-.187-1-.343-.702-.235-1.42-.547-.72-.328-1.33-.781-.593-.47-.968-1.094-.375-.64-.375-1.5t.375-1.531q.375-.672.985-1.141.609-.469 1.375-.703.78-.25 1.578-.25.86 0 1.656.297.812.281 1.422.812.625.516 1 1.25.375.735.39 1.64h-1.734q-.078-.562-.281-1.03-.203-.47-.563-.813-.343-.344-.828-.516-.469-.187-1.062-.187-.485 0-.953.14-.454.126-.813.407-.36.265-.578.672-.219.39-.219.922.016.578.297.984.281.39.719.672.437.265.937.453.5.172.953.312.485.157.985.36.5.187.969.437.468.25.859.578.406.313.703.72.313.405.469.89.172.484.172 1.078 0 .89-.407 1.562-.39.672-1.015 1.11-.625.437-1.422.672-.781.218-1.578.218-.89 0-1.735-.265-.843-.281-1.515-.797-.672-.516-1.094-1.25-.406-.75-.437-1.703h1.718q.078.625.328 1.11.266.468.657.812.406.328.922.5.53.156 1.156.156.484 0 .969-.125.484-.125.843-.375.375-.266.61-.656.25-.407.25-.953zm11.633-2.5h-5.531v5.859h-1.704V250.38h8.157v1.438h-6.453v4.547h5.53v1.422zm10.21 4.5q-.5.734-1.233 1.14-.735.406-1.704.406-.78 0-1.406-.234-.625-.25-1.078-.766-.437-.515-.687-1.296-.235-.782-.235-1.891v-5.86h1.688v5.876q0 .812.125 1.343.125.516.375.828.265.313.625.454.375.125.86.125 1.03 0 1.655-.422.64-.422.953-1.125v-7.078h1.688v9.859h-1.531l-.094-1.36zm6.306-8.5l.125 1.453q.531-.766 1.312-1.188.782-.437 1.75-.437.782 0 1.407.218.64.22 1.078.688.453.453.687 1.172.25.719.25 1.687v6.266h-1.687v-6.219q0-.656-.156-1.11-.141-.452-.422-.734-.282-.296-.703-.421-.407-.125-.954-.125-.843 0-1.484.421-.64.422-1.031 1.125v7.063h-1.688v-9.86h1.516zm13.883 8.671q.453 0 .89-.14.438-.14.766-.406.344-.266.547-.61.203-.36.219-.765h1.594q-.016.656-.344 1.265-.328.594-.89 1.047-.563.438-1.282.719-.719.265-1.5.265-1.11 0-1.953-.406-.844-.406-1.406-1.078-.547-.687-.844-1.562-.281-.891-.281-1.875v-.391q0-.969.28-1.86.298-.89.845-1.562.562-.687 1.406-1.078.844-.406 1.953-.406.875 0 1.61.281.734.266 1.265.75.531.469.828 1.125.313.656.313 1.406h-1.594q-.016-.453-.203-.844-.188-.39-.516-.687-.312-.313-.75-.484-.437-.172-.953-.172-.781 0-1.313.312-.53.313-.859.828-.328.5-.469 1.14-.14.626-.14 1.25v.392q0 .64.14 1.28.141.626.453 1.141.329.5.86.813.531.312 1.328.312zm10.992-11.062v2.39h3.75v1.313h-3.75v5.344q0 .578.141.953.14.375.39.594.266.218.594.312.344.094.72.094.265 0 .546-.031.297-.032.578-.078.281-.047.516-.094.25-.047.406-.094l.234 1.203q-.218.125-.515.219-.297.094-.656.156-.344.078-.75.11-.391.046-.782.046-.656 0-1.234-.187-.563-.188-.984-.594-.422-.406-.672-1.047-.235-.64-.235-1.562v-5.344h-2.578v-1.312h2.578v-2.391h1.703zm7.462 2.39h5.046v8.407h3.22v1.453h-8.266v-1.453h3.359v-6.938h-3.36v-1.468zm3.14-2.578q0-.421.25-.703.25-.297.766-.297.5 0 .75.297.25.282.25.703 0 .407-.25.688-.25.266-.75.266-.516 0-.766-.266-.25-.281-.25-.688zm7.32 7.422q0-1.062.313-1.984.313-.922.89-1.594.579-.672 1.407-1.047.828-.39 1.86-.39 1.046 0 1.875.39.843.375 1.421 1.047.579.672.891 1.594.313.922.313 1.984v.203q0 1.063-.313 1.97-.312.905-.89 1.593-.579.672-1.407 1.062-.828.375-1.86.375-1.046 0-1.89-.375-.828-.39-1.406-1.062-.578-.688-.89-1.594-.313-.906-.313-1.969v-.203zm1.688.203q0 .72.172 1.391.172.656.516 1.156.36.5.89.797.532.281 1.235.281.687 0 1.203-.28.531-.298.875-.798.36-.5.531-1.156.172-.672.172-1.39v-.204q0-.718-.187-1.375-.172-.672-.532-1.172-.343-.5-.875-.796-.515-.297-1.218-.297-.704 0-1.22.297-.515.296-.874.796-.344.5-.516 1.172-.172.657-.172 1.375v.203zm11.493-5.046l.125 1.453q.531-.766 1.312-1.188.782-.437 1.75-.437.782 0 1.407.218.64.22 1.078.688.453.453.687 1.172.25.719.25 1.687v6.266h-1.687v-6.219q0-.656-.157-1.11-.14-.452-.421-.734-.282-.296-.704-.421-.406-.125-.953-.125-.843 0-1.484.421-.64.422-1.031 1.125v7.063h-1.688v-9.86h1.516zM489.4 276.948q0-.781.187-1.438.203-.672.563-1.14.375-.485.89-.75.516-.266 1.172-.266.656 0 1.14.234.5.235.844.657l.063-.766h1.094v6.89q0 .704-.219 1.235-.219.547-.625.922-.39.375-.938.562-.546.204-1.203.204-.28 0-.64-.063-.344-.047-.703-.187-.36-.141-.704-.375-.328-.235-.562-.579l.625-.734q.219.266.453.453.234.188.469.297.25.11.484.156.25.063.485.063.421 0 .765-.125.36-.125.594-.375.25-.235.375-.594.14-.344.14-.797v-.61q-.359.407-.843.626-.469.203-1.11.203-.64 0-1.156-.266-.515-.281-.89-.75-.36-.484-.563-1.14-.187-.657-.187-1.407v-.14zm1.203.14q0 .516.11.985.108.453.343.812.234.344.578.547.36.203.875.203.312 0 .562-.078.25-.078.438-.203.203-.14.36-.328.156-.188.28-.422v-3.219q-.124-.234-.28-.406-.157-.187-.36-.312-.203-.141-.453-.22-.235-.077-.547-.077-.5 0-.86.218-.359.204-.593.563-.235.344-.344.812-.11.47-.11.985v.14zm10.139 3.563q-.75 0-1.375-.25-.61-.25-1.063-.703-.437-.453-.687-1.078-.25-.625-.25-1.375v-.266q0-.86.265-1.531.281-.672.735-1.125.453-.469 1.03-.719.579-.25 1.188-.25.75 0 1.313.266.578.265.953.734.375.453.562 1.094.188.625.188 1.36v.546h-5.031q.03.484.187.906.172.422.453.735.297.312.688.5.406.172.906.172.64 0 1.14-.25.5-.266.829-.688l.734.563q-.172.265-.437.515-.266.25-.61.438-.343.187-.781.297-.437.109-.937.109zm-.157-6.313q-.375 0-.703.141-.312.125-.578.39-.266.25-.453.626-.172.375-.234.859h3.78v-.078q-.015-.36-.14-.703-.11-.344-.328-.61-.219-.28-.562-.453-.329-.172-.782-.172zm7.89-2.562v1.703h2.687v.938h-2.688v3.828q0 .406.094.672.11.265.297.437.187.156.422.219.234.062.5.062.203 0 .406-.015l.406-.063q.203-.031.375-.062.172-.047.281-.063l.172.844q-.156.094-.375.172-.203.062-.469.11-.25.046-.53.062-.282.03-.563.03-.469 0-.875-.124-.407-.14-.703-.422-.297-.297-.485-.75-.172-.469-.172-1.11v-3.827h-1.843v-.938h1.843v-1.703h1.22zm8.075 2.984l2.047-3.703h1.422l-2.75 4.688 2.813 4.78h-1.407l-2.093-3.78-2.11 3.78h-1.422l2.829-4.78-2.75-4.688h1.406l2.015 3.703z"/><path fill="#673ab7" d="M662.41 158.116c0-6.283 5.092-11.376 11.375-11.376h142.068a11.376 11.376 0 0 1 11.375 11.376v45.5c0 6.283-5.093 11.376-11.375 11.376H673.785c-6.283 0-11.376-5.093-11.376-11.375z" fill-rule="evenodd"/><path stroke="#666" stroke-linejoin="round" stroke-linecap="butt" d="M662.41 158.116c0-6.283 5.092-11.376 11.375-11.376h142.068a11.376 11.376 0 0 1 11.375 11.376v45.5c0 6.283-5.093 11.376-11.375 11.376H673.785c-6.283 0-11.376-5.093-11.376-11.375z"/><path fill="#fff" d="M719.204 173.953q0-.453-.157-.844-.156-.406-.546-.75-.375-.36-.985-.64-.61-.282-1.531-.532-1.11-.312-2.125-.765-1.016-.453-1.797-1.094-.766-.656-1.234-1.5-.453-.86-.453-1.969 0-1.078.453-1.953.453-.89 1.265-1.5.813-.625 1.907-.953 1.109-.344 2.39-.344 1.344 0 2.453.39 1.11.376 1.907 1.079.796.703 1.234 1.672.453.953.453 2.094h-3.219q-.015-.578-.203-1.047-.187-.485-.547-.828-.343-.344-.89-.532-.532-.203-1.235-.203-.656 0-1.172.157-.515.156-.875.453-.343.28-.53.672-.173.39-.173.843 0 .485.235.875.25.39.703.703.453.297 1.11.563.655.25 1.468.484 1.172.328 2.156.828.985.485 1.688 1.172.718.672 1.11 1.532.39.859.39 1.906 0 1.125-.453 2-.454.875-1.25 1.484-.797.594-1.907.906-1.093.313-2.39.313-.813 0-1.61-.156-.797-.141-1.53-.438-.735-.312-1.376-.765-.625-.454-1.094-1.063-.453-.61-.718-1.375-.266-.781-.266-1.719h3.234q.016.766.266 1.328.25.547.687.907.438.343 1.047.515.625.157 1.36.157.656 0 1.156-.157.516-.156.86-.422.359-.265.546-.64.188-.39.188-.844zm8.918-6.484q.64-.922 1.547-1.453.906-.532 2.03-.532 1 0 1.829.313.828.297 1.422.937.61.625.937 1.61.344.984.344 2.39v7.672h-3.266v-7.703q0-.672-.171-1.156-.172-.5-.485-.797-.312-.313-.765-.453-.438-.156-1-.156-.829 0-1.438.296-.594.282-.984.813v9.156h-3.25v-18h3.25v7.063zm19.074 10.937q-.125-.234-.203-.531-.078-.313-.14-.656-.266.297-.626.562-.344.25-.781.453-.422.188-.938.297-.515.11-1.109.11-.969 0-1.797-.282-.812-.281-1.406-.781-.578-.516-.906-1.203-.328-.703-.328-1.516 0-2.015 1.5-3.11 1.5-1.093 4.453-1.093h1.828v-.75q0-.906-.61-1.437-.593-.547-1.718-.547-1 0-1.453.437-.454.422-.454 1.14h-3.265q0-.812.36-1.53.359-.735 1.046-1.282.688-.546 1.672-.875 1-.328 2.266-.328 1.156 0 2.14.282 1 .28 1.719.843.734.547 1.14 1.39.407.829.407 1.938v5.438q0 1.016.125 1.687.14.657.375 1.141v.203h-3.297zm-3.11-2.281q.5 0 .922-.11.422-.124.75-.312.344-.187.594-.422.25-.25.39-.5v-2.172h-1.671q-.766 0-1.313.14-.53.142-.875.407-.328.266-.5.64-.156.36-.156.798 0 .656.453 1.093.469.438 1.407.438zm20.981-3.938q0 1.375-.328 2.563-.313 1.187-.953 2.047-.625.86-1.547 1.36-.922.484-2.125.484-1.016 0-1.797-.344-.766-.36-1.344-1v5.984h-3.25V165.72h3.016l.11 1.25q.593-.703 1.39-1.094.797-.39 1.86-.39 1.202 0 2.124.468.938.469 1.563 1.313.64.843.953 2.046.328 1.188.328 2.625v.25zm-3.266-.25q0-.796-.14-1.484-.14-.703-.453-1.219-.313-.515-.797-.797-.485-.296-1.188-.296-.844 0-1.39.343-.547.328-.86.938v5.297q.313.593.86.953.546.36 1.421.36.688 0 1.172-.298.485-.312.782-.843.312-.532.453-1.22.14-.702.14-1.484v-.25zm12.434 6.704q-1.469 0-2.672-.485-1.187-.484-2.047-1.297-.86-.828-1.328-1.953-.453-1.125-.453-2.39v-.47q0-1.452.453-2.655.469-1.204 1.281-2.063.828-.875 1.953-1.36 1.125-.484 2.438-.484 1.375 0 2.437.453 1.079.454 1.829 1.282.75.812 1.125 1.968.39 1.157.39 2.547v1.39h-8.594q.094.642.375 1.173.282.531.72.922.452.39 1.03.609.579.203 1.25.203.485 0 .954-.094.484-.093.906-.28.437-.188.812-.454.375-.266.657-.625l1.64 1.75q-.312.438-.797.86-.484.406-1.156.734-.656.312-1.469.515-.797.204-1.734.204zm-.39-10.516q-.548 0-1.016.203-.453.188-.797.547-.344.36-.578.875-.235.5-.36 1.125h5.344v-.266q-.016-.515-.203-.968-.172-.454-.5-.782-.328-.343-.797-.531-.469-.203-1.094-.203zm-87.461 28.771q0-1.282.187-2.422.203-1.141.532-2.094.343-.969.796-1.75.454-.797.954-1.406.5-.61 1.03-1.032.532-.421 1.032-.656l.5 1.39q-.516.391-1.031 1.048-.5.656-.906 1.64-.407.985-.672 2.282-.25 1.296-.25 2.984v.234q0 1.688.25 2.985.265 1.297.672 2.28.406.985.906 1.642.515.671 1.031 1.062l-.5 1.36q-.5-.22-1.031-.657-.531-.422-1.031-1.031-.5-.594-.954-1.39-.453-.798-.796-1.75-.329-.97-.532-2.094-.187-1.141-.187-2.422v-.203zm11.977.53v4.86h-2.563v-13.265h4.531q1.094 0 1.97.312.874.313 1.484.875.609.563.937 1.344.344.781.344 1.75 0 .89-.344 1.64-.328.75-.937 1.313-.61.547-1.485.86-.875.312-1.969.312h-1.968zm0-2.077h1.968q.547 0 .938-.157.406-.171.672-.453.281-.281.406-.656.14-.375.14-.766 0-.468-.14-.859-.125-.406-.406-.703-.266-.313-.672-.484-.39-.172-.938-.172h-1.968v4.25zm15.633-3.094q.578 0 1.062.078.485.063.797.156l-.375 2.532q-.5-.125-1.031-.172-.516-.063-1-.063-1.063 0-1.703.406-.64.407-.969 1.172v5.922h-2.531v-9.86h2.36l.124 1.61q.594-.828 1.438-1.297.843-.484 1.828-.484zm3.773 5.016q0-1.079.313-1.985.312-.922.906-1.594.594-.687 1.453-1.062.86-.375 1.97-.375 1.124 0 1.983.375.86.375 1.454 1.062.609.672.906 1.594.312.906.312 1.985v.187q0 1.078-.312 2-.297.922-.89 1.594-.595.672-1.47 1.047-.859.375-1.953.375-1.125 0-2-.375-.859-.375-1.453-1.047-.594-.672-.906-1.594-.313-.922-.313-2v-.187zm2.532.187q0 .625.11 1.172.124.531.374.937.266.407.672.641.406.234.984.234.547 0 .938-.234.406-.234.656-.64.25-.407.375-.938.125-.547.125-1.172v-.187q0-.61-.125-1.141-.125-.547-.375-.953-.25-.406-.656-.64-.39-.235-.969-.235-.562 0-.969.234-.39.235-.656.64-.25.407-.375.954-.11.531-.11 1.14v.188zm13.664-7.437v2.406h3.672v1.875h-3.672v4.234q0 .531.11.89.124.36.343.579.235.219.563.312.328.079.718.079.297 0 .594-.016.313-.031.594-.063.281-.046.516-.093.25-.047.421-.094l.235 1.734q-.25.157-.61.282-.359.109-.765.171-.39.079-.828.11-.438.047-.844.047-.813 0-1.484-.203-.657-.22-1.125-.672-.47-.453-.735-1.141-.25-.703-.25-1.672v-4.484h-2.25v-1.875h2.25v-2.406h2.547zm6.196 7.25q0-1.079.312-1.985.313-.922.906-1.594.594-.687 1.454-1.062.859-.375 1.968-.375 1.125 0 1.985.375.859.375 1.453 1.062.61.672.906 1.594.313.906.313 1.985v.187q0 1.078-.313 2-.297.922-.89 1.594-.594.672-1.47 1.047-.859.375-1.952.375-1.125 0-2-.375-.86-.375-1.454-1.047-.593-.672-.906-1.594-.312-.922-.312-2v-.187zm2.53.187q0 .625.11 1.172.125.531.375.937.266.407.672.641.406.234.985.234.546 0 .937-.234.406-.234.656-.64.25-.407.375-.938.125-.547.125-1.172v-.187q0-.61-.125-1.141-.125-.547-.375-.953-.25-.406-.656-.64-.39-.235-.969-.235-.562 0-.968.234-.391.235-.657.64-.25.407-.375.954-.11.531-.11 1.14v.188zm13.665-7.437v2.406h3.672v1.875h-3.672v4.234q0 .531.11.89.125.36.343.579.235.219.563.312.328.079.719.079.296 0 .593-.016.313-.031.594-.063.281-.046.516-.093.25-.047.422-.094l.234 1.734q-.25.157-.61.282-.359.109-.765.171-.39.079-.828.11-.438.047-.844.047-.812 0-1.484-.203-.657-.22-1.125-.672-.47-.453-.735-1.141-.25-.703-.25-1.672v-4.484h-2.25v-1.875h2.25v-2.406h2.547zm10.743 8.125l.296 1.062 2.625-6.781h2.797l-5.015 11.328q-.157.375-.422.812-.25.438-.64.813-.391.375-.954.625-.562.266-1.328.266-.188 0-.344-.016-.156-.016-.297-.047-.14-.016-.28-.047-.142-.031-.313-.078l.312-1.922h.39q.25.016.391.016.297 0 .532-.188.234-.172.39-.39.172-.22.266-.407.11-.171.14-.171l.61-1.157-4.172-9.437h2.781l2.235 5.719zm15.851-.704q0 1.079-.25 2-.25.922-.75 1.594-.484.672-1.203 1.063-.718.375-1.64.375-.797 0-1.407-.266-.593-.281-1.03-.781v4.656h-2.532v-13.656h2.328l.094.969q.453-.547 1.078-.844.625-.297 1.453-.297.938 0 1.656.36.72.359 1.203 1.015.5.656.75 1.578t.25 2.047v.187zm-2.53-.187q0-.61-.126-1.156-.11-.547-.36-.938-.234-.406-.609-.625-.375-.234-.906-.234-.672 0-1.094.265-.421.266-.656.735v4.11q.235.468.656.75.422.28 1.11.28.531 0 .906-.234.39-.25.625-.656.234-.406.344-.953.11-.547.11-1.157v-.187zm9.648 5.219q-1.14 0-2.078-.375-.922-.375-1.594-1.016-.656-.64-1.016-1.516-.359-.875-.359-1.859v-.375q0-1.125.36-2.047.359-.937.984-1.61.64-.687 1.515-1.046.875-.375 1.907-.375 1.062 0 1.89.344.844.343 1.422.984.578.64.875 1.547.313.89.313 1.969v1.078h-6.688q.063.5.281.922.235.406.579.718.343.297.78.47.454.155.985.155.375 0 .735-.078.375-.078.703-.218.343-.141.64-.344.297-.219.516-.5l1.266 1.375q-.235.328-.625.656-.375.328-.891.578-.516.25-1.14.406-.626.157-1.36.157zm-.297-8.172q-.422 0-.781.156-.36.14-.625.422-.266.281-.453.672-.188.39-.266.875h4.14v-.203q-.015-.391-.156-.75-.125-.36-.39-.61-.25-.265-.625-.406-.36-.156-.844-.156zm13.461 2.797q0 1.25-.203 2.359-.203 1.11-.547 2.078-.344.969-.812 1.766-.453.797-.985 1.422-.515.625-1.062 1.062-.547.438-1.063.656l-.484-1.359q.5-.39 1.016-1.062.515-.657.921-1.625.407-.97.657-2.282.265-1.312.265-3v-.234q0-1.688-.265-2.984-.266-1.313-.688-2.297-.406-.985-.906-1.657-.5-.671-1-1.046l.484-1.36q.516.235 1.063.672.547.438 1.062 1.063.532.625.985 1.421.468.797.812 1.766.344.953.547 2.078.203 1.11.203 2.36v.203z"/><path fill="#bdbdbd" d="M673.417 215.17H816v59.717H673.417z" fill-rule="evenodd"/><path stroke="#666" stroke-linejoin="round" stroke-linecap="butt" d="M673.417 215.17H816v59.717H673.417z"/><path fill="#000" d="M709.158 236.866l-.25 4.312h-1.61v-5.609h1.86v1.297zm8.386 10.25q0-1.407.344-2.594.344-1.203 1-2.047.656-.86 1.594-1.344.937-.484 2.125-.484 1.172 0 2.047.422.89.422 1.515 1.203l.11-1.39h1.968v12.421q0 1.25-.39 2.219-.39.984-1.11 1.656-.703.688-1.687 1.031-.984.36-2.188.36-.484 0-1.125-.125-.625-.11-1.28-.36-.641-.25-1.25-.672-.61-.421-1.032-1.046l1.125-1.297q.39.484.812.812.422.344.86.531.437.204.86.282.437.093.874.093.766 0 1.39-.218.626-.22 1.063-.657.438-.421.672-1.062.235-.625.235-1.453v-1.078q-.625.718-1.5 1.11-.86.374-1.985.374-1.172 0-2.11-.484-.937-.5-1.593-1.36-.64-.875-1-2.047-.344-1.187-.344-2.546v-.25zm2.172.25q0 .921.188 1.765.203.828.61 1.469.42.625 1.062 1 .64.36 1.546.36.563 0 1.016-.126.453-.14.813-.39.359-.25.64-.578.281-.344.485-.75v-5.813q-.204-.406-.485-.734-.281-.328-.656-.563-.36-.25-.813-.375-.437-.14-.968-.14-.922 0-1.578.375-.641.375-1.063 1.015-.406.64-.61 1.485-.187.828-.187 1.75v.25zm18.23 6.437q-1.327 0-2.452-.453-1.125-.469-1.922-1.281-.797-.828-1.25-1.953-.438-1.125-.438-2.438v-.5q0-1.531.485-2.734.5-1.219 1.312-2.063.828-.844 1.86-1.281 1.03-.453 2.124-.453 1.375 0 2.391.484 1.031.469 1.703 1.313.688.828 1.016 1.968.344 1.141.344 2.47v.968h-9.063q.031.86.328 1.625.313.766.828 1.344.516.562 1.235.89.734.328 1.625.328 1.156 0 2.047-.468.906-.469 1.515-1.25l1.313 1.031q-.313.484-.797.922-.469.437-1.094.781-.61.344-1.406.547-.781.203-1.703.203zm-.28-11.375q-.657 0-1.25.25-.579.234-1.047.703-.47.453-.797 1.14-.313.673-.438 1.548h6.813v-.172q-.032-.625-.235-1.25-.203-.625-.61-1.11-.39-.5-1-.796-.608-.313-1.437-.313zm14.214-4.61v3.063h4.828v1.688h-4.828v6.89q0 .735.188 1.22.187.468.515.765.329.281.75.406.438.11.922.11.344 0 .719-.032.375-.047.734-.11.36-.062.672-.124.313-.063.5-.11l.313 1.532q-.266.171-.656.296-.391.125-.844.204-.453.093-.969.14-.516.047-1.016.047-.843 0-1.578-.234-.734-.25-1.281-.766-.531-.531-.844-1.344-.297-.828-.297-2v-6.89h-3.328v-1.688h3.328v-3.062h2.172zm14.559 5.376l3.672-6.688h2.562l-4.953 8.453 5.063 8.61h-2.532l-3.765-6.828-3.782 6.828h-2.578l5.094-8.61-4.953-8.453h2.531l3.64 6.688zm14.73-6.328l-.25 4.312h-1.61v-5.609h1.86v1.297z"/><path d="M599.097 200.564c15.828 0 23.743-4.92 31.656-9.842 7.914-4.921 15.826-9.843 31.651-9.843"/><path stroke="#595959" stroke-width="4" stroke-linejoin="round" stroke-linecap="butt" d="M599.097 200.564c15.828 0 23.743-4.92 31.656-9.842 1.979-1.23 3.957-2.46 6.059-3.614a61.858 61.858 0 0 1 1.601-.85l.541-.27"/><path fill="#595959" stroke="#595959" stroke-width="4" stroke-linecap="butt" d="M640.36 192.443l16.33-10.32-19.142-2.591z" fill-rule="evenodd"/><path d="M744.93 353.581c0-14.749-60.111-22.124-120.221-29.498-60.11-7.374-120.22-14.747-120.22-29.494"/><path stroke="#595959" stroke-width="4" stroke-linejoin="round" stroke-linecap="butt" d="M744.93 353.581c0-14.749-60.111-22.124-120.221-29.498-30.055-3.687-60.11-7.374-82.652-11.982-5.635-1.152-10.801-2.362-15.38-3.644-.572-.16-1.135-.321-1.689-.484l-.483-.143"/><path stroke="#595959" stroke-width="4" stroke-linecap="butt" d="M528.15 302.32l-18.785-4.505 11.495 15.525z"/><path fill="#bdbdbd" d="M128.449 261.511h192.378v32.126H128.449z" fill-rule="evenodd"/><path stroke="#666" stroke-linejoin="round" stroke-linecap="butt" d="M128.449 261.511h192.378v32.126H128.449z"/><path fill="#000" d="M140.386 278.872v4.562h-1.437V272.06h3.687q.766.016 1.438.25.687.219 1.203.656.516.422.812 1.063.313.625.313 1.437 0 .828-.313 1.453-.296.625-.812 1.063-.516.422-1.203.656-.672.219-1.438.235h-2.25zm0-1.188h2.25q.5-.016.922-.156.422-.156.735-.438.312-.28.484-.687.172-.406.172-.922t-.172-.922q-.172-.422-.484-.703-.313-.297-.735-.453-.422-.156-.922-.156h-2.25v4.437zm13.57-2.86q.204 0 .423.016.218 0 .406.032.203.03.375.078.172.031.281.078l-.203 1.406q-.422-.094-.797-.125-.375-.047-.797-.047-1.015 0-1.64.469-.625.453-.922 1.281v5.422h-1.453v-8.453h1.375l.062 1.344q.516-.703 1.234-1.094.735-.406 1.657-.406zm3.65 4.298q0-.907.265-1.688.265-.797.765-1.375t1.203-.906q.72-.328 1.61-.328.89 0 1.61.328.718.328 1.202.906.5.578.766 1.375.266.781.266 1.688v.171q0 .922-.266 1.704-.266.78-.766 1.359-.484.578-1.203.906-.703.328-1.594.328-.906 0-1.625-.328-.703-.328-1.203-.906-.5-.578-.765-1.36-.266-.78-.266-1.703v-.171zm1.452.171q0 .625.14 1.204.157.562.454 1 .297.421.75.671.453.25 1.062.25.594 0 1.032-.25.453-.25.75-.671.312-.438.453-1 .156-.579.156-1.204v-.171q0-.61-.156-1.172-.156-.578-.453-1-.297-.438-.75-.688-.453-.25-1.047-.25-.61 0-1.063.25-.437.25-.734.688-.297.422-.453 1-.14.562-.14 1.172v.171zm11.977-6.359v2.047h3.219v1.11h-3.22v4.593q0 .5.126.828.125.313.344.5.218.188.5.266.296.078.609.078.234 0 .484-.016.25-.03.485-.062.25-.047.453-.094l.344-.078.203 1.031q-.188.11-.453.188-.25.078-.563.14-.297.063-.64.094-.329.031-.672.031-.563 0-1.047-.156-.485-.172-.844-.516-.36-.343-.578-.89-.203-.563-.203-1.344v-4.594h-2.22v-1.109h2.22v-2.047h1.453zm5.773 6.188q0-.907.266-1.688.265-.797.765-1.375t1.204-.906q.718-.328 1.609-.328.89 0 1.61.328.718.328 1.202.906.5.578.766 1.375.266.781.266 1.688v.171q0 .922-.266 1.704-.266.78-.766 1.359-.484.578-1.203.906-.703.328-1.593.328-.907 0-1.625-.328-.704-.328-1.204-.906-.5-.578-.765-1.36-.266-.78-.266-1.703v-.171zm1.453.171q0 .625.14 1.204.157.562.454 1 .297.421.75.671.453.25 1.063.25.593 0 1.03-.25.454-.25.75-.671.313-.438.454-1 .156-.579.156-1.204v-.171q0-.61-.156-1.172-.156-.578-.453-1-.297-.438-.75-.688-.453-.25-1.047-.25-.61 0-1.063.25-.437.25-.734.688-.297.422-.453 1-.14.562-.14 1.172v.171zm11.977-6.359v2.047h3.219v1.11h-3.22v4.593q0 .5.126.828.125.313.344.5.218.188.5.266.297.078.609.078.234 0 .484-.016.25-.03.485-.062.25-.047.453-.094l.344-.078.203 1.031q-.188.11-.453.188-.25.078-.563.14-.297.063-.64.094-.329.031-.672.031-.563 0-1.047-.156-.485-.172-.844-.516-.36-.343-.578-.89-.203-.563-.203-1.344v-4.594h-2.219v-1.109h2.219v-2.047h1.453zm9.289 7.5l.375 1.016 2.578-6.469h1.625l-4.297 9.766q-.14.328-.375.687-.234.375-.562.688-.328.312-.766.515-.437.219-1 .219-.11 0-.234-.016l-.25-.03q-.125-.017-.235-.048-.11-.015-.172-.031l.235-1.188h.14q.094.016.188.016.11.016.203.016.094.015.156.015.297 0 .532-.172.25-.156.437-.39.203-.219.328-.469.14-.234.219-.39l.578-1.141-3.64-8.047h1.624l2.313 5.453zm13.633-1.14q0 .906-.219 1.703-.219.78-.64 1.359-.422.578-1.047.906-.625.328-1.422.328-.766 0-1.36-.25-.593-.25-1.015-.718v4.062h-1.438v-11.703h1.313l.078.922q.422-.531 1.015-.797.594-.281 1.391-.281.813 0 1.438.328.625.312 1.046.89.422.563.641 1.36.219.781.219 1.734v.156zm-1.453-.157q0-.625-.141-1.172-.125-.562-.422-.984-.281-.438-.719-.688-.437-.25-1.046-.25-.688 0-1.172.329-.47.328-.75.828v4.078q.28.5.75.812.468.313 1.187.313.61 0 1.047-.25.438-.25.719-.672.281-.438.406-1 .14-.563.14-1.188v-.156zm7.648 4.453q-.89 0-1.64-.297-.735-.312-1.266-.859-.531-.547-.828-1.297-.297-.75-.297-1.64v-.329q0-1.015.328-1.828.328-.812.86-1.359.546-.563 1.234-.86.703-.296 1.422-.296.921 0 1.593.312.688.313 1.14.875.454.563.673 1.328.234.75.234 1.625v.657h-6.047q.032.578.22 1.093.202.5.546.875.36.375.844.594.484.219 1.062.219.781 0 1.375-.313.61-.312 1-.828l.89.688q-.218.328-.53.625-.313.281-.735.515-.406.22-.937.36-.516.14-1.14.14zm-.187-7.578q-.438 0-.829.156-.39.157-.703.47-.312.312-.53.765-.204.437-.298 1.031h4.547v-.11q-.016-.421-.156-.827-.14-.422-.406-.75-.266-.329-.672-.532-.39-.203-.953-.203z"/><path fill="#4a86e8" d="M128.449 196.419h192.378v32.126H128.449z" fill-rule="evenodd"/><path stroke="#666" stroke-linejoin="round" stroke-linecap="butt" d="M128.449 196.419h192.378v32.126H128.449z"/><path fill="#fff" d="M139.214 206.136h7.657v2.063h-2.578v9.14h2.578v2.063h-7.657v-2.063h2.516v-9.14h-2.516v-2.063zm13.009 3.406l.156 1.375q.531-.75 1.281-1.14.766-.407 1.688-.407.734 0 1.359.22.625.218 1.062.702.454.469.704 1.219.25.75.25 1.828v6.063h-2.532v-6.032q0-.578-.14-.953-.125-.39-.375-.61-.235-.218-.578-.296-.344-.094-.782-.094-.656 0-1.11.266-.452.266-.733.719v7h-2.547v-9.86h2.297zm9.43-4.14h5.515v11.937h2.813v2.063h-8.329v-2.063h2.954v-9.86h-2.954v-2.077zm11.336 4.14h5.375v7.797h2.672v2.063h-8.047v-2.063h2.812v-5.719h-2.812v-2.078zm2.625-2.515q0-.297.109-.547.11-.25.297-.422.187-.188.453-.281.281-.11.61-.11.671 0 1.062.39.39.376.39.97 0 .593-.39.968t-1.063.375q-.328 0-.609-.093-.266-.11-.453-.282-.188-.187-.297-.437-.11-.25-.11-.531zm10.195 2.515l.156 1.375q.532-.75 1.282-1.14.765-.407 1.687-.407.735 0 1.36.22.625.218 1.062.702.453.469.703 1.219.25.75.25 1.828v6.063h-2.531v-6.032q0-.578-.14-.953-.126-.39-.376-.61-.234-.218-.578-.296-.344-.094-.781-.094-.656 0-1.11.266-.453.266-.734.719v7h-2.547v-9.86h2.297zm13.68 10.047q-1.14 0-2.078-.375-.922-.375-1.594-1.016-.656-.64-1.015-1.515-.36-.875-.36-1.86v-.375q0-1.125.36-2.046.36-.938.984-1.61.64-.687 1.516-1.047.875-.375 1.906-.375 1.062 0 1.89.344.844.344 1.422.984.579.641.875 1.547.313.891.313 1.97v1.077h-6.688q.063.5.282.922.234.406.578.719.344.297.781.469.453.156.984.156.375 0 .735-.078.375-.078.703-.219.344-.14.64-.344.297-.219.516-.5l1.266 1.375q-.235.328-.625.656-.375.329-.89.579-.516.25-1.141.406-.625.156-1.36.156zm-.297-8.172q-.422 0-.78.156-.36.141-.626.422-.266.282-.453.672-.188.39-.266.875h4.14v-.203q-.015-.39-.155-.75-.125-.36-.39-.61-.25-.265-.626-.406-.36-.156-.844-.156zm27.032 3.828q-.062 1-.437 1.813-.375.797-1 1.36-.61.562-1.47.874-.843.297-1.89.297-1.172 0-2.094-.422-.906-.437-1.53-1.219-.61-.78-.938-1.875-.328-1.093-.328-2.406v-1.781q0-1.328.343-2.406.344-1.094.985-1.875.64-.797 1.547-1.219.906-.438 2.03-.438 1.095 0 1.938.313.86.313 1.453.89.61.563.954 1.391.359.828.437 1.875h-2.547q-.031-.594-.172-1.031-.14-.453-.422-.75-.265-.297-.671-.453-.407-.156-.97-.156-.593 0-1.03.265-.438.25-.72.75-.28.485-.421 1.203-.14.72-.14 1.625v1.797q0 1.969.546 2.906.563.938 1.75.938 1 0 1.578-.531.594-.531.657-1.735h2.562zm8.227 4.157q-.094-.188-.156-.422-.063-.235-.11-.5-.203.234-.484.437-.266.188-.61.344-.328.156-.734.234-.39.094-.86.094-.75 0-1.39-.219-.625-.218-1.078-.609-.453-.39-.719-.938-.25-.546-.25-1.187 0-1.547 1.157-2.39 1.171-.86 3.468-.86h1.422v-.594q0-.703-.469-1.11-.468-.421-1.343-.421-.766 0-1.125.328-.36.328-.36.89h-2.531q0-.624.281-1.187.282-.578.813-1 .531-.422 1.297-.672.765-.25 1.765-.25.89 0 1.657.22.78.218 1.343.64.563.422.875 1.078.328.656.328 1.5v4.234q0 .797.094 1.313.094.515.297.89v.157h-2.578zm-2.406-1.782q.375 0 .703-.078.328-.094.594-.234.265-.156.453-.344.203-.187.312-.375v-1.703h-1.297q-.593 0-1.015.125-.422.11-.688.313-.265.203-.39.5-.125.28-.125.624 0 .5.359.844.36.328 1.094.328zm11.805-.062q.375 0 .718-.11.344-.109.594-.296.25-.203.39-.485.141-.297.126-.64h2.39q.016.765-.328 1.422-.328.656-.906 1.14-.563.469-1.328.734-.75.266-1.61.266-1.14 0-2.015-.375-.86-.39-1.438-1.062-.578-.688-.875-1.594-.297-.906-.297-1.938v-.28q0-1.032.297-1.938.297-.907.875-1.578.578-.672 1.438-1.063.86-.39 2-.39.922 0 1.687.28.782.266 1.328.766.563.485.875 1.188.313.703.297 1.578h-2.39q.015-.36-.11-.688-.125-.328-.375-.562-.25-.234-.593-.375-.344-.14-.75-.14-.61 0-1 .25-.391.234-.625.655-.22.407-.329.938-.093.516-.093 1.078v.281q0 .578.093 1.11.094.531.329.937.234.406.625.656.39.235 1 .235zm9.367-6.656q.5-.72 1.203-1.125.703-.407 1.578-.407.782 0 1.422.235.64.219 1.11.719.468.484.718 1.265.266.766.266 1.844v5.969h-2.531v-5.985q0-.531-.141-.906-.125-.39-.375-.625-.234-.234-.594-.344-.343-.125-.781-.125-.625 0-1.094.235-.468.218-.781.64v7.11h-2.531v-14h2.531v5.5zm13.446 8.687q-1.141 0-2.079-.375-.921-.375-1.593-1.016-.657-.64-1.016-1.515-.36-.875-.36-1.86v-.375q0-1.125.36-2.046.36-.938.984-1.61.641-.687 1.516-1.047.875-.375 1.906-.375 1.063 0 1.891.344.844.344 1.422.984.578.641.875 1.547.312.891.312 1.97v1.077h-6.687q.062.5.281.922.234.406.578.719.344.297.781.469.454.156.985.156.375 0 .734-.078.375-.078.703-.219.344-.14.641-.344.297-.219.516-.5l1.265 1.375q-.234.328-.625.656-.375.329-.89.579-.516.25-1.141.406-.625.156-1.36.156zm-.297-8.172q-.422 0-.782.156-.359.141-.625.422-.265.282-.453.672-.187.39-.265.875h4.14v-.203q-.015-.39-.156-.75-.125-.36-.39-.61-.25-.265-.626-.406-.359-.156-.843-.156z"/><path fill="#bdbdbd" d="M128.449 326.182h192.378v32.126H128.449z" fill-rule="evenodd"/><path stroke="#666" stroke-linejoin="round" stroke-linecap="butt" d="M128.449 326.182h192.378v32.126H128.449z"/><path fill="#000" d="M146.214 343.074q-.015.61-.109 1.234-.094.61-.297 1.188-.203.578-.531 1.078-.313.5-.75.875-.438.375-1 .594-.563.219-1.266.219-.703 0-1.28-.22-.563-.218-1-.593-.438-.375-.767-.875-.312-.5-.515-1.078-.203-.578-.313-1.188-.093-.625-.109-1.234v-1.297q.016-.61.11-1.234.093-.625.296-1.203.219-.578.531-1.078.313-.5.75-.875.438-.391 1-.594.579-.219 1.282-.219.703 0 1.265.219.578.203 1.016.578.437.375.75.89.312.5.516 1.079.218.578.312 1.203.094.625.11 1.234v1.297zm-1.437-1.312q0-.407-.047-.844-.047-.453-.172-.875-.11-.438-.297-.828-.187-.407-.468-.703-.282-.297-.672-.47-.375-.187-.875-.187t-.89.188q-.376.172-.657.484-.281.297-.469.688-.187.39-.312.828-.11.437-.157.875-.047.437-.062.844v1.312q.015.39.062.844.047.437.157.875.125.437.312.844.188.39.469.687.281.297.656.484.39.172.906.172.5 0 .891-.172.39-.187.656-.484.281-.297.469-.687.187-.407.297-.829.11-.437.156-.875.047-.453.047-.859v-1.312zm5.789 6.343v-7.343h-2.328v-1.11h2.328v-.594q0-.812.234-1.421.25-.625.672-1.032.438-.422 1.047-.625.61-.218 1.36-.218.515 0 1 .093.5.078 1.015.22l-.172 1.187q-.328-.11-.75-.188t-.906-.078q-1.016 0-1.531.516-.516.5-.516 1.546v.594h3.266v1.11h-3.266v7.343h-1.453zm9.61 0v-7.343h-2.329v-1.11h2.328v-.594q0-.812.235-1.421.25-.625.672-1.032.437-.422 1.047-.625.609-.218 1.359-.218.516 0 1 .093.5.078 1.016.22l-.172 1.187q-.328-.11-.75-.188t-.907-.078q-1.015 0-1.53.516-.516.5-.516 1.546v.594h3.265v1.11h-3.265v7.343h-1.454zm13.078-2.25q0-.25-.11-.453-.094-.219-.344-.39-.234-.172-.64-.313-.39-.14-.985-.266-.734-.14-1.328-.343-.593-.219-1.031-.516-.422-.297-.656-.687-.235-.391-.235-.922 0-.516.235-.953.25-.454.687-.782.438-.343 1.047-.53.61-.204 1.328-.204.782 0 1.407.203t1.062.563q.438.359.672.843.25.47.25 1.032h-1.453q0-.282-.14-.532-.141-.265-.391-.468-.25-.204-.61-.329-.344-.125-.797-.125-.453 0-.812.11-.344.094-.578.265-.22.172-.344.407-.11.218-.11.453 0 .25.094.453.094.187.313.344.234.156.625.281.39.125.984.25.781.156 1.39.375.626.219 1.048.516.422.296.64.703.219.39.219.922 0 .562-.25 1.03-.25.454-.703.782-.453.328-1.094.516-.625.172-1.375.172-.86 0-1.531-.235-.672-.234-1.14-.61-.47-.374-.72-.874-.234-.5-.234-1.047h1.438q.03.453.234.766.219.296.516.484.312.187.687.266.375.078.75.078.906 0 1.438-.328.53-.344.547-.907zm7.71 2.407q-.89 0-1.64-.297-.735-.313-1.266-.86-.531-.547-.828-1.297-.297-.75-.297-1.64v-.328q0-1.016.328-1.828.328-.813.86-1.36.547-.562 1.234-.86.703-.296 1.422-.296.922 0 1.594.312.687.313 1.14.875.453.563.672 1.329.235.75.235 1.625v.656h-6.047q.03.578.218 1.094.204.5.547.875.36.375.844.593.484.22 1.063.22.78 0 1.375-.313.609-.313 1-.829l.89.688q-.219.328-.531.625-.313.281-.734.516-.407.218-.938.359-.516.14-1.14.14zm-.187-7.579q-.438 0-.828.157-.39.156-.703.468-.313.313-.532.766-.203.438-.296 1.031h4.546v-.109q-.015-.422-.156-.828-.14-.422-.406-.75t-.672-.531q-.39-.204-.953-.204zm9.477-3.078v2.047h3.218v1.11h-3.218v4.593q0 .5.125.828.125.313.343.5.219.188.5.266.297.078.61.078.234 0 .484-.015l.484-.063q.25-.047.454-.094l.343-.078.203 1.031q-.187.11-.453.188-.25.078-.562.14-.297.063-.64.094-.329.032-.673.032-.562 0-1.047-.157-.484-.172-.843-.515-.36-.344-.578-.89-.204-.563-.204-1.345v-4.593h-2.218v-1.11h2.218v-2.047h1.454z"/><path fill="#bdbdbd" d="M128.449 228.965H263.22v32.126H128.45z" fill-rule="evenodd"/><path stroke="#666" stroke-linejoin="round" stroke-linecap="butt" d="M128.449 228.965H263.22v32.126H128.45z"/><path fill="#000" d="M142.214 248.56l2.688-9.047h1.547l-3.594 11.375h-1.25l-3.594-11.375h1.547l2.656 9.046zm11.758 2.328q-.093-.172-.14-.407-.047-.25-.078-.515-.22.218-.485.422-.265.187-.594.343-.328.14-.703.22-.36.093-.765.093-.672 0-1.22-.188-.546-.203-.921-.53-.375-.345-.594-.798-.203-.453-.203-.984 0-.703.281-1.219.282-.531.782-.875.515-.344 1.218-.516.72-.171 1.61-.171h1.578v-.672q0-.375-.14-.672-.141-.313-.407-.531-.25-.22-.625-.329-.375-.125-.828-.125-.438 0-.781.11-.328.11-.563.297-.234.172-.375.422-.125.25-.125.515h-1.453q.016-.469.234-.906.235-.453.672-.797.438-.36 1.047-.578.625-.219 1.422-.219.719 0 1.328.172.625.172 1.063.531.453.36.703.89.265.532.265 1.235v3.938q0 .422.079.89.078.47.218.829v.125h-1.5zm-2.562-1.11q.422 0 .781-.11.375-.109.672-.28.312-.188.531-.407.219-.234.344-.484v-1.719h-1.344q-1.265 0-1.969.375-.703.375-.703 1.188 0 .312.094.578.11.265.313.453.218.187.53.297.329.11.75.11zm6.836-10.89h4.312v10.75h2.766v1.25h-7.078v-1.25h2.875v-9.5h-2.875v-1.25zm9.601 3.546h4.313v7.204h2.765v1.25h-7.078v-1.25h2.875v-5.954h-2.875v-1.25zm2.688-2.218q0-.36.203-.61.219-.25.656-.25.438 0 .656.25.22.25.22.61 0 .343-.22.578-.218.234-.656.234-.437 0-.656-.234-.203-.235-.203-.578zm6.414 6.375q0-.953.234-1.735.235-.797.672-1.36.453-.577 1.078-.89.625-.328 1.39-.328.766 0 1.329.25.562.25.984.735v-4.375h1.438v12h-1.328l-.063-.891q-.422.516-1.015.781-.579.266-1.36.266-.765 0-1.39-.328-.61-.328-1.047-.907-.438-.578-.688-1.359-.234-.797-.234-1.703v-.156zm1.437.156q0 .625.125 1.187.141.547.422.97.281.421.703.671.438.234 1.032.234.375 0 .671-.078.297-.093.532-.25.25-.156.437-.375.188-.234.328-.5v-3.922q-.28-.515-.765-.843-.47-.344-1.188-.344-.61 0-1.047.25-.422.25-.703.687-.281.422-.422.985-.125.547-.125 1.172v.156zm8.664-4.313h4.313v7.204h2.766v1.25h-7.079v-1.25h2.875v-5.954h-2.875v-1.25zm2.688-2.218q0-.36.203-.61.219-.25.656-.25.438 0 .657.25.218.25.218.61 0 .343-.218.578-.22.234-.657.234-.437 0-.656-.234-.203-.235-.203-.578zm10.101.172v2.046h3.22v1.11h-3.22v4.594q0 .5.125.828.125.312.344.5.219.187.5.265.297.078.61.078.234 0 .484-.015.25-.031.484-.063.25-.047.453-.093l.344-.079.203 1.032q-.187.11-.453.187-.25.078-.562.14-.297.063-.64.095-.329.03-.673.03-.562 0-1.047-.155-.484-.172-.843-.516-.36-.344-.579-.89-.203-.563-.203-1.344v-4.594h-2.218v-1.11h2.218v-2.046h1.453zm9.29 7.5l.375 1.015 2.578-6.469h1.625l-4.297 9.766q-.14.328-.375.688-.235.375-.563.687-.328.313-.765.516-.438.218-1 .218-.11 0-.235-.015l-.25-.031q-.125-.016-.234-.047-.11-.016-.172-.032l.234-1.187h.141q.094.016.188.016.109.015.203.015.093.016.156.016.297 0 .531-.172.25-.156.438-.39.203-.22.328-.47.14-.234.219-.39l.578-1.14-3.641-8.048h1.625l2.313 5.454zm13.867-.422q-.11.78-.422 1.453-.297.656-.781 1.125-.485.469-1.157.734-.672.266-1.484.266-.703 0-1.281-.203t-1.032-.547q-.437-.36-.765-.828-.328-.485-.547-1.047-.203-.563-.313-1.172-.109-.625-.109-1.25v-1.594q0-.625.11-1.234.109-.625.312-1.188.219-.562.547-1.047.328-.484.765-.828.454-.36 1.016-.547.578-.203 1.297-.203.844 0 1.516.266.671.25 1.156.734.484.485.781 1.157.297.671.39 1.484h-1.452q-.063-.516-.235-.953-.172-.453-.469-.781-.28-.344-.703-.532-.422-.203-.984-.203-.516 0-.922.172-.39.172-.672.469-.281.281-.484.672-.188.375-.313.812-.109.422-.156.875-.047.438-.047.86v1.609q0 .422.047.875.047.437.156.875.125.437.313.828.187.375.469.672.296.281.687.453.39.172.922.172.562 0 .984-.172.422-.187.703-.516.297-.328.47-.765.171-.438.234-.953h1.453zm5.96 3.578q-.89 0-1.64-.297-.734-.313-1.266-.86-.53-.546-.828-1.296-.297-.75-.297-1.64v-.33q0-1.015.329-1.827.328-.813.859-1.36.547-.562 1.234-.859.703-.297 1.422-.297.922 0 1.594.313.687.312 1.14.875.454.562.672 1.328.235.75.235 1.625v.656h-6.047q.031.578.219 1.094.203.5.547.875.359.375.843.594.485.218 1.063.218.781 0 1.375-.312.61-.313 1-.828l.89.687q-.218.328-.53.625-.313.281-.735.516-.406.219-.938.36-.515.14-1.14.14zm-.187-7.578q-.437 0-.828.156-.39.156-.703.469-.313.312-.531.765-.203.438-.297 1.032h4.547v-.11q-.016-.422-.157-.828-.14-.422-.406-.75-.265-.328-.672-.531-.39-.203-.953-.203zm6.29-4.578h4.312v10.75h2.765v1.25h-7.078v-1.25h2.875v-9.5h-2.875v-1.25zm9.6 0h4.313v10.75h2.766v1.25h-7.078v-1.25h2.875v-9.5h-2.875v-1.25z"/><path fill="#bdbdbd" d="M128.449 294.056h192.378v32.126H128.449z" fill-rule="evenodd"/><path stroke="#666" stroke-linejoin="round" stroke-linecap="butt" d="M128.449 294.056h192.378v32.126H128.449z"/><path fill="#000" d="M144.761 313.104q0-.531-.234-.89-.234-.36-.61-.594-.374-.25-.828-.407-.453-.171-.859-.312-.61-.188-1.234-.453-.61-.281-1.125-.672-.516-.406-.844-.953-.313-.547-.313-1.281 0-.735.313-1.313.328-.578.844-.969.53-.406 1.187-.61.672-.202 1.344-.202.75 0 1.437.25.688.234 1.22.687.53.438.843 1.078.328.625.344 1.407h-1.485q-.062-.485-.25-.89-.172-.407-.468-.688-.297-.297-.72-.454-.405-.156-.921-.156-.406 0-.813.125-.39.11-.703.344-.297.234-.484.578-.188.344-.188.797.016.484.25.828.25.344.61.578.375.235.812.39.438.157.813.266.422.141.844.313.437.156.828.375.406.219.75.5.343.266.593.625.266.344.407.766.156.406.156.921 0 .766-.344 1.344-.344.563-.89.938-.532.375-1.22.578-.671.187-1.343.187-.766 0-1.5-.234-.719-.234-1.297-.672-.562-.453-.922-1.078-.36-.64-.39-1.453h1.484q.063.531.281.937.22.407.563.703.344.282.797.422.453.14.984.14.422 0 .828-.093.406-.11.719-.328.328-.234.531-.562.203-.344.203-.813zm5.102-4.328q.453-.656 1.11-1.031.671-.375 1.5-.375.656 0 1.202.187.547.188.922.594.39.406.594 1.031.203.625.203 1.469v5.328h-1.437v-5.344q0-1.03-.5-1.53-.5-.517-1.422-.517-.688 0-1.266.344-.562.344-.906.906v6.141h-1.453v-12h1.453v4.797zm13.71 7.203q-.093-.172-.14-.406-.047-.25-.078-.516-.219.219-.484.422-.266.188-.594.344-.328.14-.703.219-.36.093-.766.093-.672 0-1.219-.187-.546-.203-.921-.531-.375-.344-.594-.797-.203-.453-.203-.985 0-.703.28-1.218.282-.532.782-.875.516-.344 1.219-.516.719-.172 1.61-.172h1.577v-.672q0-.375-.14-.672-.14-.312-.406-.53-.25-.22-.625-.33-.375-.124-.829-.124-.437 0-.78.11-.329.109-.563.296-.235.172-.375.422-.125.25-.125.516h-1.453q.015-.47.234-.907.234-.453.672-.796.437-.36 1.047-.579.625-.218 1.422-.218.718 0 1.328.172.625.171 1.062.53.453.36.703.891.266.532.266 1.235v3.937q0 .422.078.89.078.47.219.83v.124h-1.5zm-2.562-1.11q.422 0 .782-.109.375-.11.671-.28.313-.188.532-.407.218-.235.343-.485v-1.718h-1.343q-1.266 0-1.97.375-.702.375-.702 1.187 0 .313.094.578.109.266.312.453.219.188.531.297.328.11.75.11zm13.743-3.03q0 .906-.22 1.703-.218.78-.64 1.359-.422.578-1.047.906-.625.328-1.422.328-.765 0-1.359-.25t-1.016-.718v4.062h-1.437v-11.703h1.312l.079.922q.421-.531 1.015-.797.594-.281 1.39-.281.813 0 1.438.328.625.312 1.047.89.422.563.64 1.36.22.781.22 1.734v.156zm-1.454-.157q0-.625-.14-1.172-.125-.562-.422-.984-.281-.438-.719-.688-.437-.25-1.047-.25-.687 0-1.172.329-.468.328-.75.828v4.078q.282.5.75.812.47.313 1.188.313.61 0 1.047-.25.437-.25.719-.672.28-.438.406-1 .14-.563.14-1.188v-.156zm7.649 4.453q-.89 0-1.64-.297-.735-.312-1.266-.859-.532-.547-.829-1.297-.296-.75-.296-1.64v-.329q0-1.015.328-1.828.328-.812.86-1.36.546-.562 1.233-.858.704-.297 1.422-.297.922 0 1.594.312.688.313 1.14.875.454.563.673 1.328.234.75.234 1.625v.657h-6.047q.031.578.219 1.093.203.5.547.875.36.375.843.594.485.219 1.063.219.781 0 1.375-.313.61-.312 1-.828l.89.688q-.218.328-.53.625-.313.28-.735.515-.406.22-.938.36-.515.14-1.14.14zm-.188-7.578q-.437 0-.828.156-.39.157-.703.47-.312.312-.531.765-.203.437-.297 1.031h4.547v-.11q-.016-.421-.156-.827-.141-.422-.407-.75-.265-.329-.672-.532-.39-.203-.953-.203z"/><path fill="#bdbdbd" d="M263.213 294.056h57.606v32.126h-57.606z" fill-rule="evenodd"/><path stroke="#666" stroke-linejoin="round" stroke-linecap="butt" d="M263.213 294.056h57.606v32.126h-57.606z"/><path fill="#bdbdbd" d="M263.213 326.285h57.606v32.126h-57.606z" fill-rule="evenodd"/><path stroke="#666" stroke-linejoin="round" stroke-linecap="butt" d="M263.213 326.285h57.606v32.126h-57.606z"/><path fill="#000" d="M295.715 343.848q0 1.094-.25 1.938-.25.828-.719 1.406t-1.156.875q-.672.297-1.547.297-.86 0-1.547-.297-.687-.297-1.172-.875-.468-.578-.718-1.406-.25-.844-.25-1.938v-2.656q0-1.094.25-1.922.25-.843.718-1.422.47-.578 1.157-.875.687-.312 1.546-.312.875 0 1.563.312.687.297 1.156.875.469.579.719 1.422.25.828.25 1.922v2.656zm-5.906-.28l4.422-3.407q-.125-1.125-.657-1.719-.53-.594-1.547-.594-1.14 0-1.687.782-.531.765-.531 2.234v2.703zm4.453-2.016l-4.422 3.375q.14 1.109.687 1.687.547.578 1.516.578 1.156 0 1.688-.781.53-.781.53-2.25v-2.61z"/><path fill="#bdbdbd" d="M263.218 261.51h57.606v32.126h-57.606z" fill-rule="evenodd"/><path stroke="#666" stroke-linejoin="round" stroke-linecap="butt" d="M263.218 261.51h57.606v32.126h-57.606z"/><path fill="#bdbdbd" d="M263.218 228.964h57.606v32.126h-57.606z" fill-rule="evenodd"/><path stroke="#666" stroke-linejoin="round" stroke-linecap="butt" d="M263.218 228.964h57.606v32.126h-57.606z"/><path fill="#673ab7" d="M665.118 38.573H824.3V70.7H665.12z" fill-rule="evenodd"/><path stroke="#666" stroke-linejoin="round" stroke-linecap="butt" d="M665.118 38.573H824.3V70.7H665.12z"/><path fill="#fff" d="M679.696 57.853l2.516-9.562h2.812l-4.015 13.265h-2.594l-4.016-13.265h2.828l2.47 9.562zm13.055 3.703q-.094-.187-.156-.421-.063-.235-.11-.5-.203.234-.484.437-.265.188-.61.344-.327.156-.734.234-.39.094-.859.094-.75 0-1.39-.219-.626-.219-1.079-.61-.453-.39-.718-.937-.25-.547-.25-1.187 0-1.547 1.156-2.39 1.172-.86 3.469-.86h1.421v-.594q0-.703-.468-1.11-.47-.421-1.344-.421-.766 0-1.125.328-.36.328-.36.89h-2.53q0-.624.28-1.187.282-.578.813-1 .531-.422 1.297-.672.766-.25 1.766-.25.89 0 1.656.219.781.219 1.344.64.562.422.875 1.079.328.656.328 1.5v4.234q0 .797.093 1.313.094.515.297.89v.156h-2.578zm-2.406-1.78q.375 0 .703-.079.328-.094.594-.234.265-.157.453-.344.203-.188.312-.375v-1.703h-1.296q-.594 0-1.016.125-.422.11-.688.312-.265.203-.39.5-.125.282-.125.625 0 .5.36.844.359.328 1.093.328zm7.977-12.22h5.515v11.938h2.813v2.062h-8.328v-2.062h2.953v-9.86h-2.953v-2.078zm11.336 4.141h5.375v7.797h2.672v2.062h-8.047v-2.062h2.812v-5.719h-2.812v-2.078zm2.625-2.516q0-.296.11-.546.109-.25.296-.422.188-.188.453-.282.282-.109.61-.109.672 0 1.062.39.39.376.39.97 0 .593-.39.968t-1.062.375q-.328 0-.61-.094-.265-.109-.453-.28-.187-.188-.297-.438-.11-.25-.11-.532zm7.633 7.375q0-1.125.266-2.046.265-.938.765-1.594.5-.672 1.203-1.031.72-.36 1.641-.36.781 0 1.36.281.593.266 1.046.782v-5.032h2.547v14h-2.297l-.125-1.03q-.469.577-1.094.905-.625.313-1.453.313-.906 0-1.625-.375-.703-.39-1.203-1.047-.5-.672-.765-1.578-.266-.922-.266-2v-.188zm2.531.188q0 .625.11 1.156.109.531.343.938.235.39.61.625.375.218.906.218.656 0 1.094-.28.437-.282.687-.782v-3.984q-.25-.5-.687-.782-.422-.28-1.078-.28-.532 0-.907.233-.375.235-.625.641-.234.406-.343.953-.11.531-.11 1.156v.188zm9.602-5.047h5.375v7.797h2.672v2.062h-8.047v-2.062h2.813v-5.719h-2.813v-2.078zm2.625-2.516q0-.296.11-.546.109-.25.296-.422.188-.188.453-.282.282-.109.61-.109.672 0 1.062.39.39.376.39.97 0 .593-.39.968t-1.062.375q-.328 0-.61-.094-.265-.109-.453-.28-.187-.188-.297-.438-.109-.25-.109-.532zm12.555.11v2.406h3.672v1.875h-3.672v4.234q0 .532.11.891.124.36.343.578.235.219.563.313.328.078.718.078.297 0 .594-.016.313-.031.594-.062.281-.047.516-.094.25-.047.421-.094l.235 1.735q-.25.156-.61.28-.359.11-.765.173-.39.078-.828.11-.438.046-.844.046-.813 0-1.484-.203-.657-.219-1.125-.672-.47-.453-.735-1.14-.25-.704-.25-1.673v-4.484h-2.25v-1.875h2.25v-2.406h2.547zm10.742 8.125l.297 1.062 2.625-6.78h2.797l-5.015 11.327q-.157.375-.422.813-.25.437-.64.812-.392.375-.954.625-.563.266-1.328.266-.188 0-.344-.016-.156-.015-.297-.047-.14-.015-.281-.047-.14-.03-.313-.078l.313-1.922h.39q.25.016.391.016.297 0 .531-.187.235-.172.391-.391.172-.219.266-.406.11-.172.14-.172l.61-1.156-4.172-9.438h2.781l2.234 5.719zm16.118-.016q-.063 1-.438 1.813-.375.797-1 1.36-.609.562-1.468.874-.844.297-1.891.297-1.172 0-2.094-.422-.906-.437-1.531-1.219-.61-.78-.937-1.875-.329-1.093-.329-2.406v-1.781q0-1.328.344-2.406.344-1.094.985-1.875.64-.797 1.546-1.22.907-.437 2.032-.437 1.093 0 1.937.313.86.312 1.453.89.61.563.953 1.391.36.828.438 1.875h-2.547q-.031-.594-.172-1.031-.14-.453-.422-.75-.265-.297-.672-.453-.406-.157-.968-.157-.594 0-1.032.266-.437.25-.718.75-.282.484-.422 1.203-.14.719-.14 1.625v1.797q0 1.969.546 2.906.563.938 1.75.938 1 0 1.578-.531.594-.532.656-1.735h2.563zm6.852 4.344q-1.14 0-2.078-.375-.922-.375-1.594-1.016-.656-.64-1.016-1.515-.36-.875-.36-1.86v-.375q0-1.125.36-2.047.36-.937.985-1.609.64-.687 1.515-1.047.875-.375 1.906-.375 1.063 0 1.891.344.844.344 1.422.984.578.641.875 1.547.312.89.312 1.969v1.078h-6.687q.062.5.281.922.235.406.578.719.344.297.782.468.453.157.984.157.375 0 .734-.078.375-.079.703-.22.344-.14.641-.343.297-.219.516-.5l1.265 1.375q-.234.328-.625.656-.375.328-.89.578-.516.25-1.14.407-.626.156-1.36.156zm-.297-8.172q-.422 0-.781.156-.36.141-.625.422-.266.281-.454.672-.187.39-.265.875h4.14v-.203q-.015-.39-.156-.75-.125-.36-.39-.61-.25-.265-.625-.406-.36-.156-.844-.156zm7.242-6.016h5.516v11.938h2.812v2.062h-8.328v-2.062h2.953v-9.86h-2.953v-2.078zm11.196 0h5.516v11.938h2.812v2.062h-8.328v-2.062h2.953v-9.86h-2.953v-2.078z"/><path fill="#bdbdbd" d="M665.118 70.7H824.3v32.125H665.12z" fill-rule="evenodd"/><path stroke="#666" stroke-linejoin="round" stroke-linecap="butt" d="M665.118 70.7H824.3v32.125H665.12z"/><path fill="#000" d="M679.68 90.964l3.126-10.547h1.796l-4.187 13.265h-1.453l-4.203-13.265h1.812l3.11 10.547zm13.696 2.718q-.094-.187-.156-.468-.063-.297-.094-.61-.25.266-.562.5-.313.22-.703.391-.375.172-.813.266-.422.109-.89.109-.797 0-1.438-.219-.625-.234-1.063-.625-.437-.39-.687-.922-.234-.53-.234-1.156 0-.812.312-1.422.328-.61.922-1.015.594-.407 1.422-.594.844-.203 1.875-.203h1.828v-.782q0-.453-.172-.796-.156-.36-.453-.61-.297-.25-.734-.39-.422-.141-.97-.141-.5 0-.905.14-.391.126-.672.344-.266.203-.422.485-.14.281-.14.593h-1.688q0-.53.265-1.046.282-.532.782-.938.5-.422 1.218-.672.735-.25 1.657-.25.843 0 1.562.203.719.203 1.234.625.532.407.829 1.032.296.609.296 1.437v4.578q0 .5.094 1.047.094.547.25.969v.14h-1.75zm-2.984-1.28q.5 0 .922-.126.437-.14.78-.344.345-.203.595-.468.265-.282.406-.563v-2h-1.563q-1.468 0-2.296.438-.813.437-.813 1.375 0 .36.125.672.125.312.36.53.25.22.624.36.375.125.86.125zm7.961-12.72h5.047V92.23h3.219v1.453h-8.266V92.23h3.36V81.151h-3.36v-1.469zm11.196 4.141h5.046v8.406h3.22v1.453h-8.266V92.23h3.359v-6.937h-3.36v-1.469zm3.14-2.578q0-.422.25-.703.25-.297.766-.297.5 0 .75.297.25.281.25.703 0 .406-.25.687-.25.266-.75.266-.516 0-.766-.266-.25-.28-.25-.687zm7.477 7.422q0-1.094.281-2.016.282-.937.782-1.594.515-.671 1.25-1.03.734-.376 1.625-.376.89 0 1.546.297.672.281 1.141.86v-5.126h1.688v14h-1.547l-.063-1.03q-.5.593-1.187.905-.672.313-1.594.313-.89 0-1.625-.375-.719-.39-1.234-1.063-.5-.687-.782-1.593-.281-.922-.281-1.969v-.203zm1.688.203q0 .719.156 1.36.156.64.469 1.14.328.484.828.781.5.281 1.203.281.437 0 .781-.093.344-.11.625-.297.281-.188.5-.438.219-.265.375-.578v-4.578q-.328-.594-.89-.984-.547-.39-1.376-.39-.703 0-1.218.296-.5.281-.828.781-.313.5-.47 1.156-.155.641-.155 1.36v.203zm12.758 3.719q0-.266.078-.5.093-.25.25-.422.172-.188.422-.281.25-.094.578-.094.328 0 .578.094.25.093.406.28.172.173.25.423.094.234.094.5 0 .265-.094.5-.078.234-.25.406-.156.172-.406.266-.25.093-.578.093-.328 0-.578-.093-.25-.094-.422-.266-.157-.172-.25-.406-.078-.235-.078-.5zm0-8q0-.266.078-.5.093-.25.25-.422.172-.188.422-.281.25-.094.578-.094.328 0 .578.094.25.093.406.28.172.173.25.423.094.234.094.5 0 .265-.094.5-.078.234-.25.406-.156.172-.406.266-.25.093-.578.093-.328 0-.578-.093-.25-.094-.422-.266-.157-.172-.25-.406-.078-.235-.078-.5zm23.453-3.157v2.391h3.75v1.313h-3.75v5.343q0 .578.14.953.141.375.391.594.266.219.594.313.344.093.719.093.266 0 .547-.03.297-.032.578-.079.281-.047.516-.094.25-.047.406-.093l.234 1.203q-.219.125-.515.218-.297.094-.657.157-.343.078-.75.11-.39.046-.78.046-.657 0-1.235-.188-.563-.187-.985-.593-.422-.407-.672-1.047-.234-.64-.234-1.563v-5.343h-2.578v-1.313h2.578v-2.39h1.703zm13.665 2.22q.234 0 .484.015.266 0 .484.031.235.031.422.078.203.047.344.11l-.234 1.64q-.485-.11-.938-.156-.437-.047-.922-.047-1.187 0-1.922.547-.734.531-1.078 1.484v6.328h-1.687v-9.859h1.593l.094 1.563q.594-.797 1.438-1.266.843-.469 1.922-.469zm11.133 8.671q-.5.734-1.235 1.14-.734.407-1.703.407-.781 0-1.406-.234-.625-.25-1.078-.766-.438-.516-.688-1.297-.234-.781-.234-1.89v-5.86h1.687v5.875q0 .813.125 1.344.125.515.375.828.266.312.625.453.375.125.86.125 1.031 0 1.656-.422.64-.422.953-1.125v-7.078h1.688v9.86h-1.532l-.093-1.36zm9.148 1.547q-1.03 0-1.906-.36-.875-.359-1.5-.984-.61-.64-.953-1.515-.344-.875-.344-1.907v-.39q0-1.188.375-2.125.39-.953 1.016-1.594.64-.656 1.437-1 .813-.344 1.657-.344 1.062 0 1.859.375.797.36 1.328 1.016.531.64.781 1.531.266.875.266 1.906v.75h-7.031q.015.688.25 1.282.234.578.64 1.03.407.438.97.704.562.25 1.25.25.905 0 1.593-.36.703-.374 1.172-.968l1.031.797q-.25.375-.625.718-.36.329-.844.594-.484.266-1.094.422-.609.172-1.328.172zm-.218-8.844q-.516 0-.97.188-.452.187-.812.547-.359.359-.625.89-.25.516-.343 1.203h5.296v-.125q-.015-.5-.187-.984-.156-.484-.469-.86-.297-.39-.765-.624-.47-.235-1.125-.235z"/><path d="M744.819 146.74l-.095-43.905"/><path stroke="#595959" stroke-width="2" stroke-linejoin="round" stroke-linecap="butt" d="M744.819 146.74l-.069-31.905"/><path fill="#595959" stroke="#595959" stroke-width="2" stroke-linecap="butt" d="M748.054 114.828l-3.323-9.07-3.284 9.084z" fill-rule="evenodd"/><path d="M292.11 247.298c52.757 0 58.887-40.134 105.513-80.268 46.626-40.134 133.748-80.268 267.495-80.268"/><path stroke="#666" stroke-width="2" stroke-linejoin="round" stroke-linecap="butt" d="M299.684 247l.677-.056c.375-.033.747-.069 1.116-.107a73.591 73.591 0 0 0 8.401-1.342c5.308-1.176 10.057-2.9 14.418-5.095 8.723-4.39 15.892-10.66 22.87-18.186 13.955-15.05 27.144-35.117 50.457-55.184 23.313-20.067 56.75-40.134 101.077-55.184 22.163-7.525 47.05-13.796 74.754-18.186 13.852-2.194 28.41-3.919 43.682-5.095a604.389 604.389 0 0 1 23.45-1.342 635.49 635.49 0 0 1 12.13-.344l.403-.007"/><path fill="#666" stroke="#666" stroke-width="2" stroke-linecap="butt" d="M293.11 247.259a3.29 3.29 0 1 1 6.574-.259 3.29 3.29 0 0 1-6.575.259z"/><path fill="#666" stroke="#666" stroke-width="2" stroke-linecap="butt" d="M653.149 90.175l9.045-3.386-9.106-3.22z" fill-rule="evenodd"/><path d="M292.12 310.36c92.883 0 139.324 14.985 185.765 29.97 46.44 14.984 92.881 29.968 185.763 29.968"/><path stroke="#666" stroke-width="2" stroke-linejoin="round" stroke-linecap="butt" d="M299.7 310.395l.994.01c2.813.028 5.582.071 8.31.128a720.83 720.83 0 0 1 15.861.501 612.851 612.851 0 0 1 28.935 1.902c18.141 1.64 34.105 3.98 48.618 6.79 29.026 5.62 52.246 13.111 75.467 20.603 23.22 7.493 46.44 14.985 75.466 20.604 14.513 2.81 30.477 5.15 48.618 6.79 9.07.819 18.685 1.463 28.935 1.902a721.026 721.026 0 0 0 19.984.576l.76.01"/><path fill="#666" stroke="#666" stroke-width="2" stroke-linecap="butt" d="M293.12 310.365a3.29 3.29 0 1 1 6.58.03 3.29 3.29 0 0 1-6.58-.03z"/><path fill="#666" stroke="#666" stroke-width="2" stroke-linecap="butt" d="M651.625 373.515l9.1-3.238-9.053-3.369z" fill-rule="evenodd"/><path d="M292.105 277.887c41.835 0 68.918-19.33 83.67-38.661 14.752-19.331 17.173-38.662 34.346-38.662"/><path stroke="#666" stroke-width="2" stroke-linejoin="round" stroke-linecap="butt" d="M299.682 277.67l.095-.005c2.5-.146 4.943-.363 7.33-.646 4.772-.567 9.32-1.397 13.646-2.454 8.652-2.115 16.42-5.135 23.343-8.76 13.844-7.249 24.303-16.914 31.679-26.58 7.376-9.665 11.669-19.33 16.265-26.579 1.149-1.812 2.317-3.473 3.556-4.946a26.835 26.835 0 0 1 1.92-2.062 22.15 22.15 0 0 1 1.013-.916l.258-.215"/><path fill="#666" stroke="#666" stroke-width="2" stroke-linecap="butt" d="M293.105 277.859a3.29 3.29 0 1 1 6.577-.189 3.29 3.29 0 0 1-6.577.189z"/><path fill="#666" stroke="#666" stroke-width="2" stroke-linecap="butt" d="M399.872 207.627l7.487-6.102-9.657-.138z" fill-rule="evenodd"/></g></svg>