<svg viewBox="0 0 960 540" fill="none" stroke-linecap="square" stroke-miterlimit="10" xmlns="http://www.w3.org/2000/svg"><clipPath id="a"><path d="M0 0h960v540H0V0z"/></clipPath><g clip-path="url(#a)"><path fill="#fff" d="M0 0h960v540H0z" fill-rule="evenodd"/><path fill="none" d="M23.789 43.01h729.48v303.623H23.79z"/><path fill="#673ab7" d="M45.93 67.504q-.016.906-.173 1.843-.14.938-.453 1.813-.297.86-.765 1.61-.469.75-1.125 1.312-.657.562-1.516.89-.844.313-1.906.313-1.047 0-1.906-.313-.844-.328-1.5-.89-.657-.563-1.141-1.313-.469-.765-.781-1.625-.313-.875-.469-1.797-.156-.937-.156-1.843V65.55q0-.906.14-1.828.157-.937.47-1.797.312-.875.78-1.625.485-.765 1.141-1.328.656-.578 1.5-.89.844-.328 1.906-.328 1.047 0 1.906.328.86.312 1.516.875.656.562 1.125 1.328.484.75.781 1.625.313.86.453 1.797.157.937.172 1.843v1.954zm-2.141-1.97q-.016-.609-.094-1.265-.063-.672-.234-1.312-.172-.657-.454-1.25-.28-.594-.703-1.047-.422-.453-1-.703-.562-.266-1.328-.266-.75 0-1.328.266-.578.265-1 .718-.422.454-.703 1.047-.281.594-.453 1.25-.156.641-.235 1.313-.078.656-.093 1.25v1.969q.015.593.093 1.265.079.672.25 1.328.172.641.454 1.235.28.593.703 1.047.422.453 1 .734.578.266 1.328.266.765 0 1.344-.266.578-.281 1-.734.421-.454.687-1.032.281-.593.453-1.25.172-.656.235-1.312.062-.672.078-1.281v-1.97zm16.183 3.313q0 1.36-.328 2.547-.328 1.172-.969 2.047-.625.86-1.562 1.36-.922.484-2.125.484-1.219 0-2.125-.438-.89-.437-1.516-1.234l-.11 1.437h-2v-18h2.173v6.672q.625-.765 1.5-1.172.875-.421 2.047-.421 1.218 0 2.156.484.937.484 1.562 1.344.641.843.97 2.047.327 1.187.327 2.593v.25zm-2.156-.25q0-.922-.187-1.75-.188-.843-.594-1.484-.39-.64-1.031-1.016-.641-.375-1.579-.375-.562 0-1.03.157-.47.14-.845.406-.359.265-.656.625-.281.344-.484.765v5.547q.219.422.5.782.281.359.656.625.375.265.844.421.469.141 1.031.141.89 0 1.531-.36.64-.374 1.047-1 .406-.64.594-1.468.203-.844.203-1.766v-.25zm7.277-6.234H71.5v12.766q0 1.218-.344 2.156-.328.937-.969 1.578-.64.64-1.562.969-.907.343-2.078.343-.672 0-1.25-.046-.579-.032-1.235-.157l.156-1.78q.204.03.5.062.313.03.625.046.313.016.594.016.281.016.453.016.61 0 1.14-.157.548-.156.938-.53.407-.376.625-1 .235-.61.235-1.516V64.254h-4.235v-1.891zm3.938-3.328q0-.531.312-.89.313-.376.97-.376.655 0 .984.375.328.36.328.89 0 .516-.328.876-.329.36-.985.36-.656 0-.969-.36-.312-.36-.312-.875zm14.605 16.25q-1.328 0-2.453-.453-1.125-.469-1.922-1.282-.797-.828-1.25-1.953-.437-1.125-.437-2.437v-.5q0-1.531.484-2.735.5-1.218 1.313-2.062.828-.844 1.86-1.281 1.03-.453 2.124-.453 1.375 0 2.39.484 1.032.469 1.704 1.312.687.829 1.015 1.97.344 1.14.344 2.468v.969h-9.062q.031.86.328 1.625.312.765.828 1.343.516.563 1.234.891.735.328 1.625.328 1.157 0 2.047-.469.906-.468 1.516-1.25l1.312 1.032q-.312.484-.797.922-.468.437-1.093.78-.61.345-1.407.548-.78.203-1.703.203zm-.28-11.375q-.657 0-1.25.25-.579.234-1.048.703-.469.453-.797 1.14-.312.672-.437 1.547h6.812v-.171q-.03-.625-.234-1.25-.203-.625-.61-1.11-.39-.5-1-.797-.609-.312-1.437-.312zm14.48 9.61q.593 0 1.14-.188.563-.188 1-.516.438-.328.688-.781.265-.453.281-.985h2.047q0 .844-.438 1.61-.422.765-1.14 1.36-.719.577-1.64.921-.923.344-1.938.344-1.438 0-2.516-.516-1.078-.515-1.797-1.39-.719-.875-1.094-2.016-.359-1.14-.359-2.406v-.5q0-1.25.36-2.39.374-1.157 1.093-2.032t1.797-1.39q1.078-.516 2.516-.516 1.125 0 2.062.359.953.36 1.64.984.688.61 1.063 1.453.39.844.39 1.797h-2.046q-.016-.562-.25-1.078-.234-.515-.656-.89-.407-.391-.985-.61-.562-.234-1.218-.234-1 0-1.688.406-.687.406-1.11 1.063-.421.64-.609 1.453-.172.812-.172 1.625v.5q0 .828.172 1.64.188.813.594 1.47.422.655 1.11 1.062.687.39 1.703.39zm14.136-14.22v3.063h4.828v1.687h-4.828v6.891q0 .734.188 1.219.187.469.515.765.329.282.75.407.438.11.922.11.344 0 .72-.032.374-.047.733-.11.36-.062.672-.125.313-.062.5-.109l.313 1.531q-.266.172-.656.297-.391.125-.844.203-.453.094-.969.141-.516.047-1.016.047-.843 0-1.578-.235-.734-.25-1.28-.765-.532-.531-.845-1.344-.297-.828-.297-2v-6.89h-3.328v-1.688h3.328V59.3h2.172z"/><path fill="#e67c73" d="M125.015 73.644q0-.36.11-.656.109-.313.312-.531.219-.235.531-.36.329-.125.75-.125.422 0 .735.125.328.125.547.36.218.219.328.531.11.297.11.656 0 .344-.11.64-.11.298-.328.516-.22.22-.547.344-.313.125-.735.125-.421 0-.75-.125-.312-.125-.53-.344-.204-.218-.313-.515-.11-.297-.11-.64z"/><path fill="#000" d="M146.34 68.847q0 1.36-.329 2.547-.328 1.172-.968 2.047-.625.86-1.563 1.36-.922.484-2.11.484-1.171 0-2.062-.375-.875-.375-1.5-1.078v6.093h-2.172V62.363h1.985l.093 1.39q.641-.78 1.532-1.203.906-.421 2.078-.421 1.219 0 2.156.484.938.484 1.563 1.344.64.843.968 2.047.328 1.187.328 2.593v.25zm-2.157-.25q0-.922-.219-1.75-.203-.843-.625-1.484-.421-.64-1.078-1.016-.656-.375-1.578-.375-1.047 0-1.75.485-.703.484-1.125 1.25v6.11q.422.75 1.125 1.233.703.47 1.781.47.891 0 1.547-.376.657-.39 1.078-1.031.422-.656.625-1.5.22-.844.22-1.766v-.25zm14.168-6.468q.313 0 .64.03.329.016.626.063.297.032.547.094.25.047.422.125l-.297 2.125q-.625-.14-1.203-.203-.563-.078-1.188-.078-1.516 0-2.469.703-.937.687-1.39 1.922v8.14h-2.172V62.363h2.062l.11 2.016q.765-1.032 1.843-1.641 1.094-.61 2.47-.61zm5.496 6.468q0-1.375.39-2.547.407-1.187 1.142-2.046.75-.875 1.812-1.375 1.063-.5 2.406-.5 1.344 0 2.407.5 1.078.5 1.828 1.375.75.859 1.14 2.046.407 1.172.407 2.547v.25q0 1.375-.407 2.547-.39 1.172-1.14 2.047-.75.86-1.813 1.36-1.062.484-2.406.484t-2.422-.485q-1.062-.5-1.812-1.359-.735-.875-1.141-2.047-.39-1.172-.39-2.547v-.25zm2.157.25q0 .938.218 1.797.235.844.688 1.485.453.64 1.125 1.015.687.375 1.578.375.89 0 1.562-.375.688-.375 1.125-1.015.454-.641.672-1.485.235-.86.235-1.797v-.25q0-.937-.235-1.78-.218-.845-.672-1.485-.453-.657-1.125-1.032-.671-.39-1.578-.39-.906 0-1.578.39-.656.375-1.11 1.032-.452.64-.687 1.484-.218.844-.218 1.781v.25zm17.98-9.547v3.063h4.828v1.687h-4.828v6.891q0 .734.188 1.219.187.469.515.765.328.282.75.407.438.11.922.11.344 0 .719-.032.375-.047.734-.11.36-.062.672-.125.313-.062.5-.109l.313 1.531q-.266.172-.657.297-.39.125-.843.203-.454.094-.97.141-.515.047-1.015.047-.844 0-1.578-.235-.734-.25-1.281-.765-.531-.531-.844-1.344-.297-.828-.297-2v-6.89h-3.328v-1.688h3.328V59.3h2.172zm8.668 9.297q0-1.375.39-2.547.407-1.187 1.141-2.046.75-.875 1.813-1.375 1.062-.5 2.406-.5t2.406.5q1.078.5 1.828 1.375.75.859 1.141 2.046.406 1.172.406 2.547v.25q0 1.375-.406 2.547-.39 1.172-1.14 2.047-.75.86-1.813 1.36-1.063.484-2.406.484-1.344 0-2.422-.485-1.063-.5-1.813-1.359-.734-.875-1.14-2.047-.391-1.172-.391-2.547v-.25zm2.156.25q0 .938.219 1.797.234.844.688 1.485.453.64 1.125 1.015.687.375 1.578.375.89 0 1.562-.375.688-.375 1.125-1.015.453-.641.672-1.485.234-.86.234-1.797v-.25q0-.937-.234-1.78-.219-.845-.672-1.485-.453-.657-1.125-1.032-.672-.39-1.578-.39t-1.578.39q-.656.375-1.11 1.032-.453.64-.687 1.484-.219.844-.219 1.781v.25zm17.98-9.547v3.063h4.829v1.687h-4.828v6.891q0 .734.187 1.219.188.469.516.765.328.282.75.407.437.11.922.11.343 0 .718-.032.375-.047.735-.11.36-.062.672-.125.312-.062.5-.109l.312 1.531q-.265.172-.656.297-.39.125-.844.203-.453.094-.969.141-.515.047-1.015.047-.844 0-1.578-.235-.735-.25-1.282-.765-.53-.531-.843-1.344-.297-.828-.297-2v-6.89h-3.328v-1.688h3.328V59.3h2.172zm13.934 11.25l.563 1.532 3.875-9.719h2.422l-6.438 14.64q-.219.5-.562 1.047-.344.547-.844 1.016-.484.469-1.14.781-.657.328-1.516.328-.157 0-.344-.015-.188-.016-.375-.047-.188-.031-.36-.078-.156-.031-.265-.047l.36-1.766h.218l.297.032q.156.015.297.015h.219q.437 0 .812-.25.375-.234.656-.578.282-.344.485-.703.218-.36.328-.594l.875-1.687-5.469-12.094h2.422l3.484 8.187zm20.434-1.703q0 1.36-.328 2.547-.328 1.172-.969 2.047-.625.86-1.562 1.36-.922.484-2.11.484-1.172 0-2.062-.375-.875-.375-1.5-1.078v6.093h-2.172V62.363h1.984l.094 1.39q.64-.78 1.531-1.203.906-.421 2.078-.421 1.219 0 2.157.484.937.484 1.562 1.344.64.843.969 2.047.328 1.187.328 2.593v.25zm-2.156-.25q0-.922-.22-1.75-.202-.843-.624-1.484-.422-.64-1.078-1.016-.656-.375-1.578-.375-1.047 0-1.75.485-.703.484-1.125 1.25v6.11q.422.75 1.125 1.233.703.47 1.78.47.892 0 1.548-.376.656-.39 1.078-1.031.422-.656.625-1.5.219-.844.219-1.766v-.25zm11.465 6.688q-1.329 0-2.454-.453-1.125-.469-1.921-1.282-.797-.828-1.25-1.953-.438-1.125-.438-2.437v-.5q0-1.531.484-2.735.5-1.218 1.313-2.062.828-.844 1.86-1.281 1.03-.453 2.124-.453 1.375 0 2.39.484 1.032.469 1.704 1.312.688.829 1.016 1.97.343 1.14.343 2.468v.969h-9.062q.031.86.328 1.625.313.765.828 1.343.516.563 1.235.891.734.328 1.625.328 1.156 0 2.046-.469.907-.468 1.516-1.25l1.313 1.032q-.313.484-.797.922-.47.437-1.094.78-.61.345-1.406.548-.782.203-1.703.203zm-.282-11.375q-.656 0-1.25.25-.578.234-1.047.703-.468.453-.796 1.14-.313.672-.438 1.547h6.813v-.171q-.032-.625-.235-1.25-.203-.625-.61-1.11-.39-.5-1-.797-.609-.312-1.437-.312z"/><path fill="#e67c73" d="M269.039 73.644q0-.36.11-.656.108-.313.312-.531.218-.235.53-.36.329-.125.75-.125.423 0 .735.125.328.125.547.36.219.219.328.531.11.297.11.656 0 .344-.11.64-.11.298-.328.516-.219.22-.547.344-.312.125-.734.125t-.75-.125q-.313-.125-.531-.344-.204-.218-.313-.515-.11-.297-.11-.64z"/><path fill="#000" d="M284.91 67.066l3.39-4.703h2.532l-4.72 6.281 4.86 6.406h-2.515l-3.5-4.828-3.5 4.828h-2.532l4.844-6.406-4.719-6.281h2.5l3.36 4.703z"/><path fill="#e67c73" d="M318.933 65.91h-10.468v-1.89h10.468v1.89zm0 4.86h-10.468v-1.876h10.468v1.875z"/><path fill="#db4437" d="M346.066 69.316h2.375v1.766h-2.375v3.968h-2.172v-3.968h-7.781v-1.266l7.64-11.828h2.313v11.328zm-7.547 0h5.375v-8.453l-.344.656-5.03 7.797zm23.621 5.734h-11.172v-1.562l5.594-6.203q.75-.844 1.25-1.485.5-.64.797-1.187.313-.547.438-1.031.14-.485.14-1 0-.64-.219-1.188-.203-.562-.593-.969-.391-.406-.953-.64-.547-.25-1.25-.25-.86 0-1.485.25-.625.234-1.047.687-.406.453-.625 1.11-.203.64-.203 1.437h-2.172q0-1.078.375-2.031.375-.969 1.078-1.672.72-.719 1.735-1.14 1.031-.422 2.344-.422 1.203 0 2.171.359.97.36 1.625 1 .672.625 1.032 1.5.359.86.359 1.875 0 .766-.266 1.516-.25.734-.687 1.468-.438.72-1.016 1.438-.578.703-1.234 1.406l-4.578 4.969h8.562v1.765z"/><path fill="#e67c73" d="M369.855 63.644q0-.36.11-.656.109-.313.312-.531.219-.235.531-.36.328-.125.75-.125t.735.125q.328.125.547.36.218.218.328.531.109.297.109.656 0 .344-.11.64-.109.298-.327.516-.22.22-.547.344-.313.125-.735.125t-.75-.125q-.312-.125-.531-.344-.203-.218-.312-.515-.11-.297-.11-.64zm3.719 10.907q0 .546-.14 1.14-.126.61-.391 1.203-.266.594-.641 1.125-.375.547-.86.969l-1.343-.734q.562-.829.797-1.75.234-.922.234-1.922v-2.094h2.344v2.063z"/><path fill="#34a853" d="M360.588 168.549c0-6.283 5.093-11.376 11.375-11.376H538.19a11.376 11.376 0 0 1 11.375 11.376v45.5c0 6.283-5.093 11.376-11.375 11.376H371.963c-6.282 0-11.375-5.093-11.375-11.375z" fill-rule="evenodd"/><path stroke="#666" stroke-linejoin="round" stroke-linecap="butt" d="M360.588 168.549c0-6.283 5.093-11.376 11.375-11.376H538.19a11.376 11.376 0 0 1 11.375 11.376v45.5c0 6.283-5.093 11.376-11.375 11.376H371.963c-6.282 0-11.375-5.093-11.375-11.375z"/><path fill="#fff" d="M388.13 187.38h-1.985v-4.516h-2.953v4.515h-2v-10.422h2v4.282h2.953v-4.282h1.985v10.422zm9.576-8.782h-3.219v8.781h-2.015v-8.781H389.3v-1.64h8.406v1.64zm3.608-1.64l.984 3.921 1.125-3.922h2.5v10.422h-1.844v-3.078l.078-4.875-1.359 4.516h-1l-1.219-4.328.078 4.687v3.078h-1.843v-10.422h2.5zm8.482 8.796h4.875v1.625h-6.89v-10.422h2.015v8.797zm11.764-.547h-3.125l-.625 2.172h-2.11l3.407-10.422h1.828l3.344 10.422h-2.11l-.609-2.172zm-2.64-1.718h2.172l-1.079-3.829-1.093 3.829zm8.185-3.86l.125 1.078q.407-.578 1-.89.594-.328 1.329-.328.578 0 1.062.171.484.172.844.547.36.375.547.97.203.593.203 1.437v4.765h-1.985v-4.734q0-.469-.109-.766-.11-.297-.297-.469-.187-.171-.469-.234-.265-.062-.609-.062-.516 0-.875.203-.344.203-.578.562v5.5h-1.984v-7.75h1.796zm10.42 6.297q.298 0 .563-.078.266-.094.453-.25.203-.156.313-.375.11-.219.11-.484h1.874q0 .593-.265 1.109-.25.516-.704.89-.453.376-1.046.594-.594.203-1.266.203-.89 0-1.578-.296-.672-.313-1.14-.844-.454-.531-.688-1.235-.22-.718-.22-1.53v-.22q0-.812.22-1.53.234-.72.687-1.235.469-.531 1.14-.844.673-.312 1.563-.312.719 0 1.328.218.61.22 1.047.61.438.39.672.953.25.547.25 1.234h-1.875q0-.297-.094-.547-.093-.265-.296-.437-.188-.188-.47-.297-.265-.125-.577-.125-.485 0-.797.203-.297.188-.485.516-.171.312-.25.734-.078.406-.078.86v.218q0 .438.063.86.078.421.25.75.187.312.5.5.312.187.797.187zm7.358-5.219q.391-.578.938-.89.562-.328 1.25-.328.61 0 1.11.187.515.188.874.578.36.375.563.985.203.609.203 1.453v4.687h-1.985v-4.703q0-.406-.109-.703-.094-.313-.297-.5-.187-.188-.469-.266-.265-.093-.609-.093-.5 0-.875.187-.36.172-.594.484v5.594H442.9v-11h1.984v4.328zm6.53 2.735q0-.844.234-1.563.25-.719.719-1.25t1.14-.828q.688-.312 1.563-.312t1.547.312q.688.297 1.156.828.469.531.703 1.25.25.719.25 1.563v.14q0 .86-.25 1.578-.234.72-.703 1.25-.468.532-1.156.829-.672.296-1.531.296-.875 0-1.563-.296-.687-.297-1.156-.829-.469-.53-.719-1.25-.234-.718-.234-1.578v-.14zm2 .14q0 .485.078.922.094.422.297.75.203.313.516.5.328.172.78.172.438 0 .75-.172.313-.187.5-.5.204-.328.298-.75.093-.437.093-.922v-.14q0-.485-.093-.907-.094-.421-.297-.734-.188-.328-.5-.516-.313-.187-.766-.187t-.765.187q-.313.188-.516.516-.203.313-.297.734-.078.422-.078.907v.14zm12.623-4.093q.453 0 .828.062.39.063.625.14l-.28 1.985q-.407-.094-.813-.14-.407-.047-.782-.047-.843 0-1.343.328-.5.312-.75.906v4.656h-2v-7.75h1.859l.094 1.281q.468-.671 1.125-1.046.672-.375 1.437-.375zm9.577 3.328h-4.282v2.937h5.016v1.625h-7.031v-10.422h7v1.641h-4.985v2.625h4.282v1.594zm2.873-6.438h4.328v9.375h2.219v1.625h-6.547v-1.625h2.328v-7.75h-2.328v-1.625zm12.139 11.14q-.89 0-1.625-.28-.734-.297-1.266-.797-.515-.516-.797-1.188-.28-.687-.28-1.469v-.296q0-.875.28-1.61.282-.734.782-1.265.5-.532 1.187-.829.688-.296 1.5-.296.828 0 1.485.28.656.282 1.109.782.453.5.687 1.203.25.703.25 1.547v.844h-5.265q.062.406.234.734.188.313.453.563.266.234.61.36.359.124.78.124.298 0 .579-.047.297-.062.563-.172.265-.125.484-.28.234-.173.406-.392l1 1.079q-.187.265-.484.515t-.703.453q-.407.203-.907.313-.484.125-1.062.125zm-.234-6.421q-.344 0-.625.125-.266.11-.485.344-.203.218-.36.531-.14.297-.202.687h3.265v-.171q-.015-.313-.125-.579-.11-.28-.312-.484-.203-.219-.5-.328-.281-.125-.656-.125zm6.513-1.469l.047.938q.235-.5.625-.782.39-.296.938-.296.937 0 1.234.828.219-.39.578-.61.36-.218.86-.218.343 0 .64.14.313.125.532.406.234.282.359.735.125.437.125 1.078v5.531h-1.813v-5.531q0-.219-.046-.36-.047-.156-.125-.234-.079-.078-.188-.11-.094-.03-.203-.03-.203 0-.36.093-.14.094-.218.266v5.906h-1.75v-5.531q0-.234-.047-.375-.031-.14-.11-.219-.078-.078-.187-.11-.094-.03-.203-.03-.234 0-.375.125-.14.125-.219.343v5.797h-1.812v-7.75h1.718zm11.311 7.89q-.89 0-1.625-.28-.734-.297-1.265-.797-.516-.516-.797-1.188-.282-.687-.282-1.469v-.296q0-.875.282-1.61.281-.734.781-1.265.5-.532 1.187-.829.688-.296 1.5-.296.829 0 1.485.28.656.282 1.11.782.452.5.687 1.203.25.703.25 1.547v.844h-5.266q.063.406.234.734.188.313.454.563.265.234.609.36.36.124.781.124.297 0 .578-.047.297-.062.563-.172.265-.125.484-.28.235-.173.406-.392l1 1.079q-.187.265-.484.515t-.703.453q-.406.203-.906.313-.485.125-1.063.125zm-.234-6.421q-.344 0-.625.125-.266.11-.485.344-.203.218-.359.531-.14.297-.203.687h3.266v-.171q-.016-.313-.125-.579-.11-.28-.313-.484-.203-.219-.5-.328-.281-.125-.656-.125zm7.076-1.469l.125 1.078q.407-.578 1-.89.594-.328 1.328-.328.579 0 1.063.171.484.172.844.547.36.375.547.97.203.593.203 1.437v4.765h-1.985v-4.734q0-.469-.11-.766-.108-.297-.296-.469-.187-.171-.469-.234-.265-.062-.61-.062-.515 0-.874.203-.344.203-.578.562v5.5h-1.985v-7.75h1.797zm10.64-1.89v1.89h2.89v1.469h-2.89v3.328q0 .422.093.719.11.281.281.453.172.156.422.234.266.063.578.063.235 0 .469-.016.234-.031.453-.062.219-.032.406-.063.203-.031.328-.078l.204 1.375q-.22.125-.5.219-.266.078-.594.125-.313.062-.656.094-.329.046-.657.046-.64 0-1.156-.171-.516-.172-.89-.516-.376-.36-.579-.906-.187-.547-.187-1.313v-3.531h-1.766v-1.469h1.766v-1.89h1.984zM414.116 204.223q0-.281.094-.516.093-.234.265-.406.188-.187.438-.281.265-.11.593-.11.313 0 .563.11.266.094.437.281.188.172.282.406.093.235.093.516t-.093.516q-.094.234-.282.406-.171.172-.437.265-.25.11-.563.11-.328 0-.593-.11-.25-.093-.438-.265-.172-.172-.265-.406-.094-.235-.094-.516zm13.748-2.64q0 .843-.203 1.562-.187.719-.578 1.25-.375.531-.953.828-.563.297-1.297.297-.61 0-1.094-.203-.469-.219-.812-.61v3.657h-2v-10.735h1.843l.079.766q.359-.422.843-.656.485-.25 1.14-.25.735 0 1.298.28.562.282.953.813.39.516.578 1.25.203.72.203 1.594v.156zm-2-.157q0-.484-.094-.906-.078-.422-.265-.735-.188-.312-.485-.484-.296-.187-.718-.187-.532 0-.86.203-.328.203-.515.578v3.234q.187.36.515.578.328.22.875.22.422 0 .719-.188t.469-.5q.187-.329.265-.75.094-.438.094-.907v-.156zm9.39-3.937q.452 0 .827.062.39.063.625.14l-.281 1.985q-.406-.094-.813-.14-.406-.047-.78-.047-.845 0-1.345.328-.5.312-.75.906v4.656h-2v-7.75h1.86l.094 1.281q.468-.671 1.125-1.046.671-.375 1.437-.375zm2.966 3.953q0-.844.234-1.563.25-.719.72-1.25.468-.531 1.14-.828.687-.312 1.562-.312t1.547.312q.688.297 1.156.828.47.531.704 1.25.25.719.25 1.563v.14q0 .86-.25 1.578-.235.72-.704 1.25-.468.532-1.156.829-.672.296-1.531.296-.875 0-1.563-.296-.687-.297-1.156-.829-.469-.53-.719-1.25-.234-.718-.234-1.578v-.14zm2 .14q0 .485.078.922.094.422.297.75.203.313.516.5.328.172.781.172.437 0 .75-.172.312-.187.5-.5.203-.328.297-.75.094-.437.094-.922v-.14q0-.485-.094-.907-.094-.421-.297-.734-.188-.328-.5-.516-.313-.187-.766-.187t-.765.187q-.313.188-.516.516-.203.313-.297.734-.078.422-.078.907v.14zm10.717-5.843v1.89h2.89v1.469h-2.89v3.328q0 .422.094.719.11.281.281.453.172.156.422.234.266.063.578.063.235 0 .469-.016.234-.031.453-.062.219-.032.406-.063.203-.031.328-.078l.204 1.375q-.22.125-.5.219-.266.078-.594.125-.313.062-.656.094-.329.046-.657.046-.64 0-1.156-.171-.516-.172-.89-.516-.376-.36-.579-.906-.187-.547-.187-1.313v-3.531h-1.766v-1.469h1.766v-1.89h1.984zm4.873 5.703q0-.844.235-1.563.25-.719.719-1.25.468-.531 1.14-.828.688-.312 1.563-.312t1.547.312q.687.297 1.156.828.469.531.703 1.25.25.719.25 1.563v.14q0 .86-.25 1.578-.234.72-.703 1.25-.469.532-1.156.829-.672.296-1.532.296-.875 0-1.562-.296-.688-.297-1.156-.829-.47-.53-.72-1.25-.234-.718-.234-1.578v-.14zm2 .14q0 .485.079.922.093.422.296.75.204.313.516.5.328.172.781.172.438 0 .75-.172.313-.187.5-.5.203-.328.297-.75.094-.437.094-.922v-.14q0-.485-.094-.907-.094-.421-.297-.734-.187-.328-.5-.516-.312-.187-.765-.187t-.766.187q-.312.188-.516.516-.203.313-.296.734-.079.422-.079.907v.14zm10.718-5.843v1.89h2.89v1.469h-2.89v3.328q0 .422.093.719.11.281.282.453.171.156.421.234.266.063.579.063.234 0 .468-.016.235-.031.453-.062.22-.032.407-.063.203-.031.328-.078l.203 1.375q-.219.125-.5.219-.266.078-.594.125-.312.062-.656.094-.328.046-.656.046-.64 0-1.157-.171-.515-.172-.89-.516-.375-.36-.578-.906-.188-.547-.188-1.313v-3.531h-1.765v-1.469h1.765v-1.89h1.985zm8.451 6.39l.219.828 2.062-5.328h2.203l-3.937 8.906q-.125.297-.328.641-.203.344-.516.64-.297.298-.75.485-.437.203-1.031.203-.14 0-.266-.015-.125 0-.234-.032-.11-.015-.235-.047-.109-.015-.234-.046l.25-1.516h.297q.203.016.312.016.235 0 .422-.141.188-.14.313-.313.125-.171.203-.312.078-.14.11-.14l.484-.907-3.282-7.422h2.172l1.766 4.5zm12.451-.547q0 .844-.203 1.563-.187.719-.578 1.25-.375.531-.953.828-.562.297-1.297.297-.61 0-1.094-.203-.468-.219-.812-.61v3.657h-2v-10.735h1.844l.078.766q.36-.422.844-.656.484-.25 1.14-.25.735 0 1.297.28.563.282.953.813.39.516.578 1.25.203.72.203 1.594v.156zm-2-.156q0-.484-.093-.906-.078-.422-.266-.735-.187-.312-.484-.484-.297-.187-.72-.187-.53 0-.858.203-.329.203-.516.578v3.234q.187.36.516.578.328.22.875.22.421 0 .718-.188t.469-.5q.188-.329.266-.75.093-.438.093-.907v-.156zm7.592 4.094q-.89 0-1.625-.281-.734-.297-1.265-.797-.516-.516-.797-1.188-.281-.687-.281-1.469v-.296q0-.875.281-1.61.281-.734.781-1.265.5-.532 1.188-.829.687-.296 1.5-.296.828 0 1.484.28.656.282 1.11.782.453.5.687 1.203.25.703.25 1.547v.844h-5.266q.063.406.235.734.187.313.453.563.265.234.61.36.359.124.78.124.297 0 .579-.047.296-.062.562-.172.266-.125.484-.28.235-.173.407-.392l1 1.079q-.188.265-.485.515t-.703.453q-.406.203-.906.313-.484.125-1.063.125zm-.234-6.422q-.344 0-.625.125-.266.11-.484.344-.203.218-.36.531-.14.297-.203.687h3.266v-.171q-.016-.313-.125-.579-.11-.28-.313-.484-.203-.219-.5-.328-.28-.125-.656-.125z"/><path fill="#34a853" d="M360.588 286.03c0-6.283 5.093-11.376 11.375-11.376H538.19a11.376 11.376 0 0 1 11.375 11.375v45.501c0 6.282-5.093 11.376-11.375 11.376H371.963c-6.282 0-11.375-5.094-11.375-11.376z" fill-rule="evenodd"/><path stroke="#666" stroke-linejoin="round" stroke-linecap="butt" d="M360.588 286.03c0-6.283 5.093-11.376 11.375-11.376H538.19a11.376 11.376 0 0 1 11.375 11.375v45.501c0 6.282-5.093 11.376-11.375 11.376H371.963c-6.282 0-11.375-5.094-11.375-11.376z"/><path fill="#fff" d="M403.454 304.7h-2.532v-5.75h-3.765v5.75h-2.532v-13.266h2.532v5.437h3.765v-5.437h2.532V304.7zm12.18-11.172h-4.094V304.7h-2.563v-11.172h-4.031v-2.094h10.688v2.094zm4.601-2.094l1.25 4.984 1.422-4.984h3.188V304.7h-2.344v-3.922l.11-6.203-1.75 5.75h-1.266l-1.563-5.516.11 5.969v3.922h-2.344v-13.266h3.187zm10.79 11.203h6.203v2.063h-8.781v-13.266h2.578v11.203zm16.617-3.75h-5.453v3.75h6.375v2.063h-8.938v-13.266h8.907v2.094h-6.344v3.343h5.453v2.016zm3.649-8.187h5.515v11.937h2.813v2.063h-8.328v-2.063h2.953v-9.86h-2.953V290.7zm15.445 14.187q-1.14 0-2.078-.375-.922-.375-1.593-1.016-.657-.64-1.016-1.515-.36-.875-.36-1.86v-.375q0-1.125.36-2.046.36-.938.984-1.61.64-.687 1.516-1.047.875-.375 1.906-.375 1.063 0 1.89.344.845.344 1.423.984.578.641.875 1.547.312.89.312 1.969v1.078h-6.687q.062.5.28.922.235.406.579.719.344.297.781.469.453.156.985.156.375 0 .734-.078.375-.078.703-.22.344-.14.64-.343.298-.219.516-.5l1.266 1.375q-.234.328-.625.656-.375.329-.89.579-.516.25-1.141.406-.625.156-1.36.156zm-.296-8.172q-.422 0-.782.156-.36.141-.625.422-.265.282-.453.672-.187.39-.265.875h4.14v-.203q-.015-.39-.156-.75-.125-.36-.39-.61-.25-.265-.626-.406-.36-.156-.843-.156zm8.289-1.875l.078 1.203q.281-.64.766-1 .5-.375 1.218-.375 1.188 0 1.563 1.047.281-.5.734-.765.453-.282 1.094-.282.437 0 .828.172.39.156.672.516.297.36.453.922.156.562.156 1.39v7.032h-2.312v-7.047q0-.282-.063-.453-.047-.188-.156-.282-.094-.11-.234-.156-.125-.047-.266-.047-.266 0-.453.125-.172.125-.266.328v7.532h-2.234v-7.047q0-.282-.063-.47-.046-.187-.14-.28-.094-.094-.235-.141-.125-.047-.265-.047-.297 0-.469.172-.172.156-.281.438v7.375h-2.297v-9.86h2.172zm14.399 10.047q-1.141 0-2.079-.375-.921-.375-1.593-1.016-.657-.64-1.016-1.515-.36-.875-.36-1.86v-.375q0-1.125.36-2.046.36-.938.984-1.61.641-.687 1.516-1.047.875-.375 1.906-.375 1.063 0 1.89.344.845.344 1.423.984.578.641.875 1.547.312.89.312 1.969v1.078h-6.687q.062.5.281.922.234.406.578.719.344.297.781.469.454.156.985.156.375 0 .734-.078.375-.078.703-.22.344-.14.64-.343.298-.219.517-.5l1.265 1.375q-.234.328-.625.656-.375.329-.89.579-.516.25-1.141.406-.625.156-1.36.156zm-.297-8.172q-.422 0-.782.156-.359.141-.625.422-.265.282-.453.672-.187.39-.265.875h4.14v-.203q-.015-.39-.156-.75-.125-.36-.39-.61-.25-.265-.626-.406-.359-.156-.843-.156zm9.008-1.875l.156 1.375q.531-.75 1.281-1.14.766-.407 1.688-.407.734 0 1.36.219.624.219 1.062.703.453.469.703 1.219.25.75.25 1.828v6.063h-2.532v-6.032q0-.578-.14-.953-.125-.39-.375-.61-.235-.218-.578-.296-.344-.094-.782-.094-.656 0-1.109.266-.453.265-.734.719v7h-2.547v-9.86h2.297zm13.555-2.406v2.406h3.672v1.875h-3.672v4.235q0 .53.109.89.125.36.344.578.234.219.562.313.328.078.719.078.297 0 .594-.016.312-.031.594-.062.28-.047.515-.094.25-.047.422-.094l.234 1.735q-.25.156-.609.28-.36.11-.766.173-.39.078-.828.11-.437.046-.843.046-.813 0-1.485-.203-.656-.219-1.125-.672-.469-.453-.734-1.14-.25-.704-.25-1.672v-4.485h-2.25v-1.875h2.25v-2.406h2.547zM402.942 325.23q0-.359.11-.655.124-.313.343-.532.235-.218.563-.343.328-.141.75-.141.406 0 .734.14.328.126.547.344.219.219.344.532.125.296.125.656 0 .344-.125.656-.125.297-.344.516-.219.218-.547.343-.328.141-.734.141-.422 0-.75-.14-.328-.126-.563-.344-.219-.22-.344-.516-.109-.312-.109-.656zm17.492-3.374q0 1.078-.25 2-.25.922-.75 1.594-.484.671-1.203 1.062-.718.375-1.64.375-.797 0-1.407-.266-.593-.28-1.03-.78v4.655h-2.532V316.84h2.328l.094.969q.453-.547 1.078-.844.625-.297 1.453-.297.938 0 1.656.36.72.359 1.203 1.015.5.657.75 1.578.25.922.25 2.047v.188zm-2.53-.188q0-.61-.126-1.156-.11-.547-.36-.937-.234-.407-.609-.625-.375-.235-.906-.235-.672 0-1.094.266-.421.265-.656.734v4.11q.235.468.656.75.422.28 1.11.28.531 0 .906-.234.39-.25.625-.656.234-.406.344-.953.11-.547.11-1.156v-.188zm11.945-5q.578 0 1.062.078.485.063.797.157l-.375 2.53q-.5-.124-1.031-.171-.516-.062-1-.062-1.063 0-1.703.406-.64.406-.969 1.172v5.922h-2.531v-9.86h2.36l.124 1.61q.594-.829 1.438-1.297.843-.485 1.828-.485zm3.773 5.016q0-1.078.313-1.984.312-.922.906-1.594.594-.688 1.453-1.063.86-.375 1.97-.375 1.124 0 1.983.375.86.375 1.454 1.063.609.672.906 1.594.312.906.312 1.984v.187q0 1.079-.312 2-.297.922-.89 1.594-.595.672-1.47 1.047-.859.375-1.953.375-1.125 0-2-.375-.859-.375-1.453-1.047-.594-.672-.906-1.594-.313-.921-.313-2v-.187zm2.532.187q0 .625.11 1.172.124.532.374.938.266.406.672.64.406.235.984.235.547 0 .938-.235.406-.234.656-.64t.375-.938q.125-.547.125-1.172v-.187q0-.61-.125-1.14-.125-.548-.375-.954-.25-.406-.656-.64-.39-.235-.969-.235-.562 0-.969.235-.39.234-.656.64-.25.406-.375.953-.11.532-.11 1.14v.188zm13.664-7.437v2.406h3.672v1.875h-3.672v4.235q0 .53.11.89.124.36.343.578.235.219.563.313.328.078.718.078.297 0 .594-.016.313-.031.594-.062.281-.047.516-.094.25-.047.421-.094l.235 1.735q-.25.156-.61.28-.359.11-.765.173-.39.078-.828.11-.438.046-.844.046-.813 0-1.484-.203-.657-.219-1.125-.672-.47-.453-.735-1.14-.25-.704-.25-1.672v-4.485h-2.25v-1.875h2.25v-2.406h2.547zm6.196 7.25q0-1.078.312-1.984.313-.922.906-1.594.594-.688 1.453-1.063.86-.375 1.97-.375 1.124 0 1.984.375.859.375 1.453 1.063.61.672.906 1.594.312.906.312 1.984v.187q0 1.079-.312 2-.297.922-.89 1.594-.594.672-1.47 1.047-.859.375-1.953.375-1.125 0-2-.375-.859-.375-1.453-1.047-.593-.672-.906-1.594-.312-.921-.312-2v-.187zm2.53.187q0 .625.11 1.172.125.532.375.938.266.406.672.64.406.235.984.235.547 0 .938-.235.406-.234.656-.64t.375-.938q.125-.547.125-1.172v-.187q0-.61-.125-1.14-.125-.548-.375-.954-.25-.406-.656-.64-.39-.235-.969-.235-.562 0-.969.235-.39.234-.656.64-.25.406-.375.953-.11.532-.11 1.14v.188zm13.665-7.437v2.406h3.672v1.875h-3.672v4.235q0 .53.11.89.125.36.343.578.235.219.563.313.328.078.719.078.296 0 .593-.016.313-.031.594-.062.281-.047.516-.094.25-.047.422-.094l.234 1.735q-.25.156-.61.28-.359.11-.765.173-.39.078-.828.11-.438.046-.844.046-.812 0-1.484-.203-.657-.219-1.125-.672-.469-.453-.735-1.14-.25-.704-.25-1.672v-4.485h-2.25v-1.875h2.25v-2.406h2.547zm10.743 8.125l.297 1.062 2.625-6.78h2.796l-5.015 11.327q-.156.375-.422.813-.25.437-.64.812-.391.375-.954.625-.562.266-1.328.266-.187 0-.344-.016-.156-.015-.297-.047-.14-.015-.28-.046-.141-.032-.313-.079l.312-1.921h.39q.25.015.391.015.297 0 .532-.187.234-.172.39-.391.172-.219.266-.406.11-.172.14-.172l.61-1.156-4.172-9.438h2.781l2.235 5.719zm15.851-.703q0 1.078-.25 2-.25.922-.75 1.594-.484.671-1.203 1.062-.718.375-1.64.375-.797 0-1.407-.266-.593-.28-1.03-.78v4.655h-2.532V316.84h2.328l.094.969q.453-.547 1.078-.844.625-.297 1.453-.297.938 0 1.656.36.72.359 1.203 1.015.5.657.75 1.578.25.922.25 2.047v.188zm-2.53-.188q0-.61-.126-1.156-.11-.547-.36-.937-.234-.407-.609-.625-.375-.235-.906-.235-.672 0-1.094.266-.421.265-.656.734v4.11q.235.468.656.75.422.28 1.11.28.531 0 .906-.234.39-.25.625-.656.234-.406.344-.953.11-.547.11-1.156v-.188zm9.648 5.219q-1.14 0-2.078-.375-.922-.375-1.594-1.016-.656-.64-1.016-1.515-.359-.875-.359-1.86v-.375q0-1.125.36-2.046.359-.938.984-1.61.64-.687 1.515-1.047.875-.375 1.907-.375 1.062 0 1.89.344.844.344 1.422.984.578.641.875 1.547.313.89.313 1.969v1.078h-6.688q.063.5.281.922.235.406.579.719.343.297.78.469.454.156.985.156.375 0 .735-.078.375-.078.703-.22.343-.14.64-.343.297-.219.516-.5l1.266 1.375q-.235.328-.625.656-.375.329-.891.579-.516.25-1.14.406-.626.156-1.36.156zm-.297-8.172q-.422 0-.781.156-.36.141-.625.422-.266.282-.453.672-.188.39-.266.875h4.14v-.203q-.015-.39-.156-.75-.125-.36-.39-.61-.25-.265-.625-.406-.36-.156-.844-.156z"/><path fill="#34a853" d="M360.62 403.51c0-6.283 5.092-11.376 11.375-11.376H538.22a11.375 11.375 0 0 1 11.376 11.375v45.501c0 6.283-5.093 11.376-11.376 11.376H371.995c-6.283 0-11.376-5.093-11.376-11.376z" fill-rule="evenodd"/><path stroke="#666" stroke-linejoin="round" stroke-linecap="butt" d="M360.62 403.51c0-6.283 5.092-11.376 11.375-11.376H538.22a11.375 11.375 0 0 1 11.376 11.375v45.501c0 6.283-5.093 11.376-11.376 11.376H371.995c-6.283 0-11.376-5.093-11.376-11.376z"/><path fill="#fff" d="M425.282 416.367h-5.453v3.75h6.375v2.063h-8.937v-13.266h8.906v2.094h-6.344v3.344h5.453v2.015zm3.65-8.187h5.515v11.937h2.812v2.063h-8.328v-2.063h2.953v-9.859h-2.953v-2.078zm15.445 14.187q-1.14 0-2.078-.375-.922-.375-1.594-1.015-.656-.64-1.016-1.516-.36-.875-.36-1.86v-.374q0-1.125.36-2.047.36-.938.985-1.61.64-.687 1.515-1.046.875-.375 1.906-.375 1.063 0 1.891.343.844.344 1.422.985.578.64.875 1.547.312.89.312 1.968v1.078h-6.687q.062.5.281.922.235.407.578.72.344.296.782.468.453.156.984.156.375 0 .734-.078.375-.078.703-.219.344-.14.641-.344.297-.218.516-.5l1.265 1.375q-.234.329-.625.657-.375.328-.89.578-.516.25-1.14.406-.626.156-1.36.156zm-.297-8.172q-.422 0-.781.157-.36.14-.625.422-.266.28-.454.671-.187.391-.265.875h4.14v-.203q-.015-.39-.156-.75-.125-.359-.39-.609-.25-.266-.625-.406-.36-.157-.844-.157zm8.29-1.875l.077 1.204q.282-.641.766-1 .5-.375 1.219-.375 1.187 0 1.562 1.046.281-.5.735-.765.453-.281 1.093-.281.438 0 .828.171.391.157.672.516.297.36.453.922.157.562.157 1.39v7.032h-2.313v-7.047q0-.281-.062-.453-.047-.188-.157-.281-.093-.11-.234-.157-.125-.047-.266-.047-.265 0-.453.125-.172.125-.265.329v7.53h-2.235v-7.046q0-.281-.062-.469-.047-.187-.14-.281-.095-.094-.235-.14-.125-.048-.266-.048-.297 0-.469.172-.171.157-.28.438v7.375h-2.298v-9.86h2.172zm14.398 10.047q-1.14 0-2.078-.375-.922-.375-1.594-1.015-.656-.64-1.016-1.516-.359-.875-.359-1.86v-.374q0-1.125.36-2.047.359-.938.984-1.61.64-.687 1.515-1.046.875-.375 1.907-.375 1.062 0 1.89.343.844.344 1.422.985.578.64.875 1.547.313.89.313 1.968v1.078h-6.688q.063.5.281.922.235.407.579.72.343.296.78.468.454.156.985.156.375 0 .735-.078.375-.078.703-.219.343-.14.64-.344.297-.218.516-.5l1.266 1.375q-.235.329-.625.657-.375.328-.891.578-.516.25-1.14.406-.626.156-1.36.156zm-.297-8.172q-.422 0-.781.157-.36.14-.625.422-.266.28-.453.671-.188.391-.266.875h4.14v-.203q-.015-.39-.156-.75-.125-.359-.39-.609-.25-.266-.625-.406-.36-.157-.844-.157zm9.008-1.875l.156 1.375q.532-.75 1.282-1.14.765-.406 1.687-.406.734 0 1.36.218.624.22 1.062.703.453.47.703 1.22.25.75.25 1.827v6.063h-2.531v-6.031q0-.579-.14-.954-.126-.39-.376-.609-.234-.219-.578-.297-.344-.094-.781-.094-.656 0-1.11.266-.453.266-.734.719v7h-2.547v-9.86h2.297zm13.555-2.406v2.406h3.672v1.875h-3.672v4.235q0 .531.11.89.124.36.343.579.235.218.563.312.328.078.718.078.297 0 .594-.015.313-.032.594-.063.281-.047.516-.094.25-.047.421-.093l.235 1.734q-.25.156-.61.281-.359.11-.765.172-.39.078-.828.11-.438.046-.844.046-.813 0-1.484-.203-.657-.219-1.125-.672-.47-.453-.735-1.14-.25-.703-.25-1.672v-4.485h-2.25v-1.875h2.25v-2.406h2.547zM402.974 442.711q0-.36.109-.656.125-.313.344-.531.234-.22.562-.344.328-.14.75-.14.406 0 .735.14.328.125.546.344.22.218.344.53.125.298.125.657 0 .344-.125.656-.125.297-.344.516-.218.219-.546.344-.329.14-.735.14-.422 0-.75-.14-.328-.125-.562-.344-.22-.219-.344-.516-.11-.312-.11-.656zm17.492-3.375q0 1.078-.25 2-.25.922-.75 1.594-.484.672-1.203 1.062-.719.375-1.64.375-.798 0-1.407-.265-.594-.282-1.031-.782v4.657h-2.532V434.32h2.329l.093.97q.453-.548 1.078-.845.625-.296 1.454-.296.937 0 1.656.359.719.36 1.203 1.016.5.656.75 1.578t.25 2.047v.187zm-2.531-.187q0-.61-.125-1.157-.11-.547-.36-.937-.234-.406-.61-.625-.374-.235-.905-.235-.672 0-1.094.266-.422.266-.656.734v4.11q.234.469.656.75.422.281 1.11.281.53 0 .906-.234.39-.25.625-.657.234-.406.343-.953.11-.547.11-1.156v-.187zm11.945-5q.578 0 1.063.078.484.062.797.156l-.375 2.531q-.5-.125-1.032-.172-.515-.062-1-.062-1.062 0-1.703.406-.64.406-.968 1.172v5.922h-2.532v-9.86h2.36l.125 1.61q.593-.828 1.437-1.297.844-.484 1.828-.484zm3.774 5.015q0-1.078.312-1.984.313-.922.907-1.594.593-.687 1.453-1.062.86-.375 1.969-.375 1.125 0 1.984.375.86.375 1.453 1.062.61.672.906 1.594.313.906.313 1.984v.188q0 1.078-.313 2-.297.922-.89 1.593-.594.672-1.469 1.047-.86.375-1.953.375-1.125 0-2-.375-.86-.375-1.453-1.047-.594-.671-.907-1.593-.312-.922-.312-2v-.188zm2.531.188q0 .625.11 1.172.125.53.375.937.265.406.671.64.407.235.985.235.547 0 .937-.234.407-.235.657-.64.25-.407.375-.938.125-.547.125-1.172v-.188q0-.61-.125-1.14-.125-.547-.375-.954-.25-.406-.657-.64-.39-.235-.968-.235-.563 0-.97.235-.39.234-.655.64-.25.407-.375.954-.11.53-.11 1.14v.188zm13.665-7.438v2.406h3.671v1.875h-3.671v4.235q0 .531.109.89.125.36.344.579.234.218.562.312.328.078.719.078.297 0 .594-.015.312-.032.593-.063.282-.047.516-.094.25-.047.422-.093l.234 1.734q-.25.156-.61.281-.358.11-.765.172-.39.078-.828.11-.437.046-.844.046-.812 0-1.484-.203-.656-.219-1.125-.672-.469-.453-.734-1.14-.25-.703-.25-1.672v-4.485h-2.25v-1.875h2.25v-2.406h2.547zm6.195 7.25q0-1.078.313-1.984.312-.922.906-1.594.594-.687 1.453-1.062.86-.375 1.969-.375 1.125 0 1.984.375.86.375 1.453 1.062.61.672.906 1.594.313.906.313 1.984v.188q0 1.078-.313 2-.296.922-.89 1.593-.594.672-1.469 1.047-.86.375-1.953.375-1.125 0-2-.375-.86-.375-1.453-1.047-.594-.671-.906-1.593-.313-.922-.313-2v-.188zm2.531.188q0 .625.11 1.172.125.53.375.937.265.406.672.64.406.235.984.235.547 0 .937-.234.407-.235.657-.64.25-.407.375-.938.125-.547.125-1.172v-.188q0-.61-.125-1.14-.125-.547-.375-.954-.25-.406-.657-.64-.39-.235-.968-.235-.563 0-.969.235-.39.234-.656.64-.25.407-.375.954-.11.53-.11 1.14v.188zm13.665-7.438v2.406h3.672v1.875h-3.672v4.235q0 .531.11.89.124.36.343.579.234.218.562.312.328.078.72.078.296 0 .593-.015.312-.032.594-.063.28-.047.515-.094.25-.047.422-.093l.234 1.734q-.25.156-.609.281-.36.11-.766.172-.39.078-.828.11-.437.046-.843.046-.813 0-1.485-.203-.656-.219-1.125-.672-.469-.453-.734-1.14-.25-.703-.25-1.672v-4.485h-2.25v-1.875h2.25v-2.406h2.547zm10.742 8.125l.297 1.063 2.625-6.782h2.797l-5.016 11.329q-.156.375-.422.812-.25.438-.64.813-.39.375-.953.625-.563.265-1.329.265-.187 0-.343-.015-.157-.016-.297-.047-.14-.016-.281-.047-.141-.031-.313-.078l.313-1.922h.39q.25.015.39.015.298 0 .532-.187.234-.172.39-.39.173-.22.266-.407.11-.172.141-.172l.61-1.156-4.173-9.438h2.782l2.234 5.72zm15.852-.703q0 1.078-.25 2-.25.922-.75 1.594-.484.672-1.203 1.062-.719.375-1.64.375-.798 0-1.407-.265-.594-.282-1.031-.782v4.657h-2.532V434.32h2.329l.093.97q.453-.548 1.078-.845.625-.296 1.454-.296.937 0 1.656.359.719.36 1.203 1.016.5.656.75 1.578t.25 2.047v.187zm-2.531-.187q0-.61-.125-1.157-.11-.547-.36-.937-.234-.406-.609-.625-.375-.235-.906-.235-.672 0-1.094.266-.422.266-.656.734v4.11q.234.469.656.75.422.281 1.11.281.53 0 .906-.234.39-.25.625-.657.234-.406.343-.953.11-.547.11-1.156v-.187zm9.648 5.218q-1.14 0-2.078-.375-.922-.375-1.593-1.015-.657-.64-1.016-1.516-.36-.875-.36-1.86v-.374q0-1.125.36-2.047.36-.938.984-1.61.64-.687 1.516-1.046.875-.375 1.906-.375 1.063 0 1.89.343.845.344 1.423.985.578.64.875 1.547.312.89.312 1.968v1.078h-6.687q.062.5.28.922.235.407.579.72.344.296.781.468.453.156.985.156.375 0 .734-.078.375-.078.703-.219.344-.14.64-.344.298-.218.516-.5l1.266 1.375q-.234.329-.625.657-.375.328-.89.578-.516.25-1.141.406-.625.156-1.36.156zm-.296-8.172q-.422 0-.782.157-.36.14-.625.422-.265.28-.453.671-.187.391-.265.875h4.14v-.203q-.015-.39-.156-.75-.125-.359-.39-.609-.25-.266-.626-.406-.36-.157-.843-.157z"/><path fill="#34a853" d="M631.58 403.51c0-6.283 5.093-11.376 11.376-11.376H809.18a11.376 11.376 0 0 1 11.375 11.375v45.501c0 6.283-5.093 11.376-11.375 11.376H642.956c-6.283 0-11.376-5.093-11.376-11.376z" fill-rule="evenodd"/><path stroke="#666" stroke-linejoin="round" stroke-linecap="butt" d="M631.58 403.51c0-6.283 5.093-11.376 11.376-11.376H809.18a11.376 11.376 0 0 1 11.375 11.375v45.501c0 6.283-5.093 11.376-11.375 11.376H642.956c-6.283 0-11.376-5.093-11.376-11.376z"/><path fill="#fff" d="M657.637 433.18h-2.547l-3.688-8.547v8.547h-2.578v-13.266h2.578l3.657 8.516.015-8.516h2.563v13.266zm2.195-5.016q0-1.078.313-1.984.312-.922.906-1.594.594-.687 1.453-1.062.86-.375 1.969-.375 1.125 0 1.984.375.86.375 1.453 1.062.61.672.907 1.594.312.906.312 1.984v.188q0 1.078-.312 2-.297.922-.89 1.593-.595.672-1.47 1.047-.86.375-1.953.375-1.125 0-2-.375-.86-.375-1.453-1.047-.594-.671-.906-1.593-.313-.922-.313-2v-.188zm2.532.188q0 .625.109 1.172.125.53.375.937.266.406.672.64.406.235.984.235.547 0 .938-.234.406-.235.656-.64.25-.407.375-.938.125-.547.125-1.172v-.188q0-.61-.125-1.14-.125-.547-.375-.954-.25-.406-.656-.64-.39-.235-.97-.235-.562 0-.968.235-.39.234-.656.64-.25.407-.375.954-.11.53-.11 1.14v.188zm8.742-.172q0-1.125.266-2.047.265-.938.765-1.594.5-.672 1.203-1.031.72-.36 1.641-.36.781 0 1.36.282.593.265 1.046.781v-5.031h2.547v14h-2.297l-.125-1.031q-.469.578-1.094.906-.625.312-1.453.312-.906 0-1.625-.375-.703-.39-1.203-1.047-.5-.671-.765-1.578-.266-.922-.266-2v-.187zm2.531.187q0 .625.11 1.157.109.53.343.937.235.39.61.625.375.219.906.219.656 0 1.094-.281.437-.282.687-.782v-3.984q-.25-.5-.687-.781-.422-.282-1.078-.282-.532 0-.907.235-.375.234-.625.64-.234.407-.343.954-.11.53-.11 1.156v.187zm13.711 5q-1.14 0-2.078-.375-.922-.375-1.593-1.015-.657-.64-1.016-1.516-.36-.875-.36-1.86v-.374q0-1.125.36-2.047.36-.938.984-1.61.64-.687 1.516-1.046.875-.375 1.906-.375 1.063 0 1.89.343.845.344 1.423.985.578.64.875 1.547.312.89.312 1.968v1.078h-6.687q.062.5.28.922.235.407.58.72.343.296.78.468.453.156.985.156.375 0 .734-.078.375-.078.703-.219.344-.14.64-.344.298-.218.516-.5l1.266 1.375q-.234.329-.625.657-.375.328-.89.578-.516.25-1.141.406-.625.156-1.36.156zm-.296-8.172q-.422 0-.782.157-.36.14-.625.422-.265.28-.453.671-.187.391-.265.875h4.14v-.203q-.015-.39-.156-.75-.125-.359-.39-.609-.25-.266-.626-.406-.36-.157-.843-.157zm9.273 6.516q0-.36.11-.656.125-.313.343-.531.235-.22.563-.344.328-.14.75-.14.406 0 .734.14.328.125.547.344.219.218.344.53.125.298.125.657 0 .344-.125.656-.125.297-.344.516-.219.219-.547.344-.328.14-.734.14-.422 0-.75-.14-.328-.125-.563-.344-.218-.219-.343-.516-.11-.312-.11-.656zm17.493-3.375q0 1.078-.25 2-.25.922-.75 1.594-.485.672-1.203 1.062-.72.375-1.641.375-.797 0-1.406-.265-.594-.282-1.032-.782v4.657h-2.53V423.32h2.327l.094.97q.453-.548 1.078-.845.625-.296 1.453-.296.938 0 1.657.359.718.36 1.203 1.016.5.656.75 1.578t.25 2.047v.187zm-2.532-.187q0-.61-.125-1.157-.109-.547-.359-.937-.234-.406-.61-.625-.374-.235-.906-.235-.671 0-1.093.266-.422.266-.657.734v4.11q.235.469.657.75.422.281 1.11.281.53 0 .905-.234.391-.25.625-.657.235-.406.344-.953.11-.547.11-1.156v-.187zm11.946-5q.578 0 1.063.078.484.062.796.156l-.375 2.531q-.5-.125-1.03-.172-.516-.062-1-.062-1.063 0-1.704.406-.64.406-.969 1.172v5.922h-2.531v-9.86h2.36l.124 1.61q.594-.828 1.438-1.297.844-.484 1.828-.484zm3.774 5.015q0-1.078.312-1.984.313-.922.906-1.594.594-.687 1.454-1.062.859-.375 1.968-.375 1.125 0 1.985.375.86.375 1.453 1.062.61.672.906 1.594.313.906.313 1.984v.188q0 1.078-.313 2-.297.922-.89 1.593-.594.672-1.47 1.047-.859.375-1.952.375-1.125 0-2-.375-.86-.375-1.454-1.047-.593-.671-.906-1.593-.312-.922-.312-2v-.188zm2.531.188q0 .625.11 1.172.124.53.374.937.266.406.672.64.406.235.985.235.546 0 .937-.234.406-.235.656-.64.25-.407.375-.938.125-.547.125-1.172v-.188q0-.61-.125-1.14-.125-.547-.375-.954-.25-.406-.656-.64-.39-.235-.969-.235-.562 0-.968.235-.391.234-.657.64-.25.407-.375.954-.109.53-.109 1.14v.188zm13.664-7.438v2.406h3.672v1.875h-3.672v4.235q0 .531.11.89.125.36.343.579.235.218.563.312.328.078.719.078.297 0 .593-.015.313-.032.594-.063.281-.047.516-.094.25-.047.422-.093l.234 1.734q-.25.156-.61.281-.359.11-.765.172-.39.078-.828.11-.438.046-.844.046-.812 0-1.484-.203-.656-.219-1.125-.672-.469-.453-.735-1.14-.25-.703-.25-1.672v-4.485h-2.25v-1.875h2.25v-2.406h2.547zm6.196 7.25q0-1.078.312-1.984.313-.922.907-1.594.593-.687 1.453-1.062.86-.375 1.969-.375 1.125 0 1.984.375.86.375 1.453 1.062.61.672.906 1.594.313.906.313 1.984v.188q0 1.078-.313 2-.297.922-.89 1.593-.594.672-1.47 1.047-.858.375-1.952.375-1.125 0-2-.375-.86-.375-1.453-1.047-.594-.671-.907-1.593-.312-.922-.312-2v-.188zm2.531.188q0 .625.11 1.172.125.53.375.937.265.406.671.64.407.235.985.235.547 0 .937-.234.407-.235.657-.64.25-.407.375-.938.125-.547.125-1.172v-.188q0-.61-.125-1.14-.125-.547-.375-.954-.25-.406-.657-.64-.39-.235-.968-.235-.563 0-.97.235-.39.234-.655.64-.25.407-.375.954-.11.53-.11 1.14v.188zm13.664-7.438v2.406h3.672v1.875h-3.672v4.235q0 .531.11.89.125.36.344.579.234.218.562.312.328.078.719.078.297 0 .594-.015.312-.032.593-.063.282-.047.516-.094.25-.047.422-.093l.234 1.734q-.25.156-.61.281-.359.11-.765.172-.39.078-.828.11-.437.046-.844.046-.812 0-1.484-.203-.656-.219-1.125-.672-.469-.453-.734-1.14-.25-.703-.25-1.672v-4.485h-2.25v-1.875h2.25v-2.406h2.546zm10.743 8.125l.297 1.063 2.625-6.782h2.797l-5.016 11.329q-.156.375-.422.812-.25.438-.64.813-.391.375-.954.625-.562.265-1.328.265-.187 0-.343-.015-.157-.016-.297-.047-.141-.016-.282-.047-.14-.031-.312-.078l.312-1.922h.391q.25.015.39.015.298 0 .532-.187.234-.172.39-.39.172-.22.266-.407.11-.172.14-.172l.61-1.156-4.172-9.438h2.782l2.234 5.72zm15.852-.703q0 1.078-.25 2-.25.922-.75 1.594-.485.672-1.203 1.062-.72.375-1.641.375-.797 0-1.406-.265-.594-.282-1.032-.782v4.657h-2.53V423.32h2.327l.094.97q.453-.548 1.078-.845.625-.296 1.453-.296.938 0 1.657.359.718.36 1.203 1.016.5.656.75 1.578t.25 2.047v.187zm-2.532-.187q0-.61-.125-1.157-.109-.547-.359-.937-.234-.406-.61-.625-.374-.235-.906-.235-.671 0-1.093.266-.422.266-.657.734v4.11q.235.469.657.75.422.281 1.11.281.53 0 .905-.234.39-.25.625-.657.235-.406.344-.953.11-.547.11-1.156v-.187zm9.65 5.218q-1.141 0-2.079-.375-.922-.375-1.594-1.015-.656-.64-1.015-1.516-.36-.875-.36-1.86v-.374q0-1.125.36-2.047.36-.938.984-1.61.64-.687 1.516-1.046.875-.375 1.906-.375 1.062 0 1.89.343.844.344 1.422.985.579.64.875 1.547.313.89.313 1.968v1.078h-6.688q.063.5.282.922.234.407.578.72.344.296.781.468.453.156.984.156.375 0 .735-.078.375-.078.703-.219.344-.14.64-.344.297-.218.516-.5l1.266 1.375q-.235.329-.625.657-.375.328-.89.578-.516.25-1.141.406-.625.156-1.36.156zm-.298-8.172q-.422 0-.78.157-.36.14-.626.422-.266.28-.453.671-.188.391-.266.875h4.14v-.203q-.015-.39-.155-.75-.125-.359-.39-.609-.25-.266-.626-.406-.36-.157-.844-.157z"/><path fill="#34a853" d="M631.58 286.03c0-6.283 5.093-11.376 11.376-11.376H809.18a11.376 11.376 0 0 1 11.375 11.375v45.501c0 6.282-5.093 11.376-11.375 11.376H642.956c-6.283 0-11.376-5.094-11.376-11.376z" fill-rule="evenodd"/><path stroke="#666" stroke-linejoin="round" stroke-linecap="butt" d="M631.58 286.03c0-6.283 5.093-11.376 11.376-11.376H809.18a11.376 11.376 0 0 1 11.375 11.375v45.501c0 6.282-5.093 11.376-11.375 11.376H642.956c-6.283 0-11.376-5.094-11.376-11.376z"/><path fill="#fff" d="M673.852 298.887h-5.453v3.75h6.375v2.063h-8.938v-13.266h8.907v2.094h-6.344v3.343h5.453v2.016zm7.305 2.89l.14.704.126-.672 2.156-6.969h2.656l-3.75 9.86h-2.375l-3.766-9.86h2.641l2.172 6.938zm11.79 3.11q-1.141 0-2.079-.375-.922-.375-1.594-1.016-.656-.64-1.015-1.515-.36-.875-.36-1.86v-.375q0-1.125.36-2.046.36-.938.984-1.61.64-.687 1.516-1.047.875-.375 1.906-.375 1.062 0 1.89.344.844.344 1.422.984.579.641.875 1.547.313.89.313 1.969v1.078h-6.688q.063.5.282.922.234.406.578.719.344.297.781.469.453.156.984.156.375 0 .735-.078.375-.078.703-.22.344-.14.64-.343.297-.219.516-.5l1.266 1.375q-.235.328-.625.656-.375.329-.89.579-.516.25-1.141.406-.625.156-1.36.156zm-.298-8.172q-.422 0-.78.156-.36.141-.626.422-.266.282-.453.672-.188.39-.266.875h4.141v-.203q-.016-.39-.156-.75-.125-.36-.39-.61-.25-.265-.626-.406-.36-.156-.844-.156zm9.008-1.875l.157 1.375q.53-.75 1.28-1.14.767-.407 1.688-.407.735 0 1.36.219.625.219 1.062.703.453.469.703 1.219.25.75.25 1.828v6.063h-2.53v-6.032q0-.578-.141-.953-.125-.39-.375-.61-.235-.218-.579-.296-.343-.094-.78-.094-.657 0-1.11.266-.453.265-.735.719v7h-2.546v-9.86h2.296zm13.555-2.406v2.406h3.672v1.875h-3.672v4.235q0 .53.11.89.125.36.344.578.234.219.562.313.328.078.719.078.297 0 .594-.016.312-.031.593-.062.282-.047.516-.094.25-.047.422-.094l.234 1.735q-.25.156-.61.28-.359.11-.765.173-.39.078-.828.11-.437.046-.844.046-.812 0-1.484-.203-.656-.219-1.125-.672-.469-.453-.734-1.14-.25-.704-.25-1.672v-4.485h-2.25v-1.875h2.25v-2.406h2.546zm16.196 1.094h-4.094V304.7h-2.562v-11.172h-4.032v-2.094h10.688v2.094zm7.696 11.172q-.094-.188-.157-.422-.062-.235-.11-.5-.202.234-.483.437-.266.188-.61.344-.328.156-.734.234-.39.094-.86.094-.75 0-1.39-.219-.625-.218-1.078-.61-.453-.39-.72-.937-.25-.546-.25-1.187 0-1.547 1.157-2.39 1.172-.86 3.469-.86h1.422v-.594q0-.703-.469-1.11-.469-.421-1.344-.421-.765 0-1.125.328t-.36.89h-2.53q0-.624.28-1.187.282-.578.813-1 .532-.422 1.297-.672.766-.25 1.766-.25.89 0 1.656.219.781.219 1.344.64.562.423.875 1.079.328.656.328 1.5v4.234q0 .797.094 1.313.094.515.297.89v.157h-2.578zm-2.407-1.782q.375 0 .703-.078.329-.094.594-.234.266-.156.453-.344.203-.187.313-.375v-1.703h-1.297q-.594 0-1.016.125-.422.11-.687.312-.266.204-.39.5-.126.282-.126.625 0 .5.36.844.359.328 1.093.328zm14.524-8.25q.578 0 1.062.078.485.063.797.157l-.375 2.53q-.5-.124-1.03-.171-.517-.062-1-.062-1.063 0-1.704.406-.64.406-.969 1.172v5.922h-2.531v-9.86h2.36l.124 1.61q.594-.829 1.438-1.297.844-.485 1.828-.485zm3.867 5.032q0-1.125.266-2.047.281-.938.797-1.594.531-.672 1.266-1.031.734-.36 1.671-.36.86 0 1.47.297.624.281 1.062.813l.11-.938h2.296v9.547q0 1-.344 1.781-.328.782-.953 1.313-.61.547-1.469.812-.859.282-1.906.282-.437 0-.953-.094-.516-.078-1.016-.281-.5-.188-.953-.485-.437-.297-.75-.703l1.14-1.531q.485.547 1.095.828.609.281 1.312.281 1.063 0 1.656-.578.61-.562.61-1.61v-.562q-.453.5-1.047.781-.594.266-1.375.266-.922 0-1.656-.375-.735-.39-1.266-1.047-.516-.672-.797-1.578-.266-.922-.266-2v-.187zm2.547.187q0 .625.11 1.156.125.532.375.938.265.39.656.625.39.219.922.219.672 0 1.094-.25.437-.266.703-.72v-4.171q-.266-.469-.703-.719-.422-.25-1.063-.25-.547 0-.937.235-.391.234-.657.64-.25.406-.375.953-.125.532-.125 1.157v.187zm13.68 5q-1.14 0-2.078-.375-.922-.375-1.594-1.016-.656-.64-1.015-1.515-.36-.875-.36-1.86v-.375q0-1.125.36-2.046.36-.938.984-1.61.64-.687 1.516-1.047.875-.375 1.906-.375 1.063 0 1.89.344.844.344 1.423.984.578.641.875 1.547.312.89.312 1.969v1.078h-6.687q.062.5.28.922.235.406.579.719.344.297.781.469.453.156.985.156.375 0 .734-.078.375-.078.703-.22.344-.14.64-.343.298-.219.516-.5l1.266 1.375q-.234.328-.625.656-.375.329-.89.579-.516.25-1.141.406-.625.156-1.36.156zm-.297-8.172q-.421 0-.78.156-.36.141-.626.422-.265.282-.453.672-.187.39-.266.875h4.141v-.203q-.016-.39-.156-.75-.125-.36-.39-.61-.25-.265-.626-.406-.36-.156-.844-.156zm11.368-4.281v2.406h3.672v1.875h-3.672v4.235q0 .53.11.89.124.36.343.578.234.219.562.313.329.078.72.078.296 0 .593-.016.312-.031.594-.062.28-.047.515-.094.25-.047.422-.094l.235 1.735q-.25.156-.61.28-.36.11-.765.173-.391.078-.829.11-.437.046-.843.046-.813 0-1.485-.203-.656-.219-1.125-.672-.468-.453-.734-1.14-.25-.704-.25-1.672v-4.485h-2.25v-1.875h2.25v-2.406h2.547zM673.934 325.23q0-.359.11-.655.125-.313.343-.532.235-.218.563-.343.328-.141.75-.141.406 0 .734.14.328.126.547.344.219.219.344.532.125.296.125.656 0 .344-.125.656-.125.297-.344.516-.219.218-.547.343-.328.141-.734.141-.422 0-.75-.14-.328-.126-.563-.344-.218-.22-.343-.516-.11-.312-.11-.656zm17.493-3.374q0 1.078-.25 2-.25.922-.75 1.594-.485.671-1.204 1.062-.718.375-1.64.375-.797 0-1.406-.266-.594-.28-1.032-.78v4.655h-2.53V316.84h2.327l.094.969q.453-.547 1.078-.844.625-.297 1.453-.297.938 0 1.656.36.72.359 1.204 1.015.5.657.75 1.578.25.922.25 2.047v.188zm-2.532-.188q0-.61-.125-1.156-.11-.547-.36-.937-.233-.407-.608-.625-.375-.235-.907-.235-.672 0-1.093.266-.422.265-.657.734v4.11q.235.468.657.75.421.28 1.109.28.531 0 .906-.234.39-.25.625-.656t.344-.953q.11-.547.11-1.156v-.188zm11.946-5q.578 0 1.062.078.485.063.797.157l-.375 2.53q-.5-.124-1.031-.171-.516-.062-1-.062-1.062 0-1.703.406-.64.406-.969 1.172v5.922h-2.531v-9.86h2.36l.124 1.61q.594-.829 1.438-1.297.844-.485 1.828-.485zm3.774 5.016q0-1.078.312-1.984.313-.922.906-1.594.594-.688 1.453-1.063.86-.375 1.97-.375 1.124 0 1.984.375.859.375 1.453 1.063.61.672.906 1.594.312.906.312 1.984v.187q0 1.079-.312 2-.297.922-.89 1.594-.594.672-1.47 1.047-.859.375-1.953.375-1.125 0-2-.375-.859-.375-1.453-1.047-.593-.672-.906-1.594-.312-.921-.312-2v-.187zm2.53.187q0 .625.11 1.172.125.532.375.938.266.406.672.64.406.235.984.235.547 0 .938-.235.406-.234.656-.64t.375-.938q.125-.547.125-1.172v-.187q0-.61-.125-1.14-.125-.548-.375-.954-.25-.406-.656-.64-.39-.235-.969-.235-.562 0-.969.235-.39.234-.656.64-.25.406-.375.953-.11.532-.11 1.14v.188zm13.665-7.437v2.406h3.672v1.875h-3.672v4.235q0 .53.11.89.125.36.343.578.235.219.563.313.328.078.719.078.296 0 .593-.016.313-.031.594-.062.281-.047.516-.094.25-.047.422-.094l.234 1.735q-.25.156-.61.28-.359.11-.765.173-.39.078-.828.11-.438.046-.844.046-.812 0-1.484-.203-.657-.219-1.125-.672-.47-.453-.735-1.14-.25-.704-.25-1.672v-4.485h-2.25v-1.875h2.25v-2.406h2.547zm6.196 7.25q0-1.078.312-1.984.313-.922.906-1.594.594-.688 1.454-1.063.859-.375 1.968-.375 1.125 0 1.985.375.86.375 1.453 1.063.61.672.906 1.594.313.906.313 1.984v.187q0 1.079-.313 2-.297.922-.89 1.594-.594.672-1.47 1.047-.859.375-1.952.375-1.125 0-2-.375-.86-.375-1.454-1.047-.593-.672-.906-1.594-.312-.921-.312-2v-.187zm2.531.187q0 .625.11 1.172.124.532.374.938.266.406.672.64.406.235.985.235.546 0 .937-.235.406-.234.656-.64t.375-.938q.125-.547.125-1.172v-.187q0-.61-.125-1.14-.125-.548-.375-.954-.25-.406-.656-.64-.39-.235-.969-.235-.562 0-.968.235-.391.234-.657.64-.25.406-.375.953-.109.532-.109 1.14v.188zm13.664-7.437v2.406h3.672v1.875h-3.672v4.235q0 .53.11.89.125.36.343.578.235.219.563.313.328.078.719.078.297 0 .593-.016.313-.031.594-.062.281-.047.516-.094.25-.047.422-.094l.234 1.735q-.25.156-.61.28-.359.11-.765.173-.39.078-.828.11-.438.046-.844.046-.812 0-1.484-.203-.656-.219-1.125-.672-.469-.453-.735-1.14-.25-.704-.25-1.672v-4.485h-2.25v-1.875h2.25v-2.406h2.547zm10.743 8.125l.297 1.062 2.625-6.78h2.797l-5.016 11.327q-.156.375-.422.813-.25.437-.64.812-.391.375-.954.625-.562.266-1.328.266-.187 0-.344-.016-.156-.015-.296-.047-.141-.015-.282-.046-.14-.032-.312-.079l.312-1.921h.39q.25.015.392.015.296 0 .53-.187.235-.172.391-.391.172-.219.266-.406.11-.172.14-.172l.61-1.156-4.172-9.438h2.781l2.235 5.719zm15.852-.703q0 1.078-.25 2-.25.922-.75 1.594-.485.671-1.204 1.062-.718.375-1.64.375-.797 0-1.406-.266-.594-.28-1.032-.78v4.655h-2.53V316.84h2.327l.094.969q.453-.547 1.078-.844.625-.297 1.453-.297.938 0 1.656.36.72.359 1.204 1.015.5.657.75 1.578.25.922.25 2.047v.188zm-2.532-.188q0-.61-.125-1.156-.109-.547-.359-.937-.234-.407-.61-.625-.374-.235-.906-.235-.672 0-1.093.266-.422.265-.657.734v4.11q.235.468.657.75.421.28 1.109.28.531 0 .906-.234.39-.25.625-.656t.344-.953q.11-.547.11-1.156v-.188zm9.649 5.219q-1.14 0-2.078-.375-.922-.375-1.594-1.016-.656-.64-1.015-1.515-.36-.875-.36-1.86v-.375q0-1.125.36-2.046.359-.938.984-1.61.64-.687 1.516-1.047.875-.375 1.906-.375 1.062 0 1.89.344.844.344 1.422.984.578.641.875 1.547.313.89.313 1.969v1.078h-6.688q.063.5.282.922.234.406.578.719.343.297.78.469.454.156.985.156.375 0 .735-.078.375-.078.703-.22.344-.14.64-.343.297-.219.516-.5l1.266 1.375q-.235.328-.625.656-.375.329-.891.579-.516.25-1.14.406-.626.156-1.36.156zm-.297-8.172q-.422 0-.781.156-.36.141-.625.422-.266.282-.453.672-.188.39-.266.875h4.14v-.203q-.015-.39-.155-.75-.125-.36-.391-.61-.25-.265-.625-.406-.36-.156-.844-.156z"/><path fill="#34a853" d="M33.508 202.68c0-6.283 5.093-11.376 11.375-11.376H211.11a11.376 11.376 0 0 1 11.375 11.376v45.5c0 6.283-5.093 11.376-11.375 11.376H44.883c-6.282 0-11.375-5.093-11.375-11.375z" fill-rule="evenodd"/><path stroke="#666" stroke-linejoin="round" stroke-linecap="butt" d="M33.508 202.68c0-6.283 5.093-11.376 11.375-11.376H211.11a11.376 11.376 0 0 1 11.375 11.376v45.5c0 6.283-5.093 11.376-11.375 11.376H44.883c-6.282 0-11.375-5.093-11.375-11.375z"/><path fill="#fff" d="M74.651 205.077h3.657l.015 13.14q-.015 1.345-.515 2.47-.5 1.11-1.375 1.922-.86.796-2.047 1.25-1.172.437-2.532.437-1.421 0-2.593-.36-1.172-.374-2.016-1.093-.844-.719-1.312-1.813-.47-1.093-.485-2.578h3.672q.016 1.532.672 2.22.672.67 2.062.67.625 0 1.141-.233.531-.235.89-.657.376-.422.563-1 .203-.578.203-1.234v-13.14zm16.903 14q0-.5-.188-.937-.171-.453-.593-.828-.422-.39-1.11-.703-.672-.329-1.687-.594-1.235-.344-2.36-.844-1.125-.516-1.984-1.219-.86-.718-1.375-1.672-.516-.953-.516-2.187 0-1.203.5-2.172.516-.984 1.407-1.672.906-.687 2.125-1.062 1.218-.375 2.656-.375 1.484 0 2.703.437 1.234.422 2.125 1.203.89.782 1.375 1.844.5 1.063.5 2.344H91.57q-.032-.64-.235-1.172-.203-.531-.61-.906-.39-.39-.984-.61-.578-.218-1.375-.218-.734 0-1.296.187-.563.172-.954.484-.39.313-.593.75-.203.438-.203.954 0 .53.265.968.266.422.766.766.515.344 1.234.64.719.282 1.64.516 1.298.39 2.391.938 1.094.547 1.875 1.297.797.734 1.235 1.703.437.953.437 2.125 0 1.25-.515 2.218-.5.97-1.391 1.641-.875.672-2.094 1.016-1.218.343-2.672.343-.89 0-1.78-.171-.891-.157-1.72-.485-.812-.344-1.515-.844-.703-.515-1.219-1.187-.5-.688-.797-1.547-.297-.86-.297-1.906h3.594q.031.86.297 1.484.281.61.766 1 .484.39 1.171.578.688.172 1.5.172.735 0 1.297-.172.563-.172.953-.468.391-.297.594-.72.219-.421.219-.937zm19.371-3.125q0 1.813-.484 3.36-.469 1.53-1.39 2.64-.907 1.11-2.22 1.735-1.296.61-2.937.61-1.64 0-2.922-.61-1.266-.625-2.14-1.735-.876-1.125-1.329-2.656-.453-1.531-.453-3.344v-2.765q0-1.828.453-3.36.453-1.53 1.328-2.64.875-1.125 2.141-1.75t2.906-.625q1.657 0 2.953.625 1.313.625 2.22 1.75.921 1.11 1.39 2.64.484 1.532.484 3.36v2.765zm-3.703-2.797q0-1.156-.187-2.125-.188-.984-.594-1.687-.406-.703-1.047-1.094-.625-.39-1.516-.39-.89 0-1.484.39t-.969 1.094q-.36.703-.515 1.687-.157.97-.157 2.125v2.797q0 1.14.157 2.125.156.97.515 1.688.375.719.969 1.125.594.39 1.5.39.875 0 1.5-.39.64-.406 1.031-1.11.406-.718.594-1.687.203-.984.203-2.14v-2.798zm19.309 3.985q0 1.562-.36 2.89-.343 1.313-1.03 2.266-.688.938-1.72 1.469-1.015.531-2.39.531-1.234 0-2.14-.453-.907-.469-1.548-1.313l-.171 1.5h-3.266v-20h3.625v7.188q.625-.719 1.469-1.125.86-.406 2-.406 1.39 0 2.422.53 1.03.532 1.718 1.485.688.953 1.032 2.282.359 1.312.359 2.875v.28zm-3.625-.281q0-.86-.14-1.625-.126-.766-.438-1.344-.313-.578-.86-.922-.546-.344-1.375-.344-.984 0-1.609.422-.61.422-.953 1.14v5.61q.344.734.953 1.156.625.407 1.64.407.813 0 1.344-.313.547-.328.86-.89.312-.563.437-1.329.141-.78.141-1.687v-.281zm9.09-6.907h7.203v14.407q0 1.406-.406 2.406-.39 1.015-1.172 1.672-.766.656-1.875.968-1.094.313-2.516.313-.593 0-1.187-.047-.594-.047-1.14-.172l.171-2.937q.156.03.438.062.28.031.578.047.297.031.562.031.266.016.39.016.532 0 .985-.125.47-.11.797-.39.328-.266.516-.72.203-.453.203-1.124v-11.454h-3.547v-2.953zm3.297-3.61q0-.42.14-.78.157-.36.422-.61.282-.25.657-.39.39-.14.86-.14.952 0 1.515.546.578.531.578 1.375t-.578 1.39q-.563.532-1.516.532-.469 0-.86-.14-.374-.141-.656-.391-.265-.266-.421-.61-.141-.36-.141-.781zm17.371 17.954q-1.625 0-2.953-.531-1.328-.547-2.281-1.453-.953-.922-1.469-2.157-.515-1.25-.515-2.671v-.516q0-1.625.5-2.953.515-1.328 1.421-2.297.922-.969 2.172-1.5t2.719-.531q1.516 0 2.703.5 1.203.5 2.031 1.422.829.906 1.25 2.187.438 1.281.438 2.828v1.531h-9.563q.11.72.422 1.313.328.594.813 1.031.5.422 1.14.656.641.235 1.391.235.531 0 1.063-.094.53-.11 1-.312.484-.204.906-.5.422-.313.734-.704l1.797 1.954q-.328.468-.875.937-.531.469-1.281.828-.735.344-1.64.563-.891.234-1.923.234zm-.437-11.687q-.61 0-1.125.218-.5.22-.89.625-.376.407-.641.97-.25.546-.391 1.233h5.937v-.28q-.015-.579-.218-1.079-.188-.516-.563-.875-.36-.375-.89-.594-.532-.218-1.22-.218zm15.824 8.796q.547 0 1.016-.156.484-.156.844-.437.375-.297.578-.703.203-.407.172-.891h3.406q.031 1.094-.453 2.031-.469.938-1.297 1.61-.813.671-1.906 1.062-1.078.375-2.282.375-1.64 0-2.89-.547-1.235-.547-2.063-1.515-.812-.97-1.25-2.25-.422-1.297-.422-2.782v-.39q0-1.485.422-2.782.422-1.296 1.25-2.25.828-.968 2.063-1.53 1.234-.563 2.86-.563 1.296 0 2.405.39 1.11.39 1.907 1.11.797.703 1.234 1.718.453 1 .422 2.25h-3.406q.03-.515-.157-.984t-.546-.812q-.344-.344-.844-.547-.485-.203-1.063-.203-.86 0-1.422.359-.562.344-.89.937-.328.579-.469 1.344-.14.75-.14 1.563v.39q0 .813.124 1.578.141.766.47 1.344.327.578.89.938.578.343 1.437.343zm16.403-14.906v3.453h5.265v2.657h-5.265v6.062q0 .766.172 1.281.187.516.5.828.328.297.797.438.468.125 1.03.125.423 0 .86-.031.438-.047.828-.11.407-.062.75-.125.344-.062.578-.125l.36 2.485q-.375.218-.89.39-.5.157-1.079.25-.562.11-1.187.157-.625.062-1.22.062-1.155 0-2.109-.297-.937-.312-1.609-.953-.672-.64-1.031-1.64-.36-1-.36-2.391v-6.406h-3.218v-2.657h3.218V206.5h3.61zM101.847 248.35q-.094-.187-.156-.421-.063-.235-.11-.5-.203.234-.484.437-.266.188-.61.344-.328.156-.734.234-.39.094-.86.094-.75 0-1.39-.219-.625-.219-1.078-.61-.453-.39-.719-.937-.25-.547-.25-1.187 0-1.547 1.156-2.39 1.172-.86 3.47-.86h1.421v-.594q0-.703-.469-1.11-.468-.421-1.343-.421-.766 0-1.125.328-.36.328-.36.89h-2.531q0-.624.281-1.187.281-.578.813-1 .531-.422 1.297-.672.765-.25 1.765-.25.89 0 1.656.219.782.219 1.344.64.563.422.875 1.079.328.656.328 1.5v4.234q0 .797.094 1.313.094.515.297.89v.156h-2.578zm-2.406-1.78q.375 0 .703-.079.328-.094.593-.234.266-.157.454-.344.203-.188.312-.375v-1.703h-1.297q-.594 0-1.015.125-.422.11-.688.312-.266.203-.39.5-.126.282-.126.625 0 .5.36.844.36.328 1.094.328zm9.742-8.079l.156 1.375q.532-.75 1.282-1.14.765-.407 1.687-.407.734 0 1.36.219.624.219 1.062.703.453.469.703 1.219.25.75.25 1.828v6.062h-2.531v-6.03q0-.579-.14-.954-.126-.39-.376-.61-.234-.218-.578-.296-.344-.094-.781-.094-.656 0-1.11.266-.453.265-.734.718v7h-2.547v-9.859h2.297zm13.258 8.016q.375 0 .719-.11.344-.109.594-.297.25-.203.39-.484.14-.297.125-.64h2.39q.016.765-.327 1.421-.328.657-.907 1.141-.562.469-1.328.734-.75.266-1.609.266-1.14 0-2.016-.375-.859-.39-1.437-1.063-.578-.687-.875-1.593-.297-.907-.297-1.938v-.281q0-1.031.297-1.938.297-.906.875-1.578.578-.672 1.437-1.062.86-.39 2-.39.922 0 1.688.28.781.266 1.328.766.562.484.875 1.188.312.703.297 1.578h-2.39q.015-.36-.11-.688-.125-.328-.375-.562-.25-.235-.594-.375t-.75-.14q-.61 0-1 .25-.39.233-.625.655-.219.407-.328.938-.094.515-.094 1.078v.281q0 .578.094 1.11.094.53.328.937.234.406.625.656.39.235 1 .235zm9.368-6.657q.5-.718 1.203-1.125.703-.406 1.578-.406.781 0 1.422.235.64.218 1.11.718.468.485.718 1.266.265.766.265 1.844v5.968h-2.53v-5.984q0-.531-.141-.906-.125-.39-.375-.625-.235-.235-.594-.344-.344-.125-.781-.125-.625 0-1.094.234-.469.22-.781.641v7.11h-2.532v-14h2.532v5.5zm8.32 3.485q0-1.078.313-1.985.312-.921.906-1.593.594-.688 1.453-1.063.86-.375 1.969-.375 1.125 0 1.984.375.86.375 1.453 1.063.61.672.907 1.593.312.907.312 1.985v.187q0 1.078-.312 2-.297.922-.891 1.594-.594.672-1.469 1.047-.86.375-1.953.375-1.125 0-2-.375-.86-.375-1.453-1.047-.594-.672-.906-1.594-.313-.922-.313-2v-.187zm2.531.187q0 .625.11 1.172.125.531.375.938.265.406.672.64.406.235.984.235.547 0 .938-.235.406-.234.656-.64.25-.407.375-.938.125-.547.125-1.172v-.187q0-.61-.125-1.14-.125-.548-.375-.954-.25-.406-.656-.64-.391-.235-.97-.235-.562 0-.968.234-.39.235-.656.641-.25.406-.375.953-.11.531-.11 1.14v.188zm16.087-5.203q.578 0 1.062.078.484.063.797.157l-.375 2.53q-.5-.124-1.031-.171-.516-.063-1-.063-1.063 0-1.703.407-.641.406-.97 1.172v5.921h-2.53v-9.859h2.359l.125 1.61q.594-.829 1.437-1.297.844-.485 1.829-.485z"/><path fill="#d52221" d="M631.581 168.547c0-6.282 5.093-11.375 11.376-11.375h166.225a11.375 11.375 0 0 1 11.376 11.375v45.501c0 6.283-5.093 11.376-11.376 11.376H642.957c-6.283 0-11.376-5.093-11.376-11.376z" fill-rule="evenodd"/><path stroke="#666" stroke-linejoin="round" stroke-linecap="butt" d="M631.581 168.547c0-6.282 5.093-11.375 11.376-11.375h166.225a11.375 11.375 0 0 1 11.376 11.375v45.501c0 6.283-5.093 11.376-11.376 11.376H642.957c-6.283 0-11.376-5.093-11.376-11.376z"/><path fill="#fff" d="M702.936 181.562q0 1.28-.344 2.359-.328 1.063-.968 1.844-.641.765-1.563 1.203-.906.437-2.063.437-1.14 0-2.03-.437-.891-.438-1.516-1.203-.61-.781-.922-1.844-.313-1.078-.313-2.36v-1.937q0-1.265.313-2.344.312-1.078.922-1.859.625-.781 1.5-1.219.89-.437 2.047-.437 1.156 0 2.062.437.922.438 1.563 1.219.64.781.968 1.86.344 1.078.344 2.343v1.938zm-2.594-1.953q0-.813-.14-1.485-.125-.687-.422-1.172-.281-.5-.719-.781-.438-.281-1.063-.281t-1.046.281q-.422.281-.672.781-.25.485-.36 1.172-.109.672-.109 1.485v1.953q0 .797.11 1.484.109.688.359 1.188t.672.78q.422.282 1.047.282t1.062-.281q.438-.281.719-.781.281-.5.422-1.172.14-.688.14-1.5v-1.953zm13.508 2.78q0 1.11-.25 2.032-.234.906-.718 1.578-.485.656-1.204 1.031-.718.375-1.671.375-.875 0-1.516-.328-.625-.328-1.078-.906l-.125 1.047h-2.266v-14h2.531v5.031q.438-.5 1.032-.781.593-.281 1.39-.281.97 0 1.688.375.734.359 1.219 1.03.484.657.718 1.595.25.922.25 2.015v.188zm-2.53-.187q0-.61-.095-1.14-.093-.547-.328-.938-.219-.406-.61-.64-.374-.25-.937-.25-.703 0-1.14.296-.422.297-.657.797v3.938q.235.5.657.797.437.28 1.156.28.578 0 .937-.218.375-.219.594-.61.235-.405.328-.937.094-.547.094-1.187v-.188zm6.35-4.843h5.048v10.093q0 .985-.282 1.688-.28.703-.828 1.156-.53.469-1.312.688-.766.218-1.766.218-.406 0-.828-.031-.422-.031-.797-.125l.125-2.062q.11.03.297.046.203.032.406.047.203.016.391.016h.281q.375 0 .688-.078.328-.078.562-.281.235-.188.36-.5.14-.313.14-.782v-8.015h-2.484v-2.078zm2.313-2.516q0-.297.094-.547.11-.25.297-.422.187-.187.453-.281.281-.11.61-.11.671 0 1.062.391.406.375.406.969t-.406.969q-.39.375-1.063.375-.328 0-.609-.094-.266-.11-.453-.281-.188-.188-.297-.438-.094-.25-.094-.531zm12.15 12.562q-1.142 0-2.079-.375-.922-.375-1.594-1.015-.656-.64-1.015-1.516-.36-.875-.36-1.86v-.374q0-1.125.36-2.047.359-.938.984-1.61.64-.687 1.516-1.046.875-.375 1.906-.375 1.062 0 1.89.343.844.344 1.422.985.578.64.875 1.547.313.89.313 1.968v1.079h-6.688q.063.5.282.921.234.407.578.72.343.296.781.468.453.156.984.156.375 0 .735-.078.375-.078.703-.219.344-.14.64-.343.297-.22.516-.5l1.266 1.375q-.235.328-.625.656-.375.328-.89.578-.517.25-1.142.406-.625.156-1.359.156zm-.298-8.171q-.422 0-.781.156-.36.14-.625.422-.266.28-.453.672-.188.39-.266.875h4.14v-.204q-.015-.39-.155-.75-.125-.359-.391-.609-.25-.266-.625-.406-.36-.156-.844-.156zm11.07 6.14q.376 0 .72-.11.343-.109.593-.296.25-.203.39-.484.142-.297.126-.641h2.39q.016.766-.328 1.422-.328.656-.906 1.14-.562.47-1.328.735-.75.265-1.61.265-1.14 0-2.015-.375-.86-.39-1.437-1.062-.579-.688-.875-1.594-.297-.906-.297-1.937v-.282q0-1.03.297-1.937.296-.906.875-1.578.578-.672 1.437-1.063.86-.39 2-.39.922 0 1.688.28.78.267 1.328.767.562.484.875 1.187.312.703.297 1.578h-2.391q.016-.36-.11-.687-.124-.328-.374-.563-.25-.234-.594-.375-.344-.14-.75-.14-.61 0-1 .25-.39.234-.625.656-.219.406-.328.937-.094.516-.094 1.078v.282q0 .578.094 1.109.093.531.328.938.234.406.625.656.39.234 1 .234zm11.493-10.422v2.407h3.672v1.875h-3.672v4.234q0 .531.11.89.125.36.343.579.235.218.563.312.328.078.719.078.296 0 .593-.015.313-.032.594-.063.281-.047.516-.094.25-.046.422-.093l.234 1.734q-.25.156-.61.281-.359.11-.765.172-.39.078-.828.11-.438.046-.844.046-.812 0-1.484-.203-.657-.218-1.125-.672-.469-.453-.735-1.14-.25-.703-.25-1.672v-4.484h-2.25v-1.875h2.25v-2.407h2.547zM673.935 207.75q0-.36.11-.657.125-.313.344-.531.234-.22.562-.344.328-.14.75-.14.406 0 .734.14.329.125.547.344.219.218.344.53.125.298.125.657 0 .344-.125.656-.125.297-.344.516-.218.219-.547.344-.328.14-.734.14-.422 0-.75-.14-.328-.125-.562-.344-.22-.219-.344-.516-.11-.312-.11-.656zm17.493-3.376q0 1.078-.25 2-.25.922-.75 1.594-.484.672-1.203 1.062-.719.375-1.64.375-.798 0-1.407-.265-.594-.281-1.031-.781v4.656h-2.532v-13.656h2.329l.093.968q.453-.547 1.078-.843.625-.297 1.454-.297.937 0 1.656.359.719.36 1.203 1.016.5.656.75 1.578t.25 2.047v.187zm-2.531-.187q0-.61-.125-1.157-.11-.546-.36-.937-.234-.406-.61-.625-.374-.234-.905-.234-.672 0-1.094.265-.422.266-.656.735v4.109q.234.469.656.75.422.281 1.11.281.53 0 .906-.234.39-.25.625-.656.234-.407.343-.954.11-.546.11-1.156v-.187zm11.945-5q.578 0 1.063.078.484.062.797.156l-.375 2.531q-.5-.125-1.032-.172-.515-.062-1-.062-1.062 0-1.703.406-.64.406-.969 1.172v5.922h-2.53v-9.86h2.359l.125 1.61q.593-.828 1.437-1.297.844-.484 1.828-.484zm3.774 5.015q0-1.078.312-1.984.313-.922.907-1.594.593-.687 1.453-1.062.86-.375 1.969-.375 1.125 0 1.984.375.86.375 1.453 1.062.61.672.906 1.594.313.906.313 1.984v.188q0 1.078-.313 2-.297.922-.89 1.594-.594.671-1.47 1.046-.858.375-1.952.375-1.125 0-2-.375-.86-.375-1.453-1.046-.594-.672-.907-1.594-.312-.922-.312-2v-.188zm2.531.188q0 .625.11 1.172.125.53.375.937.265.406.671.64.407.235.985.235.547 0 .937-.234.407-.235.657-.64.25-.407.375-.938.125-.547.125-1.172v-.188q0-.61-.125-1.14-.125-.547-.375-.953-.25-.407-.657-.641-.39-.234-.968-.234-.563 0-.97.234-.39.234-.655.64-.25.407-.375.954-.11.53-.11 1.14v.188zm13.664-7.438v2.407h3.672v1.875h-3.672v4.234q0 .531.11.89.125.36.344.579.234.218.562.312.328.078.719.078.297 0 .594-.015.312-.032.593-.063.282-.047.516-.094.25-.046.422-.093l.234 1.734q-.25.156-.61.281-.359.11-.765.172-.39.078-.828.11-.437.046-.844.046-.812 0-1.484-.203-.656-.218-1.125-.672-.469-.453-.734-1.14-.25-.703-.25-1.672v-4.484h-2.25v-1.875h2.25v-2.407h2.546zm6.196 7.25q0-1.078.313-1.984.312-.922.906-1.594.594-.687 1.453-1.062.86-.375 1.969-.375 1.125 0 1.984.375.86.375 1.453 1.062.61.672.906 1.594.313.906.313 1.984v.188q0 1.078-.313 2-.296.922-.89 1.594-.594.671-1.469 1.046-.86.375-1.953.375-1.125 0-2-.375-.86-.375-1.453-1.046-.594-.672-.906-1.594-.313-.922-.313-2v-.188zm2.531.188q0 .625.11 1.172.125.53.375.937.265.406.672.64.406.235.984.235.547 0 .937-.234.407-.235.657-.64.25-.407.375-.938.125-.547.125-1.172v-.188q0-.61-.125-1.14-.125-.547-.375-.953-.25-.407-.657-.641-.39-.234-.968-.234-.563 0-.97.234-.39.234-.655.64-.25.407-.375.954-.11.53-.11 1.14v.188zm13.665-7.438v2.407h3.671v1.875h-3.671v4.234q0 .531.109.89.125.36.344.579.234.218.562.312.328.078.719.078.297 0 .594-.015.312-.032.593-.063.282-.047.516-.094.25-.046.422-.093l.234 1.734q-.25.156-.609.281-.36.11-.766.172-.39.078-.828.11-.437.046-.844.046-.812 0-1.484-.203-.656-.218-1.125-.672-.469-.453-.734-1.14-.25-.703-.25-1.672v-4.484h-2.25v-1.875h2.25v-2.407h2.547zm10.742 8.125l.297 1.063 2.625-6.781h2.797l-5.016 11.328q-.156.375-.422.812-.25.438-.64.813-.391.375-.953.625-.563.265-1.329.265-.187 0-.343-.015-.157-.016-.297-.047-.14-.016-.281-.047-.141-.031-.313-.078l.313-1.922h.39q.25.016.39.016.298 0 .532-.188.234-.172.39-.39.173-.22.266-.407.11-.172.14-.172l.61-1.156-4.172-9.437h2.782l2.234 5.718zm15.852-.703q0 1.078-.25 2-.25.922-.75 1.594-.485.672-1.203 1.062-.719.375-1.64.375-.798 0-1.407-.265-.594-.281-1.031-.781v4.656h-2.532v-13.656h2.328l.094.968q.453-.547 1.078-.843.625-.297 1.453-.297.938 0 1.657.359.718.36 1.203 1.016.5.656.75 1.578t.25 2.047v.187zm-2.531-.187q0-.61-.125-1.157-.11-.546-.36-.937-.234-.406-.61-.625-.374-.234-.905-.234-.672 0-1.094.265-.422.266-.656.735v4.109q.234.469.656.75.422.281 1.11.281.53 0 .905-.234.391-.25.625-.656.235-.407.344-.954.11-.546.11-1.156v-.187zm9.648 5.218q-1.14 0-2.078-.375-.922-.375-1.594-1.015-.656-.64-1.015-1.516-.36-.875-.36-1.86v-.374q0-1.125.36-2.047.36-.938.984-1.61.64-.687 1.516-1.046.875-.375 1.906-.375 1.063 0 1.89.343.844.344 1.423.985.578.64.875 1.547.312.89.312 1.968v1.079h-6.687q.062.5.28.921.235.407.579.72.344.296.781.468.453.156.985.156.375 0 .734-.078.375-.078.703-.219.344-.14.64-.343.298-.22.516-.5l1.266 1.375q-.234.328-.625.656-.375.328-.89.578-.516.25-1.141.406-.625.156-1.36.156zm-.297-8.171q-.421 0-.78.156-.36.14-.626.422-.265.28-.453.672-.187.39-.266.875h4.141v-.204q-.016-.39-.156-.75-.125-.359-.39-.609-.25-.266-.626-.406-.36-.156-.844-.156z"/><path fill="none" d="M222.484 225.43c34.526 0 51.789-8.535 69.053-17.07 17.263-8.536 34.529-17.071 69.057-17.071"/><path stroke="#595959" stroke-width="4" stroke-linejoin="round" stroke-linecap="butt" d="M222.484 225.43c34.526 0 51.789-8.535 69.053-17.07 8.631-4.268 17.264-8.536 28.054-11.737 2.698-.8 5.53-1.533 8.531-2.184a123.804 123.804 0 0 1 7.051-1.315c.41-.064.822-.127 1.237-.189l.239-.034"/><path stroke="#595959" stroke-width="4" stroke-linecap="butt" d="M337.093 199.493l17.667-7.811-18.555-5.373z"/><path fill="none" d="M455.076 225.425c0 12.307.016 18.46.032 24.614.015 6.154.031 12.307.031 24.615"/><path stroke="#595959" stroke-width="4" stroke-linejoin="round" stroke-linecap="butt" d="M455.076 225.425c0 12.307.016 18.46.032 24.614v.615"/><path stroke="#595959" stroke-width="4" stroke-linecap="butt" d="M448.502 250.662l6.63 18.144 6.584-18.16z"/><path fill="none" d="M455.076 342.906c0 12.307.016 18.46.032 24.614.015 6.153.031 12.307.031 24.614"/><path stroke="#595959" stroke-width="4" stroke-linejoin="round" stroke-linecap="butt" d="M455.076 342.906c0 12.307.016 18.46.032 24.614v.614"/><path stroke="#595959" stroke-width="4" stroke-linecap="butt" d="M448.502 368.142l6.63 18.144 6.584-18.16z"/><path fill="none" d="M549.596 426.26c20.496 0 30.744.016 40.992.031 10.248.016 20.496.032 40.992.032"/><path stroke="#595959" stroke-width="4" stroke-linejoin="round" stroke-linecap="butt" d="M549.596 426.26c20.496 0 30.744.016 40.992.031 5.124.008 10.248.016 16.653.022h.34"/><path stroke="#595959" stroke-width="4" stroke-linecap="butt" d="M607.577 432.92l18.155-6.6-18.15-6.614z"/><path fill="none" d="M726.068 392.134c0-12.307.016-18.46.032-24.614.015-6.154.031-12.307.031-24.614"/><path stroke="#595959" stroke-width="4" stroke-linejoin="round" stroke-linecap="butt" d="M726.068 392.134c0-12.307.016-18.46.032-24.614l.001-.614"/><path stroke="#595959" stroke-width="4" stroke-linecap="butt" d="M732.708 366.914l-6.584-18.16-6.63 18.143z"/><path fill="none" d="M726.068 274.654c0-12.308.016-18.462.032-24.615.015-6.154.031-12.307.031-24.614"/><path stroke="#595959" stroke-width="4" stroke-linejoin="round" stroke-linecap="butt" d="M726.068 274.654c0-12.308.016-18.462.032-24.615l.001-.614"/><path stroke="#595959" stroke-width="4" stroke-linecap="butt" d="M732.708 249.433l-6.584-18.16-6.63 18.144z"/><path fill="none" d="M640.626 76.804h238.551v40.536H640.626z"/><path fill="#595959" d="M741.088 93.865l.157 1.375q.53-.75 1.28-1.14.767-.407 1.688-.407.735 0 1.36.219.625.219 1.062.703.453.469.703 1.219.25.75.25 1.828v6.062h-2.53v-6.03q0-.579-.141-.954-.125-.39-.375-.61-.235-.218-.579-.296-.343-.094-.78-.094-.657 0-1.11.266-.453.265-.735.718v7h-2.546v-9.859h2.296zm15.18 8.469q-.5.75-1.203 1.172-.703.406-1.547.406-.765 0-1.406-.234-.625-.235-1.078-.75-.453-.516-.719-1.313-.25-.797-.25-1.922v-5.828h2.547v5.844q0 .61.078 1.015.094.407.281.657.188.25.5.36.313.108.75.108.766 0 1.235-.28.469-.282.719-.782v-6.922h2.546v9.86h-2.296l-.157-1.391zm5.446-12.61h5.516v11.938h2.812v2.062h-8.328v-2.062h2.953v-9.86h-2.953v-2.078zm11.196 0h5.515v11.938h2.813v2.062h-8.328v-2.062h2.953v-9.86h-2.953v-2.078z"/><path fill="none" d="M726.07 157.172c0-9.958 8.456-14.936 16.913-19.916s16.913-9.963 16.913-19.927"/><path stroke="#595959" stroke-width="4" stroke-linejoin="round" stroke-linecap="butt" d="M726.07 157.172c0-9.958 8.456-14.936 16.913-19.916l1.584-.935.372-.222"/><path stroke="#595959" stroke-width="4" stroke-linecap="butt" d="M750.106 140.216l6.146-18.313-16.48 10.078z"/><path fill="#673ab7" d="M769.818 217.194h165.448v32.126H769.818z" fill-rule="evenodd"/><path fill="#fff" d="M790.947 236.474l2.515-9.562h2.813l-4.016 13.265h-2.594l-4.015-13.265h2.828l2.469 9.562zm13.055 3.703q-.094-.187-.157-.422-.062-.234-.109-.5-.203.235-.484.438-.266.187-.61.344-.328.156-.734.234-.39.094-.86.094-.75 0-1.39-.219-.625-.219-1.078-.61-.453-.39-.719-.937-.25-.547-.25-1.187 0-1.547 1.156-2.391 1.172-.86 3.469-.86h1.422v-.593q0-.703-.469-1.11-.469-.421-1.344-.421-.765 0-1.125.328-.359.328-.359.89h-2.531q0-.625.281-1.187.281-.578.813-1 .53-.422 1.296-.672.766-.25 1.766-.25.89 0 1.656.219.782.218 1.344.64.563.422.875 1.078.328.657.328 1.5v4.235q0 .797.094 1.312.094.516.297.891v.156h-2.578zm-2.407-1.781q.375 0 .704-.078.328-.094.593-.235.266-.156.453-.343.204-.188.313-.375v-1.703h-1.297q-.594 0-1.016.125-.421.109-.687.312-.266.203-.39.5-.126.281-.126.625 0 .5.36.844.359.328 1.093.328zm7.977-12.219h5.516v11.938h2.812v2.062h-8.328v-2.062h2.953v-9.86h-2.953v-2.078zm11.336 4.14h5.375v7.798h2.672v2.062h-8.047v-2.062h2.813v-5.719h-2.813v-2.078zm2.625-2.515q0-.297.11-.547.11-.25.297-.422.187-.187.453-.28.281-.11.61-.11.671 0 1.062.39.39.375.39.97 0 .593-.39.968-.391.375-1.063.375-.328 0-.61-.094-.265-.11-.452-.281-.188-.188-.297-.438-.11-.25-.11-.53zm7.633 7.375q0-1.125.266-2.047.266-.937.766-1.593.5-.672 1.203-1.032.719-.359 1.64-.359.782 0 1.36.281.594.266 1.047.781v-5.03h2.547v14h-2.297l-.125-1.032q-.469.578-1.094.906-.625.313-1.453.313-.906 0-1.625-.375-.703-.39-1.203-1.047-.5-.672-.766-1.578-.266-.922-.266-2v-.188zm2.532.188q0 .625.11 1.156.108.531.343.937.234.391.61.625.374.22.905.22.657 0 1.094-.282.438-.281.688-.781v-3.985q-.25-.5-.688-.78-.422-.282-1.078-.282-.531 0-.906.234-.375.235-.625.64-.235.407-.344.954-.11.531-.11 1.156v.188zm9.602-5.047h5.375v7.797h2.671v2.062H843.3v-2.062h2.812v-5.719H843.3v-2.078zm2.625-2.516q0-.297.109-.547.11-.25.297-.422.187-.187.453-.28.281-.11.61-.11.671 0 1.062.39.39.375.39.97 0 .593-.39.968t-1.063.375q-.328 0-.61-.094-.265-.11-.452-.281-.188-.188-.297-.438-.11-.25-.11-.53zm12.554.11v2.406h3.672v1.875h-3.672v4.234q0 .531.11.89.125.36.344.579.234.219.562.312.328.079.719.079.297 0 .594-.016.312-.031.593-.063.282-.046.516-.093.25-.047.422-.094l.234 1.734q-.25.157-.61.282-.359.109-.765.171-.39.079-.828.11-.437.047-.844.047-.812 0-1.484-.203-.656-.22-1.125-.672-.469-.453-.734-1.14-.25-.704-.25-1.673v-4.484h-2.25v-1.875h2.25v-2.406h2.546zm10.743 8.125l.297 1.062 2.625-6.781h2.797l-5.016 11.328q-.156.375-.422.812-.25.438-.64.813-.391.375-.954.625-.562.266-1.328.266-.187 0-.343-.016-.157-.016-.297-.047-.141-.016-.282-.047-.14-.031-.312-.078l.312-1.922h.391q.25.016.39.016.298 0 .532-.188.234-.172.39-.39.172-.219.266-.407.11-.171.14-.171l.61-1.157-4.172-9.437h2.782l2.234 5.719zm16.117-.016q-.062 1-.437 1.812-.375.797-1 1.36-.61.562-1.469.875-.844.297-1.89.297-1.172 0-2.094-.422-.906-.438-1.531-1.219-.61-.781-.938-1.875-.328-1.094-.328-2.406v-1.781q0-1.329.344-2.407.343-1.093.984-1.875.64-.797 1.547-1.218.906-.438 2.031-.438 1.094 0 1.938.313.859.312 1.453.89.61.563.953 1.39.36.829.437 1.876h-2.546q-.032-.594-.172-1.031-.141-.454-.422-.75-.266-.297-.672-.454-.406-.156-.969-.156-.594 0-1.031.266-.438.25-.719.75-.281.484-.422 1.203-.14.719-.14 1.625v1.797q0 1.969.547 2.906.562.938 1.75.938 1 0 1.578-.532.593-.53.656-1.734h2.562zm6.852 4.344q-1.14 0-2.078-.375-.922-.375-1.594-1.016-.656-.64-1.015-1.516-.36-.875-.36-1.859v-.375q0-1.125.36-2.047.36-.937.984-1.61.64-.687 1.516-1.046.875-.375 1.906-.375 1.062 0 1.89.344.844.343 1.422.984.579.64.875 1.547.313.89.313 1.969v1.078h-6.688q.063.5.282.922.234.406.578.718.344.297.781.47.453.155.984.155.375 0 .735-.078.375-.078.703-.218.344-.141.64-.344.297-.219.516-.5l1.266 1.375q-.235.328-.625.656-.375.328-.89.578-.516.25-1.141.406-.625.157-1.36.157zm-.297-8.172q-.422 0-.78.156-.36.14-.626.422-.266.281-.453.672-.188.39-.266.875h4.141v-.203q-.016-.39-.156-.75-.125-.36-.39-.61-.25-.265-.626-.406-.36-.156-.844-.156zm7.243-6.016h5.515v11.938h2.813v2.062h-8.328v-2.062h2.953v-9.86h-2.953v-2.078zm11.195 0h5.516v11.938h2.812v2.062h-8.328v-2.062h2.953v-9.86h-2.953v-2.078z"/><path fill="none" d="M820.62 215.131h66.52v68.252h-66.52z"/><path fill="#d52221" d="M878.433 242.041q0 .531-.375.906l-3.844 3.813q-.468.406-.906.406-.531 0-.906-.406l-10.781-10.782-10.782 10.782q-.406.406-.937.406t-.906-.406l-3.813-3.813q-.375-.375-.375-.906t.375-.906l10.781-10.782-10.78-10.78q-.376-.376-.376-.907t.375-.906l3.813-3.844q.375-.375.906-.375.5 0 .937.375l10.782 10.781 10.781-10.781q.375-.375.906-.375t.906.375l3.844 3.844q.375.375.375.906t-.375.906l-10.812 10.781 10.812 10.782q.375.375.375.906z"/><path fill="#673ab7" d="M770.762 331.525h165.45v32.126h-165.45z" fill-rule="evenodd"/><path fill="#fff" d="M791.892 350.805l2.515-9.563h2.813l-4.016 13.266h-2.594l-4.015-13.266h2.828l2.469 9.563zm13.055 3.703q-.094-.188-.157-.422-.062-.234-.11-.5-.202.234-.483.438-.266.187-.61.343-.328.157-.734.235-.39.093-.86.093-.75 0-1.39-.218-.625-.22-1.078-.61-.453-.39-.72-.937-.25-.547-.25-1.188 0-1.547 1.157-2.39 1.172-.86 3.469-.86h1.422v-.593q0-.704-.469-1.11-.469-.422-1.344-.422-.765 0-1.125.328-.36.329-.36.891h-2.53q0-.625.28-1.187.282-.579.813-1 .532-.422 1.297-.672.766-.25 1.766-.25.89 0 1.656.218.781.22 1.344.641.562.422.875 1.078.328.656.328 1.5v4.235q0 .796.094 1.312t.297.89v.157h-2.578zm-2.407-1.781q.375 0 .703-.078.329-.094.594-.235.266-.156.453-.344.203-.187.313-.375v-1.703h-1.297q-.594 0-1.016.125-.422.11-.687.313-.266.203-.39.5-.126.281-.126.625 0 .5.36.844.359.328 1.093.328zm7.977-12.22h5.516v11.938h2.812v2.063h-8.328v-2.063h2.953v-9.859h-2.953v-2.078zm11.336 4.142h5.375v7.796h2.672v2.063h-8.047v-2.063h2.813v-5.718h-2.813v-2.078zm2.625-2.516q0-.297.11-.547.109-.25.297-.422.187-.187.453-.281.28-.11.609-.11.672 0 1.063.391.39.375.39.969t-.39.969q-.391.375-1.063.375-.328 0-.61-.094-.265-.11-.452-.281-.188-.188-.297-.438-.11-.25-.11-.531zm7.633 7.375q0-1.125.266-2.047.266-.937.766-1.594.5-.672 1.203-1.031.719-.36 1.64-.36.782 0 1.36.282.594.266 1.047.781v-5.031h2.547v14h-2.297l-.125-1.031q-.47.578-1.094.906-.625.312-1.453.312-.906 0-1.625-.375-.703-.39-1.203-1.046-.5-.672-.766-1.579-.266-.921-.266-2v-.187zm2.532.187q0 .625.109 1.157.11.53.344.937.234.39.61.625.374.219.905.219.657 0 1.094-.281.438-.282.688-.782v-3.984q-.25-.5-.688-.781-.422-.281-1.078-.281-.531 0-.906.234t-.625.64q-.235.407-.344.954-.11.53-.11 1.156v.187zm9.601-5.046h5.375v7.796h2.672v2.063h-8.047v-2.063h2.813v-5.718h-2.813v-2.078zm2.625-2.516q0-.297.11-.547.11-.25.297-.422.187-.187.453-.281.281-.11.61-.11.671 0 1.062.391.39.375.39.969t-.39.969q-.39.375-1.063.375-.328 0-.61-.094-.265-.11-.452-.281-.188-.188-.297-.438-.11-.25-.11-.531zm12.555.11v2.406h3.672v1.875h-3.672v4.234q0 .531.11.89.125.36.344.579.234.218.562.312.328.078.719.078.297 0 .594-.015.312-.032.593-.063.282-.047.516-.094.25-.046.422-.093l.234 1.734q-.25.156-.61.281-.359.11-.765.172-.39.078-.828.11-.437.046-.844.046-.812 0-1.484-.203-.656-.218-1.125-.672-.469-.453-.734-1.14-.25-.703-.25-1.672v-4.484h-2.25v-1.875h2.25v-2.407h2.546zm10.743 8.124l.297 1.063 2.625-6.781h2.797l-5.016 11.328q-.156.375-.422.812-.25.438-.64.813-.391.375-.954.625-.562.265-1.328.265-.187 0-.344-.015-.156-.016-.296-.047-.141-.016-.282-.047-.14-.031-.312-.078l.312-1.922h.39q.25.016.392.016.296 0 .53-.188.235-.172.391-.39.172-.22.266-.407.11-.172.14-.172l.61-1.156-4.172-9.437h2.781l2.235 5.718zm16.117-.015q-.062 1-.437 1.812-.375.797-1 1.36-.61.562-1.469.875-.844.296-1.89.296-1.172 0-2.094-.421-.907-.438-1.532-1.22-.609-.78-.937-1.874-.328-1.094-.328-2.406v-1.782q0-1.328.344-2.406.343-1.094.984-1.875.64-.797 1.547-1.219.906-.437 2.031-.437 1.094 0 1.938.312.859.313 1.453.89.61.563.953 1.392.36.828.437 1.875h-2.547q-.03-.594-.171-1.032-.141-.453-.422-.75-.266-.297-.672-.453-.406-.156-.969-.156-.594 0-1.031.266-.438.25-.719.75-.281.484-.422 1.203-.14.718-.14 1.625v1.797q0 1.968.546 2.906.563.937 1.75.937 1 0 1.579-.531.593-.531.656-1.734h2.562zm6.852 4.343q-1.14 0-2.078-.375-.922-.375-1.594-1.015-.656-.64-1.015-1.516-.36-.875-.36-1.86v-.374q0-1.125.36-2.047.359-.938.984-1.61.64-.687 1.516-1.046.875-.375 1.906-.375 1.062 0 1.89.343.844.344 1.422.985.578.64.875 1.547.313.89.313 1.968v1.079h-6.688q.063.5.282.921.234.407.578.72.343.296.781.468.453.156.984.156.375 0 .735-.078.375-.078.703-.219.344-.14.64-.343.297-.22.516-.5l1.266 1.375q-.235.328-.625.656-.375.328-.89.578-.517.25-1.142.406-.625.156-1.359.156zm-.297-8.171q-.422 0-.781.156-.36.14-.625.422-.266.28-.453.672-.188.39-.266.875h4.14v-.204q-.015-.39-.155-.75-.125-.359-.391-.609-.25-.266-.625-.406-.36-.156-.844-.156zm7.243-6.016h5.515v11.937h2.813v2.063h-8.328v-2.063h2.953v-9.859h-2.953v-2.078zm11.195 0h5.516v11.937h2.812v2.063h-8.328v-2.063h2.953v-9.859h-2.953v-2.078z"/><path fill="#673ab7" d="M769.818 446.8h165.448v32.127H769.818z" fill-rule="evenodd"/><path fill="#fff" d="M790.947 466.08l2.515-9.562h2.813l-4.016 13.266h-2.594l-4.015-13.266h2.828l2.469 9.562zm13.055 3.704q-.094-.188-.157-.422-.062-.235-.109-.5-.203.234-.484.437-.266.188-.61.344-.328.156-.734.234-.39.094-.86.094-.75 0-1.39-.219-.625-.218-1.078-.61-.453-.39-.719-.937-.25-.546-.25-1.187 0-1.547 1.156-2.39 1.172-.86 3.469-.86h1.422v-.594q0-.703-.469-1.11-.469-.421-1.344-.421-.765 0-1.125.328-.359.328-.359.89h-2.531q0-.624.281-1.187.281-.578.813-1 .53-.422 1.296-.672.766-.25 1.766-.25.89 0 1.656.219.782.219 1.344.64.563.423.875 1.079.328.656.328 1.5v4.234q0 .797.094 1.313.094.515.297.89v.157h-2.578zm-2.407-1.782q.375 0 .704-.078.328-.094.593-.234.266-.156.453-.344.204-.187.313-.375v-1.703h-1.297q-.594 0-1.016.125-.421.11-.687.312-.266.204-.39.5-.126.282-.126.625 0 .5.36.844.359.328 1.093.328zm7.977-12.218h5.516v11.937h2.812v2.063h-8.328v-2.063h2.953v-9.86h-2.953v-2.077zm11.336 4.14h5.375v7.797h2.672v2.063h-8.047v-2.063h2.813v-5.719h-2.813v-2.078zm2.625-2.515q0-.297.11-.547.11-.25.297-.422.187-.188.453-.281.281-.11.61-.11.671 0 1.062.39.39.376.39.97 0 .593-.39.968-.391.375-1.063.375-.328 0-.61-.093-.265-.11-.452-.282-.188-.187-.297-.437-.11-.25-.11-.531zm7.633 7.375q0-1.125.266-2.047.266-.938.766-1.594.5-.672 1.203-1.031.719-.36 1.64-.36.782 0 1.36.282.594.265 1.047.78v-5.03h2.547v14h-2.297l-.125-1.032q-.469.578-1.094.907-.625.312-1.453.312-.906 0-1.625-.375-.703-.39-1.203-1.047-.5-.672-.766-1.578-.266-.922-.266-2v-.187zm2.532.187q0 .625.11 1.156.108.532.343.938.234.39.61.625.374.219.905.219.657 0 1.094-.282.438-.281.688-.781v-3.984q-.25-.5-.688-.782-.422-.28-1.078-.28-.531 0-.906.234t-.625.64q-.235.406-.344.953-.11.532-.11 1.157v.187zm9.602-5.047h5.375v7.797h2.671v2.063H843.3v-2.063h2.812v-5.719H843.3v-2.078zm2.625-2.515q0-.297.109-.547.11-.25.297-.422.187-.188.453-.281.281-.11.61-.11.671 0 1.062.39.39.376.39.97 0 .593-.39.968t-1.063.375q-.328 0-.61-.093-.265-.11-.452-.282-.188-.187-.297-.437-.11-.25-.11-.531zm12.554.109v2.406h3.672v1.875h-3.672v4.235q0 .53.11.89.125.36.344.578.234.219.562.313.328.078.719.078.297 0 .594-.016.312-.031.593-.062.282-.047.516-.094.25-.047.422-.094l.234 1.735q-.25.156-.61.28-.359.11-.765.173-.39.078-.828.11-.437.046-.844.046-.812 0-1.484-.203-.656-.219-1.125-.672-.469-.453-.734-1.14-.25-.704-.25-1.672v-4.485h-2.25v-1.875h2.25v-2.406h2.546zm10.743 8.125l.297 1.062 2.625-6.78h2.797l-5.016 11.327q-.156.375-.422.813-.25.437-.64.812-.391.375-.954.625-.562.266-1.328.266-.187 0-.343-.016-.157-.015-.297-.047-.141-.015-.282-.046-.14-.032-.312-.079l.312-1.921h.391q.25.015.39.015.298 0 .532-.187.234-.172.39-.391.172-.219.266-.406.11-.172.14-.172l.61-1.156-4.172-9.438h2.782l2.234 5.719zm16.117-.016q-.062 1-.437 1.813-.375.797-1 1.36-.61.562-1.469.874-.844.297-1.89.297-1.172 0-2.094-.422-.906-.437-1.531-1.219-.61-.78-.938-1.875-.328-1.093-.328-2.406v-1.781q0-1.328.344-2.406.343-1.094.984-1.875.64-.797 1.547-1.22.906-.437 2.031-.437 1.094 0 1.938.313.859.312 1.453.89.61.563.953 1.391.36.828.437 1.875h-2.546q-.032-.594-.172-1.031-.141-.453-.422-.75-.266-.297-.672-.453-.406-.156-.969-.156-.594 0-1.031.265-.438.25-.719.75-.281.485-.422 1.203-.14.719-.14 1.625v1.797q0 1.969.547 2.906.562.938 1.75.938 1 0 1.578-.531.593-.532.656-1.735h2.562zm6.852 4.344q-1.14 0-2.078-.375-.922-.375-1.594-1.016-.656-.64-1.015-1.515-.36-.875-.36-1.86v-.375q0-1.125.36-2.046.36-.938.984-1.61.64-.687 1.516-1.047.875-.375 1.906-.375 1.062 0 1.89.344.844.344 1.422.984.579.641.875 1.547.313.89.313 1.969v1.078h-6.688q.063.5.282.922.234.406.578.719.344.297.781.469.453.156.984.156.375 0 .735-.078.375-.078.703-.22.344-.14.64-.343.297-.219.516-.5l1.266 1.375q-.235.328-.625.656-.375.329-.89.579-.516.25-1.141.406-.625.156-1.36.156zm-.297-8.172q-.422 0-.78.156-.36.141-.626.422-.266.282-.453.672-.188.39-.266.875h4.141v-.203q-.016-.39-.156-.75-.125-.36-.39-.61-.25-.265-.626-.406-.36-.156-.844-.156zm7.243-6.015h5.515v11.937h2.813v2.063h-8.328v-2.063h2.953v-9.86h-2.953v-2.077zm11.195 0h5.516v11.937h2.812v2.063h-8.328v-2.063h2.953v-9.86h-2.953v-2.077z"/><path fill="#673ab7" d="M224.18 437.352h165.449v32.126h-165.45z" fill-rule="evenodd"/><path fill="#fff" d="M245.309 456.632l2.516-9.563h2.812l-4.016 13.266h-2.593l-4.016-13.266h2.828l2.469 9.563zm13.055 3.703q-.094-.188-.156-.422-.063-.235-.11-.5-.203.234-.484.437-.266.188-.61.344-.328.156-.734.234-.39.094-.86.094-.75 0-1.39-.219-.625-.218-1.078-.609-.453-.39-.719-.937-.25-.547-.25-1.188 0-1.547 1.156-2.39 1.172-.86 3.47-.86h1.421v-.594q0-.703-.469-1.11-.468-.42-1.343-.42-.766 0-1.125.327-.36.328-.36.89h-2.531q0-.624.281-1.187.281-.578.813-1 .531-.422 1.297-.672.765-.25 1.765-.25.89 0 1.656.22.782.218 1.344.64.563.422.875 1.078.328.656.328 1.5v4.234q0 .797.094 1.313.094.515.297.89v.157h-2.578zm-2.406-1.782q.375 0 .703-.078.328-.093.593-.234.266-.156.454-.344.203-.187.312-.375v-1.703h-1.297q-.594 0-1.015.125-.422.11-.688.313-.266.203-.39.5-.126.28-.126.625 0 .5.36.843.36.328 1.094.328zm7.976-12.218h5.516v11.937h2.813v2.063h-8.329v-2.063h2.954v-9.86h-2.954v-2.077zm11.337 4.14h5.375v7.797h2.671v2.063h-8.046v-2.063h2.812v-5.719h-2.812v-2.078zm2.625-2.515q0-.297.109-.547.11-.25.297-.422.187-.188.453-.281.281-.11.61-.11.671 0 1.062.39.39.376.39.97 0 .593-.39.968t-1.063.375q-.328 0-.609-.093-.266-.11-.453-.282-.188-.187-.297-.437-.11-.25-.11-.531zm7.633 7.375q0-1.125.265-2.047.266-.938.766-1.594.5-.672 1.203-1.031.719-.36 1.64-.36.782 0 1.36.282.594.265 1.047.78v-5.03h2.547v14h-2.297l-.125-1.032q-.469.579-1.094.907-.625.312-1.453.312-.906 0-1.625-.375-.703-.39-1.203-1.047-.5-.672-.766-1.578-.265-.922-.265-2v-.187zm2.53.187q0 .625.11 1.156.11.532.344.938.234.39.61.625.374.219.906.219.656 0 1.093-.282.438-.28.688-.78v-3.985q-.25-.5-.688-.781-.421-.282-1.078-.282-.53 0-.906.235-.375.234-.625.64-.234.407-.344.953-.11.532-.11 1.157v.187zm9.603-5.047h5.375v7.797h2.672v2.063h-8.047v-2.063h2.812v-5.719h-2.812v-2.078zm2.625-2.515q0-.297.11-.547.108-.25.296-.422.187-.188.453-.281.281-.11.61-.11.671 0 1.062.39.39.376.39.97 0 .593-.39.968t-1.063.375q-.328 0-.609-.093-.266-.11-.453-.282-.188-.187-.297-.437-.11-.25-.11-.531zm12.555.11v2.405h3.672v1.875h-3.672v4.235q0 .53.11.89.124.36.343.578.234.22.562.313.328.078.72.078.296 0 .593-.016.312-.03.594-.062.28-.047.515-.094.25-.047.422-.094l.234 1.735q-.25.156-.609.281-.36.11-.766.172-.39.078-.828.11-.437.046-.843.046-.813 0-1.485-.203-.656-.219-1.125-.672-.469-.453-.734-1.14-.25-.704-.25-1.672v-4.485h-2.25v-1.875h2.25v-2.406h2.547zm10.742 8.124l.297 1.063 2.625-6.782h2.797l-5.016 11.328q-.156.375-.422.813-.25.437-.64.812-.39.375-.953.625-.563.266-1.328.266-.188 0-.344-.016-.156-.015-.297-.046-.14-.016-.281-.047-.141-.032-.313-.078l.313-1.922h.39q.25.015.39.015.298 0 .532-.187.235-.172.39-.39.173-.22.266-.407.11-.172.141-.172l.61-1.156-4.172-9.438h2.78l2.235 5.72zm16.118-.016q-.063 1-.438 1.813-.375.797-1 1.36-.61.562-1.469.874-.843.297-1.89.297-1.172 0-2.094-.422-.906-.437-1.531-1.218-.61-.782-.938-1.875-.328-1.094-.328-2.407v-1.78q0-1.33.344-2.407.344-1.094.984-1.875.64-.797 1.547-1.219.906-.437 2.031-.437 1.094 0 1.938.312.86.313 1.453.89.61.563.953 1.391.36.828.438 1.875h-2.547q-.032-.593-.172-1.03-.14-.454-.422-.75-.266-.298-.672-.454-.406-.156-.969-.156-.593 0-1.03.265-.438.25-.72.75-.28.485-.422 1.203-.14.72-.14 1.625v1.797q0 1.97.547 2.907.562.937 1.75.937 1 0 1.578-.531.594-.531.656-1.735h2.563zm6.851 4.344q-1.14 0-2.078-.375-.922-.375-1.593-1.015-.657-.641-1.016-1.516-.36-.875-.36-1.86v-.374q0-1.125.36-2.047.36-.938.984-1.61.64-.687 1.516-1.047.875-.375 1.906-.375 1.063 0 1.89.344.845.344 1.423.985.578.64.875 1.546.312.891.312 1.97v1.077h-6.687q.062.5.28.922.235.406.579.719.344.297.781.469.453.156.985.156.375 0 .734-.078.375-.078.703-.219.344-.14.64-.344.298-.218.516-.5l1.266 1.375q-.234.328-.625.657-.375.328-.89.578-.516.25-1.141.406-.625.156-1.36.156zm-.296-8.172q-.422 0-.782.157-.36.14-.625.421-.265.282-.453.672-.187.39-.265.875h4.14v-.203q-.015-.39-.156-.75-.125-.36-.39-.61-.25-.265-.626-.405-.36-.157-.843-.157zm7.242-6.015h5.516v11.937h2.812v2.063H353.5v-2.063h2.953v-9.86H353.5v-2.077zm11.196 0h5.515v11.937h2.813v2.063h-8.328v-2.063h2.953v-9.86h-2.953v-2.077z"/><path fill="#673ab7" d="M222.484 318.738h165.45v32.126h-165.45z" fill-rule="evenodd"/><path fill="#fff" d="M243.613 338.017l2.516-9.562h2.812l-4.015 13.266h-2.594l-4.016-13.266h2.829l2.468 9.562zm13.055 3.704q-.093-.188-.156-.422-.062-.235-.11-.5-.202.234-.484.437-.265.188-.61.344-.327.156-.733.234-.391.094-.86.094-.75 0-1.39-.219-.625-.218-1.079-.61-.453-.39-.718-.937-.25-.546-.25-1.187 0-1.547 1.156-2.39 1.172-.86 3.469-.86h1.422v-.594q0-.703-.47-1.11-.468-.421-1.343-.421-.766 0-1.125.328-.36.328-.36.89h-2.53q0-.624.28-1.187.282-.578.813-1 .531-.422 1.297-.672.766-.25 1.766-.25.89 0 1.656.219.781.219 1.344.64.562.423.875 1.079.328.656.328 1.5v4.234q0 .797.094 1.313.093.515.296.89v.157h-2.578zm-2.406-1.782q.375 0 .703-.078.328-.094.594-.234.266-.156.453-.344.203-.187.313-.375v-1.703h-1.297q-.594 0-1.016.125-.422.11-.687.312-.266.204-.391.5-.125.282-.125.625 0 .5.36.844.359.328 1.093.328zm7.977-12.218h5.515v11.937h2.813v2.063h-8.328v-2.063h2.953v-9.86h-2.953v-2.077zm11.336 4.14h5.375v7.797h2.672v2.063h-8.047v-2.063h2.813v-5.719h-2.813v-2.078zm2.625-2.515q0-.297.11-.547.109-.25.296-.422.188-.188.453-.281.282-.11.61-.11.672 0 1.062.39.391.376.391.97 0 .593-.39.968-.391.375-1.063.375-.328 0-.61-.093-.265-.11-.453-.282-.187-.187-.297-.437-.109-.25-.109-.531zm7.633 7.375q0-1.125.266-2.047.265-.938.765-1.594.5-.672 1.204-1.031.718-.36 1.64-.36.781 0 1.36.282.593.265 1.046.78v-5.03h2.547v14h-2.297l-.125-1.032q-.468.578-1.093.907-.625.312-1.453.312-.907 0-1.625-.375-.704-.39-1.204-1.047-.5-.672-.765-1.578-.266-.922-.266-2v-.187zm2.531.187q0 .625.11 1.156.11.532.344.938.234.39.609.625.375.219.906.219.656 0 1.094-.282.437-.281.687-.781v-3.984q-.25-.5-.687-.782-.422-.28-1.078-.28-.531 0-.906.234t-.625.64q-.235.406-.344.953-.11.532-.11 1.157v.187zm9.602-5.047h5.375v7.797h2.672v2.063h-8.047v-2.063h2.813v-5.719h-2.813v-2.078zm2.625-2.515q0-.297.11-.547.109-.25.296-.422.188-.188.454-.281.28-.11.609-.11.672 0 1.062.39.391.376.391.97 0 .593-.39.968-.391.375-1.063.375-.328 0-.61-.093-.265-.11-.453-.282-.187-.187-.296-.437-.11-.25-.11-.531zm12.555.109v2.406h3.672v1.875h-3.672v4.235q0 .53.11.89.125.36.343.578.235.219.563.313.328.078.719.078.296 0 .593-.016.313-.031.594-.062.281-.047.516-.094.25-.047.422-.094l.234 1.735q-.25.156-.61.28-.359.11-.765.173-.39.078-.828.11-.438.046-.844.046-.812 0-1.484-.203-.657-.219-1.125-.672-.47-.453-.735-1.14-.25-.704-.25-1.672v-4.485h-2.25v-1.875h2.25v-2.406h2.547zm10.743 8.125l.296 1.062 2.625-6.78h2.797l-5.015 11.327q-.157.375-.422.813-.25.437-.64.812-.391.375-.954.625-.562.266-1.328.266-.188 0-.344-.016-.156-.015-.297-.047-.14-.015-.28-.046-.142-.032-.313-.079l.312-1.921h.39q.25.015.391.015.297 0 .532-.187.234-.172.39-.391.172-.219.266-.406.11-.172.14-.172l.61-1.156-4.172-9.438h2.781l2.235 5.719zm16.117-.016q-.062 1-.437 1.813-.375.797-1 1.36-.61.562-1.47.874-.843.297-1.89.297-1.172 0-2.094-.422-.906-.437-1.53-1.219-.61-.78-.938-1.875-.328-1.093-.328-2.406v-1.781q0-1.328.343-2.406.344-1.094.985-1.875.64-.797 1.547-1.22.906-.437 2.03-.437 1.095 0 1.938.313.86.312 1.453.89.61.563.954 1.391.359.828.437 1.875h-2.547q-.031-.594-.172-1.031-.14-.453-.422-.75-.265-.297-.671-.453-.407-.156-.97-.156-.593 0-1.03.265-.438.25-.72.75-.28.485-.421 1.203-.14.719-.14 1.625v1.797q0 1.969.546 2.906.563.938 1.75.938 1 0 1.578-.531.594-.532.657-1.735h2.562zm6.852 4.344q-1.14 0-2.078-.375-.922-.375-1.594-1.016-.656-.64-1.016-1.515-.359-.875-.359-1.86v-.375q0-1.125.36-2.046.359-.938.984-1.61.64-.687 1.515-1.047.875-.375 1.907-.375 1.062 0 1.89.344.844.344 1.422.984.578.641.875 1.547.313.89.313 1.969v1.078h-6.688q.063.5.281.922.235.406.579.719.343.297.78.469.454.156.985.156.375 0 .735-.078.375-.078.703-.22.343-.14.64-.343.297-.219.516-.5l1.266 1.375q-.235.328-.625.656-.375.329-.891.579-.516.25-1.14.406-.626.156-1.36.156zm-.297-8.172q-.422 0-.781.156-.36.141-.625.422-.266.282-.453.672-.188.39-.266.875h4.14v-.203q-.015-.39-.156-.75-.125-.36-.39-.61-.25-.265-.625-.406-.36-.156-.844-.156zm7.242-6.015h5.516v11.937h2.813v2.063h-8.329v-2.063h2.954v-9.86h-2.954v-2.077zm11.196 0h5.516v11.937h2.812v2.063H363v-2.063h2.953v-9.86H363v-2.077z"/><path fill="none" d="M821.566 329.462h66.52v68.252h-66.52z"/><path fill="#d52221" d="M879.378 356.372q0 .53-.375.906l-3.844 3.812q-.468.407-.906.407-.531 0-.906-.407l-10.781-10.78-10.782 10.78q-.406.407-.937.407t-.906-.407l-3.813-3.812q-.375-.375-.375-.906 0-.532.375-.907l10.781-10.78-10.78-10.782q-.376-.375-.376-.906 0-.532.375-.907l3.813-3.843q.375-.375.906-.375.5 0 .937.375l10.782 10.78 10.78-10.78q.376-.375.907-.375t.906.375l3.844 3.843q.375.375.375.907 0 .53-.375.906l-10.812 10.781 10.812 10.781q.375.375.375.907z"/><path fill="none" d="M820.62 444.738h66.52v68.252h-66.52z"/><path fill="#d52221" d="M878.433 471.647q0 .532-.375.907l-3.844 3.812q-.468.406-.906.406-.531 0-.906-.406l-10.781-10.781-10.782 10.781q-.406.406-.937.406t-.906-.406l-3.813-3.812q-.375-.375-.375-.907 0-.531.375-.906l10.781-10.781-10.78-10.781q-.376-.375-.376-.907 0-.531.375-.906l3.813-3.844q.375-.375.906-.375.5 0 .937.375l10.782 10.782 10.781-10.782q.375-.375.906-.375t.906.375l3.844 3.844q.375.375.375.906 0 .532-.375.907l-10.812 10.78 10.812 10.782q.375.375.375.906z"/><path fill="none" d="M274.983 435.289h66.52v68.252h-66.52z"/><path fill="#d52221" d="M332.795 462.198q0 .532-.375.907l-3.843 3.812q-.47.406-.907.406-.53 0-.906-.406l-10.781-10.781-10.781 10.781q-.407.406-.938.406-.531 0-.906-.406l-3.813-3.812q-.375-.375-.375-.907 0-.53.375-.906l10.782-10.781-10.782-10.781q-.375-.375-.375-.907 0-.53.375-.906l3.813-3.844q.375-.375.906-.375.5 0 .938.375l10.78 10.782 10.782-10.782q.375-.375.906-.375.532 0 .907.375l3.843 3.844q.375.375.375.906 0 .532-.375.907l-10.812 10.781 10.812 10.781q.375.375.375.906z"/><path fill="none" d="M273.287 316.675h66.52v68.252h-66.52z"/><path fill="#d52221" d="M331.1 343.584q0 .532-.375.907l-3.844 3.812q-.469.406-.906.406-.531 0-.906-.406l-10.782-10.781-10.78 10.781q-.407.406-.938.406-.532 0-.907-.406l-3.812-3.812q-.375-.375-.375-.907 0-.531.375-.906l10.781-10.781-10.781-10.781q-.375-.375-.375-.907 0-.531.375-.906l3.812-3.844q.375-.375.907-.375.5 0 .937.375l10.781 10.782 10.782-10.782q.375-.375.906-.375t.906.375l3.844 3.844q.375.375.375.906 0 .532-.375.907l-10.813 10.78 10.813 10.782q.375.375.375.906z"/><path fill="#673ab7" d="M224.18 137.795h165.449v32.126h-165.45z" fill-rule="evenodd"/><path fill="#fff" d="M245.309 157.075l2.516-9.562h2.812l-4.016 13.265h-2.593l-4.016-13.265h2.828l2.469 9.562zm13.055 3.703q-.094-.187-.156-.422-.063-.234-.11-.5-.203.235-.484.438-.266.187-.61.344-.328.156-.734.234-.39.094-.86.094-.75 0-1.39-.219-.625-.219-1.078-.61-.453-.39-.719-.937-.25-.547-.25-1.187 0-1.547 1.156-2.391 1.172-.86 3.47-.86h1.421v-.593q0-.703-.469-1.11-.468-.421-1.343-.421-.766 0-1.125.328-.36.328-.36.89h-2.531q0-.625.281-1.187.281-.578.813-1 .531-.422 1.297-.672.765-.25 1.765-.25.89 0 1.656.219.782.219 1.344.64.563.422.875 1.079.328.656.328 1.5v4.234q0 .797.094 1.312.094.516.297.891v.156h-2.578zm-2.406-1.781q.375 0 .703-.078.328-.094.593-.234.266-.157.454-.344.203-.188.312-.375v-1.703h-1.297q-.594 0-1.015.125-.422.109-.688.312-.266.203-.39.5-.126.281-.126.625 0 .5.36.844.36.328 1.094.328zm7.976-12.219h5.516v11.938h2.813v2.062h-8.329v-2.062h2.954v-9.86h-2.954v-2.078zm11.337 4.14h5.375v7.798h2.671v2.062h-8.046v-2.062h2.812v-5.719h-2.812v-2.078zm2.625-2.515q0-.297.109-.547.11-.25.297-.421.187-.188.453-.282.281-.11.61-.11.671 0 1.062.392.39.375.39.968 0 .594-.39.969t-1.063.375q-.328 0-.609-.094-.266-.11-.453-.281-.188-.187-.297-.437-.11-.25-.11-.532zm7.633 7.375q0-1.125.265-2.047.266-.937.766-1.593.5-.672 1.203-1.032.719-.359 1.64-.359.782 0 1.36.281.594.266 1.047.782v-5.032h2.547v14h-2.297l-.125-1.031q-.469.578-1.094.906-.625.313-1.453.313-.906 0-1.625-.375-.703-.39-1.203-1.047-.5-.672-.766-1.578-.265-.922-.265-2v-.188zm2.53.188q0 .625.11 1.156.11.531.344.938.234.39.61.625.374.218.906.218.656 0 1.093-.281.438-.281.688-.781v-3.985q-.25-.5-.688-.78-.421-.282-1.078-.282-.53 0-.906.234-.375.235-.625.64-.234.407-.344.954-.11.531-.11 1.156v.188zm9.603-5.047h5.375v7.797h2.672v2.062h-8.047v-2.062h2.812v-5.719h-2.812v-2.078zm2.625-2.516q0-.297.11-.547.108-.25.296-.421.187-.188.453-.282.281-.11.61-.11.671 0 1.062.392.39.375.39.968 0 .594-.39.969t-1.063.375q-.328 0-.609-.094-.266-.11-.453-.281-.188-.187-.297-.437-.11-.25-.11-.532zm12.555.11v2.406h3.672v1.875h-3.672v4.234q0 .532.11.89.124.36.343.579.234.219.562.313.328.078.72.078.296 0 .593-.016.312-.031.594-.062.28-.047.515-.094.25-.047.422-.094l.234 1.734q-.25.157-.609.282-.36.109-.766.172-.39.078-.828.109-.437.047-.843.047-.813 0-1.485-.203-.656-.22-1.125-.672-.469-.453-.734-1.14-.25-.704-.25-1.673v-4.484h-2.25v-1.875h2.25v-2.406h2.547zm10.742 8.125l.297 1.062 2.625-6.781h2.797l-5.016 11.328q-.156.375-.422.813-.25.437-.64.812-.39.375-.953.625-.563.266-1.328.266-.188 0-.344-.016-.156-.016-.297-.047-.14-.015-.281-.047-.141-.031-.313-.078l.313-1.922h.39q.25.016.39.016.298 0 .532-.188.235-.171.39-.39.173-.219.266-.406.11-.172.141-.172l.61-1.157-4.172-9.437h2.78l2.235 5.719zm16.118-.016q-.063 1-.438 1.813-.375.796-1 1.359-.61.562-1.469.875-.843.297-1.89.297-1.172 0-2.094-.422-.906-.438-1.531-1.219-.61-.781-.938-1.875-.328-1.094-.328-2.406v-1.781q0-1.328.344-2.407.344-1.093.984-1.875.64-.796 1.547-1.218.906-.438 2.031-.438 1.094 0 1.938.313.86.312 1.453.89.61.563.953 1.39.36.829.438 1.876h-2.547q-.032-.594-.172-1.031-.14-.453-.422-.75-.266-.297-.672-.453-.406-.157-.969-.157-.593 0-1.03.266-.438.25-.72.75-.28.484-.422 1.203-.14.719-.14 1.625v1.797q0 1.969.547 2.906.562.938 1.75.938 1 0 1.578-.532.594-.53.656-1.734h2.563zm6.851 4.344q-1.14 0-2.078-.375-.922-.375-1.593-1.016-.657-.64-1.016-1.515-.36-.875-.36-1.86v-.375q0-1.125.36-2.047.36-.937.984-1.61.64-.687 1.516-1.046.875-.375 1.906-.375 1.063 0 1.89.344.845.344 1.423.984.578.64.875 1.547.312.89.312 1.969v1.078h-6.687q.062.5.28.922.235.406.579.719.344.296.781.468.453.157.985.157.375 0 .734-.079.375-.078.703-.218.344-.141.64-.344.298-.219.516-.5l1.266 1.375q-.234.328-.625.656-.375.328-.89.578-.516.25-1.141.407-.625.156-1.36.156zm-.296-8.172q-.422 0-.782.156-.36.14-.625.422-.265.281-.453.672-.187.39-.265.875h4.14v-.203q-.015-.39-.156-.75-.125-.36-.39-.61-.25-.265-.626-.406-.36-.156-.843-.156zm7.242-6.016h5.516v11.938h2.812v2.062H353.5v-2.062h2.953v-9.86H353.5v-2.078zm11.196 0h5.515v11.938h2.813v2.062h-8.328v-2.062h2.953v-9.86h-2.953v-2.078z"/><path fill="none" d="M274.983 134.163h66.52v68.252h-66.52z"/><path fill="#d52221" d="M332.795 161.072q0 .532-.375.907l-3.843 3.812q-.47.406-.907.406-.53 0-.906-.406l-10.781-10.781-10.781 10.781q-.407.406-.938.406-.531 0-.906-.406l-3.813-3.812q-.375-.375-.375-.907 0-.53.375-.906l10.782-10.781-10.782-10.781q-.375-.375-.375-.907 0-.53.375-.906l3.813-3.844q.375-.375.906-.375.5 0 .938.375l10.78 10.782 10.782-10.782q.375-.375.906-.375.532 0 .907.375l3.843 3.844q.375.375.375.906 0 .532-.375.907l-10.812 10.781 10.812 10.781q.375.375.375.906z"/></g></svg>