<svg viewBox="0 0 960 540" fill="none" stroke-linecap="square" stroke-miterlimit="10" xmlns="http://www.w3.org/2000/svg"><clipPath id="a"><path d="M0 0h960v540H0V0z"/></clipPath><g clip-path="url(#a)"><path fill="#fff" d="M0 0h960v540H0z" fill-rule="evenodd"/><path fill="#666" d="M25.705 517.365v-1.93h6.463c.066.34.104.746.104 1.184 0 1.447-.397 3.24-1.672 4.515-1.24 1.293-2.827 1.982-4.929 1.982-3.895 0-7.17-3.17-7.17-7.066 0-3.895 3.275-7.066 7.17-7.066 2.154 0 3.689.844 4.843 1.947l-1.361 1.362c-.827-.776-1.948-1.379-3.481-1.379-2.844 0-5.068 2.292-5.068 5.136 0 2.844 2.224 5.136 5.068 5.136 1.844 0 2.895-.741 3.567-1.413.548-.547.908-1.333 1.048-2.407h-4.582zM42.188 518.578c0 2.62-2.05 4.55-4.567 4.55-2.517 0-4.567-1.93-4.567-4.55 0-2.637 2.05-4.55 4.567-4.55 2.516 0 4.567 1.913 4.567 4.55zm-1.999 0c0-1.637-1.189-2.758-2.568-2.758-1.378 0-2.568 1.12-2.568 2.758 0 1.62 1.189 2.758 2.568 2.758s2.568-1.138 2.568-2.758zM52.152 518.578c0 2.62-2.05 4.55-4.567 4.55-2.517 0-4.568-1.93-4.568-4.55 0-2.637 2.051-4.55 4.568-4.55 2.516 0 4.567 1.913 4.567 4.55zm-2 0c0-1.637-1.188-2.758-2.567-2.758-1.379 0-2.568 1.12-2.568 2.758 0 1.62 1.189 2.758 2.568 2.758 1.378 0 2.568-1.138 2.568-2.758zM61.702 514.304v8.17c0 3.36-1.982 4.739-4.326 4.739-2.206 0-3.533-1.483-4.033-2.69l1.74-.723c.311.741 1.069 1.62 2.293 1.62 1.5 0 2.43-.93 2.43-2.67v-.656h-.068c-.449.552-1.31 1.034-2.396 1.034-2.275 0-4.36-1.982-4.36-4.533 0-2.568 2.085-4.567 4.36-4.567 1.086 0 1.947.483 2.396 1.018h.068v-.742h1.896zm-1.758 4.291c0-1.602-1.068-2.775-2.43-2.775-1.379 0-2.533 1.173-2.533 2.775 0 1.586 1.154 2.741 2.533 2.741 1.361 0 2.43-1.155 2.43-2.74zM65.088 509.522v13.33H63.09v-13.33h2zM72.81 520.077l1.55 1.034c-.5.742-1.706 2.017-3.791 2.017-2.586 0-4.516-2-4.516-4.55 0-2.707 1.948-4.551 4.292-4.551 2.361 0 3.516 1.879 3.895 2.896l.207.517-6.084 2.516c.465.914 1.19 1.379 2.206 1.379s1.723-.499 2.24-1.258zm-4.775-1.637l4.067-1.69c-.224-.568-.896-.965-1.689-.965-1.017.001-2.43.897-2.378 2.655z" fill-rule="evenodd"/><path fill="#fff" d="M2.37 495.703h96v44.284h-96z" fill-rule="evenodd"/><path fill="none" d="M79.276 386.207l.063-264.85h45.795l-.063 264.85z"/><path fill="#666" d="M110.014 312.882q0 1.64-.735 2.953-.734 1.297-2.063 2.031-1.328.735-2.984.735-1.672 0-2.969-.735-1.312-.734-2.062-2.03-.75-1.313-.75-2.954.001-1.813.783-3.11.781-1.312 2.203-1.874l1.062 2.546q-1.437.688-1.438 2.438 0 1.281.875 2.11.859.812 2.296.812 1.454 0 2.329-.813.875-.828.875-2.11 0-1.765-1.546-2.562l1.11-2.53q1.437.702 2.234 2 .78 1.296.78 3.093zm.003-12.3q0 1.673-.75 3-.766 1.329-2.079 2.063-1.313.735-2.953.735-1.625 0-2.938-.735-1.328-.734-2.077-2.062-.766-1.328-.765-3 0-1.672.766-2.985.75-1.328 2.079-2.062 1.312-.735 2.937-.735 1.641 0 2.953.735 1.313.734 2.078 2.062.75 1.313.75 2.985zm-2.578 0q0-.812-.374-1.5-.39-.687-1.11-1.093-.734-.406-1.718-.406-.969 0-1.688.406t-1.094 1.094q-.39.687-.39 1.5-.001.797.39 1.484.374.688 1.093 1.11.719.406 1.687.406.954 0 1.704-.407.734-.421 1.125-1.109.375-.687.375-1.484zM98.8 292.67l.001-2.625h1.36v-.172q-.782-.5-1.235-1.39-.468-.891-.468-1.938 0-1.969 1.204-2.984 1.188-1.032 3.25-1.032h6.766v2.797h-6.423q-1.047 0-1.61.532-.577.53-.578 1.5 0 1.125.875 1.828.86.687 2.187.687h5.547v2.797H98.8zm11.223-17.9q0 1.64-.735 2.953-.734 1.296-2.063 2.03-1.328.735-2.984.735-1.672 0-2.969-.734-1.312-.735-2.062-2.031-.75-1.313-.749-2.954 0-1.812.782-3.109.782-1.312 2.204-1.875l1.061 2.547q-1.437.687-1.438 2.437 0 1.282.875 2.11.859.812 2.297.812 1.453 0 2.328-.812.875-.828.875-2.11 0-1.765-1.546-2.562l1.11-2.531q1.437.703 2.234 2 .78 1.297.78 3.093zm.003-11.034q0 1.969-1.22 3-1.218 1.015-3.39 1.015h-6.61l.001-2.796h6.266q1.11 0 1.75-.532.625-.53.625-1.406 0-1.187-.874-1.89-.875-.704-2.219-.704h-5.547v-2.797h10.876v2.625h-1.36v.172q.78.485 1.25 1.375.452.875.452 1.938zm-11.217-8.838l.001-2.625h1.453v-.172q-.765-.406-1.265-1.25-.516-.86-.515-1.89 0-.75.234-1.36h2.797q-.203.578-.297.969-.11.39-.11.843 0 1.235.906 1.97.89.718 2.25.718h5.422v2.797H98.808zm.003-9.107v-2.625h1.453v-.172q-.765-.407-1.265-1.25-.515-.86-.515-1.89 0-.75.235-1.36h2.796q-.203.578-.297.968-.11.391-.11.844 0 1.235.907 1.969.89.719 2.25.719h5.421v2.797H98.812zm11.222-14.217q0 1.625-.75 2.938-.751 1.296-2.064 2.03-1.313.735-2.953.735-1.547 0-2.875-.719-1.344-.734-2.125-2.015-.796-1.281-.796-2.86 0-1.687.735-2.89.72-1.219 1.985-1.844 1.25-.64 2.782-.64.5 0 .937.062l-.002 8.172q1.313-.219 1.985-1.031.656-.829.656-1.97 0-.968-.405-1.655-.422-.688-1.125-1.094l1.11-2.266q2.906 1.656 2.905 5.047zm-7.109-2.578q-.5.047-1 .375-.516.328-.844.922-.328.578-.329 1.375 0 1 .594 1.719.578.703 1.578 1.03l.001-5.421zm-4.108-4.832v-2.625h1.36v-.172q-.781-.5-1.234-1.39-.469-.891-.469-1.938 0-1.969 1.204-2.985 1.188-1.03 3.25-1.03h6.766v2.796h-6.422q-1.047 0-1.61.531-.578.532-.578 1.5 0 1.125.874 1.828.86.688 2.188.688h5.546v2.797H98.817zm11.223-17.9q0 1.64-.735 2.952-.735 1.297-2.063 2.032-1.329.734-2.985.734-1.672 0-2.968-.734-1.313-.735-2.062-2.032-.75-1.312-.75-2.953 0-1.812.782-3.11.782-1.312 2.204-1.874l1.062 2.547q-1.438.687-1.438 2.437 0 1.281.874 2.11.86.812 2.297.812 1.453 0 2.328-.812.875-.829.876-2.11 0-1.765-1.547-2.562l1.11-2.532q1.438.704 2.234 2 .781 1.297.78 3.094zm-.857-10.488l-10.36 4.579v-3.172l6.766-2.813v-.172l-6.764-2.718v-3.11l15.483 6.719v3l-5.125-2.313z"/><path fill="#38761d" d="M146.058 307.646h127.937v59.905H146.058z" fill-rule="evenodd"/><path stroke="#274e13" stroke-linejoin="round" stroke-linecap="butt" d="M146.058 307.646h127.937v59.905H146.058z"/><path fill="#f3f3f3" d="M162.42 333.956q-.657 0-1.126-.469-.469-.469-.469-1.11 0-.655.47-1.109.468-.468 1.124-.468.656 0 1.11.468.453.454.453 1.11 0 .64-.454 1.11-.453.468-1.109.468zm-1.235 1.047h2.437v9.515h-2.437v-9.515zm4.993 0h2.296v1.187h.157q.422-.687 1.203-1.078.797-.406 1.703-.406 1.719 0 2.61 1.047.906 1.047.906 2.86v5.905h-2.454v-5.609q0-.922-.468-1.422-.47-.5-1.297-.5-1 0-1.61.766-.593.765-.593 1.922v4.843h-2.453v-9.515zm15.315 9.672q-.703 0-1.297-.22-.593-.218-.968-.593-.875-.844-.875-2.39v-4.375h-1.672v-2.094h1.672v-2.688h2.437v2.688h2.328v2.094h-2.328v3.937q0 .719.313 1.047.265.297.906.297.344 0 .578-.094.234-.094.61-.328v2.39q-.797.329-1.704.329zm8.127.14q-1.422 0-2.563-.64-1.14-.657-1.781-1.797-.64-1.156-.64-2.594 0-1.36.624-2.531.641-1.172 1.75-1.86 1.125-.687 2.516-.687 1.469 0 2.531.64 1.063.626 1.61 1.735.562 1.094.562 2.437 0 .422-.062.829h-7.141q.187 1.125.906 1.718.719.594 1.719.594.844 0 1.453-.36.61-.374.953-.984l1.985.97q-1.454 2.53-4.422 2.53zm2.25-6.203q-.032-.453-.328-.89-.282-.438-.797-.72-.516-.296-1.203-.296-.875 0-1.5.516-.625.5-.907 1.39h4.735zm4.232-3.61h2.297v1.266h.156q.36-.671 1.094-1.109.75-.437 1.64-.437.657 0 1.204.203v2.453q-.5-.188-.86-.266-.343-.094-.734-.094-1.078 0-1.719.782-.625.78-.625 1.984v4.734h-2.453v-9.515zm7.904 0h2.297v1.157h.14q.391-.61 1.141-1.031.75-.422 1.719-.422 1.281 0 2.328.64 1.062.641 1.656 1.797.594 1.157.594 2.625 0 1.47-.594 2.625-.594 1.141-1.656 1.782-1.047.64-2.328.64-.969 0-1.735-.406-.75-.406-1.125-1.031h-.14l.14 1.344v3.828h-2.437v-13.547zm4.86 7.563q.687 0 1.28-.36.61-.358.954-.983.359-.641.359-1.454 0-.828-.36-1.453-.343-.64-.952-.984-.594-.344-1.282-.344-.672 0-1.265.344-.594.344-.953.984-.344.625-.344 1.453 0 .813.344 1.454.359.625.953.984.593.36 1.265.36zm6.9-7.562h2.297v1.265h.156q.36-.671 1.094-1.109.75-.437 1.64-.437.657 0 1.203.203v2.453q-.5-.188-.859-.266-.344-.094-.734-.094-1.078 0-1.719.782-.625.78-.625 1.984v4.734h-2.453v-9.515zm12.435 9.812q-1.422 0-2.563-.64-1.14-.657-1.78-1.797-.642-1.156-.642-2.594 0-1.36.625-2.531.641-1.172 1.75-1.86 1.125-.687 2.516-.687 1.469 0 2.531.64 1.063.626 1.61 1.735.562 1.094.562 2.437 0 .422-.062.829h-7.14q.187 1.125.905 1.718.72.594 1.72.594.843 0 1.452-.36.61-.374.953-.984l1.985.97q-1.453 2.53-4.422 2.53zm2.25-6.203q-.031-.453-.328-.89-.282-.438-.797-.72-.516-.296-1.203-.296-.875 0-1.5.516-.625.5-.907 1.39h4.735zm8.373 6.063q-.703 0-1.297-.22-.594-.218-.969-.593-.875-.844-.875-2.39v-4.375h-1.672v-2.094h1.672v-2.688h2.438v2.688h2.328v2.094h-2.328v3.937q0 .719.312 1.047.266.297.907.297.343 0 .578-.094.234-.094.61-.328v2.39q-.798.329-1.704.329zm8.126.14q-1.422 0-2.562-.64-1.14-.657-1.781-1.797-.641-1.156-.641-2.594 0-1.36.625-2.531.64-1.172 1.75-1.86 1.125-.687 2.516-.687 1.468 0 2.53.64 1.063.626 1.61 1.735.563 1.094.563 2.437 0 .422-.063.829h-7.14q.187 1.125.906 1.718.719.594 1.719.594.843 0 1.453-.36.61-.374.953-.984l1.984.97q-1.453 2.53-4.422 2.53zm2.25-6.203q-.03-.453-.328-.89-.281-.438-.797-.72-.515-.296-1.203-.296-.875 0-1.5.516-.625.5-.906 1.39h4.734zm4.233-3.61h2.297v1.266h.156q.36-.671 1.094-1.109.75-.437 1.64-.437.657 0 1.203.203v2.453q-.5-.188-.859-.266-.344-.094-.734-.094-1.078 0-1.719.782-.625.78-.625 1.984v4.734h-2.453v-9.515z"/><path fill="#ea4335" d="M736.533 307.646H866.17v59.905H736.533z" fill-rule="evenodd"/><path stroke="#5b0f00" stroke-linejoin="round" stroke-linecap="butt" d="M736.533 307.646H866.17v59.905H736.533z"/><path fill="#f3f3f3" d="M752.977 331.16h2.516v13.358h-2.516V331.16zm9.779 13.655q-1.485 0-2.64-.656-1.157-.672-1.798-1.812-.64-1.157-.64-2.579 0-1.421.64-2.578.64-1.156 1.797-1.812 1.156-.672 2.64-.672 1.454 0 2.61.672 1.156.656 1.797 1.812.64 1.157.64 2.578 0 1.422-.64 2.579-.64 1.14-1.797 1.812-1.156.656-2.61.656zm0-2.25q.703 0 1.297-.328.61-.344.953-.984.36-.64.36-1.485 0-.843-.36-1.468-.344-.64-.953-.97-.594-.343-1.297-.343-.719 0-1.313.344-.593.328-.968.969-.36.625-.36 1.468 0 .829.36 1.485.375.64.968.984.594.328 1.313.328zm6.91-7.562h2.298v1.187h.156q.422-.687 1.203-1.078.797-.406 1.703-.406 1.719 0 2.61 1.047.906 1.047.906 2.86v5.905h-2.453v-5.609q0-.922-.469-1.422-.469-.5-1.297-.5-1 0-1.61.766-.593.765-.593 1.922v4.843h-2.453v-9.515zm11.52-3.844h3.25l3.547 9.39h.14l3.547-9.39h3.266v13.36h-2.5v-6.579l.14-2.234h-.14l-3.39 8.812h-1.97l-3.406-8.812h-.156l.156 2.234v6.578h-2.484V331.16zm21.01 13.656q-1.485 0-2.641-.656-1.157-.672-1.797-1.812-.641-1.157-.641-2.579 0-1.421.64-2.578.641-1.156 1.798-1.812 1.156-.672 2.64-.672 1.453 0 2.61.672 1.156.656 1.796 1.812.641 1.157.641 2.578 0 1.422-.64 2.579-.641 1.14-1.797 1.812-1.157.656-2.61.656zm0-2.25q.702 0 1.296-.328.61-.344.953-.984.36-.64.36-1.485 0-.843-.36-1.468-.344-.64-.953-.97-.594-.343-1.297-.343-.719 0-1.312.344-.594.328-.97.969-.358.625-.358 1.468 0 .829.359 1.485.375.64.969.984.593.328 1.312.328zm6.91-7.562h2.297v1.187h.156q.422-.687 1.203-1.078.797-.406 1.704-.406 1.718 0 2.609 1.047.906 1.047.906 2.86v5.905h-2.453v-5.609q0-.922-.469-1.422-.468-.5-1.297-.5-1 0-1.609.766-.594.765-.594 1.922v4.843h-2.453v-9.515zm11.175-3.844h2.453v7.281h.125l3.422-3.437h3v.156l-3.609 3.516 3.781 5.687v.156h-2.89l-2.594-4.156-1.235 1.203v2.953h-2.453V331.16zm14.898 13.656q-1.422 0-2.563-.64-1.14-.657-1.78-1.797-.641-1.156-.641-2.594 0-1.36.625-2.531.64-1.172 1.75-1.86 1.125-.687 2.515-.687 1.469 0 2.531.64 1.063.626 1.61 1.735.562 1.094.562 2.437 0 .422-.062.829h-7.14q.187 1.125.905 1.718.72.594 1.72.594.843 0 1.452-.36.61-.374.953-.984l1.985.97q-1.453 2.53-4.422 2.53zm2.25-6.203q-.031-.453-.328-.89-.281-.438-.797-.72-.516-.296-1.203-.296-.875 0-1.5.516-.625.5-.906 1.39h4.734zm7.201 5.453l-4-9.062h2.766l2.469 5.922h.156l2.36-5.922h2.734l-5.891 13.547h-2.625l2.031-4.485z"/><path fill="#673ab7" d="M603.72 186.594H737.45V246.5H603.72z" fill-rule="evenodd"/><path stroke="#351c75" stroke-linejoin="round" stroke-linecap="butt" d="M603.72 186.594H737.45V246.5H603.72z"/><path fill="#f3f3f3" d="M622.211 199.108h2.516v13.36h-2.516v-13.36zm9.778 13.656q-1.484 0-2.64-.656-1.156-.672-1.797-1.813-.64-1.156-.64-2.578t.64-2.578q.64-1.156 1.797-1.812 1.156-.672 2.64-.672 1.454 0 2.61.672 1.156.656 1.797 1.812.64 1.156.64 2.578t-.64 2.578q-.641 1.141-1.797 1.813-1.156.656-2.61.656zm0-2.25q.704 0 1.297-.328.61-.344.953-.984.36-.641.36-1.485 0-.844-.36-1.469-.343-.64-.953-.968-.593-.344-1.297-.344-.718 0-1.312.344-.594.328-.969.968-.36.625-.36 1.47 0 .827.36 1.484.375.64.969.984.594.328 1.312.328zm6.912-7.562h2.296v1.187h.157q.422-.687 1.203-1.078.797-.406 1.703-.406 1.719 0 2.61 1.047.906 1.046.906 2.859v5.906h-2.454v-5.61q0-.921-.468-1.421-.47-.5-1.297-.5-1 0-1.61.766-.593.765-.593 1.921v4.844H638.9v-9.515zm11.518-3.844h3.25l3.547 9.39h.14l3.548-9.39h3.265v13.36h-2.5v-6.579l.14-2.234h-.14l-3.39 8.812h-1.97l-3.405-8.812h-.157l.157 2.234v6.578h-2.485v-13.36zm21.01 13.656q-1.485 0-2.64-.656-1.157-.672-1.798-1.813-.64-1.156-.64-2.578t.64-2.578q.64-1.156 1.797-1.812 1.156-.672 2.64-.672 1.454 0 2.61.672 1.156.656 1.797 1.812.64 1.156.64 2.578t-.64 2.578q-.64 1.141-1.797 1.813-1.156.656-2.61.656zm0-2.25q.703 0 1.297-.328.609-.344.953-.984.36-.641.36-1.485 0-.844-.36-1.469-.344-.64-.953-.968-.594-.344-1.297-.344-.719 0-1.313.344-.594.328-.969.968-.359.625-.359 1.47 0 .827.36 1.484.374.64.968.984.594.328 1.313.328zm6.91-7.562h2.298v1.187h.156q.422-.687 1.203-1.078.797-.406 1.703-.406 1.719 0 2.61 1.047.906 1.046.906 2.859v5.906h-2.453v-5.61q0-.921-.469-1.421t-1.297-.5q-1 0-1.61.766-.593.765-.593 1.921v4.844h-2.453v-9.515zm11.176-3.844h2.453v7.281h.125l3.422-3.437h3v.156l-3.61 3.515 3.782 5.688v.156h-2.89l-2.595-4.156-1.234 1.203v2.953h-2.453v-13.36zm14.898 13.656q-1.422 0-2.563-.64-1.14-.657-1.781-1.797-.64-1.157-.64-2.594 0-1.36.624-2.531.64-1.172 1.75-1.86 1.125-.687 2.516-.687 1.469 0 2.531.64 1.063.625 1.61 1.735.562 1.093.562 2.437 0 .422-.063.828h-7.14q.187 1.125.906 1.72.719.593 1.719.593.844 0 1.453-.36.61-.375.953-.984l1.984.969q-1.453 2.531-4.421 2.531zm2.25-6.203q-.032-.453-.329-.89-.28-.438-.796-.72-.516-.296-1.204-.296-.875 0-1.5.515-.625.5-.906 1.391h4.735zm7.2 5.453l-4-9.062h2.766l2.47 5.921h.155l2.36-5.921h2.734l-5.89 13.546h-2.626l2.032-4.484zm6.628.453zM632.978 234.764q-1.484 0-2.64-.656-1.157-.672-1.797-1.813-.641-1.156-.641-2.578t.64-2.578q.641-1.156 1.798-1.812 1.156-.672 2.64-.672 1.453 0 2.61.672 1.156.656 1.796 1.812.641 1.156.641 2.578t-.64 2.578q-.641 1.141-1.797 1.813-1.157.656-2.61.656zm0-2.25q.703 0 1.297-.328.61-.344.953-.984.36-.641.36-1.485 0-.844-.36-1.469-.344-.64-.953-.968-.594-.344-1.297-.344-.719 0-1.312.344-.594.328-.97.968-.358.625-.358 1.47 0 .827.359 1.484.375.64.969.984.593.328 1.312.328zm6.849-7.562h2.297v1.156h.14q.39-.61 1.14-1.031.75-.422 1.72-.422 1.28 0 2.328.64 1.062.641 1.656 1.797.594 1.156.594 2.625t-.594 2.625q-.594 1.14-1.656 1.781-1.047.641-2.328.641-.97 0-1.735-.406-.75-.406-1.125-1.031h-.14l.14 1.343v3.828h-2.437v-13.546zm4.86 7.562q.687 0 1.28-.36.61-.359.954-.984.359-.64.359-1.453 0-.828-.36-1.453-.343-.64-.953-.984-.593-.344-1.28-.344-.673 0-1.266.344-.594.343-.954.984-.343.625-.343 1.453 0 .813.343 1.453.36.625.954.985.593.36 1.265.36zm11.04 2.11q-.703 0-1.297-.22-.593-.218-.968-.593-.875-.844-.875-2.39v-4.376h-1.672v-2.093h1.672v-2.688h2.437v2.688h2.328v2.093h-2.328v3.938q0 .719.313 1.047.265.297.906.297.344 0 .578-.094.234-.094.61-.328v2.39q-.797.328-1.704.328zm5.049-10.72q-.657 0-1.125-.468-.47-.469-.47-1.11 0-.656.47-1.109.468-.469 1.125-.469.656 0 1.11.47.452.452.452 1.109 0 .64-.453 1.109t-1.11.469zm-1.235 1.048h2.438v9.515h-2.438v-9.515zm4.993 0h2.297v1.187h.156q.438-.687 1.188-1.078.765-.406 1.703-.406 1 0 1.75.484.75.469 1.062 1.188.47-.735 1.282-1.204.812-.468 1.906-.468 1.625 0 2.469 1 .86 1 .86 2.687v6.125h-2.423v-5.672q0-.89-.422-1.375-.422-.484-1.172-.484-.953 0-1.53.75-.563.75-.563 1.984v4.797h-2.438v-5.672q0-.89-.437-1.375-.438-.484-1.235-.484-.906 0-1.453.75t-.547 1.984v4.797h-2.453v-9.515zm18.387-1.047q-.657 0-1.125-.469-.47-.469-.47-1.11 0-.656.47-1.109.468-.469 1.125-.469.656 0 1.109.47.453.452.453 1.109 0 .64-.453 1.109t-1.11.469zm-1.235 1.047h2.438v9.515h-2.438v-9.515zm4.509 7.515l4.969-5.437h-4.813v-2.078h7.813v2l-4.954 5.437h5.11v2.078h-8.125v-2zm14.486 2.297q-1.422 0-2.562-.64-1.14-.657-1.782-1.797-.64-1.157-.64-2.594 0-1.36.625-2.531.64-1.172 1.75-1.86 1.125-.687 2.515-.687 1.47 0 2.532.64 1.062.625 1.61 1.735.562 1.093.562 2.437 0 .422-.063.828h-7.14q.187 1.125.906 1.72.718.593 1.718.593.844 0 1.454-.36.609-.375.953-.984l1.984.969q-1.453 2.531-4.422 2.531zm2.25-6.203q-.031-.453-.328-.89-.281-.438-.797-.72-.515-.296-1.203-.296-.875 0-1.5.515-.625.5-.906 1.391h4.734zm4.233-3.61h2.297v1.266h.156q.36-.672 1.094-1.11.75-.437 1.64-.437.656 0 1.203.203v2.454q-.5-.188-.86-.266-.343-.094-.733-.094-1.079 0-1.72.781-.624.782-.624 1.985v4.734h-2.453v-9.515z"/><path fill="#673ab7" d="M273.995 307.635H374.94v59.906H273.995z" fill-rule="evenodd"/><path stroke="#351c75" stroke-linejoin="round" stroke-linecap="butt" d="M273.995 307.635H374.94v59.906H273.995z"/><path fill="#f3f3f3" d="M288.48 320.149h5.22q1.124 0 2.062.468.937.47 1.484 1.266.547.797.547 1.75 0 1.016-.5 1.75t-1.297 1.125v.156q1.047.375 1.657 1.188.625.812.625 1.937 0 1.11-.594 1.953-.578.844-1.578 1.313-1 .453-2.219.453h-5.406v-13.36zm5.032 5.453q.828 0 1.312-.453.5-.47.5-1.157 0-.672-.484-1.125-.469-.453-1.25-.453h-2.594v3.188h2.516zm.281 5.61q.922 0 1.422-.47.516-.484.516-1.25 0-.765-.516-1.25-.516-.484-1.5-.484h-2.719v3.453h2.797zm9.336 2.593q-1.515 0-2.484-.875-.969-.89-.969-2.328 0-.953.5-1.672.5-.735 1.375-1.125.89-.39 1.953-.39 1.47 0 2.516.421v-.406q0-.781-.594-1.266-.578-.484-1.578-.484-.672 0-1.297.312-.625.297-1.03.797l-1.563-1.234q.687-.89 1.734-1.375t2.266-.485q2.187 0 3.328 1.016 1.14 1 1.14 2.938v5.859h-2.406v-.969h-.156q-.422.563-1.125.922-.703.344-1.61.344zm.579-1.906q1.062 0 1.687-.672.625-.688.625-1.594-.953-.453-2-.453-1.906 0-1.906 1.422 0 .578.406.937.422.36 1.188.36zm10.59 1.906q-1.734 0-2.812-.703-1.062-.72-1.5-1.844l2.188-.953q.297.672.843 1.015.547.344 1.282.344.672 0 1.11-.219.452-.218.452-.703 0-.468-.406-.687-.406-.235-1.234-.422l-1.11-.25q-1.156-.281-1.922-1.016-.765-.734-.765-1.843 0-.813.484-1.47.5-.655 1.344-1 .86-.359 1.875-.359 2.953 0 3.937 2.063l-2.078.922q-.562-1-1.797-1-.64 0-1.015.234-.36.219-.36.578 0 .672 1.266 1.016l1.39.328q1.422.36 2.141 1.094.719.719.719 1.781 0 .906-.531 1.61-.532.703-1.453 1.093-.922.39-2.047.39zm10.266 0q-1.422 0-2.563-.64-1.14-.657-1.78-1.798-.642-1.156-.642-2.593 0-1.36.625-2.532.641-1.172 1.75-1.86 1.125-.687 2.516-.687 1.469 0 2.531.641 1.063.625 1.61 1.734.562 1.094.562 2.438 0 .422-.062.828h-7.14q.187 1.125.905 1.719.72.594 1.72.594.843 0 1.452-.36.61-.375.953-.984l1.985.969q-1.453 2.53-4.422 2.53zm2.25-6.203q-.031-.453-.328-.89-.282-.438-.797-.72-.516-.297-1.203-.297-.875 0-1.5.516-.625.5-.907 1.39h4.735zm4.232-7.453h2.453v13.359h-2.453v-13.36zm6.242 2.796q-.657 0-1.125-.468-.47-.47-.47-1.11 0-.656.47-1.11.468-.468 1.125-.468.656 0 1.109.469.453.453.453 1.11 0 .64-.453 1.109-.453.468-1.11.468zm-1.235 1.047h2.438v9.516h-2.438v-9.516zm4.993 0h2.297v1.188h.156q.422-.688 1.203-1.078.797-.407 1.703-.407 1.72 0 2.61 1.047.906 1.047.906 2.86v5.906h-2.453v-5.61q0-.921-.469-1.421t-1.297-.5q-1 0-1.609.765-.594.766-.594 1.922v4.844h-2.453v-9.516zm15.644 9.813q-1.422 0-2.563-.64-1.14-.657-1.78-1.798-.641-1.156-.641-2.593 0-1.36.625-2.532.64-1.172 1.75-1.86 1.125-.687 2.515-.687 1.469 0 2.531.641 1.063.625 1.61 1.734.562 1.094.562 2.438 0 .422-.062.828h-7.14q.187 1.125.905 1.719.72.594 1.72.594.843 0 1.452-.36.61-.375.953-.984l1.985.969q-1.453 2.53-4.422 2.53zm2.25-6.203q-.031-.453-.328-.89-.281-.438-.797-.72-.516-.297-1.203-.297-.875 0-1.5.516-.625.5-.906 1.39h4.734zm3.045 5.906zM290.252 355.805q-1.438 0-2.578-.64-1.14-.641-1.781-1.798-.641-1.156-.641-2.61 0-1.468.64-2.608.641-1.141 1.782-1.797 1.14-.657 2.578-.657 1.578 0 2.719.688 1.14.672 1.64 1.922l-2.234.937q-.594-1.265-2.125-1.265-1.125 0-1.844.765-.719.766-.719 2.016 0 1.266.72 2.031.718.766 1.843.766 1.547 0 2.234-1.344l2.22.969q-.61 1.25-1.75 1.937-1.142.688-2.704.688zm10.768 0q-1.484 0-2.64-.656-1.157-.672-1.797-1.813-.641-1.156-.641-2.578t.64-2.578q.641-1.156 1.798-1.813 1.156-.672 2.64-.672 1.453 0 2.61.672 1.156.657 1.796 1.813.641 1.156.641 2.578t-.64 2.578q-.641 1.14-1.797 1.813-1.157.656-2.61.656zm0-2.25q.703 0 1.297-.328.61-.344.953-.985.36-.64.36-1.484t-.36-1.469q-.344-.64-.953-.969-.594-.343-1.297-.343-.719 0-1.312.343-.594.329-.97.97-.358.624-.358 1.468 0 .828.359 1.484.375.64.969.985.593.328 1.312.328zm6.911-7.563h2.297v1.188h.156q.438-.688 1.188-1.078.765-.407 1.703-.407 1 0 1.75.485.75.469 1.062 1.187.47-.734 1.282-1.203.812-.469 1.906-.469 1.625 0 2.469 1 .86 1 .86 2.688v6.125h-2.423v-5.672q0-.89-.422-1.375-.422-.484-1.172-.484-.953 0-1.53.75-.563.75-.563 1.984v4.797h-2.438v-5.672q0-.89-.437-1.375-.438-.484-1.235-.484-.906 0-1.453.75t-.547 1.984v4.797h-2.453v-9.516zm16.934 0h2.296v1.157h.141q.39-.61 1.14-1.032.75-.422 1.72-.422 1.28 0 2.328.641 1.062.64 1.656 1.797.594 1.156.594 2.625t-.594 2.625q-.594 1.14-1.656 1.781-1.047.64-2.329.64-.968 0-1.734-.405-.75-.407-1.125-1.032h-.14l.14 1.344v3.828h-2.437v-13.547zm4.859 7.563q.687 0 1.281-.36.61-.359.953-.984.36-.64.36-1.453 0-.828-.36-1.453-.343-.64-.953-.985-.594-.343-1.281-.343-.672 0-1.266.343-.593.344-.953.985-.344.625-.344 1.453 0 .812.344 1.453.36.625.953.984.594.36 1.266.36zm8.291-8.61q-.656 0-1.125-.468-.469-.47-.469-1.11 0-.656.47-1.11.468-.468 1.124-.468.656 0 1.11.469.453.453.453 1.11 0 .64-.453 1.109-.454.468-1.11.468zm-1.234 1.047h2.437v9.516h-2.437v-9.516zm4.993-3.843h2.453v13.359h-2.453v-13.36zm9.32 13.656q-1.423 0-2.563-.64-1.141-.657-1.782-1.798-.64-1.156-.64-2.593 0-1.36.625-2.532.64-1.172 1.75-1.86 1.125-.687 2.515-.687 1.47 0 2.532.641 1.062.625 1.609 1.734.562 1.094.562 2.438 0 .422-.062.828h-7.14q.187 1.125.906 1.719.718.594 1.718.594.844 0 1.453-.36.61-.375.954-.984l1.984.969q-1.453 2.53-4.422 2.53zm2.25-6.203q-.032-.453-.329-.89-.281-.438-.797-.72-.516-.297-1.203-.297-.875 0-1.5.516-.625.5-.906 1.39h4.734zm4.232-3.61h2.296v1.266h.157q.359-.672 1.093-1.11.75-.437 1.641-.437.656 0 1.203.203v2.453q-.5-.187-.86-.265-.343-.094-.734-.094-1.078 0-1.718.781-.625.781-.625 1.985v4.734h-2.453v-9.516z"/><path fill="none" d="M592.99 302.303l12.314-50.866"/><path stroke="#351c75" stroke-width="2" stroke-linejoin="round" stroke-linecap="butt" d="M592.99 302.303l9.49-39.203"/><path fill="#351c75" stroke="#351c75" stroke-width="2" stroke-linecap="butt" d="M605.691 263.877l-1.075-9.598-5.346 8.044z" fill-rule="evenodd"/><path fill="none" d="M736.608 249.78l1.638 50.048"/><path stroke="#351c75" stroke-width="2" stroke-linejoin="round" stroke-linecap="butt" d="M736.608 249.78l1.245 38.055"/><path fill="#351c75" stroke="#351c75" stroke-width="2" stroke-linecap="butt" d="M734.552 287.943l3.598 8.963 3.005-9.18z" fill-rule="evenodd"/><path fill="#ff9800" d="M374.94 307.646h94.362v59.905H374.94z" fill-rule="evenodd"/><path stroke="#5b0f00" stroke-linejoin="round" stroke-linecap="butt" d="M374.94 307.646h94.362v59.905H374.94z"/><path fill="#f3f3f3" d="M386.134 331.16h5.219q1.125 0 2.063.468.937.469 1.484 1.265.547.797.547 1.75 0 1.016-.5 1.75-.5.735-1.297 1.125v.157q1.047.375 1.656 1.187.625.813.625 1.938 0 1.11-.594 1.953-.578.844-1.578 1.312-1 .453-2.218.453h-5.407V331.16zm5.032 5.452q.828 0 1.312-.453.5-.469.5-1.156 0-.672-.484-1.125-.47-.453-1.25-.453h-2.594v3.187h2.516zm.28 5.61q.923 0 1.423-.47.515-.484.515-1.25 0-.765-.515-1.25-.516-.484-1.5-.484h-2.72v3.454h2.798zm9.337 2.593q-1.516 0-2.484-.875-.97-.89-.97-2.328 0-.953.5-1.672.5-.734 1.376-1.125.89-.39 1.953-.39 1.469 0 2.516.422v-.407q0-.78-.594-1.265-.578-.485-1.578-.485-.672 0-1.297.313-.625.297-1.031.797l-1.563-1.235q.688-.89 1.734-1.375 1.047-.484 2.266-.484 2.188 0 3.328 1.016 1.14 1 1.14 2.937v5.86h-2.405v-.97h-.157q-.422.563-1.125.923-.703.343-1.609.343zm.578-1.906q1.063 0 1.688-.672.625-.687.625-1.594-.954-.453-2-.453-1.907 0-1.907 1.422 0 .578.407.938.421.36 1.187.36zm10.591 1.906q-1.734 0-2.812-.703-1.063-.719-1.5-1.844l2.187-.953q.297.672.844 1.016.547.344 1.281.344.672 0 1.11-.22.453-.218.453-.702 0-.469-.406-.688-.407-.234-1.235-.422l-1.11-.25q-1.155-.28-1.921-1.015-.766-.735-.766-1.844 0-.812.485-1.469.5-.656 1.343-1 .86-.36 1.875-.36 2.954 0 3.938 2.063l-2.078.922q-.563-1-1.797-1-.64 0-1.016.235-.36.218-.36.578 0 .672 1.267 1.015l1.39.329q1.422.359 2.14 1.093.72.72.72 1.782 0 .906-.532 1.609-.531.703-1.453 1.094-.922.39-2.047.39zm10.265 0q-1.421 0-2.562-.64-1.14-.657-1.781-1.797-.64-1.156-.64-2.594 0-1.36.624-2.531.64-1.172 1.75-1.86 1.125-.687 2.516-.687 1.468 0 2.53.64 1.063.626 1.61 1.735.563 1.094.563 2.437 0 .422-.063.829h-7.14q.187 1.125.906 1.718.719.594 1.719.594.843 0 1.453-.36.61-.374.953-.984l1.984.97q-1.453 2.53-4.422 2.53zm2.25-6.203q-.03-.453-.328-.89-.28-.438-.797-.72-.515-.296-1.203-.296-.875 0-1.5.516-.625.5-.906 1.39h4.734zm4.233-7.453h2.453v13.36H428.7v-13.36zm6.241 2.797q-.656 0-1.125-.469t-.469-1.11q0-.655.47-1.109.468-.468 1.124-.468.656 0 1.11.468.453.454.453 1.11 0 .64-.453 1.11-.454.468-1.11.468zm-1.234 1.047h2.437v9.515h-2.437v-9.515zm4.993 0h2.297v1.187h.156q.422-.687 1.203-1.078.797-.406 1.703-.406 1.719 0 2.61 1.047.906 1.047.906 2.86v5.905h-2.453v-5.609q0-.922-.47-1.422-.468-.5-1.296-.5-1 0-1.61.766-.593.765-.593 1.922v4.843H438.7v-9.515zm15.643 9.812q-1.421 0-2.562-.64-1.14-.657-1.781-1.797-.64-1.156-.64-2.594 0-1.36.624-2.531.64-1.172 1.75-1.86 1.125-.687 2.516-.687 1.468 0 2.531.64 1.062.626 1.61 1.735.562 1.094.562 2.437 0 .422-.063.829h-7.14q.187 1.125.906 1.718.719.594 1.719.594.843 0 1.453-.36.61-.374.953-.984l1.984.97q-1.453 2.53-4.422 2.53zm2.25-6.203q-.03-.453-.328-.89-.28-.438-.797-.72-.515-.296-1.203-.296-.875 0-1.5.516-.625.5-.906 1.39h4.734z"/><path fill="#673ab7" d="M469.302 307.646h122.3v59.905h-122.3z" fill-rule="evenodd"/><path stroke="#351c75" stroke-linejoin="round" stroke-linecap="butt" d="M469.302 307.646h122.3v59.905h-122.3z"/><path fill="#f3f3f3" d="M482.077 320.16h2.516v13.358h-2.516V320.16zm9.779 13.655q-1.485 0-2.641-.656-1.156-.672-1.797-1.812-.64-1.157-.64-2.579 0-1.421.64-2.578.64-1.156 1.797-1.812 1.156-.672 2.64-.672 1.454 0 2.61.672 1.156.656 1.797 1.812.64 1.157.64 2.578 0 1.422-.64 2.579-.64 1.14-1.797 1.812-1.156.656-2.61.656zm0-2.25q.703 0 1.296-.328.61-.344.954-.984.359-.64.359-1.485 0-.843-.36-1.468-.343-.64-.953-.97-.593-.343-1.296-.343-.72 0-1.313.344-.594.328-.969.969-.36.625-.36 1.468 0 .829.36 1.485.375.64.969.984.594.328 1.313.328zm6.91-7.562h2.297v1.187h.157q.422-.687 1.203-1.078.797-.406 1.703-.406 1.719 0 2.61 1.047.906 1.047.906 2.86v5.905h-2.454v-5.609q0-.922-.468-1.422-.469-.5-1.297-.5-1 0-1.61.766-.593.765-.593 1.922v4.843h-2.453v-9.515zm11.52-3.844h3.25l3.546 9.39h.141l3.547-9.39h3.265v13.36h-2.5v-6.579l.141-2.234h-.14l-3.391 8.812h-1.969l-3.406-8.812h-.156l.156 2.234v6.578h-2.485V320.16zm21.009 13.656q-1.485 0-2.64-.656-1.157-.672-1.798-1.812-.64-1.157-.64-2.579 0-1.421.64-2.578.641-1.156 1.797-1.812 1.156-.672 2.64-.672 1.454 0 2.61.672 1.156.656 1.797 1.812.64 1.157.64 2.578 0 1.422-.64 2.579-.64 1.14-1.797 1.812-1.156.656-2.61.656zm0-2.25q.703 0 1.297-.328.61-.344.953-.984.36-.64.36-1.485 0-.843-.36-1.468-.344-.64-.953-.97-.594-.343-1.297-.343-.719 0-1.313.344-.593.328-.968.969-.36.625-.36 1.468 0 .829.36 1.485.375.64.968.984.594.328 1.313.328zm6.91-7.562h2.298v1.187h.156q.422-.687 1.203-1.078.797-.406 1.703-.406 1.719 0 2.61 1.047.906 1.047.906 2.86v5.905h-2.453v-5.609q0-.922-.469-1.422-.469-.5-1.297-.5-1 0-1.61.766-.593.765-.593 1.922v4.843h-2.453v-9.515zm11.176-3.844h2.453v7.281h.125l3.422-3.437h3v.156l-3.61 3.516 3.782 5.687v.156h-2.89l-2.594-4.156-1.235 1.203v2.953h-2.453V320.16zm14.898 13.656q-1.422 0-2.563-.64-1.14-.657-1.781-1.797-.64-1.156-.64-2.594 0-1.36.624-2.531.64-1.172 1.75-1.86 1.125-.687 2.516-.687 1.469 0 2.531.64 1.063.626 1.61 1.735.562 1.094.562 2.437 0 .422-.063.829h-7.14q.187 1.125.906 1.718.719.594 1.719.594.844 0 1.453-.36.61-.374.953-.984l1.984.97q-1.453 2.53-4.421 2.53zm2.25-6.203q-.032-.453-.329-.89-.28-.438-.796-.72-.516-.296-1.204-.296-.875 0-1.5.516-.625.5-.906 1.39h4.735zm7.2 5.453l-4-9.062h2.766l2.47 5.922h.155l2.36-5.922h2.734l-5.89 13.547h-2.625l2.03-4.485zm6.628.453zM492.662 348.097h-1.703v-2.094h1.703v-.516q0-1.625.969-2.547.968-.922 2.546-.922.891 0 1.547.204v2.39q-.359-.156-.64-.234-.266-.078-.61-.078-.625 0-1 .36-.359.358-.359.968v.375h2.328v2.094h-2.328v7.421h-2.453v-7.421zm6.674-2.094h2.297v1.265h.156q.36-.671 1.094-1.109.75-.437 1.64-.437.656 0 1.203.203v2.453q-.5-.188-.86-.266-.343-.094-.733-.094-1.079 0-1.72.782-.624.78-.624 1.984v4.734h-2.453v-9.515zm12.528 9.812q-1.484 0-2.64-.656-1.157-.672-1.797-1.812-.64-1.157-.64-2.579 0-1.421.64-2.578.64-1.156 1.797-1.812 1.156-.672 2.64-.672 1.454 0 2.61.672 1.156.656 1.797 1.812.64 1.157.64 2.578 0 1.422-.64 2.579-.641 1.14-1.797 1.812-1.156.656-2.61.656zm0-2.25q.704 0 1.297-.328.61-.344.953-.984.36-.64.36-1.485 0-.843-.36-1.468-.343-.64-.953-.97-.593-.343-1.297-.343-.718 0-1.312.344-.594.328-.969.969-.36.625-.36 1.468 0 .829.36 1.485.375.64.969.984.594.328 1.312.328zm6.911-7.562h2.297v1.187h.157q.421-.687 1.203-1.078.797-.406 1.703-.406 1.719 0 2.61 1.047.905 1.047.905 2.86v5.905h-2.453v-5.609q0-.922-.468-1.422-.47-.5-1.297-.5-1 0-1.61.766-.593.765-.593 1.922v4.843h-2.454v-9.515zm15.316 9.672q-.703 0-1.297-.22-.593-.218-.968-.593-.875-.844-.875-2.39v-4.375h-1.672v-2.094h1.672v-2.688h2.437v2.688h2.328v2.094h-2.328v3.937q0 .719.313 1.047.265.297.906.297.344 0 .578-.094.234-.094.61-.328v2.39q-.798.329-1.704.329zm8.127.14q-1.422 0-2.563-.64-1.14-.657-1.781-1.797-.64-1.156-.64-2.594 0-1.36.624-2.531.64-1.172 1.75-1.86 1.125-.687 2.516-.687 1.469 0 2.531.64 1.063.626 1.61 1.735.562 1.094.562 2.437 0 .422-.063.829h-7.14q.187 1.125.906 1.718.719.594 1.719.594.844 0 1.453-.36.61-.374.953-.984l1.984.97q-1.453 2.53-4.421 2.53zm2.25-6.203q-.032-.453-.329-.89-.28-.438-.796-.72-.516-.296-1.204-.296-.875 0-1.5.516-.625.5-.906 1.39h4.735zm4.232-3.61h2.297v1.188h.156q.422-.687 1.203-1.078.797-.406 1.703-.406 1.72 0 2.61 1.047.906 1.047.906 2.86v5.905h-2.453v-5.609q0-.922-.469-1.422-.469-.5-1.297-.5-1 0-1.609.766-.594.765-.594 1.922v4.843H548.7v-9.515zm15.269 9.813q-1.281 0-2.344-.64-1.047-.64-1.656-1.782-.61-1.156-.61-2.625 0-1.468.61-2.625.61-1.156 1.656-1.796 1.063-.641 2.344-.641.969 0 1.719.422.75.422 1.14 1.031h.14l-.14-1.344v-3.656h2.422v13.36h-2.281v-1.141h-.14q-.376.625-1.141 1.031-.75.406-1.72.406zm.406-2.25q.688 0 1.281-.36.61-.358.954-.983.359-.641.359-1.454 0-.828-.36-1.453-.343-.64-.953-.984-.593-.344-1.28-.344-.673 0-1.266.344-.594.344-.954.984-.359.625-.359 1.453 0 .813.36 1.454.359.625.953.984.593.36 1.265.36z"/><path fill="#ff9800" d="M591.601 307.646h146.646v59.905H591.6z" fill-rule="evenodd"/><path stroke="#5b0f00" stroke-linejoin="round" stroke-linecap="butt" d="M591.601 307.646h146.646v59.905H591.6z"/><path fill="#f3f3f3" d="M628.937 331.16h5.22q1.124 0 2.062.468.937.469 1.484 1.265.547.797.547 1.75 0 1.016-.5 1.75-.5.735-1.297 1.125v.157q1.047.375 1.656 1.187.625.813.625 1.938 0 1.11-.593 1.953-.579.844-1.579 1.312-1 .453-2.218.453h-5.407V331.16zm5.032 5.452q.828 0 1.312-.453.5-.469.5-1.156 0-.672-.484-1.125-.469-.453-1.25-.453h-2.594v3.187h2.516zm.28 5.61q.923 0 1.423-.47.515-.484.515-1.25 0-.765-.515-1.25-.516-.484-1.5-.484h-2.719v3.454h2.797zm9.337 2.593q-1.516 0-2.484-.875-.969-.89-.969-2.328 0-.953.5-1.672.5-.734 1.375-1.125.89-.39 1.953-.39 1.469 0 2.516.422v-.407q0-.78-.594-1.265-.578-.485-1.578-.485-.672 0-1.297.313-.625.297-1.031.797l-1.563-1.235q.688-.89 1.735-1.375 1.046-.484 2.265-.484 2.188 0 3.328 1.016 1.141 1 1.141 2.937v5.86h-2.406v-.97h-.157q-.421.563-1.125.923-.703.343-1.609.343zm.578-1.906q1.063 0 1.688-.672.625-.687.625-1.594-.953-.453-2-.453-1.907 0-1.907 1.422 0 .578.407.938.422.36 1.187.36zm10.591 1.906q-1.734 0-2.812-.703-1.063-.719-1.5-1.844l2.187-.953q.297.672.844 1.016.547.344 1.281.344.672 0 1.11-.22.453-.218.453-.702 0-.469-.406-.688-.407-.234-1.235-.422l-1.11-.25q-1.155-.28-1.92-1.015-.767-.735-.767-1.844 0-.812.485-1.469.5-.656 1.344-1 .859-.36 1.875-.36 2.953 0 3.937 2.063l-2.078.922q-.563-1-1.797-1-.64 0-1.016.235-.359.218-.359.578 0 .672 1.266 1.015l1.39.329q1.422.359 2.14 1.093.72.72.72 1.782 0 .906-.532 1.609-.53.703-1.453 1.094-.922.39-2.047.39zm10.266 0q-1.422 0-2.563-.64-1.14-.657-1.781-1.797-.64-1.156-.64-2.594 0-1.36.624-2.531.64-1.172 1.75-1.86 1.125-.687 2.516-.687 1.469 0 2.531.64 1.063.626 1.61 1.735.562 1.094.562 2.437 0 .422-.063.829h-7.14q.187 1.125.906 1.718.719.594 1.719.594.844 0 1.453-.36.61-.374.953-.984l1.984.97q-1.453 2.53-4.421 2.53zm2.25-6.203q-.032-.453-.329-.89-.28-.438-.796-.72-.516-.296-1.204-.296-.875 0-1.5.516-.625.5-.906 1.39h4.735zm4.232-7.453h2.453v13.36h-2.453v-13.36zm6.241 2.797q-.656 0-1.125-.469-.468-.469-.468-1.11 0-.655.468-1.109.47-.468 1.125-.468.657 0 1.11.468.453.454.453 1.11 0 .64-.453 1.11-.453.468-1.11.468zm-1.234 1.047h2.437v9.515h-2.437v-9.515zm4.993 0h2.297v1.187h.156q.422-.687 1.203-1.078.797-.406 1.703-.406 1.719 0 2.61 1.047.906 1.047.906 2.86v5.905h-2.453v-5.609q0-.922-.47-1.422-.468-.5-1.296-.5-1 0-1.61.766-.593.765-.593 1.922v4.843h-2.453v-9.515zm15.644 9.812q-1.422 0-2.563-.64-1.14-.657-1.781-1.797-.64-1.156-.64-2.594 0-1.36.624-2.531.64-1.172 1.75-1.86 1.125-.687 2.516-.687 1.469 0 2.531.64 1.063.626 1.61 1.735.562 1.094.562 2.437 0 .422-.062.829h-7.141q.187 1.125.906 1.718.719.594 1.719.594.844 0 1.453-.36.61-.374.953-.984l1.985.97q-1.454 2.53-4.422 2.53zm2.25-6.203q-.032-.453-.328-.89-.282-.438-.797-.72-.516-.296-1.203-.296-.875 0-1.5.516-.625.5-.907 1.39h4.735z"/><path fill="none" d="M189.58 395.446l150.803.095v28.252l-150.803-.095z"/><path fill="#666" d="M246.25 408.265q-.578 0-.985-.407-.406-.407-.406-.985 0-.281.094-.516.094-.234.312-.53l1.391-2.078.938.626-.813 1.25q.375.14.61.468.234.329.234.782 0 .578-.406.984-.391.406-.97.406zm3.5.002q-.578 0-.985-.407-.406-.407-.406-.985 0-.281.094-.515.094-.235.312-.531l1.391-2.078.938.626-.813 1.25q.375.14.61.469.234.328.234.781 0 .578-.406.984-.391.406-.97.406zm3.183-4.248l2.094.001v2.89l-.141 1.422h.14q.344-.577 1.016-.92.672-.36 1.453-.36 1.5.002 2.282.893.796.891.796 2.454v5.078l-2.093-.002v-4.812q0-.781-.422-1.22-.422-.437-1.125-.437-.844 0-1.375.67-.531.672-.531 1.657v4.14l-2.094-.001v-11.453zm13.522 11.711q-1.265 0-2.25-.564-.984-.563-1.546-1.547-.547-.985-.547-2.22 0-1.218.547-2.202.562-1 1.546-1.562.985-.577 2.25-.577 1.25.001 2.235.58 1 .563 1.547 1.563.562.985.562 2.204 0 1.234-.562 2.218-.547.984-1.547 1.546-.985.562-2.235.561zm0-1.937q.61 0 1.125-.28.516-.282.813-.828.312-.547.312-1.281 0-.72-.312-1.266-.297-.547-.813-.829-.515-.297-1.125-.297-.609 0-1.125.296-.5.28-.812.827-.313.547-.313 1.266t.313 1.281q.312.547.812.829.516.281 1.125.282zm9.497 1.818q-.61 0-1.125-.172-.516-.188-.828-.516-.75-.72-.75-2.048v-3.765l-1.422-.001v-1.782l1.422.001v-2.312l2.093.001v2.313h2v1.782l-2-.001v3.39q0 .61.266.891.234.25.781.25.297.001.5-.077t.516-.265v2.047q-.688.265-1.453.264zm2.907-7.951l.921-1.234q-.421-.11-.687-.453-.266-.36-.266-.797 0-.579.407-.985.406-.421.984-.42.578 0 .969.422.406.406.406.984 0 .282-.094.516-.094.234-.297.531l-1.39 2.062-.953-.626zm3.5.002l.921-1.234q-.421-.11-.687-.453-.266-.36-.266-.797 0-.578.407-.984.421-.422.984-.422.578 0 .984.423.407.406.407.985 0 .28-.11.515-.094.234-.297.531l-1.39 2.062-.953-.626z"/><path fill="none" d="M386.113 395.446l150.803.095v28.252l-150.803-.095z"/><path fill="#666" d="M420.799 408.25q-.579 0-.985-.406-.406-.407-.406-.985 0-.281.094-.515.093-.235.312-.531l1.39-2.078.938.626-.812 1.25q.375.14.61.469.234.328.234.781 0 .578-.407.984-.39.406-.968.406zm3.5.003q-.579 0-.985-.407-.406-.406-.406-.985 0-.28.094-.515.093-.234.312-.531l1.39-2.077.938.625-.812 1.25q.375.14.61.469.234.328.234.781 0 .578-.407.984-.39.406-.968.406zm3.183-.951l1.953.001v1.016h.14q.375-.594 1.016-.937.656-.343 1.453-.343.875 0 1.516.423.64.407.906 1.032.406-.64 1.094-1.046.703-.406 1.64-.406 1.391.001 2.11.861.734.86.734 2.313v5.25l-2.078-.001v-4.86q0-.765-.36-1.187-.359-.423-1-.423-.812 0-1.296.656-.485.64-.485 1.702v4.11l-2.109-.002v-4.859q0-.766-.375-1.188-.375-.422-1.063-.422-.765 0-1.234.655-.469.64-.469 1.703v4.11l-2.093-.002v-8.156zm18.466 8.418q-1.265-.001-2.25-.564-.984-.563-1.547-1.548-.546-.985-.546-2.22 0-1.218.546-2.202.563-1 1.547-1.561.985-.578 2.25-.577 1.25 0 2.235.58 1 .562 1.547 1.563.562.985.562 2.203 0 1.235-.562 2.219-.547.984-1.547 1.546-.985.561-2.235.56zm0-1.938q.61 0 1.125-.28.516-.281.813-.828.312-.547.312-1.281 0-.719-.312-1.266-.297-.547-.813-.829-.515-.297-1.125-.297t-1.125.296q-.5.281-.812.828-.313.546-.313 1.265 0 .719.313 1.282.312.547.812.828.516.282 1.125.282zm8.434 1.943q-1.297 0-2.125-.751-.828-.767-.828-2 0-.813.422-1.438.437-.625 1.187-.952.75-.344 1.672-.343 1.266 0 2.156.376v-.36q0-.671-.515-1.078-.5-.422-1.344-.422-.578 0-1.11.265-.53.265-.89.686l-1.344-1.047q.594-.765 1.485-1.187.906-.421 1.953-.42 1.875 0 2.844.876.984.86.984 2.517v5.03h-2.063v-.829h-.125q-.375.469-.984.781-.594.296-1.375.296zm.5-1.625q.906 0 1.438-.577.546-.593.546-1.375-.812-.39-1.718-.391-1.625-.001-1.625 1.217 0 .5.343.813.36.313 1.016.313zm5.992-6.777l1.953.001v1.078h.14q.297-.562.938-.937.64-.39 1.406-.39.563 0 1.031.189v2.093q-.437-.156-.734-.234-.297-.079-.625-.079-.937 0-1.484.671-.532.672-.532 1.703v4.062l-2.093-.001v-8.156zm5.8 8.16zm4.776-11.45h2.093v2.891l-.14 1.422h.14q.344-.578 1.016-.92.672-.36 1.453-.36 1.5.002 2.281.893.797.89.797 2.453v5.078h-2.093v-4.813q0-.782-.422-1.22-.422-.437-1.125-.438-.844 0-1.375.671-.532.672-.532 1.656v4.141l-2.093-.001v-11.453zm13.522 11.711q-1.265 0-2.25-.564-.984-.563-1.547-1.548-.546-.984-.546-2.219 0-1.218.546-2.203.563-1 1.547-1.561.985-.578 2.25-.577 1.25.001 2.235.58 1 .563 1.547 1.563.562.985.562 2.204 0 1.234-.562 2.218-.547.984-1.547 1.546-.985.562-2.235.561zm0-1.937q.61 0 1.125-.28.516-.282.813-.829.312-.546.312-1.28 0-.72-.312-1.266-.297-.547-.813-.83-.515-.296-1.125-.297-.609 0-1.125.297-.5.28-.812.827-.313.547-.313 1.266 0 .718.313 1.281.312.547.812.829.516.281 1.125.282zm9.497 1.818q-.61 0-1.125-.173-.516-.187-.829-.516-.75-.719-.75-2.047v-3.766h-1.421v-1.782l1.421.001v-2.312l2.094.001v2.312l2 .002v1.781l-2-.001v3.39q0 .61.266.891.234.25.781.25.297 0 .5-.077.203-.078.516-.266v2.047q-.688.266-1.453.265zm2.906-7.951l.922-1.234q-.422-.11-.687-.454-.266-.36-.266-.797 0-.578.406-.984.407-.421.985-.421.578 0 .968.422.407.407.407.985 0 .281-.094.516-.094.234-.297.53l-1.39 2.062-.954-.625zm3.5.002l.922-1.234q-.422-.11-.687-.453-.266-.36-.266-.797 0-.579.406-.985.422-.421.985-.42.578 0 .984.422.406.406.406.984 0 .282-.109.516-.094.234-.297.53l-1.39 2.063-.954-.626z"/><path fill="none" d="M125.42 391.357v-275.15"/><path stroke="#666" stroke-width="2" stroke-linejoin="round" stroke-linecap="butt" d="M125.42 391.357v-263.15"/><path fill="#666" stroke="#666" stroke-width="2" stroke-linecap="butt" d="M128.723 128.207l-3.303-9.076-3.304 9.076z" fill-rule="evenodd"/><path fill="none" d="M125.134 390.328l755.59-1.165"/><path stroke="#666" stroke-width="2" stroke-linejoin="round" stroke-linecap="butt" d="M125.134 390.328l743.59-1.147"/><path fill="#666" stroke="#666" stroke-width="2" stroke-linecap="butt" d="M868.73 392.485l9.07-3.318-9.08-3.29z" fill-rule="evenodd"/></g></svg>