<svg viewBox="0 0 960 540" fill="none" stroke-linecap="square" stroke-miterlimit="10" xmlns="http://www.w3.org/2000/svg"><clipPath id="a"><path d="M0 0h960v540H0V0z"/></clipPath><g clip-path="url(#a)"><path fill="#fff" d="M0 0h960v540H0z" fill-rule="evenodd"/><path fill="none" d="M38.514 52.213h729.48v303.622H38.515z"/><path fill="#000" d="M58.14 79.862q.015-1.078-.782-1.828-.781-.766-2.5-1.328-1.094-.344-1.984-.782-.875-.453-1.5-1.062-.625-.625-.969-1.422-.328-.797-.328-1.828 0-.984.297-1.781.297-.797.844-1.39.546-.595 1.312-.954.781-.375 1.734-.484v-2.579h1.75v2.579q1.97.265 3.047 1.656 1.094 1.39 1.11 3.781h-2.157q0-.781-.203-1.437-.187-.672-.562-1.141-.36-.484-.906-.75-.532-.266-1.22-.266-1.421 0-2.155.735-.72.734-.735 1.984 0 .594.188 1.047.187.453.593.828.407.375 1.047.703.64.328 1.547.625 1.094.36 1.969.813.89.437 1.5 1.047.61.593.922 1.375.328.78.328 1.828 0 1.015-.328 1.828-.313.812-.906 1.39-.579.579-1.422.938-.844.344-1.86.453v2.25h-1.75v-2.234q-.906-.094-1.75-.422-.828-.328-1.484-.953-.64-.64-1.031-1.578-.375-.954-.375-2.282h2.156q0 .985.297 1.641.297.64.75 1.031.469.39 1.047.563.593.156 1.187.156.766 0 1.375-.188.61-.187 1.031-.546.422-.36.641-.86.234-.515.234-1.156zm5.417-2.063q0-1.406.344-2.593.344-1.203 1-2.047.656-.86 1.594-1.344.937-.484 2.125-.484 1.172 0 2.047.422.89.421 1.515 1.203l.11-1.39h1.969v12.421q0 1.25-.391 2.219-.39.984-1.11 1.656-.703.687-1.687 1.031-.984.36-2.187.36-.485 0-1.125-.125-.625-.11-1.282-.36-.64-.25-1.25-.672-.61-.422-1.031-1.047l1.125-1.296q.39.484.813.812.421.344.859.531.437.203.86.282.437.093.874.093.766 0 1.39-.218.626-.22 1.063-.657.438-.422.672-1.062.235-.625.235-1.453v-1.078q-.625.718-1.5 1.109-.86.375-1.985.375-1.172 0-2.11-.484-.937-.5-1.593-1.36-.64-.875-1-2.047-.344-1.187-.344-2.547v-.25zm2.172.25q0 .922.188 1.766.203.828.61 1.469.421.625 1.062 1 .64.36 1.547.36.562 0 1.015-.126.453-.14.813-.39.359-.25.64-.579.282-.343.485-.75v-5.812q-.203-.406-.485-.734-.281-.329-.656-.563-.36-.25-.812-.375-.438-.14-.97-.14-.921 0-1.577.374-.641.375-1.063 1.016-.406.64-.61 1.484-.187.829-.187 1.75v.25zm18.23 6.438q-1.327 0-2.452-.453-1.125-.469-1.922-1.281-.797-.829-1.25-1.954-.438-1.125-.438-2.437v-.5q0-1.531.485-2.734.5-1.22 1.312-2.063.828-.844 1.86-1.281 1.03-.453 2.124-.453 1.375 0 2.391.484 1.031.469 1.703 1.313.688.828 1.016 1.968.344 1.141.344 2.47v.968h-9.063q.031.86.328 1.625.313.765.828 1.344.516.562 1.235.89.734.328 1.625.328 1.156 0 2.047-.468.906-.47 1.515-1.25l1.313 1.03q-.313.485-.797.923-.469.437-1.094.781-.61.344-1.406.547-.781.203-1.703.203zm-.28-11.375q-.657 0-1.25.25-.579.234-1.047.703-.47.453-.797 1.14-.313.673-.438 1.548h6.813v-.172q-.032-.625-.235-1.25-.203-.625-.609-1.11-.39-.5-1-.797-.61-.312-1.438-.312zm14.214-4.61v3.063h4.828v1.688h-4.828v6.89q0 .735.188 1.219.187.469.515.766.329.28.75.406.438.11.922.11.344 0 .72-.032.374-.047.733-.11.36-.062.672-.124.313-.063.5-.11l.313 1.531q-.266.172-.656.297-.391.125-.844.203-.453.094-.969.141-.516.047-1.016.047-.843 0-1.578-.234-.734-.25-1.28-.766-.532-.531-.845-1.344-.297-.828-.297-2v-6.89h-3.328v-1.688h3.328v-3.062h2.172zm14.559 5.376l3.672-6.688h2.562l-4.953 8.453 5.063 8.61h-2.532l-3.765-6.829-3.781 6.829h-2.579l5.094-8.61-4.953-8.453h2.531l3.64 6.688z"/><path fill="#e67c73" d="M146.429 75.112h-10.47v-1.89h10.47v1.89zm0 4.86h-10.47v-1.876h10.47v1.875z"/><path fill="#000" d="M168.014 84.253v-11h-3.5v-1.688h3.5v-.89q0-1.22.344-2.126.36-.921 1.016-1.546t1.562-.938q.922-.312 2.047-.312.766 0 1.5.125.735.125 1.5.328l-.25 1.797q-.484-.172-1.125-.297-.64-.125-1.36-.125-1.53.015-2.296.781-.766.766-.766 2.312v.891h4.89v1.688h-4.89v11h-2.172zm10.57-6.454q0-1.375.391-2.546.407-1.188 1.141-2.047.75-.875 1.812-1.375 1.063-.5 2.407-.5 1.343 0 2.406.5 1.078.5 1.828 1.375.75.86 1.14 2.047.407 1.171.407 2.546v.25q0 1.375-.406 2.547-.39 1.172-1.14 2.047-.75.86-1.813 1.36-1.063.484-2.407.484-1.343 0-2.422-.484-1.062-.5-1.812-1.36-.734-.875-1.14-2.047-.391-1.172-.391-2.547v-.25zm2.157.25q0 .938.219 1.797.234.844.687 1.485.453.64 1.125 1.015.688.375 1.578.375.891 0 1.563-.375.687-.375 1.125-1.015.453-.64.672-1.485.234-.859.234-1.797v-.25q0-.937-.234-1.78-.219-.845-.672-1.485-.453-.656-1.125-1.031-.672-.391-1.578-.391-.907 0-1.578.39-.657.376-1.11 1.032-.453.64-.687 1.484-.219.844-.219 1.781v.25zm12.246-.25q0-1.375.39-2.546.407-1.188 1.141-2.047.75-.875 1.813-1.375 1.062-.5 2.406-.5t2.406.5q1.078.5 1.828 1.375.75.86 1.141 2.047.406 1.171.406 2.546v.25q0 1.375-.406 2.547-.39 1.172-1.14 2.047-.75.86-1.813 1.36-1.063.484-2.406.484-1.344 0-2.422-.484-1.063-.5-1.813-1.36-.734-.875-1.14-2.047-.39-1.172-.39-2.547v-.25zm2.156.25q0 .938.22 1.797.233.844.687 1.485.453.64 1.125 1.015.687.375 1.578.375.89 0 1.562-.375.688-.375 1.125-1.015.453-.64.672-1.485.234-.859.234-1.797v-.25q0-.937-.234-1.78-.219-.845-.672-1.485-.453-.656-1.125-1.031-.672-.391-1.578-.391t-1.578.39q-.656.376-1.11 1.032-.453.64-.687 1.484-.219.844-.219 1.781v.25z"/><path fill="#e67c73" d="M211.764 82.846q0-.359.11-.656.11-.312.312-.531.22-.235.532-.36.328-.125.75-.125.421 0 .734.125.328.125.547.36.219.219.328.531.11.297.11.656 0 .344-.11.641-.11.297-.328.516-.219.218-.547.343-.313.125-.734.125-.422 0-.75-.125-.313-.125-.532-.343-.203-.22-.312-.516-.11-.297-.11-.64z"/><path fill="#000" d="M221.995 77.8q0-1.407.344-2.594.343-1.203 1-2.047.656-.86 1.593-1.344.938-.484 2.125-.484 1.172 0 2.047.422.89.421 1.516 1.203l.11-1.39h1.968v12.421q0 1.25-.39 2.219-.391.984-1.11 1.656-.703.687-1.687 1.031-.985.36-2.188.36-.484 0-1.125-.125-.625-.11-1.281-.36-.64-.25-1.25-.672-.61-.422-1.031-1.047l1.125-1.296q.39.484.812.812.422.344.86.531.437.203.859.282.437.093.875.093.765 0 1.39-.218.625-.22 1.063-.657.437-.422.672-1.062.234-.625.234-1.453v-1.078q-.625.718-1.5 1.109-.86.375-1.984.375-1.172 0-2.11-.484-.937-.5-1.593-1.36-.641-.875-1-2.047-.344-1.187-.344-2.547v-.25zm2.172.25q0 .921.187 1.765.203.828.61 1.469.422.625 1.062 1 .64.36 1.547.36.563 0 1.016-.126.453-.14.812-.39.36-.25.64-.579.282-.343.485-.75v-5.812q-.203-.406-.484-.734-.281-.329-.656-.563-.36-.25-.813-.375-.437-.14-.969-.14-.922 0-1.578.374-.64.375-1.062 1.016-.407.64-.61 1.484-.187.829-.187 1.75v.25zm18.23 6.437q-1.328 0-2.453-.453-1.125-.469-1.922-1.281-.797-.829-1.25-1.954-.437-1.125-.437-2.437v-.5q0-1.531.484-2.734.5-1.22 1.313-2.063.828-.844 1.859-1.281 1.031-.453 2.125-.453 1.375 0 2.39.484 1.032.469 1.704 1.313.687.828 1.015 1.968.344 1.141.344 2.47v.968h-9.062q.03.86.328 1.625.312.765.828 1.344.515.562 1.234.89.735.328 1.625.328 1.156 0 2.047-.468.906-.47 1.516-1.25l1.312 1.03q-.312.485-.797.923-.468.437-1.093.781-.61.344-1.407.547-.78.203-1.703.203zm-.281-11.375q-.656 0-1.25.25-.578.234-1.047.703-.469.453-.797 1.14-.312.673-.437 1.548h6.812v-.172q-.031-.625-.234-1.25t-.61-1.11q-.39-.5-1-.797-.609-.312-1.437-.312zm14.215-4.61v3.063h4.828v1.688h-4.828v6.89q0 .735.187 1.219.188.469.516.766.328.28.75.406.437.11.922.11.344 0 .719-.032.375-.047.734-.11.36-.062.672-.124.312-.063.5-.11l.312 1.531q-.265.172-.656.297-.39.125-.844.203-.453.094-.968.141-.516.047-1.016.047-.844 0-1.578-.234-.735-.25-1.281-.766-.532-.531-.844-1.344-.297-.828-.297-2v-6.89h-3.328v-1.688h3.328v-3.062h2.172zm14.558 5.376l3.672-6.688h2.563l-4.953 8.453 5.062 8.61h-2.531l-3.766-6.829-3.78 6.829h-2.58l5.095-8.61-4.953-8.453h2.53l3.641 6.688z"/><path fill="#e67c73" d="M283.776 72.846q0-.359.11-.656.109-.312.312-.531.219-.235.531-.36.328-.125.75-.125t.735.125q.328.125.547.36.218.219.328.531.109.297.109.656 0 .344-.11.641-.109.297-.327.516-.22.218-.547.343-.313.125-.735.125t-.75-.125q-.312-.125-.531-.343-.203-.22-.312-.516-.11-.297-.11-.64zm3.719 10.907q0 .546-.14 1.14-.126.61-.391 1.203-.266.594-.641 1.125-.375.547-.86.97l-1.343-.735q.562-.828.797-1.75.234-.922.234-1.922V81.69h2.344v2.063z"/><path fill="#ff9800" d="M585.774 378.596c0-6.283 5.093-11.376 11.376-11.376h142.068a11.376 11.376 0 0 1 11.375 11.376v45.5c0 6.283-5.093 11.376-11.375 11.376H597.15c-6.283 0-11.376-5.093-11.376-11.375z" fill-rule="evenodd"/><path stroke="#666" stroke-linejoin="round" stroke-linecap="butt" d="M585.774 378.596c0-6.283 5.093-11.376 11.376-11.376h142.068a11.376 11.376 0 0 1 11.375 11.376v45.5c0 6.283-5.093 11.376-11.375 11.376H597.15c-6.283 0-11.376-5.093-11.376-11.375z"/><path fill="#fff" d="M639.74 405.993q0-.5-.188-.937-.172-.453-.594-.828-.421-.39-1.109-.703-.672-.329-1.687-.594-1.235-.344-2.36-.844-1.125-.516-1.984-1.219-.86-.718-1.375-1.672-.516-.953-.516-2.187 0-1.203.5-2.172.516-.984 1.406-1.672.907-.687 2.125-1.062 1.22-.375 2.657-.375 1.484 0 2.703.437 1.234.422 2.125 1.203.89.782 1.375 1.844.5 1.063.5 2.344h-3.563q-.03-.64-.234-1.172-.203-.531-.61-.906-.39-.39-.984-.61-.578-.218-1.375-.218-.734 0-1.297.187-.562.172-.953.484-.39.313-.594.75-.203.438-.203.954 0 .53.266.968.266.422.766.766.515.344 1.234.64.719.282 1.64.516 1.298.39 2.391.938 1.094.547 1.875 1.297.797.734 1.235 1.703.437.953.437 2.125 0 1.25-.516 2.218-.5.97-1.39 1.641-.875.672-2.094 1.016-1.219.343-2.672.343-.89 0-1.781-.171-.89-.157-1.719-.485-.812-.344-1.515-.844-.704-.515-1.22-1.187-.5-.688-.796-1.547-.297-.86-.297-1.906h3.594q.031.86.297 1.484.281.61.765 1 .485.39 1.172.578.688.172 1.5.172.735 0 1.297-.172.563-.172.953-.468.39-.297.594-.72.219-.421.219-.937zm9.902-7.187q.703-1.031 1.703-1.61 1.016-.593 2.266-.593 1.11 0 2.031.343.922.329 1.578 1.032.672.687 1.047 1.797.375 1.093.375 2.64v8.531h-3.625V402.4q0-.766-.187-1.313-.188-.547-.547-.875-.344-.344-.844-.5-.484-.172-1.11-.172-.921 0-1.593.328-.656.328-1.094.907v10.171h-3.625v-20h3.625v7.86zm21.184 12.14q-.14-.265-.234-.593-.078-.344-.156-.72-.297.33-.688.61-.39.282-.875.5-.469.22-1.047.344-.562.125-1.219.125-1.078 0-1.984-.312-.906-.313-1.562-.875-.657-.563-1.016-1.329-.36-.78-.36-1.687 0-2.234 1.657-3.453 1.656-1.219 4.953-1.219h2.016v-.828q0-1.016-.672-1.61-.657-.593-1.907-.593-1.109 0-1.625.484-.5.469-.5 1.266h-3.609q0-.906.39-1.703.407-.813 1.157-1.422.766-.61 1.86-.969 1.109-.36 2.53-.36 1.266 0 2.36.313 1.11.313 1.906.922.813.61 1.266 1.547.469.922.469 2.156v6.031q0 1.141.14 1.891.14.734.406 1.266v.218h-3.656zm-3.453-2.53q.547 0 1.016-.126.468-.14.843-.344.375-.218.641-.484.281-.266.438-.531v-2.422h-1.844q-.844 0-1.453.156-.594.156-.97.453-.374.297-.562.703-.187.407-.187.891 0 .734.516 1.219.515.484 1.562.484zm23.293-4.376q0 1.531-.36 2.844-.358 1.312-1.062 2.281-.687.953-1.718 1.5-1.016.547-2.344.547-1.14 0-2-.39-.86-.391-1.5-1.094v6.64h-3.61v-19.5h3.344l.125 1.375q.657-.78 1.532-1.203.89-.437 2.078-.437 1.343 0 2.359.515 1.031.516 1.734 1.47.704.937 1.063 2.265.36 1.312.36 2.906v.281zm-3.61-.281q0-.875-.171-1.656-.156-.782-.5-1.344-.344-.563-.89-.89-.547-.329-1.313-.329-.953 0-1.563.375-.593.375-.937 1.047v5.89q.344.657.937 1.063.61.39 1.594.39.766 0 1.297-.327.547-.344.89-.922.344-.594.5-1.375.157-.781.157-1.64v-.282zm13.794 7.453q-1.625 0-2.953-.531-1.328-.547-2.281-1.453-.953-.922-1.469-2.157-.516-1.25-.516-2.671v-.516q0-1.625.5-2.953.516-1.328 1.422-2.297.922-.969 2.172-1.5t2.719-.531q1.516 0 2.703.5 1.203.5 2.031 1.422.828.906 1.25 2.187.438 1.281.438 2.828v1.531h-9.563q.11.72.422 1.313.328.594.813 1.031.5.422 1.14.656.64.235 1.39.235.532 0 1.063-.094.532-.11 1-.312.485-.204.907-.5.422-.313.734-.704l1.797 1.954q-.328.468-.875.937-.531.469-1.281.828-.735.344-1.641.563-.89.234-1.922.234zm-.437-11.687q-.61 0-1.125.218-.5.22-.891.625-.375.407-.64.97-.25.546-.391 1.233h5.937v-.28q-.015-.579-.218-1.079-.188-.516-.563-.875-.36-.375-.89-.594-.532-.218-1.22-.218z"/><path fill="#bdbdbd" d="M596.782 435.65h142.583v59.717H596.782z" fill-rule="evenodd"/><path stroke="#666" stroke-linejoin="round" stroke-linecap="butt" d="M596.782 435.65h142.583v59.717H596.782z"/><path fill="#000" d="M654.126 457.346l-.25 4.312h-1.61v-5.609h1.86v1.297zm14.027 8.719l3.39-4.703h2.532l-4.719 6.28 4.86 6.407H671.7l-3.5-4.828-3.5 4.828h-2.531l4.844-6.406-4.72-6.281h2.5l3.36 4.703zm14.778-8.72l-.25 4.313h-1.61v-5.609h1.86v1.297z"/><path fill="#34a853" d="M333.375 398.294c0-6.282 5.093-11.375 11.376-11.375h166.225a11.376 11.376 0 0 1 11.376 11.375v45.501c0 6.283-5.093 11.376-11.376 11.376H344.751c-6.283 0-11.376-5.093-11.376-11.376z" fill-rule="evenodd"/><path stroke="#666" stroke-linejoin="round" stroke-linecap="butt" d="M333.375 398.294c0-6.282 5.093-11.375 11.376-11.375h166.225a11.376 11.376 0 0 1 11.376 11.375v45.501c0 6.283-5.093 11.376-11.376 11.376H344.751c-6.283 0-11.376-5.093-11.376-11.376z"/><path fill="#fff" d="M374.519 400.692h3.656l.016 13.14q-.016 1.344-.516 2.469-.5 1.11-1.375 1.922-.86.797-2.047 1.25-1.172.437-2.531.437-1.422 0-2.594-.36-1.172-.374-2.016-1.093-.843-.719-1.312-1.812-.469-1.094-.484-2.578h3.671q.016 1.53.672 2.218.672.672 2.063.672.625 0 1.14-.234.532-.235.891-.656.375-.422.563-1 .203-.579.203-1.235v-13.14zm16.902 14q0-.5-.187-.938-.172-.453-.594-.828-.422-.39-1.11-.703-.671-.328-1.687-.594-1.234-.344-2.36-.844-1.124-.515-1.984-1.219-.859-.718-1.375-1.671-.515-.953-.515-2.188 0-1.203.5-2.172.515-.984 1.406-1.672.906-.687 2.125-1.062 1.219-.375 2.656-.375 1.485 0 2.703.437 1.235.422 2.125 1.204.891.78 1.375 1.843.5 1.063.5 2.344h-3.562q-.031-.64-.234-1.172-.204-.531-.61-.906-.39-.39-.984-.61-.578-.218-1.375-.218-.735 0-1.297.187-.563.172-.953.485-.39.312-.594.75-.203.437-.203.953 0 .531.266.969.265.421.765.765.516.344 1.235.64.718.282 1.64.516 1.297.391 2.39.938 1.095.547 1.876 1.297.797.734 1.234 1.703.438.953.438 2.125 0 1.25-.516 2.219-.5.968-1.39 1.64-.876.672-2.094 1.016-1.219.344-2.672.344-.89 0-1.781-.172-.891-.156-1.72-.485-.812-.343-1.515-.843-.703-.516-1.219-1.188-.5-.687-.796-1.547-.297-.86-.297-1.906h3.593q.032.86.297 1.484.282.61.766 1 .484.391 1.172.579.687.171 1.5.171.734 0 1.297-.171.562-.172.953-.47.39-.296.594-.718.218-.422.218-.938zm19.372-3.125q0 1.812-.485 3.359-.468 1.531-1.39 2.64-.907 1.11-2.22 1.735-1.296.61-2.937.61-1.64 0-2.921-.61-1.266-.625-2.141-1.734-.875-1.125-1.328-2.657-.453-1.531-.453-3.344v-2.765q0-1.828.453-3.36.453-1.53 1.328-2.64.875-1.125 2.14-1.75 1.266-.625 2.907-.625 1.656 0 2.953.625 1.312.625 2.219 1.75.922 1.11 1.39 2.64.485 1.532.485 3.36v2.766zm-3.703-2.797q0-1.157-.188-2.125-.187-.985-.594-1.688-.406-.703-1.047-1.094-.625-.39-1.515-.39-.89 0-1.485.39-.593.391-.968 1.094-.36.703-.516 1.688-.156.968-.156 2.125v2.797q0 1.14.156 2.125.156.968.516 1.687.375.719.968 1.125.594.39 1.5.39.875 0 1.5-.39.641-.406 1.032-1.11.406-.718.593-1.687.204-.984.204-2.14v-2.797zm19.308 3.984q0 1.563-.359 2.89-.344 1.313-1.031 2.266-.688.938-1.719 1.469-1.016.531-2.39.531-1.235 0-2.141-.453-.906-.469-1.547-1.312l-.172 1.5h-3.266v-20h3.625v7.187q.625-.719 1.47-1.125.859-.406 2-.406 1.39 0 2.421.531t1.719 1.485q.687.953 1.031 2.28.36 1.313.36 2.876v.281zm-3.625-.281q0-.86-.14-1.625-.125-.766-.438-1.344-.312-.578-.86-.922-.546-.344-1.374-.344-.984 0-1.61.422-.609.422-.953 1.14v5.61q.344.735.954 1.156.625.407 1.64.407.813 0 1.344-.313.547-.328.86-.89.312-.563.437-1.328.14-.782.14-1.688v-.281zm9.09-6.906h7.204v14.406q0 1.406-.407 2.406-.39 1.016-1.171 1.672-.766.656-1.875.969-1.094.312-2.516.312-.594 0-1.188-.047-.593-.047-1.14-.172l.172-2.937q.156.031.437.062.281.032.578.047.297.031.563.031.265.016.39.016.532 0 .985-.125.469-.11.797-.39.328-.266.515-.72.203-.452.203-1.124V408.52h-3.546v-2.953zm3.297-3.61q0-.422.141-.781.156-.36.422-.61.281-.25.656-.39.39-.14.86-.14.953 0 1.515.546.578.531.578 1.375t-.578 1.39q-.562.532-1.515.532-.47 0-.86-.14-.375-.141-.656-.391-.266-.266-.422-.61-.14-.359-.14-.78zm17.372 17.953q-1.625 0-2.953-.531-1.329-.547-2.282-1.453-.953-.922-1.468-2.156-.516-1.25-.516-2.672v-.516q0-1.625.5-2.953.516-1.328 1.422-2.297.922-.969 2.172-1.5t2.718-.531q1.516 0 2.704.5 1.203.5 2.03 1.422.829.906 1.25 2.187.438 1.281.438 2.828v1.532h-9.562q.11.718.422 1.312.328.594.812 1.031.5.422 1.14.657.641.234 1.391.234.532 0 1.063-.094.531-.11 1-.312.484-.203.906-.5.422-.313.735-.703l1.796 1.953q-.328.469-.875.937-.53.469-1.28.828-.735.344-1.641.563-.891.234-1.922.234zm-.438-11.687q-.61 0-1.125.219-.5.218-.89.625-.375.406-.641.968-.25.547-.39 1.235h5.937v-.282q-.016-.578-.219-1.078-.187-.515-.562-.875-.36-.375-.891-.594-.531-.218-1.219-.218zm15.825 8.797q.547 0 1.015-.157.485-.156.844-.437.375-.297.578-.703.203-.406.172-.89h3.406q.032 1.093-.453 2.03-.469.938-1.297 1.61-.812.672-1.906 1.062-1.078.375-2.281.375-1.64 0-2.89-.547-1.235-.546-2.063-1.515-.813-.969-1.25-2.25-.422-1.297-.422-2.781v-.391q0-1.484.422-2.781.422-1.297 1.25-2.25.828-.97 2.062-1.532 1.235-.562 2.86-.562 1.296 0 2.406.39 1.11.391 1.906 1.11.797.703 1.234 1.719.454 1 .422 2.25h-3.406q.031-.516-.156-.985-.188-.469-.547-.812-.344-.344-.844-.547-.484-.203-1.062-.203-.86 0-1.422.36-.563.343-.89.937-.329.578-.47 1.343-.14.75-.14 1.563v.39q0 .813.125 1.579.14.765.469 1.343.328.579.89.938.578.344 1.438.344zm16.402-14.907v3.454h5.266v2.656h-5.266v6.062q0 .766.172 1.281.188.516.5.829.328.297.797.437.469.125 1.031.125.422 0 .86-.031.437-.047.828-.11.406-.062.75-.124.344-.063.578-.125l.36 2.484q-.376.219-.891.39-.5.157-1.078.25-.563.11-1.188.157-.625.062-1.219.062-1.156 0-2.11-.297-.937-.312-1.608-.953-.672-.64-1.032-1.64-.36-1-.36-2.391v-6.406h-3.218v-2.656h3.219v-3.454h3.61zM414.805 443.965v-7.985h-2.594v-1.875h2.594v-.531q0-.984.312-1.719.313-.75.875-1.265.578-.516 1.39-.766.829-.266 1.844-.266.313 0 .61.032.297.015.578.062.281.031.562.078.297.047.61.094l-.172 1.984q-.344-.062-.781-.109-.438-.062-1.032-.062-1.187 0-1.718.5-.532.5-.532 1.437v.531h3.547v1.875h-3.547v7.985h-2.546zm8.398-5.016q0-1.078.313-1.984.312-.922.906-1.594.594-.688 1.453-1.063.86-.375 1.969-.375 1.125 0 1.984.375.86.375 1.453 1.063.61.672.907 1.594.312.906.312 1.984v.188q0 1.078-.312 2-.297.921-.891 1.593-.594.672-1.469 1.047-.86.375-1.953.375-1.125 0-2-.375-.86-.375-1.453-1.047-.594-.672-.906-1.593-.313-.922-.313-2v-.188zm2.531.188q0 .625.11 1.171.125.532.375.938.265.406.672.64.406.235.984.235.547 0 .938-.234.406-.235.656-.641t.375-.938q.125-.546.125-1.171v-.188q0-.61-.125-1.14-.125-.547-.375-.954-.25-.406-.656-.64-.391-.235-.97-.235-.562 0-.968.235-.39.234-.656.64-.25.407-.375.953-.11.532-.11 1.141v.188zm8.665-.188q0-1.078.312-1.984.313-.922.907-1.594.593-.688 1.453-1.063.859-.375 1.968-.375 1.125 0 1.985.375.86.375 1.453 1.063.61.672.906 1.594.313.906.313 1.984v.188q0 1.078-.313 2-.297.921-.89 1.593-.594.672-1.47 1.047-.859.375-1.952.375-1.125 0-2-.375-.86-.375-1.453-1.047-.594-.672-.907-1.593-.312-.922-.312-2v-.188zm2.531.188q0 .625.11 1.171.124.532.374.938.266.406.672.64.407.235.985.235.547 0 .937-.234.406-.235.656-.641t.375-.938q.125-.546.125-1.171v-.188q0-.61-.125-1.14-.125-.547-.375-.954-.25-.406-.656-.64-.39-.235-.969-.235-.562 0-.968.235-.391.234-.657.64-.25.407-.375.953-.109.532-.109 1.141v.188z"/><path fill="#bdbdbd" d="M345.996 455.348h163.496v59.717H345.996z" fill-rule="evenodd"/><path stroke="#666" stroke-linejoin="round" stroke-linecap="butt" d="M345.996 455.348h163.496v59.717H345.996z"/><path fill="#000" d="M406.111 477.996v3.063h4.829v1.687h-4.829v6.89q0 .735.188 1.22.188.468.516.765.328.281.75.406.437.11.921.11.344 0 .72-.031.374-.047.734-.11.359-.062.671-.125.313-.062.5-.11l.313 1.532q-.266.172-.656.297t-.844.203q-.453.094-.969.14-.515.048-1.015.048-.844 0-1.579-.235-.734-.25-1.28-.765-.532-.532-.845-1.344-.296-.828-.296-2v-6.89h-3.329v-1.688h3.329v-3.063h2.171zm17.575 2.828q.312 0 .64.032.328.015.625.062.297.031.547.094.25.047.422.125l-.297 2.125q-.625-.14-1.203-.203-.562-.078-1.187-.078-1.516 0-2.47.703-.937.687-1.39 1.922v8.14h-2.172V481.06h2.063l.11 2.015q.765-1.03 1.843-1.64 1.094-.61 2.469-.61zm14.324 11.172q-.625.938-1.578 1.469-.953.516-2.188.516-1 0-1.812-.313-.813-.312-1.39-.969-.563-.656-.876-1.672-.312-1.015-.312-2.421v-7.547h2.172v7.562q0 1.031.156 1.719.172.672.5 1.078t.797.578q.484.156 1.093.156 1.329 0 2.141-.53.813-.548 1.219-1.47v-9.093h2.172v12.687h-1.97l-.124-1.75zm11.777 1.985q-1.328 0-2.453-.454-1.125-.468-1.922-1.28-.797-.829-1.25-1.954-.437-1.125-.437-2.437v-.5q0-1.532.484-2.735.5-1.219 1.313-2.062.828-.844 1.859-1.282 1.031-.453 2.125-.453 1.375 0 2.39.485 1.032.468 1.704 1.312.687.828 1.015 1.969.344 1.14.344 2.469v.968h-9.062q.03.86.328 1.625.312.766.828 1.344.516.563 1.234.89.735.329 1.625.329 1.157 0 2.047-.469.906-.469 1.516-1.25l1.312 1.031q-.312.485-.797.922-.468.438-1.093.782-.61.343-1.407.546-.78.204-1.703.204zm-.281-11.375q-.656 0-1.25.25-.578.234-1.047.703-.469.453-.797 1.14-.312.672-.437 1.547h6.812v-.172q-.031-.625-.234-1.25t-.61-1.109q-.39-.5-1-.797-.609-.312-1.437-.312z"/><path fill="none" d="M522.352 421.045c15.855 0 23.782-4.922 31.711-9.843 7.93-4.921 15.861-9.842 31.722-9.842"/><path stroke="#595959" stroke-width="4" stroke-linejoin="round" stroke-linecap="butt" d="M522.352 421.045c15.855 0 23.782-4.922 31.711-9.843 1.982-1.23 3.965-2.46 6.071-3.614a62.152 62.152 0 0 1 1.605-.85l.59-.294"/><path fill="#595959" stroke="#595959" stroke-width="4" stroke-linecap="butt" d="M563.73 412.9l16.34-10.302-19.14-2.611z" fill-rule="evenodd"/><path fill="#34a853" d="M333.375 191.453c0-6.283 5.093-11.376 11.376-11.376h166.225a11.376 11.376 0 0 1 11.376 11.376v45.5c0 6.283-5.093 11.376-11.376 11.376H344.751c-6.283 0-11.376-5.093-11.376-11.375z" fill-rule="evenodd"/><path stroke="#666" stroke-linejoin="round" stroke-linecap="butt" d="M333.375 191.453c0-6.283 5.093-11.376 11.376-11.376h166.225a11.376 11.376 0 0 1 11.376 11.376v45.5c0 6.283-5.093 11.376-11.376 11.376H344.751c-6.283 0-11.376-5.093-11.376-11.375z"/><path fill="#fff" d="M374.519 193.85h3.656l.016 13.14q-.016 1.345-.516 2.47-.5 1.109-1.375 1.922-.86.796-2.047 1.25-1.172.437-2.531.437-1.422 0-2.594-.36-1.172-.374-2.016-1.093-.843-.719-1.312-1.813-.469-1.093-.484-2.578h3.671q.016 1.532.672 2.219.672.672 2.063.672.625 0 1.14-.234.532-.235.891-.657.375-.422.563-1 .203-.578.203-1.234v-13.14zm16.902 14q0-.5-.187-.937-.172-.453-.594-.828-.422-.391-1.11-.703-.671-.329-1.687-.594-1.234-.344-2.36-.844-1.124-.516-1.984-1.219-.859-.718-1.375-1.672-.515-.953-.515-2.187 0-1.203.5-2.172.515-.984 1.406-1.672.906-.687 2.125-1.062 1.219-.375 2.656-.375 1.485 0 2.703.437 1.235.422 2.125 1.203.891.782 1.375 1.844.5 1.063.5 2.344h-3.562q-.031-.64-.234-1.172-.204-.531-.61-.906-.39-.391-.984-.61-.578-.218-1.375-.218-.735 0-1.297.187-.563.172-.953.484-.39.313-.594.75-.203.438-.203.954 0 .53.266.968.265.422.765.766.516.344 1.235.64.718.282 1.64.516 1.297.39 2.39.938 1.095.547 1.876 1.297.797.734 1.234 1.703.438.953.438 2.125 0 1.25-.516 2.218-.5.97-1.39 1.641-.876.672-2.094 1.016-1.219.343-2.672.343-.89 0-1.781-.171-.891-.157-1.72-.485-.812-.344-1.515-.844-.703-.515-1.219-1.187-.5-.688-.796-1.547-.297-.86-.297-1.906h3.593q.032.86.297 1.484.282.61.766 1 .484.39 1.172.578.687.172 1.5.172.734 0 1.297-.172.562-.172.953-.468.39-.297.594-.72.218-.421.218-.937zm19.372-3.125q0 1.813-.485 3.36-.468 1.53-1.39 2.64-.907 1.11-2.22 1.735-1.296.609-2.937.609-1.64 0-2.921-.61-1.266-.624-2.141-1.734-.875-1.125-1.328-2.656-.453-1.531-.453-3.344v-2.765q0-1.828.453-3.36.453-1.531 1.328-2.64.875-1.125 2.14-1.75 1.266-.625 2.907-.625 1.656 0 2.953.625 1.312.625 2.219 1.75.922 1.109 1.39 2.64.485 1.532.485 3.36v2.765zm-3.703-2.797q0-1.156-.188-2.125-.187-.984-.594-1.687-.406-.703-1.047-1.094-.625-.39-1.515-.39-.89 0-1.485.39-.593.39-.968 1.094-.36.703-.516 1.687-.156.97-.156 2.125v2.797q0 1.14.156 2.125.156.969.516 1.688.375.719.968 1.125.594.39 1.5.39.875 0 1.5-.39.641-.406 1.032-1.11.406-.718.593-1.687.204-.984.204-2.14v-2.798zm19.308 3.985q0 1.562-.359 2.89-.344 1.313-1.031 2.266-.688.938-1.719 1.469-1.016.531-2.39.531-1.235 0-2.141-.453-.906-.469-1.547-1.313l-.172 1.5h-3.266v-20h3.625v7.188q.625-.719 1.47-1.125.859-.406 2-.406 1.39 0 2.421.53 1.031.532 1.719 1.485.687.953 1.031 2.282.36 1.312.36 2.875v.28zm-3.625-.281q0-.86-.14-1.625-.125-.766-.438-1.344-.312-.578-.86-.922-.546-.344-1.374-.344-.984 0-1.61.422-.609.422-.953 1.14v5.61q.344.734.954 1.156.625.407 1.64.407.813 0 1.344-.313.547-.328.86-.89.312-.563.437-1.329.14-.781.14-1.687v-.281zm9.09-6.907h7.204v14.407q0 1.406-.407 2.406-.39 1.015-1.171 1.672-.766.656-1.875.968-1.094.313-2.516.313-.594 0-1.188-.047-.593-.047-1.14-.172l.172-2.937q.156.03.437.062.281.031.578.047.297.031.563.031.265.016.39.016.532 0 .985-.125.469-.11.797-.39.328-.266.515-.72.203-.453.203-1.124v-11.454h-3.546v-2.953zm3.297-3.61q0-.421.141-.78.156-.36.422-.61.281-.25.656-.39.39-.141.86-.141.953 0 1.515.547.578.531.578 1.375t-.578 1.39q-.562.532-1.515.532-.47 0-.86-.14-.375-.141-.656-.391-.266-.266-.422-.61-.14-.36-.14-.781zm17.372 17.954q-1.625 0-2.953-.531-1.329-.547-2.282-1.453-.953-.922-1.468-2.157-.516-1.25-.516-2.671v-.516q0-1.625.5-2.953.516-1.328 1.422-2.297.922-.969 2.172-1.5t2.718-.531q1.516 0 2.704.5 1.203.5 2.03 1.422.829.906 1.25 2.187.438 1.281.438 2.828v1.531h-9.562q.11.72.422 1.313.328.594.812 1.031.5.422 1.14.656.641.235 1.391.235.532 0 1.063-.094.531-.11 1-.312.484-.204.906-.5.422-.313.735-.704l1.796 1.954q-.328.468-.875.937-.53.469-1.28.828-.735.344-1.641.563-.891.234-1.922.234zm-.438-11.687q-.61 0-1.125.218-.5.219-.89.625-.375.407-.641.969-.25.547-.39 1.234h5.937v-.28q-.016-.579-.219-1.079-.187-.516-.562-.875-.36-.375-.891-.594-.531-.218-1.219-.218zm15.825 8.796q.547 0 1.015-.156.485-.156.844-.437.375-.297.578-.703.203-.407.172-.891h3.406q.032 1.094-.453 2.031-.469.938-1.297 1.61-.812.671-1.906 1.062-1.078.375-2.281.375-1.64 0-2.89-.547-1.235-.547-2.063-1.515-.813-.97-1.25-2.25-.422-1.297-.422-2.782v-.39q0-1.485.422-2.782.422-1.296 1.25-2.25.828-.968 2.062-1.53 1.235-.563 2.86-.563 1.296 0 2.406.39t1.906 1.11q.797.703 1.234 1.718.454 1 .422 2.25h-3.406q.031-.515-.156-.984-.188-.469-.547-.812-.344-.344-.844-.547-.484-.203-1.062-.203-.86 0-1.422.359-.563.344-.89.937-.329.579-.47 1.344-.14.75-.14 1.563v.39q0 .813.125 1.578.14.766.469 1.344.328.578.89.938.578.343 1.438.343zm16.402-14.906v3.453h5.266v2.657h-5.266v6.062q0 .766.172 1.281.188.516.5.828.328.297.797.438.469.125 1.031.125.422 0 .86-.031.437-.047.828-.11.406-.062.75-.125.344-.062.578-.125l.36 2.485q-.376.218-.891.39-.5.157-1.078.25-.563.11-1.188.157-.625.062-1.219.062-1.156 0-2.11-.297-.937-.312-1.608-.953-.672-.64-1.032-1.64-.36-1-.36-2.391v-6.406h-3.218v-2.657h3.219v-3.453h3.61zM356.264 237.123v-13.265h4.453q1.094 0 1.969.219.89.218 1.516.671.64.438.984 1.125.344.688.344 1.61-.016.937-.5 1.672-.485.734-1.438 1.125.578.14.985.437.422.281.703.688.281.39.406.859.14.469.14.969 0 .953-.327 1.687-.329.735-.938 1.235-.61.484-1.484.734-.875.234-1.97.234h-4.843zm2.578-5.843v3.78h2.266q1.047-.015 1.594-.515.562-.515.562-1.328.016-.906-.5-1.422-.5-.515-1.547-.515h-2.375zm0-1.86h1.89q1.079 0 1.642-.437.578-.438.593-1.281 0-.938-.578-1.344-.578-.406-1.656-.406h-1.89v3.468zm14.883 7.703q-.093-.187-.156-.421-.062-.235-.11-.5-.202.234-.484.437-.265.188-.609.344-.328.156-.734.234-.391.094-.86.094-.75 0-1.39-.219-.625-.219-1.079-.61-.453-.39-.718-.937-.25-.547-.25-1.187 0-1.547 1.156-2.39 1.172-.86 3.469-.86h1.422v-.594q0-.703-.47-1.11-.468-.421-1.343-.421-.766 0-1.125.328-.36.328-.36.89h-2.53q0-.624.28-1.187.282-.578.813-1 .531-.422 1.297-.672.766-.25 1.766-.25.89 0 1.656.219.781.219 1.344.64.562.422.875 1.079.328.656.328 1.5v4.234q0 .797.094 1.313.093.515.296.89v.156h-2.578zm-2.406-1.78q.375 0 .703-.079.328-.094.594-.234.266-.157.453-.344.203-.188.313-.375v-1.703h-1.297q-.594 0-1.016.125-.422.11-.687.312-.266.203-.391.5-.125.282-.125.625 0 .5.36.844.359.328 1.093.328zm14.524-8.25q.578 0 1.062.077.485.063.797.157l-.375 2.53q-.5-.124-1.031-.171-.516-.063-1-.063-1.063 0-1.703.407-.64.406-.969 1.172v5.921h-2.531v-9.859h2.36l.124 1.61q.594-.829 1.438-1.297.843-.485 1.828-.485zm6.68 8.562q0-.36.11-.657.124-.312.343-.53.234-.22.562-.345.329-.14.75-.14.407 0 .735.14.328.125.547.344.218.219.343.531.125.297.125.657 0 .343-.125.656-.125.297-.343.516-.22.218-.547.343-.328.14-.735.14-.421 0-.75-.14-.328-.125-.562-.343-.219-.22-.344-.516-.11-.313-.11-.656zm17.492-3.375q0 1.078-.25 2-.25.922-.75 1.593-.484.672-1.203 1.063-.719.375-1.64.375-.797 0-1.407-.266-.594-.281-1.031-.781v4.656h-2.531v-13.656h2.328l.094.969q.453-.547 1.078-.844.625-.297 1.453-.297.937 0 1.656.36.719.359 1.203 1.015.5.656.75 1.578t.25 2.047v.188zm-2.531-.188q0-.61-.125-1.156-.11-.547-.36-.938-.234-.406-.609-.625-.375-.234-.906-.234-.672 0-1.094.266-.422.265-.656.734v4.11q.234.468.656.75.422.28 1.11.28.53 0 .906-.234.39-.25.625-.656.234-.406.344-.953.109-.547.109-1.156v-.188zm11.946-5q.578 0 1.062.078.484.063.797.157l-.375 2.53q-.5-.124-1.031-.171-.516-.063-1-.063-1.063 0-1.703.407-.641.406-.97 1.172v5.921h-2.53v-9.859h2.359l.125 1.61q.594-.829 1.437-1.297.844-.485 1.829-.485zm3.773 5.016q0-1.078.313-1.985.312-.921.906-1.593.594-.688 1.453-1.063.86-.375 1.969-.375 1.125 0 1.984.375.86.375 1.453 1.063.61.672.907 1.593.312.907.312 1.985v.187q0 1.078-.312 2-.297.922-.891 1.594-.594.672-1.469 1.047-.86.375-1.953.375-1.125 0-2-.375-.86-.375-1.453-1.047-.594-.672-.906-1.594-.313-.922-.313-2v-.187zm2.531.187q0 .625.11 1.172.125.531.375.938.265.406.672.64.406.235.984.235.547 0 .938-.235.406-.234.656-.64.25-.407.375-.938.125-.547.125-1.172v-.187q0-.61-.125-1.14-.125-.548-.375-.954-.25-.406-.656-.64-.391-.235-.97-.235-.562 0-.968.234-.39.235-.656.641-.25.406-.375.953-.11.531-.11 1.14v.188zm13.665-7.437v2.406h3.672v1.875h-3.672v4.234q0 .532.11.891.124.36.343.578.234.219.562.313.329.078.72.078.296 0 .593-.016.312-.031.594-.062.28-.047.515-.094.25-.047.422-.094l.235 1.735q-.25.156-.61.28-.36.11-.765.173-.391.078-.829.109-.437.047-.843.047-.813 0-1.485-.203-.656-.219-1.125-.672-.468-.453-.734-1.14-.25-.704-.25-1.673v-4.484h-2.25v-1.875h2.25v-2.406h2.547zm6.195 7.25q0-1.078.313-1.985.312-.921.906-1.593.594-.688 1.453-1.063.86-.375 1.969-.375 1.125 0 1.984.375.86.375 1.453 1.063.61.672.907 1.593.312.907.312 1.985v.187q0 1.078-.312 2-.297.922-.89 1.594-.595.672-1.47 1.047-.859.375-1.953.375-1.125 0-2-.375-.86-.375-1.453-1.047-.594-.672-.906-1.594-.313-.922-.313-2v-.187zm2.532.187q0 .625.109 1.172.125.531.375.938.266.406.672.64.406.235.984.235.547 0 .938-.235.406-.234.656-.64.25-.407.375-.938.125-.547.125-1.172v-.187q0-.61-.125-1.14-.125-.548-.375-.954-.25-.406-.656-.64-.39-.235-.969-.235-.563 0-.969.234-.39.235-.656.641-.25.406-.375.953-.11.531-.11 1.14v.188zm13.664-7.437v2.406h3.672v1.875h-3.672v4.234q0 .532.11.891.124.36.343.578.234.219.563.313.328.078.718.078.297 0 .594-.016.313-.031.594-.062.281-.047.515-.094.25-.047.422-.094l.235 1.735q-.25.156-.61.28-.36.11-.765.173-.39.078-.828.109-.438.047-.844.047-.813 0-1.485-.203-.656-.219-1.125-.672-.468-.453-.734-1.14-.25-.704-.25-1.673v-4.484h-2.25v-1.875h2.25v-2.406h2.547zm10.742 8.125l.297 1.062 2.625-6.781h2.797l-5.015 11.328q-.157.375-.422.813-.25.437-.641.812-.39.375-.953.625-.563.266-1.328.266-.188 0-.344-.016-.156-.015-.297-.047-.14-.015-.281-.047-.14-.03-.313-.078l.313-1.922h.39q.25.016.391.016.297 0 .531-.187.235-.172.391-.391.172-.219.266-.406.109-.172.14-.172l.61-1.156-4.172-9.438h2.781l2.234 5.719zm15.852-.703q0 1.078-.25 2-.25.922-.75 1.593-.484.672-1.203 1.063-.719.375-1.64.375-.797 0-1.407-.266-.594-.281-1.031-.781v4.656h-2.531v-13.656h2.328l.094.969q.453-.547 1.078-.844.625-.297 1.453-.297.937 0 1.656.36.719.359 1.203 1.015.5.656.75 1.578t.25 2.047v.188zm-2.531-.188q0-.61-.125-1.156-.11-.547-.36-.938-.234-.406-.609-.625-.375-.234-.906-.234-.672 0-1.094.266-.422.265-.656.734v4.11q.234.468.656.75.422.28 1.11.28.53 0 .906-.234.39-.25.625-.656.234-.406.344-.953.109-.547.109-1.156v-.188zm9.649 5.219q-1.14 0-2.078-.375-.922-.375-1.594-1.016-.656-.64-1.016-1.515-.36-.875-.36-1.86v-.375q0-1.125.36-2.047.36-.937.985-1.609.64-.687 1.515-1.047.875-.375 1.906-.375 1.063 0 1.891.344.844.344 1.422.984t.875 1.547q.312.89.312 1.969v1.078h-6.687q.062.5.281.922.235.406.578.719.344.297.782.468.453.157.984.157.375 0 .734-.078.375-.079.703-.22.344-.14.641-.343.297-.219.516-.5l1.265 1.375q-.234.328-.625.656-.375.328-.89.578-.516.25-1.14.407-.626.156-1.36.156zm-.297-8.172q-.422 0-.781.156-.36.14-.625.422-.266.281-.454.672-.187.39-.265.875h4.14v-.203q-.015-.39-.156-.75-.125-.36-.39-.61-.25-.265-.625-.406-.36-.156-.844-.156z"/><path fill="#bdbdbd" d="M345.996 248.507h163.496v59.716H345.996z" fill-rule="evenodd"/><path stroke="#666" stroke-linejoin="round" stroke-linecap="butt" d="M345.996 248.507h163.496v59.716H345.996z"/><path fill="#000" d="M379.579 264.02h1.719v9.234q-.016.922-.36 1.703-.328.766-.906 1.328-.562.547-1.344.875-.78.313-1.703.313-.922 0-1.687-.282-.766-.28-1.328-.812-.547-.531-.891-1.266-.344-.75-.422-1.656h1.719q.015.547.219 1.031.203.469.53.828.345.344.813.532.47.187 1.047.187.61 0 1.078-.219.47-.218.797-.593.344-.391.516-.891.172-.516.203-1.078v-9.235zm11.914 9.906q0-.61-.281-1.016-.281-.422-.719-.703-.437-.297-.968-.484-.516-.188-1-.344-.704-.235-1.422-.547-.72-.328-1.328-.781-.594-.47-.97-1.094-.374-.64-.374-1.5t.375-1.531q.375-.672.984-1.14.61-.47 1.375-.704.781-.25 1.578-.25.86 0 1.657.297.812.281 1.421.812.625.516 1 1.25.375.735.391 1.64h-1.734q-.078-.562-.282-1.03-.203-.47-.562-.813-.344-.344-.828-.515-.469-.188-1.063-.188-.484 0-.953.14-.453.126-.812.407-.36.266-.578.672-.22.39-.22.922.016.578.298.984.28.39.718.672.438.266.938.453.5.172.953.313.484.156.984.359.5.187.97.437.468.25.859.579.406.312.703.718.312.407.468.89.172.485.172 1.08 0 .89-.406 1.562-.39.671-1.016 1.109-.625.437-1.421.672-.782.219-1.579.219-.89 0-1.734-.266-.844-.281-1.516-.797-.671-.516-1.093-1.25-.407-.75-.438-1.703h1.719q.078.625.328 1.11.266.468.656.812.407.328.922.5.531.156 1.156.156.485 0 .97-.125.484-.125.843-.375.375-.266.61-.656.25-.406.25-.953zm11.633-2.5h-5.53v5.86h-1.704v-13.267h8.156v1.438h-6.453v4.547h5.531v1.422zm10.212 4.5q-.5.734-1.235 1.14-.734.407-1.703.407-.781 0-1.406-.235-.625-.25-1.078-.765-.438-.516-.688-1.297-.234-.782-.234-1.89v-5.86h1.687v5.875q0 .812.125 1.343.125.516.375.829.266.312.625.453.375.125.86.125 1.03 0 1.656-.422.64-.422.953-1.125v-7.078h1.688v9.86h-1.532l-.093-1.36zm6.304-8.5l.125 1.453q.532-.766 1.313-1.188.781-.437 1.75-.437.781 0 1.406.219.64.218 1.078.687.453.453.688 1.172.25.719.25 1.687v6.266h-1.688v-6.219q0-.656-.156-1.11-.14-.452-.422-.733-.281-.297-.703-.422-.406-.125-.953-.125-.844 0-1.484.422-.641.421-1.032 1.125v7.062h-1.687v-9.86h1.515zm13.884 8.672q.453 0 .89-.141.438-.14.766-.406.344-.266.547-.61.203-.36.218-.765h1.594q-.015.656-.344 1.265-.328.594-.89 1.047-.563.438-1.281.719-.72.266-1.5.266-1.11 0-1.954-.407-.843-.406-1.406-1.078-.547-.687-.844-1.562-.28-.89-.28-1.875v-.39q0-.97.28-1.86.297-.89.844-1.563.563-.687 1.406-1.078.844-.406 1.954-.406.875 0 1.609.281.734.266 1.266.75.53.469.828 1.125.312.656.312 1.406h-1.594q-.015-.453-.203-.843-.187-.391-.515-.688-.313-.312-.75-.484-.438-.172-.953-.172-.782 0-1.313.312-.531.313-.86.828-.327.5-.468 1.141-.14.625-.14 1.25v.39q0 .641.14 1.282.14.625.453 1.14.328.5.86.813.53.313 1.328.313zm10.992-11.063v2.39h3.75v1.313h-3.75v5.344q0 .578.14.953.141.375.391.594.266.219.594.312.344.094.719.094.265 0 .547-.031.297-.031.578-.078.281-.047.515-.094.25-.047.407-.094l.234 1.203q-.219.125-.516.22-.296.093-.656.155-.344.078-.75.11-.39.047-.781.047-.656 0-1.234-.188-.563-.187-.985-.594-.422-.406-.672-1.047-.234-.64-.234-1.562v-5.344h-2.578v-1.312h2.578v-2.39h1.703zm7.461 2.39h5.047v8.407h3.219v1.453h-8.266v-1.453h3.36v-6.938h-3.36v-1.468zm3.14-2.577q0-.422.25-.704.25-.296.766-.296.5 0 .75.296.25.282.25.704 0 .406-.25.687-.25.266-.75.266-.515 0-.765-.266-.25-.281-.25-.687zm7.321 7.421q0-1.062.313-1.984.312-.922.89-1.594.579-.672 1.407-1.047.828-.39 1.86-.39 1.046 0 1.874.39.844.375 1.422 1.047.578.672.89 1.594.313.922.313 1.984v.204q0 1.062-.312 1.968-.313.907-.891 1.594-.578.672-1.406 1.063-.828.375-1.86.375-1.046 0-1.89-.375-.828-.391-1.406-1.063-.579-.687-.891-1.594-.313-.906-.313-1.968v-.204zm1.688.204q0 .718.172 1.39.172.656.515 1.156.36.5.891.797.531.282 1.234.282.688 0 1.204-.282.53-.297.875-.797.359-.5.53-1.156.173-.672.173-1.39v-.204q0-.718-.188-1.375-.172-.671-.531-1.171-.344-.5-.875-.797-.516-.297-1.219-.297-.703 0-1.219.297-.515.297-.875.797-.343.5-.515 1.171-.172.657-.172 1.375v.204zm11.492-5.047l.125 1.453q.532-.766 1.313-1.188.781-.437 1.75-.437.781 0 1.406.219.64.218 1.078.687.453.453.688 1.172.25.719.25 1.687v6.266h-1.688v-6.219q0-.656-.156-1.11-.14-.452-.422-.733-.281-.297-.703-.422-.406-.125-.953-.125-.844 0-1.485.422-.64.421-1.03 1.125v7.062h-1.688v-9.86h1.515zM412.654 290.587q0-.781.188-1.438.203-.671.562-1.14.375-.485.89-.75.516-.266 1.173-.266.656 0 1.14.235.5.234.844.656l.063-.766h1.093v6.89q0 .704-.218 1.235-.22.547-.625.922-.391.375-.938.563-.547.203-1.203.203-.281 0-.64-.063-.344-.047-.704-.187-.36-.141-.703-.375-.328-.235-.562-.578l.625-.735q.218.266.453.453.234.188.468.297.25.11.485.156.25.063.484.063.422 0 .766-.125.36-.125.594-.375.25-.234.375-.594.14-.344.14-.797v-.61q-.36.407-.844.626-.468.203-1.109.203-.64 0-1.156-.266-.516-.28-.89-.75-.36-.484-.563-1.14-.188-.656-.188-1.406v-.141zm1.203.14q0 .516.11.985.11.453.343.812.235.344.579.547.359.203.875.203.312 0 .562-.078.25-.078.438-.203.203-.14.359-.328.156-.187.281-.422v-3.219q-.125-.234-.281-.406-.156-.187-.36-.312-.203-.141-.453-.22-.234-.077-.546-.077-.5 0-.86.219-.36.203-.594.562-.234.344-.343.813-.11.468-.11.984v.14zm10.14 3.563q-.75 0-1.376-.25-.61-.25-1.062-.703-.438-.453-.688-1.078-.25-.625-.25-1.375v-.266q0-.86.266-1.531.281-.672.734-1.125.453-.469 1.031-.719.578-.25 1.188-.25.75 0 1.312.266.578.265.953.734.375.453.563 1.094.187.625.187 1.36v.546h-5.03q.03.485.187.906.172.422.453.735.297.312.687.5.407.172.907.172.64 0 1.14-.25.5-.266.828-.688l.735.563q-.172.265-.438.515-.265.25-.61.438-.343.187-.78.297-.438.109-.938.109zm-.157-6.312q-.375 0-.703.14-.313.125-.578.39-.266.25-.454.626-.171.375-.234.86h3.781v-.079q-.015-.36-.14-.703-.11-.344-.328-.61-.22-.28-.563-.453-.328-.171-.781-.171zm7.889-2.563v1.703h2.687v.938h-2.687v3.828q0 .406.093.672.11.265.297.437.188.156.422.219.235.062.5.062.203 0 .406-.015l.407-.063q.203-.031.375-.062.172-.047.28-.063l.173.844q-.156.094-.375.172-.203.062-.469.11-.25.046-.531.062-.281.031-.563.031-.468 0-.875-.125-.406-.14-.703-.422-.297-.297-.484-.75-.172-.469-.172-1.11v-3.827h-1.844v-.938h1.844v-1.703h1.219zm8.076 2.984l2.047-3.703h1.422l-2.75 4.688 2.812 4.781h-1.406l-2.094-3.781-2.11 3.781h-1.421l2.828-4.781-2.75-4.688h1.406l2.016 3.703z"/><path fill="#ff9800" d="M585.664 171.755c0-6.283 5.093-11.376 11.376-11.376h142.067a11.376 11.376 0 0 1 11.376 11.376v45.5c0 6.283-5.093 11.376-11.376 11.376H597.04c-6.283 0-11.376-5.093-11.376-11.375z" fill-rule="evenodd"/><path stroke="#666" stroke-linejoin="round" stroke-linecap="butt" d="M585.664 171.755c0-6.283 5.093-11.376 11.376-11.376h142.067a11.376 11.376 0 0 1 11.376 11.376v45.5c0 6.283-5.093 11.376-11.376 11.376H597.04c-6.283 0-11.376-5.093-11.376-11.375z"/><path fill="#fff" d="M639.63 199.152q0-.5-.188-.937-.172-.454-.594-.829-.422-.39-1.11-.703-.671-.328-1.687-.593-1.234-.344-2.359-.844-1.125-.516-1.984-1.219-.86-.719-1.375-1.672-.516-.953-.516-2.187 0-1.203.5-2.172.516-.985 1.406-1.672.906-.688 2.125-1.063 1.219-.375 2.656-.375 1.485 0 2.704.438 1.234.422 2.125 1.203.89.781 1.375 1.844.5 1.062.5 2.344h-3.563q-.031-.641-.234-1.172-.203-.532-.61-.907-.39-.39-.984-.609-.578-.219-1.375-.219-.734 0-1.297.188-.562.172-.953.484-.39.313-.594.75-.203.438-.203.953 0 .532.266.97.265.421.765.765.516.343 1.235.64.718.282 1.64.516 1.297.39 2.391.937t1.875 1.297q.797.735 1.234 1.703.438.954.438 2.125 0 1.25-.516 2.22-.5.968-1.39 1.64-.875.672-2.094 1.015-1.219.344-2.672.344-.89 0-1.781-.172-.89-.156-1.719-.484-.813-.344-1.516-.844-.703-.515-1.218-1.187-.5-.688-.797-1.547-.297-.86-.297-1.906h3.594q.03.859.296 1.484.282.61.766 1 .484.39 1.172.578.687.172 1.5.172.734 0 1.297-.172.562-.172.953-.469.39-.297.594-.718.218-.422.218-.938zm9.902-7.187q.703-1.032 1.703-1.61 1.016-.594 2.266-.594 1.11 0 2.031.344.922.328 1.578 1.031.672.688 1.047 1.797.375 1.094.375 2.641v8.531h-3.625v-8.547q0-.765-.187-1.312-.188-.547-.547-.875-.344-.344-.844-.5-.484-.172-1.11-.172-.921 0-1.593.328-.656.328-1.094.906v10.172h-3.625v-20h3.625v7.86zm21.184 12.14q-.14-.265-.234-.594-.079-.343-.157-.718-.297.328-.687.61-.39.28-.875.5-.469.218-1.047.343-.563.125-1.219.125-1.078 0-1.984-.313-.906-.312-1.563-.875-.656-.562-1.015-1.328-.36-.781-.36-1.687 0-2.235 1.657-3.453 1.656-1.22 4.953-1.22h2.015v-.827q0-1.016-.672-1.61-.656-.593-1.906-.593-1.11 0-1.625.484-.5.469-.5 1.266h-3.61q0-.907.391-1.704.407-.812 1.157-1.421.765-.61 1.86-.97 1.108-.359 2.53-.359 1.266 0 2.36.313 1.11.312 1.906.922.812.61 1.266 1.547.468.922.468 2.156v6.031q0 1.14.14 1.89.142.735.407 1.266v.22h-3.656zm-3.453-2.531q.547 0 1.015-.125.47-.14.844-.344.375-.219.64-.484.282-.266.438-.531v-2.422h-1.843q-.844 0-1.454.156-.593.156-.968.453-.375.297-.563.703-.187.406-.187.89 0 .735.515 1.22.516.484 1.563.484zm23.293-4.375q0 1.531-.36 2.844-.359 1.312-1.062 2.281-.687.953-1.719 1.5-1.015.547-2.343.547-1.141 0-2-.39-.86-.391-1.5-1.095v6.641h-3.61v-19.5h3.344l.125 1.375q.656-.781 1.531-1.203.89-.438 2.078-.438 1.344 0 2.36.516 1.031.516 1.734 1.469.703.937 1.063 2.265.359 1.313.359 2.907v.281zm-3.61-.281q0-.875-.171-1.657-.156-.78-.5-1.343t-.89-.89q-.548-.329-1.313-.329-.953 0-1.563.375-.594.375-.937 1.047v5.89q.343.657.937 1.063.61.39 1.594.39.766 0 1.297-.328.547-.343.89-.921.344-.594.5-1.375.157-.782.157-1.641v-.281zm13.794 7.453q-1.625 0-2.953-.531-1.328-.547-2.282-1.454-.953-.921-1.468-2.156-.516-1.25-.516-2.672v-.515q0-1.625.5-2.953.516-1.329 1.422-2.297.922-.969 2.172-1.5 1.25-.532 2.719-.532 1.515 0 2.703.5 1.203.5 2.031 1.422.828.907 1.25 2.188.437 1.281.437 2.828v1.531h-9.562q.11.719.422 1.313.328.593.812 1.031.5.422 1.141.656.64.235 1.39.235.532 0 1.063-.094.531-.11 1-.313.484-.203.906-.5.422-.312.735-.703l1.797 1.953q-.329.47-.875.938-.532.469-1.282.828-.734.344-1.64.562-.89.235-1.922.235zm-.438-11.688q-.609 0-1.125.22-.5.218-.89.624-.375.406-.64.969-.25.547-.392 1.234h5.938v-.281q-.016-.578-.219-1.078-.187-.516-.562-.875-.36-.375-.89-.594-.532-.219-1.22-.219z"/><path fill="#bdbdbd" d="M596.672 228.81h142.582v59.716H596.672z" fill-rule="evenodd"/><path stroke="#666" stroke-linejoin="round" stroke-linecap="butt" d="M596.672 228.81h142.582v59.716H596.672z"/><path fill="#000" d="M632.412 250.505l-.25 4.312h-1.61v-5.609h1.86v1.297zm8.387 10.25q0-1.407.344-2.594.343-1.203 1-2.047.656-.86 1.593-1.344.938-.484 2.125-.484 1.172 0 2.047.422.89.422 1.516 1.203l.11-1.39h1.968v12.421q0 1.25-.39 2.219-.391.984-1.11 1.656-.703.688-1.687 1.031-.985.36-2.188.36-.484 0-1.125-.125-.625-.11-1.281-.36-.64-.25-1.25-.671-.61-.422-1.031-1.047l1.125-1.297q.39.484.812.812.422.344.86.532.437.203.859.28.437.095.875.095.765 0 1.39-.22.625-.218 1.063-.655.437-.422.672-1.063.234-.625.234-1.453v-1.078q-.625.719-1.5 1.11-.86.374-1.984.374-1.172 0-2.11-.484-.937-.5-1.593-1.36-.641-.875-1-2.046-.344-1.188-.344-2.547v-.25zm2.172.25q0 .922.187 1.765.203.828.61 1.47.422.624 1.062 1 .64.358 1.547.358.563 0 1.016-.125.453-.14.812-.39.36-.25.64-.578.282-.344.485-.75v-5.813q-.203-.406-.484-.734-.281-.328-.656-.563-.36-.25-.813-.375-.437-.14-.969-.14-.922 0-1.578.375-.64.375-1.062 1.015-.407.64-.61 1.485-.187.828-.187 1.75v.25zm18.23 6.437q-1.328 0-2.453-.453-1.125-.469-1.922-1.281-.797-.828-1.25-1.953-.437-1.125-.437-2.438v-.5q0-1.531.484-2.734.5-1.219 1.313-2.063.828-.843 1.859-1.28 1.031-.454 2.125-.454 1.375 0 2.39.484 1.032.47 1.704 1.313.687.828 1.015 1.969.344 1.14.344 2.468v.97h-9.062q.03.858.328 1.624.312.766.828 1.344.516.562 1.234.89.735.329 1.625.329 1.157 0 2.047-.47.906-.468 1.516-1.25l1.312 1.032q-.312.484-.797.922-.468.437-1.093.781-.61.344-1.407.547-.78.203-1.703.203zm-.281-11.375q-.656 0-1.25.25-.578.235-1.047.703-.469.453-.797 1.14-.312.673-.437 1.548h6.812v-.172q-.031-.625-.234-1.25t-.61-1.11q-.39-.5-1-.796-.609-.313-1.437-.313zm14.215-4.61v3.063h4.828v1.688h-4.828v6.89q0 .735.187 1.22.188.468.516.765.328.281.75.406.437.11.922.11.344 0 .719-.032.375-.047.734-.11.36-.062.672-.124.312-.063.5-.11l.312 1.532q-.265.172-.656.297-.39.125-.844.203-.453.093-.968.14-.516.047-1.016.047-.844 0-1.578-.234-.735-.25-1.281-.766-.532-.531-.844-1.344-.297-.828-.297-2v-6.89h-3.328v-1.688h3.328v-3.062h2.172zm14.558 5.376l3.672-6.688h2.563l-4.953 8.453 5.062 8.61h-2.531l-3.766-6.828-3.78 6.828h-2.579l5.094-8.61-4.953-8.453h2.53l3.641 6.688zm14.73-6.328l-.25 4.312h-1.608v-5.609h1.859v1.297z"/><path fill="none" d="M522.352 214.203c15.828 0 23.742-4.92 31.656-9.842 7.913-4.921 15.825-9.843 31.65-9.843"/><path stroke="#595959" stroke-width="4" stroke-linejoin="round" stroke-linecap="butt" d="M522.352 214.203c15.828 0 23.742-4.92 31.656-9.842 1.978-1.23 3.956-2.46 6.058-3.614a61.911 61.911 0 0 1 1.602-.85l.54-.27"/><path fill="#595959" stroke="#595959" stroke-width="4" stroke-linecap="butt" d="M563.615 206.082l16.33-10.319-19.143-2.592z" fill-rule="evenodd"/><path fill="none" d="M668.184 367.22c0-14.749-60.11-22.124-120.22-29.498-60.111-7.374-120.221-14.747-120.221-29.494"/><path stroke="#595959" stroke-width="4" stroke-linejoin="round" stroke-linecap="butt" d="M668.184 367.22c0-14.749-60.11-22.124-120.22-29.498-30.056-3.687-60.111-7.374-82.652-11.982-5.636-1.152-10.801-2.362-15.38-3.643-.572-.16-1.136-.322-1.69-.484l-.482-.144"/><path stroke="#595959" stroke-width="4" stroke-linecap="butt" d="M451.405 315.959l-18.785-4.505 11.495 15.526z"/><path fill="none" d="M509.493 411.202c0-16.968 22.844-30.724 51.024-30.724s51.024 13.756 51.024 30.724c0 16.969-22.844 30.725-51.024 30.725s-51.024-13.756-51.024-30.725z"/><path stroke="#ea4335" stroke-width="2" stroke-linejoin="round" stroke-linecap="butt" d="M509.493 411.202c0-16.968 22.844-30.724 51.024-30.724s51.024 13.756 51.024 30.724c0 16.969-22.844 30.725-51.024 30.725s-51.024-13.756-51.024-30.725z"/><path fill="none" d="M-75.46 455.17h405.103v61.45H-75.459z"/><path fill="#ea4335" d="M91.468 482.387q-1.516 0-2.485-.875-.968-.89-.968-2.328 0-.953.5-1.672.5-.734 1.375-1.125.89-.39 1.953-.39 1.469 0 2.515.422v-.407q0-.78-.593-1.265-.578-.485-1.578-.485-.672 0-1.297.313-.625.297-1.032.797l-1.562-1.235q.687-.89 1.734-1.375 1.047-.484 2.266-.484 2.187 0 3.328 1.016 1.14 1 1.14 2.937v5.86h-2.406v-.97h-.156q-.422.563-1.125.923-.703.343-1.61.343zm.578-1.906q1.062 0 1.687-.672.625-.687.625-1.593-.953-.454-2-.454-1.906 0-1.906 1.422 0 .578.406.938.422.36 1.188.36zm12.279 1.906q-.985 0-1.735-.406-.75-.406-1.125-1.031h-.156v1.14h-2.297v-13.359h2.453v3.656l-.156 1.344h.156q.39-.61 1.125-1.031.75-.422 1.735-.422 1.28 0 2.328.64 1.062.641 1.656 1.798.594 1.156.594 2.625 0 1.468-.594 2.625-.594 1.14-1.656 1.78-1.047.641-2.328.641zm-.438-2.25q.688 0 1.281-.359.61-.36.953-.984.36-.64.36-1.453 0-.829-.36-1.454-.343-.64-.953-.984-.593-.344-1.28-.344-.673 0-1.267.344-.593.344-.953.984-.359.625-.359 1.454 0 .812.36 1.453.359.625.952.984.594.36 1.266.36zm10.522 2.25q-1.734 0-2.812-.703-1.063-.718-1.5-1.843l2.187-.954q.297.672.844 1.016.547.344 1.281.344.672 0 1.11-.219.453-.219.453-.703 0-.469-.407-.688-.406-.234-1.234-.421l-1.11-.25q-1.156-.282-1.921-1.016-.766-.734-.766-1.844 0-.812.485-1.469.5-.656 1.343-1 .86-.359 1.875-.359 2.953 0 3.938 2.063l-2.078.921q-.563-1-1.797-1-.64 0-1.016.235-.36.219-.36.578 0 .672 1.266 1.016l1.391.328q1.422.36 2.14 1.093.72.72.72 1.782 0 .906-.532 1.61-.531.702-1.453 1.093-.922.39-2.047.39zm10.265 0q-1.422 0-2.562-.64-1.14-.656-1.781-1.797-.641-1.156-.641-2.594 0-1.36.625-2.531.64-1.172 1.75-1.86 1.125-.687 2.516-.687 1.468 0 2.53.64 1.063.626 1.61 1.735.563 1.094.563 2.438 0 .421-.063.828h-7.14q.187 1.125.906 1.718.719.594 1.719.594.843 0 1.453-.36.61-.374.953-.984l1.984.97q-1.453 2.53-4.422 2.53zm2.25-6.203q-.03-.453-.328-.89-.281-.438-.797-.719-.515-.297-1.203-.297-.875 0-1.5.516-.625.5-.906 1.39h4.734zm4.233-3.609h2.297v1.187h.156q.422-.687 1.203-1.078.797-.406 1.703-.406 1.719 0 2.61 1.047.906 1.047.906 2.86v5.906h-2.453v-5.61q0-.922-.47-1.422-.468-.5-1.296-.5-1 0-1.61.766-.593.766-.593 1.922v4.844h-2.453v-9.516zm15.66 9.812q-1.438 0-2.579-.64-1.14-.64-1.781-1.797-.64-1.156-.64-2.61 0-1.468.64-2.609.64-1.14 1.781-1.797 1.14-.656 2.578-.656 1.578 0 2.719.688 1.14.671 1.64 1.921l-2.234.938q-.593-1.266-2.125-1.266-1.125 0-1.843.766-.72.766-.72 2.016 0 1.265.72 2.03.718.766 1.843.766 1.547 0 2.235-1.343l2.218.968q-.609 1.25-1.75 1.938-1.14.687-2.703.687zm10.674 0q-1.422 0-2.563-.64-1.14-.656-1.781-1.797-.64-1.156-.64-2.594 0-1.36.624-2.531.64-1.172 1.75-1.86 1.125-.687 2.516-.687 1.469 0 2.531.64 1.063.626 1.61 1.735.562 1.094.562 2.438 0 .421-.062.828h-7.141q.187 1.125.906 1.718.719.594 1.719.594.844 0 1.453-.36.61-.374.953-.984l1.985.97q-1.454 2.53-4.422 2.53zm2.25-6.203q-.032-.453-.328-.89-.282-.438-.797-.719-.516-.297-1.203-.297-.875 0-1.5.516-.625.5-.907 1.39h4.735zM162.786 482.09zm9.89.297q-1.406 0-2.53-.671-1.11-.672-1.735-1.829-.625-1.156-.625-2.546 0-1.407.625-2.563.625-1.156 1.734-1.828 1.125-.672 2.531-.672 1.391 0 2.516.672t1.75 1.828q.625 1.156.625 2.563 0 1.39-.625 2.546-.625 1.157-1.75 1.829-1.125.671-2.516.671zm0-1.437q.875 0 1.625-.438.766-.437 1.22-1.25.452-.828.452-1.921 0-1.11-.453-1.922-.453-.828-1.219-1.266-.75-.437-1.625-.437t-1.64.437q-.766.438-1.235 1.266-.453.812-.453 1.922 0 1.093.453 1.921.47.813 1.235 1.25.765.438 1.64.438zm7.838-6.938h-1.765v-1.437h1.765v-1.031q0-.89.407-1.563.406-.672 1.093-1.031.703-.36 1.532-.36.812 0 1.406.22v1.546q-.344-.125-.64-.203-.298-.094-.704-.094-.625 0-1.078.438-.438.437-.438 1.219v.859h2.454v1.437h-2.454v8.079h-1.578v-8.079zm4.79 8.079zM195.585 469.106l-.203 3.36h-1.25l.016-3.204v-1.171h1.437v1.015zm6.524 7.969q0-1.094.265-2.016.266-.937.766-1.593.516-.672 1.25-1.032.734-.375 1.64-.375.923 0 1.61.328.688.313 1.172.922l.078-1.078h1.531v9.656q0 .97-.312 1.72-.297.765-.86 1.28-.546.532-1.312.797-.766.282-1.688.282-.39 0-.89-.094-.485-.078-.985-.281-.5-.188-.968-.516-.47-.328-.813-.813l.875-1q.313.375.64.625.329.266.657.422.344.157.672.22.344.062.687.062.594 0 1.079-.172.484-.172.828-.5.343-.328.515-.828.188-.485.188-1.125v-.844q-.485.562-1.156.86-.672.296-1.563.296-.89 0-1.625-.375-.734-.39-1.234-1.062-.5-.688-.782-1.594-.265-.922-.265-1.969v-.203zm1.672.203q0 .719.156 1.36.156.64.469 1.14.328.484.828.781.5.282 1.203.282.437 0 .781-.094.36-.11.64-.297.282-.203.5-.469.22-.265.376-.578v-4.516q-.156-.312-.375-.562-.219-.266-.516-.453-.281-.188-.625-.281-.344-.11-.765-.11-.704 0-1.22.297-.5.281-.827.781-.313.5-.47 1.157-.155.64-.155 1.359v.203zm14.18 5q-1.032 0-1.907-.36-.875-.359-1.5-.984-.609-.64-.953-1.515-.343-.875-.343-1.907v-.39q0-1.188.375-2.125.39-.953 1.015-1.594.64-.656 1.438-1 .812-.344 1.656-.344 1.062 0 1.86.375.796.36 1.327 1.016.532.64.782 1.531.265.875.265 1.906v.75h-7.031q.016.688.25 1.282.234.578.64 1.031.407.437.97.703.562.25 1.25.25.906 0 1.593-.36.703-.374 1.172-.968l1.031.797q-.25.375-.625.719-.36.328-.843.593-.485.266-1.094.422-.61.172-1.328.172zm-.22-8.844q-.515 0-.968.188-.453.187-.812.547-.36.36-.625.89-.25.516-.344 1.203h5.297v-.125q-.016-.5-.188-.984-.156-.484-.468-.86-.297-.39-.766-.624-.469-.235-1.125-.235zm11.056-3.593v2.39h3.75v1.313h-3.75v5.343q0 .579.14.954.141.375.391.593.266.22.594.313.344.094.719.094.265 0 .546-.032.297-.03.579-.078.28-.047.515-.094.25-.046.406-.093l.235 1.203q-.219.125-.516.219-.297.093-.656.156-.344.078-.75.11-.39.046-.781.046-.657 0-1.235-.187-.562-.188-.984-.594-.422-.406-.672-1.047-.234-.64-.234-1.563v-5.343h-2.578v-1.313h2.578v-2.39h1.703zm11.305 4.187l2.86-5.203h2l-3.86 6.578 3.937 6.688h-1.968l-2.922-5.297-2.953 5.297h-1.985l3.953-6.688-3.86-6.578h1.985l2.813 5.203zm11.461-4.922l-.203 3.36h-1.25l.015-3.204v-1.171h1.438v1.015zM256.805 482.09zm9.891.297q-1.406 0-2.531-.671-1.11-.672-1.734-1.829-.625-1.156-.625-2.546 0-1.407.625-2.563.625-1.156 1.734-1.828 1.125-.672 2.531-.672 1.39 0 2.516.672 1.125.672 1.75 1.828.625 1.156.625 2.563 0 1.39-.625 2.546-.625 1.157-1.75 1.829-1.125.671-2.516.671zm0-1.437q.875 0 1.625-.438.766-.437 1.219-1.25.453-.828.453-1.921 0-1.11-.453-1.922-.453-.828-1.219-1.266-.75-.437-1.625-.437t-1.64.437q-.766.438-1.235 1.266-.453.812-.453 1.922 0 1.093.453 1.921.469.813 1.235 1.25.765.438 1.64.438zm6.729-8.375h1.515v1.406h.078q.391-.719 1.25-1.203.86-.5 1.829-.5 1.718 0 2.609 1 .906 1 .906 2.719v6.094h-1.578v-5.86q0-1.328-.64-1.922-.626-.593-1.735-.593-.766 0-1.375.437-.594.422-.937 1.125-.329.688-.329 1.453v5.36h-1.593v-9.516zm9.294 9.516zM291.141 482.09v-8.546h-2.703v-1.313h2.703v-.687q0-.953.281-1.657.281-.718.781-1.203.516-.484 1.22-.734.718-.25 1.593-.25.594 0 1.156.11.578.093 1.172.25l-.187 1.39q-.375-.125-.875-.219t-1.063-.094q-1.187.016-1.781.61-.594.578-.594 1.797v.687h3.797v1.313h-3.797v8.547h-1.703zm8.22-5.015q0-1.063.313-1.984.312-.922.89-1.594.579-.672 1.407-1.047.828-.39 1.859-.39 1.047 0 1.875.39.844.375 1.422 1.047.578.672.89 1.594.313.921.313 1.984v.203q0 1.063-.312 1.969-.313.906-.891 1.594-.578.671-1.406 1.062-.828.375-1.86.375-1.047 0-1.89-.375-.828-.39-1.407-1.062-.578-.688-.89-1.594-.313-.906-.313-1.969v-.203zm1.688.203q0 .719.172 1.39.172.657.515 1.157.36.5.89.797.532.281 1.235.281.688 0 1.203-.281.532-.297.875-.797.36-.5.532-1.156.172-.672.172-1.39v-.204q0-.719-.188-1.375-.172-.672-.531-1.172-.344-.5-.875-.797-.516-.297-1.219-.297-.703 0-1.219.297-.515.297-.875.797-.343.5-.515 1.172-.172.656-.172 1.375v.203zm9.508-.203q0-1.063.312-1.984.313-.922.891-1.594.578-.672 1.406-1.047.828-.39 1.86-.39 1.046 0 1.875.39.843.375 1.421 1.047.579.672.891 1.594.313.921.313 1.984v.203q0 1.063-.313 1.969-.312.906-.89 1.594-.579.671-1.407 1.062-.828.375-1.86.375-1.046 0-1.89-.375-.828-.39-1.406-1.062-.578-.688-.89-1.594-.313-.906-.313-1.969v-.203zm1.687.203q0 .719.172 1.39.172.657.516 1.157.36.5.89.797.532.281 1.235.281.687 0 1.203-.281.531-.297.875-.797.36-.5.531-1.156.172-.672.172-1.39v-.204q0-.719-.187-1.375-.172-.672-.532-1.172-.343-.5-.875-.797-.515-.297-1.218-.297-.704 0-1.22.297-.515.297-.874.797-.344.5-.516 1.172-.172.656-.172 1.375v.203zM62.889 494.575h2.297v1.156h.14q.391-.61 1.141-1.031.75-.422 1.719-.422 1.281 0 2.328.64 1.062.641 1.656 1.798.594 1.156.594 2.625 0 1.468-.594 2.625-.594 1.14-1.656 1.78-1.047.641-2.328.641-.969 0-1.735-.406-.75-.406-1.125-1.031h-.14l.14 1.344v3.828H62.89v-13.547zm4.86 7.562q.687 0 1.28-.359.61-.36.954-.984.359-.64.359-1.453 0-.829-.36-1.454-.343-.64-.952-.984-.594-.344-1.282-.344-.672 0-1.265.344-.594.344-.953.984-.344.625-.344 1.454 0 .812.344 1.453.359.625.953.984.593.36 1.265.36zm6.9-7.562h2.297v1.266h.156q.36-.672 1.094-1.11.75-.437 1.64-.437.657 0 1.203.203v2.453q-.5-.188-.859-.266-.344-.093-.734-.093-1.078 0-1.719.78-.625.782-.625 1.985v4.735h-2.453v-9.516zm12.529 9.812q-1.485 0-2.641-.656-1.156-.672-1.797-1.812-.64-1.157-.64-2.578 0-1.422.64-2.579.64-1.156 1.797-1.812 1.156-.672 2.64-.672 1.454 0 2.61.672 1.156.656 1.797 1.812.64 1.157.64 2.579 0 1.421-.64 2.578-.64 1.14-1.797 1.812-1.156.656-2.61.656zm0-2.25q.703 0 1.296-.328.61-.343.954-.984.359-.64.359-1.484t-.36-1.47q-.343-.64-.953-.968-.593-.344-1.296-.344-.72 0-1.313.344-.594.328-.969.969-.36.625-.36 1.469 0 .828.36 1.484.375.64.97.984.593.328 1.312.328zm11.051 2.11q-.703 0-1.297-.219-.593-.219-.968-.594-.875-.843-.875-2.39v-4.375h-1.672v-2.094h1.672v-2.688h2.437v2.688h2.328v2.094h-2.328v3.937q0 .719.313 1.047.265.297.906.297.344 0 .578-.094.234-.094.61-.328v2.39q-.797.329-1.704.329zm8.22.14q-1.484 0-2.64-.656-1.156-.672-1.797-1.812-.64-1.157-.64-2.578 0-1.422.64-2.579.64-1.156 1.797-1.812 1.156-.672 2.64-.672 1.454 0 2.61.672 1.156.656 1.797 1.812.64 1.157.64 2.579 0 1.421-.64 2.578-.64 1.14-1.797 1.812-1.156.656-2.61.656zm0-2.25q.704 0 1.297-.328.61-.343.953-.984.36-.64.36-1.484t-.36-1.47q-.343-.64-.953-.968-.593-.344-1.297-.344-.718 0-1.312.344-.594.328-.969.969-.36.625-.36 1.469 0 .828.36 1.484.375.64.969.984.594.328 1.312.328zm11.052 2.11q-.703 0-1.297-.219-.593-.219-.968-.594-.875-.843-.875-2.39v-4.375h-1.672v-2.094h1.672v-2.688h2.437v2.688h2.328v2.094h-2.328v3.937q0 .719.313 1.047.265.297.906.297.344 0 .578-.094.234-.094.61-.328v2.39q-.798.329-1.704.329zm6.627-.61l-4-9.062h2.765l2.469 5.922h.156l2.36-5.922h2.734l-5.89 13.547h-2.626l2.032-4.485zm7.752-9.062h2.297v1.156h.14q.39-.61 1.14-1.031.75-.422 1.72-.422 1.28 0 2.328.64 1.062.641 1.656 1.798.594 1.156.594 2.625 0 1.468-.594 2.625-.594 1.14-1.656 1.78-1.047.641-2.328.641-.97 0-1.735-.406-.75-.406-1.125-1.031h-.14l.14 1.344v3.828h-2.437v-13.547zm4.86 7.562q.687 0 1.28-.359.61-.36.953-.984.36-.64.36-1.453 0-.829-.36-1.454-.343-.64-.953-.984-.593-.344-1.28-.344-.673 0-1.267.344-.593.344-.953.984-.343.625-.343 1.454 0 .812.343 1.453.36.625.953.984.594.36 1.266.36zm11.368 2.25q-1.421 0-2.562-.64-1.14-.656-1.781-1.797-.641-1.156-.641-2.594 0-1.36.625-2.531.64-1.172 1.75-1.86 1.125-.687 2.516-.687 1.468 0 2.53.64 1.063.626 1.61 1.735.563 1.094.563 2.438 0 .421-.063.828h-7.14q.187 1.125.906 1.718.719.594 1.719.594.843 0 1.453-.36.61-.374.953-.984l1.984.97q-1.453 2.53-4.422 2.53zm2.25-6.203q-.03-.453-.328-.89-.281-.438-.797-.719-.515-.297-1.203-.297-.875 0-1.5.516-.625.5-.906 1.39h4.734zM153.403 504.09zm6.438-11.265q-.469 0-.812-.328-.329-.344-.329-.813 0-.468.329-.797.343-.328.812-.328.469 0 .797.328.344.329.344.797 0 .47-.328.813-.329.328-.813.328zm-.781 1.75h1.562v9.516h-1.562v-9.516zm7.388 9.812q-1.531 0-2.563-.718-1.015-.719-1.453-1.828l1.422-.641q.344.86 1.047 1.328.703.469 1.547.469.89 0 1.516-.36.64-.375.64-1.046 0-.594-.5-.954-.5-.375-1.578-.625l-1.156-.312q-1.14-.281-1.875-.938-.719-.671-.719-1.75 0-.812.484-1.437.5-.625 1.313-.953.828-.344 1.781-.344 1.25 0 2.219.547.984.531 1.39 1.5l-1.374.64q-.641-1.265-2.25-1.265-.797 0-1.391.36-.578.359-.578.921 0 .531.406.86.422.312 1.234.515l1.391.36q1.39.359 2.094 1.062.719.688.719 1.703 0 .875-.516 1.547-.5.656-1.36 1.016-.843.343-1.89.343zm4.324-.296zM176.663 504.09v-13.265h3.953q.813.016 1.594.219.781.203 1.39.64.626.422.985 1.094.36.656.36 1.578-.016.531-.173.953-.156.422-.437.766-.281.344-.656.61-.375.25-.797.421.531.156.969.453.453.282.765.688.328.406.5.922.172.5.172 1.093.016.938-.36 1.657-.359.703-.968 1.187-.61.469-1.406.719-.797.25-1.64.266h-4.25zm1.703-6.203v4.766h2.594q.531 0 1-.172t.828-.469q.375-.296.578-.734.219-.437.219-1 .016-.562-.188-1-.187-.437-.53-.734-.345-.313-.813-.469-.469-.172-1-.188h-2.688zm0-1.406h2.344q.469 0 .922-.14.469-.141.812-.407.36-.28.578-.672.22-.39.22-.906 0-.562-.22-.953-.203-.39-.562-.64-.36-.25-.828-.36-.469-.125-.969-.14h-2.297v4.218zm15.993 7.61q-.094-.188-.157-.47-.062-.296-.093-.609-.25.266-.563.5-.312.22-.703.391-.375.172-.812.266-.422.11-.891.11-.797 0-1.438-.22-.625-.234-1.062-.625-.438-.39-.688-.922-.234-.53-.234-1.156 0-.812.313-1.422.328-.609.921-1.015.594-.407 1.422-.594.844-.203 1.875-.203h1.828v-.781q0-.454-.171-.797-.157-.36-.454-.61-.296-.25-.734-.39-.422-.14-.969-.14-.5 0-.906.14-.39.125-.672.343-.265.204-.422.485-.14.281-.14.594h-1.688q0-.532.266-1.047.281-.532.781-.938.5-.422 1.219-.672.734-.25 1.656-.25.844 0 1.563.203.718.204 1.234.625.531.407.828 1.032.297.61.297 1.437v4.578q0 .5.094 1.047.093.547.25.969v.14h-1.75zm-2.985-1.282q.5 0 .922-.125.438-.14.781-.343.344-.204.594-.47.266-.28.406-.562v-2h-1.562q-1.469 0-2.297.438-.812.437-.812 1.375 0 .36.125.672.125.312.359.531.25.219.625.36.375.124.86.124zm14.165-8.75q.234 0 .484.016.266 0 .484.031.235.031.422.078.203.047.344.11l-.234 1.64q-.485-.109-.938-.156-.437-.047-.922-.047-1.187 0-1.922.547-.734.531-1.078 1.484v6.329h-1.687v-9.86h1.593l.094 1.563q.594-.797 1.438-1.266.843-.469 1.922-.469zm7.664 8.938q0-.266.078-.5.094-.25.25-.422.172-.188.422-.281.25-.094.578-.094.328 0 .578.094.25.093.406.281.172.172.25.422.094.234.094.5 0 .265-.094.5-.078.234-.25.406-.156.172-.406.266-.25.093-.578.093-.328 0-.578-.093-.25-.094-.422-.266-.156-.172-.25-.406-.078-.235-.078-.5zm16.586-3.719q0 1.047-.265 1.969-.25.906-.75 1.594-.485.671-1.22 1.062-.718.375-1.64.375-.906 0-1.594-.297-.687-.297-1.171-.844v4.75h-1.688v-13.656h1.531l.094 1.078q.484-.609 1.172-.922.703-.328 1.625-.328.953 0 1.672.375.734.36 1.219 1.032.5.656.75 1.593.265.922.265 2.016v.203zm-1.687-.203q0-.719-.172-1.36-.156-.656-.485-1.156-.328-.5-.843-.78-.5-.298-1.22-.298-.812 0-1.358.375-.547.375-.875.969v4.75q.328.578.875.953.546.375 1.375.375.703 0 1.203-.297.515-.297.843-.797.329-.5.485-1.156.172-.656.172-1.375v-.203zm11.023-5.016q.235 0 .485.016.265 0 .484.031.234.031.422.078.203.047.344.11l-.235 1.64q-.484-.109-.937-.156-.438-.047-.922-.047-1.188 0-1.922.547-.734.531-1.078 1.484v6.329h-1.688v-9.86h1.594l.094 1.563q.594-.797 1.437-1.266.844-.469 1.922-.469zm4.258 5.016q0-1.063.313-1.984.312-.922.89-1.594.579-.672 1.407-1.047.828-.39 1.86-.39 1.046 0 1.874.39.844.375 1.422 1.047.578.672.89 1.594.313.921.313 1.984v.203q0 1.063-.312 1.969-.313.906-.891 1.594-.578.671-1.406 1.062-.828.375-1.86.375-1.046 0-1.89-.375-.828-.39-1.406-1.062-.579-.688-.891-1.594-.313-.906-.313-1.969v-.203zm1.688.203q0 .719.172 1.39.172.657.515 1.157.36.5.891.797.531.281 1.234.281.688 0 1.204-.281.53-.297.875-.797.359-.5.53-1.156.173-.672.173-1.39v-.204q0-.719-.188-1.375-.172-.672-.531-1.172-.344-.5-.875-.797-.516-.297-1.219-.297-.703 0-1.219.297-.515.297-.875.797-.343.5-.515 1.172-.172.656-.172 1.375v.203zm13.977-7.437v2.39h3.75v1.313h-3.75v5.343q0 .579.14.954.141.375.391.593.266.22.594.313.343.094.718.094.266 0 .547-.032.297-.03.578-.078.282-.047.516-.094.25-.046.406-.093l.235 1.203q-.219.125-.516.219-.297.093-.656.156-.344.078-.75.11-.39.046-.781.046-.657 0-1.235-.187-.562-.188-.984-.594-.422-.406-.672-1.047-.234-.64-.234-1.563v-5.343h-2.579v-1.313h2.579v-2.39h1.703zm6.727 7.234q0-1.063.312-1.984.313-.922.89-1.594.579-.672 1.407-1.047.828-.39 1.86-.39 1.046 0 1.874.39.844.375 1.422 1.047.578.672.89 1.594.313.921.313 1.984v.203q0 1.063-.312 1.969-.313.906-.89 1.594-.579.671-1.407 1.062-.828.375-1.86.375-1.046 0-1.89-.375-.828-.39-1.406-1.062-.578-.688-.891-1.594-.312-.906-.312-1.969v-.203zm1.687.203q0 .719.172 1.39.172.657.516 1.157.359.5.89.797.531.281 1.235.281.687 0 1.203-.281.53-.297.875-.797.359-.5.53-1.156.173-.672.173-1.39v-.204q0-.719-.188-1.375-.172-.672-.531-1.172-.344-.5-.875-.797-.516-.297-1.219-.297-.703 0-1.218.297-.516.297-.875.797-.344.5-.516 1.172-.172.656-.172 1.375v.203zm13.977-7.437v2.39h3.75v1.313h-3.75v5.343q0 .579.14.954.141.375.391.593.266.22.594.313.344.094.719.094.265 0 .547-.032.296-.03.578-.078.28-.047.515-.094.25-.046.407-.093l.234 1.203q-.219.125-.516.219-.297.093-.656.156-.344.078-.75.11-.39.046-.781.046-.656 0-1.235-.187-.562-.188-.984-.594-.422-.406-.672-1.047-.234-.64-.234-1.563v-5.343h-2.578v-1.313h2.578v-2.39h1.703zm10.82 8.75l.438 1.187 3.016-7.547h1.89l-5.015 11.375q-.172.39-.438.813-.266.437-.656.797-.375.359-.89.609-.5.25-1.173.25-.11 0-.265-.016-.14-.015-.297-.047-.14-.015-.266-.046-.125-.016-.203-.047l.266-1.375q.062 0 .172.015.109.016.218.016.125.016.235.016h.172q.359 0 .64-.188.281-.187.5-.453.235-.266.39-.547.157-.281.25-.469l.673-1.312-4.235-9.39h1.875l2.703 6.359zm15.9-1.313q0 1.047-.267 1.969-.25.906-.75 1.594-.484.671-1.218 1.062-.719.375-1.64.375-.907 0-1.595-.297-.687-.297-1.172-.844v4.75h-1.687v-13.656h1.531l.094 1.078q.484-.609 1.172-.922.703-.328 1.625-.328.953 0 1.672.375.734.36 1.218 1.032.5.656.75 1.593.266.922.266 2.016v.203zm-1.688-.203q0-.719-.172-1.36-.157-.656-.485-1.156-.328-.5-.843-.78-.5-.298-1.22-.298-.812 0-1.359.375-.546.375-.875.969v4.75q.329.578.875.953.547.375 1.375.375.704 0 1.204-.297.515-.297.843-.797.328-.5.485-1.156.172-.656.172-1.375v-.203zm8.914 5.203q-1.031 0-1.906-.36-.875-.359-1.5-.984-.61-.64-.953-1.515-.344-.875-.344-1.907v-.39q0-1.188.375-2.125.39-.953 1.015-1.594.641-.656 1.438-1 .812-.344 1.656-.344 1.063 0 1.86.375.796.36 1.328 1.016.531.64.781 1.531.266.875.266 1.906v.75h-7.032q.016.688.25 1.282.235.578.641 1.031.406.437.969.703.562.25 1.25.25.906 0 1.593-.36.704-.374 1.172-.968l1.032.797q-.25.375-.625.719-.36.328-.844.593-.485.266-1.094.422-.61.172-1.328.172zm-.219-8.844q-.515 0-.969.188-.453.187-.812.547-.36.36-.625.89-.25.516-.344 1.203h5.297v-.125q-.016-.5-.187-.984-.157-.484-.47-.86-.296-.39-.765-.624-.469-.235-1.125-.235z"/><path fill="none" d="M329.643 485.895c115.433 0 230.866-21.984 230.866-43.968"/><path stroke="#ea4335" stroke-width="2" stroke-linejoin="round" stroke-linecap="butt" d="M329.643 485.895c57.717 0 115.433-5.496 158.72-13.74 21.644-4.122 39.68-8.931 52.306-14.084 3.157-1.288 5.975-2.598 8.427-3.923a51.292 51.292 0 0 0 3.399-2c.26-.168.514-.336.761-.504l.11-.075"/><path fill="#ea4335" stroke="#ea4335" stroke-width="2" stroke-linecap="butt" d="M556.02 453.535l2.749-9.26-8.057 5.328z" fill-rule="evenodd"/><path fill="none" d="M503.045 204.362c0-16.968 22.844-30.724 51.023-30.724 28.18 0 51.024 13.756 51.024 30.724 0 16.969-22.844 30.725-51.024 30.725s-51.023-13.756-51.023-30.725z"/><path stroke="#ea4335" stroke-width="2" stroke-linejoin="round" stroke-linecap="butt" d="M503.045 204.362c0-16.968 22.844-30.724 51.023-30.724 28.18 0 51.024 13.756 51.024 30.724 0 16.969-22.844 30.725-51.024 30.725s-51.023-13.756-51.023-30.725z"/><path fill="none" d="M-24.291 126.362H380.81v47.276H-24.29z"/><path fill="#ea4335" d="M19.328 143.767h2.297v1.156h.14q.391-.61 1.141-1.031.75-.422 1.719-.422 1.281 0 2.328.64 1.063.64 1.656 1.797.594 1.156.594 2.625t-.594 2.625q-.593 1.14-1.656 1.781-1.047.641-2.328.641-.969 0-1.734-.406-.75-.406-1.125-1.031h-.141l.14 1.343v3.828h-2.437v-13.546zm4.86 7.562q.687 0 1.28-.36.61-.359.954-.984.36-.64.36-1.453 0-.828-.36-1.453-.344-.64-.953-.984-.594-.344-1.281-.344-.672 0-1.266.344-.594.343-.953.984-.344.625-.344 1.453 0 .813.344 1.453.36.625.953.985.594.36 1.266.36zm6.9-7.562h2.297v1.265h.156q.36-.672 1.094-1.11.75-.437 1.64-.437.657 0 1.204.203v2.454q-.5-.188-.86-.266-.343-.094-.734-.094-1.078 0-1.719.781-.625.782-.625 1.985v4.734h-2.453v-9.515zm12.435 9.812q-1.422 0-2.562-.64-1.141-.657-1.782-1.797-.64-1.157-.64-2.594 0-1.36.625-2.531.64-1.172 1.75-1.86 1.125-.687 2.515-.687 1.47 0 2.532.64 1.062.625 1.609 1.735.562 1.093.562 2.437 0 .422-.062.828h-7.14q.187 1.125.906 1.72.718.593 1.718.593.844 0 1.453-.36.61-.375.954-.984l1.984.969q-1.453 2.531-4.422 2.531zm2.25-6.203q-.031-.453-.328-.89-.281-.438-.797-.72-.516-.296-1.203-.296-.875 0-1.5.515-.625.5-.906 1.39h4.734zm7.858 6.203q-1.735 0-2.813-.703-1.062-.719-1.5-1.844l2.188-.953q.296.672.843 1.016.547.343 1.282.343.671 0 1.109-.218.453-.22.453-.703 0-.47-.406-.688-.406-.234-1.235-.422l-1.109-.25q-1.156-.281-1.922-1.015-.765-.735-.765-1.844 0-.813.484-1.469.5-.656 1.344-1 .86-.36 1.875-.36 2.953 0 3.937 2.063l-2.078.922q-.562-1-1.797-1-.64 0-1.015.234-.36.22-.36.579 0 .671 1.266 1.015l1.39.328q1.422.36 2.141 1.094.719.719.719 1.781 0 .907-.531 1.61-.532.703-1.454 1.093-.921.391-2.046.391zm10.265 0q-1.422 0-2.563-.64-1.14-.657-1.781-1.797-.64-1.157-.64-2.594 0-1.36.624-2.531.641-1.172 1.75-1.86 1.125-.687 2.516-.687 1.469 0 2.531.64 1.063.625 1.61 1.735.562 1.093.562 2.437 0 .422-.062.828h-7.141q.187 1.125.906 1.72.719.593 1.719.593.844 0 1.453-.36.61-.375.953-.984l1.985.969q-1.454 2.531-4.422 2.531zm2.25-6.203q-.032-.453-.328-.89-.282-.438-.797-.72-.516-.296-1.203-.296-.875 0-1.5.515-.625.5-.907 1.39h4.735zm4.232-3.61h2.297v1.188h.156q.422-.687 1.203-1.078.797-.406 1.704-.406 1.718 0 2.609 1.047.906 1.046.906 2.859v5.906H76.8v-5.61q0-.921-.469-1.421-.468-.5-1.297-.5-1 0-1.609.766-.594.765-.594 1.921v4.844h-2.453v-9.515zm15.66 9.813q-1.438 0-2.578-.64-1.141-.641-1.782-1.797-.64-1.157-.64-2.61 0-1.469.64-2.61.64-1.14 1.782-1.796 1.14-.656 2.578-.656 1.578 0 2.718.687 1.141.672 1.641 1.922l-2.234.938q-.594-1.266-2.125-1.266-1.125 0-1.844.766-.719.765-.719 2.015 0 1.266.719 2.031.719.766 1.844.766 1.547 0 2.234-1.344l2.219.97q-.61 1.25-1.75 1.937-1.14.687-2.703.687zm10.674 0q-1.422 0-2.562-.64-1.141-.657-1.782-1.797-.64-1.157-.64-2.594 0-1.36.625-2.531.64-1.172 1.75-1.86 1.125-.687 2.515-.687 1.47 0 2.532.64 1.062.625 1.609 1.735.562 1.093.562 2.437 0 .422-.062.828h-7.14q.187 1.125.906 1.72.718.593 1.718.593.844 0 1.453-.36.61-.375.954-.984l1.984.969q-1.453 2.531-4.422 2.531zm2.25-6.203q-.031-.453-.328-.89-.281-.438-.797-.72-.516-.296-1.203-.296-.875 0-1.5.515-.625.5-.906 1.39h4.734zM102.007 153.282zm9.89.297q-1.405 0-2.53-.672-1.11-.672-1.735-1.828-.625-1.156-.625-2.547 0-1.406.625-2.562.625-1.157 1.735-1.828 1.125-.672 2.53-.672 1.391 0 2.516.672 1.125.671 1.75 1.828.625 1.156.625 2.562 0 1.39-.625 2.547-.625 1.156-1.75 1.828-1.125.672-2.515.672zm0-1.437q.876 0 1.626-.438.765-.437 1.219-1.25.453-.828.453-1.922 0-1.11-.453-1.922-.454-.828-1.22-1.265-.75-.438-1.624-.438-.875 0-1.64.438-.766.437-1.235 1.265-.453.813-.453 1.922 0 1.094.453 1.922.469.813 1.234 1.25.766.438 1.64.438zm7.839-6.938h-1.766v-1.437h1.766v-1.032q0-.89.406-1.562t1.094-1.031q.703-.36 1.53-.36.813 0 1.407.219v1.547q-.344-.125-.64-.203-.297-.094-.704-.094-.625 0-1.078.437-.437.438-.437 1.22v.859h2.453v1.437h-2.453v8.078h-1.578v-8.078zm4.79 8.078zM134.806 140.298l-.203 3.36h-1.25l.016-3.204v-1.172h1.438v1.016zm6.524 7.969q0-1.094.266-2.016.265-.938.765-1.594.516-.672 1.25-1.031.735-.375 1.641-.375.922 0 1.61.328.687.313 1.171.922l.078-1.078h1.532v9.656q0 .969-.313 1.719-.297.765-.86 1.281-.546.531-1.312.797-.765.281-1.687.281-.39 0-.89-.094-.485-.078-.985-.28-.5-.188-.969-.516-.469-.329-.812-.813l.875-1q.312.375.64.625.328.266.656.422.344.156.672.219.344.062.688.062.594 0 1.078-.172.484-.172.828-.5t.516-.828q.187-.484.187-1.125v-.844q-.484.563-1.156.86-.672.297-1.563.297-.89 0-1.625-.375-.734-.39-1.234-1.063-.5-.687-.781-1.594-.266-.921-.266-1.968v-.203zm1.672.203q0 .718.156 1.36.157.64.47 1.14.327.484.827.78.5.282 1.203.282.438 0 .782-.094.359-.109.64-.296.281-.204.5-.47.219-.265.375-.577v-4.516q-.156-.312-.375-.562-.219-.266-.515-.454-.282-.187-.625-.28-.344-.11-.766-.11-.703 0-1.219.297-.5.28-.828.78-.312.5-.469 1.157-.156.64-.156 1.36v.203zm14.18 5q-1.031 0-1.906-.36t-1.5-.984q-.61-.64-.953-1.516-.344-.875-.344-1.906v-.39q0-1.188.375-2.126.39-.953 1.016-1.593.64-.657 1.437-1 .813-.344 1.656-.344 1.063 0 1.86.375.797.36 1.328 1.016.531.64.781 1.53.266.876.266 1.907v.75h-7.032q.016.688.25 1.281.235.578.641 1.032.406.437.969.703.562.25 1.25.25.906 0 1.594-.36.703-.375 1.171-.968l1.032.796q-.25.375-.625.72-.36.327-.844.593-.484.266-1.094.422-.61.172-1.328.172zm-.219-8.844q-.515 0-.968.187-.454.188-.813.547-.36.36-.625.89-.25.517-.344 1.204h5.297v-.125q-.015-.5-.187-.984-.157-.485-.47-.86-.296-.39-.765-.625-.468-.234-1.125-.234zm11.055-3.594v2.39h3.75v1.313h-3.75v5.344q0 .578.14.953.141.375.391.594.266.219.594.312.344.094.719.094.266 0 .547-.031.297-.031.578-.078.281-.047.516-.094.25-.047.406-.094l.234 1.203q-.219.125-.515.22-.297.093-.657.155-.343.079-.75.11-.39.047-.78.047-.657 0-1.235-.188-.563-.187-.985-.594-.422-.406-.672-1.046-.234-.641-.234-1.563v-5.344h-2.578v-1.312h2.578v-2.39h1.703zm11.305 4.188l2.86-5.203h2l-3.86 6.578 3.938 6.687h-1.97l-2.921-5.297-2.953 5.297h-1.984l3.953-6.687-3.86-6.578h1.985l2.812 5.203zm11.461-4.922l-.203 3.36h-1.25l.016-3.204v-1.172h1.437v1.016zM196.027 153.282zm9.89.297q-1.406 0-2.53-.672-1.11-.672-1.735-1.828-.625-1.156-.625-2.547 0-1.406.625-2.562.625-1.157 1.734-1.828 1.125-.672 2.532-.672 1.39 0 2.515.672 1.125.671 1.75 1.828.625 1.156.625 2.562 0 1.39-.625 2.547-.625 1.156-1.75 1.828-1.125.672-2.515.672zm0-1.437q.876 0 1.626-.438.765-.437 1.218-1.25.453-.828.453-1.922 0-1.11-.453-1.922-.453-.828-1.218-1.265-.75-.438-1.625-.438t-1.641.438q-.766.437-1.234 1.265-.454.813-.454 1.922 0 1.094.454 1.922.468.813 1.234 1.25.766.438 1.64.438zm6.73-8.375h1.515v1.406h.078q.39-.719 1.25-1.203.86-.5 1.828-.5 1.719 0 2.61 1 .906 1 .906 2.718v6.094h-1.579v-5.86q0-1.327-.64-1.921-.625-.594-1.735-.594-.765 0-1.375.438-.593.422-.937 1.125-.328.687-.328 1.453v5.36h-1.594v-9.516zm9.293 9.515zM227.831 153.282v-13.265h3.953q.813.015 1.594.218.781.203 1.39.64.626.423.985 1.095.36.656.36 1.578-.016.531-.173.953-.156.422-.437.766-.281.343-.656.609-.375.25-.797.422.531.156.969.453.453.281.765.687.328.407.5.922.172.5.172 1.094.016.938-.36 1.656-.359.703-.968 1.188-.61.469-1.406.719-.797.25-1.64.265h-4.25zm1.703-6.203v4.766h2.594q.531 0 1-.172t.828-.469q.375-.297.578-.734.219-.438.219-1 .016-.563-.188-1-.187-.438-.53-.735-.345-.312-.813-.468-.469-.172-1-.188h-2.688zm0-1.406h2.344q.469 0 .922-.14.469-.141.812-.407.36-.281.578-.672.22-.39.22-.906 0-.563-.22-.953-.203-.39-.562-.64-.36-.25-.828-.36-.469-.125-.969-.14h-2.297v4.218zm15.993 7.61q-.094-.188-.157-.47-.062-.296-.093-.609-.25.266-.563.5-.312.219-.703.39-.375.173-.812.266-.422.11-.891.11-.797 0-1.438-.22-.625-.233-1.062-.624-.438-.39-.688-.922-.234-.531-.234-1.156 0-.813.313-1.422.328-.61.921-1.016.594-.406 1.422-.593.844-.204 1.875-.204h1.828v-.78q0-.454-.171-.798-.157-.36-.454-.61-.296-.25-.734-.39-.422-.14-.969-.14-.5 0-.906.14-.39.125-.672.344-.265.203-.422.484-.14.282-.14.594h-1.688q0-.531.266-1.047.281-.53.781-.937.5-.422 1.219-.672.734-.25 1.656-.25.844 0 1.563.203.718.203 1.234.625.531.406.828 1.031.297.61.297 1.438v4.578q0 .5.094 1.047.093.547.25.969v.14h-1.75zM242.542 152q.5 0 .922-.125.438-.14.781-.344.344-.203.594-.469.266-.28.406-.562v-2h-1.562q-1.469 0-2.297.437-.812.438-.812 1.375 0 .36.125.672.125.313.359.532.25.218.625.359.375.125.86.125zm14.165-8.75q.234 0 .484.016.266 0 .484.03.235.032.422.079.203.047.344.11l-.234 1.64q-.485-.11-.938-.156-.437-.047-.922-.047-1.187 0-1.922.547-.734.53-1.078 1.484v6.328h-1.687v-9.86h1.593l.094 1.563q.594-.797 1.438-1.265.843-.47 1.922-.47zm7.664 8.937q0-.265.078-.5.094-.25.25-.421.172-.188.422-.282.25-.093.578-.093.328 0 .578.093.25.094.406.282.172.171.25.421.094.235.094.5 0 .266-.094.5-.078.235-.25.407-.156.172-.406.265-.25.094-.578.094-.328 0-.578-.094-.25-.093-.422-.265-.156-.172-.25-.407-.078-.234-.078-.5zm16.586-3.718q0 1.047-.265 1.968-.25.907-.75 1.594-.485.672-1.22 1.063-.718.375-1.64.375-.906 0-1.594-.297-.687-.297-1.171-.844v4.75h-1.688v-13.656h1.531l.094 1.078q.484-.61 1.172-.922.703-.328 1.625-.328.953 0 1.672.375.734.36 1.219 1.031.5.656.75 1.594.265.922.265 2.016v.203zm-1.687-.203q0-.72-.172-1.36-.156-.656-.485-1.156-.328-.5-.843-.781-.5-.297-1.22-.297-.812 0-1.358.375-.547.375-.875.969v4.75q.328.578.875.953.546.375 1.375.375.703 0 1.203-.297.515-.297.843-.797.329-.5.485-1.156.172-.657.172-1.375v-.203zm11.023-5.016q.235 0 .485.016.265 0 .484.03.234.032.422.079.203.047.344.11l-.235 1.64q-.484-.11-.937-.156-.438-.047-.922-.047-1.188 0-1.922.547-.734.53-1.078 1.484v6.328h-1.688v-9.86h1.594l.094 1.563q.594-.797 1.437-1.265.844-.47 1.922-.47zm4.258 5.016q0-1.063.313-1.985.312-.922.89-1.594.579-.671 1.407-1.046.828-.391 1.86-.391 1.046 0 1.874.39.844.376 1.422 1.047.578.672.89 1.594.313.922.313 1.985v.203q0 1.062-.312 1.968-.313.907-.891 1.594-.578.672-1.406 1.063-.828.375-1.86.375-1.047 0-1.89-.375-.828-.39-1.407-1.063-.578-.687-.89-1.594-.313-.906-.313-1.968v-.203zm1.688.203q0 .718.172 1.39.172.657.515 1.157.36.5.891.796.531.282 1.234.282.688 0 1.203-.282.532-.296.875-.796.36-.5.532-1.157.172-.672.172-1.39v-.203q0-.72-.188-1.375-.172-.672-.531-1.172-.344-.5-.875-.797-.516-.297-1.219-.297-.703 0-1.219.297-.515.297-.875.797-.343.5-.515 1.172-.172.656-.172 1.375v.203zm13.977-7.438v2.39h3.75v1.313h-3.75v5.344q0 .578.14.953.141.375.391.594.266.219.594.312.343.094.718.094.266 0 .547-.031.297-.031.578-.078.282-.047.516-.094.25-.047.406-.094l.235 1.203q-.219.125-.516.22-.297.093-.656.155-.344.079-.75.11-.39.047-.781.047-.657 0-1.235-.188-.562-.187-.984-.594-.422-.406-.672-1.046-.234-.641-.234-1.563v-5.344h-2.579v-1.312h2.579v-2.39h1.703zm6.727 7.235q0-1.063.312-1.985.313-.922.89-1.594.579-.671 1.407-1.046.828-.391 1.86-.391 1.046 0 1.874.39.844.376 1.422 1.047.578.672.89 1.594.313.922.313 1.985v.203q0 1.062-.312 1.968-.313.907-.89 1.594-.579.672-1.407 1.063-.828.375-1.86.375-1.046 0-1.89-.375-.828-.39-1.406-1.063-.578-.687-.891-1.594-.312-.906-.312-1.968v-.203zm1.687.203q0 .718.172 1.39.172.657.516 1.157.359.5.89.796.531.282 1.235.282.687 0 1.203-.282.53-.296.875-.796.359-.5.53-1.157.173-.672.173-1.39v-.203q0-.72-.188-1.375-.172-.672-.531-1.172-.344-.5-.875-.797-.516-.297-1.219-.297-.703 0-1.218.297-.516.297-.875.797-.344.5-.516 1.172-.172.656-.172 1.375v.203zm13.977-7.438v2.39h3.75v1.313h-3.75v5.344q0 .578.14.953.141.375.391.594.266.219.594.312.344.094.719.094.265 0 .546-.031.297-.031.579-.078.28-.047.515-.094.25-.047.406-.094l.235 1.203q-.219.125-.516.22-.297.093-.656.155-.344.079-.75.11-.39.047-.781.047-.657 0-1.235-.188-.562-.187-.984-.594-.422-.406-.672-1.046-.234-.641-.234-1.563v-5.344h-2.578v-1.312h2.578v-2.39h1.703zm10.82 8.75l.438 1.188 3.016-7.547h1.89l-5.015 11.375q-.172.39-.438.812-.266.438-.656.797-.375.36-.89.61-.5.25-1.173.25-.11 0-.265-.016-.141-.016-.297-.047-.14-.016-.266-.047-.125-.015-.203-.047l.266-1.375q.062 0 .172.016.109.016.218.016.125.015.235.015h.172q.359 0 .64-.187.281-.188.5-.453.235-.266.39-.547.157-.282.25-.47l.673-1.312-4.235-9.39h1.875l2.703 6.36zm15.9-1.312q0 1.047-.267 1.968-.25.907-.75 1.594-.484.672-1.218 1.063-.719.375-1.64.375-.907 0-1.595-.297-.687-.297-1.172-.844v4.75h-1.687v-13.656h1.531l.094 1.078q.484-.61 1.172-.922.703-.328 1.625-.328.953 0 1.672.375.734.36 1.218 1.031.5.656.75 1.594.266.922.266 2.016v.203zm-1.688-.203q0-.72-.172-1.36-.157-.656-.485-1.156-.328-.5-.843-.781-.5-.297-1.22-.297-.812 0-1.359.375-.546.375-.875.969v4.75q.329.578.875.953.547.375 1.375.375.704 0 1.204-.297.515-.297.843-.797.328-.5.485-1.156.172-.657.172-1.375v-.203zm8.914 5.203q-1.031 0-1.906-.36t-1.5-.984q-.61-.64-.953-1.516-.344-.875-.344-1.906v-.39q0-1.188.375-2.126.39-.953 1.015-1.593.641-.657 1.438-1 .812-.344 1.656-.344 1.063 0 1.86.375.796.36 1.328 1.016.531.64.781 1.53.266.876.266 1.907v.75h-7.032q.016.688.25 1.281.235.578.641 1.032.406.437.969.703.562.25 1.25.25.906 0 1.593-.36.704-.375 1.172-.968l1.032.796q-.25.375-.625.72-.36.327-.844.593-.485.266-1.094.422-.61.172-1.328.172zm-.219-8.844q-.515 0-.969.187-.453.188-.812.547-.36.36-.625.89-.25.517-.344 1.204h5.297v-.125q-.016-.5-.187-.984-.157-.485-.47-.86-.296-.39-.765-.625-.469-.234-1.125-.234z"/><path fill="none" d="M380.811 150c30.558 0 45.837 13.59 61.117 27.181 15.28 13.59 30.56 27.181 61.12 27.181"/><path stroke="#ea4335" stroke-width="2" stroke-linejoin="round" stroke-linecap="butt" d="M380.811 150c30.558 0 45.837 13.59 61.117 27.181 7.64 6.795 15.28 13.59 24.83 18.687a69.175 69.175 0 0 0 15.996 6.158c1.492.372 3.029.704 4.614.992a77.654 77.654 0 0 0 3.65.576l.053.007"/><path fill="#ea4335" stroke="#ea4335" stroke-width="2" stroke-linecap="butt" d="M490.862 206.897l9.267-2.72-8.848-3.873z" fill-rule="evenodd"/></g></svg>