<svg viewBox="0 0 960 540" fill="none" stroke-linecap="square" stroke-miterlimit="10" xmlns="http://www.w3.org/2000/svg"><clipPath id="a"><path d="M0 0h960v540H0V0z"/></clipPath><g clip-path="url(#a)"><path fill="#fff" d="M0 0h960v540H0z" fill-rule="evenodd"/><path d="M38.514 52.213h729.48v303.622H38.515z"/><path fill="#000" d="M57.89 84.253q-.126-.25-.204-.61-.078-.375-.11-.781-.327.328-.733.625-.407.297-.891.516-.484.218-1.047.343-.547.141-1.172.141-1 0-1.812-.297-.813-.297-1.39-.781-.563-.5-.876-1.188-.312-.687-.312-1.484 0-1.047.406-1.828.422-.781 1.187-1.297.766-.531 1.828-.781 1.079-.266 2.407-.266h2.36v-1q0-.578-.22-1.031-.203-.453-.593-.766-.375-.328-.938-.5-.547-.187-1.25-.187-.64 0-1.156.172-.5.156-.86.437-.343.266-.546.64-.188.36-.188.75h-2.172q0-.687.344-1.343.36-.672 1-1.203.656-.547 1.578-.875.938-.328 2.125-.328 1.078 0 2 .265.922.266 1.594.797.687.531 1.062 1.328.39.797.39 1.875v5.891q0 .625.11 1.344.125.703.344 1.234v.188H57.89zm-3.829-1.657q.625 0 1.172-.156.563-.172 1-.437.453-.266.781-.61.329-.36.516-.734v-2.563h-2.016q-1.89 0-2.953.563-1.047.562-1.047 1.765 0 .47.157.875.156.391.468.688.329.281.797.453.485.156 1.125.156zm11.84-11.03l.156 1.874q.688-.984 1.688-1.531 1.016-.563 2.266-.578.984 0 1.796.281.829.281 1.391.89.578.594.89 1.516.313.922.313 2.188v8.047H72.23v-8q0-.844-.187-1.422-.188-.594-.563-.953-.36-.375-.89-.532-.532-.172-1.235-.172-1.078 0-1.906.547-.828.547-1.328 1.438v9.094h-2.156V71.565H65.9zM83.757 82.72q.593 0 1.14-.187.563-.188 1-.516.438-.328.688-.781.265-.453.281-.984h2.047q0 .843-.438 1.609-.422.766-1.14 1.36-.719.577-1.64.921-.923.344-1.938.344-1.438 0-2.516-.516-1.078-.515-1.797-1.39-.719-.875-1.094-2.016-.359-1.14-.359-2.406v-.5q0-1.25.36-2.39.374-1.157 1.093-2.032t1.797-1.39q1.078-.516 2.516-.516 1.125 0 2.062.36.953.358 1.64.983.688.61 1.063 1.454.39.843.39 1.796h-2.046q-.016-.562-.25-1.078-.234-.515-.656-.89-.407-.39-.985-.61-.562-.234-1.218-.234-1 0-1.688.406-.687.406-1.11 1.063-.421.64-.609 1.453-.172.812-.172 1.625v.5q0 .828.172 1.64.188.813.594 1.47.422.655 1.11 1.062.687.39 1.703.39zm11.168-9.265q.687-1 1.671-1.547 1-.563 2.25-.578 1 0 1.813.297.812.28 1.375.89.578.61.89 1.547.313.922.313 2.203v7.985h-2.172v-8q0-1.563-.75-2.329-.734-.765-2.11-.75-1.046 0-1.905.516-.844.5-1.375 1.344v9.219h-2.157v-18h2.157v7.203zm11.636 4.343q0-1.375.39-2.546.407-1.188 1.142-2.047.75-.875 1.812-1.375 1.063-.5 2.406-.5 1.344 0 2.407.5 1.078.5 1.828 1.375.75.86 1.14 2.047.407 1.171.407 2.546v.25q0 1.375-.407 2.547-.39 1.172-1.14 2.047-.75.86-1.813 1.36-1.062.484-2.406.484t-2.422-.484q-1.062-.5-1.812-1.36-.735-.875-1.141-2.047-.39-1.172-.39-2.547v-.25zm2.157.25q0 .938.218 1.797.235.844.688 1.485.453.64 1.125 1.015.687.375 1.578.375.89 0 1.562-.375.688-.375 1.125-1.015.454-.64.672-1.485.235-.859.235-1.797v-.25q0-.937-.235-1.78-.218-.845-.672-1.485-.453-.656-1.125-1.031-.671-.391-1.578-.391-.906 0-1.578.39-.656.376-1.11 1.032-.452.64-.687 1.484-.218.844-.218 1.781v.25zm21.152-6.718q.312 0 .64.031.329.016.626.062.296.032.546.094.25.047.422.125l-.297 2.125q-.625-.14-1.203-.203-.562-.078-1.187-.078-1.516 0-2.469.703-.937.688-1.39 1.922v8.14h-2.172V71.566h2.062l.11 2.016q.765-1.032 1.843-1.64 1.094-.61 2.469-.61z"/><path fill="#e67c73" d="M160.83 75.112h-10.468v-1.89h10.469v1.89zm0 4.86h-10.468v-1.876h10.469v1.875z"/><path fill="#000" d="M178.76 77.8q0-1.407.36-2.594.36-1.203 1.016-2.047.671-.86 1.609-1.344.937-.484 2.094-.484 1.14 0 1.984.39.86.375 1.469 1.11v-6.578h2.172v18h-1.985l-.093-1.344q-.641.781-1.516 1.187-.875.391-2.047.391-1.156 0-2.094-.484-.922-.5-1.578-1.36-.656-.875-1.031-2.047-.36-1.187-.36-2.547v-.25zm2.172.25q0 .921.204 1.765.203.828.609 1.469.422.625 1.062 1 .641.36 1.547.36.547 0 .985-.126.453-.125.812-.36.375-.25.656-.577.282-.344.485-.75v-5.89q-.422-.767-1.14-1.267-.704-.5-1.766-.5-.922 0-1.579.375-.64.375-1.062 1.016-.406.64-.61 1.484-.203.829-.203 1.75v.25zm12.043-.25q0-1.376.391-2.547.406-1.188 1.14-2.047.75-.875 1.813-1.375t2.406-.5q1.344 0 2.407.5 1.078.5 1.828 1.375.75.86 1.14 2.047.407 1.171.407 2.546v.25q0 1.375-.407 2.547-.39 1.172-1.14 2.047-.75.86-1.813 1.36-1.062.484-2.406.484t-2.422-.484q-1.062-.5-1.812-1.36-.735-.875-1.141-2.047-.39-1.172-.39-2.547v-.25zm2.157.25q0 .937.218 1.796.235.844.688 1.485.453.64 1.125 1.015.687.375 1.578.375.89 0 1.562-.375.688-.375 1.125-1.015.454-.64.672-1.485.235-.859.235-1.797v-.25q0-.937-.235-1.78-.218-.845-.672-1.485-.453-.656-1.125-1.031-.671-.391-1.578-.391-.906 0-1.578.39-.656.376-1.11 1.032-.452.64-.687 1.484-.218.844-.218 1.781v.25zm18.246 4.671q.593 0 1.14-.187.563-.188 1-.516.438-.328.688-.781.265-.453.281-.984h2.047q0 .843-.438 1.609-.421.766-1.14 1.36-.719.577-1.64.921-.923.344-1.938.344-1.438 0-2.516-.516-1.078-.515-1.797-1.39-.719-.875-1.094-2.016-.359-1.14-.359-2.406v-.5q0-1.25.36-2.39.374-1.157 1.093-2.032t1.797-1.39q1.078-.516 2.516-.516 1.125 0 2.062.36.953.358 1.64.983.688.61 1.063 1.454.391.843.391 1.796h-2.047q-.016-.562-.25-1.078-.234-.515-.656-.89-.406-.39-.985-.61-.562-.234-1.218-.234-1 0-1.688.406-.687.406-1.11 1.063-.421.64-.609 1.453-.171.812-.171 1.625v.5q0 .828.171 1.64.188.813.594 1.47.422.655 1.11 1.062.687.39 1.703.39zm17.23-.218q-.625.937-1.578 1.468-.953.516-2.187.516-1 0-1.813-.313-.812-.312-1.39-.968-.563-.657-.876-1.672-.312-1.016-.312-2.422v-7.547h2.172v7.563q0 1.03.156 1.718.172.672.5 1.078.328.407.797.579.484.156 1.094.156 1.328 0 2.14-.531.813-.547 1.22-1.47v-9.093h2.17v12.688h-1.968l-.125-1.75zm7.168-10.938l.063 1.203q.39-.672 1.015-1.047.625-.375 1.516-.39 1.75 0 2.328 1.36.375-.61.984-.97.625-.375 1.5-.39 1.407 0 2.157.86.75.858.75 2.593v9.469h-2.063v-9.5q0-1.594-1.469-1.579-.39 0-.671.11-.282.11-.47.297-.187.172-.296.422-.094.234-.14.484v9.766h-2.063v-9.5q0-.766-.344-1.172-.328-.422-1.062-.407-.688 0-1.063.282-.375.265-.547.703v10.094h-2.062V71.565h1.937zm19.012 12.922q-1.328 0-2.453-.453-1.125-.469-1.922-1.281-.797-.829-1.25-1.954-.438-1.125-.438-2.437v-.5q0-1.531.485-2.734.5-1.22 1.312-2.063.828-.844 1.86-1.281 1.03-.453 2.125-.453 1.375 0 2.39.484 1.031.469 1.703 1.313.688.828 1.016 1.968.344 1.141.344 2.47v.968h-9.063q.031.86.328 1.625.313.765.828 1.344.516.562 1.235.89.734.328 1.625.328 1.156 0 2.047-.468.906-.47 1.515-1.25l1.313 1.03q-.313.485-.797.923-.469.437-1.094.781-.61.344-1.406.547-.781.203-1.703.203zm-.281-11.375q-.657 0-1.25.25-.579.234-1.047.703-.469.453-.797 1.14-.313.673-.438 1.548h6.813v-.172q-.031-.625-.235-1.25-.203-.625-.609-1.11-.39-.5-1-.797-.61-.312-1.437-.312zm11.027-1.547l.156 1.875q.688-.984 1.688-1.531 1.015-.563 2.265-.578.985 0 1.797.281.828.281 1.39.89.579.594.891 1.516.313.922.313 2.188v8.047h-2.172v-8q0-.844-.187-1.422-.188-.594-.563-.953-.36-.375-.89-.532-.532-.172-1.235-.172-1.078 0-1.906.547-.828.547-1.328 1.438v9.094h-2.157V71.565h1.938zm17.59-3.062v3.062h4.828v1.688h-4.828v6.89q0 .735.187 1.219.188.469.516.766.328.28.75.406.437.11.922.11.344 0 .719-.032.375-.047.734-.11.36-.062.672-.124.312-.063.5-.11l.312 1.531q-.265.172-.656.297-.39.125-.844.203-.453.094-.968.141-.516.047-1.016.047-.844 0-1.578-.234-.735-.25-1.281-.766-.532-.531-.844-1.344-.297-.828-.297-2v-6.89h-3.328v-1.688h3.328v-3.062h2.172z"/><path fill="#e67c73" d="M298.167 82.846q0-.359.11-.656.109-.312.312-.531.218-.235.53-.36.329-.125.75-.125.423 0 .735.125.328.125.547.36.219.219.328.531.11.297.11.656 0 .344-.11.641-.11.297-.328.516-.219.218-.547.343-.312.125-.734.125t-.75-.125q-.313-.125-.531-.343-.203-.22-.313-.516-.11-.297-.11-.64z"/><path fill="#000" d="M314.194 82.721q.594 0 1.14-.187.563-.188 1-.516.438-.328.688-.781.266-.453.281-.984h2.047q0 .843-.437 1.609-.422.766-1.14 1.36-.72.577-1.641.921-.922.344-1.938.344-1.437 0-2.516-.516-1.078-.515-1.796-1.39-.72-.875-1.094-2.016-.36-1.14-.36-2.406v-.5q0-1.25.36-2.39.375-1.157 1.094-2.032.718-.875 1.796-1.39 1.079-.516 2.516-.516 1.125 0 2.063.36.953.358 1.64.983.688.61 1.063 1.454.39.843.39 1.796h-2.047q-.015-.562-.25-1.078-.234-.515-.656-.89-.406-.39-.984-.61-.563-.234-1.219-.234-1 0-1.687.406-.688.406-1.11 1.063-.422.64-.61 1.453-.171.812-.171 1.625v.5q0 .828.172 1.64.187.813.594 1.47.421.655 1.109 1.062.687.39 1.703.39zm17.309-11.39q.312 0 .64.031.328.016.625.062.297.032.547.094.25.047.422.125l-.297 2.125q-.625-.14-1.203-.203-.562-.078-1.187-.078-1.516 0-2.47.703-.937.688-1.39 1.922v8.14h-2.172V71.566h2.063l.11 2.016q.765-1.032 1.843-1.64 1.094-.61 2.469-.61zm11.699 13.156q-1.328 0-2.453-.453-1.125-.469-1.922-1.281-.797-.829-1.25-1.954-.438-1.125-.438-2.437v-.5q0-1.531.485-2.734.5-1.22 1.312-2.063.828-.844 1.86-1.281 1.03-.453 2.125-.453 1.375 0 2.39.484 1.032.469 1.703 1.313.688.828 1.016 1.968.344 1.141.344 2.47v.968h-9.063q.032.86.328 1.625.313.765.829 1.344.515.562 1.234.89.734.328 1.625.328 1.156 0 2.047-.468.906-.47 1.515-1.25l1.313 1.03q-.313.485-.797.923-.469.437-1.094.781-.61.344-1.406.547-.781.203-1.703.203zm-.281-11.375q-.657 0-1.25.25-.578.234-1.047.703-.469.453-.797 1.14-.313.673-.438 1.548h6.813v-.172q-.031-.625-.234-1.25-.204-.625-.61-1.11-.39-.5-1-.797-.61-.312-1.437-.312zm17.418 11.14q-.125-.25-.203-.609-.079-.375-.11-.781-.328.328-.734.625-.406.297-.89.516-.485.218-1.048.343-.547.141-1.172.141-1 0-1.812-.297-.813-.297-1.39-.781-.563-.5-.876-1.188-.312-.687-.312-1.484 0-1.047.406-1.828.422-.781 1.188-1.297.765-.531 1.828-.781 1.078-.266 2.406-.266h2.36v-1q0-.578-.22-1.031-.203-.453-.593-.766-.375-.328-.938-.5-.547-.187-1.25-.187-.64 0-1.156.172-.5.156-.86.437-.343.266-.546.64-.188.36-.188.75h-2.172q0-.687.344-1.343.36-.672 1-1.203.656-.547 1.578-.875.938-.328 2.125-.328 1.078 0 2 .265.922.266 1.594.797.688.531 1.063 1.328.39.797.39 1.875v5.891q0 .625.11 1.344.125.703.343 1.234v.188h-2.265zm-3.828-1.656q.625 0 1.171-.156.563-.172 1-.437.454-.266.782-.61.328-.36.515-.734v-2.563h-2.015q-1.891 0-2.953.563-1.047.562-1.047 1.765 0 .47.156.875.156.391.469.688.328.281.797.453.484.156 1.125.156zm15.027-14.093v3.062h4.828v1.688h-4.828v6.89q0 .735.187 1.219.188.469.516.766.328.28.75.406.437.11.922.11.344 0 .719-.032.375-.047.734-.11.36-.062.672-.124.312-.063.5-.11l.312 1.531q-.265.172-.656.297-.39.125-.844.203-.453.094-.968.141-.516.047-1.016.047-.844 0-1.578-.234-.735-.25-1.281-.766-.532-.531-.844-1.344-.297-.828-.297-2v-6.89h-3.328v-1.688h3.328v-3.062h2.172zm14.871 15.984q-1.328 0-2.453-.453-1.125-.469-1.922-1.281-.797-.829-1.25-1.954-.438-1.125-.438-2.437v-.5q0-1.531.485-2.734.5-1.22 1.312-2.063.828-.844 1.86-1.281 1.031-.453 2.125-.453 1.375 0 2.39.484 1.032.469 1.703 1.313.688.828 1.016 1.968.344 1.141.344 2.47v.968h-9.063q.032.86.328 1.625.313.765.829 1.344.515.562 1.234.89.734.328 1.625.328 1.156 0 2.047-.468.906-.47 1.515-1.25l1.313 1.03q-.313.485-.797.923-.469.437-1.094.781-.609.344-1.406.547-.781.203-1.703.203zm-.281-11.375q-.657 0-1.25.25-.578.234-1.047.703-.469.453-.797 1.14-.313.673-.438 1.548h6.813v-.172q-.031-.625-.234-1.25-.204-.625-.61-1.11-.39-.5-1-.797-.61-.312-1.437-.312zm18.465 3.25h-7.125v6.047h8.312v1.844h-10.469V67.19h10.36v1.844h-8.203v5.484h7.125v1.844zm5.355-10.11h6.484v16.126h4.141v1.875h-10.625v-1.875h4.313V68.143h-4.313v-1.89zm19.668 18.235q-1.328 0-2.453-.453-1.125-.469-1.922-1.281-.797-.829-1.25-1.954-.438-1.125-.438-2.437v-.5q0-1.531.485-2.734.5-1.22 1.312-2.063.828-.844 1.86-1.281 1.031-.453 2.125-.453 1.375 0 2.39.484 1.032.469 1.703 1.313.688.828 1.016 1.968.344 1.141.344 2.47v.968h-9.063q.032.86.328 1.625.313.765.829 1.344.515.562 1.234.89.734.328 1.625.328 1.156 0 2.047-.468.906-.47 1.515-1.25l1.313 1.03q-.313.485-.797.923-.469.437-1.094.781-.609.344-1.406.547-.781.203-1.703.203zm-.281-11.375q-.657 0-1.25.25-.578.234-1.047.703-.469.453-.797 1.14-.313.673-.438 1.548h6.813v-.172q-.031-.625-.234-1.25-.204-.625-.61-1.11-.39-.5-1-.797-.61-.312-1.437-.312zm10.074-1.547l.062 1.203q.391-.672 1.016-1.047.625-.375 1.516-.39 1.75 0 2.328 1.36.375-.61.984-.97.625-.375 1.5-.39 1.406 0 2.156.86.75.858.75 2.593v9.469h-2.062v-9.5q0-1.594-1.469-1.579-.39 0-.672.11-.28.11-.468.297-.188.172-.297.422-.094.234-.14.484v9.766h-2.063v-9.5q0-.766-.344-1.172-.328-.422-1.063-.407-.687 0-1.062.282-.375.265-.547.703v10.094h-2.063V71.565h1.938zm19.012 12.922q-1.328 0-2.453-.453-1.125-.469-1.922-1.281-.797-.829-1.25-1.954-.438-1.125-.438-2.437v-.5q0-1.531.485-2.734.5-1.22 1.312-2.063.828-.844 1.86-1.281 1.03-.453 2.124-.453 1.375 0 2.391.484 1.031.469 1.703 1.313.688.828 1.016 1.968.344 1.141.344 2.47v.968h-9.063q.031.86.328 1.625.313.765.828 1.344.516.562 1.235.89.734.328 1.625.328 1.156 0 2.047-.468.906-.47 1.515-1.25l1.313 1.03q-.313.485-.797.923-.469.437-1.094.781-.61.344-1.406.547-.781.203-1.703.203zm-.282-11.375q-.656 0-1.25.25-.578.234-1.046.703-.47.453-.797 1.14-.313.673-.438 1.548h6.813v-.172q-.032-.625-.235-1.25-.203-.625-.61-1.11-.39-.5-1-.797-.608-.312-1.437-.312zm11.028-1.547l.156 1.875q.688-.984 1.688-1.531 1.015-.563 2.265-.578.985 0 1.797.281.828.281 1.39.89.579.594.891 1.516.313.922.313 2.188v8.047h-2.172v-8q0-.844-.188-1.422-.187-.594-.562-.953-.36-.375-.89-.532-.532-.172-1.235-.172-1.078 0-1.906.547-.828.547-1.328 1.438v9.094h-2.157V71.565h1.938zm17.59-3.062v3.062h4.828v1.688h-4.828v6.89q0 .735.187 1.219.188.469.516.766.328.28.75.406.437.11.922.11.343 0 .718-.032.375-.047.735-.11.36-.062.672-.124.312-.063.5-.11l.312 1.531q-.266.172-.656.297t-.844.203q-.453.094-.969.141-.515.047-1.015.047-.844 0-1.578-.234-.735-.25-1.282-.766-.53-.531-.843-1.344-.297-.828-.297-2v-6.89h-3.328v-1.688h3.328v-3.062h2.172z"/><path fill="#e67c73" d="M498.175 77.33q0-1.687.265-3.156.266-1.484.703-2.734.453-1.266 1.032-2.297.578-1.047 1.218-1.86.641-.812 1.282-1.374.64-.578 1.234-.906l.453 1.421q-.734.547-1.453 1.5-.719.954-1.297 2.313-.562 1.344-.922 3.11-.344 1.765-.344 3.952v.172q0 2.188.344 3.953.36 1.766.922 3.125.578 1.375 1.297 2.329.719.968 1.453 1.562l-.453 1.328q-.594-.328-1.25-.906-.64-.563-1.281-1.375-.64-.813-1.219-1.86-.578-1.03-1.016-2.296-.437-1.266-.703-2.735-.265-1.484-.265-3.156v-.11z"/><path fill="#0f9d58" d="M516.046 67.55l-.25 4.312h-1.61v-5.609h1.86v1.296zm17.12 16.703q-.124-.25-.202-.61-.078-.375-.11-.781-.328.328-.734.625-.406.297-.89.516-.485.218-1.048.343-.546.141-1.171.141-1 0-1.813-.297-.812-.297-1.39-.781-.563-.5-.876-1.188-.312-.687-.312-1.484 0-1.047.406-1.828.422-.781 1.188-1.297.765-.531 1.828-.781 1.078-.266 2.406-.266h2.36v-1q0-.578-.22-1.031-.202-.453-.593-.766-.375-.328-.938-.5-.546-.187-1.25-.187-.64 0-1.156.172-.5.156-.86.437-.343.266-.546.64-.188.36-.188.75h-2.171q0-.687.343-1.343.36-.672 1-1.203.657-.547 1.578-.875.938-.328 2.125-.328 1.079 0 2 .265.922.266 1.594.797.688.531 1.063 1.328.39.797.39 1.875v5.891q0 .625.11 1.344.125.703.343 1.234v.188h-2.265zm-3.827-1.657q.625 0 1.172-.156.562-.172 1-.437.453-.266.78-.61.329-.36.516-.734v-2.563h-2.015q-1.89 0-2.953.563-1.047.562-1.047 1.765 0 .47.156.875.156.391.469.688.328.281.797.453.484.156 1.125.156zM544.85 67.55l-.25 4.313h-1.609v-5.609h1.86v1.296z"/><path fill="#e67c73" d="M561.55 77.44q0 1.672-.266 3.156-.266 1.47-.719 2.735-.437 1.265-1.015 2.297-.579 1.046-1.22 1.859-.64.812-1.296 1.375-.64.578-1.234.906l-.454-1.328q.735-.547 1.454-1.516.718-.953 1.28-2.328.579-1.375.923-3.156.36-1.781.36-3.969V77.3q0-2.187-.376-3.968-.375-1.797-.969-3.172-.578-1.375-1.297-2.328-.703-.969-1.375-1.516l.454-1.312q.593.328 1.234.906.656.562 1.297 1.375.64.812 1.219 1.86.578 1.03 1.015 2.296.453 1.25.719 2.734.266 1.47.266 3.157v.11zm10.261-4.594q0-.359.11-.656.11-.312.312-.531.219-.235.531-.36.329-.125.75-.125.422 0 .735.125.328.125.547.36.218.219.328.531.11.297.11.656 0 .344-.11.641-.11.297-.328.516-.22.218-.547.343-.313.125-.735.125-.421 0-.75-.125-.312-.125-.53-.343-.204-.22-.313-.516-.11-.297-.11-.64zm3.72 10.907q0 .546-.142 1.14-.125.61-.39 1.203-.266.594-.64 1.125-.376.547-.86.97l-1.344-.735q.563-.828.797-1.75.234-.922.234-1.922V81.69h2.344v2.063z"/><path fill="#34a853" d="M375.314 177.75c0-6.282 5.093-11.375 11.375-11.375h166.225a11.375 11.375 0 0 1 11.376 11.376v45.5c0 6.283-5.093 11.376-11.376 11.376H386.69c-6.282 0-11.375-5.093-11.375-11.375z" fill-rule="evenodd"/><path stroke="#666" stroke-linejoin="round" stroke-linecap="butt" d="M375.314 177.75c0-6.282 5.093-11.375 11.375-11.375h166.225a11.375 11.375 0 0 1 11.376 11.376v45.5c0 6.283-5.093 11.376-11.376 11.376H386.69c-6.282 0-11.375-5.093-11.375-11.375z"/><path fill="#fff" d="M402.855 196.581h-1.984v-4.515h-2.953v4.515h-2V186.16h2v4.282h2.953v-4.282h1.984v10.422zm9.577-8.78h-3.219v8.78h-2.016v-8.78h-3.172v-1.642h8.407v1.641zm3.607-1.642l.985 3.922 1.125-3.922h2.5v10.422h-1.844v-3.078l.078-4.875-1.36 4.516h-1l-1.218-4.328.078 4.687v3.078h-1.844V186.16h2.5zm8.483 8.797h4.875v1.625h-6.89V186.16h2.015v8.797zm11.764-.547h-3.125l-.625 2.172h-2.11l3.407-10.422h1.828l3.344 10.422h-2.11l-.609-2.172zm-2.64-1.718h2.171l-1.078-3.828-1.094 3.828zm8.185-3.86l.125 1.078q.406-.578 1-.89.594-.328 1.328-.328.578 0 1.063.172.484.171.844.546.359.375.546.97.204.593.204 1.437v4.765h-1.985v-4.734q0-.469-.11-.766-.109-.297-.296-.468-.188-.172-.469-.235-.265-.062-.61-.062-.515 0-.874.203-.344.203-.578.562v5.5h-1.985v-7.75h1.797zm10.42 6.297q.297 0 .563-.078.266-.094.453-.25.203-.156.313-.375.109-.219.109-.484h1.875q0 .593-.266 1.11-.25.515-.703.89-.453.375-1.047.593-.593.204-1.265.204-.891 0-1.578-.297-.672-.313-1.141-.844-.453-.531-.688-1.234-.218-.72-.218-1.532v-.218q0-.813.218-1.532.235-.718.688-1.234.469-.531 1.14-.844.672-.312 1.563-.312.719 0 1.328.218.61.22 1.047.61.438.39.672.953.25.547.25 1.234h-1.875q0-.297-.094-.547-.094-.265-.297-.437-.187-.188-.468-.297-.266-.125-.579-.125-.484 0-.796.203-.297.188-.485.516-.172.312-.25.734-.078.406-.078.86v.218q0 .438.063.86.078.422.25.75.187.312.5.5.312.187.796.187zm7.358-5.219q.39-.578.938-.89.562-.328 1.25-.328.609 0 1.109.187.516.188.875.578.36.375.562.985.204.61.204 1.453v4.687h-1.985v-4.703q0-.406-.11-.703-.093-.312-.296-.5-.188-.187-.469-.266-.265-.093-.61-.093-.5 0-.874.187-.36.172-.594.485v5.593h-1.984v-11h1.984v4.328zm6.53 2.735q0-.844.234-1.563.25-.718.719-1.25.469-.53 1.14-.828.688-.312 1.563-.312t1.547.312q.687.297 1.156.828.469.532.703 1.25.25.72.25 1.563v.14q0 .86-.25 1.579-.234.718-.703 1.25-.469.53-1.156.828-.672.297-1.531.297-.875 0-1.563-.297-.687-.297-1.156-.828-.469-.532-.719-1.25-.234-.72-.234-1.579v-.14zm2 .14q0 .485.078.922.094.422.297.75.203.313.515.5.328.172.782.172.437 0 .75-.172.312-.187.5-.5.203-.328.296-.75.094-.437.094-.922v-.14q0-.485-.094-.906-.093-.422-.296-.735-.188-.328-.5-.515-.313-.188-.766-.188t-.766.188q-.312.187-.515.515-.203.313-.297.735-.078.421-.078.906v.14zm12.623-4.093q.453 0 .828.062.39.063.625.14l-.281 1.985q-.406-.094-.813-.14-.406-.047-.78-.047-.845 0-1.345.328-.5.312-.75.906v4.656h-2v-7.75h1.86l.093 1.282q.47-.672 1.125-1.047.672-.375 1.438-.375zm9.576 3.328h-4.28v2.937h5.015v1.625h-7.032V186.16h7v1.641h-4.984v2.625h4.281v1.594zm2.874-6.438h4.328v9.375h2.219v1.625h-6.547v-1.625h2.328v-7.75h-2.328v-1.625zm12.139 11.14q-.891 0-1.625-.28-.735-.297-1.266-.797-.516-.516-.797-1.188-.281-.687-.281-1.468v-.297q0-.875.281-1.61.281-.734.781-1.265.5-.532 1.188-.828.687-.297 1.5-.297.828 0 1.484.28.657.282 1.11.782.453.5.687 1.203.25.703.25 1.547v.844h-5.266q.063.406.235.734.187.313.453.563.266.234.61.36.359.124.78.124.297 0 .579-.047.297-.062.562-.172.266-.125.485-.28.234-.173.406-.391l1 1.078q-.188.265-.484.515-.297.25-.704.453-.406.204-.906.313-.484.125-1.062.125zm-.235-6.42q-.344 0-.625.124-.265.11-.484.344-.203.219-.36.531-.14.297-.203.688h3.266v-.172q-.016-.313-.125-.578-.11-.282-.313-.485-.203-.219-.5-.328-.28-.125-.656-.125zm6.514-1.47l.047.938q.234-.5.625-.781.39-.297.938-.297.937 0 1.234.828.219-.39.578-.61.36-.218.86-.218.343 0 .64.14.313.125.531.407.235.28.36.734.125.437.125 1.078v5.531h-1.813v-5.53q0-.22-.047-.36-.047-.157-.125-.235-.078-.078-.187-.11-.094-.03-.203-.03-.203 0-.36.093-.14.094-.218.266v5.906h-1.75v-5.53q0-.235-.047-.376-.032-.14-.11-.219-.078-.078-.187-.11-.094-.03-.203-.03-.235 0-.375.125-.141.125-.22.343v5.797h-1.812v-7.75h1.72zm11.311 7.89q-.89 0-1.625-.28-.734-.297-1.266-.797-.515-.516-.797-1.188-.28-.687-.28-1.468v-.297q0-.875.28-1.61.282-.734.782-1.265.5-.532 1.187-.828.688-.297 1.5-.297.828 0 1.485.28.656.282 1.109.782.453.5.687 1.203.25.703.25 1.547v.844h-5.265q.062.406.234.734.188.313.453.563.266.234.61.36.36.124.781.124.297 0 .578-.047.297-.062.563-.172.265-.125.484-.28.234-.173.406-.391l1 1.078q-.187.265-.484.515t-.703.453q-.407.204-.907.313-.484.125-1.062.125zm-.234-6.42q-.344 0-.625.124-.266.11-.485.344-.203.219-.36.531-.14.297-.202.688h3.265v-.172q-.015-.313-.125-.578-.109-.282-.312-.485-.203-.219-.5-.328-.281-.125-.656-.125zm7.076-1.47l.125 1.078q.406-.578 1-.89.594-.328 1.328-.328.578 0 1.063.172.484.171.843.546.36.375.547.97.203.593.203 1.437v4.765h-1.984v-4.734q0-.469-.11-.766-.109-.297-.296-.468-.188-.172-.469-.235-.266-.062-.61-.062-.515 0-.874.203-.344.203-.578.562v5.5h-1.985v-7.75h1.797zm10.639-1.89v1.89h2.89v1.47h-2.89v3.327q0 .422.094.719.11.281.281.453.172.156.422.234.265.063.578.063.234 0 .469-.016.234-.03.453-.062.219-.031.406-.063.203-.03.328-.078l.203 1.375q-.218.125-.5.219-.265.078-.593.125-.313.062-.657.094-.328.047-.656.047-.64 0-1.156-.172-.516-.172-.89-.516-.376-.36-.579-.906-.187-.547-.187-1.313v-3.53h-1.766v-1.47h1.766v-1.89h1.984zm-111.58 26.484q0-.281.093-.516.094-.234.266-.406.187-.187.437-.281.266-.11.594-.11.313 0 .563.11.265.094.437.281.188.172.281.406.094.235.094.516t-.094.516q-.093.234-.28.406-.173.172-.438.266-.25.109-.563.109-.328 0-.594-.11-.25-.093-.437-.265-.172-.172-.266-.406-.093-.235-.093-.516zm13.748-2.64q0 .843-.203 1.562-.188.719-.578 1.25-.375.531-.954.828-.562.297-1.296.297-.61 0-1.094-.203-.469-.219-.813-.61v3.657h-2V206.83h1.844l.078.766q.36-.422.844-.656.484-.25 1.14-.25.735 0 1.297.28.563.282.954.813.39.516.578 1.25.203.72.203 1.594v.156zm-2-.157q0-.484-.094-.906-.078-.422-.266-.734-.187-.313-.484-.485-.297-.187-.719-.187-.53 0-.859.203-.328.203-.516.578v3.234q.188.36.516.578.328.22.875.22.422 0 .719-.188t.468-.5q.188-.328.266-.75.094-.438.094-.907v-.156zm9.389-3.937q.453 0 .828.062.39.063.625.14l-.281 1.985q-.407-.094-.813-.14-.406-.047-.781-.047-.844 0-1.344.328-.5.312-.75.906v4.656h-2v-7.75h1.86l.093 1.282q.469-.672 1.125-1.047.672-.375 1.438-.375zm2.967 3.953q0-.844.234-1.563.25-.718.719-1.25.469-.53 1.14-.828.688-.312 1.563-.312t1.547.312q.687.297 1.156.828.469.532.703 1.25.25.72.25 1.563v.14q0 .86-.25 1.579-.234.718-.703 1.25-.469.53-1.156.828-.672.297-1.531.297-.875 0-1.563-.297-.687-.297-1.156-.828-.469-.532-.719-1.25-.234-.72-.234-1.579v-.14zm2 .14q0 .485.078.922.094.422.297.75.203.313.515.5.329.172.782.172.437 0 .75-.172.312-.187.5-.5.203-.328.297-.75.093-.437.093-.922v-.14q0-.485-.093-.906-.094-.422-.297-.735-.188-.328-.5-.515-.313-.188-.766-.188t-.766.188q-.312.187-.515.515-.203.313-.297.735-.078.421-.078.906v.14zm10.717-5.843v1.89h2.89v1.47h-2.89v3.327q0 .422.094.719.109.281.28.453.173.156.423.234.265.063.578.063.234 0 .469-.016.234-.03.453-.062.219-.031.406-.063.203-.03.328-.078l.203 1.375q-.218.125-.5.219-.265.078-.593.125-.313.062-.657.094-.328.047-.656.047-.64 0-1.156-.172-.516-.172-.89-.516-.376-.36-.579-.906-.187-.547-.187-1.313v-3.53h-1.766v-1.47h1.766v-1.89h1.984zm4.873 5.703q0-.844.235-1.563.25-.718.718-1.25.47-.53 1.141-.828.687-.312 1.562-.312t1.547.312q.688.297 1.157.828.468.532.703 1.25.25.72.25 1.563v.14q0 .86-.25 1.579-.235.718-.703 1.25-.47.53-1.157.828-.672.297-1.53.297-.876 0-1.563-.297-.688-.297-1.157-.828-.468-.532-.718-1.25-.235-.72-.235-1.579v-.14zm2 .14q0 .485.078.922.094.422.297.75.203.313.516.5.328.172.781.172.438 0 .75-.172.313-.187.5-.5.203-.328.297-.75.094-.437.094-.922v-.14q0-.485-.094-.906-.094-.422-.297-.735-.187-.328-.5-.515-.312-.188-.766-.188-.453 0-.765.188-.313.187-.516.515-.203.313-.297.735-.078.421-.078.906v.14zm10.717-5.843v1.89h2.89v1.47h-2.89v3.327q0 .422.094.719.11.281.281.453.172.156.422.234.266.063.578.063.235 0 .469-.016.234-.03.453-.062.219-.031.406-.063.204-.03.329-.078l.203 1.375q-.22.125-.5.219-.266.078-.594.125-.313.062-.656.094-.328.047-.657.047-.64 0-1.156-.172-.515-.172-.89-.516-.375-.36-.579-.906-.187-.547-.187-1.313v-3.53h-1.766v-1.47h1.766v-1.89h1.984zm8.452 6.39l.218.828 2.063-5.328h2.203l-3.937 8.907q-.125.296-.329.64-.203.344-.515.64-.297.298-.75.485-.438.203-1.031.203-.141 0-.266-.015-.125 0-.234-.032-.11-.015-.235-.046-.11-.016-.234-.047l.25-1.516h.297q.203.016.312.016.235 0 .422-.14.188-.142.313-.313.125-.172.203-.313.078-.14.11-.14l.483-.907-3.28-7.422h2.171l1.766 4.5zm12.451-.547q0 .844-.203 1.563-.187.719-.578 1.25-.375.531-.953.828-.563.297-1.297.297-.61 0-1.094-.203-.469-.219-.812-.61v3.657h-2V206.83h1.843l.079.766q.359-.422.843-.656.485-.25 1.14-.25.735 0 1.298.28.562.282.953.813.39.516.578 1.25.203.72.203 1.594v.156zm-2-.156q0-.484-.094-.906-.078-.422-.265-.734-.188-.313-.485-.485-.296-.187-.718-.187-.532 0-.86.203-.328.203-.515.578v3.234q.187.36.515.578.328.22.875.22.422 0 .719-.188t.469-.5q.187-.328.265-.75.094-.438.094-.907v-.156zm7.592 4.094q-.89 0-1.625-.281-.734-.297-1.265-.797-.516-.516-.797-1.188-.282-.687-.282-1.468v-.297q0-.875.282-1.61.28-.734.78-1.265.5-.532 1.188-.828.688-.297 1.5-.297.829 0 1.485.28.656.282 1.11.782.452.5.687 1.203.25.703.25 1.547v.844h-5.266q.063.406.234.734.188.313.454.563.265.234.609.36.36.124.781.124.297 0 .578-.047.297-.062.563-.172.265-.125.484-.28.235-.173.406-.391l1 1.078q-.187.265-.484.515t-.703.453q-.406.204-.906.313-.485.125-1.063.125zm-.234-6.422q-.344 0-.625.125-.266.11-.485.344-.203.219-.359.531-.14.297-.203.688h3.266v-.172q-.016-.313-.125-.578-.11-.282-.313-.485-.203-.219-.5-.328-.281-.125-.656-.125z"/><path fill="#34a853" d="M375.314 295.231c0-6.282 5.093-11.375 11.375-11.375h166.225a11.375 11.375 0 0 1 11.376 11.375v45.501c0 6.283-5.093 11.376-11.376 11.376H386.69c-6.282 0-11.375-5.093-11.375-11.376z" fill-rule="evenodd"/><path stroke="#666" stroke-linejoin="round" stroke-linecap="butt" d="M375.314 295.231c0-6.282 5.093-11.375 11.375-11.375h166.225a11.375 11.375 0 0 1 11.376 11.375v45.501c0 6.283-5.093 11.376-11.376 11.376H386.69c-6.282 0-11.375-5.093-11.375-11.376z"/><path fill="#fff" d="M418.18 313.902h-2.532v-5.75h-3.766v5.75h-2.53v-13.266h2.53v5.437h3.766v-5.437h2.531v13.266zm12.18-11.172h-4.094v11.172h-2.563V302.73h-4.031v-2.094h10.687v2.094zm4.601-2.094l1.25 4.984 1.422-4.984h3.187v13.266h-2.343v-3.922l.11-6.203-1.75 5.75h-1.267l-1.562-5.516.11 5.969v3.922h-2.344v-13.266h3.187zm10.79 11.203h6.203v2.063h-8.782v-13.266h2.578v11.203zm16.617-3.75h-5.453v3.75h6.375v2.063h-8.938v-13.266h8.906v2.094h-6.343v3.343h5.453v2.016zm3.649-8.187h5.515v11.937h2.813v2.063h-8.328v-2.063h2.953v-9.86h-2.953v-2.077zm15.445 14.187q-1.14 0-2.078-.375-.922-.375-1.594-1.016-.656-.64-1.015-1.515-.36-.875-.36-1.86v-.375q0-1.125.36-2.046.359-.938.984-1.61.64-.687 1.516-1.047.875-.375 1.906-.375 1.062 0 1.89.344.844.344 1.422.984.579.641.875 1.547.313.891.313 1.97v1.077h-6.688q.063.5.282.922.234.406.578.719.344.297.781.469.453.156.984.156.375 0 .735-.078.375-.078.703-.219.344-.14.64-.344.297-.219.516-.5l1.266 1.375q-.235.328-.625.656-.375.329-.89.579-.516.25-1.141.406-.625.156-1.36.156zm-.297-8.172q-.422 0-.781.156-.36.141-.625.422-.266.282-.453.672-.188.39-.266.875h4.14v-.203q-.015-.39-.155-.75-.125-.36-.391-.61-.25-.265-.625-.406-.36-.156-.844-.156zm8.29-1.875l.078 1.203q.28-.64.765-1 .5-.375 1.22-.375 1.187 0 1.562 1.047.28-.5.734-.765.453-.282 1.094-.282.437 0 .828.172.39.156.672.516.297.36.453.922.156.562.156 1.39v7.032h-2.312v-7.047q0-.282-.063-.453-.047-.188-.156-.282-.094-.109-.235-.156-.125-.047-.265-.047-.266 0-.453.125-.172.125-.266.328v7.532h-2.234v-7.047q0-.282-.063-.469-.047-.188-.14-.281-.094-.094-.235-.14-.125-.048-.265-.048-.297 0-.47.172-.171.156-.28.438v7.375h-2.297v-9.86h2.172zm14.398 10.047q-1.14 0-2.078-.375-.922-.375-1.594-1.016-.656-.64-1.015-1.515-.36-.875-.36-1.86v-.375q0-1.125.36-2.046.36-.938.984-1.61.64-.687 1.516-1.047.875-.375 1.906-.375 1.063 0 1.89.344.844.344 1.423.984.578.641.875 1.547.312.891.312 1.97v1.077h-6.687q.062.5.28.922.235.406.579.719.344.297.781.469.453.156.985.156.375 0 .734-.078.375-.078.703-.219.344-.14.64-.344.298-.219.516-.5l1.266 1.375q-.234.328-.625.656-.375.329-.89.579-.516.25-1.141.406-.625.156-1.36.156zm-.297-8.172q-.421 0-.78.156-.36.141-.626.422-.265.282-.453.672-.187.39-.266.875h4.141v-.203q-.016-.39-.156-.75-.125-.36-.39-.61-.25-.265-.626-.406-.36-.156-.844-.156zm9.008-1.875l.157 1.375q.531-.75 1.281-1.14.766-.407 1.687-.407.735 0 1.36.22.625.218 1.062.702.453.469.703 1.219.25.75.25 1.828v6.063h-2.53v-6.032q0-.578-.141-.953-.125-.39-.375-.61-.235-.218-.579-.296-.343-.094-.78-.094-.657 0-1.11.266-.453.265-.735.719v7h-2.546v-9.86h2.296zm13.555-2.406v2.406h3.672v1.875h-3.672v4.235q0 .53.11.89.125.36.344.578.234.22.562.313.328.078.719.078.297 0 .594-.016.312-.03.593-.062.282-.047.516-.094.25-.047.422-.094l.234 1.735q-.25.156-.61.281-.359.11-.765.172-.39.078-.828.11-.437.046-.844.046-.812 0-1.484-.203-.656-.219-1.125-.672-.469-.453-.734-1.14-.25-.704-.25-1.672v-4.485h-2.25v-1.875h2.25v-2.406h2.546zm-108.451 32.797q0-.36.11-.656.124-.313.343-.532.234-.218.562-.343.328-.141.75-.141.407 0 .735.14.328.126.547.344.218.22.343.532.125.296.125.656 0 .344-.125.656-.125.297-.343.516-.22.218-.547.343-.328.141-.735.141-.422 0-.75-.14-.328-.126-.562-.344-.219-.219-.344-.516-.11-.312-.11-.656zm17.492-3.375q0 1.078-.25 2-.25.922-.75 1.594-.484.671-1.203 1.062-.719.375-1.64.375-.797 0-1.407-.266-.594-.28-1.031-.78v4.655h-2.531v-13.656h2.328l.094.969q.453-.547 1.078-.844.625-.297 1.453-.297.937 0 1.656.36.719.36 1.203 1.015.5.657.75 1.578.25.922.25 2.047v.188zm-2.531-.188q0-.609-.125-1.156-.11-.547-.36-.937-.234-.407-.609-.625-.375-.235-.906-.235-.672 0-1.094.266-.422.265-.656.734v4.11q.234.468.656.75.422.28 1.11.28.53 0 .906-.234.39-.25.625-.656.234-.406.344-.953.109-.547.109-1.156v-.188zm11.945-5q.579 0 1.063.078.484.063.797.157l-.375 2.531q-.5-.125-1.031-.172-.516-.062-1-.062-1.063 0-1.704.406-.64.406-.968 1.172v5.922h-2.532v-9.86h2.36l.125 1.61q.594-.829 1.437-1.297.844-.485 1.828-.485zm3.774 5.016q0-1.078.313-1.984.312-.922.906-1.594.594-.688 1.453-1.063.86-.375 1.969-.375 1.125 0 1.984.375.86.375 1.453 1.063.61.672.907 1.594.312.906.312 1.984v.187q0 1.079-.312 2-.297.922-.891 1.594-.594.672-1.469 1.047-.86.375-1.953.375-1.125 0-2-.375-.86-.375-1.453-1.047-.594-.672-.906-1.594-.313-.921-.313-2v-.187zm2.531.187q0 .625.11 1.172.125.532.375.938.265.406.672.64.406.235.984.235.547 0 .938-.235.406-.234.656-.64t.375-.938q.125-.547.125-1.172v-.187q0-.61-.125-1.14-.125-.548-.375-.954-.25-.406-.656-.64-.391-.235-.97-.235-.562 0-.968.235-.39.234-.656.64-.25.406-.375.953-.11.532-.11 1.141v.187zm13.665-7.437v2.406h3.672v1.875h-3.672v4.235q0 .53.11.89.124.36.343.578.234.22.562.313.329.078.72.078.296 0 .593-.016.312-.03.594-.062.28-.047.515-.094.25-.047.422-.094l.235 1.735q-.25.156-.61.281-.36.11-.765.172-.391.078-.829.11-.437.046-.843.046-.813 0-1.485-.203-.656-.219-1.125-.672-.468-.453-.734-1.14-.25-.704-.25-1.672v-4.485h-2.25v-1.875h2.25v-2.406h2.547zm6.195 7.25q0-1.078.313-1.984.312-.922.906-1.594.594-.688 1.453-1.063.86-.375 1.969-.375 1.125 0 1.984.375.86.375 1.453 1.063.61.672.907 1.594.312.906.312 1.984v.187q0 1.079-.312 2-.297.922-.89 1.594-.595.672-1.47 1.047-.859.375-1.953.375-1.125 0-2-.375-.86-.375-1.453-1.047-.594-.672-.906-1.594-.313-.921-.313-2v-.187zm2.532.187q0 .625.109 1.172.125.532.375.938.266.406.672.64.406.235.984.235.547 0 .938-.235.406-.234.656-.64t.375-.938q.125-.547.125-1.172v-.187q0-.61-.125-1.14-.125-.548-.375-.954-.25-.406-.656-.64-.39-.235-.969-.235-.563 0-.969.235-.39.234-.656.64-.25.406-.375.953-.11.532-.11 1.141v.187zm13.664-7.437v2.406h3.672v1.875h-3.672v4.235q0 .53.11.89.124.36.343.578.234.22.563.313.328.078.718.078.297 0 .594-.016.313-.03.594-.062.281-.047.515-.094.25-.047.422-.094l.235 1.735q-.25.156-.61.281-.36.11-.765.172-.391.078-.828.11-.438.046-.844.046-.813 0-1.485-.203-.656-.219-1.125-.672-.468-.453-.734-1.14-.25-.704-.25-1.672v-4.485h-2.25v-1.875h2.25v-2.406h2.547zm10.742 8.125l.297 1.062 2.625-6.78h2.797l-5.016 11.327q-.156.375-.421.813-.25.437-.641.812-.39.375-.953.625-.563.266-1.328.266-.188 0-.344-.016-.156-.015-.297-.047-.14-.015-.281-.046-.14-.032-.313-.079l.313-1.921h.39q.25.015.391.015.297 0 .531-.187.235-.172.391-.39.172-.22.266-.407.109-.172.14-.172l.61-1.156-4.172-9.438h2.781l2.234 5.719zm15.852-.703q0 1.078-.25 2-.25.922-.75 1.594-.484.671-1.203 1.062-.719.375-1.64.375-.797 0-1.407-.266-.594-.28-1.031-.78v4.655h-2.531v-13.656h2.328l.094.969q.453-.547 1.078-.844.625-.297 1.453-.297.937 0 1.656.36.719.36 1.203 1.015.5.657.75 1.578.25.922.25 2.047v.188zm-2.531-.188q0-.609-.125-1.156-.11-.547-.36-.937-.234-.407-.609-.625-.375-.235-.906-.235-.672 0-1.094.266-.422.265-.656.734v4.11q.234.468.656.75.422.28 1.11.28.53 0 .906-.234.39-.25.625-.656.234-.406.344-.953.109-.547.109-1.156v-.188zm9.649 5.22q-1.141 0-2.079-.376-.921-.375-1.593-1.016-.657-.64-1.016-1.515-.36-.875-.36-1.86v-.375q0-1.125.36-2.046.36-.938.984-1.61.641-.687 1.516-1.047.875-.375 1.906-.375 1.063 0 1.891.344.844.344 1.422.984.578.641.875 1.547.312.891.312 1.97v1.077h-6.687q.062.5.281.922.234.406.578.719.344.297.781.469.454.156.985.156.375 0 .734-.078.375-.078.703-.219.344-.14.641-.344.297-.219.516-.5l1.265 1.375q-.234.328-.625.656-.375.329-.89.579-.516.25-1.141.406-.625.156-1.36.156zm-.297-8.173q-.422 0-.782.156-.359.141-.625.422-.265.282-.453.672-.187.39-.265.875h4.14v-.203q-.015-.39-.156-.75-.125-.36-.39-.61-.25-.265-.626-.406-.359-.156-.843-.156z"/><path fill="#34a853" d="M375.345 412.712c0-6.283 5.093-11.376 11.376-11.376h166.225a11.375 11.375 0 0 1 11.376 11.376v45.5c0 6.283-5.093 11.376-11.376 11.376H386.721c-6.283 0-11.376-5.093-11.376-11.376z" fill-rule="evenodd"/><path stroke="#666" stroke-linejoin="round" stroke-linecap="butt" d="M375.345 412.712c0-6.283 5.093-11.376 11.376-11.376h166.225a11.375 11.375 0 0 1 11.376 11.376v45.5c0 6.283-5.093 11.376-11.376 11.376H386.721c-6.283 0-11.376-5.093-11.376-11.376z"/><path fill="#fff" d="M440.008 425.57h-5.453v3.75h6.375v2.062h-8.937v-13.266h8.906v2.094h-6.344v3.344h5.453v2.015zm3.649-8.188h5.516v11.937h2.812v2.063h-8.328v-2.063h2.953v-9.859h-2.953v-2.078zm15.445 14.187q-1.14 0-2.078-.375-.922-.375-1.593-1.015-.657-.64-1.016-1.516-.36-.875-.36-1.86v-.374q0-1.125.36-2.047.36-.938.984-1.61.641-.687 1.516-1.046.875-.375 1.906-.375 1.063 0 1.89.343.845.344 1.423.985.578.64.875 1.547.312.89.312 1.968v1.079h-6.687q.062.5.281.921.234.407.578.72.344.296.781.468.453.156.985.156.375 0 .734-.078.375-.078.703-.219.344-.14.64-.343.298-.22.516-.5l1.266 1.375q-.234.328-.625.656-.375.328-.89.578-.516.25-1.141.406-.625.156-1.36.156zm-.296-8.171q-.422 0-.782.156-.359.14-.625.422-.265.28-.453.672-.187.39-.265.875h4.14v-.204q-.015-.39-.156-.75-.125-.359-.39-.609-.25-.266-.626-.406-.359-.156-.843-.156zm8.289-1.875l.078 1.203q.281-.64.766-1 .5-.375 1.218-.375 1.188 0 1.563 1.047.281-.5.734-.766.453-.281 1.094-.281.438 0 .828.172.39.156.672.515.297.36.453.922.156.563.156 1.39v7.032h-2.312v-7.047q0-.281-.063-.453-.046-.188-.156-.281-.094-.11-.234-.157-.125-.046-.266-.046-.265 0-.453.125-.172.125-.266.328v7.53h-2.234v-7.046q0-.281-.062-.469-.047-.187-.141-.28-.094-.095-.234-.142-.125-.046-.266-.046-.297 0-.469.171-.172.157-.281.438v7.375h-2.297v-9.86h2.172zm14.399 10.046q-1.141 0-2.079-.375-.921-.375-1.593-1.015-.657-.64-1.016-1.516-.36-.875-.36-1.86v-.374q0-1.125.36-2.047.36-.938.984-1.61.641-.687 1.516-1.046.875-.375 1.906-.375 1.063 0 1.891.343.844.344 1.422.985.578.64.875 1.547.312.89.312 1.968v1.079h-6.687q.062.5.281.921.234.407.578.72.344.296.781.468.454.156.985.156.375 0 .734-.078.375-.078.703-.219.344-.14.641-.343.297-.22.516-.5l1.265 1.375q-.234.328-.625.656-.375.328-.89.578-.516.25-1.141.406-.625.156-1.36.156zm-.297-8.171q-.422 0-.782.156-.359.14-.625.422-.265.28-.453.672-.187.39-.265.875h4.14v-.204q-.015-.39-.156-.75-.125-.359-.39-.609-.25-.266-.626-.406-.359-.156-.843-.156zm9.008-1.875l.156 1.375q.531-.75 1.281-1.141.766-.406 1.688-.406.734 0 1.36.218.624.22 1.062.704.453.468.703 1.218.25.75.25 1.828v6.063h-2.531v-6.031q0-.578-.141-.953-.125-.391-.375-.61-.234-.219-.578-.297-.344-.093-.781-.093-.657 0-1.11.265-.453.266-.734.719v7h-2.547v-9.86h2.297zm13.555-2.407v2.407h3.672v1.875h-3.672v4.234q0 .531.11.89.124.36.343.579.234.218.562.312.329.078.72.078.296 0 .593-.015.312-.032.594-.063.28-.047.515-.094.25-.046.422-.093l.235 1.734q-.25.156-.61.281-.36.11-.765.172-.391.078-.829.11-.437.046-.843.046-.813 0-1.485-.203-.656-.218-1.125-.672-.468-.453-.734-1.14-.25-.703-.25-1.672v-4.484h-2.25v-1.875h2.25v-2.407h2.547zm-86.06 32.797q0-.36.109-.656.125-.313.343-.531.235-.22.563-.344.328-.14.75-.14.406 0 .734.14.328.125.547.344.219.218.344.53.125.298.125.657 0 .344-.125.656-.125.297-.344.516-.219.219-.547.344-.328.14-.734.14-.422 0-.75-.14-.328-.125-.563-.344-.218-.219-.343-.516-.11-.312-.11-.656zm17.492-3.375q0 1.078-.25 2-.25.922-.75 1.594-.485.672-1.203 1.062-.72.375-1.641.375-.797 0-1.406-.265-.594-.281-1.032-.781v4.656h-2.53v-13.656h2.327l.094.968q.453-.547 1.078-.843.625-.297 1.453-.297.938 0 1.657.36.718.358 1.203 1.015.5.656.75 1.578t.25 2.047v.187zm-2.532-.187q0-.61-.125-1.157-.109-.546-.359-.937-.234-.406-.61-.625-.374-.234-.906-.234-.671 0-1.093.265-.422.266-.657.735v4.109q.235.469.657.75.422.281 1.11.281.53 0 .905-.234.39-.25.625-.656.235-.407.344-.954.11-.546.11-1.156v-.187zm11.946-5q.578 0 1.062.078.485.062.797.156l-.375 2.531q-.5-.125-1.03-.172-.517-.062-1-.062-1.063 0-1.704.406-.64.406-.969 1.172v5.922h-2.531v-9.86h2.36l.124 1.61q.594-.828 1.438-1.297.844-.484 1.828-.484zm3.774 5.015q0-1.078.312-1.984.313-.922.906-1.594.594-.687 1.454-1.062.859-.375 1.968-.375 1.125 0 1.985.375.86.375 1.453 1.062.61.672.906 1.594.313.906.313 1.984v.188q0 1.078-.313 2-.297.922-.89 1.594-.594.671-1.47 1.046-.859.375-1.952.375-1.125 0-2-.375-.86-.375-1.454-1.046-.593-.672-.906-1.594-.312-.922-.312-2v-.188zm2.531.188q0 .625.11 1.172.124.53.374.937.266.406.672.64.406.235.985.235.546 0 .937-.234.406-.235.656-.64.25-.407.375-.938.125-.547.125-1.172v-.188q0-.61-.125-1.14-.125-.547-.375-.953-.25-.407-.656-.641-.39-.234-.969-.234-.562 0-.968.234-.391.234-.657.64-.25.407-.375.954-.109.53-.109 1.14v.188zm13.664-7.438v2.407h3.672v1.875h-3.672v4.234q0 .531.11.89.125.36.343.579.235.218.563.312.328.078.719.078.297 0 .593-.015.313-.032.594-.063.281-.047.516-.094.25-.046.422-.093l.234 1.734q-.25.156-.61.281-.359.11-.765.172-.39.078-.828.11-.438.046-.844.046-.812 0-1.484-.203-.656-.218-1.125-.672-.469-.453-.735-1.14-.25-.703-.25-1.672v-4.484h-2.25v-1.875h2.25v-2.407h2.547zm6.196 7.25q0-1.078.312-1.984.313-.922.907-1.594.593-.687 1.453-1.062.86-.375 1.968-.375 1.125 0 1.985.375.86.375 1.453 1.062.61.672.906 1.594.313.906.313 1.984v.188q0 1.078-.313 2-.297.922-.89 1.594-.594.671-1.47 1.046-.859.375-1.952.375-1.125 0-2-.375-.86-.375-1.453-1.046-.594-.672-.907-1.594-.312-.922-.312-2v-.188zm2.531.188q0 .625.11 1.172.124.53.374.937.266.406.672.64.407.235.985.235.547 0 .937-.234.406-.235.656-.64.25-.407.375-.938.125-.547.125-1.172v-.188q0-.61-.125-1.14-.125-.547-.375-.953-.25-.407-.656-.641-.39-.234-.969-.234-.562 0-.968.234-.39.234-.657.64-.25.407-.375.954-.109.53-.109 1.14v.188zm13.664-7.438v2.407h3.672v1.875h-3.672v4.234q0 .531.11.89.125.36.344.579.234.218.562.312.328.078.719.078.297 0 .594-.015.312-.032.593-.063.282-.047.516-.094.25-.046.422-.093l.234 1.734q-.25.156-.61.281-.359.11-.765.172-.39.078-.828.11-.437.046-.844.046-.812 0-1.484-.203-.656-.218-1.125-.672-.469-.453-.734-1.14-.25-.703-.25-1.672v-4.484h-2.25v-1.875h2.25v-2.407h2.546zm10.743 8.125l.297 1.063 2.625-6.781h2.797l-5.016 11.328q-.156.375-.422.812-.25.438-.64.813-.391.375-.954.625-.562.265-1.328.265-.187 0-.344-.015-.156-.016-.296-.047-.141-.016-.282-.047-.14-.031-.312-.078l.312-1.922h.391q.25.016.39.016.297 0 .532-.188.234-.172.39-.39.172-.22.266-.407.11-.172.14-.172l.61-1.156-4.172-9.437h2.781l2.235 5.718zm15.852-.703q0 1.078-.25 2-.25.922-.75 1.594-.485.672-1.203 1.062-.72.375-1.641.375-.797 0-1.406-.265-.594-.281-1.032-.781v4.656h-2.53v-13.656h2.327l.094.968q.453-.547 1.078-.843.625-.297 1.453-.297.938 0 1.657.36.718.358 1.203 1.015.5.656.75 1.578t.25 2.047v.187zm-2.532-.187q0-.61-.125-1.157-.109-.546-.359-.937-.234-.406-.61-.625-.374-.234-.906-.234-.671 0-1.093.265-.422.266-.657.735v4.109q.235.469.657.75.422.281 1.109.281.531 0 .906-.234.39-.25.625-.656.235-.407.344-.954.11-.546.11-1.156v-.187zm9.65 5.218q-1.142 0-2.079-.375-.922-.375-1.594-1.015-.656-.64-1.015-1.516-.36-.875-.36-1.86v-.374q0-1.125.36-2.047.359-.938.984-1.61.64-.687 1.516-1.046.875-.375 1.906-.375 1.062 0 1.89.343.844.344 1.422.985.578.64.875 1.547.313.89.313 1.968v1.079h-6.688q.063.5.282.921.234.407.578.72.343.296.781.468.453.156.984.156.375 0 .735-.078.375-.078.703-.219.344-.14.64-.343.297-.22.516-.5l1.266 1.375q-.235.328-.625.656-.375.328-.89.578-.517.25-1.142.406-.625.156-1.359.156zm-.298-8.171q-.422 0-.781.156-.36.14-.625.422-.266.28-.453.672-.188.39-.266.875h4.14v-.204q-.015-.39-.155-.75-.125-.359-.391-.609-.25-.266-.625-.406-.36-.156-.844-.156z"/><path fill="#34a853" d="M646.306 412.712c0-6.283 5.093-11.376 11.375-11.376h166.226a11.375 11.375 0 0 1 11.375 11.376v45.5c0 6.283-5.093 11.376-11.375 11.376H657.68c-6.282 0-11.375-5.093-11.375-11.376z" fill-rule="evenodd"/><path stroke="#666" stroke-linejoin="round" stroke-linecap="butt" d="M646.306 412.712c0-6.283 5.093-11.376 11.375-11.376h166.226a11.375 11.375 0 0 1 11.375 11.376v45.5c0 6.283-5.093 11.376-11.375 11.376H657.68c-6.282 0-11.375-5.093-11.375-11.376z"/><path fill="#fff" d="M672.362 442.382h-2.546l-3.688-8.547v8.547h-2.578v-13.266h2.578l3.656 8.516.016-8.516h2.563v13.266zm2.196-5.016q0-1.078.313-1.984.312-.922.906-1.594.594-.687 1.453-1.062.86-.375 1.969-.375 1.125 0 1.984.375.86.375 1.453 1.062.61.672.906 1.594.313.906.313 1.984v.188q0 1.078-.313 2-.296.922-.89 1.594-.594.671-1.469 1.046-.86.375-1.953.375-1.125 0-2-.375-.86-.375-1.453-1.046-.594-.672-.906-1.594-.313-.922-.313-2v-.188zm2.531.188q0 .625.11 1.172.125.53.375.937.265.406.672.64.406.235.984.235.547 0 .937-.234.407-.235.657-.64.25-.407.375-.938.125-.547.125-1.172v-.188q0-.61-.125-1.14-.125-.547-.375-.953-.25-.407-.657-.641-.39-.234-.968-.234-.563 0-.97.234-.39.234-.655.64-.25.407-.375.954-.11.53-.11 1.14v.188zm8.743-.172q0-1.125.265-2.047.266-.937.766-1.594.5-.672 1.203-1.03.719-.36 1.64-.36.782 0 1.36.28.594.267 1.047.782v-5.031h2.547v14h-2.297l-.125-1.031q-.469.578-1.094.906-.625.312-1.453.312-.906 0-1.625-.375-.703-.39-1.203-1.046-.5-.672-.766-1.579-.265-.921-.265-2v-.187zm2.531.187q0 .625.11 1.157.109.53.343.937.234.39.61.625.374.219.906.219.656 0 1.093-.281.438-.282.688-.782v-3.984q-.25-.5-.688-.781-.421-.281-1.078-.281-.53 0-.906.234-.375.234-.625.64-.234.407-.344.954-.109.53-.109 1.156v.187zm13.711 5q-1.14 0-2.078-.375-.922-.375-1.594-1.015-.656-.64-1.015-1.516-.36-.875-.36-1.86v-.374q0-1.125.36-2.047.359-.938.984-1.61.64-.687 1.516-1.046.875-.375 1.906-.375 1.062 0 1.89.343.844.344 1.422.985.579.64.875 1.547.313.89.313 1.968v1.079h-6.688q.063.5.282.921.234.407.578.72.344.296.781.468.453.156.984.156.375 0 .735-.078.375-.078.703-.219.344-.14.64-.343.297-.22.516-.5l1.266 1.375q-.235.328-.625.656-.375.328-.89.578-.516.25-1.141.406-.625.156-1.36.156zm-.297-8.171q-.422 0-.781.156-.36.14-.625.422-.266.28-.453.672-.188.39-.266.875h4.14v-.204q-.015-.39-.155-.75-.125-.359-.391-.609-.25-.266-.625-.406-.36-.156-.844-.156zm9.274 6.515q0-.36.11-.656.124-.313.343-.531.235-.22.563-.344.328-.14.75-.14.406 0 .734.14.328.125.547.344.219.218.344.53.125.298.125.657 0 .344-.125.656-.125.297-.344.516-.219.219-.547.344-.328.14-.734.14-.422 0-.75-.14-.328-.125-.563-.344-.219-.219-.344-.516-.109-.312-.109-.656zm17.492-3.375q0 1.078-.25 2-.25.922-.75 1.594-.484.672-1.203 1.062-.718.375-1.64.375-.797 0-1.407-.265-.593-.281-1.03-.781v4.656h-2.532v-13.656h2.328l.094.968q.453-.547 1.078-.843.625-.297 1.453-.297.938 0 1.656.36.72.358 1.203 1.015.5.656.75 1.578t.25 2.047v.187zm-2.53-.187q0-.61-.126-1.157-.11-.546-.36-.937-.234-.406-.609-.625-.375-.234-.906-.234-.672 0-1.094.265-.421.266-.656.735v4.109q.235.469.656.75.422.281 1.11.281.531 0 .906-.234.39-.25.625-.656.234-.407.344-.954.11-.546.11-1.156v-.187zm11.945-5q.578 0 1.062.078.485.062.797.156l-.375 2.531q-.5-.125-1.031-.172-.516-.062-1-.062-1.063 0-1.703.406-.64.406-.969 1.172v5.922h-2.531v-9.86h2.36l.124 1.61q.594-.828 1.438-1.297.843-.484 1.828-.484zm3.773 5.015q0-1.078.313-1.984.312-.922.906-1.594.594-.687 1.453-1.062.86-.375 1.97-.375 1.124 0 1.983.375.86.375 1.454 1.062.609.672.906 1.594.312.906.312 1.984v.188q0 1.078-.312 2-.297.922-.89 1.594-.595.671-1.47 1.046-.859.375-1.953.375-1.125 0-2-.375-.859-.375-1.453-1.046-.594-.672-.906-1.594-.313-.922-.313-2v-.188zm2.532.188q0 .625.11 1.172.124.53.374.937.266.406.672.64.406.235.984.235.547 0 .938-.234.406-.235.656-.64.25-.407.375-.938.125-.547.125-1.172v-.188q0-.61-.125-1.14-.125-.547-.375-.953-.25-.407-.656-.641-.39-.234-.969-.234-.562 0-.969.234-.39.234-.656.64-.25.407-.375.954-.11.53-.11 1.14v.188zm13.664-7.438v2.407h3.672v1.875h-3.672v4.234q0 .531.11.89.124.36.343.579.235.218.563.312.328.078.718.078.297 0 .594-.015.313-.032.594-.063.281-.047.516-.094.25-.046.421-.093l.235 1.734q-.25.156-.61.281-.359.11-.765.172-.39.078-.828.11-.438.046-.844.046-.813 0-1.484-.203-.657-.218-1.125-.672-.47-.453-.735-1.14-.25-.703-.25-1.672v-4.484h-2.25v-1.875h2.25v-2.407h2.547zm6.196 7.25q0-1.078.312-1.984.313-.922.906-1.594.594-.687 1.454-1.062.859-.375 1.968-.375 1.125 0 1.985.375.859.375 1.453 1.062.61.672.906 1.594.313.906.313 1.984v.188q0 1.078-.313 2-.297.922-.89 1.594-.594.671-1.47 1.046-.859.375-1.952.375-1.125 0-2-.375-.86-.375-1.454-1.046-.593-.672-.906-1.594-.312-.922-.312-2v-.188zm2.53.188q0 .625.11 1.172.125.53.375.937.266.406.672.64.406.235.985.235.546 0 .937-.234.406-.235.656-.64.25-.407.375-.938.125-.547.125-1.172v-.188q0-.61-.125-1.14-.125-.547-.375-.953-.25-.407-.656-.641-.39-.234-.969-.234-.562 0-.968.234-.391.234-.657.64-.25.407-.375.954-.11.53-.11 1.14v.188zm13.665-7.438v2.407h3.672v1.875h-3.672v4.234q0 .531.11.89.125.36.343.579.235.218.563.312.328.078.719.078.296 0 .593-.015.313-.032.594-.063.281-.047.516-.094.25-.046.422-.093l.234 1.734q-.25.156-.61.281-.359.11-.765.172-.39.078-.828.11-.438.046-.844.046-.812 0-1.484-.203-.657-.218-1.125-.672-.47-.453-.735-1.14-.25-.703-.25-1.672v-4.484h-2.25v-1.875h2.25v-2.407h2.547zm10.743 8.125l.296 1.063 2.625-6.781h2.797l-5.015 11.328q-.157.375-.422.812-.25.438-.64.813-.391.375-.954.625-.562.265-1.328.265-.188 0-.344-.015-.156-.016-.297-.047-.14-.016-.28-.047-.142-.031-.313-.078l.312-1.922h.39q.25.016.391.016.297 0 .532-.188.234-.172.39-.39.172-.22.266-.407.11-.172.14-.172l.61-1.156-4.172-9.437h2.781l2.235 5.718zm15.851-.703q0 1.078-.25 2-.25.922-.75 1.594-.484.672-1.203 1.062-.718.375-1.64.375-.797 0-1.407-.265-.593-.281-1.03-.781v4.656H798.1v-13.656h2.328l.094.968q.453-.547 1.078-.843.625-.297 1.453-.297.938 0 1.656.36.72.358 1.203 1.015.5.656.75 1.578t.25 2.047v.187zm-2.53-.187q0-.61-.126-1.157-.11-.546-.36-.937-.234-.406-.609-.625-.375-.234-.906-.234-.672 0-1.094.265-.421.266-.656.735v4.109q.235.469.656.75.422.281 1.11.281.531 0 .906-.234.39-.25.625-.656.234-.407.344-.954.11-.546.11-1.156v-.187zm9.648 5.218q-1.14 0-2.078-.375-.922-.375-1.594-1.015-.656-.64-1.016-1.516-.359-.875-.359-1.86v-.374q0-1.125.36-2.047.359-.938.984-1.61.64-.687 1.515-1.046.875-.375 1.907-.375 1.062 0 1.89.343.844.344 1.422.985.578.64.875 1.547.313.89.313 1.968v1.079h-6.688q.063.5.281.921.235.407.579.72.343.296.78.468.454.156.985.156.375 0 .735-.078.375-.078.703-.219.343-.14.64-.343.297-.22.516-.5l1.266 1.375q-.235.328-.625.656-.375.328-.891.578-.516.25-1.14.406-.626.156-1.36.156zm-.297-8.171q-.422 0-.781.156-.36.14-.625.422-.266.28-.453.672-.188.39-.266.875h4.14v-.204q-.015-.39-.156-.75-.125-.359-.39-.609-.25-.266-.625-.406-.36-.156-.844-.156z"/><path fill="#34a853" d="M646.306 295.231c0-6.282 5.093-11.375 11.375-11.375h166.226a11.375 11.375 0 0 1 11.375 11.375v45.501c0 6.283-5.093 11.376-11.375 11.376H657.68c-6.282 0-11.375-5.093-11.375-11.376z" fill-rule="evenodd"/><path stroke="#666" stroke-linejoin="round" stroke-linecap="butt" d="M646.306 295.231c0-6.282 5.093-11.375 11.375-11.375h166.226a11.375 11.375 0 0 1 11.375 11.375v45.501c0 6.283-5.093 11.376-11.375 11.376H657.68c-6.282 0-11.375-5.093-11.375-11.376z"/><path fill="#fff" d="M688.578 308.09h-5.453v3.75h6.375v2.062h-8.938v-13.266h8.906v2.094h-6.343v3.343h5.453v2.016zm7.305 2.89l.14.703.125-.672 2.157-6.969h2.656l-3.75 9.86h-2.375l-3.766-9.86h2.64l2.173 6.938zm11.789 3.11q-1.14 0-2.078-.376-.922-.375-1.594-1.016-.656-.64-1.016-1.515-.359-.875-.359-1.86v-.375q0-1.125.36-2.046.359-.938.984-1.61.64-.687 1.515-1.047.875-.375 1.907-.375 1.062 0 1.89.344.844.344 1.422.984.578.641.875 1.547.313.891.313 1.97v1.077h-6.688q.063.5.281.922.235.406.579.719.343.297.78.469.454.156.985.156.375 0 .735-.078.375-.078.703-.219.343-.14.64-.344.297-.219.516-.5l1.266 1.375q-.235.328-.625.656-.375.329-.891.579-.516.25-1.14.406-.626.156-1.36.156zm-.297-8.173q-.422 0-.781.156-.36.141-.625.422-.266.282-.453.672-.188.39-.266.875h4.14v-.203q-.015-.39-.156-.75-.125-.36-.39-.61-.25-.265-.625-.406-.36-.156-.844-.156zm9.008-1.875l.156 1.375q.532-.75 1.282-1.14.765-.407 1.687-.407.735 0 1.36.22.625.218 1.062.702.453.469.703 1.219.25.75.25 1.828v6.063h-2.531v-6.032q0-.578-.14-.953-.126-.39-.376-.61-.234-.218-.578-.296-.344-.094-.781-.094-.656 0-1.11.266-.453.265-.734.719v7h-2.547v-9.86h2.297zm13.555-2.406v2.406h3.672v1.875h-3.672v4.235q0 .53.11.89.124.36.343.578.235.22.563.313.328.078.718.078.297 0 .594-.016.313-.03.594-.062.281-.047.516-.094.25-.047.421-.094l.235 1.735q-.25.156-.61.281-.359.11-.765.172-.39.078-.828.11-.438.046-.844.046-.813 0-1.484-.203-.657-.219-1.125-.672-.47-.453-.735-1.14-.25-.704-.25-1.672v-4.485h-2.25v-1.875h2.25v-2.406h2.547zm16.196 1.094h-4.094v11.172h-2.563V302.73h-4.03v-2.094h10.687v2.094zm7.695 11.172q-.094-.188-.156-.422-.063-.235-.11-.5-.203.234-.484.437-.265.188-.61.344-.327.156-.734.234-.39.094-.859.094-.75 0-1.39-.219-.626-.218-1.079-.609-.453-.39-.718-.938-.25-.546-.25-1.187 0-1.547 1.156-2.39 1.172-.86 3.469-.86h1.421v-.594q0-.703-.468-1.11-.469-.421-1.344-.421-.766 0-1.125.328-.36.328-.36.89h-2.53q0-.624.28-1.187.282-.578.813-1 .531-.422 1.297-.672.766-.25 1.766-.25.89 0 1.656.22.781.218 1.344.64.562.422.875 1.078.328.656.328 1.5v4.234q0 .797.093 1.313.094.515.297.89v.157h-2.578zm-2.406-1.782q.375 0 .703-.078.328-.094.594-.234.265-.156.453-.344.203-.187.312-.375v-1.703h-1.296q-.594 0-1.016.125-.422.11-.688.312-.265.204-.39.5-.125.282-.125.625 0 .5.36.844.359.328 1.093.328zm14.524-8.25q.578 0 1.062.078.485.063.797.157l-.375 2.531q-.5-.125-1.031-.172-.516-.062-1-.062-1.063 0-1.703.406-.64.406-.969 1.172v5.922h-2.531v-9.86h2.36l.124 1.61q.594-.829 1.438-1.297.843-.485 1.828-.485zm3.867 5.032q0-1.125.266-2.047.281-.938.797-1.594.53-.672 1.265-1.031.735-.36 1.672-.36.86 0 1.469.297.625.281 1.062.813l.11-.938h2.297v9.547q0 1-.344 1.781-.328.782-.953 1.313-.61.547-1.469.812-.86.282-1.906.282-.438 0-.953-.094-.516-.078-1.016-.281-.5-.188-.953-.485-.438-.297-.75-.703l1.14-1.531q.485.547 1.094.828.61.281 1.313.281 1.062 0 1.656-.578.61-.562.61-1.61v-.562q-.454.5-1.047.781-.594.266-1.375.266-.922 0-1.657-.375-.734-.39-1.265-1.047-.516-.672-.797-1.578-.266-.922-.266-2v-.187zm2.547.187q0 .625.11 1.156.124.532.374.938.266.39.657.625.39.219.922.219.671 0 1.093-.25.438-.266.703-.72v-4.171q-.265-.469-.703-.719-.422-.25-1.062-.25-.547 0-.938.235-.39.234-.656.64-.25.406-.375.953-.125.532-.125 1.157v.187zm13.68 5q-1.14 0-2.078-.375-.922-.375-1.594-1.016-.656-.64-1.016-1.515-.359-.875-.359-1.86v-.375q0-1.125.36-2.046.359-.938.984-1.61.64-.687 1.515-1.047.875-.375 1.907-.375 1.062 0 1.89.344.844.344 1.422.984.578.641.875 1.547.313.891.313 1.97v1.077h-6.688q.063.5.281.922.235.406.579.719.343.297.78.469.454.156.985.156.375 0 .735-.078.375-.078.703-.219.343-.14.64-.344.297-.219.516-.5l1.266 1.375q-.235.328-.625.656-.375.329-.891.579-.516.25-1.14.406-.626.156-1.36.156zm-.297-8.172q-.422 0-.781.156-.36.141-.625.422-.266.282-.453.672-.188.39-.266.875h4.14v-.203q-.015-.39-.156-.75-.125-.36-.39-.61-.25-.265-.625-.406-.36-.156-.844-.156zm11.368-4.281v2.406h3.671v1.875h-3.671v4.235q0 .53.109.89.125.36.344.578.234.22.562.313.328.078.719.078.297 0 .594-.016.312-.03.593-.062.282-.047.516-.094.25-.047.422-.094l.234 1.735q-.25.156-.61.281-.358.11-.765.172-.39.078-.828.11-.437.046-.844.046-.812 0-1.484-.203-.656-.219-1.125-.672-.469-.453-.734-1.14-.25-.704-.25-1.672v-4.485h-2.25v-1.875h2.25v-2.406h2.547zM688.66 334.433q0-.36.11-.656.124-.313.343-.532.234-.218.562-.343.329-.141.75-.141.407 0 .735.14.328.126.547.344.218.22.343.532.125.296.125.656 0 .344-.125.656-.125.297-.343.516-.219.218-.547.343-.328.141-.735.141-.421 0-.75-.14-.328-.126-.562-.344-.219-.219-.344-.516-.11-.312-.11-.656zm17.492-3.375q0 1.078-.25 2-.25.922-.75 1.594-.484.671-1.203 1.062-.719.375-1.64.375-.797 0-1.407-.266-.593-.28-1.031-.78v4.655h-2.531v-13.656h2.328l.094.969q.453-.547 1.078-.844.625-.297 1.453-.297.937 0 1.656.36.719.36 1.203 1.015.5.657.75 1.578.25.922.25 2.047v.188zm-2.531-.188q0-.609-.125-1.156-.11-.547-.36-.937-.234-.407-.609-.625-.375-.235-.906-.235-.672 0-1.094.266-.422.265-.656.734v4.11q.234.468.656.75.422.28 1.11.28.53 0 .906-.234.39-.25.625-.656.234-.406.344-.953.109-.547.109-1.156v-.188zm11.946-5q.578 0 1.062.078.485.063.797.157l-.375 2.531q-.5-.125-1.031-.172-.516-.062-1-.062-1.063 0-1.703.406-.641.406-.97 1.172v5.922h-2.53v-9.86h2.359l.125 1.61q.594-.829 1.438-1.297.843-.485 1.828-.485zm3.773 5.016q0-1.078.313-1.984.312-.922.906-1.594.594-.688 1.453-1.063.86-.375 1.969-.375 1.125 0 1.984.375.86.375 1.453 1.063.61.672.907 1.594.312.906.312 1.984v.187q0 1.079-.312 2-.297.922-.89 1.594-.595.672-1.47 1.047-.859.375-1.953.375-1.125 0-2-.375-.86-.375-1.453-1.047-.594-.672-.906-1.594-.313-.921-.313-2v-.187zm2.532.187q0 .625.109 1.172.125.532.375.938.266.406.672.64.406.235.984.235.547 0 .938-.235.406-.234.656-.64t.375-.938q.125-.547.125-1.172v-.187q0-.61-.125-1.14-.125-.548-.375-.954-.25-.406-.656-.64-.39-.235-.969-.235-.563 0-.969.235-.39.234-.656.64-.25.406-.375.953-.11.532-.11 1.141v.187zm13.664-7.437v2.406h3.672v1.875h-3.672v4.235q0 .53.11.89.124.36.343.578.234.22.563.313.328.078.718.078.297 0 .594-.016.313-.03.594-.062.281-.047.515-.094.25-.047.422-.094l.235 1.735q-.25.156-.61.281-.36.11-.765.172-.391.078-.828.11-.438.046-.844.046-.813 0-1.485-.203-.656-.219-1.125-.672-.468-.453-.734-1.14-.25-.704-.25-1.672v-4.485h-2.25v-1.875h2.25v-2.406h2.547zm6.195 7.25q0-1.078.313-1.984.312-.922.906-1.594.594-.688 1.453-1.063.86-.375 1.97-.375 1.124 0 1.983.375.86.375 1.454 1.063.609.672.906 1.594.312.906.312 1.984v.187q0 1.079-.312 2-.297.922-.89 1.594-.595.672-1.47 1.047-.859.375-1.953.375-1.125 0-2-.375-.86-.375-1.453-1.047-.594-.672-.906-1.594-.313-.921-.313-2v-.187zm2.532.187q0 .625.11 1.172.124.532.374.938.266.406.672.64.406.235.984.235.547 0 .938-.235.406-.234.656-.64t.375-.938q.125-.547.125-1.172v-.187q0-.61-.125-1.14-.125-.548-.375-.954-.25-.406-.656-.64-.39-.235-.969-.235-.562 0-.969.235-.39.234-.656.64-.25.406-.375.953-.11.532-.11 1.141v.187zm13.664-7.437v2.406h3.672v1.875h-3.672v4.235q0 .53.11.89.124.36.343.578.235.22.563.313.328.078.718.078.297 0 .594-.016.313-.03.594-.062.281-.047.516-.094.25-.047.421-.094l.235 1.735q-.25.156-.61.281-.359.11-.765.172-.39.078-.828.11-.438.046-.844.046-.813 0-1.484-.203-.657-.219-1.125-.672-.47-.453-.735-1.14-.25-.704-.25-1.672v-4.485h-2.25v-1.875h2.25v-2.406h2.547zm10.742 8.125l.297 1.062 2.625-6.78h2.797l-5.015 11.327q-.157.375-.422.813-.25.437-.64.812-.392.375-.954.625-.563.266-1.328.266-.188 0-.344-.016-.156-.015-.297-.047-.14-.015-.281-.046-.14-.032-.313-.079l.313-1.921h.39q.25.015.391.015.297 0 .531-.187.235-.172.391-.39.172-.22.266-.407.11-.172.14-.172l.61-1.156-4.172-9.438h2.781l2.234 5.719zm15.852-.703q0 1.078-.25 2-.25.922-.75 1.594-.484.671-1.203 1.062-.719.375-1.64.375-.797 0-1.407-.266-.593-.28-1.03-.78v4.655h-2.532v-13.656h2.328l.094.969q.453-.547 1.078-.844.625-.297 1.453-.297.937 0 1.656.36.719.36 1.203 1.015.5.657.75 1.578.25.922.25 2.047v.188zm-2.53-.188q0-.609-.126-1.156-.11-.547-.36-.937-.234-.407-.609-.625-.375-.235-.906-.235-.672 0-1.094.266-.422.265-.656.734v4.11q.234.468.656.75.422.28 1.11.28.53 0 .906-.234.39-.25.625-.656.234-.406.344-.953.11-.547.11-1.156v-.188zm9.648 5.22q-1.14 0-2.078-.376-.922-.375-1.594-1.016-.656-.64-1.016-1.515-.36-.875-.36-1.86v-.375q0-1.125.36-2.046.36-.938.985-1.61.64-.687 1.515-1.047.875-.375 1.906-.375 1.063 0 1.891.344.844.344 1.422.984.578.641.875 1.547.312.891.312 1.97v1.077h-6.687q.062.5.281.922.235.406.578.719.344.297.782.469.453.156.984.156.375 0 .734-.078.375-.078.703-.219.344-.14.641-.344.297-.219.516-.5l1.265 1.375q-.234.328-.625.656-.375.329-.89.579-.516.25-1.14.406-.626.156-1.36.156zm-.297-8.173q-.422 0-.781.156-.36.141-.625.422-.266.282-.454.672-.187.39-.265.875h4.14v-.203q-.015-.39-.156-.75-.125-.36-.39-.61-.25-.265-.625-.406-.36-.156-.844-.156z"/><path fill="#34a853" d="M48.234 211.882c0-6.282 5.093-11.375 11.375-11.375h166.225a11.375 11.375 0 0 1 11.376 11.375v45.501c0 6.283-5.093 11.376-11.376 11.376H59.61c-6.282 0-11.375-5.093-11.375-11.376z" fill-rule="evenodd"/><path stroke="#666" stroke-linejoin="round" stroke-linecap="butt" d="M48.234 211.882c0-6.282 5.093-11.375 11.375-11.375h166.225a11.375 11.375 0 0 1 11.376 11.375v45.501c0 6.283-5.093 11.376-11.376 11.376H59.61c-6.282 0-11.375-5.093-11.375-11.376z"/><path fill="#fff" d="M89.377 214.28h3.656l.016 13.14q-.016 1.344-.516 2.469-.5 1.11-1.375 1.922-.86.797-2.047 1.25-1.172.437-2.53.437-1.423 0-2.595-.36-1.172-.374-2.015-1.093-.844-.719-1.313-1.812-.469-1.094-.484-2.579h3.672q.015 1.532.672 2.22.671.671 2.062.671.625 0 1.14-.234.532-.235.891-.657.375-.421.563-1 .203-.578.203-1.234v-13.14zm16.903 14q0-.5-.188-.938-.172-.453-.594-.828-.422-.39-1.109-.703-.672-.328-1.688-.594-1.234-.344-2.359-.844-1.125-.515-1.984-1.219-.86-.718-1.375-1.671-.516-.954-.516-2.188 0-1.203.5-2.172.516-.984 1.406-1.672.907-.687 2.125-1.062 1.22-.375 2.657-.375 1.484 0 2.703.437 1.234.422 2.125 1.203.89.782 1.375 1.844.5 1.063.5 2.344h-3.563q-.031-.64-.234-1.172-.203-.531-.61-.906-.39-.39-.984-.61-.578-.218-1.375-.218-.734 0-1.297.187-.562.172-.953.485-.39.312-.594.75-.203.437-.203.953 0 .53.266.968.265.422.765.766.516.344 1.235.64.719.282 1.64.516 1.297.39 2.391.938 1.094.547 1.875 1.297.797.734 1.234 1.703.438.953.438 2.125 0 1.25-.516 2.219-.5.968-1.39 1.64-.875.672-2.094 1.016-1.219.344-2.672.344-.89 0-1.781-.172-.89-.157-1.719-.485-.812-.343-1.516-.843-.703-.516-1.218-1.188-.5-.687-.797-1.547-.297-.86-.297-1.906h3.594q.031.86.297 1.484.28.61.765 1t1.172.578q.688.172 1.5.172.734 0 1.297-.172.562-.171.953-.468.39-.297.594-.72.219-.421.219-.937zm19.371-3.126q0 1.813-.484 3.36-.47 1.531-1.391 2.64-.906 1.11-2.219 1.735-1.297.61-2.937.61t-2.922-.61q-1.266-.625-2.14-1.735-.876-1.125-1.329-2.656-.453-1.531-.453-3.344v-2.765q0-1.828.453-3.36.453-1.53 1.328-2.64.875-1.125 2.14-1.75 1.266-.625 2.907-.625 1.656 0 2.953.625 1.313.625 2.219 1.75.922 1.11 1.39 2.64.485 1.532.485 3.36v2.765zm-3.703-2.796q0-1.157-.188-2.125-.187-.985-.593-1.688-.407-.703-1.047-1.094-.625-.39-1.516-.39-.89 0-1.484.39t-.969 1.094q-.36.703-.516 1.688-.156.968-.156 2.125v2.796q0 1.141.156 2.125.157.97.516 1.688.375.719.969 1.125.593.39 1.5.39.875 0 1.5-.39.64-.406 1.031-1.11.406-.718.594-1.687.203-.984.203-2.14v-2.797zm19.309 3.984q0 1.562-.36 2.89-.343 1.313-1.03 2.266-.688.938-1.72 1.469-1.015.531-2.39.531-1.235 0-2.14-.453-.907-.469-1.548-1.312l-.172 1.5h-3.265v-20h3.625v7.187q.625-.719 1.468-1.125.86-.406 2-.406 1.391 0 2.422.531 1.032.531 1.72 1.484.687.954 1.03 2.282.36 1.312.36 2.875v.28zm-3.625-.281q0-.86-.14-1.625-.126-.766-.438-1.344-.313-.578-.86-.922-.547-.344-1.375-.344-.984 0-1.61.422-.609.422-.952 1.14v5.61q.343.735.953 1.156.625.407 1.64.407.813 0 1.344-.313.547-.328.86-.89.312-.563.437-1.329.14-.78.14-1.687v-.281zm9.09-6.907h7.203v14.407q0 1.406-.406 2.406-.391 1.016-1.172 1.672-.766.656-1.875.969-1.094.312-2.516.312-.594 0-1.187-.047-.594-.047-1.141-.172l.172-2.937q.156.031.437.062.282.032.579.047.296.031.562.031.266.016.39.016.532 0 .985-.125.469-.11.797-.39.328-.266.516-.72.203-.452.203-1.124v-11.453h-3.547v-2.954zm3.297-3.609q0-.422.14-.781.157-.36.422-.61.281-.25.656-.39.391-.14.86-.14.953 0 1.515.546.579.531.579 1.375t-.579 1.39q-.562.532-1.515.532-.469 0-.86-.14-.375-.141-.656-.391-.265-.266-.422-.61-.14-.36-.14-.781zm17.371 17.953q-1.625 0-2.953-.531-1.328-.547-2.281-1.453-.953-.922-1.47-2.156-.515-1.25-.515-2.672v-.516q0-1.625.5-2.953.516-1.328 1.422-2.297.922-.969 2.172-1.5t2.719-.531q1.515 0 2.703.5 1.203.5 2.031 1.422.828.906 1.25 2.187.438 1.281.438 2.828v1.532h-9.563q.11.718.422 1.312.328.594.813 1.031.5.422 1.14.657.64.234 1.39.234.532 0 1.063-.094.532-.11 1-.312.485-.203.907-.5.421-.313.734-.703l1.797 1.953q-.328.468-.875.937-.531.469-1.281.828-.735.344-1.641.563-.89.234-1.922.234zm-.437-11.687q-.61 0-1.125.218-.5.22-.891.625-.375.407-.64.97-.25.546-.391 1.234h5.937v-.282q-.015-.578-.219-1.078-.187-.515-.562-.875-.36-.375-.89-.594-.532-.218-1.22-.218zm15.824 8.797q.547 0 1.016-.157.484-.156.843-.437.375-.297.578-.703.204-.407.172-.891h3.407q.03 1.094-.454 2.031-.468.938-1.296 1.61-.813.672-1.907 1.062-1.078.375-2.28.375-1.642 0-2.892-.547-1.234-.547-2.062-1.515-.813-.97-1.25-2.25-.422-1.297-.422-2.782v-.39q0-1.485.422-2.781.422-1.297 1.25-2.25.828-.97 2.062-1.532 1.235-.562 2.86-.562 1.297 0 2.406.39 1.11.391 1.906 1.11.797.703 1.235 1.719.453 1 .422 2.25h-3.407q.032-.516-.156-.985-.187-.469-.547-.812-.344-.344-.844-.547-.484-.203-1.062-.203-.86 0-1.422.359-.562.344-.89.938-.329.578-.47 1.343-.14.75-.14 1.563v.39q0 .813.125 1.579.14.765.469 1.343.328.578.89.938.579.344 1.438.344zM199.18 215.7v3.453h5.265v2.657h-5.265v6.062q0 .766.171 1.281.188.516.5.829.329.296.797.437.47.125 1.032.125.421 0 .859-.031.437-.047.828-.11.406-.062.75-.125.344-.062.578-.125l.36 2.485q-.375.219-.891.39-.5.157-1.078.25-.563.11-1.188.157-.625.062-1.218.062-1.157 0-2.11-.297-.937-.312-1.61-.953-.671-.64-1.03-1.64-.36-1-.36-2.391v-6.406h-3.219v-2.657h3.22V215.7h3.609zm-82.607 41.853q-.094-.188-.157-.422-.062-.235-.11-.5-.202.234-.483.437-.266.188-.61.344-.328.156-.734.234-.39.094-.86.094-.75 0-1.39-.219-.625-.218-1.078-.61-.453-.39-.72-.937-.25-.546-.25-1.187 0-1.547 1.157-2.39 1.172-.86 3.469-.86h1.422v-.594q0-.703-.469-1.11-.469-.421-1.344-.421-.765 0-1.125.328t-.36.89h-2.53q0-.624.28-1.187.282-.578.813-1 .532-.422 1.297-.672.766-.25 1.766-.25.89 0 1.656.219.781.219 1.344.64.562.423.875 1.079.328.656.328 1.5v4.234q0 .797.094 1.313.094.515.297.89v.157h-2.578zm-2.407-1.782q.375 0 .703-.078.329-.094.594-.234.266-.156.453-.344.203-.187.313-.375v-1.703h-1.297q-.594 0-1.016.125-.422.11-.687.312-.266.204-.39.5-.126.282-.126.625 0 .5.36.844.359.328 1.093.328zm9.743-8.078l.156 1.375q.531-.75 1.281-1.14.766-.407 1.688-.407.734 0 1.36.219.624.219 1.062.703.453.469.703 1.219.25.75.25 1.828v6.063h-2.531v-6.032q0-.578-.141-.953-.125-.39-.375-.61-.234-.218-.578-.296-.344-.094-.781-.094-.657 0-1.11.266-.453.265-.734.719v7h-2.547v-9.86h2.297zm13.258 8.016q.375 0 .719-.11.343-.109.593-.296.25-.204.391-.485.14-.297.125-.64h2.39q.016.765-.328 1.421-.328.657-.906 1.141-.562.469-1.328.734-.75.266-1.61.266-1.14 0-2.015-.375-.86-.39-1.437-1.062-.579-.688-.875-1.594-.297-.906-.297-1.938v-.281q0-1.031.297-1.937.296-.907.875-1.579.578-.671 1.437-1.062.86-.39 2-.39.922 0 1.688.28.78.266 1.328.766.562.485.875 1.188.312.703.297 1.578h-2.391q.016-.36-.11-.688-.124-.328-.374-.562-.25-.235-.594-.375t-.75-.14q-.61 0-1 .25-.39.234-.625.655-.219.407-.328.938-.094.516-.094 1.078v.281q0 .578.094 1.11.093.53.328.937.234.406.625.656.39.235 1 .235zm9.367-6.656q.5-.72 1.203-1.125.704-.407 1.579-.407.78 0 1.421.235.641.218 1.11.718.469.485.719 1.266.265.766.265 1.844v5.969H150.3v-5.985q0-.531-.14-.906-.126-.39-.376-.625-.234-.234-.593-.344-.344-.125-.782-.125-.625 0-1.093.235-.47.218-.782.64v7.11h-2.531v-14h2.531v5.5zm8.32 3.484q0-1.078.313-1.984.313-.922.907-1.594.593-.688 1.453-1.063.86-.375 1.968-.375 1.125 0 1.985.375.86.375 1.453 1.063.61.672.906 1.594.313.906.313 1.984v.187q0 1.079-.313 2-.297.922-.89 1.594-.594.672-1.47 1.047-.859.375-1.952.375-1.125 0-2-.375-.86-.375-1.453-1.047-.594-.672-.907-1.594-.312-.921-.312-2v-.187zm2.532.187q0 .625.11 1.172.124.532.374.938.266.406.672.64.407.235.985.235.547 0 .937-.235.406-.234.656-.64t.375-.938q.125-.547.125-1.172v-.187q0-.61-.125-1.14-.125-.548-.375-.954-.25-.406-.656-.64-.39-.235-.969-.235-.562 0-.968.235-.39.234-.657.64-.25.406-.375.953-.109.532-.109 1.14v.188zm16.086-5.203q.578 0 1.063.078.484.063.797.157l-.375 2.53q-.5-.124-1.032-.171-.515-.062-1-.062-1.062 0-1.703.406-.64.406-.968 1.172v5.922h-2.532v-9.86h2.36l.125 1.61q.593-.829 1.437-1.297.844-.485 1.828-.485z"/><path fill="#34a853" d="M646.307 177.75c0-6.283 5.093-11.376 11.376-11.376h166.225a11.376 11.376 0 0 1 11.375 11.376v45.5c0 6.283-5.093 11.376-11.375 11.376H657.683c-6.283 0-11.376-5.093-11.376-11.376z" fill-rule="evenodd"/><path stroke="#666" stroke-linejoin="round" stroke-linecap="butt" d="M646.307 177.75c0-6.283 5.093-11.376 11.376-11.376h166.225a11.376 11.376 0 0 1 11.375 11.376v45.5c0 6.283-5.093 11.376-11.375 11.376H657.683c-6.283 0-11.376-5.093-11.376-11.376z"/><path fill="#fff" d="M717.662 190.764q0 1.281-.344 2.36-.328 1.062-.969 1.843-.64.765-1.562 1.203-.907.438-2.063.438-1.14 0-2.031-.438-.89-.438-1.516-1.203-.61-.781-.922-1.844-.312-1.078-.312-2.36v-1.937q0-1.265.312-2.344.313-1.078.922-1.859.625-.781 1.5-1.219.89-.437 2.047-.437 1.156 0 2.063.437.922.438 1.562 1.22.64.78.969 1.858.344 1.079.344 2.344v1.938zm-2.594-1.953q0-.813-.14-1.485-.126-.687-.423-1.172-.28-.5-.718-.78-.438-.282-1.063-.282t-1.047.281q-.422.281-.672.781-.25.485-.359 1.172-.11.672-.11 1.485v1.953q0 .797.11 1.484.11.688.36 1.188t.671.78q.422.282 1.047.282t1.063-.281q.437-.281.718-.781.282-.5.422-1.172.14-.688.14-1.5v-1.953zm13.508 2.78q0 1.11-.25 2.032-.234.906-.719 1.578-.484.656-1.203 1.031-.719.375-1.672.375-.875 0-1.515-.328-.625-.328-1.078-.906l-.125 1.047h-2.266v-14h2.531v5.031q.438-.5 1.031-.781.594-.281 1.391-.281.969 0 1.688.375.734.36 1.218 1.031.485.656.719 1.594.25.922.25 2.015v.188zm-2.531-.187q0-.609-.094-1.14-.094-.547-.328-.938-.219-.406-.61-.64-.374-.25-.937-.25-.703 0-1.14.296-.422.297-.657.797v3.938q.235.5.656.797.438.281 1.157.281.578 0 .937-.219.375-.219.594-.61.234-.405.328-.937.094-.547.094-1.187v-.188zm6.352-4.843h5.046v10.093q0 .985-.28 1.688-.282.703-.829 1.156-.531.469-1.312.688-.766.218-1.766.218-.406 0-.828-.03-.422-.032-.797-.126l.125-2.062q.11.03.297.046.203.032.406.047.203.016.39.016h.282q.375 0 .687-.078.329-.078.563-.281.234-.188.36-.5.14-.313.14-.782v-8.015h-2.484v-2.078zm2.312-2.516q0-.297.094-.547.11-.25.297-.422.187-.187.453-.281.281-.11.61-.11.671 0 1.062.391.406.375.406.969t-.406.969q-.39.375-1.063.375-.328 0-.61-.094-.265-.11-.452-.281-.188-.188-.297-.438-.094-.25-.094-.531zm12.149 12.563q-1.14 0-2.078-.376-.922-.375-1.594-1.015-.656-.64-1.016-1.516-.36-.875-.36-1.86v-.374q0-1.125.36-2.047.36-.938.985-1.61.64-.687 1.515-1.046.875-.375 1.907-.375 1.062 0 1.89.343.844.344 1.422.985.578.64.875 1.547.313.89.313 1.968v1.079h-6.688q.063.5.281.921.235.407.578.72.344.296.782.468.453.156.984.156.375 0 .734-.078.375-.078.704-.219.343-.14.64-.343.297-.22.516-.5l1.265 1.375q-.234.328-.625.656-.375.328-.89.578-.516.25-1.14.406-.626.156-1.36.156zm-.297-8.172q-.422 0-.781.156-.36.14-.625.422-.266.281-.453.672-.188.39-.266.875h4.14v-.204q-.015-.39-.156-.75-.125-.359-.39-.609-.25-.266-.625-.406-.36-.156-.844-.156zm11.07 6.14q.375 0 .72-.11.343-.109.593-.296.25-.203.39-.484.141-.297.126-.641h2.39q.016.766-.328 1.422-.328.656-.906 1.14-.563.47-1.328.735-.75.265-1.61.265-1.14 0-2.015-.375-.86-.39-1.438-1.062-.578-.688-.875-1.594-.297-.906-.297-1.937v-.282q0-1.03.297-1.937.297-.906.875-1.578.578-.672 1.438-1.063.86-.39 2-.39.922 0 1.687.281.781.266 1.328.766.563.484.875 1.187.313.703.297 1.578h-2.39q.015-.36-.11-.687-.125-.328-.375-.563-.25-.234-.594-.375-.343-.14-.75-.14-.609 0-1 .25-.39.234-.625.656-.218.406-.328.937-.093.516-.093 1.078v.282q0 .578.093 1.11.094.53.328.937.235.406.625.656.391.234 1 .234zm11.493-10.422v2.407h3.672v1.875h-3.672v4.234q0 .531.11.89.124.36.343.579.234.218.563.312.328.078.718.078.297 0 .594-.015.313-.032.594-.063.281-.047.515-.094.25-.046.422-.093l.235 1.734q-.25.156-.61.281-.36.11-.765.172-.391.078-.828.11-.438.046-.844.046-.813 0-1.485-.203-.656-.218-1.125-.672-.468-.453-.734-1.14-.25-.703-.25-1.672v-4.484h-2.25v-1.875h2.25v-2.407h2.547zm-80.463 32.797q0-.36.11-.656.125-.313.343-.531.235-.219.563-.344.328-.14.75-.14.406 0 .734.14.328.125.547.344.219.218.344.531.125.297.125.656 0 .344-.125.656-.125.297-.344.516-.219.219-.547.344-.328.14-.734.14-.422 0-.75-.14-.328-.125-.563-.344-.218-.219-.343-.516-.11-.312-.11-.656zm17.493-3.375q0 1.078-.25 2-.25.922-.75 1.594-.485.672-1.203 1.063-.72.374-1.641.374-.797 0-1.406-.265-.594-.281-1.032-.781v4.656h-2.53V208.56h2.327l.094.968q.453-.547 1.078-.843.625-.297 1.453-.297.938 0 1.657.36.718.358 1.203 1.015.5.656.75 1.578t.25 2.047v.187zm-2.532-.187q0-.61-.125-1.157-.109-.546-.359-.937-.234-.406-.61-.625-.374-.234-.906-.234-.671 0-1.093.265-.422.266-.657.735v4.109q.235.469.657.75.422.281 1.109.281.531 0 .906-.234.39-.25.625-.656.235-.407.344-.954.11-.546.11-1.156v-.187zm11.946-5q.578 0 1.062.078.485.062.797.156l-.375 2.531q-.5-.125-1.03-.172-.517-.062-1-.062-1.063 0-1.704.406-.64.406-.969 1.172v5.922h-2.531v-9.86h2.36l.124 1.61q.594-.828 1.438-1.297.844-.484 1.828-.484zm3.774 5.015q0-1.078.312-1.984.313-.922.906-1.594.594-.687 1.453-1.062.86-.375 1.97-.375 1.124 0 1.984.375.859.375 1.453 1.062.61.672.906 1.594.312.906.312 1.984v.188q0 1.078-.312 2-.297.922-.89 1.594-.594.671-1.47 1.046-.859.375-1.953.375-1.125 0-2-.375-.859-.375-1.453-1.046-.593-.672-.906-1.594-.312-.922-.312-2v-.188zm2.53.188q0 .625.11 1.172.125.531.375.937.266.406.672.64.406.235.984.235.547 0 .938-.234.406-.235.656-.64.25-.407.375-.938.125-.547.125-1.172v-.188q0-.609-.125-1.14-.125-.547-.375-.953-.25-.407-.656-.641-.39-.234-.969-.234-.562 0-.969.234-.39.234-.656.64-.25.407-.375.954-.11.531-.11 1.14v.188zm13.665-7.438v2.407h3.672v1.875h-3.672v4.234q0 .531.11.89.125.36.343.579.235.218.563.312.328.078.719.078.296 0 .593-.015.313-.032.594-.063.281-.047.516-.094.25-.046.422-.093l.234 1.734q-.25.156-.61.281-.359.11-.765.172-.39.078-.828.11-.438.046-.844.046-.812 0-1.484-.203-.657-.218-1.125-.672-.469-.453-.735-1.14-.25-.703-.25-1.672v-4.484h-2.25v-1.875h2.25v-2.407h2.547zm6.196 7.25q0-1.078.312-1.984.313-.922.907-1.594.593-.687 1.453-1.062.859-.375 1.968-.375 1.125 0 1.985.375.86.375 1.453 1.062.61.672.906 1.594.313.906.313 1.984v.188q0 1.078-.313 2-.297.922-.89 1.594-.594.671-1.47 1.046-.859.375-1.952.375-1.125 0-2-.375-.86-.375-1.453-1.046-.594-.672-.907-1.594-.312-.922-.312-2v-.188zm2.531.188q0 .625.11 1.172.124.531.374.937.266.406.672.64.407.235.985.235.547 0 .937-.234.406-.235.656-.64.25-.407.375-.938.125-.547.125-1.172v-.188q0-.609-.125-1.14-.125-.547-.375-.953-.25-.407-.656-.641-.39-.234-.969-.234-.562 0-.968.234-.391.234-.657.64-.25.407-.375.954-.109.531-.109 1.14v.188zm13.664-7.438v2.407h3.672v1.875h-3.672v4.234q0 .531.11.89.125.36.343.579.235.218.563.312.328.078.719.078.297 0 .593-.015.313-.032.594-.063.281-.047.516-.094.25-.046.422-.093l.234 1.734q-.25.156-.61.281-.359.11-.765.172-.39.078-.828.11-.438.046-.844.046-.812 0-1.484-.203-.656-.218-1.125-.672-.469-.453-.735-1.14-.25-.703-.25-1.672v-4.484h-2.25v-1.875h2.25v-2.407h2.547zm10.743 8.125l.297 1.063 2.625-6.781h2.797l-5.016 11.328q-.156.375-.422.812-.25.438-.64.813-.391.375-.954.625-.562.265-1.328.265-.187 0-.344-.015-.156-.016-.296-.047-.141-.016-.282-.047-.14-.031-.312-.078l.312-1.922h.39q.25.016.392.016.296 0 .53-.188.235-.172.391-.39.172-.22.266-.407.11-.172.14-.172l.61-1.156-4.172-9.437h2.781l2.235 5.718zm15.852-.703q0 1.078-.25 2-.25.922-.75 1.594-.485.672-1.203 1.063-.72.374-1.641.374-.797 0-1.406-.265-.594-.281-1.032-.781v4.656h-2.53V208.56h2.327l.094.968q.453-.547 1.078-.843.625-.297 1.453-.297.938 0 1.657.36.718.358 1.203 1.015.5.656.75 1.578t.25 2.047v.187zm-2.532-.187q0-.61-.125-1.157-.109-.546-.359-.937-.234-.406-.61-.625-.374-.234-.906-.234-.671 0-1.093.265-.422.266-.657.735v4.109q.235.469.657.75.422.281 1.109.281.531 0 .906-.234.39-.25.625-.656.235-.407.344-.954.11-.546.11-1.156v-.187zm9.65 5.218q-1.142 0-2.079-.375-.922-.375-1.594-1.015-.656-.64-1.015-1.516-.36-.875-.36-1.86v-.374q0-1.125.36-2.047.359-.938.984-1.61.64-.687 1.516-1.046.875-.375 1.906-.375 1.062 0 1.89.343.844.344 1.422.985.578.64.875 1.547.313.89.313 1.968v1.079h-6.688q.063.5.282.921.234.407.578.72.343.296.781.468.453.156.984.156.375 0 .735-.078.375-.078.703-.219.344-.14.64-.343.297-.22.516-.5l1.266 1.375q-.235.328-.625.656-.375.328-.89.578-.517.25-1.142.406-.625.156-1.359.156zm-.298-8.171q-.422 0-.781.156-.36.14-.625.422-.266.281-.453.672-.188.39-.266.875h4.14v-.204q-.015-.39-.155-.75-.125-.359-.391-.609-.25-.266-.625-.406-.36-.156-.844-.156z"/><path d="M237.21 234.633c34.526 0 51.789-8.536 69.052-17.071 17.264-8.536 34.53-17.071 69.058-17.071"/><path stroke="#595959" stroke-width="4" stroke-linejoin="round" stroke-linecap="butt" d="M237.21 234.633c34.526 0 51.789-8.536 69.052-17.071 8.632-4.268 17.264-8.536 28.055-11.737 2.697-.8 5.53-1.533 8.531-2.183a123.775 123.775 0 0 1 7.051-1.316c.41-.064.821-.127 1.237-.188l.238-.035"/><path stroke="#595959" stroke-width="4" stroke-linecap="butt" d="M351.818 208.695l17.668-7.811-18.555-5.373z"/><path d="M469.802 234.627c0 12.307.016 18.46.031 24.614.016 6.154.032 12.308.032 24.615"/><path stroke="#595959" stroke-width="4" stroke-linejoin="round" stroke-linecap="butt" d="M469.802 234.627c0 12.307.016 18.46.031 24.614l.002.615"/><path stroke="#595959" stroke-width="4" stroke-linecap="butt" d="M463.228 259.864l6.63 18.144 6.584-18.16z"/><path d="M469.802 352.108c0 12.307.016 18.46.031 24.614.016 6.153.032 12.307.032 24.614"/><path stroke="#595959" stroke-width="4" stroke-linejoin="round" stroke-linecap="butt" d="M469.802 352.108c0 12.307.016 18.46.031 24.614l.002.614"/><path stroke="#595959" stroke-width="4" stroke-linecap="butt" d="M463.228 377.344l6.63 18.144 6.584-18.16z"/><path d="M564.322 435.462c20.496 0 30.744.016 40.992.031 10.248.016 20.496.032 40.992.032"/><path stroke="#595959" stroke-width="4" stroke-linejoin="round" stroke-linecap="butt" d="M564.322 435.462c20.496 0 30.744.016 40.992.031 5.124.008 10.248.016 16.653.022h.339"/><path stroke="#595959" stroke-width="4" stroke-linecap="butt" d="M622.303 442.122l18.155-6.6-18.15-6.614z"/><path d="M740.794 401.336c0-12.307.016-18.46.031-24.614.016-6.154.032-12.307.032-24.614"/><path stroke="#595959" stroke-width="4" stroke-linejoin="round" stroke-linecap="butt" d="M740.794 401.336c0-12.307.016-18.46.031-24.614l.002-.614"/><path stroke="#595959" stroke-width="4" stroke-linecap="butt" d="M747.434 376.116l-6.584-18.16-6.63 18.143z"/><path d="M740.794 283.856c0-12.308.016-18.461.031-24.615.016-6.154.032-12.307.032-24.614"/><path stroke="#595959" stroke-width="4" stroke-linejoin="round" stroke-linecap="butt" d="M740.794 283.856c0-12.308.016-18.461.031-24.615l.002-.614"/><path stroke="#595959" stroke-width="4" stroke-linecap="butt" d="M747.434 258.636l-6.584-18.161-6.63 18.144z"/><path d="M655.352 86.007h238.55v40.535h-238.55z"/><path fill="#595959" d="M755.814 103.067l.156 1.375q.532-.75 1.282-1.14.765-.407 1.687-.407.735 0 1.36.22.625.218 1.062.702.453.469.703 1.219.25.75.25 1.828v6.063h-2.531v-6.032q0-.578-.14-.953-.126-.39-.376-.61-.234-.218-.578-.296-.344-.094-.781-.094-.656 0-1.11.266-.453.265-.734.719v7h-2.547v-9.86h2.297zm15.18 8.469q-.5.75-1.203 1.172-.703.406-1.547.406-.765 0-1.406-.234-.625-.235-1.078-.75-.453-.516-.719-1.313-.25-.797-.25-1.922v-5.828h2.547v5.844q0 .61.078 1.016.094.406.281.656.188.25.5.36.313.109.75.109.766 0 1.235-.282.468-.28.718-.78v-6.923h2.547v9.86h-2.297l-.156-1.391zm5.446-12.61h5.515v11.938h2.813v2.063h-8.328v-2.063h2.953v-9.86h-2.953v-2.077zm11.195 0h5.516v11.938h2.812v2.063h-8.328v-2.063h2.953v-9.86h-2.953v-2.077z"/><path d="M740.795 166.374c0-9.958 8.457-14.936 16.914-19.916 8.456-4.98 16.913-9.963 16.913-19.927"/><path stroke="#595959" stroke-width="4" stroke-linejoin="round" stroke-linecap="butt" d="M740.795 166.374c0-9.958 8.457-14.936 16.914-19.916a599.9 599.9 0 0 0 1.583-.935l.373-.222"/><path stroke="#595959" stroke-width="4" stroke-linecap="butt" d="M764.832 149.418l6.146-18.313-16.48 10.078z"/></g></svg>