<svg viewBox="0 0 960 540" fill="none" stroke-linecap="square" stroke-miterlimit="10" xmlns="http://www.w3.org/2000/svg"><clipPath id="a"><path d="M0 0h960v540H0V0z"/></clipPath><g clip-path="url(#a)"><path fill="#fff" d="M0 0h960v540H0z" fill-rule="evenodd"/><path d="M38.514 52.213h729.48v303.622H38.515z"/><path fill="#000" d="M52.796 84.253v-11h-3.5v-1.688h3.5v-.89q0-1.22.343-2.126.36-.921 1.016-1.546t1.563-.938q.921-.312 2.046-.312.766 0 1.5.125.735.125 1.5.328l-.25 1.797q-.484-.172-1.125-.297-.64-.125-1.359-.125-1.531.015-2.297.781-.765.766-.765 2.312v.891h4.89v1.688h-4.89v11h-2.172zm10.57-6.454q0-1.375.39-2.546.407-1.188 1.141-2.047.75-.875 1.813-1.375 1.062-.5 2.406-.5t2.406.5q1.078.5 1.828 1.375.75.86 1.141 2.047.406 1.171.406 2.546v.25q0 1.375-.406 2.547-.39 1.172-1.14 2.047-.75.86-1.813 1.36-1.063.484-2.406.484-1.344 0-2.422-.484-1.063-.5-1.813-1.36-.734-.875-1.14-2.047-.391-1.172-.391-2.547v-.25zm2.156.25q0 .938.219 1.797.234.844.687 1.485.454.64 1.125 1.015.688.375 1.579.375.89 0 1.562-.375.688-.375 1.125-1.015.453-.64.672-1.485.234-.859.234-1.797v-.25q0-.937-.234-1.78-.219-.845-.672-1.485-.453-.656-1.125-1.031-.672-.391-1.578-.391t-1.578.39q-.656.376-1.11 1.032-.453.64-.687 1.484-.219.844-.219 1.781v.25zm12.246-.25q0-1.375.391-2.546.406-1.188 1.14-2.047.75-.875 1.813-1.375t2.406-.5q1.344 0 2.407.5 1.078.5 1.828 1.375.75.86 1.14 2.047.407 1.171.407 2.546v.25q0 1.375-.407 2.547-.39 1.172-1.14 2.047-.75.86-1.813 1.36-1.062.484-2.406.484t-2.422-.484q-1.062-.5-1.812-1.36-.735-.875-1.141-2.047-.39-1.172-.39-2.547v-.25zm2.157.25q0 .938.218 1.797.235.844.688 1.485.453.64 1.125 1.015.687.375 1.578.375.89 0 1.562-.375.688-.375 1.125-1.015.454-.64.672-1.485.235-.859.235-1.797v-.25q0-.937-.235-1.78-.218-.845-.672-1.485-.453-.656-1.125-1.031-.671-.391-1.578-.391-.906 0-1.578.39-.656.376-1.11 1.032-.452.64-.687 1.484-.218.844-.218 1.781v.25z"/><path fill="#e67c73" d="M117.636 75.112h-10.47v-1.89h10.47v1.89zm0 4.86h-10.47v-1.876h10.47v1.875z"/><path fill="#4285f4" d="M137.925 71.565l.156 1.875q.687-.984 1.687-1.531 1.016-.563 2.266-.578.984 0 1.797.281.828.281 1.39.89.579.594.891 1.516.313.922.313 2.188v8.047h-2.172v-8q0-.844-.188-1.422-.187-.594-.562-.953-.36-.375-.89-.532-.532-.172-1.235-.172-1.078 0-1.907.547-.828.547-1.328 1.438v9.094h-2.156V71.565h1.938zm18.058 12.922q-1.328 0-2.453-.453-1.125-.469-1.922-1.281-.797-.829-1.25-1.954-.437-1.125-.437-2.437v-.5q0-1.531.484-2.734.5-1.22 1.313-2.063.828-.844 1.859-1.281 1.031-.453 2.125-.453 1.375 0 2.39.484 1.032.469 1.704 1.313.687.828 1.015 1.968.344 1.141.344 2.47v.968h-9.062q.03.86.328 1.625.312.765.828 1.344.515.562 1.234.89.735.328 1.625.328 1.156 0 2.047-.468.906-.47 1.516-1.25l1.312 1.03q-.312.485-.797.923-.468.437-1.093.781-.61.344-1.407.547-.78.203-1.703.203zm-.281-11.375q-.656 0-1.25.25-.578.234-1.047.703-.469.453-.797 1.14-.312.673-.437 1.548h6.812v-.172q-.031-.625-.234-1.25t-.61-1.11q-.39-.5-1-.797-.609-.312-1.437-.312zm11.012 6.547l.25 1.812.312-1.812 2.031-8.094h1.391l2.016 8.094.343 1.984.313-1.984 1.406-8.094h1.922l-2.687 12.688h-1.72l-1.968-7.766-.328-1.969-.328 1.969-1.953 7.766h-1.703l-2.704-12.688h1.922l1.485 8.094z"/><path fill="#673ab7" d="M193.565 84.253V67.19h5.078q1.047.016 2.047.281 1.016.25 1.797.813.797.547 1.266 1.406.468.844.453 2.047-.016.672-.219 1.219t-.562.984q-.36.438-.844.766-.469.328-1.016.562.688.203 1.25.578.578.36.985.891.406.516.625 1.172.234.656.234 1.422.016 1.187-.453 2.11-.469.905-1.25 1.53-.781.61-1.813.938-1.03.328-2.109.344h-5.469zm2.188-7.985v6.14h3.328q.687-.015 1.297-.218.61-.219 1.078-.61.469-.39.734-.952.281-.563.281-1.282.016-.718-.234-1.28-.25-.563-.703-.954-.438-.39-1.047-.594-.594-.219-1.281-.25h-3.453zm0-1.797h3.015q.61-.015 1.188-.187.594-.188 1.047-.531.468-.36.75-.86.281-.5.281-1.172 0-.718-.281-1.218-.282-.5-.75-.813-.453-.328-1.063-.484-.594-.157-1.234-.172h-2.953v5.437zm20.574 9.782q-.125-.25-.203-.61-.078-.375-.11-.781-.328.328-.734.625-.406.297-.89.516-.485.218-1.047.343-.547.141-1.172.141-1 0-1.813-.297-.812-.297-1.39-.781-.563-.5-.875-1.188-.313-.687-.313-1.484 0-1.047.406-1.828.422-.781 1.188-1.297.765-.531 1.828-.781 1.078-.266 2.406-.266h2.36v-1q0-.578-.22-1.031-.202-.453-.593-.766-.375-.328-.937-.5-.547-.187-1.25-.187-.641 0-1.157.172-.5.156-.86.437-.343.266-.546.64-.187.36-.187.75h-2.172q0-.687.343-1.343.36-.672 1-1.203.657-.547 1.579-.875.937-.328 2.125-.328 1.078 0 2 .265.921.266 1.593.797.688.531 1.063 1.328.39.797.39 1.875v5.891q0 .625.11 1.344.125.703.344 1.234v.188h-2.266zm-3.828-1.657q.625 0 1.172-.156.562-.172 1-.437.453-.266.78-.61.33-.36.517-.734v-2.563h-2.016q-1.89 0-2.953.563-1.047.562-1.047 1.765 0 .47.156.875.156.391.469.688.328.281.797.453.484.156 1.125.156zm18.199-11.265q.313 0 .64.031.329.016.626.062.297.032.547.094.25.047.421.125l-.296 2.125q-.625-.14-1.204-.203-.562-.078-1.187-.078-1.516 0-2.469.703-.937.688-1.39 1.922v8.14h-2.172V71.566h2.062l.11 2.016q.765-1.032 1.843-1.64 1.094-.61 2.469-.61z"/><path fill="#e67c73" d="M238.944 77.33q0-1.687.266-3.156.265-1.484.703-2.734.453-1.266 1.031-2.297.578-1.047 1.219-1.86.64-.812 1.281-1.374.64-.578 1.234-.906l.454 1.421q-.735.547-1.454 1.5-.718.954-1.296 2.313-.563 1.344-.922 3.11-.344 1.765-.344 3.952v.172q0 2.188.344 3.953.36 1.766.922 3.125.578 1.375 1.296 2.329.72.968 1.454 1.562l-.454 1.328q-.593-.328-1.25-.906-.64-.563-1.28-1.375-.641-.813-1.22-1.86-.578-1.03-1.015-2.296-.438-1.266-.703-2.735-.266-1.484-.266-3.156v-.11z"/><path fill="#4285f4" d="M256.33 68.503v3.062h4.829v1.688h-4.828v6.89q0 .735.187 1.219.188.469.516.766.328.28.75.406.437.11.922.11.344 0 .719-.032.375-.047.734-.11.36-.062.672-.124.312-.063.5-.11l.312 1.531q-.265.172-.656.297-.39.125-.844.203-.453.094-.968.141-.516.047-1.016.047-.844 0-1.578-.234-.735-.25-1.281-.766-.532-.531-.844-1.344-.297-.828-.297-2v-6.89h-3.328v-1.688h3.328v-3.062h2.172zm17.575 2.828q.313 0 .64.031.329.016.626.062.297.032.547.094.25.047.421.125l-.296 2.125q-.625-.14-1.204-.203-.562-.078-1.187-.078-1.516 0-2.469.703-.937.688-1.39 1.922v8.14h-2.172V71.566h2.062l.11 2.016q.765-1.032 1.843-1.64 1.094-.61 2.47-.61zm14.324 11.172q-.625.937-1.578 1.468-.953.516-2.187.516-1 0-1.813-.313-.812-.312-1.39-.968-.563-.657-.875-1.672-.313-1.016-.313-2.422v-7.547h2.172v7.563q0 1.03.156 1.718.172.672.5 1.078.328.407.797.579.484.156 1.094.156 1.328 0 2.14-.531.813-.547 1.22-1.47v-9.093h2.171v12.688h-1.969l-.125-1.75zm11.778 1.984q-1.329 0-2.454-.453-1.125-.469-1.921-1.281-.797-.829-1.25-1.954-.438-1.125-.438-2.437v-.5q0-1.531.484-2.734.5-1.22 1.313-2.063.828-.844 1.86-1.281 1.03-.453 2.124-.453 1.375 0 2.391.484 1.031.469 1.703 1.313.688.828 1.016 1.968.343 1.141.343 2.47v.968h-9.062q.031.86.328 1.625.313.765.828 1.344.516.562 1.235.89.734.328 1.625.328 1.156 0 2.046-.468.907-.47 1.516-1.25l1.313 1.03q-.313.485-.797.923-.469.437-1.094.781-.61.344-1.406.547-.782.203-1.703.203zm-.282-11.375q-.656 0-1.25.25-.578.234-1.047.703-.468.453-.796 1.14-.313.673-.438 1.548h6.813v-.172q-.032-.625-.235-1.25-.203-.625-.61-1.11-.39-.5-1-.797-.609-.312-1.437-.312z"/><path fill="#e67c73" d="M316.721 77.44q0 1.672-.265 3.156-.266 1.47-.719 2.735-.437 1.265-1.016 2.297-.578 1.046-1.218 1.859-.64.812-1.297 1.375-.64.578-1.235.906l-.453-1.328q.735-.547 1.453-1.516.72-.953 1.282-2.328.578-1.375.922-3.156.359-1.781.359-3.969V77.3q0-2.187-.375-3.968-.375-1.797-.969-3.172-.578-1.375-1.297-2.328-.703-.969-1.375-1.516l.453-1.312q.594.328 1.235.906.656.562 1.297 1.375.64.812 1.218 1.86.579 1.03 1.016 2.296.453 1.25.719 2.734.265 1.47.265 3.157v.11zm10.262-4.594q0-.359.11-.656.109-.312.312-.531.219-.235.531-.36.328-.125.75-.125t.735.125q.328.125.547.36.218.219.328.531.11.297.11.656 0 .344-.11.641-.11.297-.328.516-.22.218-.547.343-.313.125-.735.125t-.75-.125q-.312-.125-.53-.343-.204-.22-.313-.516-.11-.297-.11-.64zm3.719 10.907q0 .546-.14 1.14-.126.61-.391 1.203-.266.594-.64 1.125-.376.547-.86.97l-1.344-.735q.562-.828.797-1.75.234-.922.234-1.922V81.69h2.344v2.063z"/><path fill="#000" d="M49.155 120.8q0-1.407.344-2.594.344-1.203 1-2.047.656-.86 1.61-1.344.952-.484 2.171-.484 1.125 0 1.984.39.86.375 1.5 1.11l.094-1.266h1.985v17.563H57.67v-6.032q-.625.672-1.47 1.032-.843.359-1.952.359-1.203 0-2.156-.484-.938-.5-1.594-1.36-.656-.875-1-2.047-.344-1.187-.344-2.547v-.25zm2.172.25q0 .921.203 1.765.203.844.625 1.5.422.64 1.063 1.031.656.375 1.562.375 1.047 0 1.75-.468.703-.47 1.14-1.22v-6.265q-.218-.36-.515-.656-.281-.297-.64-.516-.344-.234-.782-.359-.422-.125-.922-.125-.906 0-1.562.39-.656.391-1.094 1.047-.422.641-.625 1.485-.203.844-.203 1.765v.25zm20.855 4.453q-.625.937-1.578 1.468-.953.516-2.187.516-1 0-1.813-.313-.812-.312-1.39-.968-.563-.657-.875-1.672-.313-1.016-.313-2.422v-7.547h2.172v7.563q0 1.03.156 1.718.172.672.5 1.078.328.407.797.579.485.156 1.094.156 1.328 0 2.14-.531.813-.547 1.22-1.47v-9.093h2.171v12.688h-1.969l-.125-1.75zm11.418-6.235l3.391-4.703h2.531l-4.719 6.281 4.86 6.407h-2.516l-3.5-4.829-3.5 4.829h-2.531l4.844-6.407-4.719-6.28h2.5l3.36 4.702z"/><path fill="#e67c73" d="M117.624 118.112h-10.469v-1.89h10.469v1.89zm0 4.86h-10.469v-1.876h10.469v1.875z"/><path fill="#4285f4" d="M137.913 114.565l.156 1.875q.688-.984 1.688-1.531 1.015-.563 2.265-.578.985 0 1.797.281.828.281 1.39.89.579.594.891 1.516.313.922.313 2.188v8.047h-2.172v-8q0-.844-.188-1.422-.187-.594-.562-.953-.36-.375-.89-.532-.532-.172-1.235-.172-1.078 0-1.906.547-.828.547-1.328 1.438v9.094h-2.157v-12.688h1.938zm18.058 12.922q-1.328 0-2.453-.453-1.125-.469-1.922-1.281-.796-.829-1.25-1.954-.437-1.125-.437-2.437v-.5q0-1.531.484-2.734.5-1.22 1.313-2.063.828-.844 1.86-1.281 1.03-.453 2.124-.453 1.375 0 2.39.484 1.032.469 1.704 1.313.687.828 1.016 1.968.343 1.141.343 2.47v.968h-9.062q.031.86.328 1.625.312.765.828 1.344.516.562 1.234.89.735.328 1.625.328 1.157 0 2.047-.468.907-.47 1.516-1.25l1.312 1.03q-.312.485-.796.923-.47.437-1.094.781-.61.344-1.406.547-.782.203-1.704.203zm-.28-11.375q-.657 0-1.25.25-.579.234-1.048.703-.468.453-.797 1.14-.312.673-.437 1.548h6.812v-.172q-.03-.625-.234-1.25-.203-.625-.61-1.11-.39-.5-1-.797-.609-.312-1.437-.312zm11.01 6.547l.25 1.812.313-1.812 2.032-8.094h1.39l2.016 8.094.344 1.984.312-1.984 1.406-8.094h1.922L174 127.253h-1.719l-1.969-7.766-.328-1.969-.328 1.969-1.953 7.766H166l-2.703-12.688h1.922l1.484 8.094z"/><path fill="#673ab7" d="M193.554 127.253V110.19h5.078q1.047.016 2.047.281 1.015.25 1.796.813.797.547 1.266 1.406.469.844.453 2.047-.015.672-.219 1.219-.203.547-.562.984-.36.438-.844.766-.469.328-1.015.562.687.203 1.25.578.578.36.984.891.406.516.625 1.172.234.656.234 1.422.016 1.187-.453 2.11-.469.905-1.25 1.53-.781.61-1.812.938-1.032.328-2.11.344h-5.468zm2.187-7.985v6.14h3.328q.688-.015 1.297-.218.61-.219 1.078-.61.469-.39.735-.952.28-.563.28-1.282.016-.718-.234-1.28-.25-.563-.703-.954-.437-.39-1.047-.594-.593-.219-1.28-.25h-3.454zm0-1.797h3.016q.609-.015 1.187-.187.594-.188 1.047-.531.469-.36.75-.86t.281-1.172q0-.718-.281-1.218t-.75-.813q-.453-.328-1.063-.484-.593-.157-1.234-.172h-2.953v5.437zm20.574 9.782q-.125-.25-.203-.61-.078-.375-.11-.781-.327.328-.734.625-.406.297-.89.516-.485.218-1.047.343-.547.141-1.172.141-1 0-1.813-.297-.812-.297-1.39-.781-.563-.5-.875-1.188-.313-.687-.313-1.484 0-1.047.407-1.828.421-.781 1.187-1.297.766-.531 1.828-.781 1.078-.266 2.406-.266h2.36v-1q0-.578-.219-1.031-.203-.453-.594-.766-.375-.328-.937-.5-.547-.187-1.25-.187-.64 0-1.156.172-.5.156-.86.437-.344.266-.547.64-.187.36-.187.75h-2.172q0-.687.344-1.343.36-.672 1-1.203.656-.547 1.578-.875.937-.328 2.125-.328 1.078 0 2 .265.922.266 1.594.797.687.531 1.062 1.328.39.797.39 1.875v5.891q0 .625.11 1.344.125.703.344 1.234v.188h-2.266zm-3.828-1.657q.625 0 1.172-.156.562-.172 1-.437.453-.266.781-.61.328-.36.516-.734v-2.563h-2.016q-1.89 0-2.953.563-1.047.562-1.047 1.765 0 .47.156.875.157.391.47.688.327.281.796.453.484.156 1.125.156zm18.2-11.265q.312 0 .64.031.328.016.625.062.297.032.547.094.25.047.422.125l-.297 2.125q-.625-.14-1.203-.203-.563-.078-1.188-.078-1.515 0-2.469.703-.937.688-1.39 1.922v8.14h-2.172v-12.687h2.062l.11 2.016q.765-1.032 1.844-1.64 1.093-.61 2.468-.61z"/><path fill="#e67c73" d="M238.932 120.33q0-1.687.266-3.156.266-1.484.703-2.734.453-1.266 1.031-2.297.579-1.047 1.22-1.86.64-.812 1.28-1.374.641-.578 1.235-.906l.453 1.421q-.734.547-1.453 1.5-.719.954-1.297 2.313-.563 1.344-.922 3.11-.344 1.765-.344 3.952v.172q0 2.188.344 3.953.36 1.766.922 3.125.578 1.375 1.297 2.329.719.968 1.453 1.562l-.453 1.328q-.594-.328-1.25-.906-.64-.563-1.281-1.375-.641-.813-1.22-1.86-.577-1.03-1.015-2.296-.437-1.266-.703-2.735-.266-1.484-.266-3.156v-.11z"/><path fill="#4285f4" d="M254.429 127.253v-11h-3.5v-1.688h3.5v-.89q0-1.22.343-2.126.36-.921 1.016-1.546t1.562-.938q.922-.312 2.047-.312.766 0 1.5.125.735.125 1.5.328l-.25 1.797q-.484-.172-1.125-.297-.64-.125-1.36-.125-1.53.015-2.296.781-.766.766-.766 2.312v.891h4.891v1.688h-4.89v11h-2.173zm19.507 0q-.125-.25-.203-.61-.078-.375-.11-.781-.327.328-.734.625-.406.297-.89.516-.485.218-1.047.343-.547.141-1.172.141-1 0-1.812-.297-.813-.297-1.391-.781-.563-.5-.875-1.188-.313-.687-.313-1.484 0-1.047.407-1.828.422-.781 1.187-1.297.766-.531 1.828-.781 1.078-.266 2.407-.266h2.359v-1q0-.578-.219-1.031-.203-.453-.594-.766-.375-.328-.937-.5-.547-.187-1.25-.187-.64 0-1.156.172-.5.156-.86.437-.343.266-.547.64-.187.36-.187.75h-2.172q0-.687.344-1.343.36-.672 1-1.203.656-.547 1.578-.875.937-.328 2.125-.328 1.078 0 2 .265.922.266 1.594.797.687.531 1.062 1.328.39.797.39 1.875v5.891q0 .625.11 1.344.125.703.344 1.234v.188h-2.266zm-3.828-1.657q.625 0 1.172-.156.563-.172 1-.437.453-.266.781-.61.328-.36.516-.734v-2.563h-2.016q-1.89 0-2.953.563-1.047.562-1.047 1.765 0 .47.157.875.156.391.468.688.328.281.797.453.485.156 1.125.156zm10.23-16.343h6.485v16.125h4.14v1.875H280.34v-1.875h4.312v-14.235h-4.312v-1.89zm22.497 14.64q0-.39-.156-.703-.157-.312-.516-.562-.36-.266-.969-.485-.594-.219-1.484-.39-1.078-.22-1.985-.532-.89-.328-1.53-.765-.642-.438-1-1.032-.345-.593-.345-1.375 0-.765.36-1.437.375-.688 1.031-1.188.656-.5 1.563-.796.906-.297 2-.297 1.171 0 2.109.312.937.297 1.594.844.656.531 1 1.266.359.718.359 1.546h-2.156q0-.406-.219-.796-.203-.407-.578-.704-.375-.312-.922-.5-.531-.187-1.188-.187-.703 0-1.218.156-.516.156-.875.422-.344.25-.516.594-.172.328-.172.703 0 .375.14.672.142.281.485.515.344.235.922.422.578.188 1.469.36 1.172.25 2.094.578.937.312 1.562.765.64.454.969 1.063.344.594.344 1.375 0 .844-.391 1.531-.375.688-1.063 1.188-.671.484-1.625.765-.953.266-2.078.266-1.28 0-2.297-.344-1-.344-1.703-.906-.687-.578-1.062-1.328-.375-.75-.375-1.563h2.172q.047.672.36 1.125.312.453.765.735.469.281 1.031.406.563.11 1.11.11 1.374 0 2.171-.5.797-.5.813-1.329zm11.574 3.594q-1.328 0-2.453-.453-1.125-.469-1.922-1.281-.797-.829-1.25-1.954-.438-1.125-.438-2.437v-.5q0-1.531.485-2.734.5-1.22 1.312-2.063.828-.844 1.86-1.281 1.031-.453 2.125-.453 1.375 0 2.39.484 1.032.469 1.703 1.313.688.828 1.016 1.968.344 1.141.344 2.47v.968h-9.063q.032.86.328 1.625.313.765.829 1.344.515.562 1.234.89.734.328 1.625.328 1.156 0 2.047-.468.906-.47 1.515-1.25l1.313 1.03q-.313.485-.797.923-.469.437-1.094.781-.609.344-1.406.547-.781.203-1.703.203zm-.281-11.375q-.657 0-1.25.25-.578.234-1.047.703-.469.453-.797 1.14-.313.673-.438 1.548h6.813v-.172q-.031-.625-.234-1.25-.204-.625-.61-1.11-.39-.5-1-.797-.61-.312-1.437-.312z"/><path fill="#e67c73" d="M331.124 120.44q0 1.672-.266 3.156-.265 1.47-.719 2.735-.437 1.265-1.015 2.297-.578 1.046-1.219 1.859-.64.812-1.297 1.375-.64.578-1.234.906l-.453-1.328q.734-.547 1.453-1.516.719-.953 1.281-2.328.578-1.375.922-3.156.36-1.781.36-3.969v-.172q0-2.187-.376-3.968-.375-1.797-.968-3.172-.579-1.375-1.297-2.328-.703-.969-1.375-1.516l.453-1.312q.594.328 1.234.906.656.562 1.297 1.375.64.812 1.219 1.86.578 1.03 1.015 2.296.454 1.25.72 2.734.265 1.47.265 3.157v.11zm10.262-4.594q0-.359.109-.656.11-.312.312-.531.22-.235.532-.36.328-.125.75-.125t.734.125q.328.125.547.36.219.219.328.531.11.297.11.656 0 .344-.11.641-.11.297-.328.516-.219.218-.547.343-.312.125-.734.125t-.75-.125q-.313-.125-.532-.343-.203-.22-.312-.516-.11-.297-.11-.64zm3.718 10.907q0 .546-.14 1.14-.125.61-.391 1.203-.266.594-.64 1.125-.376.547-.86.97l-1.344-.735q.563-.828.797-1.75.235-.922.235-1.922v-2.094h2.343v2.063z"/><path fill="#ff9800" d="M780.672 366.872c0-6.283 5.093-11.376 11.375-11.376h142.068a11.376 11.376 0 0 1 11.376 11.376v45.5c0 6.283-5.093 11.376-11.376 11.376H792.047c-6.282 0-11.375-5.093-11.375-11.376z" fill-rule="evenodd"/><path stroke="#666" stroke-linejoin="round" stroke-linecap="butt" d="M780.672 366.872c0-6.283 5.093-11.376 11.375-11.376h142.068a11.376 11.376 0 0 1 11.376 11.376v45.5c0 6.283-5.093 11.376-11.376 11.376H792.047c-6.282 0-11.375-5.093-11.375-11.376z"/><path fill="#fff" d="M834.637 394.269q0-.5-.187-.938-.172-.453-.594-.828-.422-.39-1.11-.703-.671-.328-1.687-.594-1.234-.343-2.36-.843-1.124-.516-1.984-1.22-.859-.718-1.375-1.671-.515-.953-.515-2.187 0-1.204.5-2.172.515-.985 1.406-1.672.906-.688 2.125-1.063 1.219-.375 2.656-.375 1.485 0 2.703.438 1.235.422 2.125 1.203.891.781 1.375 1.844.5 1.062.5 2.343h-3.562q-.031-.64-.234-1.171-.204-.532-.61-.907-.39-.39-.984-.61-.578-.218-1.375-.218-.735 0-1.297.188-.563.172-.953.484-.39.313-.594.75-.203.438-.203.953 0 .531.266.969.265.422.765.766.516.343 1.235.64.718.281 1.64.516 1.297.39 2.39.937 1.095.547 1.876 1.297.797.735 1.234 1.703.438.953.438 2.125 0 1.25-.516 2.219-.5.969-1.39 1.64-.876.673-2.094 1.016-1.22.344-2.672.344-.89 0-1.781-.172-.891-.156-1.72-.484-.812-.344-1.515-.844-.703-.516-1.219-1.187-.5-.688-.796-1.547-.297-.86-.297-1.907h3.593q.032.86.297 1.485.282.61.766 1 .484.39 1.172.578.687.172 1.5.172.734 0 1.297-.172.562-.172.953-.469.39-.297.594-.719.218-.421.218-.937zm9.903-7.188q.703-1.03 1.703-1.609 1.016-.594 2.266-.594 1.11 0 2.03.344.923.328 1.58 1.031.67.688 1.046 1.797.375 1.094.375 2.64v8.532h-3.625v-8.547q0-.765-.188-1.312-.187-.547-.546-.875-.344-.344-.844-.5-.485-.172-1.11-.172-.921 0-1.593.328-.657.328-1.094.906v10.172h-3.625v-20h3.625v7.86zm21.184 12.141q-.14-.266-.235-.594-.078-.343-.156-.718-.297.328-.687.609-.391.281-.875.5-.47.219-1.047.344-.563.125-1.219.125-1.078 0-1.984-.313-.907-.312-1.563-.875-.656-.562-1.015-1.328-.36-.781-.36-1.687 0-2.235 1.656-3.454 1.657-1.218 4.954-1.218h2.015v-.828q0-1.016-.672-1.61-.656-.594-1.906-.594-1.11 0-1.625.485-.5.469-.5 1.265h-3.61q0-.906.391-1.703.407-.812 1.157-1.422.765-.609 1.859-.968 1.11-.36 2.531-.36 1.266 0 2.36.313 1.109.312 1.906.922.812.609 1.265 1.547.47.921.47 2.156v6.031q0 1.14.14 1.89.14.735.406 1.266v.219h-3.656zm-3.453-2.531q.547 0 1.015-.125.469-.14.844-.344.375-.219.64-.484.282-.266.438-.532v-2.421h-1.844q-.843 0-1.453.156-.593.156-.968.453-.375.297-.563.703-.187.406-.187.89 0 .735.515 1.22.516.484 1.563.484zm23.293-4.375q0 1.531-.36 2.844-.359 1.312-1.062 2.28-.688.954-1.719 1.5-1.015.548-2.343.548-1.141 0-2-.391-.86-.39-1.5-1.094v6.64h-3.61v-19.5h3.344l.125 1.376q.656-.781 1.531-1.203.89-.438 2.078-.438 1.344 0 2.36.516 1.03.516 1.734 1.469.703.937 1.063 2.265.359 1.313.359 2.907v.28zm-3.61-.281q0-.875-.171-1.657-.157-.781-.5-1.343-.344-.563-.891-.891-.547-.328-1.313-.328-.953 0-1.562.375-.594.375-.938 1.047v5.89q.344.657.938 1.063.61.39 1.594.39.765 0 1.297-.328.547-.343.89-.922.344-.593.5-1.375.157-.78.157-1.64v-.281zm13.794 7.453q-1.625 0-2.953-.532-1.329-.546-2.282-1.453-.953-.922-1.468-2.156-.516-1.25-.516-2.672v-.515q0-1.625.5-2.954.516-1.328 1.422-2.296.922-.97 2.172-1.5 1.25-.532 2.718-.532 1.516 0 2.704.5 1.203.5 2.03 1.422.829.906 1.25 2.188.438 1.28.438 2.828v1.531h-9.562q.11.719.422 1.313.328.593.812 1.03.5.423 1.14.657.641.234 1.391.234.532 0 1.063-.093.531-.11 1-.313.484-.203.906-.5.422-.312.735-.703l1.796 1.953q-.328.469-.875.938-.53.468-1.28.828-.735.344-1.641.562-.891.235-1.922.235zm-.438-11.688q-.61 0-1.125.219-.5.219-.89.625-.375.406-.641.969-.25.547-.39 1.234h5.937v-.281q-.016-.578-.219-1.078-.187-.516-.562-.875-.36-.375-.891-.594-.531-.219-1.219-.219z"/><path fill="#bdbdbd" d="M791.68 423.926h142.582v59.717H791.68z" fill-rule="evenodd"/><path stroke="#666" stroke-linejoin="round" stroke-linecap="butt" d="M791.68 423.926h142.582v59.717H791.68z"/><path fill="#000" d="M849.024 445.622l-.25 4.312h-1.61v-5.609h1.86v1.297zm14.027 8.718l3.39-4.703h2.532l-4.719 6.281 4.86 6.407h-2.516l-3.5-4.828-3.5 4.828h-2.531l4.843-6.407-4.718-6.28h2.5l3.359 4.702zm14.777-8.718l-.25 4.312h-1.61v-5.609h1.86v1.297z"/><path fill="#34a853" d="M528.273 386.57c0-6.283 5.093-11.376 11.375-11.376h166.226a11.376 11.376 0 0 1 11.375 11.376v45.5c0 6.283-5.093 11.376-11.375 11.376H539.648c-6.282 0-11.375-5.093-11.375-11.375z" fill-rule="evenodd"/><path stroke="#666" stroke-linejoin="round" stroke-linecap="butt" d="M528.273 386.57c0-6.283 5.093-11.376 11.375-11.376h166.226a11.376 11.376 0 0 1 11.375 11.376v45.5c0 6.283-5.093 11.376-11.375 11.376H539.648c-6.282 0-11.375-5.093-11.375-11.375z"/><path fill="#fff" d="M569.416 388.967h3.657l.015 13.14q-.015 1.344-.515 2.47-.5 1.109-1.375 1.921-.86.797-2.047 1.25-1.172.438-2.531.438-1.422 0-2.594-.36-1.172-.375-2.016-1.093-.844-.72-1.312-1.813-.47-1.094-.485-2.578h3.672q.016 1.531.672 2.219.672.672 2.063.672.625 0 1.14-.235.531-.234.89-.656.376-.422.563-1 .203-.578.203-1.234v-13.14zm16.903 14q0-.5-.188-.937-.171-.454-.593-.829-.422-.39-1.11-.703-.672-.328-1.687-.593-1.235-.344-2.36-.844-1.125-.516-1.984-1.219-.86-.719-1.375-1.672-.516-.953-.516-2.187 0-1.203.5-2.172.516-.985 1.407-1.672.906-.688 2.125-1.063 1.218-.375 2.656-.375 1.484 0 2.703.438 1.234.422 2.125 1.203.89.781 1.375 1.844.5 1.062.5 2.344h-3.562q-.032-.641-.235-1.172-.203-.532-.61-.907-.39-.39-.984-.609-.578-.219-1.375-.219-.734 0-1.296.188-.563.172-.954.484-.39.313-.593.75-.203.438-.203.953 0 .532.265.97.266.42.766.765.515.343 1.234.64.719.282 1.64.516 1.298.39 2.391.937 1.094.547 1.875 1.297.797.735 1.235 1.703.437.954.437 2.125 0 1.25-.515 2.22-.5.968-1.39 1.64-.876.672-2.095 1.015-1.218.344-2.672.344-.89 0-1.78-.172-.891-.156-1.72-.484-.812-.344-1.515-.844-.703-.515-1.219-1.187-.5-.688-.797-1.547-.297-.86-.297-1.906h3.594q.031.859.297 1.484.281.61.766 1 .484.39 1.171.578.688.172 1.5.172.735 0 1.297-.172.563-.172.953-.469.391-.297.594-.718.219-.422.219-.938zm19.371-3.125q0 1.813-.484 3.36-.469 1.53-1.39 2.64-.907 1.11-2.22 1.734-1.296.61-2.937.61-1.64 0-2.922-.61-1.265-.625-2.14-1.734-.875-1.125-1.329-2.656-.453-1.531-.453-3.344v-2.766q0-1.828.453-3.359.454-1.531 1.329-2.64.875-1.126 2.14-1.75 1.266-.626 2.906-.626 1.657 0 2.954.625 1.312.625 2.218 1.75.922 1.11 1.391 2.641.484 1.531.484 3.36v2.765zm-3.703-2.797q0-1.156-.187-2.125-.188-.984-.594-1.687-.406-.703-1.047-1.094-.625-.39-1.516-.39-.89 0-1.484.39t-.969 1.094q-.359.703-.515 1.687-.157.969-.157 2.125v2.797q0 1.14.157 2.125.156.969.515 1.688.375.718.97 1.125.593.39 1.5.39.874 0 1.5-.39.64-.407 1.03-1.11.407-.719.594-1.687.203-.985.203-2.14v-2.798zm19.31 3.985q0 1.562-.36 2.89-.344 1.313-1.032 2.266-.687.937-1.718 1.469-1.016.53-2.39.53-1.235 0-2.142-.452-.906-.47-1.546-1.313l-.172 1.5h-3.266v-20h3.625v7.188q.625-.72 1.469-1.125.86-.407 2-.407 1.39 0 2.422.532 1.031.53 1.718 1.484.688.953 1.032 2.281.36 1.313.36 2.875v.282zm-3.626-.282q0-.86-.14-1.625-.126-.765-.438-1.343-.313-.579-.86-.922-.546-.344-1.374-.344-.985 0-1.61.422-.61.422-.953 1.14v5.61q.344.734.953 1.156.625.406 1.64.406.813 0 1.345-.312.546-.328.859-.89.312-.563.437-1.329.141-.781.141-1.687v-.282zm9.09-6.906h7.203v14.406q0 1.407-.406 2.407-.39 1.015-1.172 1.671-.765.657-1.875.97-1.094.312-2.515.312-.594 0-1.188-.047t-1.14-.172l.171-2.938q.157.032.438.063t.578.047q.297.031.562.031.266.016.391.016.531 0 .984-.125.47-.11.797-.39.328-.267.516-.72.203-.453.203-1.125v-11.453h-3.547v-2.953zm3.297-3.61q0-.421.14-.78.157-.36.423-.61.28-.25.656-.39.39-.141.86-.141.952 0 1.515.547.578.53.578 1.375 0 .843-.578 1.39-.563.532-1.516.532-.469 0-.86-.141-.374-.14-.655-.39-.266-.266-.422-.61-.14-.36-.14-.781zm17.371 17.954q-1.625 0-2.953-.531-1.328-.547-2.281-1.454-.953-.921-1.469-2.156-.515-1.25-.515-2.672v-.515q0-1.625.5-2.953.515-1.329 1.422-2.297.921-.97 2.171-1.5 1.25-.532 2.72-.532 1.515 0 2.702.5 1.203.5 2.032 1.422.828.907 1.25 2.188.437 1.281.437 2.828v1.531h-9.562q.109.719.421 1.313.329.593.813 1.03.5.423 1.14.657.641.235 1.391.235.531 0 1.063-.094.53-.11 1-.313.484-.203.906-.5.422-.312.734-.703l1.797 1.953q-.328.47-.875.938-.531.469-1.281.828-.734.344-1.64.562-.891.235-1.923.235zm-.437-11.688q-.61 0-1.125.22-.5.218-.89.624-.376.406-.641.969-.25.547-.391 1.234h5.938v-.281q-.016-.578-.22-1.078-.187-.516-.562-.875-.36-.375-.89-.594-.532-.219-1.22-.219zm15.824 8.797q.547 0 1.016-.156.484-.156.844-.438.375-.296.578-.703.203-.406.172-.89h3.406q.031 1.093-.453 2.03-.469.938-1.297 1.61-.813.672-1.906 1.063-1.078.375-2.282.375-1.64 0-2.89-.547-1.235-.547-2.063-1.516-.812-.968-1.25-2.25-.422-1.297-.422-2.78v-.392q0-1.484.422-2.78.422-1.298 1.25-2.25.828-.97 2.063-1.532 1.234-.563 2.86-.563 1.296 0 2.405.391 1.11.39 1.907 1.11.797.703 1.234 1.718.453 1 .422 2.25h-3.406q.031-.515-.157-.984-.187-.469-.546-.813-.344-.343-.844-.547-.485-.203-1.063-.203-.859 0-1.422.36-.562.343-.89.937-.328.578-.469 1.344-.14.75-.14 1.562v.391q0 .813.124 1.578.141.766.47 1.344.327.578.89.937.578.344 1.437.344zm16.403-14.906v3.453h5.266v2.656h-5.266v6.063q0 .765.172 1.281.187.516.5.828.328.297.797.438.469.125 1.031.125.422 0 .86-.032.437-.046.828-.109.406-.062.75-.125.343-.062.578-.125l.359 2.484q-.375.22-.89.391-.5.156-1.079.25-.562.11-1.187.156-.625.063-1.219.063-1.156 0-2.11-.297-.937-.313-1.609-.953-.672-.64-1.031-1.64-.36-1-.36-2.391v-6.407h-3.218v-2.656h3.219v-3.453h3.609zm-69.517 41.851v-7.984h-2.594v-1.875h2.594v-.531q0-.985.313-1.72.312-.75.875-1.265.578-.515 1.39-.765.828-.266 1.844-.266.313 0 .61.031.296.016.578.063.28.031.562.078.297.047.61.094l-.172 1.984q-.344-.063-.782-.11-.437-.062-1.031-.062-1.187 0-1.719.5-.531.5-.531 1.438v.53h3.547v1.876h-3.547v7.984h-2.547zm8.399-5.015q0-1.079.312-1.985.313-.922.907-1.594.593-.687 1.453-1.062.86-.375 1.969-.375 1.125 0 1.984.375.86.375 1.453 1.062.61.672.906 1.594.313.906.313 1.985v.187q0 1.078-.313 2-.297.922-.89 1.594-.594.672-1.47 1.047-.858.375-1.952.375-1.125 0-2-.375-.86-.375-1.453-1.047-.594-.672-.907-1.594-.312-.922-.312-2v-.187zm2.531.187q0 .625.11 1.172.125.531.375.937.265.407.671.641.407.234.985.234.547 0 .937-.234.407-.234.657-.64.25-.407.375-.938.125-.547.125-1.172v-.187q0-.61-.125-1.141-.125-.547-.375-.953-.25-.406-.657-.64-.39-.235-.968-.235-.563 0-.97.234-.39.235-.655.64-.25.407-.375.954-.11.531-.11 1.14v.188zm8.664-.187q0-1.079.313-1.985.312-.922.906-1.594.594-.687 1.453-1.062.86-.375 1.97-.375 1.124 0 1.983.375.86.375 1.454 1.062.609.672.906 1.594.312.906.312 1.985v.187q0 1.078-.312 2-.297.922-.89 1.594-.595.672-1.47 1.047-.859.375-1.953.375-1.125 0-2-.375-.86-.375-1.453-1.047-.594-.672-.906-1.594-.313-.922-.313-2v-.187zm2.532.187q0 .625.11 1.172.124.531.374.937.266.407.672.641.406.234.984.234.547 0 .938-.234.406-.234.656-.64.25-.407.375-.938.125-.547.125-1.172v-.187q0-.61-.125-1.141-.125-.547-.375-.953-.25-.406-.656-.64-.39-.235-.969-.235-.562 0-.969.234-.39.235-.656.64-.25.407-.375.954-.11.531-.11 1.14v.188z"/><path fill="#bdbdbd" d="M540.894 443.624H704.39v59.716H540.894z" fill-rule="evenodd"/><path stroke="#666" stroke-linejoin="round" stroke-linecap="butt" d="M540.894 443.624H704.39v59.716H540.894z"/><path fill="#000" d="M601.01 466.272v3.062h4.827v1.688h-4.828v6.89q0 .735.188 1.22.187.468.515.765.328.281.75.406.438.11.922.11.344 0 .719-.032.375-.047.734-.11.36-.062.672-.124.313-.063.5-.11l.313 1.532q-.266.172-.657.297-.39.125-.843.203-.453.093-.97.14-.515.047-1.015.047-.843 0-1.578-.234-.734-.25-1.281-.766-.531-.531-.844-1.344-.297-.828-.297-2v-6.89h-3.328v-1.688h3.328v-3.062h2.172zm17.573 2.828q.313 0 .641.031.328.016.625.063.297.031.547.093.25.047.422.125l-.297 2.125q-.625-.14-1.203-.203-.563-.078-1.188-.078-1.515 0-2.468.703-.938.688-1.391 1.922v8.14h-2.172v-12.687h2.063l.109 2.016q.766-1.031 1.844-1.64 1.093-.61 2.468-.61zm14.325 11.172q-.625.937-1.579 1.469-.953.515-2.187.515-1 0-1.813-.312-.812-.313-1.39-.969-.563-.656-.875-1.672-.313-1.016-.313-2.422v-7.547h2.172v7.563q0 1.031.156 1.719.172.671.5 1.078.329.406.797.578.485.156 1.094.156 1.328 0 2.14-.531.813-.547 1.22-1.469v-9.094H635v12.688h-1.968l-.125-1.75zm11.777 1.984q-1.328 0-2.453-.453-1.125-.469-1.922-1.281-.797-.828-1.25-1.953-.438-1.125-.438-2.438v-.5q0-1.531.485-2.734.5-1.219 1.312-2.063.828-.843 1.86-1.28 1.03-.454 2.125-.454 1.375 0 2.39.484 1.032.47 1.703 1.313.688.828 1.016 1.969.344 1.14.344 2.468v.97h-9.063q.032.858.328 1.624.313.766.829 1.344.515.562 1.234.89.734.329 1.625.329 1.156 0 2.047-.47.906-.468 1.515-1.25l1.313 1.032q-.313.484-.797.922-.469.437-1.094.781-.61.344-1.406.547-.781.203-1.703.203zm-.281-11.375q-.657 0-1.25.25-.578.235-1.047.703-.469.453-.797 1.141-.313.672-.438 1.547h6.813v-.172q-.031-.625-.234-1.25-.204-.625-.61-1.11-.39-.5-1-.796-.61-.313-1.437-.313z"/><path d="M717.25 409.32c15.855 0 23.782-4.921 31.71-9.842 7.93-4.922 15.862-9.843 31.722-9.843"/><path stroke="#595959" stroke-width="4" stroke-linejoin="round" stroke-linecap="butt" d="M717.25 409.32c15.855 0 23.782-4.921 31.71-9.842 1.983-1.23 3.966-2.46 6.072-3.614a62.054 62.054 0 0 1 1.605-.85l.59-.295"/><path fill="#595959" stroke="#595959" stroke-width="4" stroke-linecap="butt" d="M758.627 401.176l16.34-10.302-19.14-2.612z" fill-rule="evenodd"/><path fill="#34a853" d="M528.273 179.729c0-6.283 5.093-11.376 11.375-11.376h166.226a11.376 11.376 0 0 1 11.375 11.376v45.5c0 6.283-5.093 11.376-11.375 11.376H539.648c-6.282 0-11.375-5.093-11.375-11.376z" fill-rule="evenodd"/><path stroke="#666" stroke-linejoin="round" stroke-linecap="butt" d="M528.273 179.729c0-6.283 5.093-11.376 11.375-11.376h166.226a11.376 11.376 0 0 1 11.375 11.376v45.5c0 6.283-5.093 11.376-11.375 11.376H539.648c-6.282 0-11.375-5.093-11.375-11.376z"/><path fill="#fff" d="M569.416 182.126h3.657l.015 13.14q-.015 1.344-.515 2.47-.5 1.109-1.375 1.921-.86.797-2.047 1.25-1.172.438-2.531.438-1.422 0-2.594-.36-1.172-.375-2.016-1.094-.844-.718-1.312-1.812-.47-1.094-.485-2.578h3.672q.016 1.531.672 2.219.672.671 2.063.671.625 0 1.14-.234.531-.234.89-.656.376-.422.563-1 .203-.578.203-1.235v-13.14zm16.903 14q0-.5-.188-.938-.171-.453-.593-.828-.422-.39-1.11-.703-.672-.328-1.687-.594-1.235-.343-2.36-.843-1.125-.516-1.984-1.22-.86-.718-1.375-1.671-.516-.953-.516-2.188 0-1.203.5-2.171.516-.985 1.407-1.672.906-.688 2.125-1.063 1.218-.375 2.656-.375 1.484 0 2.703.438 1.234.422 2.125 1.203.89.781 1.375 1.844.5 1.062.5 2.343h-3.562q-.032-.64-.235-1.172-.203-.53-.61-.906-.39-.39-.984-.61-.578-.218-1.375-.218-.734 0-1.296.188-.563.171-.954.484-.39.312-.593.75-.203.437-.203.953 0 .531.265.969.266.422.766.765.515.344 1.234.641.719.281 1.64.516 1.298.39 2.391.937 1.094.547 1.875 1.297.797.734 1.235 1.703.437.953.437 2.125 0 1.25-.515 2.219-.5.969-1.39 1.64-.876.672-2.095 1.016-1.218.344-2.672.344-.89 0-1.78-.172-.891-.156-1.72-.484-.812-.344-1.515-.844-.703-.516-1.219-1.188-.5-.687-.797-1.546-.297-.86-.297-1.907h3.594q.031.86.297 1.485.281.61.766 1 .484.39 1.171.578.688.172 1.5.172.735 0 1.297-.172.563-.172.953-.469.391-.297.594-.719.219-.422.219-.937zM605.69 193q0 1.812-.484 3.36-.469 1.53-1.39 2.64-.907 1.11-2.22 1.734-1.296.61-2.937.61-1.64 0-2.922-.61-1.265-.625-2.14-1.734-.875-1.125-1.329-2.656-.453-1.532-.453-3.344v-2.766q0-1.828.453-3.36.454-1.53 1.329-2.64.875-1.125 2.14-1.75 1.266-.625 2.906-.625 1.657 0 2.954.625 1.312.625 2.218 1.75.922 1.11 1.391 2.64.484 1.532.484 3.36V193zm-3.703-2.797q0-1.156-.187-2.125-.188-.984-.594-1.688-.406-.703-1.047-1.093-.625-.39-1.516-.39-.89 0-1.484.39t-.969 1.093q-.359.704-.515 1.688-.157.969-.157 2.125V193q0 1.14.157 2.125.156.969.515 1.687.375.72.97 1.125.593.391 1.5.391.874 0 1.5-.39.64-.407 1.03-1.11.407-.719.594-1.688.203-.984.203-2.14v-2.797zm19.31 3.984q0 1.563-.36 2.891-.344 1.312-1.032 2.266-.687.937-1.718 1.468-1.016.532-2.39.532-1.235 0-2.142-.454-.906-.468-1.546-1.312l-.172 1.5h-3.266v-20h3.625v7.187q.625-.718 1.469-1.125.86-.406 2-.406 1.39 0 2.422.531 1.031.532 1.718 1.485.688.953 1.032 2.281.36 1.313.36 2.875v.281zm-3.626-.28q0-.86-.14-1.626-.126-.766-.438-1.344-.313-.578-.86-.922-.546-.343-1.374-.343-.985 0-1.61.422-.61.421-.953 1.14v5.61q.344.734.953 1.156.625.406 1.64.406.813 0 1.345-.312.546-.329.859-.891.312-.563.437-1.328.141-.781.141-1.688v-.28zm9.09-6.907h7.203v14.406q0 1.406-.406 2.406-.39 1.016-1.172 1.672-.765.656-1.875.969-1.094.312-2.515.312-.594 0-1.188-.046-.594-.047-1.14-.172l.171-2.938q.157.031.438.063.281.031.578.047.297.03.562.03.266.016.391.016.531 0 .984-.125.47-.109.797-.39.328-.266.516-.719.203-.453.203-1.125v-11.453h-3.547V187zm3.297-3.61q0-.421.14-.78.157-.36.423-.61.28-.25.656-.39.39-.141.86-.141.952 0 1.515.546.578.532.578 1.375 0 .844-.578 1.391-.563.531-1.516.531-.469 0-.86-.14-.374-.14-.655-.39-.266-.267-.422-.61-.14-.36-.14-.782zm17.371 17.954q-1.625 0-2.953-.532-1.328-.547-2.281-1.453-.953-.922-1.469-2.156-.515-1.25-.515-2.672v-.516q0-1.625.5-2.953.515-1.328 1.422-2.297.921-.968 2.171-1.5 1.25-.53 2.72-.53 1.515 0 2.702.5 1.203.5 2.032 1.421.828.906 1.25 2.188.437 1.28.437 2.828v1.531h-9.562q.109.719.421 1.312.329.594.813 1.032.5.422 1.14.656.641.234 1.391.234.531 0 1.063-.093.53-.11 1-.313.484-.203.906-.5.422-.312.734-.703l1.797 1.953q-.328.469-.875.938-.531.468-1.281.828-.734.343-1.64.562-.891.235-1.923.235zm-.437-11.688q-.61 0-1.125.219-.5.219-.89.625-.376.406-.641.969-.25.546-.391 1.234h5.938v-.281q-.016-.578-.22-1.078-.187-.516-.562-.875-.36-.375-.89-.594-.532-.219-1.22-.219zm15.824 8.797q.547 0 1.016-.156.484-.157.844-.438.375-.297.578-.703.203-.406.172-.89h3.406q.031 1.093-.453 2.03-.469.938-1.297 1.61-.813.672-1.906 1.063-1.078.375-2.282.375-1.64 0-2.89-.547-1.235-.547-2.063-1.516-.812-.969-1.25-2.25-.422-1.297-.422-2.781v-.39q0-1.485.422-2.782t1.25-2.25q.828-.969 2.063-1.531 1.234-.563 2.86-.563 1.296 0 2.405.39 1.11.391 1.907 1.11.797.703 1.234 1.719.453 1 .422 2.25h-3.406q.031-.516-.157-.984-.187-.47-.546-.813-.344-.344-.844-.547-.485-.203-1.063-.203-.859 0-1.422.36-.562.343-.89.937-.328.578-.469 1.344-.14.75-.14 1.562v.39q0 .813.124 1.579.141.766.47 1.344.327.578.89.937.578.344 1.437.344zm16.403-14.906V187h5.266v2.656h-5.266v6.063q0 .765.172 1.28.187.516.5.829.328.297.797.437.469.125 1.031.125.422 0 .86-.03.437-.048.828-.11.406-.063.75-.125.343-.063.578-.125l.359 2.484q-.375.219-.89.39-.5.157-1.079.25-.562.11-1.187.157-.625.063-1.219.063-1.156 0-2.11-.297-.937-.313-1.609-.953-.672-.641-1.031-1.641-.36-1-.36-2.39v-6.407h-3.218V187h3.219v-3.453h3.609zm-128.057 41.852v-13.266h4.453q1.094 0 1.969.22.89.218 1.515.671.64.438.985 1.125.343.688.343 1.61-.015.937-.5 1.671-.484.735-1.437 1.125.578.14.984.438.422.281.703.687.282.39.407.86.14.468.14.968 0 .953-.328 1.688-.328.734-.937 1.234-.61.485-1.485.735-.875.234-1.968.234h-4.844zm2.578-5.844v3.781h2.266q1.046-.015 1.593-.515.563-.516.563-1.328.015-.906-.5-1.422-.5-.516-1.547-.516h-2.375zm0-1.86h1.89q1.079 0 1.641-.437.578-.437.594-1.28 0-.938-.578-1.345-.578-.406-1.656-.406h-1.891v3.469zm14.883 7.704q-.094-.188-.156-.422-.063-.234-.11-.5-.203.234-.484.438-.266.187-.61.343-.328.157-.734.235-.39.094-.86.094-.75 0-1.39-.22-.625-.218-1.078-.609-.453-.39-.719-.937-.25-.547-.25-1.188 0-1.547 1.157-2.39 1.171-.86 3.468-.86h1.422v-.593q0-.703-.469-1.11-.468-.422-1.343-.422-.766 0-1.125.328-.36.329-.36.891h-2.53q0-.625.28-1.187.282-.578.813-1 .531-.422 1.297-.672.765-.25 1.765-.25.891 0 1.657.219.78.218 1.343.64.563.422.875 1.078.328.656.328 1.5v4.235q0 .797.094 1.312.094.516.297.89v.157h-2.578zm-2.406-1.781q.375 0 .703-.078.328-.094.594-.235.265-.156.453-.344.203-.187.312-.375v-1.703h-1.297q-.593 0-1.015.125-.422.11-.688.313-.265.203-.39.5-.125.281-.125.625 0 .5.359.844.36.328 1.094.328zm14.523-8.25q.579 0 1.063.078.484.062.797.156l-.375 2.531q-.5-.125-1.031-.172-.516-.062-1-.062-1.063 0-1.704.406-.64.406-.968 1.172v5.922h-2.532v-9.86h2.36l.125 1.61q.594-.828 1.437-1.297.844-.484 1.828-.484zm6.68 8.562q0-.36.11-.656.125-.313.344-.531.234-.219.562-.344.328-.14.75-.14.406 0 .734.14.329.125.547.344.219.219.344.531.125.297.125.656 0 .344-.125.656-.125.297-.344.516-.218.219-.547.344-.328.14-.734.14-.422 0-.75-.14-.328-.125-.562-.344-.22-.219-.344-.516-.11-.312-.11-.656zm17.493-3.375q0 1.078-.25 2-.25.922-.75 1.594-.485.672-1.203 1.063-.719.375-1.64.375-.798 0-1.407-.266-.594-.281-1.031-.781v4.656H596.1V215.54h2.328l.094.968q.453-.547 1.078-.843.625-.297 1.453-.297.938 0 1.657.36.718.358 1.203 1.015.5.656.75 1.578t.25 2.047v.187zm-2.531-.187q0-.61-.125-1.156-.11-.547-.36-.938-.234-.406-.61-.625-.374-.234-.905-.234-.672 0-1.094.265-.422.266-.656.735v4.109q.234.469.656.75.422.281 1.11.281.53 0 .905-.234.391-.25.625-.656.235-.407.344-.953.11-.547.11-1.157v-.187zm11.945-5q.578 0 1.063.078.484.062.797.156l-.375 2.531q-.5-.125-1.032-.172-.515-.062-1-.062-1.062 0-1.703.406-.64.406-.969 1.172v5.922h-2.53v-9.86h2.359l.125 1.61q.593-.828 1.437-1.297.844-.484 1.828-.484zm3.774 5.015q0-1.078.312-1.984.313-.922.907-1.594.593-.687 1.453-1.062.86-.375 1.969-.375 1.125 0 1.984.375.86.375 1.453 1.062.61.672.906 1.594.313.906.313 1.984v.188q0 1.078-.313 2-.297.922-.89 1.594-.594.672-1.47 1.047-.858.375-1.952.375-1.125 0-2-.375-.86-.375-1.453-1.047-.594-.672-.907-1.594-.312-.922-.312-2v-.188zm2.531.188q0 .625.11 1.172.125.531.375.937.265.406.671.64.407.235.985.235.547 0 .937-.234.407-.234.657-.64.25-.407.375-.938.125-.547.125-1.172v-.188q0-.609-.125-1.14-.125-.547-.375-.953-.25-.407-.657-.641-.39-.234-.968-.234-.563 0-.97.234-.39.234-.655.64-.25.407-.375.954-.11.531-.11 1.14v.188zm13.664-7.438v2.407h3.672v1.875h-3.672v4.234q0 .531.11.89.125.36.344.579.234.219.562.312.328.078.719.078.297 0 .594-.015.312-.031.593-.063.282-.047.516-.094.25-.046.422-.093l.234 1.734q-.25.156-.61.281-.359.11-.765.172-.39.078-.828.11-.437.047-.844.047-.812 0-1.484-.204-.656-.218-1.125-.672-.469-.453-.734-1.14-.25-.703-.25-1.672v-4.484h-2.25v-1.875h2.25v-2.407h2.546zm6.196 7.25q0-1.078.313-1.984.312-.922.906-1.594.594-.687 1.453-1.062.86-.375 1.969-.375 1.125 0 1.984.375.86.375 1.453 1.062.61.672.906 1.594.313.906.313 1.984v.188q0 1.078-.313 2-.296.922-.89 1.594-.594.672-1.469 1.047-.86.375-1.953.375-1.125 0-2-.375-.86-.375-1.453-1.047-.594-.672-.906-1.594-.313-.922-.313-2v-.188zm2.531.188q0 .625.11 1.172.125.531.375.937.265.406.672.64.406.235.984.235.547 0 .937-.234.407-.234.657-.64.25-.407.375-.938.125-.547.125-1.172v-.188q0-.609-.125-1.14-.125-.547-.375-.953-.25-.407-.657-.641-.39-.234-.968-.234-.563 0-.97.234-.39.234-.655.64-.25.407-.375.954-.11.531-.11 1.14v.188zm13.665-7.438v2.407h3.671v1.875h-3.671v4.234q0 .531.109.89.125.36.344.579.234.219.562.312.328.078.719.078.297 0 .594-.015.312-.031.593-.063.282-.047.516-.094.25-.046.422-.093l.234 1.734q-.25.156-.61.281-.358.11-.765.172-.39.078-.828.11-.437.047-.844.047-.812 0-1.484-.204-.656-.218-1.125-.672-.469-.453-.734-1.14-.25-.703-.25-1.672v-4.484h-2.25v-1.875h2.25v-2.407h2.547zm10.742 8.125l.297 1.063 2.625-6.781h2.797l-5.016 11.328q-.156.375-.422.812-.25.438-.64.813-.39.375-.953.625-.563.265-1.329.265-.187 0-.343-.015-.157-.016-.297-.047-.14-.016-.281-.047-.141-.031-.313-.078l.313-1.922h.39q.25.016.39.016.298 0 .532-.188.234-.172.39-.39.173-.22.266-.407.11-.172.14-.172l.61-1.156-4.172-9.437h2.782l2.234 5.718zm15.852-.703q0 1.078-.25 2-.25.922-.75 1.594-.485.672-1.203 1.063-.719.375-1.64.375-.798 0-1.407-.266-.594-.281-1.031-.781v4.656h-2.532V215.54h2.328l.094.968q.453-.547 1.078-.843.625-.297 1.453-.297.938 0 1.657.36.718.358 1.203 1.015.5.656.75 1.578t.25 2.047v.187zm-2.531-.187q0-.61-.125-1.156-.11-.547-.36-.938-.234-.406-.61-.625-.374-.234-.905-.234-.672 0-1.094.265-.422.266-.656.735v4.109q.234.469.656.75.422.281 1.11.281.53 0 .905-.234.391-.25.625-.656.235-.407.344-.953.11-.547.11-1.157v-.187zm9.648 5.219q-1.14 0-2.078-.375-.922-.375-1.594-1.016-.656-.64-1.015-1.516-.36-.875-.36-1.86v-.374q0-1.125.36-2.047.36-.938.984-1.61.64-.687 1.516-1.046.875-.375 1.906-.375 1.063 0 1.89.344.844.343 1.423.984.578.64.875 1.547.312.89.312 1.969v1.078h-6.687q.062.5.28.922.235.406.579.718.344.297.781.469.453.156.985.156.375 0 .734-.078.375-.078.703-.219.344-.14.64-.343.298-.22.516-.5l1.266 1.375q-.234.328-.625.656-.375.328-.89.578-.516.25-1.141.406-.625.156-1.36.156zm-.297-8.172q-.421 0-.78.156-.36.14-.626.422-.265.281-.453.672-.187.39-.266.875h4.141v-.203q-.016-.391-.156-.75-.125-.36-.39-.61-.25-.266-.626-.406-.36-.156-.844-.156z"/><path fill="#bdbdbd" d="M540.894 236.782H704.39V296.5H540.894z" fill-rule="evenodd"/><path stroke="#666" stroke-linejoin="round" stroke-linecap="butt" d="M540.894 236.782H704.39V296.5H540.894z"/><path fill="#ff9800" d="M780.562 160.03c0-6.282 5.093-11.375 11.375-11.375h142.068a11.376 11.376 0 0 1 11.376 11.375v45.501c0 6.283-5.093 11.376-11.376 11.376H791.937c-6.282 0-11.375-5.093-11.375-11.376z" fill-rule="evenodd"/><path stroke="#666" stroke-linejoin="round" stroke-linecap="butt" d="M780.562 160.03c0-6.282 5.093-11.375 11.375-11.375h142.068a11.376 11.376 0 0 1 11.376 11.375v45.501c0 6.283-5.093 11.376-11.376 11.376H791.937c-6.282 0-11.375-5.093-11.375-11.376z"/><path fill="#fff" d="M834.527 187.428q0-.5-.187-.938-.172-.453-.594-.828-.422-.39-1.11-.703-.671-.328-1.687-.594-1.234-.344-2.36-.844-1.124-.515-1.984-1.218-.86-.719-1.375-1.672t-.515-2.188q0-1.203.5-2.172.515-.984 1.406-1.671.906-.688 2.125-1.063 1.219-.375 2.656-.375 1.484 0 2.703.438 1.235.421 2.125 1.203.89.781 1.375 1.843.5 1.063.5 2.344h-3.562q-.032-.64-.235-1.172-.203-.53-.609-.906-.39-.39-.984-.61-.579-.218-1.375-.218-.735 0-1.297.187-.563.172-.953.485-.391.312-.594.75-.203.437-.203.953 0 .531.265.969.266.422.766.765.516.344 1.234.641.72.281 1.641.516 1.297.39 2.39.937 1.094.547 1.876 1.297.796.734 1.234 1.703.437.953.437 2.125 0 1.25-.515 2.219-.5.969-1.39 1.64-.876.672-2.095 1.016-1.218.344-2.671.344-.891 0-1.782-.172-.89-.156-1.718-.484-.813-.344-1.516-.844-.703-.516-1.219-1.188-.5-.687-.797-1.547-.297-.859-.297-1.906h3.594q.031.86.297 1.485.281.609.766 1 .484.39 1.172.578.687.172 1.5.172.734 0 1.296-.172.563-.172.954-.469.39-.297.593-.719.22-.422.22-.937zm9.903-7.188q.703-1.031 1.703-1.61 1.015-.593 2.265-.593 1.11 0 2.032.344.922.328 1.578 1.031.672.688 1.047 1.797.375 1.094.375 2.64v8.532h-3.625v-8.547q0-.766-.188-1.313-.187-.546-.547-.875-.343-.343-.843-.5-.485-.171-1.11-.171-.922 0-1.594.328-.656.328-1.093.906v10.172h-3.625v-20h3.625v7.86zm21.184 12.14q-.141-.265-.235-.593-.078-.344-.156-.719-.297.328-.688.61-.39.281-.875.5-.468.218-1.046.343-.563.125-1.22.125-1.077 0-1.984-.312-.906-.313-1.562-.875-.656-.563-1.016-1.328-.359-.781-.359-1.688 0-2.234 1.656-3.453 1.656-1.219 4.953-1.219h2.016v-.828q0-1.015-.672-1.609-.656-.594-1.906-.594-1.11 0-1.625.485-.5.468-.5 1.265h-3.61q0-.906.391-1.703.406-.812 1.156-1.422.766-.61 1.86-.969 1.11-.359 2.531-.359 1.266 0 2.36.313 1.109.312 1.906.921.812.61 1.265 1.547.469.922.469 2.157v6.03q0 1.141.14 1.891.141.735.407 1.266v.219h-3.656zm-3.454-2.53q.547 0 1.016-.125.469-.141.844-.344.375-.219.64-.485.282-.265.438-.53v-2.423h-1.844q-.844 0-1.453.157-.594.156-.969.453-.375.297-.562.703-.188.406-.188.89 0 .735.516 1.22.516.484 1.562.484zm23.294-4.375q0 1.53-.36 2.843t-1.062 2.282q-.688.953-1.719 1.5-1.016.546-2.344.546-1.14 0-2-.39-.86-.39-1.5-1.094v6.64h-3.61v-19.5h3.345l.125 1.376q.656-.782 1.53-1.203.892-.438 2.08-.438 1.343 0 2.358.516 1.032.515 1.735 1.468.703.938 1.062 2.266.36 1.313.36 2.906v.282zm-3.61-.282q0-.875-.172-1.656-.156-.781-.5-1.344-.343-.562-.89-.89-.547-.328-1.313-.328-.953 0-1.562.375-.594.375-.938 1.046v5.891q.344.656.938 1.063.61.39 1.594.39.765 0 1.296-.328.547-.344.891-.922.344-.594.5-1.375.156-.781.156-1.64v-.282zm13.794 7.453q-1.625 0-2.954-.53-1.328-.548-2.28-1.454-.954-.922-1.47-2.156-.515-1.25-.515-2.672v-.516q0-1.625.5-2.953.515-1.328 1.422-2.297.922-.968 2.172-1.5 1.25-.53 2.718-.53 1.516 0 2.703.5 1.204.5 2.032 1.421.828.906 1.25 2.187.437 1.282.437 2.829v1.53h-9.562q.109.72.422 1.313.328.594.812 1.032.5.421 1.14.656.641.234 1.391.234.532 0 1.063-.094.531-.109 1-.312.484-.203.906-.5.422-.313.734-.703l1.797 1.953q-.328.469-.875.937-.531.47-1.281.829-.734.343-1.64.562-.891.234-1.922.234zm-.438-11.687q-.61 0-1.125.219-.5.218-.89.625-.376.406-.641.968-.25.547-.39 1.235h5.937v-.281q-.016-.579-.22-1.079-.187-.515-.562-.875-.359-.375-.89-.593-.531-.219-1.219-.219z"/><path fill="#bdbdbd" d="M791.57 217.085h142.582v59.717H791.569z" fill-rule="evenodd"/><path stroke="#666" stroke-linejoin="round" stroke-linecap="butt" d="M791.57 217.085h142.582v59.717H791.569z"/><path fill="#000" d="M827.31 238.78l-.25 4.313h-1.61v-5.61h1.86v1.297zm8.387 10.25q0-1.406.343-2.593.344-1.204 1-2.047.657-.86 1.594-1.344.938-.484 2.125-.484 1.172 0 2.047.421.89.422 1.516 1.204l.109-1.391h1.969v12.422q0 1.25-.391 2.219-.39.984-1.11 1.656-.702.687-1.687 1.031-.984.36-2.187.36-.485 0-1.125-.126-.625-.109-1.282-.359-.64-.25-1.25-.672-.609-.422-1.03-1.047l1.124-1.297q.39.485.813.813.422.344.859.531.438.203.86.281.437.094.874.094.766 0 1.391-.219.625-.218 1.063-.656.437-.422.671-1.062.235-.625.235-1.453v-1.079q-.625.72-1.5 1.11-.86.375-1.985.375-1.171 0-2.109-.485-.937-.5-1.594-1.359-.64-.875-1-2.047-.343-1.187-.343-2.547v-.25zm2.171.25q0 .922.188 1.766.203.828.61 1.469.421.625 1.062 1 .64.359 1.547.359.562 0 1.015-.125.453-.14.813-.39.36-.25.64-.579.282-.343.485-.75v-5.812q-.203-.406-.485-.735-.28-.328-.656-.562-.36-.25-.812-.375-.438-.14-.97-.14-.921 0-1.577.374-.64.375-1.063 1.016-.406.64-.61 1.484-.187.828-.187 1.75v.25zm18.23 6.438q-1.327 0-2.452-.453-1.125-.47-1.922-1.282-.797-.828-1.25-1.953-.438-1.125-.438-2.437v-.5q0-1.531.485-2.735.5-1.218 1.312-2.062.828-.844 1.86-1.281 1.03-.453 2.125-.453 1.375 0 2.39.484 1.031.469 1.703 1.312.688.829 1.016 1.97.344 1.14.344 2.468v.969h-9.063q.031.859.328 1.625.313.765.828 1.343.516.563 1.235.891.734.328 1.625.328 1.156 0 2.047-.469.906-.468 1.515-1.25l1.313 1.032q-.313.484-.797.922-.469.437-1.094.78-.61.345-1.406.548-.781.203-1.703.203zm-.28-11.375q-.657 0-1.25.25-.579.234-1.047.703-.469.453-.797 1.14-.313.672-.438 1.547h6.813v-.171q-.031-.625-.235-1.25-.203-.625-.609-1.11-.39-.5-1-.797-.61-.312-1.437-.312zm14.214-4.61v3.063h4.829v1.687h-4.829v6.891q0 .734.188 1.219.187.469.516.765.328.282.75.407.437.109.921.109.344 0 .72-.031.374-.047.734-.11.359-.062.671-.125.313-.062.5-.109l.313 1.531q-.266.172-.656.297t-.844.203q-.453.094-.969.14-.515.048-1.015.048-.844 0-1.579-.235-.734-.25-1.28-.765-.532-.531-.845-1.344-.296-.828-.296-2v-6.89h-3.329v-1.688h3.329v-3.063h2.171zm14.56 5.375l3.67-6.687h2.563l-4.953 8.453 5.063 8.61h-2.531l-3.766-6.829-3.781 6.828h-2.578l5.093-8.609-4.953-8.453h2.531l3.641 6.687zm14.73-6.328l-.25 4.313h-1.61v-5.61h1.86v1.297z"/><path d="M717.25 202.479c15.827 0 23.742-4.921 31.655-9.843 7.914-4.92 15.826-9.842 31.651-9.842"/><path stroke="#595959" stroke-width="4" stroke-linejoin="round" stroke-linecap="butt" d="M717.25 202.479c15.827 0 23.742-4.921 31.655-9.843 1.979-1.23 3.957-2.46 6.059-3.614a61.86 61.86 0 0 1 1.601-.849l.541-.271"/><path fill="#595959" stroke="#595959" stroke-width="4" stroke-linecap="butt" d="M758.513 194.358l16.33-10.32-19.143-2.592z" fill-rule="evenodd"/><path d="M622.761 375.194c0-19.674-.031-29.51-.063-39.348-.031-9.838-.063-19.68-.063-39.36"/><path stroke="#595959" stroke-width="4" stroke-linejoin="round" stroke-linecap="butt" d="M622.761 375.194c0-19.674-.031-29.51-.063-39.348l-.023-7.533-.019-7.827"/><path stroke="#595959" stroke-width="4" stroke-linecap="butt" d="M629.263 320.48l-6.623-18.147-6.59 18.158z"/><path d="M571.076 272.64l-193.795-61.669"/><path stroke="#666" stroke-width="4" stroke-linejoin="round" stroke-linecap="butt" d="M556.63 268.043L400.15 218.25"/><path fill="#666" stroke="#666" stroke-width="4" stroke-linecap="butt" d="M569.17 272.034a6.58 6.58 0 1 1-12.54-3.99 6.58 6.58 0 0 1 12.54 3.99z"/><path fill="#666" stroke="#666" stroke-width="4" stroke-linecap="butt" d="M402.154 211.953l-19.3.791 15.293 11.8z" fill-rule="evenodd"/><path fill="#595959" d="M117.202 245.097h251.654V296.5H117.202z" fill-rule="evenodd"/><path stroke="#666" stroke-linejoin="round" stroke-linecap="butt" d="M117.202 245.097h251.654V296.5H117.202z"/><path fill="#e67c73" d="M136.39 278.39q-.672-.016-1.235-.235-.547-.203-.984-.562-.438-.344-.766-.813-.312-.469-.531-1.015-.203-.532-.313-1.11-.093-.562-.093-1.11v-1.765q0-1.5-.719-2.172-.719-.672-2.188-.687v-1.516q1.47 0 2.188-.672.719-.672.719-2.172v-1.765q0-.563.093-1.125.094-.563.282-1.094.203-.547.5-1.016.312-.468.75-.812.437-.36 1-.563.578-.218 1.297-.234l.218 1.188q-.75.03-1.203.359-.437.328-.656.844-.219.515-.281 1.172-.063.64-.063 1.28v1.766q-.015 1.25-.594 2.188-.562.937-1.78 1.437 1.218.47 1.78 1.422.579.938.594 2.172v1.766q0 .64.094 1.281.11.64.36 1.156.265.516.687.844.422.344 1.062.36l-.218 1.203z"/><path fill="#7baaf7" d="M161.003 263.108q.266 0 .547.016.297.016.563.047.265.031.484.094.234.046.375.109l-.266 1.875q-.547-.125-1.062-.172-.5-.062-1.047-.062-1.36 0-2.203.625-.828.609-1.235 1.703v7.234h-1.937v-11.266h1.844l.093 1.782q.688-.922 1.641-1.453.969-.532 2.203-.532zm10.393 11.672q-1.188 0-2.188-.406-1-.406-1.703-1.125-.703-.734-1.11-1.734-.39-1-.39-2.172v-.438q0-1.375.438-2.453.437-1.078 1.156-1.812.734-.75 1.656-1.141.922-.39 1.89-.39 1.22 0 2.126.421.906.406 1.5 1.156.61.75.906 1.766.297 1 .297 2.172v.875h-8.047q.031.766.297 1.453.266.672.734 1.172.47.5 1.11.797.64.297 1.422.297 1.03 0 1.828-.422.812-.422 1.344-1.11l1.171.922q-.28.422-.703.813-.422.39-.968.703-.547.297-1.25.469-.704.187-1.516.187zm-.25-10.094q-.594 0-1.11.22-.515.202-.937.624-.422.406-.703 1-.281.594-.406 1.375h6.062v-.14q-.031-.563-.219-1.11-.171-.562-.53-1-.345-.437-.891-.703-.532-.266-1.266-.266zm12.627-4.109v2.734h4.297v1.485h-4.297v6.125q0 .656.156 1.094.172.421.469.671.297.25.672.36.375.11.812.11.313 0 .641-.032.328-.047.64-.094.329-.062.594-.11.282-.062.453-.109l.282 1.375q-.25.141-.594.25-.328.11-.734.188-.407.078-.86.11-.453.046-.906.046-.75 0-1.406-.203-.64-.219-1.125-.672-.485-.469-.766-1.203-.266-.734-.266-1.781v-6.125h-2.953v-1.485h2.953v-2.734h1.938zm15.549 12.453q-.563.828-1.406 1.297-.844.453-1.953.453-.875 0-1.594-.265-.719-.282-1.235-.86-.515-.594-.796-1.484-.266-.906-.266-2.172v-6.688h1.922v6.72q0 .905.14 1.515.157.61.438.969.297.359.719.5.422.14.984.14 1.172 0 1.89-.469.735-.484 1.079-1.296v-8.079h1.937v11.266h-1.75l-.11-1.547zm12.877-9.922q.266 0 .547.016.297.016.562.047.266.031.485.094.234.046.375.109l-.266 1.875q-.547-.125-1.062-.172-.5-.062-1.047-.062-1.36 0-2.203.625-.828.609-1.235 1.703v7.234h-1.937v-11.266h1.844l.093 1.782q.688-.922 1.64-1.453.97-.532 2.204-.532zm7.143.203l.125 1.657q.625-.875 1.515-1.36.891-.5 2-.5.891 0 1.61.25.718.25 1.234.782.516.515.781 1.343.282.813.282 1.938v7.156h-1.922v-7.11q0-.75-.172-1.265-.172-.531-.5-.844-.328-.328-.797-.468-.469-.157-1.094-.157-.969 0-1.703.485-.734.484-1.172 1.281v8.078h-1.922v-11.266h1.735zm28.426-2.734v2.734h4.297v1.485h-4.297v6.125q0 .656.156 1.094.172.421.469.671.297.25.672.36.375.11.812.11.313 0 .64-.032.329-.047.641-.094.329-.062.594-.11.281-.062.453-.109l.282 1.375q-.25.141-.594.25-.328.11-.735.188-.406.078-.859.11-.453.046-.906.046-.75 0-1.406-.203-.641-.219-1.125-.672-.485-.469-.766-1.203-.266-.734-.266-1.781v-6.125h-2.953v-1.485h2.953v-2.734h1.938zm10.158 4.406q.61-.89 1.484-1.375.891-.5 2-.5.891 0 1.61.25.719.25 1.234.797.516.531.781 1.36.282.828.282 1.968v7.094h-1.922v-7.11q0-1.39-.672-2.062-.656-.687-1.89-.672-.923 0-1.688.453-.75.454-1.219 1.204v8.187h-1.922v-16h1.922v6.406zm11.174-1.672h5.766v9.594h3.672v1.672H269.1v-1.672h3.844v-7.922H269.1v-1.672zm3.594-2.953q0-.484.281-.812.281-.328.875-.328.563 0 .86.328.296.328.296.812 0 .47-.297.782-.296.312-.859.312-.594 0-.875-.312-.281-.313-.281-.782zm16.393 11.235q0-.344-.141-.625-.125-.282-.453-.5-.313-.235-.844-.422-.531-.203-1.328-.36-.969-.187-1.766-.468-.797-.282-1.375-.672-.562-.39-.875-.922-.312-.531-.312-1.219 0-.687.328-1.281.328-.61.906-1.047.578-.453 1.39-.703.813-.266 1.782-.266 1.031 0 1.86.266.843.266 1.421.75.594.469.907 1.11.312.64.312 1.39h-1.922q0-.375-.187-.719-.188-.344-.532-.61-.328-.28-.796-.437-.47-.172-1.063-.172-.625 0-1.094.141-.453.125-.765.36-.297.218-.453.53-.157.298-.157.626t.125.593q.125.25.422.47.313.202.828.374.516.156 1.313.313 1.031.218 1.86.515.827.282 1.39.688.562.39.844.922.296.531.296 1.234 0 .75-.343 1.375-.328.61-.938 1.047-.594.437-1.437.672-.844.234-1.844.234-1.14 0-2.047-.297-.89-.312-1.516-.812-.609-.516-.937-1.172-.328-.672-.328-1.39h1.922q.047.593.312 1 .281.406.688.656.422.25.922.359.5.094.984.094 1.219 0 1.922-.438.719-.453.719-1.187z"/><path fill="#e67c73" d="M297.76 273.327q0-.312.094-.578.094-.281.282-.484.187-.204.468-.313.282-.11.657-.11.375 0 .656.11.297.11.484.313.203.203.297.484.094.266.094.578 0 .297-.094.563-.094.265-.297.468-.187.203-.484.313-.281.11-.656.11t-.657-.11q-.281-.11-.468-.313-.188-.203-.282-.468-.093-.266-.093-.563z"/><path fill="#fff" d="M311.856 267.483l3.016-4.172h2.25l-4.188 5.563 4.297 5.703h-2.218l-3.11-4.297-3.125 4.297h-2.25l4.313-5.703-4.188-5.563h2.219l2.984 4.172z"/><path fill="#e67c73" d="M323.358 264.327q0-.312.094-.578.094-.281.281-.484.188-.204.47-.313.28-.11.655-.11t.657.11q.297.11.484.313.203.203.297.484.094.266.094.578 0 .297-.094.563-.094.265-.297.468-.187.203-.484.313-.282.11-.657.11-.375 0-.656-.11t-.469-.313q-.187-.203-.28-.468-.095-.266-.095-.563zm2.532 9.797q0 .5-.125 1.031-.125.531-.36 1.063-.234.531-.562 1-.328.484-.766.86l-1.203-.657q.5-.735.703-1.563.219-.812.219-1.703v-1.86h2.094v1.829zm21.254 3.063q.64-.016 1.062-.36.438-.328.688-.844.25-.515.36-1.156.109-.64.109-1.281v-1.766q0-1.234.578-2.172.578-.953 1.781-1.421-1.203-.5-1.781-1.438-.578-.938-.578-2.188v-1.765q0-.64-.063-1.281-.062-.657-.297-1.172-.218-.516-.656-.844-.437-.328-1.187-.36l.203-1.187q.718.016 1.28.235.579.203 1.017.562.437.344.734.813.312.468.516 1.015.203.531.296 1.094.094.562.094 1.125v1.766q0 1.5.719 2.171.719.672 2.172.672v1.516q-1.453.016-2.172.687-.719.672-.719 2.172v1.766q0 .828-.234 1.672-.235.86-.719 1.547-.484.703-1.219 1.156-.734.453-1.765.469l-.22-1.203z"/><path fill="#34a853" d="M106.037 188.22c0-6.282 5.093-11.375 11.375-11.375h248.493a11.376 11.376 0 0 1 11.376 11.376v45.5c0 6.283-5.093 11.376-11.376 11.376H117.412c-6.282 0-11.375-5.093-11.375-11.375z" fill-rule="evenodd"/><path stroke="#666" stroke-linejoin="round" stroke-linecap="butt" d="M106.037 188.22c0-6.282 5.093-11.375 11.375-11.375h248.493a11.376 11.376 0 0 1 11.376 11.376v45.5c0 6.283-5.093 11.376-11.376 11.376H117.412c-6.282 0-11.375-5.093-11.375-11.375z"/><path fill="#fff" d="M144.329 201.618h3.656l.016 13.14q-.016 1.344-.516 2.47-.5 1.109-1.375 1.921-.86.797-2.047 1.25-1.172.438-2.531.438-1.422 0-2.594-.36-1.172-.375-2.016-1.093-.843-.72-1.312-1.813-.469-1.094-.484-2.578h3.671q.016 1.531.672 2.219.672.672 2.063.672.625 0 1.14-.235.532-.234.891-.656.375-.422.563-1 .203-.578.203-1.234v-13.141zm16.902 14q0-.5-.187-.938-.172-.453-.594-.828-.422-.39-1.11-.703-.671-.328-1.687-.594-1.234-.343-2.36-.843-1.124-.516-1.984-1.219-.859-.719-1.375-1.672-.515-.953-.515-2.187 0-1.203.5-2.172.515-.985 1.406-1.672.906-.688 2.125-1.063 1.219-.375 2.656-.375 1.485 0 2.703.438 1.235.422 2.125 1.203.891.781 1.375 1.844.5 1.062.5 2.344h-3.562q-.031-.641-.234-1.172-.204-.532-.61-.907-.39-.39-.984-.609-.578-.219-1.375-.219-.735 0-1.297.188-.563.172-.953.484-.39.313-.594.75-.203.438-.203.953 0 .531.266.969.265.422.765.766.516.343 1.235.64.718.281 1.64.516 1.297.39 2.39.937 1.095.547 1.876 1.297.797.735 1.234 1.703.438.953.438 2.125 0 1.25-.516 2.22-.5.968-1.39 1.64-.876.672-2.094 1.015-1.22.344-2.672.344-.89 0-1.781-.172-.891-.156-1.72-.484-.812-.344-1.515-.844-.703-.516-1.219-1.187-.5-.688-.796-1.547-.297-.86-.297-1.906h3.593q.032.859.297 1.484.282.61.766 1 .484.39 1.172.578.687.172 1.5.172.734 0 1.297-.172.562-.172.953-.469.39-.297.594-.719.218-.421.218-.937zm18.184-2.89h-8.125v7.843h-3.672v-18.953h12.813v2.984h-9.14v5.157h8.124v2.968zm13.075 5.859q-.72 1.062-1.735 1.656-1 .594-2.187.594-1.094 0-2.016-.328-.906-.344-1.562-1.078-.641-.735-1-1.876-.36-1.14-.36-2.734v-8.328h3.625v8.344q0 .86.11 1.453.125.578.39.937.282.36.719.516.453.156 1.094.156 1.078 0 1.75-.406.687-.406 1.031-1.125v-9.875h3.625v14.078h-3.266l-.218-1.984zm10.293-12.094l.234 1.953q.75-1.062 1.828-1.64 1.079-.579 2.391-.579 1.078 0 1.953.313.89.312 1.531 1 .641.672 1 1.75.36 1.078.36 2.61v8.671h-3.61v-8.61q0-.843-.203-1.374-.187-.547-.547-.86-.343-.312-.843-.437-.485-.125-1.11-.125-.922 0-1.578.375-.64.375-1.047 1.016v10.015h-3.64v-14.078h3.28zm18.95 11.453q.546 0 1.015-.156.484-.156.844-.438.375-.297.578-.703.203-.406.172-.89h3.406q.031 1.093-.453 2.03-.469.938-1.297 1.61-.813.672-1.906 1.063-1.078.375-2.282.375-1.64 0-2.89-.547-1.235-.547-2.063-1.516-.812-.969-1.25-2.25-.422-1.297-.422-2.781v-.39q0-1.485.422-2.782t1.25-2.25q.828-.969 2.063-1.531 1.234-.563 2.86-.563 1.296 0 2.405.391 1.11.39 1.907 1.11.797.702 1.234 1.718.453 1 .422 2.25h-3.406q.031-.516-.157-.984-.187-.469-.546-.813-.344-.344-.844-.547-.485-.203-1.063-.203-.859 0-1.422.36-.562.343-.89.937-.328.578-.469 1.344-.14.75-.14 1.562v.391q0 .813.124 1.578.141.766.47 1.344.327.578.89.937.578.344 1.437.344zm16.402-14.906v3.453h5.266v2.656h-5.266v6.063q0 .765.172 1.281.187.516.5.828.328.297.797.438.468.125 1.031.125.422 0 .86-.032.437-.047.827-.109.407-.063.75-.125.344-.063.579-.125l.359 2.484q-.375.22-.89.391-.5.156-1.079.25-.562.11-1.187.156-.625.063-1.219.063-1.156 0-2.11-.297-.937-.313-1.609-.953-.672-.64-1.031-1.64-.36-1-.36-2.392v-6.406h-3.218v-2.656h3.219v-3.453h3.609zm10.324 3.453h7.672v11.14h3.813v2.938h-11.485v-2.937h4.016v-8.188h-4.016v-2.953zm3.75-3.61q0-.421.141-.78.156-.36.422-.61.281-.25.656-.39.39-.141.86-.141.968 0 1.53.547.563.53.563 1.375 0 .843-.562 1.39-.563.531-1.531.531-.47 0-.86-.14-.375-.14-.656-.39-.266-.266-.422-.61-.14-.36-.14-.781zm10.794 10.516q0-1.531.437-2.844.438-1.312 1.297-2.265.86-.969 2.078-1.516 1.235-.547 2.828-.547 1.578 0 2.813.547 1.25.547 2.094 1.516.859.953 1.296 2.266.438 1.312.438 2.843v.281q0 1.547-.438 2.86-.437 1.297-1.296 2.266-.844.953-2.079 1.5-1.234.53-2.812.53-1.578 0-2.828-.53-1.235-.547-2.094-1.5-.86-.97-1.297-2.266-.437-1.313-.437-2.86v-.28zm3.61.281q0 .875.17 1.657.173.765.532 1.344.375.578.953.921.578.344 1.39.344.798 0 1.36-.344.578-.343.938-.922.36-.578.531-1.343.172-.781.172-1.656v-.282q0-.86-.172-1.625t-.531-1.344q-.36-.593-.938-.937-.562-.344-1.375-.344-.812 0-1.39.344-.563.344-.938.938-.36.578-.531 1.343-.172.766-.172 1.625v.281zm16.152-7.187l.234 1.953q.75-1.062 1.828-1.64 1.078-.579 2.39-.579 1.079 0 1.954.313.89.312 1.531 1 .64.672 1 1.75.36 1.078.36 2.61v8.671h-3.61v-8.61q0-.843-.203-1.374-.187-.547-.547-.86-.344-.312-.844-.437-.484-.125-1.109-.125-.922 0-1.578.375-.64.375-1.047 1.016v10.015h-3.64v-14.078h3.28zm23.113 9.078q0-1.125.266-2.047.281-.937.797-1.594.531-.671 1.266-1.03.734-.36 1.671-.36.86 0 1.47.297.624.281 1.062.812l.11-.937h2.296v9.547q0 1-.344 1.78-.328.782-.953 1.313-.61.547-1.469.813-.86.281-1.906.281-.437 0-.953-.094-.516-.078-1.016-.28-.5-.188-.953-.485-.437-.297-.75-.703l1.14-1.532q.485.547 1.095.828.609.282 1.312.282 1.063 0 1.656-.578.61-.563.61-1.61v-.562q-.453.5-1.047.781-.594.266-1.375.266-.922 0-1.656-.375-.735-.391-1.266-1.047-.516-.672-.797-1.578-.266-.922-.266-2v-.188zm2.547.188q0 .625.11 1.156.125.531.375.937.265.391.656.625.39.22.922.22.672 0 1.094-.25.437-.267.703-.72v-4.172q-.266-.468-.703-.718-.422-.25-1.063-.25-.547 0-.937.234-.391.234-.657.64-.25.407-.375.954-.125.531-.125 1.156v.188zm13.68 5q-1.14 0-2.078-.375-.922-.375-1.594-1.016-.656-.64-1.015-1.516-.36-.875-.36-1.859v-.375q0-1.125.36-2.047.36-.937.984-1.61.64-.687 1.516-1.046.875-.375 1.906-.375 1.063 0 1.89.344.844.343 1.423.984.578.64.875 1.547.312.89.312 1.969v1.078h-6.687q.062.5.28.922.235.406.579.718.344.297.781.47.453.155.985.155.375 0 .734-.078.375-.078.703-.219.344-.14.64-.343.298-.219.516-.5l1.266 1.375q-.234.328-.625.656-.375.328-.89.578-.516.25-1.141.406-.625.157-1.36.157zm-.297-8.172q-.421 0-.78.156-.36.14-.626.422-.265.281-.453.672-.187.39-.266.875h4.141v-.203q-.016-.391-.156-.75-.125-.36-.39-.61-.25-.265-.626-.406-.36-.156-.844-.156zm11.368-4.282v2.407h3.672v1.875h-3.672v4.234q0 .531.11.89.124.36.343.579.234.219.562.312.329.078.72.078.296 0 .593-.015.312-.031.594-.063.281-.047.515-.093.25-.047.422-.094l.235 1.734q-.25.156-.61.281-.36.11-.765.172-.391.078-.829.11-.437.047-.843.047-.813 0-1.485-.204-.656-.218-1.125-.671-.468-.454-.734-1.141-.25-.703-.25-1.672v-4.484h-2.25v-1.875h2.25v-2.407h2.547zm10.945 3.75l2.36-4.75h3l-3.735 6.579 3.829 6.687h-2.985l-2.437-4.828-2.422 4.828H338.7l3.828-6.687-3.72-6.579h2.985l2.328 4.75z"/><path fill="#34a853" d="M254.51 386.562c0-6.283 5.092-11.376 11.375-11.376H432.11a11.376 11.376 0 0 1 11.376 11.376v45.5c0 6.283-5.093 11.376-11.376 11.376H265.885c-6.283 0-11.376-5.093-11.376-11.375z" fill-rule="evenodd"/><path stroke="#666" stroke-linejoin="round" stroke-linecap="butt" d="M254.51 386.562c0-6.283 5.092-11.376 11.375-11.376H432.11a11.376 11.376 0 0 1 11.376 11.376v45.5c0 6.283-5.093 11.376-11.376 11.376H265.885c-6.283 0-11.376-5.093-11.376-11.375z"/><path fill="#fff" d="M295.653 388.96h3.656l.015 13.14q-.015 1.344-.515 2.469-.5 1.109-1.375 1.921-.86.797-2.047 1.25-1.172.438-2.531.438-1.422 0-2.594-.36-1.172-.374-2.016-1.093-.843-.719-1.312-1.813-.469-1.093-.485-2.578h3.672q.016 1.531.672 2.219.672.672 2.063.672.625 0 1.14-.235.532-.234.891-.656.375-.422.562-1 .204-.578.204-1.234v-13.14zm16.902 14q0-.5-.187-.938-.172-.453-.594-.828-.422-.391-1.11-.704-.671-.328-1.687-.593-1.234-.344-2.36-.844-1.124-.516-1.984-1.219-.86-.719-1.375-1.672t-.515-2.187q0-1.203.5-2.172.515-.984 1.406-1.672.906-.687 2.125-1.062 1.219-.375 2.656-.375 1.485 0 2.703.437 1.235.422 2.125 1.203.89.781 1.375 1.844.5 1.062.5 2.344h-3.562q-.031-.64-.235-1.172-.203-.531-.609-.906-.39-.391-.984-.61-.578-.219-1.375-.219-.735 0-1.297.188-.563.172-.953.484-.39.313-.594.75-.203.438-.203.953 0 .532.265.97.266.421.766.765.516.344 1.234.64.72.282 1.641.516 1.297.39 2.39.938 1.094.546 1.876 1.296.797.735 1.234 1.704.438.953.438 2.125 0 1.25-.516 2.218-.5.97-1.39 1.641-.876.672-2.094 1.016-1.22.343-2.672.343-.89 0-1.782-.172-.89-.156-1.718-.484-.813-.344-1.516-.844-.703-.515-1.219-1.187-.5-.688-.797-1.547-.296-.86-.296-1.906h3.593q.032.86.297 1.484.281.61.766 1 .484.39 1.172.578.687.172 1.5.172.734 0 1.297-.172.562-.172.953-.469.39-.296.593-.718.22-.422.22-.938zm19.372-3.126q0 1.813-.485 3.36-.469 1.53-1.39 2.64-.907 1.11-2.22 1.735-1.296.609-2.937.609-1.64 0-2.922-.61-1.265-.624-2.14-1.734-.875-1.125-1.328-2.656-.453-1.531-.453-3.344v-2.765q0-1.829.453-3.36t1.328-2.64q.875-1.125 2.14-1.75 1.266-.625 2.907-.625 1.656 0 2.953.625 1.312.625 2.219 1.75.921 1.109 1.39 2.64.485 1.531.485 3.36v2.765zm-3.704-2.797q0-1.156-.187-2.125-.188-.984-.594-1.687-.406-.703-1.047-1.094-.625-.39-1.515-.39-.89 0-1.485.39-.593.39-.968 1.094-.36.703-.516 1.687-.156.97-.156 2.125v2.797q0 1.14.156 2.125.156.969.516 1.688.375.718.968 1.125.594.39 1.5.39.875 0 1.5-.39.64-.407 1.032-1.11.406-.718.593-1.687.203-.985.203-2.14v-2.798zm19.31 3.985q0 1.562-.36 2.89-.344 1.313-1.031 2.266-.688.937-1.72 1.469-1.015.531-2.39.531-1.234 0-2.14-.453-.907-.469-1.547-1.313l-.172 1.5h-3.266v-20h3.625v7.188q.625-.719 1.469-1.125.86-.406 2-.406 1.39 0 2.422.53 1.031.532 1.719 1.485.687.953 1.03 2.281.36 1.313.36 2.875v.282zm-3.626-.282q0-.859-.14-1.625-.125-.765-.438-1.343-.312-.578-.86-.922-.546-.344-1.374-.344-.985 0-1.61.422-.609.422-.953 1.14v5.61q.344.734.953 1.156.625.406 1.641.406.813 0 1.344-.312.547-.328.86-.89.312-.563.437-1.329.14-.781.14-1.687v-.282zm9.09-6.906h7.204v14.406q0 1.407-.407 2.407-.39 1.015-1.172 1.672-.765.656-1.875.968-1.093.313-2.515.313-.594 0-1.188-.047-.593-.047-1.14-.172l.172-2.937q.156.03.437.062.281.031.578.047.297.031.563.031.265.016.39.016.532 0 .985-.125.468-.11.797-.39.328-.266.515-.72.203-.453.203-1.125v-11.453h-3.547v-2.953zm3.297-3.61q0-.421.14-.78.157-.36.423-.61.281-.25.656-.39.39-.141.86-.141.953 0 1.515.547.578.531.578 1.375t-.578 1.39q-.562.532-1.516.532-.468 0-.859-.14-.375-.142-.656-.392-.266-.265-.422-.609-.14-.36-.14-.781zm17.372 17.954q-1.625 0-2.954-.531-1.328-.547-2.28-1.453-.954-.922-1.47-2.157-.515-1.25-.515-2.672v-.515q0-1.625.5-2.953.515-1.328 1.422-2.297.922-.969 2.172-1.5t2.718-.531q1.516 0 2.703.5 1.204.5 2.032 1.421.828.907 1.25 2.188.437 1.281.437 2.828v1.531h-9.562q.11.72.422 1.313.328.594.812 1.031.5.422 1.14.656.641.235 1.391.235.532 0 1.063-.094.531-.11 1-.313.484-.203.906-.5.422-.312.734-.703l1.797 1.953q-.328.47-.875.938-.53.469-1.28.828-.735.344-1.642.563-.89.234-1.921.234zm-.438-11.688q-.61 0-1.125.22-.5.218-.89.624-.376.406-.641.969-.25.547-.39 1.234h5.937v-.28q-.016-.579-.219-1.079-.188-.516-.563-.875-.359-.375-.89-.594-.531-.219-1.219-.219zm15.825 8.797q.546 0 1.015-.156.485-.156.844-.437.375-.297.578-.704.203-.406.172-.89h3.406q.031 1.094-.453 2.031-.469.938-1.297 1.61-.812.671-1.906 1.062-1.078.375-2.281.375-1.64 0-2.89-.547-1.235-.547-2.063-1.516-.813-.968-1.25-2.25-.422-1.296-.422-2.78v-.391q0-1.485.422-2.782.421-1.297 1.25-2.25.828-.968 2.062-1.53 1.234-.563 2.86-.563 1.296 0 2.406.39t1.906 1.11q.797.703 1.234 1.718.453 1 .422 2.25h-3.406q.031-.515-.156-.984-.188-.469-.547-.813-.344-.343-.844-.546-.484-.204-1.062-.204-.86 0-1.422.36-.563.344-.89.937-.329.578-.47 1.344-.14.75-.14 1.563v.39q0 .813.125 1.578.14.766.468 1.344.329.578.891.938.578.343 1.438.343zm16.402-14.906v3.453h5.266v2.656h-5.266v6.063q0 .766.172 1.281.188.516.5.828.328.297.797.438.469.125 1.031.125.422 0 .86-.031.437-.047.828-.11.406-.062.75-.125.343-.062.578-.125l.36 2.485q-.376.218-.891.39-.5.156-1.079.25-.562.11-1.187.156-.625.063-1.219.063-1.156 0-2.11-.297-.937-.312-1.609-.953-.671-.64-1.03-1.64-.36-1-.36-2.391v-6.407h-3.219v-2.656h3.219v-3.453h3.61zm-72.22 36.836q0-1.11.25-2.032.266-.937.75-1.593.5-.672 1.219-1.032.734-.359 1.672-.359.828 0 1.453.313.625.296 1.078.859l.156-1h2.235v13.656h-2.531v-4.64q-.454.5-1.047.765-.594.266-1.36.266-.937 0-1.656-.375-.719-.39-1.219-1.047-.484-.672-.75-1.594-.25-.922-.25-1.984v-.203zm2.532.203q0 .61.109 1.14.11.532.344.938.234.406.609.656.39.235.922.235.672 0 1.094-.266.422-.266.672-.734V425.2q-.25-.453-.672-.703-.422-.25-1.078-.25-.532 0-.922.234-.375.22-.61.625-.234.407-.36.953-.108.532-.108 1.157v.203zm15.195 3.422q-.5.75-1.203 1.172-.703.406-1.547.406-.766 0-1.406-.235-.625-.234-1.078-.75-.453-.515-.719-1.312-.25-.797-.25-1.922v-5.828h2.547v5.844q0 .61.078 1.015.094.407.281.657.188.25.5.359.313.11.75.11.766 0 1.235-.282.468-.281.718-.781v-6.922h2.547v9.86h-2.297l-.156-1.391zm9.43-5.39l2.172-3.079h2.719l-3.313 4.844 3.422 5.015h-2.719l-2.281-3.218-2.25 3.218h-2.734l3.422-5.015-3.297-4.844h2.718l2.141 3.078z"/><path fill="#bdbdbd" d="M267.13 443.616h163.496v59.716H267.13z" fill-rule="evenodd"/><path stroke="#666" stroke-linejoin="round" stroke-linecap="butt" d="M267.13 443.616h163.496v59.716H267.13z"/><path fill="#000" d="M318.148 482.014v-11h-3.5v-1.688h3.5v-.89q0-1.219.343-2.125.36-.922 1.016-1.547.656-.625 1.563-.938.921-.312 2.046-.312.766 0 1.5.125.735.125 1.5.328l-.25 1.797q-.484-.172-1.125-.297-.64-.125-1.359-.125-1.531.016-2.297.781-.765.766-.765 2.313v.89h4.89v1.688h-4.89v11h-2.172zm19.508 0q-.125-.25-.204-.61-.078-.374-.109-.78-.328.327-.734.624-.407.297-.891.516-.484.219-1.047.344-.547.14-1.172.14-1 0-1.812-.297-.813-.296-1.39-.78-.563-.5-.876-1.188-.312-.688-.312-1.485 0-1.047.406-1.828.422-.781 1.187-1.297.766-.53 1.829-.78 1.078-.267 2.406-.267h2.36v-1q0-.578-.22-1.03-.203-.454-.593-.766-.375-.329-.938-.5-.547-.188-1.25-.188-.64 0-1.156.172-.5.156-.86.437-.343.266-.546.641-.188.36-.188.75h-2.172q0-.687.344-1.344.36-.672 1-1.203.656-.547 1.578-.875.938-.328 2.125-.328 1.078 0 2 .266.922.265 1.594.797.687.53 1.062 1.328.391.797.391 1.875v5.89q0 .625.11 1.344.124.703.343 1.234v.188h-2.265zm-3.829-1.656q.625 0 1.172-.157.563-.171 1-.437.453-.266.782-.61.328-.359.515-.734v-2.562h-2.015q-1.891 0-2.954.562-1.046.563-1.046 1.766 0 .469.156.875.156.39.469.687.328.282.796.453.485.157 1.125.157zm10.23-16.344h6.485v16.125h4.14v1.875h-10.624v-1.875h4.312v-14.234h-4.312v-1.891zm22.497 14.64q0-.39-.156-.703-.157-.312-.516-.562-.36-.266-.969-.484-.593-.22-1.484-.391-1.078-.219-1.984-.531-.891-.328-1.532-.766-.64-.437-1-1.031-.343-.594-.343-1.375 0-.766.359-1.438.375-.687 1.031-1.187.656-.5 1.563-.797.906-.297 2-.297 1.172 0 2.11.313.937.296 1.593.843.656.532 1 1.266.36.719.36 1.547h-2.157q0-.406-.219-.797-.203-.406-.578-.703-.375-.313-.922-.5-.531-.188-1.187-.188-.703 0-1.22.157-.515.156-.874.421-.344.25-.516.594-.172.328-.172.703 0 .375.141.672.14.281.484.516.344.234.922.422.578.187 1.47.36 1.171.25 2.093.577.937.313 1.562.766.64.453.97 1.062.343.594.343 1.375 0 .844-.39 1.532-.376.687-1.063 1.187-.672.484-1.625.766-.953.265-2.078.265-1.282 0-2.297-.343-1-.344-1.703-.907-.688-.578-1.063-1.328-.375-.75-.375-1.562h2.172q.047.672.36 1.125.312.453.765.734.469.281 1.031.406.563.11 1.11.11 1.375 0 2.171-.5.797-.5.813-1.328zm11.574 3.594q-1.328 0-2.453-.453-1.125-.469-1.922-1.281-.797-.828-1.25-1.953-.437-1.125-.437-2.438v-.5q0-1.53.484-2.734.5-1.219 1.313-2.063.828-.843 1.859-1.28 1.031-.454 2.125-.454 1.375 0 2.39.484 1.032.47 1.704 1.313.687.828 1.015 1.969.344 1.14.344 2.468v.97h-9.062q.03.859.328 1.624.312.766.828 1.344.515.562 1.234.89.735.329 1.625.329 1.156 0 2.047-.469.906-.469 1.516-1.25l1.312 1.031q-.312.485-.797.922-.468.438-1.093.781-.61.344-1.407.547-.781.203-1.703.203zm-.281-11.375q-.656 0-1.25.25-.578.235-1.047.703-.469.454-.797 1.141-.312.672-.437 1.547h6.812v-.172q-.031-.625-.234-1.25t-.61-1.11q-.39-.5-1-.796-.609-.313-1.437-.313z"/><path d="M348.997 375.186c0-19.672 68.41-29.51 136.82-39.344 68.409-9.834 136.818-19.666 136.818-39.333"/><path stroke="#595959" stroke-width="4" stroke-linejoin="round" stroke-linecap="butt" d="M348.997 375.186c0-19.672 68.41-29.51 136.82-39.344 34.204-4.917 68.409-9.834 94.062-15.98 6.414-1.536 12.293-3.149 17.503-4.858a134.95 134.95 0 0 0 3.781-1.3 113.81 113.81 0 0 0 2.664-1l.808-.32"/><path stroke="#595959" stroke-width="4" stroke-linecap="butt" d="M609.005 317.339l9.244-16.962-17.984 7.051z"/><path d="M431.223 472.514c56.917 2.697 105.847 49.954 162.795 51.909 39.532 1.356 81.5 8.315 118.539-5.505 15.523-5.793 24.644-22.19 35.563-34.607 16.217-18.442 34.096-37.313 41.883-60.563"/><path stroke="#595959" stroke-width="4" stroke-linejoin="round" stroke-linecap="butt" d="M431.223 472.514c56.917 2.697 105.847 49.954 162.795 51.909 39.532 1.356 81.5 8.315 118.539-5.505 15.523-5.793 24.644-22.19 35.563-34.607 8.109-9.221 16.633-18.55 24.103-28.479a165.124 165.124 0 0 0 5.382-7.567 139.556 139.556 0 0 0 1.888-2.905l.017-.027"/><path fill="#595959" stroke="#595959" stroke-width="4" stroke-linecap="butt" d="M785.452 448.221l1.994-19.214-13.878 13.437z" fill-rule="evenodd"/><path d="M622.761 168.353c0-10.138 6.732-15.205 13.465-20.276 6.732-5.071 13.464-10.146 13.464-20.29"/><path stroke="#595959" stroke-width="4" stroke-linejoin="round" stroke-linecap="butt" d="M622.761 168.353c0-10.138 6.732-15.205 13.465-20.276l.298-.225"/><path stroke="#595959" stroke-width="4" stroke-linecap="butt" d="M642.048 151.477l4.434-18.802L631 144.227z"/><path d="M580.735 6.143h238.55v40.535h-238.55z"/><path fill="#595959" d="M681.197 23.204l.157 1.375q.53-.75 1.28-1.141.767-.406 1.688-.406.735 0 1.36.219.625.218 1.062.703.453.468.703 1.218.25.75.25 1.829v6.062h-2.53v-6.031q0-.578-.141-.953-.125-.391-.375-.61-.235-.218-.579-.297-.343-.093-.78-.093-.657 0-1.11.265-.453.266-.735.719v7h-2.546v-9.86h2.296zm15.18 8.468q-.5.75-1.203 1.172-.703.407-1.547.407-.765 0-1.406-.235-.625-.234-1.078-.75-.453-.515-.719-1.312-.25-.797-.25-1.922v-5.828h2.547v5.843q0 .61.078 1.016.094.406.281.656.188.25.5.36.313.109.75.109.766 0 1.235-.281.469-.281.719-.781v-6.922h2.546v9.859h-2.296l-.157-1.39zm5.446-12.609h5.516v11.938h2.812v2.062h-8.328v-2.062h2.953v-9.86h-2.953v-2.078zm11.195 0h5.516v11.938h2.813v2.062h-8.329v-2.062h2.954v-9.86h-2.954v-2.078z"/><path d="M649.69 89.655c0-10.142 9.96-15.213 19.921-20.284 9.961-5.07 19.922-10.141 19.922-20.283"/><path stroke="#595959" stroke-width="4" stroke-linejoin="round" stroke-linecap="butt" d="M649.69 89.655c0-10.142 9.96-15.213 19.921-20.284 1.246-.633 2.49-1.267 3.716-1.911l.471-.25"/><path stroke="#595959" stroke-width="4" stroke-linecap="butt" d="M678.787 71.542l6.912-18.039-16.89 9.376z"/><path fill="#34a853" d="M555.21 93.995a6.761 6.761 0 0 1 6.761-6.761h175.454a6.761 6.761 0 0 1 6.761 6.76v27.045a6.761 6.761 0 0 1-6.76 6.762H561.97a6.761 6.761 0 0 1-6.761-6.762z" fill-rule="evenodd"/><path stroke="#666" stroke-linejoin="round" stroke-linecap="butt" d="M555.21 93.995a6.761 6.761 0 0 1 6.761-6.761h175.454a6.761 6.761 0 0 1 6.761 6.76v27.045a6.761 6.761 0 0 1-6.76 6.762H561.97a6.761 6.761 0 0 1-6.761-6.762z"/><path fill="#fff" d="M581.854 108.518q0 1.093-.296 2.015-.282.922-.829 1.594-.546.656-1.343 1.031-.782.375-1.766.375t-1.75-.375q-.766-.375-1.297-1.03-.515-.673-.797-1.595-.265-.922-.265-2.015v-1.657q0-1.093.265-2.015.282-.922.797-1.578.531-.672 1.297-1.047.766-.375 1.75-.375t1.766.375q.797.375 1.343 1.047.547.656.829 1.578.296.922.296 2.015v1.657zm-2.234-1.672q0-.688-.11-1.266-.109-.594-.359-1.015-.234-.422-.625-.657-.375-.25-.906-.25t-.89.25q-.36.235-.579.657-.218.421-.312 1.015-.094.578-.094 1.266v1.672q0 .687.094 1.28.094.58.312 1.017.22.421.578.671.36.235.891.235t.906-.235q.39-.25.625-.671.235-.422.344-1 .125-.594.125-1.297v-1.672zm11.586 2.39q0 .938-.203 1.735-.203.781-.625 1.36-.406.562-1.031.89-.61.312-1.438.312-.734 0-1.281-.28-.547-.282-.938-.782l-.093.906h-1.954v-12h2.172v4.313q.375-.438.875-.672.516-.25 1.203-.25.829 0 1.454.328.625.312 1.03.89.423.563.626 1.36.203.781.203 1.719v.171zm-2.172-.171q0-.516-.078-.97-.078-.468-.266-.812-.187-.343-.515-.547-.328-.203-.828-.203-.594 0-.97.25-.359.25-.562.688v3.36q.203.437.563.687.375.25.984.25.5 0 .813-.188.328-.187.515-.531.188-.344.266-.797.078-.469.078-1.016v-.171zm5.461-4.141h4.328v8.656q0 .844-.25 1.438-.234.61-.703 1-.453.406-1.125.593-.656.188-1.516.188-.343 0-.703-.031-.36-.032-.687-.11l.11-1.765q.093.03.25.047l.343.03q.187.016.344.016h.234q.313 0 .594-.078.281-.062.469-.234.203-.156.312-.422.125-.266.125-.672v-6.89h-2.125v-1.766zm1.984-2.172q0-.25.079-.453.093-.219.25-.375.171-.156.39-.234.235-.094.516-.094.578 0 .922.328.343.328.343.828 0 .516-.343.844-.344.312-.922.312-.281 0-.516-.078-.219-.094-.39-.234-.157-.156-.25-.375-.079-.219-.079-.469zm10.414 10.781q-.968 0-1.765-.312-.797-.328-1.375-.875-.563-.563-.875-1.297-.313-.75-.313-1.61v-.312q0-.969.297-1.766.313-.796.86-1.375.546-.578 1.296-.89.75-.328 1.641-.328.906 0 1.625.297.719.296 1.203.843.5.547.75 1.328.266.766.266 1.688v.922h-5.735q.063.437.25.797.204.343.5.61.297.25.672.39.391.14.844.14.313 0 .625-.062.328-.063.61-.172.296-.125.546-.297.25-.187.438-.437l1.078 1.171q-.203.297-.531.579-.313.265-.766.484-.437.219-.984.344-.532.14-1.157.14zm-.25-7.015q-.375 0-.687.14-.297.125-.531.375-.219.235-.375.578-.157.329-.235.735h3.563v-.172q-.016-.344-.14-.64-.11-.313-.329-.532-.219-.219-.547-.344-.312-.14-.719-.14zm9.493 5.28q.328 0 .61-.093.296-.094.515-.265.218-.172.328-.407.125-.25.11-.547h2.046q.016.657-.266 1.22-.28.562-.78.968-.485.406-1.141.64-.657.235-1.375.235-.985 0-1.735-.328-.734-.344-1.234-.922-.5-.578-.75-1.36-.25-.78-.25-1.671v-.235q0-.89.25-1.656.25-.781.75-1.36.5-.577 1.234-.906.735-.343 1.719-.343.781 0 1.437.234.672.234 1.141.656.484.422.75 1.032.266.609.25 1.359h-2.047q.016-.313-.094-.594-.109-.281-.328-.484-.203-.203-.5-.328t-.64-.125q-.516 0-.86.218-.328.204-.53.563-.204.344-.282.797-.078.453-.078.937v.235q0 .5.078.953.078.453.265.812.204.344.547.563.344.203.86.203zm9.851-8.952v2.078h3.156v1.594h-3.156v3.64q0 .453.094.766.11.312.297.5.203.172.484.25.281.078.625.078.25 0 .5-.016.266-.03.5-.062.25-.031.453-.063.203-.046.36-.093l.203 1.5q-.219.125-.531.234-.297.094-.641.156-.344.063-.719.094-.375.047-.734.047-.688 0-1.266-.188-.562-.187-.969-.578-.39-.39-.609-.984-.219-.594-.219-1.438v-3.843h-1.937v-1.594h1.937v-2.078h2.172zm7.805 9.265q0-.296.094-.562.11-.266.297-.453.203-.188.484-.297.281-.125.64-.125.344 0 .626.125.28.11.468.297.203.187.297.453.11.266.11.562 0 .297-.11.563-.094.25-.297.453-.187.188-.468.297-.282.11-.625.11-.36 0-.641-.11t-.484-.297q-.188-.203-.297-.453-.094-.266-.094-.563zm15.008-2.89q0 .922-.219 1.719-.219.78-.64 1.359-.407.578-1.032.906-.61.328-1.406.328-.688 0-1.203-.234-.516-.234-.89-.656v3.984h-2.173v-11.703h2l.078.828q.391-.469.922-.719.531-.265 1.25-.265.797 0 1.406.312.625.297 1.047.875.422.563.641 1.36.219.78.219 1.75v.156zm-2.172-.156q0-.532-.11-1-.093-.47-.296-.797-.204-.344-.532-.532-.328-.203-.78-.203-.579 0-.938.22-.36.218-.563.624v3.531q.203.407.563.64.359.235.953.235.453 0 .781-.203t.531-.547q.203-.36.297-.812.094-.469.094-1v-.156zm10.242-4.297q.5 0 .906.062.422.063.688.14l-.328 2.173q-.422-.11-.875-.157-.453-.046-.86-.046-.906 0-1.468.359-.547.344-.813 1v5.078h-2.172v-8.453h2.016l.11 1.375q.515-.719 1.234-1.125.718-.406 1.562-.406zm3.242 4.297q0-.922.266-1.704.265-.78.765-1.359.516-.578 1.25-.906.75-.328 1.704-.328.953 0 1.687.328.75.328 1.25.906.516.578.781 1.36.266.78.266 1.703v.171q0 .922-.266 1.72-.265.78-.78 1.359-.5.578-1.25.906-.735.328-1.673.328-.953 0-1.703-.328-.75-.328-1.266-.906-.5-.579-.765-1.36-.266-.797-.266-1.719v-.171zm2.172.171q0 .532.094 1 .11.454.328.813.219.344.562.547.344.203.844.203.469 0 .813-.203.343-.203.562-.547.219-.36.313-.813.11-.468.11-1v-.171q0-.516-.11-.97-.094-.468-.313-.812-.219-.36-.562-.562-.344-.203-.828-.203-.485 0-.829.203-.343.203-.562.562-.219.344-.328.813-.094.453-.094.969v.171zm11.711-6.39v2.078h3.156v1.594h-3.156v3.64q0 .453.094.766.11.312.297.5.203.172.484.25.281.078.625.078.25 0 .5-.016.266-.03.5-.062.25-.031.453-.063.203-.046.36-.093l.203 1.5q-.22.125-.532.234-.296.094-.64.156-.344.063-.719.094-.375.047-.734.047-.688 0-1.266-.188-.562-.187-.969-.578-.39-.39-.61-.984-.218-.594-.218-1.438v-3.843h-1.937v-1.594h1.937v-2.078h2.172zm5.32 6.219q0-.922.266-1.704.266-.78.766-1.359.515-.578 1.25-.906.75-.328 1.703-.328.953 0 1.687.328.75.328 1.25.906.516.578.781 1.36.266.78.266 1.703v.171q0 .922-.266 1.72-.265.78-.78 1.359-.5.578-1.25.906-.735.328-1.673.328-.953 0-1.703-.328-.75-.328-1.265-.906-.5-.579-.766-1.36-.266-.797-.266-1.719v-.171zm2.172.171q0 .532.094 1 .11.454.328.813.219.344.563.547.343.203.843.203.47 0 .813-.203.344-.203.562-.547.22-.36.313-.813.11-.468.11-1v-.171q0-.516-.11-.97-.094-.468-.313-.812-.218-.36-.562-.562-.344-.203-.828-.203-.485 0-.828.203-.344.203-.563.562-.219.344-.328.813-.094.453-.094.969v.171zm11.711-6.39v2.078h3.156v1.594h-3.156v3.64q0 .453.094.766.11.312.297.5.203.172.484.25.281.078.625.078.25 0 .5-.016.266-.03.5-.062.25-.031.453-.063.203-.046.36-.093l.203 1.5q-.219.125-.531.234-.297.094-.641.156-.344.063-.719.094-.375.047-.734.047-.688 0-1.266-.188-.562-.187-.969-.578-.39-.39-.609-.984-.219-.594-.219-1.438v-3.843h-1.937v-1.594h1.937v-2.078h2.172zm9.211 6.984l.25.906 2.25-5.812h2.406l-4.297 9.719q-.14.328-.359.703-.219.375-.562.687-.329.328-.813.547-.484.219-1.14.219-.157 0-.297-.016l-.25-.03q-.125-.017-.25-.048-.11-.031-.25-.062l.265-1.657h.328q.22.016.344.016.25 0 .453-.156t.344-.344q.14-.187.219-.344.093-.156.125-.156l.515-.984-3.578-8.094h2.375l1.922 4.906zm13.602-.61q0 .923-.22 1.72-.218.78-.64 1.359-.406.578-1.03.906-.61.328-1.407.328-.688 0-1.203-.234-.516-.234-.89-.656v3.984h-2.173v-11.703h2l.078.828q.39-.469.922-.719.531-.265 1.25-.265.797 0 1.406.312.625.297 1.047.875.422.563.64 1.36.22.78.22 1.75v.156zm-2.172-.155q0-.532-.11-1-.093-.47-.296-.797-.204-.344-.532-.532-.328-.203-.78-.203-.58 0-.938.22-.36.218-.563.624v3.531q.203.407.563.64.359.235.953.235.453 0 .78-.203.33-.203.532-.547.203-.36.297-.812.094-.469.094-1v-.156zm8.273 4.468q-.969 0-1.765-.312-.797-.328-1.375-.875-.563-.563-.875-1.297-.313-.75-.313-1.61v-.312q0-.969.297-1.766.312-.796.86-1.375.546-.578 1.296-.89.75-.328 1.64-.328.907 0 1.626.297.719.296 1.203.843.5.547.75 1.328.266.766.266 1.688v.922h-5.735q.063.437.25.797.203.343.5.61.297.25.672.39.39.14.844.14.312 0 .625-.062.328-.063.61-.172.296-.125.546-.297.25-.187.438-.437l1.078 1.171q-.203.297-.532.579-.312.265-.765.484-.438.219-.985.344-.53.14-1.156.14zm-.25-7.015q-.375 0-.687.14-.297.125-.532.375-.218.235-.375.578-.156.329-.234.735h3.563v-.172q-.016-.344-.141-.64-.11-.313-.328-.532-.219-.219-.547-.344-.313-.14-.719-.14z"/></g></svg>