<svg viewBox="0 0 960 540" fill="none" stroke-linecap="square" stroke-miterlimit="10" xmlns="http://www.w3.org/2000/svg"><clipPath id="a"><path d="M0 0h960v540H0V0z"/></clipPath><g clip-path="url(#a)"><path fill="#fff" d="M0 0h960v540H0z" fill-rule="evenodd"/><path fill="#666" d="M25.705 517.365v-1.93h6.463c.066.34.104.746.104 1.184 0 1.447-.397 3.24-1.672 4.515-1.24 1.293-2.827 1.982-4.929 1.982-3.895 0-7.17-3.17-7.17-7.066 0-3.895 3.275-7.066 7.17-7.066 2.154 0 3.689.844 4.843 1.947l-1.361 1.362c-.827-.776-1.948-1.379-3.481-1.379-2.844 0-5.068 2.292-5.068 5.136 0 2.844 2.224 5.136 5.068 5.136 1.844 0 2.895-.741 3.567-1.413.548-.547.908-1.333 1.048-2.407h-4.582zM42.188 518.578c0 2.62-2.05 4.55-4.567 4.55-2.517 0-4.567-1.93-4.567-4.55 0-2.637 2.05-4.55 4.567-4.55 2.516 0 4.567 1.913 4.567 4.55zm-1.999 0c0-1.637-1.189-2.758-2.568-2.758-1.378 0-2.568 1.12-2.568 2.758 0 1.62 1.189 2.758 2.568 2.758s2.568-1.138 2.568-2.758zM52.152 518.578c0 2.62-2.05 4.55-4.567 4.55-2.517 0-4.568-1.93-4.568-4.55 0-2.637 2.051-4.55 4.568-4.55 2.516 0 4.567 1.913 4.567 4.55zm-2 0c0-1.637-1.188-2.758-2.567-2.758-1.379 0-2.568 1.12-2.568 2.758 0 1.62 1.189 2.758 2.568 2.758 1.378 0 2.568-1.138 2.568-2.758zM61.702 514.304v8.17c0 3.36-1.982 4.739-4.326 4.739-2.206 0-3.533-1.483-4.033-2.69l1.74-.723c.311.741 1.069 1.62 2.293 1.62 1.5 0 2.43-.93 2.43-2.67v-.656h-.068c-.449.552-1.31 1.034-2.396 1.034-2.275 0-4.36-1.982-4.36-4.533 0-2.568 2.085-4.567 4.36-4.567 1.086 0 1.947.483 2.396 1.018h.068v-.742h1.896zm-1.758 4.291c0-1.602-1.068-2.775-2.43-2.775-1.379 0-2.533 1.173-2.533 2.775 0 1.586 1.154 2.741 2.533 2.741 1.361 0 2.43-1.155 2.43-2.74zM65.088 509.522v13.33H63.09v-13.33h2zM72.81 520.077l1.55 1.034c-.5.742-1.706 2.017-3.791 2.017-2.586 0-4.516-2-4.516-4.55 0-2.707 1.948-4.551 4.292-4.551 2.361 0 3.516 1.879 3.895 2.896l.207.517-6.084 2.516c.465.914 1.19 1.379 2.206 1.379s1.723-.499 2.24-1.258zm-4.775-1.637l4.067-1.69c-.224-.568-.896-.965-1.689-.965-1.017.001-2.43.897-2.378 2.655z" fill-rule="evenodd"/><path fill="#fff" d="M2.37 495.703h96v44.284h-96z" fill-rule="evenodd"/><path fill="none" d="M239.475 383.218l514.96.063v45.795l-514.96-.063z"/><path fill="#666" d="M411.71 413.96q-1.671 0-3-.75-1.328-.766-2.062-2.078-.734-1.313-.734-2.954 0-1.625.734-2.937.734-1.328 2.063-2.078 1.328-.765 3-.765 1.671 0 2.984.766 1.328.75 2.062 2.078.735 1.313.735 2.938 0 1.64-.735 2.953-.734 1.312-2.062 2.078-1.313.75-2.984.75zm0-2.578q.813 0 1.5-.375.688-.39 1.094-1.109.407-.734.407-1.719 0-.968-.407-1.687-.406-.719-1.093-1.094-.688-.39-1.5-.39-.797 0-1.485.39-.687.375-1.11 1.093-.405.719-.405 1.688 0 .953.406 1.703.422.734 1.11 1.125.687.375 1.484.375zm7.836-8.64h2.625v1.313h.172q.438-.703 1.297-1.171.86-.485 1.969-.484 1.468 0 2.672.734 1.203.735 1.875 2.063.687 1.313.687 2.984 0 1.688-.687 3-.672 1.313-1.875 2.047-1.204.734-2.672.734-1.11 0-1.985-.469-.859-.469-1.28-1.172h-.173l.172 1.531v4.375h-2.797v-15.484zm5.563 8.642q.797 0 1.468-.406.688-.406 1.094-1.125.406-.734.406-1.672 0-.937-.406-1.656-.406-.735-1.094-1.125-.671-.391-1.468-.391-.766 0-1.453.39-.672.39-1.079 1.125-.406.719-.406 1.656 0 .938.406 1.672.407.719 1.079 1.125.687.407 1.453.407zm12.622 2.408q-.796 0-1.484-.235-.687-.25-1.11-.688-1-.953-1-2.718v-5.016h-1.906v-2.39h1.907v-3.079h2.797v3.079h2.656v2.39h-2.656v4.5q0 .828.359 1.188.297.344 1.016.344.406 0 .671-.11.266-.109.704-.359v2.734q-.922.36-1.954.36zm5.76-12.25q-.735 0-1.282-.531-.531-.531-.531-1.281 0-.735.531-1.25.547-.532 1.281-.531.75 0 1.266.531.531.516.531 1.25 0 .75-.531 1.281-.516.531-1.266.531zm-1.407 1.203h2.797v10.876h-2.797v-10.876zm5.715.001h2.625v1.36h.172q.515-.782 1.375-1.235.875-.468 1.937-.468 1.14 0 2 .547.86.547 1.219 1.375.531-.86 1.453-1.39.938-.531 2.188-.531 1.859 0 2.828 1.14.969 1.142.969 3.079v7h-2.766v-6.485q0-1.015-.484-1.562-.485-.563-1.329-.563-1.093 0-1.75.86-.64.859-.64 2.265v5.484h-2.797v-6.485q0-1.015-.5-1.562-.5-.563-1.422-.563-1.016 0-1.656.86-.625.859-.625 2.265v5.484h-2.797v-10.875zm21.008-1.2q-.734 0-1.281-.532-.531-.531-.531-1.281 0-.735.53-1.25.548-.531 1.282-.531.75 0 1.266.531.53.516.53 1.25 0 .75-.53 1.281-.516.532-1.266.531zm-1.406 1.202h2.797v10.876H467.4v-10.876zm5.168 8.595l5.671-6.234h-5.5v-2.36l8.938.001v2.281l-5.672 6.218 5.844.001v2.375l-9.281-.001v-2.281zm14.773 2.627q-1.718 0-2.828-1.016-1.11-1.016-1.11-2.657 0-1.094.563-1.922.578-.828 1.578-1.265 1.016-.453 2.235-.453 1.672 0 2.875.485v-.469q0-.89-.672-1.437-.672-.563-1.797-.563-.781 0-1.5.359-.703.344-1.172.922l-1.797-1.407q.797-1.03 1.985-1.578 1.203-.562 2.609-.562 2.484 0 3.781 1.157 1.313 1.14 1.313 3.36v6.703h-2.75v-1.11h-.172q-.484.64-1.297 1.047-.797.406-1.844.406zm.672-2.172q1.203 0 1.922-.781.719-.781.719-1.828-1.094-.516-2.281-.516-2.172 0-2.172 1.625 0 .656.468 1.078.47.422 1.344.422zm12.7 2.001q-.797 0-1.485-.234-.687-.25-1.11-.688-1-.953-1-2.719v-5.015h-1.905v-2.391h1.906v-3.078h2.797v3.078h2.656v2.391h-2.656v4.5q0 .828.36 1.188.296.343 1.015.343.406 0 .672-.109.265-.11.703-.36v2.735q-.922.36-1.953.36zm5.759-12.249q-.735 0-1.282-.531-.53-.532-.53-1.282 0-.734.53-1.25.547-.53 1.282-.53.75 0 1.265.53.531.516.531 1.25 0 .75-.53 1.282-.516.531-1.266.531zm-1.407 1.203h2.797v10.875h-2.797v-10.875zm10.918 11.22q-1.672 0-3-.75-1.328-.766-2.062-2.079-.735-1.312-.735-2.953 0-1.625.735-2.937.734-1.328 2.062-2.078 1.328-.766 3-.765 1.672 0 2.985.766 1.328.75 2.062 2.078.734 1.313.734 2.938 0 1.64-.734 2.953-.734 1.312-2.062 2.077-1.313.75-2.985.75zm0-2.578q.813 0 1.5-.375.688-.39 1.094-1.11.406-.733.406-1.718 0-.969-.406-1.687-.406-.72-1.094-1.094-.687-.391-1.5-.391-.797 0-1.484.39-.688.375-1.11 1.094-.406.719-.406 1.687 0 .954.406 1.704.422.734 1.11 1.125.687.375 1.484.375zm7.914-8.64h2.625v1.36h.172q.5-.781 1.39-1.234.891-.469 1.938-.469 1.969 0 2.984 1.204 1.032 1.187 1.032 3.25v6.766h-2.797v-6.423q0-1.047-.532-1.61-.53-.577-1.5-.577-1.125 0-1.828.874-.687.86-.687 2.188v5.547h-2.797v-10.876zm11.416 10.877zm6.35-15.265h2.797v15.266h-2.797v-15.266zm10.655 15.61q-1.625 0-2.937-.75-1.297-.75-2.032-2.063-.734-1.312-.734-2.953 0-1.547.719-2.875.734-1.343 2.015-2.124 1.282-.797 2.86-.797 1.687 0 2.89.735 1.219.719 1.844 1.984.64 1.25.64 2.782 0 .5-.062.937h-8.172q.219 1.312 1.032 1.984.828.656 1.968.656.969 0 1.657-.406.687-.422 1.093-1.125l2.266 1.11q-1.656 2.906-5.047 2.906zm2.578-7.109q-.047-.5-.375-1-.328-.515-.922-.843-.578-.329-1.375-.329-1 0-1.718.594-.704.578-1.032 1.578h5.422zm3.63-4.108h3.171l2.75 7.078h.172l2.797-7.077h3.125l-4.64 10.874h-2.782l-4.594-10.875zm18.64 11.22q-1.626 0-2.938-.75-1.297-.75-2.031-2.063-.735-1.312-.735-2.953 0-1.547.719-2.875.734-1.343 2.016-2.124 1.28-.797 2.859-.797 1.688 0 2.89.735 1.22.719 1.844 1.984.641 1.25.641 2.782 0 .5-.062.937h-8.172q.218 1.312 1.03 1.984.829.656 1.97.656.968 0 1.656-.406.687-.422 1.094-1.125l2.265 1.11q-1.656 2.906-5.047 2.906zm2.578-7.109q-.047-.5-.375-1-.329-.515-.922-.843-.578-.329-1.375-.329-1 0-1.72.594-.702.578-1.03 1.578h5.422zm4.832-8.499h2.797v15.266h-2.797v-15.266z"/><path fill="none" d="M184.423 392.12l.063-264.85h45.795l-.063 264.85z"/><path fill="#666" d="M203.939 334.467v-2.625h1.36v-.172q-.781-.515-1.234-1.375-.469-.875-.468-1.937 0-1.14.547-2 .547-.86 1.375-1.219-.859-.531-1.39-1.453-.531-.938-.53-2.188 0-1.859 1.14-2.828 1.141-.969 3.079-.969h7v2.766h-6.485q-1.016 0-1.563.484-.562.485-.563 1.329 0 1.093.86 1.75.859.64 2.265.64h5.484v2.797h-6.485q-1.015 0-1.562.5-.563.5-.563 1.422 0 1.016.859 1.656.859.625 2.265.625h5.485l-.001 2.797h-10.875zm11.225-24.54q0 1.626-.751 2.938-.75 1.297-2.063 2.031-1.313.735-2.953.735-1.547 0-2.875-.719-1.344-.734-2.125-2.016-.796-1.28-.796-2.859 0-1.687.735-2.89.72-1.22 1.985-1.844 1.25-.64 2.781-.64.5 0 .938.062l-.002 8.171q1.312-.218 1.984-1.03.657-.829.657-1.97 0-.968-.406-1.656-.421-.687-1.124-1.094l1.11-2.265q2.905 1.656 2.905 5.047zm-7.11-2.577q-.5.046-1 .375-.515.328-.843.921-.329.579-.329 1.375 0 1 .594 1.72.578.702 1.577 1.03l.002-5.421zm-4.107-4.833v-2.625h1.36v-.171q-.782-.516-1.234-1.375-.469-.875-.469-1.938 0-1.14.548-2 .547-.86 1.375-1.219-.86-.53-1.39-1.453-.531-.937-.531-2.187 0-1.86 1.141-2.828 1.141-.97 3.079-.97h7l-.001 2.766h-6.485q-1.015 0-1.562.485-.563.484-.563 1.328 0 1.094.859 1.75.86.64 2.265.64h5.485v2.797h-6.485q-1.016 0-1.563.5-.562.5-.563 1.422 0 1.016.86 1.657.859.625 2.265.625h5.484v2.796h-10.875zm11.224-24.633q0 1.672-.75 3-.767 1.328-2.08 2.063-1.312.734-2.952.734-1.625 0-2.938-.734-1.328-.735-2.077-2.063-.766-1.328-.765-3 0-1.672.766-2.984.75-1.328 2.079-2.063 1.312-.734 2.937-.734 1.64 0 2.953.734 1.313.735 2.078 2.063.75 1.312.75 2.984zm-2.578 0q0-.812-.375-1.5-.39-.687-1.109-1.093-.734-.407-1.718-.407-.97 0-1.688.407-.719.406-1.094 1.093-.39.688-.391 1.5 0 .797.39 1.485.375.687 1.094 1.11.718.405 1.687.405.953 0 1.703-.406.735-.422 1.126-1.11.375-.687.375-1.484zm-8.639-7.913v-2.625h1.454v-.172q-.765-.407-1.265-1.25-.516-.86-.515-1.89 0-.75.234-1.36h2.797q-.203.578-.297.968-.11.391-.11.844 0 1.235.906 1.969.89.719 2.25.719h5.422v2.797h-10.876zm10.363-12.498l-10.36 4.578v-3.172l6.766-2.812v-.172l-6.765-2.72.001-3.108 15.483 6.718v3l-5.125-2.312zm.517-7.578zm.346-10.288q0 1.97-1.22 3-1.218 1.016-3.39 1.016h-6.61l.001-2.797h6.266q1.11 0 1.75-.531.625-.531.625-1.406 0-1.188-.874-1.89-.875-.704-2.219-.704h-5.547v-2.797h10.876v2.625h-1.36v.172q.781.484 1.25 1.375.452.875.452 1.937zm.003-12.978q0 1.984-.813 3.218-.813 1.22-2.11 1.704l-1.093-2.5q.766-.329 1.172-.954.391-.64.391-1.468 0-.766-.25-1.282-.25-.515-.796-.515-.532 0-.797.469-.266.468-.485 1.406l-.282 1.281q-.312 1.328-1.156 2.203-.844.875-2.11.875-.937 0-1.672-.562-.75-.578-1.155-1.547-.407-.969-.406-2.14 0-3.376 2.376-4.5l1.03 2.39q-1.14.64-1.14 2.047 0 .718.265 1.156.265.422.672.422.765 0 1.14-1.453l.392-1.594q.406-1.625 1.234-2.438.829-.828 2.048-.828 1.046 0 1.859.61.797.61 1.25 1.672.437 1.046.436 2.328zm.003-9.959q0 1.72-1.017 2.829-1.015 1.109-2.656 1.109-1.094 0-1.922-.563-.828-.578-1.265-1.578-.453-1.015-.453-2.234 0-1.672.485-2.875h-.468q-.891 0-1.438.672-.563.672-.563 1.797 0 .781.359 1.5.344.703.922 1.172l-1.407 1.796q-1.031-.796-1.578-1.984-.562-1.203-.562-2.61.001-2.484 1.158-3.78 1.14-1.313 3.36-1.313h6.702v2.75h-1.11v.172q.64.484 1.047 1.297.406.797.406 1.843zm-2.172-.671q0-1.204-.78-1.922-.782-.719-1.829-.719-.516 1.094-.516 2.281 0 2.172 1.625 2.172.656 0 1.078-.469.422-.468.422-1.343zm6.784-12.981q0 2.062-.938 3.437-.922 1.36-2.22 1.828l-1.077-2.625q.813-.343 1.282-1.046.469-.704.469-1.594 0-1.328-.812-2.094-.797-.781-2.297-.781h-.86v.172q.735.5 1.126 1.343.374.829.374 1.891 0 1.344-.688 2.516-.703 1.156-1.97 1.86-1.265.702-2.953.702-1.687 0-2.952-.703-1.266-.703-1.953-1.86-.703-1.171-.703-2.515 0-1.062.391-1.89.376-.844 1.11-1.344v-.172h-1.156v-2.688h10.126q1.75 0 3.03.688 1.282.672 1.969 1.937.703 1.25.702 2.938zm-7.484-.047q0-1.172-.828-2-.828-.828-2.25-.828-1.468 0-2.265.828-.813.812-.813 2 0 1.203.812 2.031.812.828 2.265.828t2.266-.828q.813-.828.813-2.031zm2.878-13.356q0 1.625-.75 2.938-.75 1.297-2.064 2.031-1.312.734-2.953.734-1.547 0-2.875-.718-1.343-.735-2.124-2.016-.797-1.281-.796-2.86 0-1.687.735-2.89.719-1.219 1.984-1.844 1.25-.64 2.782-.64.5 0 .937.062l-.002 8.172q1.313-.219 1.985-1.031.656-.828.657-1.969 0-.969-.406-1.656-.422-.688-1.125-1.094l1.11-2.266q2.906 1.657 2.905 5.047zm-7.109-2.578q-.5.047-1 .375-.515.328-.844.922-.328.578-.328 1.375 0 1 .593 1.719.578.703 1.578 1.031l.001-5.422z"/><defs><linearGradient id="b" gradientUnits="userSpaceOnUse" gradientTransform="scale(-23.19973 23.19973)" x1="-21.421" y1="27.218" x2="-5.016" y2="10.814"><stop offset="0" stop-color="#ea4335"/><stop offset="1" stop-color="#980000"/></linearGradient></defs><path fill="url(#b)" d="M754.444 373.979V127.774L239.483 373.98z" fill-rule="evenodd"/><path fill="none" d="M229.482 386.074v-275.15"/><path stroke="#666" stroke-width="2" stroke-linejoin="round" stroke-linecap="butt" d="M229.482 386.074v-263.15"/><path fill="#666" stroke="#666" stroke-width="2" stroke-linecap="butt" d="M232.785 122.924l-3.303-9.076-3.303 9.076z" fill-rule="evenodd"/><path fill="none" d="M229.28 385.045h546.298"/><path stroke="#666" stroke-width="2" stroke-linejoin="round" stroke-linecap="butt" d="M229.28 385.045h534.298"/><path fill="#666" stroke="#666" stroke-width="2" stroke-linecap="butt" d="M763.578 388.348l9.077-3.303-9.077-3.304z" fill-rule="evenodd"/></g></svg>