<svg viewBox="0 0 960 540" fill="none" stroke-linecap="square" stroke-miterlimit="10" xmlns="http://www.w3.org/2000/svg"><clipPath id="a"><path d="M0 0h960v540H0V0z"/></clipPath><g clip-path="url(#a)"><path fill="#fff" d="M0 0h960v540H0z" fill-rule="evenodd"/><path fill="#666" d="M25.705 517.365v-1.93h6.463c.066.34.104.746.104 1.184 0 1.447-.397 3.24-1.672 4.515-1.24 1.293-2.827 1.982-4.929 1.982-3.895 0-7.17-3.17-7.17-7.066 0-3.895 3.275-7.066 7.17-7.066 2.154 0 3.689.844 4.843 1.947l-1.361 1.362c-.827-.776-1.948-1.379-3.481-1.379-2.844 0-5.068 2.292-5.068 5.136 0 2.844 2.224 5.136 5.068 5.136 1.844 0 2.895-.741 3.567-1.413.548-.547.908-1.333 1.048-2.407h-4.582zM42.188 518.578c0 2.62-2.05 4.55-4.567 4.55-2.517 0-4.567-1.93-4.567-4.55 0-2.637 2.05-4.55 4.567-4.55 2.516 0 4.567 1.913 4.567 4.55zm-1.999 0c0-1.637-1.189-2.758-2.568-2.758-1.378 0-2.568 1.12-2.568 2.758 0 1.62 1.189 2.758 2.568 2.758s2.568-1.138 2.568-2.758zM52.152 518.578c0 2.62-2.05 4.55-4.567 4.55-2.517 0-4.568-1.93-4.568-4.55 0-2.637 2.051-4.55 4.568-4.55 2.516 0 4.567 1.913 4.567 4.55zm-2 0c0-1.637-1.188-2.758-2.567-2.758-1.379 0-2.568 1.12-2.568 2.758 0 1.62 1.189 2.758 2.568 2.758 1.378 0 2.568-1.138 2.568-2.758zM61.702 514.304v8.17c0 3.36-1.982 4.739-4.326 4.739-2.206 0-3.533-1.483-4.033-2.69l1.74-.723c.311.741 1.069 1.62 2.293 1.62 1.5 0 2.43-.93 2.43-2.67v-.656h-.068c-.449.552-1.31 1.034-2.396 1.034-2.275 0-4.36-1.982-4.36-4.533 0-2.568 2.085-4.567 4.36-4.567 1.086 0 1.947.483 2.396 1.018h.068v-.742h1.896zm-1.758 4.291c0-1.602-1.068-2.775-2.43-2.775-1.379 0-2.533 1.173-2.533 2.775 0 1.586 1.154 2.741 2.533 2.741 1.361 0 2.43-1.155 2.43-2.74zM65.088 509.522v13.33H63.09v-13.33h2zM72.81 520.077l1.55 1.034c-.5.742-1.706 2.017-3.791 2.017-2.586 0-4.516-2-4.516-4.55 0-2.707 1.948-4.551 4.292-4.551 2.361 0 3.516 1.879 3.895 2.896l.207.517-6.084 2.516c.465.914 1.19 1.379 2.206 1.379s1.723-.499 2.24-1.258zm-4.775-1.637l4.067-1.69c-.224-.568-.896-.965-1.689-.965-1.017.001-2.43.897-2.378 2.655z" fill-rule="evenodd"/><path fill="#fff" d="M2.37 495.703h96v44.284h-96z" fill-rule="evenodd"/><path fill="none" d="M171.268 270.332l634.96-.662"/><path stroke="#666" stroke-width="4" stroke-linejoin="round" stroke-linecap="butt" d="M186.428 270.316l604.64-.63"/><path fill="#666" stroke="#666" stroke-width="4" stroke-linecap="butt" d="M186.435 276.896l-13.16.013-.014-13.16 13.16-.013.014 13.16zM791.062 263.106l13.16-.014.013 13.16-13.16.014-.013-13.16z"/><path fill="none" d="M171.268 270.33h394.708v46.048H171.268z"/><path fill="#666" d="M182.486 289.829h-1.703v-2.094h1.703v-.516q0-1.625.97-2.546.968-.922 2.546-.922.89 0 1.547.203v2.39q-.36-.156-.64-.234-.266-.078-.61-.078-.625 0-1 .36-.36.359-.36.968v.375h2.329v2.094h-2.328v7.422h-2.454v-7.422zm9.596 7.719q-1.515 0-2.484-.875-.969-.891-.969-2.329 0-.953.5-1.671.5-.735 1.375-1.125.89-.391 1.953-.391 1.469 0 2.516.422v-.406q0-.782-.594-1.266-.578-.484-1.578-.484-.672 0-1.297.312-.625.297-1.031.797l-1.563-1.234q.688-.891 1.735-1.375 1.047-.485 2.265-.485 2.188 0 3.328 1.016 1.141 1 1.141 2.937v5.86h-2.406v-.969h-.156q-.422.562-1.125.922-.704.344-1.61.344zm.578-1.907q1.063 0 1.688-.672.625-.687.625-1.593-.953-.453-2-.453-1.906 0-1.906 1.421 0 .579.406.938.422.36 1.187.36zm10.591 1.907q-1.734 0-2.812-.704-1.063-.718-1.5-1.843l2.187-.953q.297.671.844 1.015.547.344 1.281.344.672 0 1.11-.219.453-.219.453-.703 0-.469-.406-.687-.407-.235-1.235-.422l-1.11-.25q-1.155-.282-1.921-1.016t-.766-1.844q0-.812.485-1.468.5-.657 1.344-1 .859-.36 1.875-.36 2.953 0 3.937 2.063l-2.078.922q-.563-1-1.797-1-.64 0-1.016.234-.359.219-.359.578 0 .672 1.266 1.016l1.39.328q1.422.36 2.14 1.094.72.718.72 1.78 0 .907-.532 1.61-.53.703-1.453 1.094-.922.39-2.047.39zm9.937-.141q-.703 0-1.296-.219-.594-.219-.97-.594-.874-.843-.874-2.39v-4.375h-1.672v-2.094h1.672v-2.687h2.437v2.687h2.328v2.094h-2.328v3.937q0 .72.313 1.047.265.297.906.297.344 0 .578-.094.235-.093.61-.328v2.39q-.797.329-1.704.329zm8.127.14q-1.422 0-2.563-.64-1.14-.656-1.78-1.797-.642-1.156-.642-2.594 0-1.359.625-2.53.641-1.173 1.75-1.86 1.125-.688 2.516-.688 1.469 0 2.531.64 1.063.626 1.61 1.735.562 1.094.562 2.438 0 .422-.062.828h-7.14q.187 1.125.905 1.719.72.593 1.72.593.843 0 1.452-.359.61-.375.953-.984l1.985.968q-1.453 2.532-4.422 2.532zm2.25-6.203q-.031-.453-.328-.89-.282-.438-.797-.719-.516-.297-1.203-.297-.875 0-1.5.516-.625.5-.907 1.39h4.735zm4.232-3.609h2.297v1.266h.156q.36-.672 1.094-1.11.75-.437 1.64-.437.657 0 1.204.203v2.453q-.5-.187-.86-.266-.343-.093-.734-.093-1.078 0-1.719.781-.625.781-.625 1.984v4.735h-2.453v-9.516zm6.78 9.516zm9.693.156q-.703 0-1.297-.219t-.969-.594q-.875-.843-.875-2.39v-4.375h-1.672v-2.094h1.672v-2.687h2.438v2.687h2.328v2.094h-2.328v3.937q0 .72.312 1.047.266.297.906.297.344 0 .578-.094.235-.093.61-.328v2.39q-.797.329-1.703.329zm8.22.14q-1.484 0-2.64-.656-1.157-.672-1.798-1.812-.64-1.156-.64-2.578t.64-2.578q.641-1.157 1.797-1.813 1.157-.672 2.64-.672 1.454 0 2.61.672 1.157.656 1.797 1.813.64 1.156.64 2.578t-.64 2.578q-.64 1.14-1.797 1.812-1.156.657-2.61.657zm0-2.25q.703 0 1.297-.328.61-.343.953-.984.36-.64.36-1.484t-.36-1.469q-.344-.64-.953-.969-.594-.344-1.297-.344-.719 0-1.313.344-.593.328-.968.969-.36.625-.36 1.469 0 .828.36 1.484.375.64.968.984.594.329 1.313.329zm5.724 1.954zm9.943 4.328q-1.812 0-3.015-.813-1.188-.812-1.594-1.953l2.297-.922q.297.703.906 1.11.625.422 1.406.422 1.156 0 1.828-.72.688-.702.688-2.015v-.75h-.14q-.454.64-1.188.985-.719.328-1.657.328-1.171 0-2.187-.61-1.016-.609-1.64-1.718-.61-1.11-.61-2.579 0-1.468.61-2.578.624-1.109 1.64-1.718 1.016-.61 2.187-.61.938 0 1.657.344.734.328 1.187.969h.14v-1.016h2.36v8.86q0 1.53-.61 2.64-.593 1.125-1.702 1.734-1.094.61-2.563.61zm.031-6.547q1.032 0 1.75-.719.735-.719.735-1.969 0-1.28-.719-1.984-.719-.703-1.766-.703-1.03 0-1.765.719-.735.703-.735 1.968 0 1.266.735 1.985.734.703 1.765.703zm11.689 2.516q-1.422 0-2.563-.641-1.14-.656-1.78-1.797-.642-1.156-.642-2.594 0-1.359.625-2.53.641-1.173 1.75-1.86 1.125-.688 2.516-.688 1.469 0 2.531.64 1.063.626 1.61 1.735.562 1.094.562 2.438 0 .422-.062.828h-7.14q.187 1.125.905 1.719.72.593 1.72.593.843 0 1.452-.359.61-.375.953-.984l1.985.968q-1.453 2.532-4.422 2.532zm2.25-6.204q-.031-.453-.328-.89-.282-.438-.797-.719-.516-.297-1.203-.297-.875 0-1.5.516-.625.5-.907 1.39h4.735zm4.232-3.609h2.297v1.188h.156q.422-.688 1.204-1.079.796-.406 1.703-.406 1.718 0 2.61 1.047.905 1.047.905 2.86v5.906h-2.453v-5.61q0-.922-.469-1.422-.468-.5-1.296-.5-1 0-1.61.766-.594.766-.594 1.922v4.844h-2.453v-9.516zm15.644 9.813q-1.422 0-2.562-.641-1.14-.656-1.782-1.797-.64-1.156-.64-2.594 0-1.359.625-2.53.64-1.173 1.75-1.86 1.125-.688 2.515-.688 1.47 0 2.532.64 1.062.626 1.61 1.735.562 1.094.562 2.438 0 .422-.063.828h-7.14q.187 1.125.906 1.719.718.593 1.718.593.844 0 1.454-.359.609-.375.953-.984l1.984.968q-1.453 2.532-4.422 2.532zm2.25-6.204q-.031-.453-.328-.89-.281-.438-.797-.719-.515-.297-1.203-.297-.875 0-1.5.516-.625.5-.906 1.39h4.734zm4.233-3.609h2.297v1.266h.156q.36-.672 1.094-1.11.75-.437 1.64-.437.656 0 1.203.203v2.453q-.5-.187-.86-.266-.343-.093-.733-.093-1.079 0-1.72.781-.624.781-.624 1.984v4.735h-2.453v-9.516zm10.888 9.813q-1.516 0-2.485-.875-.968-.891-.968-2.329 0-.953.5-1.671.5-.735 1.375-1.125.89-.391 1.953-.391 1.469 0 2.515.422v-.406q0-.782-.593-1.266-.578-.484-1.578-.484-.672 0-1.297.312-.625.297-1.032.797l-1.562-1.234q.687-.891 1.734-1.375 1.047-.485 2.266-.485 2.187 0 3.328 1.016 1.14 1 1.14 2.937v5.86h-2.406v-.969h-.156q-.422.562-1.125.922-.703.344-1.61.344zm.578-1.907q1.062 0 1.687-.672.625-.687.625-1.593-.953-.453-2-.453-1.906 0-1.906 1.421 0 .579.406.938.422.36 1.188.36zm11.107 1.766q-.703 0-1.297-.219t-.969-.594q-.875-.843-.875-2.39v-4.375h-1.672v-2.094h1.672v-2.687h2.438v2.687h2.328v2.094h-2.328v3.937q0 .72.312 1.047.266.297.906.297.344 0 .578-.094.235-.093.61-.328v2.39q-.797.329-1.703.329zm8.126.14q-1.422 0-2.562-.64-1.141-.656-1.782-1.797-.64-1.156-.64-2.594 0-1.359.625-2.53.64-1.173 1.75-1.86 1.125-.688 2.515-.688 1.47 0 2.532.64 1.062.626 1.609 1.735.562 1.094.562 2.438 0 .422-.062.828h-7.14q.187 1.125.906 1.719.718.593 1.718.593.844 0 1.453-.359.61-.375.954-.984l1.984.968q-1.453 2.532-4.422 2.532zm2.25-6.203q-.031-.453-.328-.89-.281-.438-.797-.719-.516-.297-1.203-.297-.875 0-1.5.516-.625.5-.906 1.39h4.734zm3.045 5.907zm10.037.297q-1.437 0-2.578-.641-1.14-.64-1.78-1.797-.642-1.156-.642-2.61 0-1.468.641-2.609.64-1.14 1.781-1.797 1.141-.656 2.578-.656 1.579 0 2.72.688 1.14.672 1.64 1.922l-2.235.937q-.593-1.266-2.125-1.266-1.125 0-1.843.766-.719.766-.719 2.016 0 1.265.719 2.031.718.766 1.843.766 1.547 0 2.235-1.344l2.219.969q-.61 1.25-1.75 1.937-1.141.688-2.704.688zm10.769 0q-1.485 0-2.641-.657-1.156-.672-1.797-1.812-.64-1.156-.64-2.578t.64-2.578q.64-1.157 1.797-1.813 1.156-.672 2.64-.672 1.454 0 2.61.672 1.156.656 1.797 1.813.64 1.156.64 2.578t-.64 2.578q-.64 1.14-1.797 1.812-1.156.657-2.61.657zm0-2.25q.703 0 1.297-.329.609-.343.953-.984.359-.64.359-1.484t-.36-1.469q-.343-.64-.952-.969-.594-.344-1.297-.344-.72 0-1.313.344-.594.328-.969.969-.359.625-.359 1.469 0 .828.36 1.484.374.64.968.984.594.329 1.313.329zm11.004 2.25q-1.28 0-2.343-.641-1.047-.64-1.657-1.781-.609-1.157-.609-2.625 0-1.469.61-2.625.609-1.157 1.656-1.797 1.062-.64 2.343-.64.97 0 1.72.421.75.422 1.14 1.031h.14l-.14-1.343v-3.657h2.422v13.36h-2.282v-1.14h-.14q-.375.624-1.14 1.03-.75.407-1.72.407zm.407-2.25q.687 0 1.281-.36.61-.36.953-.984.36-.64.36-1.453 0-.828-.36-1.453-.344-.641-.953-.985-.594-.344-1.281-.344-.672 0-1.266.344t-.953.985q-.36.625-.36 1.453 0 .812.36 1.453.36.625.953.984.594.36 1.266.36zm11.74 2.25q-1.421 0-2.562-.641-1.14-.656-1.781-1.797-.64-1.156-.64-2.594 0-1.359.624-2.53.64-1.173 1.75-1.86 1.125-.688 2.516-.688 1.469 0 2.531.64 1.063.626 1.61 1.735.562 1.094.562 2.438 0 .422-.063.828h-7.14q.187 1.125.906 1.719.719.593 1.719.593.844 0 1.453-.359.61-.375.953-.984l1.984.968q-1.453 2.532-4.421 2.532zm2.25-6.204q-.03-.453-.328-.89-.28-.438-.796-.719-.516-.297-1.204-.297-.875 0-1.5.516-.625.5-.906 1.39h4.735z"/><path fill="none" d="M411.52 224.283h394.708v46.048H411.52z"/><path fill="#666" d="M595.366 243.782h-1.703v-2.094h1.703v-.516q0-1.625.97-2.547.968-.922 2.546-.922.89 0 1.547.204v2.39q-.36-.156-.64-.234-.266-.078-.61-.078-.625 0-1 .36-.36.358-.36.968v.375h2.329v2.094h-2.329v7.421h-2.453v-7.421zm9.596 7.718q-1.516 0-2.484-.875-.97-.89-.97-2.328 0-.953.5-1.672.5-.734 1.376-1.125.89-.39 1.953-.39 1.469 0 2.516.422v-.407q0-.78-.594-1.265-.578-.485-1.578-.485-.672 0-1.297.313-.625.297-1.031.797l-1.563-1.235q.688-.89 1.734-1.375 1.047-.484 2.266-.484 2.188 0 3.328 1.016 1.14 1 1.14 2.937v5.86h-2.405v-.97h-.157q-.422.563-1.125.923-.703.343-1.609.343zm.578-1.906q1.063 0 1.688-.672.625-.687.625-1.594-.954-.453-2-.453-1.907 0-1.907 1.422 0 .578.407.938.421.36 1.187.36zm10.591 1.906q-1.734 0-2.812-.703-1.063-.719-1.5-1.844l2.187-.953q.297.672.844 1.016.547.344 1.281.344.672 0 1.11-.219.453-.219.453-.703 0-.469-.406-.688-.407-.234-1.235-.422l-1.11-.25q-1.155-.28-1.921-1.015-.766-.735-.766-1.844 0-.812.485-1.469.5-.656 1.343-1 .86-.359 1.875-.359 2.954 0 3.938 2.062l-2.078.922q-.563-1-1.797-1-.64 0-1.016.235-.36.218-.36.578 0 .672 1.267 1.015l1.39.329q1.422.359 2.14 1.093.72.72.72 1.782 0 .906-.532 1.609-.531.703-1.453 1.094-.922.39-2.047.39zm9.937-.14q-.703 0-1.297-.219-.593-.219-.968-.594-.875-.844-.875-2.39v-4.375h-1.672v-2.094h1.672V239h2.437v2.688h2.328v2.094h-2.328v3.937q0 .719.313 1.047.265.297.906.297.344 0 .578-.094.234-.094.61-.328v2.39q-.797.329-1.704.329zm8.127.14q-1.422 0-2.563-.64-1.14-.657-1.781-1.797-.64-1.156-.64-2.594 0-1.36.624-2.531.641-1.172 1.75-1.86 1.125-.687 2.516-.687 1.469 0 2.531.64 1.063.626 1.61 1.735.562 1.094.562 2.437 0 .422-.062.829H631.6q.188 1.125.906 1.718.719.594 1.719.594.844 0 1.453-.36.61-.374.953-.984l1.985.97q-1.453 2.53-4.422 2.53zm2.25-6.203q-.031-.453-.328-.89-.282-.438-.797-.72-.516-.296-1.203-.296-.875 0-1.5.516-.625.5-.907 1.39h4.735zm4.232-3.61h2.297v1.266h.156q.36-.671 1.094-1.109.75-.437 1.64-.437.657 0 1.204.203v2.453q-.5-.188-.86-.266-.343-.094-.734-.094-1.078 0-1.719.782-.625.781-.625 1.984v4.734h-2.453v-9.515zm6.779 9.516zm9.694.157q-.704 0-1.297-.219-.594-.219-.969-.594-.875-.844-.875-2.39v-4.375h-1.672v-2.094h1.672V239h2.437v2.688h2.329v2.094h-2.329v3.937q0 .719.313 1.047.266.297.906.297.344 0 .578-.094.235-.094.61-.328v2.39q-.797.329-1.703.329zm8.22.14q-1.485 0-2.64-.656-1.157-.672-1.798-1.812-.64-1.157-.64-2.579 0-1.421.64-2.578.64-1.156 1.797-1.812 1.156-.672 2.64-.672 1.454 0 2.61.672 1.156.656 1.797 1.812.64 1.157.64 2.578 0 1.422-.64 2.579-.64 1.14-1.797 1.812-1.156.656-2.61.656zm0-2.25q.703 0 1.297-.328.61-.344.953-.984.36-.64.36-1.485 0-.843-.36-1.468-.344-.64-.953-.969-.594-.344-1.297-.344-.719 0-1.313.344-.593.328-.968.969-.36.625-.36 1.468 0 .829.36 1.485.375.64.968.984.594.328 1.313.328zm5.723 1.953zm10.022.297q-1.422 0-2.562-.64-1.14-.657-1.782-1.797-.64-1.156-.64-2.594 0-1.36.625-2.531.64-1.172 1.75-1.86 1.125-.687 2.515-.687 1.47 0 2.532.64 1.062.626 1.61 1.735.562 1.094.562 2.437 0 .422-.063.829h-7.14q.187 1.125.906 1.718.718.594 1.718.594.844 0 1.454-.36.609-.374.953-.984l1.984.97q-1.453 2.53-4.422 2.53zm2.25-6.203q-.031-.453-.328-.89-.281-.438-.797-.72-.515-.296-1.203-.296-.875 0-1.5.516-.625.5-.906 1.39h4.734zm6.592 1.078l-3.281-4.687h2.89l1.813 2.719h.11l1.687-2.72h2.984l-3.328 4.688 3.328 4.828h-2.89l-1.829-2.78h-.109l-1.781 2.78h-2.89l3.296-4.828zm12.11 5.125q-1.423 0-2.563-.64-1.14-.657-1.782-1.797-.64-1.156-.64-2.594 0-1.36.625-2.531.64-1.172 1.75-1.86 1.125-.687 2.515-.687 1.47 0 2.532.64 1.062.626 1.61 1.735.562 1.094.562 2.437 0 .422-.063.829h-7.14q.187 1.125.906 1.718.718.594 1.718.594.844 0 1.454-.36.609-.374.953-.984l1.984.97q-1.453 2.53-4.422 2.53zm2.25-6.203q-.032-.453-.329-.89-.281-.438-.797-.72-.515-.296-1.203-.296-.875 0-1.5.516-.625.5-.906 1.39h4.734zm8.716 6.203q-1.437 0-2.578-.64-1.14-.64-1.781-1.797-.64-1.156-.64-2.61 0-1.468.64-2.609.64-1.14 1.781-1.797 1.14-.656 2.578-.656 1.578 0 2.719.687 1.14.672 1.64 1.922l-2.234.938q-.594-1.266-2.125-1.266-1.125 0-1.844.766-.718.765-.718 2.015 0 1.266.718 2.032.72.765 1.844.765 1.547 0 2.234-1.343l2.22.968q-.61 1.25-1.75 1.938-1.141.687-2.704.687zm9.643 0q-1.719 0-2.61-1.062-.89-1.063-.89-2.969v-5.781h2.438v5.484q0 .969.468 1.531.47.547 1.235.547 1.047 0 1.656-.765.61-.766.61-1.953v-4.844h2.453v9.515h-2.297v-1.187h-.157q-.421.687-1.203 1.094-.765.39-1.703.39zm11.878-.14q-.703 0-1.296-.219-.594-.219-.97-.594-.874-.844-.874-2.39v-4.375h-1.672v-2.094h1.672V239h2.437v2.688h2.328v2.094h-2.328v3.937q0 .719.313 1.047.265.297.906.297.344 0 .578-.094.235-.094.61-.328v2.39q-.797.329-1.704.329zm8.127.14q-1.422 0-2.563-.64-1.14-.657-1.78-1.797-.642-1.156-.642-2.594 0-1.36.625-2.531.641-1.172 1.75-1.86 1.125-.687 2.516-.687 1.469 0 2.531.64 1.063.626 1.61 1.735.562 1.094.562 2.437 0 .422-.062.829h-7.14q.187 1.125.905 1.718.72.594 1.72.594.843 0 1.452-.36.61-.374.953-.984l1.985.97q-1.453 2.53-4.422 2.53zm2.25-6.203q-.031-.453-.328-.89-.282-.438-.797-.72-.516-.296-1.203-.296-.875 0-1.5.516-.625.5-.907 1.39h4.735zm3.045 5.906zm10.037.297q-1.437 0-2.578-.64-1.14-.64-1.781-1.797-.64-1.156-.64-2.61 0-1.468.64-2.609.64-1.14 1.781-1.797 1.14-.656 2.578-.656 1.578 0 2.72.687 1.14.672 1.64 1.922l-2.235.938q-.593-1.266-2.125-1.266-1.125 0-1.843.766-.72.765-.72 2.015 0 1.266.72 2.032.718.765 1.843.765 1.547 0 2.235-1.343l2.218.968q-.609 1.25-1.75 1.938-1.14.687-2.703.687zm10.768 0q-1.484 0-2.64-.656-1.156-.672-1.797-1.812-.64-1.157-.64-2.579 0-1.421.64-2.578.64-1.156 1.797-1.812 1.156-.672 2.64-.672 1.454 0 2.61.672 1.156.656 1.797 1.812.64 1.157.64 2.578 0 1.422-.64 2.579-.64 1.14-1.797 1.812-1.156.656-2.61.656zm0-2.25q.704 0 1.297-.328.61-.344.953-.984.36-.64.36-1.485 0-.843-.36-1.468-.343-.64-.953-.969-.593-.344-1.297-.344-.718 0-1.312.344-.594.328-.969.969-.36.625-.36 1.468 0 .829.36 1.485.375.64.969.984.594.328 1.312.328zm11.005 2.25q-1.28 0-2.343-.64-1.047-.64-1.657-1.782-.61-1.156-.61-2.625 0-1.468.61-2.625.61-1.156 1.657-1.796 1.062-.641 2.343-.641.97 0 1.72.422t1.14 1.031h.14l-.14-1.344v-3.656h2.422v13.36h-2.282v-1.141h-.14q-.375.625-1.14 1.031-.75.406-1.72.406zm.407-2.25q.687 0 1.28-.359.61-.36.954-.984.36-.641.36-1.454 0-.828-.36-1.453-.344-.64-.953-.984-.594-.344-1.281-.344-.672 0-1.266.344t-.953.984q-.36.625-.36 1.453 0 .813.36 1.454.36.625.953.984.594.36 1.266.36zm11.74 2.25q-1.421 0-2.562-.64-1.14-.657-1.781-1.797-.641-1.156-.641-2.594 0-1.36.625-2.531.64-1.172 1.75-1.86 1.125-.687 2.516-.687 1.468 0 2.53.64 1.063.626 1.61 1.735.563 1.094.563 2.437 0 .422-.063.829h-7.14q.187 1.125.906 1.718.719.594 1.719.594.843 0 1.453-.36.61-.374.953-.984l1.984.97q-1.453 2.53-4.422 2.53zm2.25-6.203q-.03-.453-.328-.89-.281-.438-.797-.72-.515-.296-1.203-.296-.875 0-1.5.516-.625.5-.906 1.39h4.734z"/><path fill="#85200c" d="M731.85 270a7.528 7.528 0 1 1 15.055 0 7.528 7.528 0 0 1-15.055 0z" fill-rule="evenodd"/><path fill="#ea4335" d="M627.654 316.377h223.45V401.9c-111.725 0-111.725 32.586-223.45 14.072z" fill-rule="evenodd"/><path stroke="#85200c" stroke-linejoin="round" stroke-linecap="butt" d="M627.654 316.377h223.45V401.9c-111.725 0-111.725 32.586-223.45 14.072z"/><path fill="#f3f3f3" d="M675.243 366.355q-1.485 0-2.641-.656-1.156-.672-1.797-1.812-.64-1.157-.64-2.578 0-1.422.64-2.579.64-1.156 1.797-1.812 1.156-.672 2.64-.672 1.454 0 2.61.672 1.156.656 1.797 1.812.64 1.157.64 2.579 0 1.421-.64 2.578-.64 1.14-1.797 1.812-1.156.656-2.61.656zm0-2.25q.703 0 1.296-.328.61-.343.954-.984.359-.64.359-1.484t-.36-1.47q-.343-.64-.953-.968-.593-.344-1.296-.344-.72 0-1.313.344-.594.328-.969.969-.359.625-.359 1.469 0 .828.36 1.484.374.64.968.984.594.328 1.313.328zm6.848-7.562h2.297v1.156h.14q.391-.61 1.141-1.031.75-.422 1.719-.422 1.281 0 2.328.64 1.063.641 1.656 1.798.594 1.156.594 2.625 0 1.468-.594 2.625-.593 1.14-1.656 1.78-1.047.641-2.328.641-.969 0-1.734-.406-.75-.406-1.125-1.031h-.141l.14 1.344v3.828h-2.437v-13.547zm4.86 7.562q.687 0 1.28-.359.61-.36.954-.984.36-.64.36-1.453 0-.829-.36-1.454-.344-.64-.953-.984-.594-.344-1.281-.344-.672 0-1.266.344t-.953.984q-.344.625-.344 1.454 0 .812.344 1.453.36.625.953.984.594.36 1.266.36zm11.04 2.11q-.702 0-1.296-.219-.594-.219-.969-.594-.875-.843-.875-2.39v-4.375h-1.672v-2.094h1.672v-2.688h2.438v2.688h2.328v2.094h-2.328v3.937q0 .719.312 1.047.266.297.906.297.344 0 .578-.094.235-.094.61-.328v2.39q-.797.329-1.703.329zm5.05-10.719q-.657 0-1.126-.469-.469-.468-.469-1.109 0-.656.47-1.11.468-.468 1.124-.468.656 0 1.11.469.453.453.453 1.109 0 .64-.454 1.11-.453.468-1.109.468zm-1.235 1.047h2.437v9.516h-2.437v-9.516zm4.993 0h2.296v1.187h.157q.437-.687 1.187-1.078.766-.406 1.703-.406 1 0 1.75.484.75.47 1.063 1.188.469-.734 1.281-1.203.813-.469 1.906-.469 1.625 0 2.47 1 .858 1 .858 2.688v6.125h-2.421v-5.672q0-.89-.422-1.375t-1.172-.485q-.953 0-1.531.75-.563.75-.563 1.985v4.797h-2.437v-5.672q0-.89-.438-1.375-.437-.485-1.234-.485-.907 0-1.453.75-.547.75-.547 1.985v4.797h-2.453v-9.516zm18.386-1.047q-.656 0-1.125-.469-.469-.468-.469-1.109 0-.656.469-1.11.469-.468 1.125-.468t1.11.469q.453.453.453 1.109 0 .64-.454 1.11-.453.468-1.109.468zm-1.234 1.047h2.437v9.516h-2.437v-9.516zm4.508 7.516l4.969-5.438h-4.813v-2.078h7.813v2l-4.953 5.437h5.11v2.079h-8.126v-2zm14.487 2.296q-1.422 0-2.563-.64-1.14-.656-1.781-1.797-.64-1.156-.64-2.594 0-1.36.624-2.531.64-1.172 1.75-1.86 1.125-.687 2.516-.687 1.469 0 2.531.64 1.063.626 1.61 1.735.562 1.094.562 2.438 0 .421-.062.828h-7.141q.187 1.125.906 1.718.719.594 1.719.594.844 0 1.453-.36.61-.374.953-.984l1.985.97q-1.454 2.53-4.422 2.53zm2.25-6.203q-.032-.453-.328-.89-.282-.438-.797-.719-.516-.297-1.203-.297-.875 0-1.5.516-.625.5-.907 1.39h4.735zm8.326 6.203q-1.281 0-2.344-.64-1.047-.64-1.656-1.781-.61-1.157-.61-2.625 0-1.47.61-2.625.61-1.157 1.656-1.797 1.063-.64 2.344-.64.969 0 1.719.421.75.422 1.14 1.031h.14l-.14-1.344V352.7h2.422v13.36h-2.281v-1.141h-.14q-.376.625-1.141 1.031-.75.406-1.72.406zm.406-2.25q.688 0 1.281-.359.61-.36.953-.984.36-.64.36-1.453 0-.829-.36-1.454-.343-.64-.953-.984-.593-.344-1.28-.344-.673 0-1.267.344-.593.344-.953.984-.359.625-.359 1.454 0 .812.36 1.453.359.625.952.984.594.36 1.266.36zm6.085 1.954zm10.037.296q-1.437 0-2.578-.64-1.14-.64-1.781-1.797-.64-1.156-.64-2.61 0-1.468.64-2.609.64-1.14 1.781-1.797 1.14-.656 2.578-.656 1.578 0 2.719.688 1.14.671 1.64 1.921l-2.234.938q-.594-1.266-2.125-1.266-1.125 0-1.844.766-.718.766-.718 2.016 0 1.265.718 2.03.72.766 1.844.766 1.547 0 2.235-1.343l2.218.968q-.61 1.25-1.75 1.938-1.14.687-2.703.687zm10.768 0q-1.484 0-2.64-.656-1.157-.672-1.797-1.812-.64-1.157-.64-2.578 0-1.422.64-2.579.64-1.156 1.797-1.812 1.156-.672 2.64-.672 1.453 0 2.61.672 1.156.656 1.797 1.812.64 1.157.64 2.579 0 1.421-.64 2.578-.641 1.14-1.797 1.812-1.157.656-2.61.656zm0-2.25q.703 0 1.297-.328.61-.343.953-.984.36-.64.36-1.484t-.36-1.47q-.343-.64-.953-.968-.594-.344-1.297-.344-.718 0-1.312.344-.594.328-.969.969-.36.625-.36 1.469 0 .828.36 1.484.375.64.969.984.594.328 1.312.328zm11.005 2.25q-1.281 0-2.344-.64-1.046-.64-1.656-1.781-.61-1.157-.61-2.625 0-1.47.61-2.625.61-1.157 1.656-1.797 1.063-.64 2.344-.64.969 0 1.719.421.75.422 1.14 1.031h.141l-.14-1.344V352.7h2.421v13.36h-2.28v-1.141h-.141q-.375.625-1.141 1.031-.75.406-1.719.406zm.406-2.25q.688 0 1.282-.359.609-.36.953-.984.36-.64.36-1.453 0-.829-.36-1.454-.344-.64-.953-.984-.594-.344-1.282-.344-.671 0-1.265.344-.594.344-.953.984-.36.625-.36 1.454 0 .812.36 1.453.359.625.953.984.594.36 1.265.36zm11.741 2.25q-1.422 0-2.562-.64-1.14-.656-1.781-1.797-.641-1.156-.641-2.594 0-1.36.625-2.531.64-1.172 1.75-1.86 1.125-.687 2.516-.687 1.468 0 2.53.64 1.063.626 1.61 1.735.563 1.094.563 2.438 0 .421-.063.828h-7.14q.187 1.125.906 1.718.719.594 1.719.594.843 0 1.453-.36.609-.374.953-.984l1.984.97q-1.453 2.53-4.422 2.53zm2.25-6.203q-.031-.453-.328-.89-.281-.438-.797-.719-.515-.297-1.203-.297-.875 0-1.5.516-.625.5-.906 1.39h4.734z"/><path fill="none" d="M739.377 277.528v38.835"/><path stroke="#85200c" stroke-width="4" stroke-linejoin="round" stroke-linecap="butt" d="M739.377 277.528v38.835"/><path fill="#38761d" d="M213.094 270a7.528 7.528 0 1 1 15.055 0 7.528 7.528 0 0 1-15.055 0z" fill-rule="evenodd"/><path fill="none" d="M220.621 262.473v-45.89"/><path stroke="#38761d" stroke-width="4" stroke-linejoin="round" stroke-linecap="butt" d="M220.621 262.473v-45.89"/><path fill="#6aa84f" d="M108.897 116.978h223.45V202.5c-111.725 0-111.725 32.586-223.45 14.071z" fill-rule="evenodd"/><path stroke="#38761d" stroke-linejoin="round" stroke-linecap="butt" d="M108.897 116.978h223.45V202.5c-111.725 0-111.725 32.586-223.45 14.071z"/><path fill="#fff" d="M184.026 166.956q-.984 0-1.734-.406t-1.125-1.031h-.156v1.14h-2.297V153.3h2.453v3.656l-.156 1.344h.156q.39-.61 1.125-1.031.75-.422 1.734-.422 1.282 0 2.328.64 1.063.641 1.657 1.797.593 1.157.593 2.625 0 1.47-.593 2.625-.594 1.141-1.657 1.782-1.046.64-2.328.64zm-.437-2.25q.687 0 1.281-.359.61-.36.953-.984.36-.641.36-1.454 0-.828-.36-1.453-.344-.64-.953-.984-.594-.344-1.281-.344-.672 0-1.266.344t-.953.984q-.36.625-.36 1.453 0 .813.36 1.454.36.625.953.984.594.36 1.266.36zm9.866 1.5l-4-9.062h2.765l2.469 5.922h.156l2.36-5.922h2.734l-5.89 13.547h-2.626l2.032-4.485zm11.955.61q-.703 0-1.297-.219t-.969-.594q-.875-.844-.875-2.39v-4.375h-1.672v-2.094h1.672v-2.688h2.438v2.688h2.328v2.094h-2.328v3.937q0 .719.312 1.047.266.297.906.297.344 0 .579-.094.234-.094.609-.328v2.39q-.797.329-1.703.329zm8.126.14q-1.422 0-2.562-.64-1.14-.657-1.782-1.797-.64-1.156-.64-2.594 0-1.36.625-2.531.64-1.172 1.75-1.86 1.125-.687 2.515-.687 1.47 0 2.532.64 1.062.626 1.61 1.735.562 1.094.562 2.437 0 .422-.063.829h-7.14q.187 1.125.906 1.718.718.594 1.718.594.844 0 1.454-.36.609-.374.953-.984l1.984.97q-1.453 2.53-4.422 2.53zm2.25-6.203q-.031-.453-.328-.89-.281-.438-.797-.72-.515-.296-1.203-.296-.875 0-1.5.516-.625.5-.906 1.39h4.734zm8.717 6.203q-1.437 0-2.578-.64-1.14-.64-1.781-1.797-.64-1.156-.64-2.61 0-1.468.64-2.609.64-1.14 1.781-1.797 1.14-.656 2.578-.656 1.578 0 2.719.687 1.14.672 1.64 1.922l-2.234.938q-.594-1.266-2.125-1.266-1.125 0-1.844.766-.718.765-.718 2.015 0 1.266.718 2.032.72.765 1.844.765 1.547 0 2.234-1.343l2.22.968q-.61 1.25-1.75 1.938-1.141.687-2.704.687zm10.768 0q-1.484 0-2.64-.656-1.157-.672-1.797-1.812-.64-1.157-.64-2.579 0-1.421.64-2.578.64-1.156 1.797-1.812 1.156-.672 2.64-.672 1.453 0 2.61.672 1.156.656 1.796 1.812.641 1.157.641 2.578 0 1.422-.64 2.579-.641 1.14-1.797 1.812-1.157.656-2.61.656zm0-2.25q.703 0 1.297-.328.61-.344.953-.984.36-.64.36-1.485 0-.843-.36-1.468-.344-.64-.953-.969-.594-.344-1.297-.344-.719 0-1.312.344-.594.328-.969.969-.36.625-.36 1.468 0 .829.36 1.485.375.64.969.984.593.328 1.312.328zm11.005 2.25q-1.281 0-2.344-.64-1.047-.64-1.656-1.782-.61-1.156-.61-2.625 0-1.468.61-2.625.61-1.156 1.656-1.796 1.063-.641 2.344-.641.969 0 1.719.422.75.422 1.14 1.031h.141l-.14-1.344V153.3h2.421v13.36h-2.28v-1.141h-.142q-.375.625-1.14 1.031-.75.406-1.719.406zm.406-2.25q.688 0 1.282-.359.609-.36.953-.984.36-.641.36-1.454 0-.828-.36-1.453-.344-.64-.953-.984-.594-.344-1.282-.344-.672 0-1.265.344-.594.344-.953.984-.36.625-.36 1.453 0 .813.36 1.454.359.625.953.984.593.36 1.265.36zm11.741 2.25q-1.422 0-2.562-.64-1.14-.657-1.782-1.797-.64-1.156-.64-2.594 0-1.36.625-2.531.64-1.172 1.75-1.86 1.125-.687 2.515-.687 1.47 0 2.532.64 1.062.626 1.61 1.735.562 1.094.562 2.437 0 .422-.063.829h-7.14q.187 1.125.906 1.718.718.594 1.718.594.844 0 1.454-.36.609-.374.953-.984l1.984.97q-1.453 2.53-4.422 2.53zm2.25-6.203q-.031-.453-.328-.89-.281-.438-.797-.72-.515-.296-1.203-.296-.875 0-1.5.516-.625.5-.906 1.39h4.734z"/></g></svg>