<svg viewBox="0 0 960 540" fill="none" stroke-linecap="square" stroke-miterlimit="10" xmlns="http://www.w3.org/2000/svg"><clipPath id="a"><path d="M0 0h960v540H0V0z"/></clipPath><g clip-path="url(#a)"><path fill="#fff" d="M0 0h960v540H0z" fill-rule="evenodd"/><path d="M38.514 118.189h289.45v303.622H38.513z"/><path fill="#000" d="M60.186 271.66q-.156-.297-.25-.75-.093-.453-.14-.938-.39.407-.89.766-.5.344-1.095.625-.593.266-1.265.422-.672.156-1.422.156-1.235 0-2.235-.343-1-.36-1.687-.97-.688-.609-1.078-1.452-.375-.844-.375-1.813 0-1.281.5-2.234.515-.953 1.437-1.594.938-.64 2.25-.953 1.313-.313 2.922-.313h2.906v-1.218q0-.703-.265-1.266-.25-.563-.735-.953-.468-.39-1.156-.594-.672-.219-1.515-.219-.782 0-1.407.204-.625.187-1.062.515-.422.328-.656.781-.235.454-.235.938h-2.672q.016-.844.438-1.656.422-.813 1.219-1.47.796-.655 1.937-1.046 1.14-.406 2.578-.406 1.313 0 2.438.328 1.14.312 1.968.969.829.656 1.297 1.625.47.968.47 2.28v7.204q0 .766.14 1.64.14.86.406 1.5v.235h-2.766zm-4.687-2.016q.781 0 1.453-.203t1.219-.531q.562-.328.953-.75.406-.422.64-.875v-3.14h-2.468q-2.328 0-3.61.687-1.28.687-1.28 2.156 0 .578.187 1.063.187.484.578.843.39.344.968.547.594.203 1.36.203zm22.256-13.765q.375 0 .765.031.407.016.766.063.375.046.688.125.312.062.5.156l-.36 2.594q-.765-.172-1.469-.25-.687-.079-1.437-.079-1.875 0-3.031.844-1.14.844-1.688 2.36v9.937h-2.656v-15.5h2.516l.125 2.469q.953-1.281 2.265-2.016 1.328-.734 3.016-.734zm17.6 0q.375 0 .765.031.406.016.766.063.375.046.687.125.313.062.5.156l-.36 2.594q-.765-.172-1.468-.25-.687-.079-1.437-.079-1.875 0-3.032.844-1.14.844-1.687 2.36v9.937h-2.656v-15.5h2.515l.125 2.469q.953-1.281 2.266-2.016 1.328-.734 3.016-.734zm17.63 15.781q-.156-.297-.25-.75-.093-.453-.14-.938-.39.407-.89.766-.5.344-1.094.625-.594.266-1.266.422-.672.156-1.422.156-1.234 0-2.234-.343-1-.36-1.688-.97-.687-.609-1.078-1.452-.375-.844-.375-1.813 0-1.281.5-2.234.516-.953 1.438-1.594.937-.64 2.25-.953 1.312-.313 2.921-.313h2.907v-1.218q0-.703-.266-1.266-.25-.563-.734-.953-.47-.39-1.157-.594-.671-.219-1.515-.219-.781 0-1.406.204-.625.187-1.063.515-.422.328-.656.781-.235.454-.235.938h-2.671q.015-.844.437-1.656.422-.813 1.219-1.47.797-.655 1.937-1.046 1.14-.406 2.578-.406 1.313 0 2.438.328 1.14.312 1.969.969.828.656 1.297 1.625.468.968.468 2.28v7.204q0 .766.14 1.64.142.86.407 1.5v.235h-2.765zm-4.687-2.016q.781 0 1.453-.203t1.219-.531q.562-.328.953-.75.406-.422.64-.875v-3.14h-2.468q-2.328 0-3.61.687-1.28.687-1.28 2.156 0 .578.187 1.063.187.484.578.843.39.344.969.547.593.203 1.36.203zm17.803-3.484l.687 1.875 4.735-11.875h2.953l-7.86 17.89q-.265.61-.687 1.282-.422.672-1.031 1.234-.594.578-1.406.969-.797.39-1.844.39-.188 0-.422-.03-.219-.016-.453-.063-.219-.031-.422-.078-.203-.031-.328-.063l.422-2.172q.109 0 .28.016l.345.031q.187.016.359.016.172.016.281.016.547 0 .985-.297.453-.297.797-.72.359-.421.609-.858.25-.438.406-.735l1.047-2.062-6.672-14.766h2.969l4.25 10z"/><path fill="#e67c73" d="M168.379 260.488h-12.782v-2.297h12.782v2.297zm0 5.938h-12.782v-2.282h12.782v2.282zm31.699-16.422h-3.156v23.953h3.156v2.172h-5.672v-28.297h5.672v2.172z"/><path fill="#0f9d58" d="M215.256 251.254l-.297 5.265h-1.969l.016-5.03v-1.829h2.25v1.594zm20.928 20.406q-.156-.297-.25-.75t-.14-.938q-.391.407-.891.766-.5.344-1.094.625-.594.266-1.266.422-.672.156-1.422.156-1.234 0-2.234-.344-1-.359-1.688-.968-.687-.61-1.078-1.453-.375-.844-.375-1.813 0-1.281.5-2.234.516-.953 1.438-1.594.937-.64 2.25-.953 1.312-.313 2.922-.313h2.906v-1.218q0-.704-.266-1.266-.25-.563-.734-.953-.469-.39-1.156-.594-.672-.219-1.516-.219-.781 0-1.406.203-.625.188-1.063.516-.422.328-.656.781-.234.453-.234.938h-2.672q.015-.844.437-1.656.422-.813 1.219-1.47.797-.655 1.938-1.046 1.14-.406 2.578-.406 1.312 0 2.437.328 1.14.312 1.969.969.828.656 1.297 1.625.469.968.469 2.28v7.204q0 .766.14 1.64.14.86.406 1.5v.235h-2.765zm-4.688-2.016q.782 0 1.453-.203.672-.203 1.22-.531.562-.328.952-.75.407-.422.64-.875v-3.14h-2.468q-2.328 0-3.61.687-1.28.687-1.28 2.156 0 .578.187 1.063.188.484.578.843.39.344.969.547.594.203 1.36.203zm18.96-18.39l-.297 5.265h-1.97l.016-5.03v-1.829h2.25v1.594z"/><path fill="#e67c73" d="M264.508 247.832h5.688v28.297h-5.688v-2.172h3.188v-23.953h-3.188v-2.172zm19.913 9.11q0-.423.125-.798.14-.375.39-.656.266-.281.64-.437.391-.157.907-.157t.906.157q.407.156.672.437.266.281.39.656.141.375.141.797 0 .422-.14.782-.125.359-.39.64-.266.266-.673.422-.39.14-.906.14t-.906-.14q-.375-.156-.64-.422-.25-.281-.391-.64-.125-.36-.125-.782zm3.093 14.109q0 .672-.172 1.406-.156.734-.484 1.453-.312.734-.781 1.39-.453.657-1.047 1.173l-1.656-.907q.687-1 .968-2.14.297-1.125.297-2.344v-2.563h2.875v2.532z"/><path fill="#fbbc05" fill-opacity=".377" d="M632.787 100.303C632.787 81.91 647.697 67 666.09 67h234.623a33.302 33.302 0 0 1 33.303 33.303v133.206c0 18.392-14.91 33.302-33.303 33.302H666.09c-18.393 0-33.303-14.91-33.303-33.302z" fill-rule="evenodd"/><path stroke="#666" stroke-linejoin="round" stroke-linecap="butt" d="M632.787 100.303C632.787 81.91 647.697 67 666.09 67h234.623a33.302 33.302 0 0 1 33.303 33.303v133.206c0 18.392-14.91 33.302-33.303 33.302H666.09c-18.393 0-33.303-14.91-33.303-33.302z"/><path fill="#000" d="M655.463 101.966v4.86h-2.562V93.56h4.531q1.094 0 1.969.312.875.313 1.484.875.61.563.938 1.344.343.781.343 1.75 0 .89-.343 1.64-.328.75-.938 1.313-.61.547-1.484.86-.875.312-1.969.312h-1.969zm0-2.078h1.969q.547 0 .938-.156.406-.172.671-.453.282-.282.407-.657.14-.375.14-.765 0-.469-.14-.86-.125-.406-.407-.703-.265-.312-.671-.484-.391-.172-.938-.172h-1.969v4.25zm15.633-3.094q.578 0 1.063.078.484.063.797.157l-.375 2.53q-.5-.124-1.032-.171-.515-.062-1-.062-1.062 0-1.703.406-.64.406-.968 1.172v5.922h-2.532v-9.86h2.36l.125 1.61q.593-.829 1.437-1.297.844-.485 1.828-.485zm3.774 5.016q0-1.078.312-1.984.313-.922.907-1.594.593-.688 1.453-1.063.86-.375 1.969-.375 1.125 0 1.984.375.86.375 1.453 1.063.61.672.906 1.594.313.906.313 1.984v.187q0 1.079-.313 2-.297.922-.89 1.594-.594.672-1.469 1.047-.86.375-1.953.375-1.125 0-2-.375-.86-.375-1.453-1.047-.594-.672-.907-1.594-.312-.921-.312-2v-.187zm2.531.187q0 .625.11 1.172.125.532.375.938.265.406.671.64.407.235.985.235.547 0 .937-.235.407-.234.657-.64.25-.406.375-.938.125-.547.125-1.172v-.187q0-.61-.125-1.14-.125-.548-.375-.954-.25-.406-.657-.64-.39-.235-.968-.235-.563 0-.97.235-.39.234-.655.64-.25.406-.375.953-.11.532-.11 1.14v.188zm17.868-.015q0 1.078-.25 2-.25.922-.75 1.594-.485.671-1.203 1.062-.72.375-1.641.375-.797 0-1.406-.266-.594-.28-1.032-.78v4.655h-2.53V96.966h2.327l.094.969q.453-.547 1.078-.844.625-.297 1.453-.297.938 0 1.657.36.718.359 1.203 1.015.5.657.75 1.578.25.922.25 2.047v.188zm-2.532-.188q0-.61-.125-1.156-.109-.547-.359-.937-.234-.407-.61-.625-.374-.235-.906-.235-.671 0-1.093.266-.422.265-.657.734v4.11q.235.468.657.75.422.28 1.11.28.53 0 .905-.234.391-.25.625-.656.235-.406.344-.953.11-.547.11-1.156v-.188zm9.65 5.219q-1.141 0-2.079-.375-.922-.375-1.594-1.016-.656-.64-1.015-1.515-.36-.875-.36-1.86v-.375q0-1.125.36-2.046.359-.938.984-1.61.64-.687 1.516-1.047.875-.375 1.906-.375 1.062 0 1.89.344.844.344 1.422.984.579.641.875 1.547.313.89.313 1.969v1.078h-6.688q.063.5.282.922.234.406.578.719.344.297.781.469.453.156.984.156.375 0 .735-.078.375-.078.703-.22.344-.14.64-.343.297-.219.516-.5l1.266 1.375q-.235.328-.625.656-.375.329-.89.579-.516.25-1.141.406-.625.156-1.36.156zm-.298-8.172q-.422 0-.781.156-.36.141-.625.422-.266.282-.453.672-.188.39-.266.875h4.14v-.203q-.015-.39-.155-.75-.125-.36-.391-.61-.25-.265-.625-.406-.36-.156-.844-.156zm13.79-2.047q.578 0 1.062.078.484.063.797.157l-.375 2.53q-.5-.124-1.031-.171-.516-.062-1-.062-1.063 0-1.703.406-.641.406-.97 1.172v5.922h-2.53v-9.86h2.359l.125 1.61q.594-.829 1.437-1.297.844-.485 1.829-.485zm8.773-2.234v2.406h3.672v1.875h-3.672v4.235q0 .53.11.89.125.36.343.578.235.219.563.313.328.078.719.078.297 0 .593-.016.313-.031.594-.062.281-.047.516-.094.25-.047.422-.094l.234 1.735q-.25.156-.61.28-.359.11-.765.173-.39.078-.828.11-.438.046-.844.046-.812 0-1.484-.203-.656-.219-1.125-.672-.469-.453-.735-1.14-.25-.704-.25-1.672V98.84h-2.25v-1.875h2.25V94.56h2.547zm10.743 8.125l.297 1.062 2.625-6.78h2.797l-5.016 11.327q-.156.375-.422.813-.25.437-.64.812-.391.375-.954.625-.562.266-1.328.266-.187 0-.344-.016-.156-.015-.296-.047-.141-.015-.282-.046-.14-.032-.312-.079l.312-1.921h.39q.25.015.392.015.296 0 .53-.187.235-.172.391-.391.172-.219.266-.406.11-.172.14-.172l.61-1.156-4.172-9.438h2.781l2.235 5.719zm24.344 4.14q-.094-.187-.156-.421-.063-.235-.11-.5-.203.234-.484.437-.266.188-.61.344-.327.156-.734.234-.39.094-.86.094-.75 0-1.39-.219-.625-.218-1.078-.61-.453-.39-.719-.937-.25-.546-.25-1.187 0-1.547 1.157-2.39 1.172-.86 3.468-.86h1.422v-.594q0-.703-.468-1.11-.47-.421-1.344-.421-.766 0-1.125.328-.36.328-.36.89h-2.53q0-.624.28-1.187.282-.578.813-1 .531-.422 1.297-.672.765-.25 1.765-.25.891 0 1.657.219.78.219 1.343.64.563.423.875 1.079.329.656.329 1.5v4.234q0 .797.093 1.313.094.515.297.89v.157h-2.578zm-2.406-1.78q.375 0 .703-.079.328-.094.594-.234.265-.156.453-.344.203-.187.312-.375v-1.703h-1.297q-.593 0-1.015.125-.422.11-.688.312-.265.204-.39.5-.125.282-.125.625 0 .5.359.844.36.328 1.094.328zm12.102-10.485v2.406h3.671v1.875h-3.671v4.235q0 .53.109.89.125.36.344.578.234.219.562.313.328.078.719.078.297 0 .594-.016.312-.031.593-.062.282-.047.516-.094.25-.047.422-.094l.234 1.735q-.25.156-.609.28-.36.11-.766.173-.39.078-.828.11-.437.046-.844.046-.812 0-1.484-.203-.656-.219-1.125-.672-.469-.453-.734-1.14-.25-.704-.25-1.672V98.84h-2.25v-1.875h2.25V94.56h2.547zm11.195 0v2.406h3.672v1.875h-3.672v4.235q0 .53.11.89.125.36.343.578.235.219.563.313.328.078.719.078.296 0 .593-.016.313-.031.594-.062.281-.047.516-.094.25-.047.422-.094l.234 1.735q-.25.156-.61.28-.359.11-.765.173-.39.078-.828.11-.438.046-.844.046-.812 0-1.484-.203-.657-.219-1.125-.672-.47-.453-.735-1.14-.25-.704-.25-1.672V98.84h-2.25v-1.875h2.25V94.56h2.547zm13.618 2.234q.578 0 1.062.078.485.063.797.157l-.375 2.53q-.5-.124-1.031-.171-.516-.062-1-.062-1.063 0-1.703.406-.641.406-.97 1.172v5.922h-2.53v-9.86h2.359l.125 1.61q.594-.829 1.438-1.297.843-.485 1.828-.485zm4.789.172h5.375v7.797h2.672v2.063h-8.047v-2.063h2.812v-5.719h-2.812v-2.078zm2.625-2.515q0-.297.11-.547.109-.25.296-.422.188-.188.453-.281.282-.11.61-.11.672 0 1.062.39.39.376.39.97 0 .593-.39.968t-1.062.375q-.328 0-.61-.093-.265-.11-.453-.282-.187-.187-.297-.437-.11-.25-.11-.531zm16.79 7.546q0 1.11-.25 2.032-.235.906-.72 1.578-.484.656-1.203 1.031-.718.375-1.672.375-.875 0-1.515-.328-.625-.328-1.078-.906l-.125 1.047h-2.266v-14h2.531v5.03q.438-.5 1.032-.78.593-.282 1.39-.282.969 0 1.688.375.734.36 1.218 1.032.485.656.72 1.593.25.922.25 2.016v.187zm-2.532-.187q0-.61-.094-1.14-.094-.548-.328-.938-.219-.406-.61-.64-.374-.25-.937-.25-.703 0-1.14.296-.422.297-.657.797v3.937q.235.5.657.797.437.282 1.156.282.578 0 .937-.22.375-.218.594-.609.234-.406.328-.937.094-.547.094-1.188v-.187zm11.117 3.625q-.5.75-1.203 1.172-.703.406-1.547.406-.765 0-1.406-.234-.625-.235-1.078-.75-.453-.516-.719-1.313-.25-.797-.25-1.922v-5.828h2.547v5.844q0 .61.078 1.016.094.406.282.656.187.25.5.36.312.109.75.109.765 0 1.234-.282.469-.281.719-.781v-6.922h2.547v9.86h-2.297l-.157-1.391zm9.571-10.875v2.406h3.672v1.875h-3.672v4.235q0 .53.11.89.124.36.343.578.235.219.563.313.328.078.718.078.297 0 .594-.016.313-.031.594-.062.281-.047.516-.094.25-.047.421-.094l.235 1.735q-.25.156-.61.28-.359.11-.765.173-.39.078-.828.11-.438.046-.844.046-.813 0-1.484-.203-.657-.219-1.125-.672-.47-.453-.735-1.14-.25-.704-.25-1.672V98.84h-2.25v-1.875h2.25V94.56h2.547zm11.32 12.453q-1.14 0-2.078-.375-.921-.375-1.593-1.016-.657-.64-1.016-1.515-.36-.875-.36-1.86v-.375q0-1.125.36-2.046.36-.938.984-1.61.641-.687 1.516-1.047.875-.375 1.906-.375 1.063 0 1.891.344.844.344 1.422.984.578.641.875 1.547.312.89.312 1.969v1.078h-6.687q.062.5.281.922.234.406.578.719.344.297.781.469.454.156.985.156.375 0 .734-.078.375-.078.703-.22.344-.14.641-.343.297-.219.516-.5l1.265 1.375q-.234.328-.625.656-.375.329-.89.579-.516.25-1.141.406-.625.156-1.36.156zm-.296-8.172q-.422 0-.782.156-.359.141-.625.422-.265.282-.453.672-.187.39-.265.875h4.14v-.203q-.015-.39-.156-.75-.125-.36-.39-.61-.25-.265-.626-.406-.359-.156-.843-.156zm13.07 5.281q0-.234-.11-.406-.093-.172-.374-.312-.266-.157-.719-.282-.437-.125-1.125-.265-.86-.172-1.578-.422-.703-.266-1.219-.625-.515-.375-.797-.86-.28-.484-.28-1.109 0-.61.28-1.156.297-.563.844-.984.547-.422 1.328-.657.782-.25 1.766-.25 1.031 0 1.844.235.828.234 1.39.672.578.421.875 1 .297.578.297 1.265h-2.531q0-.578-.469-.953-.453-.39-1.406-.39-.89 0-1.344.328-.437.312-.437.765 0 .219.078.406.094.188.328.344.234.14.625.266.406.125 1.031.219.89.14 1.656.375.766.218 1.313.578.562.359.875.875.328.515.328 1.234 0 .656-.328 1.203-.313.547-.89.953-.579.407-1.407.625-.812.219-1.812.219-1.11 0-1.97-.281-.859-.297-1.437-.766-.562-.469-.86-1.062-.296-.594-.296-1.203h2.422q.016.406.203.687.203.281.5.469.297.172.688.265.39.079.796.079.938 0 1.422-.297.5-.313.5-.782z"/><path fill="#e67c73" d="M659.026 145.044h-2.016v15.235h2.016v1.39h-3.61v-18h3.61v1.375zm11.195 0h-2.015v15.235h2.015v1.39h-3.61v-18h3.61v1.375z"/><path fill="#673ab7" d="M679.495 156.107l3.125-10.547h1.797l-4.188 13.266h-1.453l-4.203-13.266h1.813l3.109 10.547zm13.696 2.719q-.094-.188-.157-.47-.062-.296-.093-.609-.25.266-.563.5-.312.22-.703.391-.375.172-.813.266-.421.109-.89.109-.797 0-1.438-.219-.625-.234-1.062-.625-.438-.39-.688-.922-.234-.53-.234-1.156 0-.812.312-1.422.329-.61.922-1.015.594-.407 1.422-.594.844-.203 1.875-.203h1.828v-.781q0-.454-.172-.797-.156-.36-.453-.61-.297-.25-.734-.39-.422-.141-.969-.141-.5 0-.906.14-.39.126-.672.344-.266.204-.422.485-.14.281-.14.594h-1.688q0-.532.266-1.047.281-.532.781-.938.5-.422 1.219-.672.734-.25 1.656-.25.844 0 1.562.203.72.204 1.235.625.531.407.828 1.032.297.609.297 1.437v4.578q0 .5.094 1.047.093.547.25.969v.14h-1.75zm-2.985-1.282q.5 0 .922-.125.438-.14.781-.343.344-.204.594-.47.266-.28.406-.562v-2h-1.562q-1.469 0-2.297.438-.813.437-.813 1.375 0 .36.125.672.125.312.36.53.25.22.625.36.375.125.86.125zm7.961-12.718h5.047v12.546h3.219v1.454h-8.266v-1.454h3.36v-11.078h-3.36v-1.468zm17.337 12.64q-.5.735-1.235 1.14-.734.407-1.703.407-.781 0-1.406-.234-.625-.25-1.078-.766-.438-.516-.688-1.297-.234-.781-.234-1.89v-5.86h1.687v5.875q0 .813.125 1.344.125.516.375.828.266.313.625.453.375.125.86.125 1.031 0 1.656-.422.64-.422.953-1.125v-7.078h1.688v9.86h-1.532l-.093-1.36zm9.148 1.547q-1.031 0-1.906-.36-.875-.359-1.5-.984-.61-.64-.953-1.515-.344-.875-.344-1.907v-.39q0-1.188.375-2.125.39-.953 1.016-1.594.64-.656 1.437-1 .813-.344 1.657-.344 1.062 0 1.859.375.797.36 1.328 1.016.531.64.781 1.531.266.875.266 1.906v.75h-7.031q.015.688.25 1.282.234.578.64 1.03.407.438.969.704.563.25 1.25.25.906 0 1.594-.36.703-.374 1.172-.968l1.03.797q-.25.375-.624.719-.36.328-.844.593-.484.266-1.094.422-.609.172-1.328.172zm-.218-8.844q-.516 0-.97.188-.452.187-.812.547-.36.359-.625.89-.25.516-.343 1.203h5.296v-.125q-.015-.5-.187-.984-.156-.484-.469-.86-.297-.39-.765-.624-.47-.235-1.125-.235z"/><path fill="#e67c73" d="M733.598 143.67h3.625v18h-3.625v-1.391h2.031v-15.235h-2.031v-1.375zm11.195 0h3.625v18h-3.625v-1.391h2.032v-15.235h-2.032v-1.375zm12.024 14.062q0-.266.078-.5.094-.25.25-.422.172-.188.422-.281.25-.094.578-.094.328 0 .578.094.25.093.407.28.172.173.25.423.093.234.093.5 0 .265-.093.5-.078.234-.25.406-.157.172-.407.266-.25.093-.578.093-.328 0-.578-.093-.25-.094-.422-.266-.156-.172-.25-.406-.078-.235-.078-.5zm0-8q0-.266.078-.5.094-.25.25-.422.172-.188.422-.281.25-.094.578-.094.328 0 .578.094.25.093.407.28.172.173.25.423.093.234.093.5 0 .265-.093.5-.078.234-.25.406-.157.172-.407.266-.25.093-.578.093-.328 0-.578-.093-.25-.094-.422-.266-.156-.172-.25-.406-.078-.235-.078-.5z"/><path fill="#db4437" d="M781.74 158.826h-1.688v-11.11l-3.469 1.313v-1.532l5.032-1.937h.125v13.266z"/><path fill="#e67c73" d="M659.026 171.044h-2.016v15.235h2.016v1.39h-3.61v-18h3.61v1.375zm11.195 0h-2.015v15.235h2.015v1.39h-3.61v-18h3.61v1.375z"/><path fill="#673ab7" d="M682.089 181.232l1.015-9.672h1.594l-1.61 13.266h-1.718l-1.703-10-1.719 10h-1.734l-1.61-13.266h1.594l1.016 9.672 1.703-9.672h1.469l1.703 9.672zm11.086-6.438q.234 0 .484.016.266 0 .485.031.234.031.422.078.203.047.343.11l-.234 1.64q-.484-.11-.938-.156-.437-.047-.921-.047-1.188 0-1.922.547-.735.531-1.078 1.484v6.329h-1.688v-9.86h1.594l.094 1.563q.593-.797 1.437-1.266.844-.469 1.922-.469zm4.992.172h5.047v8.406h3.219v1.454h-8.266v-1.454h3.36v-6.937h-3.36v-1.469zm3.141-2.578q0-.422.25-.703.25-.297.766-.297.5 0 .75.297.25.281.25.703 0 .406-.25.688-.25.265-.75.265-.516 0-.766-.265-.25-.282-.25-.688zm11.79.188v2.39h3.75v1.313h-3.75v5.343q0 .579.14.954t.39.593q.266.219.594.313.344.094.72.094.265 0 .546-.032.297-.031.578-.078.281-.047.516-.094.25-.046.406-.093l.234 1.203q-.218.125-.515.219-.297.093-.657.156-.343.078-.75.11-.39.046-.78.046-.657 0-1.235-.187-.563-.188-.985-.594-.421-.406-.671-1.047-.235-.64-.235-1.563v-5.343h-2.578v-1.313h2.578v-2.39h1.703zm13.68 12.25q-.094-.188-.157-.47-.062-.296-.094-.609-.25.266-.562.5-.313.22-.703.391-.375.172-.813.266-.422.109-.89.109-.797 0-1.438-.219-.625-.234-1.062-.625-.438-.39-.688-.922-.234-.53-.234-1.156 0-.812.312-1.422.328-.61.922-1.015.594-.407 1.422-.594.844-.203 1.875-.203h1.828v-.781q0-.454-.172-.797-.156-.36-.453-.61-.297-.25-.734-.39-.422-.141-.97-.141-.5 0-.905.14-.391.126-.672.344-.266.204-.422.485-.14.281-.14.594h-1.688q0-.532.265-1.047.282-.532.782-.938.5-.422 1.218-.672.735-.25 1.657-.25.843 0 1.562.203.719.204 1.235.625.53.407.828 1.032.297.609.297 1.437v4.578q0 .5.093 1.047.094.547.25.969v.14h-1.75zm-2.985-1.282q.5 0 .922-.125.437-.14.781-.343.344-.204.594-.47.265-.28.406-.562v-2h-1.562q-1.47 0-2.297.438-.813.437-.813 1.375 0 .36.125.672.125.312.36.53.25.22.625.36.375.125.859.125zm16.055-3.531q0 1.047-.266 1.969-.25.906-.75 1.594-.484.671-1.203 1.062-.719.375-1.656.375-.953 0-1.656-.328-.688-.344-1.188-.984l-.078 1.125h-1.547v-14h1.688v5.203q.484-.61 1.156-.922.687-.313 1.61-.313.937 0 1.656.375.734.36 1.218 1.032.5.656.75 1.593.266.922.266 2.016v.203zm-1.688-.203q0-.719-.14-1.36-.14-.656-.453-1.156-.313-.5-.813-.781-.5-.297-1.219-.297-.437 0-.812.125-.36.11-.656.313-.282.203-.5.484-.22.266-.375.594v4.312q.156.328.375.61.234.28.515.5.297.203.657.312.375.11.812.11.688 0 1.188-.282.5-.297.812-.781.313-.5.453-1.14.156-.641.156-1.36v-.203zm4.79-8.984h5.047v12.546h3.218v1.454h-8.265v-1.454h3.36v-11.078h-3.36v-1.468zm15.289 14.187q-1.031 0-1.906-.36-.875-.359-1.5-.984-.61-.64-.953-1.515-.344-.875-.344-1.907v-.39q0-1.188.375-2.125.39-.953 1.016-1.594.64-.656 1.437-1 .813-.344 1.656-.344 1.063 0 1.86.375.797.36 1.328 1.016.531.64.781 1.531.266.875.266 1.906v.75h-7.032q.016.688.25 1.282.235.578.641 1.03.406.438.969.704.562.25 1.25.25.906 0 1.594-.36.703-.374 1.171-.968l1.032.797q-.25.375-.625.719-.36.328-.844.593-.484.266-1.094.422-.61.172-1.328.172zm-.219-8.844q-.515 0-.968.188-.454.187-.813.547-.36.359-.625.89-.25.516-.344 1.203h5.297v-.125q-.015-.5-.187-.984-.157-.484-.47-.86-.296-.39-.765-.624-.468-.235-1.125-.235z"/><path fill="#e67c73" d="M767.185 169.67h3.625v18h-3.625v-1.391h2.03v-15.235h-2.03v-1.375zm11.195 0h3.625v18h-3.625v-1.391h2.031v-15.235h-2.03v-1.375zm12.024 14.062q0-.266.078-.5.094-.25.25-.422.172-.188.422-.281.25-.094.578-.094.328 0 .578.094.25.093.406.28.172.173.25.423.094.234.094.5 0 .265-.094.5-.078.234-.25.406-.156.172-.406.266-.25.093-.578.093-.328 0-.578-.093-.25-.094-.422-.266-.156-.172-.25-.406-.078-.235-.078-.5zm0-8q0-.266.078-.5.094-.25.25-.422.172-.188.422-.281.25-.094.578-.094.328 0 .578.094.25.093.406.28.172.173.25.423.094.234.094.5 0 .265-.094.5-.078.234-.25.406-.156.172-.406.266-.25.093-.578.093-.328 0-.578-.093-.25-.094-.422-.266-.156-.172-.25-.406-.078-.235-.078-.5z"/><path fill="#4285f4" d="M813.857 172.576v2.39h3.75v1.313h-3.75v5.343q0 .579.141.954.14.375.39.593.266.219.594.313.344.094.72.094.265 0 .546-.032.297-.031.578-.078.281-.047.516-.094.25-.046.406-.093l.234 1.203q-.218.125-.515.219-.297.093-.656.156-.344.078-.75.11-.391.046-.782.046-.656 0-1.234-.187-.563-.188-.984-.594-.422-.406-.672-1.047-.235-.64-.235-1.563v-5.343h-2.578v-1.313h2.578v-2.39h1.703zm13.665 2.218q.234 0 .484.016.266 0 .485.031.234.031.421.078.204.047.344.11l-.234 1.64q-.485-.11-.938-.156-.437-.047-.922-.047-1.187 0-1.921.547-.735.531-1.079 1.484v6.329h-1.687v-9.86h1.594l.093 1.563q.594-.797 1.438-1.266t1.922-.469zm11.133 8.672q-.5.735-1.234 1.14-.735.407-1.704.407-.78 0-1.406-.234-.625-.25-1.078-.766-.437-.516-.687-1.297-.235-.781-.235-1.89v-5.86H834v5.875q0 .813.125 1.344.125.516.375.828.265.313.625.453.375.125.859.125 1.031 0 1.656-.422.64-.422.953-1.125v-7.078h1.688v9.86h-1.531l-.094-1.36zm9.149 1.547q-1.032 0-1.907-.36-.875-.359-1.5-.984-.609-.64-.953-1.515-.344-.875-.344-1.907v-.39q0-1.188.375-2.125.391-.953 1.016-1.594.64-.656 1.438-1 .812-.344 1.656-.344 1.062 0 1.86.375.796.36 1.327 1.016.532.64.782 1.531.265.875.265 1.906v.75h-7.031q.016.688.25 1.282.234.578.64 1.03.407.438.97.704.562.25 1.25.25.906 0 1.593-.36.703-.374 1.172-.968l1.031.797q-.25.375-.625.719-.36.328-.844.593-.484.266-1.093.422-.61.172-1.328.172zm-.22-8.844q-.515 0-.968.188-.453.187-.812.547-.36.359-.625.89-.25.516-.344 1.203h5.297v-.125q-.016-.5-.188-.984-.156-.484-.469-.86-.296-.39-.765-.624-.469-.235-1.125-.235z"/><path fill="#ff0" d="M830.67 192.905h55.978v22.4h-55.977v-22.4z"/><path fill="#e67c73" d="M659.026 197.044h-2.016v15.235h2.016v1.39h-3.61v-18h3.61v1.375zm11.195 0h-2.015v15.235h2.015v1.39h-3.61v-18h3.61v1.375z"/><path fill="#673ab7" d="M682.808 204.7h-5.532v4.688h6.453v1.438h-8.14V197.56h8.062v1.437h-6.375v4.266h5.532v1.438zm5.414-3.734l.125 1.453q.531-.765 1.312-1.187.782-.438 1.75-.438.782 0 1.407.219.64.219 1.078.688.453.453.687 1.171.25.72.25 1.688v6.266h-1.687v-6.22q0-.655-.157-1.109-.14-.453-.421-.734-.282-.297-.704-.422-.406-.125-.953-.125-.843 0-1.484.422-.64.422-1.031 1.125v7.063h-1.688v-9.86h1.516zm16.086 8.5q-.5.734-1.234 1.14-.735.407-1.703.407-.782 0-1.407-.234-.625-.25-1.078-.766-.437-.516-.687-1.297-.235-.781-.235-1.89v-5.86h1.688v5.875q0 .813.125 1.344.125.516.375.828.265.313.625.453.375.125.86.125 1.03 0 1.655-.422.641-.422.954-1.125v-7.078h1.687v9.86h-1.531l-.094-1.36zm5.57-8.5l.047.938q.297-.532.782-.813.5-.297 1.187-.297 1.36 0 1.813 1.047.297-.469.765-.75.485-.297 1.157-.297 1.093 0 1.671.672.579.656.579 2v7.36h-1.594v-7.375q0-1.25-1.14-1.235-.298 0-.516.094-.22.078-.375.219-.141.14-.22.328-.077.187-.109.375v7.594h-1.609v-7.391q0-.594-.266-.906-.265-.328-.828-.313-.53 0-.828.219-.281.203-.422.547v7.844h-1.609v-9.86h1.516zm14.774 10.047q-1.031 0-1.906-.36-.875-.359-1.5-.984-.61-.64-.953-1.515-.344-.875-.344-1.907v-.39q0-1.188.375-2.125.39-.953 1.016-1.594.64-.656 1.437-1 .813-.344 1.657-.344 1.062 0 1.859.375.797.36 1.328 1.016.531.64.781 1.531.266.875.266 1.906v.75h-7.031q.015.688.25 1.282.234.578.64 1.03.407.438.969.704.563.25 1.25.25.906 0 1.594-.36.703-.374 1.172-.968l1.03.797q-.25.375-.624.719-.36.328-.844.593-.484.266-1.094.422-.609.172-1.328.172zm-.218-8.844q-.516 0-.97.188-.452.187-.812.547-.36.359-.625.89-.25.516-.343 1.203h5.296v-.125q-.015-.5-.187-.984-.156-.484-.469-.86-.297-.39-.765-.624-.47-.235-1.125-.235zm13.523-1.375q.235 0 .485.016.265 0 .484.031.234.031.422.078.203.047.344.11l-.235 1.64q-.484-.11-.937-.156-.438-.047-.922-.047-1.188 0-1.922.547-.734.531-1.078 1.484v6.328h-1.688v-9.859h1.594l.094 1.563q.594-.797 1.437-1.266.844-.469 1.922-.469zm11.211 10.031q-.093-.187-.156-.468-.062-.297-.094-.61-.25.266-.562.5-.313.22-.703.391-.375.172-.813.266-.422.109-.89.109-.797 0-1.438-.219-.625-.234-1.062-.625-.438-.39-.688-.922-.234-.53-.234-1.156 0-.812.312-1.422.328-.61.922-1.015.594-.407 1.422-.594.844-.203 1.875-.203h1.828v-.781q0-.454-.172-.797-.156-.36-.453-.61-.297-.25-.734-.39-.422-.141-.969-.141-.5 0-.906.14-.39.126-.672.344-.266.203-.422.485-.14.281-.14.594h-1.688q0-.532.266-1.047.28-.532.78-.938.5-.422 1.22-.672.734-.25 1.656-.25.844 0 1.562.203.72.203 1.235.625.531.407.828 1.032.297.609.297 1.437v4.578q0 .5.093 1.047.094.547.25.969v.14h-1.75zm-2.984-1.28q.5 0 .922-.126.437-.14.781-.344.344-.203.594-.468.266-.281.406-.563v-2h-1.562q-1.469 0-2.297.438-.813.437-.813 1.375 0 .36.125.672.125.312.36.53.25.22.625.36.375.125.86.125zm16.055-3.532q0 1.047-.266 1.969-.25.906-.75 1.594-.484.671-1.203 1.062-.718.375-1.656.375-.953 0-1.656-.328-.688-.344-1.188-.984l-.078 1.125h-1.547v-14h1.688v5.203q.484-.61 1.156-.922.688-.313 1.61-.313.937 0 1.656.375.734.36 1.218 1.031.5.657.75 1.594.266.922.266 2.016v.203zm-1.687-.203q0-.719-.141-1.36-.14-.656-.453-1.156-.313-.5-.813-.781-.5-.297-1.218-.297-.438 0-.813.125-.36.11-.656.313-.281.203-.5.484-.219.266-.375.594v4.312q.156.328.375.61.234.28.515.5.297.203.657.312.375.11.812.11.688 0 1.188-.282.5-.297.812-.781.313-.5.453-1.14.157-.641.157-1.36v-.203zm4.789-8.984h5.047v12.546h3.218v1.453h-8.265v-1.453h3.36v-11.078h-3.36v-1.469zm15.29 14.187q-1.032 0-1.907-.36-.875-.359-1.5-.984-.61-.64-.953-1.515-.344-.875-.344-1.907v-.39q0-1.188.375-2.125.39-.953 1.016-1.594.64-.656 1.437-1 .813-.344 1.656-.344 1.063 0 1.86.375.797.36 1.328 1.016.531.64.781 1.531.266.875.266 1.906v.75h-7.031q.015.688.25 1.282.234.578.64 1.03.406.438.969.704.562.25 1.25.25.906 0 1.594-.36.703-.374 1.172-.968l1.03.797q-.25.375-.624.719-.36.328-.844.593-.484.266-1.094.422-.61.172-1.328.172zm-.22-8.844q-.515 0-.968.188-.453.187-.813.547-.36.359-.625.89-.25.516-.344 1.203h5.297v-.125q-.015-.5-.187-.984-.156-.484-.469-.86-.297-.39-.766-.624-.468-.235-1.125-.235z"/><path fill="#e67c73" d="M789.576 195.67h3.625v18h-3.625v-1.391h2.031v-15.235h-2.031v-1.375zm11.195 0h3.625v18h-3.625v-1.391h2.032v-15.235h-2.032v-1.375zm12.024 14.062q0-.266.078-.5.094-.25.25-.422.172-.188.422-.281.25-.094.578-.094.328 0 .578.094.25.093.406.28.172.173.25.423.094.234.094.5 0 .265-.094.5-.078.234-.25.406-.156.172-.406.266-.25.093-.578.093-.328 0-.578-.093-.25-.094-.422-.266-.156-.172-.25-.406-.078-.235-.078-.5zm0-8q0-.266.078-.5.094-.25.25-.422.172-.188.422-.281.25-.094.578-.094.328 0 .578.094.25.093.406.28.172.173.25.423.094.234.094.5 0 .265-.094.5-.078.234-.25.406-.156.172-.406.266-.25.093-.578.093-.328 0-.578-.093-.25-.094-.422-.266-.156-.172-.25-.406-.078-.235-.078-.5z"/><path fill="#4285f4" d="M834.405 210.826v-7.985h-2.594v-1.875h2.594v-.531q0-.984.312-1.719.313-.75.875-1.266.579-.515 1.391-.765.828-.266 1.844-.266.312 0 .61.031.296.016.577.063.282.031.563.078.297.047.61.094l-.173 1.984q-.343-.062-.781-.11-.437-.062-1.031-.062-1.188 0-1.719.5-.531.5-.531 1.438v.531h3.547v1.875h-3.547v7.984h-2.547zm14.899 0q-.094-.188-.157-.422-.062-.235-.109-.5-.203.234-.484.437-.266.188-.61.344-.328.156-.734.234-.39.094-.86.094-.75 0-1.39-.219-.625-.219-1.078-.61-.453-.39-.719-.937-.25-.547-.25-1.187 0-1.547 1.156-2.39 1.172-.86 3.469-.86h1.422v-.594q0-.703-.469-1.11-.469-.421-1.344-.421-.765 0-1.125.328-.359.328-.359.89h-2.531q0-.624.281-1.187.281-.578.812-1 .532-.422 1.297-.672.766-.25 1.766-.25.89 0 1.656.219.781.219 1.344.64.562.423.875 1.079.328.656.328 1.5v4.234q0 .797.094 1.313.094.515.297.89v.156h-2.578zm-2.407-1.782q.375 0 .703-.078.329-.094.594-.234.266-.156.453-.344.203-.188.313-.375v-1.703h-1.297q-.594 0-1.016.125-.422.11-.687.312-.266.203-.39.5-.126.282-.126.625 0 .5.36.844.359.328 1.093.328zm7.977-12.219h5.516v11.938h2.812v2.063h-8.328v-2.063h2.953v-9.86h-2.953v-2.077zm17.024 11.297q0-.234-.11-.406-.093-.172-.374-.312-.266-.157-.72-.282-.437-.125-1.124-.265-.86-.172-1.578-.422-.703-.266-1.22-.625-.515-.375-.796-.86-.281-.484-.281-1.109 0-.61.281-1.156.297-.563.844-.984.547-.422 1.328-.657.781-.25 1.766-.25 1.03 0 1.843.235.828.234 1.39.672.579.421.876 1 .297.578.297 1.265h-2.531q0-.578-.47-.953-.452-.39-1.405-.39-.891 0-1.344.328-.438.312-.438.765 0 .219.078.406.094.188.329.344.234.14.625.266.406.125 1.03.219.891.14 1.657.375.766.218 1.313.578.562.359.875.875.328.515.328 1.234 0 .656-.328 1.203-.313.547-.891.953-.578.406-1.406.625-.813.219-1.813.219-1.11 0-1.969-.281-.859-.297-1.437-.766-.563-.469-.86-1.062-.296-.594-.296-1.203h2.422q.015.406.203.687.203.281.5.469.297.172.687.265.39.078.797.078.938 0 1.422-.296.5-.313.5-.782zm9.617 2.891q-1.14 0-2.078-.375-.922-.375-1.594-1.016-.656-.64-1.015-1.515-.36-.875-.36-1.86v-.375q0-1.125.36-2.047.36-.937.984-1.609.64-.687 1.516-1.047.875-.375 1.906-.375 1.063 0 1.89.344.844.344 1.423.984.578.641.875 1.547.312.89.312 1.969v1.078h-6.687q.062.5.28.922.235.406.579.719.344.297.781.469.453.156.985.156.375 0 .734-.078.375-.078.703-.22.344-.14.64-.343.298-.219.516-.5l1.266 1.375q-.234.328-.625.656-.375.328-.89.578-.516.25-1.141.407-.625.156-1.36.156zm-.297-8.172q-.421 0-.78.156-.36.141-.626.422-.265.281-.453.672-.187.39-.266.875h4.141v-.203q-.016-.39-.156-.75-.125-.36-.39-.61-.25-.265-.626-.406-.36-.156-.844-.156z"/><path fill="#ff0" d="M853.07 218.905h55.979v22.4H853.07v-22.4z"/><path fill="#e67c73" d="M659.026 223.044h-2.016v15.235h2.016v1.39h-3.61v-18h3.61v1.375zm11.195 0h-2.015v15.235h2.015v1.39h-3.61v-18h3.61v1.375z"/><path fill="#673ab7" d="M684.104 232.841q-.109.922-.468 1.688-.36.765-.938 1.328-.562.547-1.344.86-.765.296-1.734.296-.812 0-1.484-.234-.672-.235-1.203-.641-.516-.422-.891-.969-.375-.562-.625-1.218-.25-.657-.375-1.375-.125-.72-.14-1.454v-1.843q.015-.75.14-1.47.125-.718.375-1.374.25-.656.625-1.203.375-.563.89-.969.532-.422 1.188-.656.672-.235 1.5-.235 1 0 1.781.313.782.312 1.344.875.563.547.906 1.344.344.78.453 1.718h-1.687q-.078-.593-.281-1.109-.203-.531-.547-.922-.328-.39-.813-.61-.484-.218-1.156-.218-.594 0-1.062.203-.454.188-.797.531-.328.329-.547.782-.219.437-.36.937-.14.5-.203 1.031-.047.516-.047 1.016v1.86q0 .5.047 1.03.063.516.203 1.016.141.5.36.953.219.438.547.782.343.343.797.547.453.187 1.062.187.672 0 1.156-.203.485-.219.813-.594.344-.375.547-.89.203-.516.28-1.11h1.688zm2.134-1.031q0-1.063.312-1.984.313-.922.89-1.594.579-.672 1.407-1.047.828-.39 1.86-.39 1.046 0 1.874.39.844.375 1.422 1.047.578.672.89 1.594.313.921.313 1.984v.203q0 1.063-.312 1.969-.313.906-.89 1.594-.579.671-1.407 1.062-.828.375-1.86.375-1.046 0-1.89-.375-.828-.39-1.406-1.062-.578-.688-.891-1.594-.312-.906-.312-1.969v-.203zm1.687.203q0 .719.172 1.39.172.657.516 1.157.359.5.89.797.531.281 1.235.281.687 0 1.203-.281.53-.297.875-.797.359-.5.53-1.156.173-.672.173-1.391v-.203q0-.719-.188-1.375-.172-.672-.531-1.172-.344-.5-.875-.797-.516-.297-1.219-.297-.703 0-1.218.297-.516.297-.875.797-.344.5-.516 1.172-.172.656-.172 1.375v.203zm11.492-5.047l.125 1.453q.532-.765 1.313-1.187.781-.438 1.75-.438.781 0 1.406.219.64.219 1.078.688.453.453.688 1.171.25.72.25 1.688v6.266h-1.688v-6.22q0-.655-.156-1.109-.14-.453-.422-.734-.281-.297-.703-.422-.406-.125-.953-.125-.844 0-1.484.422-.641.422-1.032 1.125v7.063h-1.687v-9.86h1.515zm12.196 9.86v-8.547h-2.703v-1.313h2.703v-.687q0-.953.281-1.657.282-.718.782-1.203.515-.484 1.218-.734.719-.25 1.594-.25.594 0 1.156.11.578.093 1.172.25l-.187 1.39q-.375-.125-.875-.219t-1.063-.094q-1.187.016-1.781.61-.594.578-.594 1.797v.687h3.797v1.313h-3.797v8.547h-1.703zm8.955-9.86h5.047v8.406h3.218v1.454h-8.265v-1.454h3.36v-6.937h-3.36v-1.469zm3.14-2.578q0-.422.25-.703.25-.297.766-.297.5 0 .75.297.25.281.25.703 0 .406-.25.688-.25.265-.75.265-.516 0-.766-.265-.25-.282-.25-.688zm7.493 7.422q0-1.094.265-2.016.266-.937.766-1.593.516-.672 1.25-1.032.734-.375 1.64-.375.923 0 1.61.328.688.313 1.172.922l.078-1.078h1.531v9.656q0 .97-.312 1.72-.297.765-.86 1.28-.546.532-1.312.797-.766.282-1.688.282-.39 0-.89-.094-.485-.078-.985-.281-.5-.188-.968-.516-.47-.328-.813-.813l.875-1q.313.375.64.625.329.266.657.422.344.157.672.219.344.063.687.063.594 0 1.079-.172.484-.172.828-.5.343-.328.515-.828.188-.485.188-1.125v-.844q-.485.562-1.156.86-.672.296-1.563.296-.89 0-1.625-.375-.734-.39-1.234-1.062-.5-.688-.782-1.594-.265-.922-.265-1.969v-.203zm1.672.203q0 .719.156 1.36.156.64.469 1.14.328.484.828.781.5.282 1.203.282.437 0 .781-.094.36-.11.64-.297.282-.203.5-.469.22-.265.376-.578v-4.516q-.156-.312-.375-.562-.219-.266-.516-.453-.281-.188-.625-.281-.344-.11-.765-.11-.704 0-1.22.297-.5.281-.827.781-.313.5-.47 1.157-.155.64-.155 1.359v.203zm16.226 3.453q-.5.735-1.234 1.14-.734.407-1.703.407-.781 0-1.406-.234-.625-.25-1.078-.766-.438-.516-.688-1.297-.234-.781-.234-1.89v-5.86h1.687v5.875q0 .813.125 1.344.125.516.375.828.266.313.625.453.375.125.86.125 1.03 0 1.656-.422.64-.422.953-1.125v-7.078h1.687v9.86h-1.53l-.095-1.36zm11.259-8.672q.234 0 .484.016.266 0 .484.031.235.031.422.078.203.047.344.11l-.234 1.64q-.485-.11-.938-.156-.437-.047-.922-.047-1.187 0-1.922.547-.734.531-1.078 1.484v6.329h-1.687v-9.86h1.593l.094 1.563q.594-.797 1.438-1.266.843-.469 1.922-.469zm11.21 10.032q-.093-.188-.155-.47-.063-.296-.094-.609-.25.266-.563.5-.312.22-.703.391-.375.172-.812.266-.422.109-.891.109-.797 0-1.437-.219-.625-.234-1.063-.625-.437-.39-.687-.922-.235-.53-.235-1.156 0-.812.313-1.422.328-.61.922-1.015.593-.407 1.421-.594.844-.203 1.875-.203h1.829v-.781q0-.454-.172-.797-.157-.36-.453-.61-.297-.25-.735-.39-.422-.141-.969-.141-.5 0-.906.14-.39.126-.672.344-.265.204-.422.485-.14.281-.14.594h-1.688q0-.532.266-1.047.281-.532.781-.938.5-.422 1.219-.672.734-.25 1.656-.25.844 0 1.563.203.718.204 1.234.625.531.407.828 1.032.297.609.297 1.437v4.578q0 .5.094 1.047.094.547.25.969v.14h-1.75zm-2.984-1.282q.5 0 .922-.125.438-.14.782-.343.343-.204.593-.47.266-.28.407-.562v-2h-1.563q-1.469 0-2.297.438-.812.437-.812 1.375 0 .36.125.672.125.312.359.53.25.22.625.36.375.125.86.125zm16.055-3.531q0 1.047-.265 1.969-.25.906-.75 1.594-.485.671-1.203 1.062-.72.375-1.657.375-.953 0-1.656-.328-.687-.344-1.187-.984l-.079 1.125h-1.546v-14h1.687v5.203q.484-.61 1.156-.922.688-.313 1.61-.313.937 0 1.656.375.734.36 1.219 1.032.5.656.75 1.593.265.922.265 2.016v.203zm-1.687-.203q0-.719-.14-1.36-.141-.656-.454-1.156-.312-.5-.812-.781-.5-.297-1.22-.297-.437 0-.812.125-.36.11-.656.313-.281.203-.5.484-.219.266-.375.594v4.312q.156.328.375.61.234.28.516.5.297.203.656.312.375.11.812.11.688 0 1.188-.282.5-.297.812-.781.313-.5.454-1.14.156-.641.156-1.36v-.203zm4.79-8.984h5.046v12.546h3.219v1.454h-8.266v-1.454h3.36v-11.078h-3.36v-1.468zm15.288 14.187q-1.03 0-1.906-.36-.875-.359-1.5-.984-.61-.64-.953-1.515-.344-.875-.344-1.907v-.39q0-1.188.375-2.125.39-.953 1.016-1.594.64-.656 1.437-1 .813-.344 1.657-.344 1.062 0 1.86.375.796.36 1.327 1.016.531.64.781 1.531.266.875.266 1.906v.75h-7.031q.015.688.25 1.282.234.578.64 1.03.407.438.97.704.562.25 1.25.25.905 0 1.593-.36.703-.374 1.172-.968l1.031.797q-.25.375-.625.719-.36.328-.844.593-.484.266-1.093.422-.61.172-1.329.172zm-.218-8.844q-.516 0-.97.188-.452.187-.812.547-.359.359-.625.89-.25.516-.343 1.203h5.297v-.125q-.016-.5-.188-.984-.156-.484-.469-.86-.297-.39-.765-.624-.47-.235-1.125-.235z"/><path fill="#e67c73" d="M811.976 221.67h3.625v18h-3.625v-1.391h2.031v-15.235h-2.031v-1.375zm11.196 0h3.625v18h-3.625v-1.391h2.03v-15.235h-2.03v-1.375zm12.023 14.062q0-.266.078-.5.094-.25.25-.422.172-.188.422-.281.25-.094.578-.094.328 0 .578.094.25.093.407.28.172.173.25.423.093.234.093.5 0 .265-.093.5-.078.234-.25.406-.157.172-.407.266-.25.093-.578.093-.328 0-.578-.093-.25-.094-.422-.266-.156-.172-.25-.406-.078-.235-.078-.5zm0-8q0-.266.078-.5.094-.25.25-.422.172-.188.422-.281.25-.094.578-.094.328 0 .578.094.25.093.407.28.172.173.25.423.093.234.093.5 0 .265-.093.5-.078.234-.25.406-.157.172-.407.266-.25.093-.578.093-.328 0-.578-.093-.25-.094-.422-.266-.156-.172-.25-.406-.078-.235-.078-.5z"/><path fill="#4285f4" d="M856.805 236.826v-7.985h-2.594v-1.875h2.594v-.531q0-.984.313-1.719.312-.75.875-1.266.578-.515 1.39-.765.828-.266 1.844-.266.313 0 .61.031.296.016.578.063.28.031.562.078.297.047.61.094l-.172 1.984q-.344-.062-.782-.11-.437-.062-1.03-.062-1.188 0-1.72.5-.53.5-.53 1.438v.531h3.546v1.875h-3.547v7.984h-2.547zm14.899 0q-.094-.188-.156-.422-.063-.235-.11-.5-.203.234-.484.437-.266.188-.61.344-.328.156-.734.234-.39.094-.86.094-.75 0-1.39-.219-.625-.219-1.078-.61-.453-.39-.719-.937-.25-.547-.25-1.187 0-1.547 1.157-2.39 1.171-.86 3.468-.86h1.422v-.594q0-.703-.469-1.11-.468-.421-1.343-.421-.766 0-1.125.328-.36.328-.36.89h-2.531q0-.624.281-1.187.282-.578.813-1 .531-.422 1.297-.672.765-.25 1.765-.25.89 0 1.657.219.78.219 1.343.64.563.423.875 1.079.328.656.328 1.5v4.234q0 .797.094 1.313.094.515.297.89v.156h-2.578zm-2.406-1.782q.375 0 .703-.078.328-.094.594-.234.265-.156.453-.344.203-.188.312-.375v-1.703h-1.297q-.593 0-1.015.125-.422.11-.688.312-.265.203-.39.5-.125.282-.125.625 0 .5.359.844.36.328 1.094.328zm7.976-12.219h5.516v11.938h2.813v2.063h-8.329v-2.063h2.954v-9.86h-2.954v-2.077zm17.024 11.297q0-.234-.11-.406-.093-.172-.374-.312-.266-.157-.719-.282-.438-.125-1.125-.265-.86-.172-1.578-.422-.703-.266-1.219-.625-.516-.375-.797-.86-.281-.484-.281-1.109 0-.61.281-1.156.297-.563.844-.984.547-.422 1.328-.657.781-.25 1.766-.25 1.031 0 1.843.235.829.234 1.391.672.578.421.875 1 .297.578.297 1.265h-2.531q0-.578-.469-.953-.453-.39-1.406-.39-.89 0-1.344.328-.438.312-.438.765 0 .219.079.406.093.188.328.344.234.14.625.266.406.125 1.031.219.89.14 1.656.375.766.218 1.313.578.562.359.875.875.328.515.328 1.234 0 .656-.328 1.203-.313.547-.89.953-.579.406-1.407.625-.813.219-1.813.219-1.109 0-1.968-.281-.86-.297-1.438-.766-.562-.469-.86-1.062-.296-.594-.296-1.203h2.422q.015.406.203.687.203.281.5.469.297.172.687.265.391.078.797.078.938 0 1.422-.296.5-.313.5-.782zm9.618 2.891q-1.141 0-2.079-.375-.921-.375-1.593-1.016-.657-.64-1.016-1.515-.36-.875-.36-1.86v-.375q0-1.125.36-2.047.36-.937.984-1.609.641-.687 1.516-1.047.875-.375 1.906-.375 1.063 0 1.891.344.844.344 1.422.984.578.641.875 1.547.312.89.312 1.969v1.078h-6.687q.062.5.281.922.234.406.578.719.344.297.781.469.454.156.985.156.375 0 .734-.078.375-.078.703-.22.344-.14.641-.343.297-.219.516-.5l1.265 1.375q-.234.328-.625.656-.375.328-.89.578-.516.25-1.141.407-.625.156-1.36.156zm-.297-8.172q-.422 0-.782.156-.359.141-.625.422-.265.281-.453.672-.187.39-.265.875h4.14v-.203q-.015-.39-.156-.75-.125-.36-.39-.61-.25-.265-.626-.406-.359-.156-.843-.156z"/><path fill="#34a853" d="M342.913 187.45c0-6.282 5.093-11.375 11.376-11.375h142.068a11.376 11.376 0 0 1 11.375 11.375v45.501c0 6.283-5.093 11.376-11.375 11.376H354.289c-6.283 0-11.376-5.093-11.376-11.376z" fill-rule="evenodd"/><path stroke="#666" stroke-linejoin="round" stroke-linecap="butt" d="M342.913 187.45c0-6.282 5.093-11.375 11.376-11.375h142.068a11.376 11.376 0 0 1 11.375 11.375v45.501c0 6.283-5.093 11.376-11.375 11.376H354.289c-6.283 0-11.376-5.093-11.376-11.376z"/><path fill="#fff" d="M396.363 215.848h-5.687l-1.125 3.953h-3.86l6.22-18.953h3.312l6.093 18.953h-3.859l-1.094-3.953zm-4.797-3.11h3.938l-1.953-6.984-1.985 6.984zm21.715-7.281q.813 0 1.5.11.704.109 1.141.25l-.531 3.593q-.719-.172-1.469-.25-.75-.078-1.422-.078-1.531 0-2.453.594-.906.578-1.36 1.672v8.453h-3.624v-14.078h3.375l.172 2.297q.859-1.204 2.046-1.875 1.204-.688 2.625-.688zm15.997 0q.812 0 1.5.11.703.109 1.14.25l-.53 3.593q-.72-.172-1.47-.25-.75-.078-1.421-.078-1.532 0-2.454.594-.906.578-1.359 1.672v8.453h-3.625v-14.078h3.375l.172 2.297q.86-1.204 2.047-1.875 1.203-.688 2.625-.688zm14.684 14.344q-.141-.266-.235-.594-.078-.344-.156-.719-.297.328-.687.61-.391.28-.875.5-.47.218-1.047.343-.563.125-1.22.125-1.077 0-1.983-.312-.907-.313-1.563-.875-.656-.563-1.016-1.328-.359-.781-.359-1.688 0-2.234 1.656-3.453 1.657-1.219 4.953-1.219h2.016v-.828q0-1.015-.672-1.61-.656-.593-1.906-.593-1.11 0-1.625.485-.5.468-.5 1.265h-3.61q0-.906.391-1.703.406-.812 1.156-1.422.766-.61 1.86-.969 1.11-.359 2.531-.359 1.266 0 2.36.313 1.109.312 1.906.921.812.61 1.265 1.547.469.922.469 2.157v6.03q0 1.141.14 1.891.141.735.407 1.266v.219h-3.656zm-3.453-2.531q.546 0 1.015-.125.469-.141.844-.344.375-.219.64-.485.282-.265.438-.53v-2.423h-1.844q-.843 0-1.453.157-.594.156-.969.453-.375.297-.562.703-.188.406-.188.89 0 .735.516 1.22.516.484 1.563.484zm16.636-3.375l.422 1.5 3.75-9.672h4l-7.156 16.187q-.234.531-.61 1.156-.359.625-.921 1.157-.563.53-1.36.89-.796.375-1.89.375-.266 0-.485-.015-.218-.016-.437-.063-.203-.031-.406-.078-.203-.031-.438-.11l.453-2.75q.22 0 .563.016.344.016.547.016.437 0 .765-.266.328-.25.563-.562.234-.313.375-.578.156-.25.203-.25l.875-1.641-5.969-13.484h3.969l3.187 8.172z"/><path fill="#bdbdbd" d="M353.921 244.505h142.583v59.717H353.92z" fill-rule="evenodd"/><path stroke="#666" stroke-linejoin="round" stroke-linecap="butt" d="M353.921 244.505h142.583v59.717H353.92z"/><path fill="#000" d="M380.813 267l-.218 3.843h-1.438l.016-3.672v-1.328h1.64V267zm8.112-1.157h5.765v14.328h3.672v1.672h-9.437v-1.672h3.844v-12.64h-3.844v-1.688zm17.486 16.203q-1.187 0-2.187-.406-1-.406-1.703-1.125-.704-.734-1.11-1.734-.39-1-.39-2.172v-.438q0-1.375.437-2.453.438-1.078 1.156-1.812.735-.75 1.657-1.14.921-.391 1.89-.391 1.219 0 2.125.421.906.407 1.5 1.157.61.75.906 1.765.297 1 .297 2.172v.875h-8.046q.03.766.296 1.453.266.672.735 1.172.469.5 1.11.797.64.297 1.421.297 1.031 0 1.828-.422.813-.422 1.344-1.11l1.172.923q-.281.421-.703.812-.422.39-.97.703-.546.297-1.25.469-.702.187-1.515.187zm-.25-10.093q-.594 0-1.11.218-.515.204-.937.625-.421.407-.703 1-.281.594-.406 1.375h6.063v-.14q-.032-.563-.22-1.11-.171-.562-.53-1-.344-.437-.891-.703-.531-.265-1.266-.265zm9.8-1.375l.124 1.656q.625-.875 1.516-1.36.89-.5 2-.5.89 0 1.61.25.718.25 1.234.782.515.515.78 1.344.282.812.282 1.937v7.156h-1.922v-7.109q0-.75-.172-1.266-.172-.53-.5-.843-.328-.329-.797-.47-.468-.155-1.093-.155-.97 0-1.703.484-.735.484-1.172 1.281v8.078h-1.922v-11.265h1.734zm10.704 5.531q0-1.25.313-2.313.312-1.062.89-1.812.579-.766 1.407-1.188.844-.421 1.89-.421 1.047 0 1.829.375.796.359 1.343 1.046l.094-1.218h1.75v11.031q0 1.11-.36 1.969-.343.875-.968 1.468-.625.61-1.5.922-.875.313-1.938.313-.437 0-1-.11-.562-.093-1.14-.312-.578-.219-1.125-.594-.531-.375-.922-.937l1-1.157q.36.438.734.735.375.297.75.469.39.171.782.25.39.078.765.078.688 0 1.235-.203.562-.188.953-.579.39-.375.593-.937.22-.563.22-1.281v-.969q-.563.64-1.329.984-.766.328-1.781.328-1.031 0-1.875-.437-.828-.438-1.406-1.203-.579-.766-.891-1.813-.313-1.047-.313-2.265v-.219zm1.938.219q0 .828.172 1.578.172.734.531 1.297.375.562.938.89.578.328 1.39.328.5 0 .89-.125.407-.125.72-.343.328-.219.578-.516.25-.297.437-.672v-5.156q-.187-.36-.437-.64-.25-.298-.578-.516-.329-.219-.72-.328-.39-.125-.874-.125-.813 0-1.39.343-.579.328-.954.891-.36.562-.531 1.312-.172.75-.172 1.563v.219zm15.783-8.485v2.735h4.297v1.484h-4.297v6.125q0 .656.157 1.094.171.422.468.672.297.25.672.36.375.108.813.108.312 0 .64-.03l.64-.095q.329-.062.595-.109.28-.062.453-.11l.281 1.376q-.25.14-.594.25-.328.11-.734.187-.406.078-.86.11-.453.046-.906.046-.75 0-1.406-.203-.64-.218-1.125-.672-.484-.468-.766-1.203-.265-.734-.265-1.78v-6.126h-2.953v-1.484h2.953v-2.735h1.937zm10.159 4.407q.609-.891 1.484-1.375.89-.5 2-.5.89 0 1.61.25.718.25 1.234.796.515.532.781 1.36.281.828.281 1.969v7.093h-1.922v-7.109q0-1.39-.672-2.063-.656-.687-1.89-.671-.922 0-1.688.453-.75.453-1.218 1.203v8.187h-1.922v-16h1.922v6.407zm15.861-5.25l-.219 3.843h-1.437l.015-3.672v-1.328h1.641V267z"/><path fill="#bdbdbd" d="M353.921 304.209h142.583v59.716H353.92z" fill-rule="evenodd"/><path stroke="#666" stroke-linejoin="round" stroke-linecap="butt" d="M353.921 304.209h142.583v59.716H353.92z"/><path fill="#000" d="M412.81 326.703l-.218 3.844h-1.438l.016-3.672v-1.328h1.64v1.156zm17.33 9.047q0 1.437-.327 2.562-.328 1.125-.953 1.891t-1.532 1.156q-.906.391-2.078.391-1.156 0-2.078-.39-.906-.391-1.547-1.157-.625-.766-.968-1.89-.329-1.126-.329-2.563v-3.563q0-1.437.329-2.546.328-1.125.953-1.891.64-.781 1.547-1.172.921-.406 2.078-.406 1.156 0 2.062.406.922.39 1.547 1.172.64.766.969 1.89.328 1.11.328 2.547v3.563zm-7.874-.39l5.906-4.532q-.172-1.5-.89-2.281-.704-.797-2.047-.797-1.532 0-2.25 1.031-.72 1.016-.72 2.985v3.593zm5.937-2.688l-5.89 4.515q.172 1.47.906 2.235.734.765 2.031.765 1.532 0 2.235-1.03.718-1.048.718-3v-3.485zm10.206-5.969l-.22 3.844h-1.437l.016-3.672v-1.328h1.64v1.156z"/><path d="M475.378 280.769l157.953-86.3"/><path stroke="#666" stroke-width="4" stroke-linejoin="round" stroke-linecap="butt" d="M488.682 273.5l123.587-67.523"/><path fill="#666" stroke="#666" stroke-width="4" stroke-linecap="butt" d="M477.133 279.81a6.58 6.58 0 1 1 11.549-6.31 6.58 6.58 0 0 1-11.549 6.31z"/><path fill="#666" stroke="#666" stroke-width="4" stroke-linecap="butt" d="M615.437 211.775l12.762-14.501-19.098 2.905z" fill-rule="evenodd"/><path d="M471.984 334.008l160.82 22.52"/><path stroke="#666" stroke-width="4" stroke-linejoin="round" stroke-linecap="butt" d="M486.998 336.11l122.037 17.09"/><path fill="#666" stroke="#666" stroke-width="4" stroke-linecap="butt" d="M473.965 334.285a6.58 6.58 0 1 1 13.033 1.825 6.58 6.58 0 0 1-13.033-1.825z"/><path fill="#666" stroke="#666" stroke-width="4" stroke-linecap="butt" d="M608.119 359.742l18.893-4.025-17.06-9.06z" fill-rule="evenodd"/><path fill="#fbbc05" fill-opacity=".377" d="M632.787 308.303c0-18.393 14.91-33.303 33.303-33.303h234.623a33.302 33.302 0 0 1 33.303 33.302V441.51c0 18.392-14.91 33.302-33.303 33.302H666.09c-18.393 0-33.303-14.91-33.303-33.302z" fill-rule="evenodd"/><path stroke="#666" stroke-linejoin="round" stroke-linecap="butt" d="M632.787 308.303c0-18.393 14.91-33.303 33.303-33.303h234.623a33.302 33.302 0 0 1 33.303 33.302V441.51c0 18.392-14.91 33.302-33.303 33.302H666.09c-18.393 0-33.303-14.91-33.303-33.302z"/><path fill="#000" d="M655.463 309.966v4.86h-2.562V301.56h4.531q1.094 0 1.969.312.875.313 1.484.875.61.563.938 1.344.343.781.343 1.75 0 .89-.343 1.64-.328.75-.938 1.313-.61.547-1.484.86-.875.312-1.969.312h-1.969zm0-2.078h1.969q.547 0 .938-.156.406-.172.671-.453.282-.282.407-.657.14-.375.14-.765 0-.469-.14-.86-.125-.406-.407-.703-.265-.312-.671-.484-.391-.172-.938-.172h-1.969v4.25zm15.633-3.094q.578 0 1.063.078.484.063.797.157l-.375 2.53q-.5-.124-1.032-.171-.515-.062-1-.062-1.062 0-1.703.406-.64.406-.968 1.172v5.922h-2.532v-9.86h2.36l.125 1.61q.593-.829 1.437-1.297.844-.485 1.828-.485zm3.774 5.016q0-1.078.312-1.984.313-.922.907-1.594.593-.688 1.453-1.063.86-.375 1.969-.375 1.125 0 1.984.375.86.375 1.453 1.063.61.672.906 1.594.313.906.313 1.984v.187q0 1.079-.313 2-.297.922-.89 1.594-.594.672-1.469 1.047-.86.375-1.953.375-1.125 0-2-.375-.86-.375-1.453-1.047-.594-.672-.907-1.594-.312-.921-.312-2v-.187zm2.531.187q0 .625.11 1.172.125.532.375.938.265.406.671.64.407.235.985.235.547 0 .937-.235.407-.234.657-.64.25-.406.375-.938.125-.547.125-1.172v-.187q0-.61-.125-1.14-.125-.548-.375-.954-.25-.406-.657-.64-.39-.235-.968-.235-.563 0-.97.235-.39.234-.655.64-.25.406-.375.953-.11.532-.11 1.14v.188zm17.868-.015q0 1.078-.25 2-.25.922-.75 1.594-.485.671-1.203 1.062-.72.375-1.641.375-.797 0-1.406-.266-.594-.28-1.032-.78v4.655h-2.53v-13.656h2.327l.094.969q.453-.547 1.078-.844.625-.297 1.453-.297.938 0 1.657.36.718.359 1.203 1.015.5.657.75 1.578.25.922.25 2.047v.188zm-2.532-.188q0-.61-.125-1.156-.109-.547-.359-.937-.234-.407-.61-.625-.374-.235-.906-.235-.671 0-1.093.266-.422.265-.657.734v4.11q.235.468.657.75.422.28 1.11.28.53 0 .905-.234.391-.25.625-.656.235-.406.344-.953.11-.547.11-1.156v-.188zm9.65 5.219q-1.141 0-2.079-.375-.922-.375-1.594-1.016-.656-.64-1.015-1.515-.36-.875-.36-1.86v-.375q0-1.125.36-2.046.359-.938.984-1.61.64-.687 1.516-1.047.875-.375 1.906-.375 1.062 0 1.89.344.844.344 1.422.984.579.641.875 1.547.313.89.313 1.969v1.078h-6.688q.063.5.282.922.234.406.578.719.344.297.781.469.453.156.984.156.375 0 .735-.078.375-.078.703-.22.344-.14.64-.343.297-.219.516-.5l1.266 1.375q-.235.328-.625.656-.375.329-.89.579-.516.25-1.141.406-.625.156-1.36.156zm-.298-8.172q-.422 0-.781.156-.36.141-.625.422-.266.282-.453.672-.188.39-.266.875h4.14v-.203q-.015-.39-.155-.75-.125-.36-.391-.61-.25-.265-.625-.406-.36-.156-.844-.156zm13.79-2.047q.578 0 1.062.078.484.063.797.157l-.375 2.53q-.5-.124-1.031-.171-.516-.062-1-.062-1.063 0-1.703.406-.641.406-.97 1.172v5.922h-2.53v-9.86h2.359l.125 1.61q.594-.829 1.437-1.297.844-.485 1.829-.485zm8.773-2.234v2.406h3.672v1.875h-3.672v4.235q0 .53.11.89.125.36.343.578.235.219.563.313.328.078.719.078.297 0 .593-.016.313-.031.594-.062.281-.047.516-.094.25-.047.422-.094l.234 1.735q-.25.156-.61.28-.359.11-.765.173-.39.078-.828.11-.438.046-.844.046-.812 0-1.484-.203-.656-.219-1.125-.672-.469-.453-.735-1.14-.25-.704-.25-1.672v-4.485h-2.25v-1.875h2.25v-2.406h2.547zm10.743 8.125l.297 1.062 2.625-6.78h2.797l-5.016 11.327q-.156.375-.422.813-.25.437-.64.812-.391.375-.954.625-.562.266-1.328.266-.187 0-.344-.016-.156-.015-.296-.047-.141-.015-.282-.046-.14-.032-.312-.079l.312-1.921h.39q.25.015.392.015.296 0 .53-.187.235-.172.391-.391.172-.219.266-.406.11-.172.14-.172l.61-1.156-4.172-9.438h2.781l2.235 5.719zm24.344 4.14q-.094-.187-.156-.421-.063-.235-.11-.5-.203.234-.484.437-.266.188-.61.344-.327.156-.734.234-.39.094-.86.094-.75 0-1.39-.219-.625-.218-1.078-.61-.453-.39-.719-.937-.25-.546-.25-1.187 0-1.547 1.157-2.39 1.172-.86 3.468-.86h1.422v-.594q0-.703-.468-1.11-.47-.421-1.344-.421-.766 0-1.125.328-.36.328-.36.89h-2.53q0-.624.28-1.187.282-.578.813-1 .531-.422 1.297-.672.765-.25 1.765-.25.891 0 1.657.219.78.219 1.343.64.563.423.875 1.079.329.656.329 1.5v4.234q0 .797.093 1.313.094.515.297.89v.157h-2.578zm-2.406-1.78q.375 0 .703-.079.328-.094.594-.234.265-.156.453-.344.203-.187.312-.375v-1.703h-1.297q-.593 0-1.015.125-.422.11-.688.312-.265.204-.39.5-.125.282-.125.625 0 .5.359.844.36.328 1.094.328zm12.102-10.485v2.406h3.671v1.875h-3.671v4.235q0 .53.109.89.125.36.344.578.234.219.562.313.328.078.719.078.297 0 .594-.016.312-.031.593-.062.282-.047.516-.094.25-.047.422-.094l.234 1.735q-.25.156-.609.28-.36.11-.766.173-.39.078-.828.11-.437.046-.844.046-.812 0-1.484-.203-.656-.219-1.125-.672-.469-.453-.734-1.14-.25-.704-.25-1.672v-4.485h-2.25v-1.875h2.25v-2.406h2.547zm11.195 0v2.406h3.672v1.875h-3.672v4.235q0 .53.11.89.125.36.343.578.235.219.563.313.328.078.719.078.296 0 .593-.016.313-.031.594-.062.281-.047.516-.094.25-.047.422-.094l.234 1.735q-.25.156-.61.28-.359.11-.765.173-.39.078-.828.11-.438.046-.844.046-.812 0-1.484-.203-.657-.219-1.125-.672-.47-.453-.735-1.14-.25-.704-.25-1.672v-4.485h-2.25v-1.875h2.25v-2.406h2.547zm13.618 2.234q.578 0 1.062.078.485.063.797.157l-.375 2.53q-.5-.124-1.031-.171-.516-.062-1-.062-1.063 0-1.703.406-.641.406-.97 1.172v5.922h-2.53v-9.86h2.359l.125 1.61q.594-.829 1.438-1.297.843-.485 1.828-.485zm4.789.172h5.375v7.797h2.672v2.063h-8.047v-2.063h2.812v-5.719h-2.812v-2.078zm2.625-2.515q0-.297.11-.547.109-.25.296-.422.188-.188.453-.281.282-.11.61-.11.672 0 1.062.39.39.376.39.97 0 .593-.39.968t-1.062.375q-.328 0-.61-.093-.265-.11-.453-.282-.187-.187-.297-.437-.11-.25-.11-.531zm16.79 7.546q0 1.11-.25 2.032-.235.906-.72 1.578-.484.656-1.203 1.031-.718.375-1.672.375-.875 0-1.515-.328-.625-.328-1.078-.906l-.125 1.047h-2.266v-14h2.531v5.03q.438-.5 1.032-.78.593-.282 1.39-.282.969 0 1.688.375.734.36 1.218 1.032.485.656.72 1.593.25.922.25 2.016v.187zm-2.532-.187q0-.61-.094-1.14-.094-.548-.328-.938-.219-.406-.61-.64-.374-.25-.937-.25-.703 0-1.14.296-.422.297-.657.797v3.937q.235.5.657.797.437.282 1.156.282.578 0 .937-.22.375-.218.594-.609.234-.406.328-.937.094-.547.094-1.188v-.187zm11.117 3.625q-.5.75-1.203 1.172-.703.406-1.547.406-.765 0-1.406-.234-.625-.235-1.078-.75-.453-.516-.719-1.313-.25-.797-.25-1.922v-5.828h2.547v5.844q0 .61.078 1.016.094.406.282.656.187.25.5.36.312.109.75.109.765 0 1.234-.282.469-.281.719-.781v-6.922h2.547v9.86h-2.297l-.157-1.391zm9.571-10.875v2.406h3.672v1.875h-3.672v4.235q0 .53.11.89.124.36.343.578.235.219.563.313.328.078.718.078.297 0 .594-.016.313-.031.594-.062.281-.047.516-.094.25-.047.421-.094l.235 1.735q-.25.156-.61.28-.359.11-.765.173-.39.078-.828.11-.438.046-.844.046-.813 0-1.484-.203-.657-.219-1.125-.672-.47-.453-.735-1.14-.25-.704-.25-1.672v-4.485h-2.25v-1.875h2.25v-2.406h2.547zm11.32 12.453q-1.14 0-2.078-.375-.921-.375-1.593-1.016-.657-.64-1.016-1.515-.36-.875-.36-1.86v-.375q0-1.125.36-2.046.36-.938.984-1.61.641-.687 1.516-1.047.875-.375 1.906-.375 1.063 0 1.891.344.844.344 1.422.984.578.641.875 1.547.312.89.312 1.969v1.078h-6.687q.062.5.281.922.234.406.578.719.344.297.781.469.454.156.985.156.375 0 .734-.078.375-.078.703-.22.344-.14.641-.343.297-.219.516-.5l1.265 1.375q-.234.328-.625.656-.375.329-.89.579-.516.25-1.141.406-.625.156-1.36.156zm-.296-8.172q-.422 0-.782.156-.359.141-.625.422-.265.282-.453.672-.187.39-.265.875h4.14v-.203q-.015-.39-.156-.75-.125-.36-.39-.61-.25-.265-.626-.406-.359-.156-.843-.156zm13.07 5.281q0-.234-.11-.406-.093-.172-.374-.312-.266-.157-.719-.282-.437-.125-1.125-.265-.86-.172-1.578-.422-.703-.266-1.219-.625-.515-.375-.797-.86-.28-.484-.28-1.109 0-.61.28-1.156.297-.563.844-.984.547-.422 1.328-.657.782-.25 1.766-.25 1.031 0 1.844.235.828.234 1.39.672.578.421.875 1 .297.578.297 1.265h-2.531q0-.578-.469-.953-.453-.39-1.406-.39-.89 0-1.344.328-.437.312-.437.765 0 .219.078.406.094.188.328.344.234.14.625.266.406.125 1.031.219.89.14 1.656.375.766.218 1.313.578.562.359.875.875.328.515.328 1.234 0 .656-.328 1.203-.313.547-.89.953-.579.407-1.407.625-.812.219-1.812.219-1.11 0-1.97-.281-.859-.297-1.437-.766-.562-.469-.86-1.062-.296-.594-.296-1.203h2.422q.016.406.203.687.203.281.5.469.297.172.688.265.39.079.796.079.938 0 1.422-.297.5-.313.5-.782z"/><path fill="#e67c73" d="M659.026 353.044h-2.016v15.235h2.016v1.39h-3.61v-18h3.61v1.375zm11.195 0h-2.015v15.235h2.015v1.39h-3.61v-18h3.61v1.375z"/><path fill="#673ab7" d="M679.495 364.107l3.125-10.547h1.797l-4.188 13.265h-1.453l-4.203-13.265h1.813l3.109 10.547zm13.696 2.718q-.094-.187-.157-.468-.062-.297-.093-.61-.25.266-.563.5-.312.22-.703.391-.375.172-.813.266-.421.109-.89.109-.797 0-1.438-.219-.625-.234-1.062-.625-.438-.39-.688-.922-.234-.53-.234-1.156 0-.812.312-1.422.329-.61.922-1.015.594-.407 1.422-.594.844-.203 1.875-.203h1.828v-.782q0-.453-.172-.796-.156-.36-.453-.61-.297-.25-.734-.39-.422-.141-.969-.141-.5 0-.906.14-.39.126-.672.344-.266.203-.422.485-.14.281-.14.593h-1.688q0-.53.266-1.046.281-.532.781-.938.5-.422 1.219-.672.734-.25 1.656-.25.844 0 1.562.203.72.203 1.235.625.531.407.828 1.032.297.609.297 1.437v4.578q0 .5.094 1.047.093.547.25.969v.14h-1.75zm-2.985-1.28q.5 0 .922-.126.438-.14.781-.344.344-.203.594-.468.266-.282.406-.563v-2h-1.562q-1.469 0-2.297.438-.813.437-.813 1.375 0 .36.125.672.125.312.36.53.25.22.625.36.375.125.86.125zm7.961-12.72h5.047v12.547h3.219v1.453h-8.266v-1.453h3.36v-11.078h-3.36v-1.469zm17.337 12.641q-.5.734-1.235 1.14-.734.407-1.703.407-.781 0-1.406-.234-.625-.25-1.078-.766-.438-.516-.688-1.297-.234-.781-.234-1.89v-5.86h1.687v5.875q0 .813.125 1.344.125.515.375.828.266.313.625.453.375.125.86.125 1.031 0 1.656-.422.64-.422.953-1.125v-7.078h1.688v9.86h-1.532l-.093-1.36zm9.148 1.547q-1.031 0-1.906-.36-.875-.359-1.5-.984-.61-.64-.953-1.515-.344-.875-.344-1.907v-.39q0-1.188.375-2.125.39-.953 1.016-1.594.64-.656 1.437-1 .813-.344 1.657-.344 1.062 0 1.859.375.797.36 1.328 1.016.531.64.781 1.531.266.875.266 1.906v.75h-7.031q.015.688.25 1.282.234.578.64 1.03.407.438.969.704.563.25 1.25.25.906 0 1.594-.36.703-.374 1.172-.968l1.03.797q-.25.375-.624.718-.36.329-.844.594-.484.266-1.094.422-.609.172-1.328.172zm-.218-8.844q-.516 0-.97.188-.452.187-.812.547-.36.359-.625.89-.25.516-.343 1.203h5.296v-.125q-.015-.5-.187-.984-.156-.484-.469-.86-.297-.39-.765-.624-.47-.235-1.125-.235z"/><path fill="#e67c73" d="M733.598 351.67h3.625v18h-3.625v-1.391h2.031v-15.235h-2.031v-1.375zm11.195 0h3.625v18h-3.625v-1.391h2.032v-15.235h-2.032v-1.375zm12.024 14.062q0-.266.078-.5.094-.25.25-.422.172-.188.422-.281.25-.094.578-.094.328 0 .578.094.25.093.407.28.172.173.25.423.093.234.093.5 0 .265-.093.5-.078.234-.25.406-.157.172-.407.266-.25.093-.578.093-.328 0-.578-.093-.25-.094-.422-.266-.156-.172-.25-.406-.078-.235-.078-.5zm0-8q0-.266.078-.5.094-.25.25-.422.172-.188.422-.281.25-.094.578-.094.328 0 .578.094.25.093.407.28.172.173.25.423.093.234.093.5 0 .265-.093.5-.078.234-.25.406-.157.172-.407.266-.25.093-.578.093-.328 0-.578-.093-.25-.094-.422-.266-.156-.172-.25-.406-.078-.235-.078-.5z"/><path fill="#0f9d58" d="M780.646 353.841l-.203 3.36h-1.25l.015-3.204v-1.171h1.438v1.015zm13.305 12.985q-.094-.188-.157-.47-.062-.296-.093-.609-.25.266-.563.5-.312.22-.703.391-.375.172-.812.266-.422.109-.891.109-.797 0-1.438-.219-.625-.234-1.062-.625-.438-.39-.688-.922-.234-.53-.234-1.156 0-.812.313-1.422.328-.61.921-1.015.594-.407 1.422-.594.844-.203 1.875-.203h1.828v-.781q0-.454-.171-.797-.157-.36-.454-.61-.296-.25-.734-.39-.422-.141-.969-.141-.5 0-.906.14-.39.126-.672.344-.265.204-.422.485-.14.281-.14.594h-1.688q0-.532.266-1.047.281-.532.781-.938.5-.422 1.219-.672.734-.25 1.656-.25.844 0 1.563.203.718.204 1.234.625.531.407.828 1.032.297.609.297 1.437v4.578q0 .5.094 1.047.093.547.25.969v.14h-1.75zm-2.985-1.282q.5 0 .922-.125.438-.14.781-.343.344-.204.594-.47.266-.28.406-.562v-2h-1.562q-1.469 0-2.297.438-.812.437-.812 1.375 0 .36.125.672.125.312.359.53.25.22.625.36.375.125.86.125zm12.07-11.703l-.202 3.36h-1.25l.015-3.204v-1.171h1.438v1.015z"/><path fill="#e67c73" d="M659.026 379.044h-2.016v15.235h2.016v1.39h-3.61v-18h3.61v1.375zm11.195 0h-2.015v15.235h2.015v1.39h-3.61v-18h3.61v1.375z"/><path fill="#673ab7" d="M682.089 389.232l1.015-9.672h1.594l-1.61 13.265h-1.718l-1.703-10-1.719 10h-1.734l-1.61-13.265h1.594l1.016 9.672 1.703-9.672h1.469l1.703 9.672zm11.086-6.438q.234 0 .484.016.266 0 .485.031.234.031.422.078.203.047.343.11l-.234 1.64q-.484-.11-.938-.156-.437-.047-.921-.047-1.188 0-1.922.547-.735.531-1.078 1.484v6.328h-1.688v-9.859h1.594l.094 1.563q.593-.797 1.437-1.266.844-.469 1.922-.469zm4.992.172h5.047v8.406h3.219v1.453h-8.266v-1.453h3.36v-6.937h-3.36v-1.469zm3.141-2.578q0-.422.25-.703.25-.297.766-.297.5 0 .75.297.25.281.25.703 0 .406-.25.688-.25.265-.75.265-.516 0-.766-.266-.25-.28-.25-.687zm11.79.188v2.39h3.75v1.313h-3.75v5.343q0 .578.14.953t.39.594q.266.219.594.313.344.093.72.093.265 0 .546-.03.297-.032.578-.079.281-.047.516-.094.25-.047.406-.093l.234 1.203q-.218.125-.515.218-.297.094-.657.157-.343.078-.75.11-.39.046-.78.046-.657 0-1.235-.188-.563-.187-.985-.593-.421-.407-.671-1.047-.235-.64-.235-1.563v-5.343h-2.578v-1.313h2.578v-2.39h1.703zm13.68 12.25q-.094-.188-.157-.47-.062-.296-.094-.609-.25.266-.562.5-.313.22-.703.391-.375.172-.813.266-.422.109-.89.109-.797 0-1.438-.219-.625-.234-1.062-.625-.438-.39-.688-.922-.234-.53-.234-1.156 0-.812.312-1.422.328-.61.922-1.015.594-.407 1.422-.594.844-.203 1.875-.203h1.828v-.782q0-.453-.172-.796-.156-.36-.453-.61-.297-.25-.734-.39-.422-.141-.97-.141-.5 0-.905.14-.391.126-.672.344-.266.203-.422.485-.14.281-.14.593h-1.688q0-.53.265-1.046.282-.532.782-.938.5-.422 1.218-.672.735-.25 1.657-.25.843 0 1.562.203.719.203 1.235.625.53.407.828 1.032.297.609.297 1.437v4.578q0 .5.093 1.047.094.547.25.969v.14h-1.75zm-2.985-1.282q.5 0 .922-.125.437-.14.781-.344.344-.203.594-.468.265-.282.406-.563v-2h-1.562q-1.47 0-2.297.438-.813.437-.813 1.375 0 .36.125.672.125.312.36.53.25.22.625.36.375.125.859.125zm16.055-3.531q0 1.047-.266 1.969-.25.906-.75 1.593-.484.672-1.203 1.063-.719.375-1.656.375-.953 0-1.656-.328-.688-.344-1.188-.985l-.078 1.125h-1.547v-14h1.688v5.204q.484-.61 1.156-.922.687-.313 1.61-.313.937 0 1.656.375.734.36 1.218 1.031.5.657.75 1.594.266.922.266 2.016v.203zm-1.688-.203q0-.719-.14-1.36-.14-.656-.453-1.156-.313-.5-.813-.781-.5-.297-1.219-.297-.437 0-.812.125-.36.11-.656.313-.282.203-.5.484-.22.266-.375.594v4.312q.156.328.375.61.234.28.515.5.297.203.657.312.375.11.812.11.688 0 1.188-.282.5-.297.812-.781.313-.5.453-1.14.156-.641.156-1.36v-.203zm4.79-8.985h5.047v12.547h3.218v1.453h-8.265v-1.453h3.36v-11.078h-3.36v-1.469zm15.289 14.188q-1.031 0-1.906-.36-.875-.359-1.5-.984-.61-.64-.953-1.515-.344-.875-.344-1.907v-.39q0-1.188.375-2.125.39-.953 1.016-1.594.64-.656 1.437-1 .813-.344 1.656-.344 1.063 0 1.86.375.797.36 1.328 1.016.531.64.781 1.531.266.875.266 1.906v.75h-7.032q.016.688.25 1.282.235.578.641 1.03.406.438.969.704.562.25 1.25.25.906 0 1.594-.36.703-.374 1.171-.968l1.032.797q-.25.375-.625.718-.36.329-.844.594-.484.266-1.094.422-.61.172-1.328.172zm-.219-8.844q-.515 0-.968.188-.454.187-.813.547-.36.359-.625.89-.25.516-.344 1.203h5.297v-.125q-.015-.5-.187-.984-.157-.484-.47-.86-.296-.39-.765-.624-.468-.235-1.125-.235z"/><path fill="#e67c73" d="M767.185 377.67h3.625v18h-3.625v-1.391h2.03v-15.235h-2.03v-1.375zm11.195 0h3.625v18h-3.625v-1.391h2.031v-15.235h-2.03v-1.375zm12.024 14.062q0-.266.078-.5.094-.25.25-.422.172-.188.422-.281.25-.094.578-.094.328 0 .578.094.25.093.406.28.172.173.25.423.094.234.094.5 0 .265-.094.5-.078.234-.25.406-.156.172-.406.266-.25.093-.578.093-.328 0-.578-.093-.25-.094-.422-.266-.156-.172-.25-.406-.078-.235-.078-.5zm0-8q0-.266.078-.5.094-.25.25-.422.172-.188.422-.281.25-.094.578-.094.328 0 .578.094.25.093.406.28.172.173.25.423.094.234.094.5 0 .265-.094.5-.078.234-.25.406-.156.172-.406.266-.25.093-.578.093-.328 0-.578-.093-.25-.094-.422-.266-.156-.172-.25-.406-.078-.235-.078-.5z"/><path fill="#4285f4" d="M813.857 380.575v2.391h3.75v1.313h-3.75v5.343q0 .578.141.953.14.375.39.594.266.219.594.313.344.093.72.093.265 0 .546-.03.297-.032.578-.079.281-.047.516-.094.25-.047.406-.093l.234 1.203q-.218.125-.515.218-.297.094-.656.157-.344.078-.75.11-.391.046-.782.046-.656 0-1.234-.188-.563-.187-.984-.593-.422-.407-.672-1.047-.235-.64-.235-1.563v-5.343h-2.578v-1.313h2.578v-2.39h1.703zm13.665 2.22q.234 0 .484.015.266 0 .485.031.234.031.421.078.204.047.344.11l-.234 1.64q-.485-.11-.938-.156-.437-.047-.922-.047-1.187 0-1.921.547-.735.531-1.079 1.484v6.328h-1.687v-9.859h1.594l.093 1.563q.594-.797 1.438-1.266t1.922-.469zm11.133 8.671q-.5.734-1.234 1.14-.735.407-1.704.407-.78 0-1.406-.234-.625-.25-1.078-.766-.437-.516-.687-1.297-.235-.781-.235-1.89v-5.86H834v5.875q0 .813.125 1.344.125.515.375.828.265.313.625.453.375.125.859.125 1.031 0 1.656-.422.64-.422.953-1.125v-7.078h1.688v9.86h-1.531l-.094-1.36zm9.149 1.547q-1.032 0-1.907-.36-.875-.359-1.5-.984-.609-.64-.953-1.515-.344-.875-.344-1.907v-.39q0-1.188.375-2.125.391-.953 1.016-1.594.64-.656 1.438-1 .812-.344 1.656-.344 1.062 0 1.86.375.796.36 1.327 1.016.532.64.782 1.531.265.875.265 1.906v.75h-7.031q.016.688.25 1.282.234.578.64 1.03.407.438.97.704.562.25 1.25.25.906 0 1.593-.36.703-.374 1.172-.968l1.031.797q-.25.375-.625.718-.36.329-.844.594-.484.266-1.093.422-.61.172-1.328.172zm-.22-8.844q-.515 0-.968.188-.453.187-.812.547-.36.359-.625.89-.25.516-.344 1.203h5.297v-.125q-.016-.5-.188-.984-.156-.484-.469-.86-.296-.39-.765-.624-.469-.235-1.125-.235z"/><path fill="#e67c73" d="M659.026 405.044h-2.016v15.235h2.016v1.39h-3.61v-18h3.61v1.375zm11.195 0h-2.015v15.235h2.015v1.39h-3.61v-18h3.61v1.375z"/><path fill="#673ab7" d="M682.808 412.7h-5.532v4.688h6.453v1.438h-8.14V405.56h8.062v1.437h-6.375v4.266h5.532v1.438zm5.414-3.734l.125 1.453q.531-.765 1.312-1.187.782-.438 1.75-.438.782 0 1.407.219.64.219 1.078.688.453.453.687 1.171.25.72.25 1.688v6.265h-1.687v-6.218q0-.657-.157-1.11-.14-.453-.421-.734-.282-.297-.704-.422-.406-.125-.953-.125-.843 0-1.484.422-.64.422-1.031 1.125v7.063h-1.688v-9.86h1.516zm16.086 8.5q-.5.734-1.234 1.14-.735.407-1.703.407-.782 0-1.407-.234-.625-.25-1.078-.766-.437-.516-.687-1.297-.235-.781-.235-1.89v-5.86h1.688v5.875q0 .813.125 1.344.125.515.375.828.265.313.625.453.375.125.86.125 1.03 0 1.655-.422.641-.422.954-1.125v-7.078h1.687v9.86h-1.531l-.094-1.36zm5.57-8.5l.047.938q.297-.532.782-.813.5-.297 1.187-.297 1.36 0 1.813 1.047.297-.469.765-.75.485-.297 1.157-.297 1.093 0 1.671.672.579.656.579 2v7.36h-1.594v-7.376q0-1.25-1.14-1.234-.298 0-.516.094-.22.078-.375.219-.141.14-.22.328-.077.187-.109.375v7.593h-1.609v-7.39q0-.594-.266-.906-.265-.329-.828-.313-.53 0-.828.219-.281.203-.422.547v7.843h-1.609v-9.859h1.516zm14.774 10.047q-1.031 0-1.906-.36-.875-.359-1.5-.984-.61-.64-.953-1.515-.344-.875-.344-1.907v-.39q0-1.188.375-2.125.39-.953 1.016-1.594.64-.656 1.437-1 .813-.344 1.657-.344 1.062 0 1.859.375.797.36 1.328 1.016.531.64.781 1.531.266.875.266 1.906v.75h-7.031q.015.688.25 1.282.234.578.64 1.03.407.438.969.704.563.25 1.25.25.906 0 1.594-.36.703-.374 1.172-.968l1.03.797q-.25.375-.624.718-.36.329-.844.594-.484.266-1.094.422-.609.172-1.328.172zm-.218-8.844q-.516 0-.97.188-.452.187-.812.547-.36.359-.625.89-.25.516-.343 1.203h5.296v-.125q-.015-.5-.187-.984-.156-.484-.469-.86-.297-.39-.765-.624-.47-.235-1.125-.235zm13.523-1.375q.235 0 .485.016.265 0 .484.031.234.031.422.078.203.047.344.11l-.235 1.64q-.484-.11-.937-.156-.438-.047-.922-.047-1.188 0-1.922.547-.734.531-1.078 1.484v6.328h-1.688v-9.859h1.594l.094 1.563q.594-.797 1.437-1.266.844-.469 1.922-.469zm11.211 10.031q-.093-.187-.156-.468-.062-.297-.094-.61-.25.266-.562.5-.313.22-.703.391-.375.172-.813.266-.422.109-.89.109-.797 0-1.438-.219-.625-.234-1.062-.625-.438-.39-.688-.922-.234-.53-.234-1.156 0-.812.312-1.422.328-.61.922-1.015.594-.407 1.422-.594.844-.203 1.875-.203h1.828v-.782q0-.453-.172-.796-.156-.36-.453-.61-.297-.25-.734-.39-.422-.141-.969-.141-.5 0-.906.14-.39.126-.672.344-.266.203-.422.485-.14.281-.14.593h-1.688q0-.53.266-1.046.28-.532.78-.938.5-.422 1.22-.672.734-.25 1.656-.25.844 0 1.562.203.72.203 1.235.625.531.407.828 1.032.297.609.297 1.437v4.578q0 .5.093 1.047.094.547.25.969v.14h-1.75zm-2.984-1.28q.5 0 .922-.126.437-.14.781-.344.344-.203.594-.468.266-.282.406-.563v-2h-1.562q-1.469 0-2.297.438-.813.437-.813 1.375 0 .36.125.672.125.312.36.53.25.22.625.36.375.125.86.125zm16.055-3.532q0 1.047-.266 1.969-.25.906-.75 1.593-.484.672-1.203 1.063-.718.375-1.656.375-.953 0-1.656-.328-.688-.344-1.188-.985l-.078 1.125h-1.547v-14h1.688v5.204q.484-.61 1.156-.922.688-.313 1.61-.313.937 0 1.656.375.734.36 1.218 1.031.5.657.75 1.594.266.922.266 2.016v.203zm-1.687-.203q0-.719-.141-1.36-.14-.656-.453-1.156-.313-.5-.813-.781-.5-.297-1.218-.297-.438 0-.813.125-.36.11-.656.313-.281.203-.5.484-.219.266-.375.594v4.312q.156.328.375.61.234.28.515.5.297.203.657.312.375.11.812.11.688 0 1.188-.282.5-.297.812-.781.313-.5.453-1.14.157-.641.157-1.36v-.203zm4.789-8.985h5.047v12.547h3.218v1.453h-8.265v-1.453h3.36v-11.078h-3.36v-1.469zm15.29 14.188q-1.032 0-1.907-.36-.875-.359-1.5-.984-.61-.64-.953-1.515-.344-.875-.344-1.907v-.39q0-1.188.375-2.125.39-.953 1.016-1.594.64-.656 1.437-1 .813-.344 1.656-.344 1.063 0 1.86.375.797.36 1.328 1.016.531.64.781 1.531.266.875.266 1.906v.75h-7.031q.015.688.25 1.282.234.578.64 1.03.406.438.969.704.562.25 1.25.25.906 0 1.594-.36.703-.374 1.172-.968l1.03.797q-.25.375-.624.718-.36.329-.844.594-.484.266-1.094.422-.61.172-1.328.172zm-.22-8.844q-.515 0-.968.188-.453.187-.813.547-.36.359-.625.89-.25.516-.344 1.203h5.297v-.125q-.015-.5-.187-.984-.156-.484-.469-.86-.297-.39-.766-.624-.468-.235-1.125-.235z"/><path fill="#e67c73" d="M789.576 403.67h3.625v18h-3.625v-1.391h2.031v-15.235h-2.031v-1.375zm11.195 0h3.625v18h-3.625v-1.391h2.032v-15.235h-2.032v-1.375zm12.024 14.062q0-.266.078-.5.094-.25.25-.422.172-.188.422-.281.25-.094.578-.094.328 0 .578.094.25.093.406.28.172.173.25.423.094.234.094.5 0 .265-.094.5-.078.234-.25.406-.156.172-.406.266-.25.093-.578.093-.328 0-.578-.093-.25-.094-.422-.266-.156-.172-.25-.406-.078-.235-.078-.5zm0-8q0-.266.078-.5.094-.25.25-.422.172-.188.422-.281.25-.094.578-.094.328 0 .578.094.25.093.406.28.172.173.25.423.094.234.094.5 0 .265-.094.5-.078.234-.25.406-.156.172-.406.266-.25.093-.578.093-.328 0-.578-.093-.25-.094-.422-.266-.156-.172-.25-.406-.078-.235-.078-.5z"/><path fill="#4285f4" d="M836.249 406.575v2.391h3.75v1.313h-3.75v5.343q0 .578.14.953t.39.594q.267.219.595.313.343.093.718.093.266 0 .547-.03.297-.032.578-.079.282-.047.516-.094.25-.047.406-.093l.235 1.203q-.22.125-.516.218-.297.094-.656.157-.344.078-.75.11-.39.046-.781.046-.657 0-1.235-.188-.562-.187-.984-.593-.422-.407-.672-1.047-.234-.64-.234-1.563v-5.343h-2.579v-1.313h2.579v-2.39h1.703zm13.664 2.22q.234 0 .484.015.266 0 .485.031.234.031.422.078.203.047.343.11l-.234 1.64q-.484-.11-.938-.156-.437-.047-.921-.047-1.188 0-1.922.547-.735.531-1.078 1.484v6.328h-1.688v-9.859h1.594l.094 1.563q.593-.797 1.437-1.266.844-.469 1.922-.469zm11.133 8.671q-.5.734-1.234 1.14-.735.407-1.703.407-.782 0-1.407-.234-.625-.25-1.078-.766-.437-.516-.687-1.297-.235-.781-.235-1.89v-5.86h1.688v5.875q0 .813.125 1.344.125.515.375.828.265.313.625.453.375.125.86.125 1.03 0 1.655-.422.641-.422.954-1.125v-7.078h1.687v9.86h-1.531l-.094-1.36zm9.149 1.547q-1.031 0-1.906-.36-.875-.359-1.5-.984-.61-.64-.954-1.515-.343-.875-.343-1.907v-.39q0-1.188.375-2.125.39-.953 1.015-1.594.64-.656 1.438-1 .812-.344 1.656-.344 1.063 0 1.86.375.796.36 1.328 1.016.53.64.78 1.531.266.875.266 1.906v.75h-7.03q.015.688.25 1.282.234.578.64 1.03.406.438.969.704.562.25 1.25.25.906 0 1.593-.36.703-.374 1.172-.968l1.031.797q-.25.375-.625.718-.359.329-.843.594-.485.266-1.094.422-.61.172-1.328.172zm-.219-8.844q-.516 0-.969.188-.453.187-.812.547-.36.359-.625.89-.25.516-.344 1.203h5.297v-.125q-.016-.5-.188-.984-.156-.484-.468-.86-.297-.39-.766-.624-.469-.235-1.125-.235z"/><path fill="#e67c73" d="M659.026 431.044h-2.016v15.235h2.016v1.39h-3.61v-18h3.61v1.375zm11.195 0h-2.015v15.235h2.015v1.39h-3.61v-18h3.61v1.375z"/><path fill="#673ab7" d="M684.104 440.841q-.109.922-.468 1.688-.36.765-.938 1.328-.562.547-1.344.86-.765.296-1.734.296-.812 0-1.484-.234-.672-.235-1.203-.641-.516-.422-.891-.969-.375-.562-.625-1.218-.25-.657-.375-1.375-.125-.72-.14-1.454v-1.843q.015-.75.14-1.47.125-.718.375-1.374.25-.656.625-1.203.375-.563.89-.969.532-.422 1.188-.656.672-.235 1.5-.235 1 0 1.781.313.782.312 1.344.875.563.547.906 1.344.344.78.453 1.718h-1.687q-.078-.593-.281-1.109-.203-.531-.547-.922-.328-.39-.813-.61-.484-.218-1.156-.218-.594 0-1.062.203-.454.188-.797.531-.328.329-.547.782-.219.437-.36.937-.14.5-.203 1.031-.047.516-.047 1.016v1.86q0 .5.047 1.03.063.516.203 1.016.141.5.36.953.219.438.547.782.343.343.797.547.453.187 1.062.187.672 0 1.156-.203.485-.219.813-.594.344-.375.547-.89.203-.516.28-1.11h1.688zm2.134-1.031q0-1.063.312-1.984.313-.922.89-1.594.579-.672 1.407-1.047.828-.39 1.86-.39 1.046 0 1.874.39.844.375 1.422 1.047.578.672.89 1.594.313.921.313 1.984v.203q0 1.063-.312 1.969-.313.906-.89 1.594-.579.671-1.407 1.062-.828.375-1.86.375-1.046 0-1.89-.375-.828-.39-1.406-1.062-.578-.688-.891-1.594-.312-.906-.312-1.969v-.203zm1.687.203q0 .719.172 1.39.172.657.516 1.157.359.5.89.797.531.281 1.235.281.687 0 1.203-.281.53-.297.875-.797.359-.5.53-1.156.173-.672.173-1.391v-.203q0-.719-.188-1.375-.172-.672-.531-1.172-.344-.5-.875-.797-.516-.297-1.219-.297-.703 0-1.218.297-.516.297-.875.797-.344.5-.516 1.172-.172.656-.172 1.375v.203zm11.492-5.047l.125 1.453q.532-.765 1.313-1.187.781-.438 1.75-.438.781 0 1.406.219.64.219 1.078.688.453.453.688 1.171.25.72.25 1.688v6.266h-1.688v-6.22q0-.655-.156-1.109-.14-.453-.422-.734-.281-.297-.703-.422-.406-.125-.953-.125-.844 0-1.484.422-.641.422-1.032 1.125v7.063h-1.687v-9.86h1.515zm12.196 9.86v-8.547h-2.703v-1.313h2.703v-.687q0-.953.281-1.657.282-.718.782-1.203.515-.484 1.218-.734.719-.25 1.594-.25.594 0 1.156.11.578.093 1.172.25l-.187 1.39q-.375-.125-.875-.219t-1.063-.094q-1.187.016-1.781.61-.594.578-.594 1.797v.687h3.797v1.313h-3.797v8.547h-1.703zm8.955-9.86h5.047v8.406h3.218v1.454h-8.265v-1.454h3.36v-6.937h-3.36v-1.469zm3.14-2.578q0-.422.25-.703.25-.297.766-.297.5 0 .75.297.25.281.25.703 0 .406-.25.688-.25.265-.75.265-.516 0-.766-.265-.25-.282-.25-.688zm7.493 7.422q0-1.094.265-2.016.266-.937.766-1.593.516-.672 1.25-1.032.734-.375 1.64-.375.923 0 1.61.328.688.313 1.172.922l.078-1.078h1.531v9.656q0 .97-.312 1.72-.297.765-.86 1.28-.546.532-1.312.797-.766.282-1.688.282-.39 0-.89-.094-.485-.078-.985-.281-.5-.188-.968-.516-.47-.328-.813-.813l.875-1q.313.375.64.625.329.266.657.422.344.157.672.219.344.063.687.063.594 0 1.079-.172.484-.172.828-.5.343-.328.515-.828.188-.485.188-1.125v-.844q-.485.562-1.156.86-.672.296-1.563.296-.89 0-1.625-.375-.734-.39-1.234-1.062-.5-.688-.782-1.594-.265-.922-.265-1.969v-.203zm1.672.203q0 .719.156 1.36.156.64.469 1.14.328.484.828.781.5.282 1.203.282.437 0 .781-.094.36-.11.64-.297.282-.203.5-.469.22-.265.376-.578v-4.516q-.156-.312-.375-.562-.219-.266-.516-.453-.281-.188-.625-.281-.344-.11-.765-.11-.704 0-1.22.297-.5.281-.827.781-.313.5-.47 1.157-.155.64-.155 1.359v.203zm16.226 3.453q-.5.735-1.234 1.14-.734.407-1.703.407-.781 0-1.406-.234-.625-.25-1.078-.766-.438-.516-.688-1.297-.234-.781-.234-1.89v-5.86h1.687v5.875q0 .813.125 1.344.125.516.375.828.266.313.625.453.375.125.86.125 1.03 0 1.656-.422.64-.422.953-1.125v-7.078h1.687v9.86h-1.53l-.095-1.36zm11.259-8.672q.234 0 .484.016.266 0 .484.031.235.031.422.078.203.047.344.11l-.234 1.64q-.485-.11-.938-.156-.437-.047-.922-.047-1.187 0-1.922.547-.734.531-1.078 1.484v6.329h-1.687v-9.86h1.593l.094 1.563q.594-.797 1.438-1.266.843-.469 1.922-.469zm11.21 10.032q-.093-.188-.155-.47-.063-.296-.094-.609-.25.266-.563.5-.312.22-.703.391-.375.172-.812.266-.422.109-.891.109-.797 0-1.437-.219-.625-.234-1.063-.625-.437-.39-.687-.922-.235-.53-.235-1.156 0-.812.313-1.422.328-.61.922-1.015.593-.407 1.421-.594.844-.203 1.875-.203h1.829v-.781q0-.454-.172-.797-.157-.36-.453-.61-.297-.25-.735-.39-.422-.141-.969-.141-.5 0-.906.14-.39.126-.672.344-.265.204-.422.485-.14.281-.14.594h-1.688q0-.532.266-1.047.281-.532.781-.938.5-.422 1.219-.672.734-.25 1.656-.25.844 0 1.563.203.718.204 1.234.625.531.407.828 1.032.297.609.297 1.437v4.578q0 .5.094 1.047.094.547.25.969v.14h-1.75zm-2.984-1.282q.5 0 .922-.125.438-.14.782-.343.343-.204.593-.47.266-.28.407-.562v-2h-1.563q-1.469 0-2.297.438-.812.437-.812 1.375 0 .36.125.672.125.312.359.53.25.22.625.36.375.125.86.125zm16.055-3.531q0 1.047-.265 1.969-.25.906-.75 1.594-.485.671-1.203 1.062-.72.375-1.657.375-.953 0-1.656-.328-.687-.344-1.187-.984l-.079 1.125h-1.546v-14h1.687v5.203q.484-.61 1.156-.922.688-.313 1.61-.313.937 0 1.656.375.734.36 1.219 1.032.5.656.75 1.593.265.922.265 2.016v.203zm-1.687-.203q0-.719-.14-1.36-.141-.656-.454-1.156-.312-.5-.812-.781-.5-.297-1.22-.297-.437 0-.812.125-.36.11-.656.313-.281.203-.5.484-.219.266-.375.594v4.312q.156.328.375.61.234.28.516.5.297.203.656.312.375.11.812.11.688 0 1.188-.282.5-.297.812-.781.313-.5.454-1.14.156-.641.156-1.36v-.203zm4.79-8.984h5.046v12.546h3.219v1.454h-8.266v-1.454h3.36v-11.078h-3.36v-1.468zm15.288 14.187q-1.03 0-1.906-.36-.875-.359-1.5-.984-.61-.64-.953-1.515-.344-.875-.344-1.907v-.39q0-1.188.375-2.125.39-.953 1.016-1.594.64-.656 1.437-1 .813-.344 1.657-.344 1.062 0 1.86.375.796.36 1.327 1.016.531.64.781 1.531.266.875.266 1.906v.75h-7.031q.015.688.25 1.282.234.578.64 1.03.407.438.97.704.562.25 1.25.25.905 0 1.593-.36.703-.374 1.172-.968l1.031.797q-.25.375-.625.719-.36.328-.844.593-.484.266-1.093.422-.61.172-1.329.172zm-.218-8.844q-.516 0-.97.188-.452.187-.812.547-.359.359-.625.89-.25.516-.343 1.203h5.297v-.125q-.016-.5-.188-.984-.156-.484-.469-.86-.297-.39-.765-.624-.47-.235-1.125-.235z"/><path fill="#e67c73" d="M811.976 429.67h3.625v18h-3.625v-1.391h2.031v-15.235h-2.031v-1.375zm11.196 0h3.625v18h-3.625v-1.391h2.03v-15.235h-2.03v-1.375zm12.023 14.062q0-.266.078-.5.094-.25.25-.422.172-.188.422-.281.25-.094.578-.094.328 0 .578.094.25.093.407.28.172.173.25.423.093.234.093.5 0 .265-.093.5-.078.234-.25.406-.157.172-.407.266-.25.093-.578.093-.328 0-.578-.093-.25-.094-.422-.266-.156-.172-.25-.406-.078-.235-.078-.5zm0-8q0-.266.078-.5.094-.25.25-.422.172-.188.422-.281.25-.094.578-.094.328 0 .578.094.25.093.407.28.172.173.25.423.093.234.093.5 0 .265-.093.5-.078.234-.25.406-.157.172-.407.266-.25.093-.578.093-.328 0-.578-.093-.25-.094-.422-.266-.156-.172-.25-.406-.078-.235-.078-.5z"/><path fill="#4285f4" d="M858.649 432.575v2.391h3.75v1.313h-3.75v5.343q0 .578.14.953.141.375.391.594.266.219.594.313.344.093.719.093.265 0 .547-.03.296-.032.578-.079.28-.047.515-.094.25-.047.407-.093l.234 1.203q-.219.125-.516.218-.297.094-.656.157-.344.078-.75.11-.39.046-.781.046-.656 0-1.235-.188-.562-.187-.984-.593-.422-.407-.672-1.047-.234-.64-.234-1.563v-5.343h-2.578v-1.313h2.578v-2.39h1.703zm13.664 2.22q.235 0 .485.015.265 0 .484.031.234.031.422.078.203.047.344.11l-.235 1.64q-.484-.11-.937-.156-.438-.047-.922-.047-1.188 0-1.922.547-.734.531-1.078 1.484v6.328h-1.688v-9.859h1.594l.094 1.563q.594-.797 1.437-1.266.844-.469 1.922-.469zm11.133 8.671q-.5.734-1.234 1.14-.734.407-1.703.407-.781 0-1.406-.234-.625-.25-1.079-.766-.437-.516-.687-1.297-.234-.781-.234-1.89v-5.86h1.687v5.875q0 .813.125 1.344.125.515.375.828.266.313.625.453.375.125.86.125 1.03 0 1.656-.422.64-.422.953-1.125v-7.078h1.687v9.86h-1.531l-.094-1.36zm9.149 1.547q-1.031 0-1.906-.36-.875-.359-1.5-.984-.61-.64-.953-1.515-.344-.875-.344-1.907v-.39q0-1.188.375-2.125.39-.953 1.015-1.594.641-.656 1.438-1 .812-.344 1.656-.344 1.063 0 1.86.375.796.36 1.328 1.016.53.64.78 1.531.267.875.267 1.906v.75h-7.032q.016.688.25 1.282.235.578.64 1.03.407.438.97.704.562.25 1.25.25.906 0 1.593-.36.704-.374 1.172-.968l1.032.797q-.25.375-.625.718-.36.329-.844.594-.485.266-1.094.422-.61.172-1.328.172zm-.219-8.844q-.515 0-.969.188-.453.187-.812.547-.36.359-.625.89-.25.516-.344 1.203h5.297v-.125q-.016-.5-.187-.984-.157-.484-.47-.86-.296-.39-.765-.624-.469-.235-1.125-.235z"/></g></svg>