<svg viewBox="0 0 960 540" fill="none" stroke-linecap="square" stroke-miterlimit="10" xmlns="http://www.w3.org/2000/svg"><clipPath id="a"><path d="M0 0h960v540H0V0z"/></clipPath><g clip-path="url(#a)"><path fill="#fff" d="M0 0h960v540H0z" fill-rule="evenodd"/><path fill="#666" d="M25.705 517.365v-1.93h6.463c.066.34.104.746.104 1.184 0 1.447-.397 3.24-1.672 4.515-1.24 1.293-2.827 1.982-4.929 1.982-3.895 0-7.17-3.17-7.17-7.066 0-3.895 3.275-7.066 7.17-7.066 2.154 0 3.689.844 4.843 1.947l-1.361 1.362c-.827-.776-1.948-1.379-3.481-1.379-2.844 0-5.068 2.292-5.068 5.136 0 2.844 2.224 5.136 5.068 5.136 1.844 0 2.895-.741 3.567-1.413.548-.547.908-1.333 1.048-2.407h-4.582zm16.483 1.213c0 2.62-2.05 4.55-4.567 4.55-2.517 0-4.567-1.93-4.567-4.55 0-2.637 2.05-4.55 4.567-4.55 2.516 0 4.567 1.913 4.567 4.55zm-1.999 0c0-1.637-1.189-2.758-2.568-2.758-1.378 0-2.568 1.12-2.568 2.758 0 1.62 1.189 2.758 2.568 2.758s2.568-1.138 2.568-2.758zm11.963 0c0 2.62-2.05 4.55-4.567 4.55-2.517 0-4.568-1.93-4.568-4.55 0-2.637 2.051-4.55 4.568-4.55 2.516 0 4.567 1.913 4.567 4.55zm-2 0c0-1.637-1.188-2.758-2.567-2.758-1.379 0-2.568 1.12-2.568 2.758 0 1.62 1.189 2.758 2.568 2.758 1.378 0 2.568-1.138 2.568-2.758zm11.55-4.274v8.17c0 3.36-1.982 4.739-4.326 4.739-2.206 0-3.533-1.483-4.033-2.69l1.74-.723c.311.741 1.069 1.62 2.293 1.62 1.5 0 2.43-.93 2.43-2.67v-.656h-.068c-.449.552-1.31 1.034-2.396 1.034-2.275 0-4.36-1.982-4.36-4.533 0-2.568 2.085-4.567 4.36-4.567 1.086 0 1.947.483 2.396 1.018h.068v-.742h1.896zm-1.758 4.291c0-1.602-1.068-2.775-2.43-2.775-1.379 0-2.533 1.173-2.533 2.775 0 1.586 1.154 2.741 2.533 2.741 1.361 0 2.43-1.155 2.43-2.74zm5.144-9.073v13.33H63.09v-13.33h2zm7.722 10.555l1.55 1.034c-.5.742-1.706 2.017-3.791 2.017-2.586 0-4.516-2-4.516-4.55 0-2.707 1.948-4.551 4.292-4.551 2.361 0 3.516 1.879 3.895 2.896l.207.517-6.084 2.516c.465.914 1.19 1.379 2.206 1.379s1.723-.499 2.24-1.258zm-4.775-1.637l4.067-1.69c-.224-.568-.896-.965-1.689-.965-1.017.001-2.43.897-2.378 2.655z" fill-rule="evenodd"/><path fill="#fff" d="M2.37 495.703h96v44.284h-96z" fill-rule="evenodd"/><path fill="#fbbc05" d="M507.724 170.919h223.45v68.397c-111.725 0-111.725 26.06-223.45 11.253z" fill-rule="evenodd"/><path stroke="#85200c" stroke-linejoin="round" stroke-linecap="butt" d="M507.724 170.919h223.45v68.397c-111.725 0-111.725 26.06-223.45 11.253z"/><path fill="#666" d="M577.322 201.334q-1.734 0-2.812-.703-1.063-.719-1.5-1.844l2.187-.953q.297.672.844 1.016.547.343 1.281.343.672 0 1.11-.218.453-.22.453-.703 0-.47-.407-.688-.406-.234-1.234-.422l-1.11-.25q-1.156-.281-1.921-1.016-.766-.734-.766-1.843 0-.813.485-1.469.5-.656 1.343-1 .86-.36 1.875-.36 2.953 0 3.938 2.063l-2.078.922q-.563-1-1.797-1-.64 0-1.016.234-.36.22-.36.578 0 .672 1.266 1.016l1.391.328q1.422.36 2.14 1.094.72.719.72 1.781 0 .906-.532 1.61-.531.703-1.453 1.093-.922.391-2.047.391zm10.359 0q-1.484 0-2.64-.656-1.157-.672-1.797-1.813-.641-1.156-.641-2.578t.64-2.578q.641-1.156 1.797-1.813 1.157-.671 2.641-.671 1.453 0 2.61.672 1.156.656 1.796 1.812.64 1.156.64 2.578t-.64 2.578q-.64 1.14-1.797 1.813-1.156.656-2.609.656zm0-2.25q.703 0 1.297-.328.61-.344.953-.984.36-.641.36-1.485 0-.844-.36-1.469-.344-.64-.953-.968-.594-.344-1.297-.344-.719 0-1.312.344-.594.328-.97.968-.359.625-.359 1.47 0 .827.36 1.483.375.641.969.985.593.328 1.312.328zm6.911-7.563h2.297v1.188h.156q.438-.688 1.188-1.078.765-.406 1.703-.406 1 0 1.75.484.75.469 1.062 1.188.47-.735 1.282-1.204.812-.468 1.906-.468 1.625 0 2.469 1 .859 1 .859 2.687v6.125h-2.422v-5.672q0-.89-.422-1.375-.422-.484-1.172-.484-.953 0-1.53.75-.563.75-.563 1.984v4.797h-2.438v-5.672q0-.89-.437-1.375-.438-.484-1.235-.484-.906 0-1.453.75t-.547 1.984v4.797h-2.453v-9.516zm21.465 9.813q-1.422 0-2.563-.64-1.14-.657-1.781-1.797-.64-1.157-.64-2.594 0-1.36.624-2.531.641-1.172 1.75-1.86 1.125-.687 2.516-.687 1.469 0 2.531.64 1.063.625 1.61 1.735.562 1.093.562 2.437 0 .422-.062.828h-7.141q.188 1.125.906 1.719.719.594 1.719.594.844 0 1.453-.36.61-.375.953-.984l1.985.969q-1.453 2.531-4.422 2.531zm2.25-6.203q-.031-.453-.328-.89-.282-.438-.797-.72-.516-.296-1.203-.296-.875 0-1.5.515-.625.5-.907 1.39h4.735zm3.17-3.61h2.75l1.64 6.172h.125l1.907-6.172h2.5l1.906 6.172h.125l1.64-6.172h2.704l-3.032 9.516h-2.64l-1.938-6.156h-.125l-1.922 6.156h-2.61l-3.03-9.516zm16.603-3.843h2.453v3.375l-.156 1.656h.156q.406-.672 1.188-1.078.78-.406 1.703-.406 1.734 0 2.656 1.03.922 1.032.922 2.876v5.906h-2.438v-5.61q0-.921-.5-1.421t-1.312-.5q-.969 0-1.594.781-.625.781-.625 1.922v4.828h-2.453v-13.36zm14.153 13.656q-1.516 0-2.485-.875-.968-.89-.968-2.328 0-.953.5-1.672.5-.734 1.375-1.125.89-.39 1.953-.39 1.469 0 2.515.421v-.406q0-.781-.593-1.266-.578-.484-1.578-.484-.672 0-1.297.313-.625.296-1.032.796l-1.562-1.234q.687-.89 1.734-1.375 1.047-.484 2.266-.484 2.187 0 3.328 1.015 1.14 1 1.14 2.938v5.86h-2.406v-.97h-.156q-.422.563-1.125.922-.703.344-1.61.344zm.578-1.906q1.062 0 1.687-.672.625-.688.625-1.594-.953-.453-2-.453-1.906 0-1.906 1.422 0 .578.406.937.422.36 1.188.36zm11.107 1.765q-.703 0-1.297-.218-.594-.22-.969-.594-.875-.844-.875-2.39v-4.376h-1.672v-2.094h1.672v-2.687h2.438v2.688h2.328v2.093h-2.328v3.938q0 .719.312 1.047.266.297.906.297.344 0 .578-.094.235-.094.61-.328v2.39q-.797.328-1.703.328zm-108.606 22.141q-1.484 0-2.64-.656-1.156-.672-1.797-1.813-.64-1.156-.64-2.578t.64-2.578q.64-1.156 1.797-1.813 1.156-.671 2.64-.671 1.454 0 2.61.672 1.156.656 1.797 1.812.64 1.156.64 2.578t-.64 2.578q-.64 1.14-1.797 1.813-1.156.656-2.61.656zm0-2.25q.704 0 1.297-.328.61-.344.953-.984.36-.641.36-1.485 0-.844-.36-1.469-.343-.64-.953-.968-.593-.344-1.297-.344-.718 0-1.312.344-.594.328-.969.968-.36.625-.36 1.47 0 .827.36 1.483.375.641.969.985.594.328 1.312.328zm6.85-7.563h2.296v1.157h.14q.391-.61 1.141-1.031.75-.422 1.719-.422 1.281 0 2.328.64 1.063.64 1.656 1.797.594 1.156.594 2.625t-.594 2.625q-.593 1.14-1.656 1.781-1.047.641-2.328.641-.969 0-1.734-.406-.75-.406-1.125-1.031h-.141l.14 1.343v3.828h-2.437v-13.547zm4.858 7.563q.688 0 1.282-.36.61-.359.953-.984.36-.64.36-1.453 0-.828-.36-1.453-.344-.64-.953-.984-.594-.344-1.282-.344-.671 0-1.265.344-.594.343-.953.984-.344.625-.344 1.453 0 .813.344 1.453.36.625.953.985.594.359 1.265.359zm11.042 2.11q-.703 0-1.297-.22-.594-.218-.969-.593-.875-.844-.875-2.39v-4.376h-1.672v-2.094h1.672v-2.687h2.438v2.688h2.328v2.093h-2.328v3.938q0 .719.312 1.047.266.297.906.297.344 0 .578-.094.235-.094.61-.328v2.39q-.797.328-1.703.328zm5.048-10.72q-.656 0-1.125-.468-.469-.469-.469-1.11 0-.656.469-1.109.469-.469 1.125-.469t1.11.47q.452.452.452 1.108 0 .641-.453 1.11-.453.469-1.11.469zm-1.234 1.048h2.437v9.515h-2.437v-9.516zm4.992 0h2.297v1.187h.157q.437-.688 1.187-1.078.766-.406 1.703-.406 1 0 1.75.484.75.469 1.063 1.188.468-.735 1.281-1.204.812-.468 1.906-.468 1.625 0 2.469 1 .86 1 .86 2.687v6.125h-2.423v-5.672q0-.89-.421-1.375-.422-.484-1.172-.484-.953 0-1.532.75-.562.75-.562 1.984v4.797h-2.438v-5.672q0-.89-.437-1.375-.438-.484-1.234-.484-.907 0-1.454.75-.546.75-.546 1.984v4.797h-2.454v-9.516zm18.387-1.047q-.656 0-1.125-.47-.469-.468-.469-1.108 0-.657.469-1.11.469-.469 1.125-.469t1.11.47q.452.452.452 1.108 0 .641-.453 1.11-.453.469-1.11.469zm-1.234 1.047h2.437v9.515h-2.437v-9.516zm4.508 7.515l4.969-5.437h-4.813v-2.078h7.813v2l-4.953 5.437h5.11v2.078h-8.126v-2zm14.487 2.297q-1.422 0-2.563-.64-1.14-.657-1.781-1.797-.64-1.157-.64-2.594 0-1.36.624-2.531.64-1.172 1.75-1.86 1.125-.687 2.516-.687 1.469 0 2.531.64 1.063.625 1.61 1.735.562 1.093.562 2.437 0 .422-.063.828h-7.14q.187 1.125.906 1.719.719.594 1.719.594.844 0 1.453-.36.61-.375.953-.984l1.984.969q-1.453 2.531-4.421 2.531zm2.25-6.203q-.032-.453-.329-.89-.28-.438-.796-.72-.516-.296-1.204-.296-.875 0-1.5.515-.625.5-.906 1.39h4.735zm8.326 6.203q-1.282 0-2.344-.64-1.047-.641-1.656-1.782-.61-1.156-.61-2.625t.61-2.625q.61-1.156 1.656-1.797 1.062-.64 2.344-.64.968 0 1.718.422.75.421 1.141 1.03h.14l-.14-1.343v-3.656h2.422v13.36h-2.281v-1.142h-.14q-.376.626-1.142 1.032-.75.406-1.718.406zm.406-2.25q.687 0 1.281-.36.61-.359.953-.984.36-.64.36-1.453 0-.828-.36-1.453-.343-.64-.953-.984-.594-.344-1.281-.344-.672 0-1.266.344-.593.343-.953.984-.36.625-.36 1.453 0 .813.36 1.453.36.625.953.985.594.359 1.266.359zm6.085 1.953zm10.037.297q-1.438 0-2.578-.64-1.14-.641-1.781-1.797-.641-1.157-.641-2.61 0-1.469.64-2.61.641-1.14 1.782-1.796 1.14-.656 2.578-.656 1.578 0 2.719.687 1.14.672 1.64 1.922l-2.234.938q-.594-1.266-2.125-1.266-1.125 0-1.844.766-.719.765-.719 2.015 0 1.266.72 2.031.718.766 1.843.766 1.547 0 2.234-1.344l2.22.969q-.61 1.25-1.75 1.938-1.142.687-2.704.687zm10.768 0q-1.484 0-2.64-.656-1.157-.672-1.797-1.813-.64-1.156-.64-2.578t.64-2.578q.64-1.156 1.797-1.813 1.156-.671 2.64-.671 1.453 0 2.61.672 1.156.656 1.796 1.812.641 1.156.641 2.578t-.64 2.578q-.641 1.14-1.797 1.813-1.157.656-2.61.656zm0-2.25q.703 0 1.297-.328.61-.344.953-.984.36-.641.36-1.485 0-.844-.36-1.469-.344-.64-.953-.968-.594-.344-1.297-.344-.719 0-1.312.344-.594.328-.97.968-.358.625-.358 1.47 0 .827.359 1.483.375.641.969.985.593.328 1.312.328zm11.005 2.25q-1.281 0-2.344-.64-1.047-.641-1.656-1.782-.61-1.156-.61-2.625t.61-2.625q.61-1.156 1.656-1.797 1.063-.64 2.344-.64.969 0 1.719.422.75.421 1.14 1.03h.141l-.14-1.343v-3.656h2.421v13.36h-2.281v-1.142h-.14q-.376.626-1.141 1.032-.75.406-1.719.406zm.406-2.25q.688 0 1.282-.36.609-.359.953-.984.359-.64.359-1.453 0-.828-.36-1.453-.343-.64-.952-.984-.594-.344-1.282-.344-.672 0-1.265.344-.594.343-.953.984-.36.625-.36 1.453 0 .813.36 1.453.359.625.953.985.593.359 1.265.359zm11.741 2.25q-1.422 0-2.562-.64-1.141-.657-1.782-1.797-.64-1.157-.64-2.594 0-1.36.625-2.531.64-1.172 1.75-1.86 1.125-.687 2.515-.687 1.47 0 2.532.64 1.062.625 1.609 1.735.562 1.093.562 2.437 0 .422-.062.828h-7.14q.187 1.125.906 1.719.718.594 1.718.594.844 0 1.453-.36.61-.375.954-.984l1.984.969q-1.453 2.531-4.422 2.531zm2.25-6.203q-.031-.453-.328-.89-.281-.438-.797-.72-.516-.296-1.203-.296-.875 0-1.5.515-.625.5-.906 1.39h4.734z"/><path fill="#fbbc05" d="M226.937 190.804c0-6.28 5.09-11.37 11.37-11.37h155.465a11.37 11.37 0 0 1 11.37 11.37v45.48c0 6.28-5.09 11.37-11.37 11.37H238.307c-6.28 0-11.37-5.09-11.37-11.37z" fill-rule="evenodd"/><path stroke="#5b0f00" stroke-linejoin="round" stroke-linecap="butt" d="M226.937 190.804c0-6.28 5.09-11.37 11.37-11.37h155.465a11.37 11.37 0 0 1 11.37 11.37v45.48c0 6.28-5.09 11.37-11.37 11.37H238.307c-6.28 0-11.37-5.09-11.37-11.37z"/><path fill="#666" d="M280.053 207.104h5.219q1.125 0 2.062.47.938.468 1.485 1.265.546.797.546 1.75 0 1.015-.5 1.75-.5.734-1.296 1.125v.156q1.046.375 1.656 1.188.625.812.625 1.937 0 1.11-.594 1.953-.578.844-1.578 1.313-1 .453-2.219.453h-5.406v-13.36zm5.031 5.454q.828 0 1.313-.454.5-.468.5-1.156 0-.672-.485-1.125-.468-.453-1.25-.453h-2.593v3.188h2.515zm.281 5.609q.922 0 1.422-.469.516-.484.516-1.25 0-.765-.516-1.25-.515-.484-1.5-.484h-2.718v3.453h2.796zm9.337 2.594q-1.516 0-2.485-.875-.968-.89-.968-2.328 0-.954.5-1.672.5-.735 1.375-1.125.89-.39 1.953-.39 1.468 0 2.515.421v-.406q0-.782-.593-1.266-.579-.484-1.579-.484-.671 0-1.296.312-.625.297-1.032.797l-1.562-1.234q.687-.89 1.734-1.375t2.266-.485q2.187 0 3.328 1.016 1.14 1 1.14 2.937v5.86h-2.406v-.969h-.156q-.422.563-1.125.922-.703.344-1.61.344zm.578-1.907q1.062 0 1.687-.671.625-.688.625-1.594-.953-.453-2-.453-1.906 0-1.906 1.422 0 .578.406.937.422.36 1.188.36zm10.59 1.907q-1.733 0-2.812-.703-1.062-.72-1.5-1.844l2.188-.953q.297.672.844 1.015.547.344 1.28.344.673 0 1.11-.219.453-.218.453-.703 0-.469-.406-.687-.406-.235-1.234-.422l-1.11-.25q-1.156-.281-1.921-1.016-.766-.734-.766-1.844 0-.812.484-1.468.5-.657 1.344-1 .86-.36 1.875-.36 2.953 0 3.938 2.063l-2.079.922q-.562-1-1.796-1-.641 0-1.016.234-.36.219-.36.578 0 .672 1.266 1.016l1.39.328q1.423.36 2.141 1.094.72.718.72 1.781 0 .906-.532 1.61-.531.702-1.453 1.093-.922.39-2.047.39zm10.266 0q-1.422 0-2.562-.64-1.141-.657-1.782-1.798-.64-1.156-.64-2.594 0-1.359.625-2.53.64-1.173 1.75-1.86 1.125-.688 2.515-.688 1.47 0 2.532.641 1.062.625 1.609 1.734.562 1.094.562 2.438 0 .422-.062.828h-7.14q.187 1.125.906 1.719.718.593 1.718.593.844 0 1.453-.359.61-.375.954-.984l1.984.968q-1.453 2.532-4.422 2.532zm2.25-6.203q-.031-.454-.328-.891-.281-.438-.797-.719-.516-.297-1.203-.297-.875 0-1.5.516-.625.5-.906 1.39h4.734zm4.233-7.454h2.453v13.36h-2.453v-13.36zm6.24 2.797q-.655 0-1.124-.468-.469-.47-.469-1.11 0-.656.469-1.11.469-.468 1.125-.468t1.11.469q.452.453.452 1.11 0 .64-.453 1.109-.453.468-1.11.468zm-1.234 1.047h2.438v9.516h-2.438v-9.516zm4.993 0h2.297v1.188h.156q.422-.688 1.204-1.078.796-.407 1.703-.407 1.718 0 2.609 1.047.906 1.047.906 2.86v5.906h-2.453v-5.61q0-.921-.469-1.421-.468-.5-1.296-.5-1 0-1.61.765-.594.766-.594 1.922v4.844h-2.453v-9.516zm15.644 9.813q-1.422 0-2.562-.64-1.141-.657-1.782-1.798-.64-1.156-.64-2.594 0-1.359.625-2.53.64-1.173 1.75-1.86 1.125-.688 2.515-.688 1.47 0 2.532.641 1.062.625 1.609 1.734.563 1.094.563 2.438 0 .422-.063.828h-7.14q.187 1.125.906 1.719.718.593 1.718.593.844 0 1.454-.359.609-.375.953-.984l1.984.968q-1.453 2.532-4.422 2.532zm2.25-6.203q-.031-.454-.328-.891-.281-.438-.797-.719-.515-.297-1.203-.297-.875 0-1.5.516-.625.5-.906 1.39h4.734z"/><path fill="#38761d" d="M226.026 83.491c0-5.688 4.611-10.3 10.3-10.3h165.606a10.3 10.3 0 0 1 10.299 10.3v41.197c0 5.688-4.611 10.3-10.3 10.3H236.326c-5.688 0-10.299-4.612-10.299-10.3z" fill-rule="evenodd"/><path stroke="#274e13" stroke-linejoin="round" stroke-linecap="butt" d="M226.026 83.491c0-5.688 4.611-10.3 10.3-10.3h165.606a10.3 10.3 0 0 1 10.299 10.3v41.197c0 5.688-4.611 10.3-10.3 10.3H236.326c-5.688 0-10.299-4.612-10.299-10.3z"/><path fill="#f3f3f3" d="M298.114 97.65h2.515v10.969h5.657v2.39h-8.172V97.65zm10.28 0h2.515v10.969h5.656v2.39h-8.172V97.65zm10.279 0h2.516v13.36h-2.516V97.65zm5.216 3.844h2.297v1.187h.156q.422-.687 1.203-1.078.797-.406 1.703-.406 1.719 0 2.61 1.047.906 1.047.906 2.86v5.906h-2.453v-5.61q0-.922-.47-1.422-.468-.5-1.296-.5-1 0-1.61.766-.593.766-.593 1.922v4.844h-2.453v-9.516zm15.315 9.672q-.703 0-1.296-.219-.594-.219-.97-.594-.874-.843-.874-2.39v-4.375h-1.672v-2.094h1.672v-2.688h2.437v2.688h2.328v2.094h-2.328v3.937q0 .719.313 1.047.265.297.906.297.344 0 .578-.094.235-.094.61-.328v2.39q-.797.329-1.704.329z"/><path fill="#6aa84f" d="M505.267 59.913h223.45v70.861c-111.725 0-111.725 27-223.45 11.66z" fill-rule="evenodd"/><path stroke="#38761d" stroke-linejoin="round" stroke-linecap="butt" d="M505.267 59.913h223.45v70.861c-111.725 0-111.725 27-223.45 11.66z"/><path fill="#fff" d="M580.396 102.56q-.984 0-1.734-.406t-1.125-1.03h-.157v1.14h-2.297v-13.36h2.454v3.657l-.157 1.343h.157q.39-.609 1.125-1.03.75-.423 1.734-.423 1.281 0 2.328.64 1.063.641 1.656 1.798.594 1.156.594 2.625 0 1.468-.594 2.625-.593 1.14-1.656 1.781-1.047.64-2.328.64zm-.438-2.25q.688 0 1.282-.359.609-.36.953-.984.36-.64.36-1.453 0-.828-.36-1.453-.344-.641-.953-.985-.594-.344-1.282-.344-.671 0-1.265.344-.594.344-.953.985-.36.625-.36 1.453 0 .812.36 1.453.359.625.953.984.594.36 1.265.36zm9.866 1.5l-4-9.062h2.766l2.469 5.922h.156l2.36-5.922h2.734l-5.891 13.547h-2.625l2.031-4.484zm11.955.61q-.703 0-1.296-.219-.594-.219-.97-.594-.874-.843-.874-2.39v-4.375h-1.672v-2.094h1.672v-2.687h2.437v2.687h2.328v2.094h-2.328v3.937q0 .72.313 1.047.265.297.906.297.344 0 .578-.094.235-.093.61-.328v2.39q-.797.329-1.704.329zm8.127.14q-1.422 0-2.563-.64-1.14-.656-1.78-1.797-.642-1.156-.642-2.594 0-1.359.625-2.53.641-1.173 1.75-1.86 1.125-.688 2.516-.688 1.469 0 2.531.64 1.063.626 1.61 1.735.562 1.094.562 2.438 0 .422-.062.828h-7.14q.187 1.125.905 1.719.72.593 1.72.593.843 0 1.452-.359.61-.375.953-.984l1.985.968q-1.453 2.532-4.422 2.532zm2.25-6.203q-.031-.453-.328-.89-.282-.438-.797-.719-.516-.297-1.203-.297-.875 0-1.5.516-.625.5-.907 1.39h4.735zm8.717 6.204q-1.438 0-2.578-.641-1.141-.64-1.782-1.797-.64-1.156-.64-2.61 0-1.468.64-2.609.641-1.14 1.782-1.797 1.14-.656 2.578-.656 1.578 0 2.718.688 1.141.672 1.641 1.922l-2.234.937q-.594-1.266-2.125-1.266-1.125 0-1.844.766-.719.766-.719 2.016 0 1.265.719 2.031.719.766 1.844.766 1.547 0 2.234-1.344l2.219.969q-.61 1.25-1.75 1.937-1.14.688-2.703.688zm10.768 0q-1.485 0-2.64-.657-1.157-.672-1.798-1.812-.64-1.156-.64-2.578t.64-2.578q.641-1.157 1.797-1.813 1.156-.672 2.64-.672 1.454 0 2.61.672 1.156.656 1.797 1.813.64 1.156.64 2.578t-.64 2.578q-.64 1.14-1.797 1.812-1.156.657-2.61.657zm0-2.25q.703 0 1.297-.329.61-.343.953-.984.36-.64.36-1.484t-.36-1.469q-.344-.64-.953-.969-.594-.344-1.297-.344-.719 0-1.313.344-.593.328-.968.969-.36.625-.36 1.469 0 .828.36 1.484.375.64.968.984.594.329 1.313.329zm11.005 2.25q-1.282 0-2.344-.641-1.047-.64-1.656-1.781-.61-1.157-.61-2.625 0-1.469.61-2.625.61-1.157 1.656-1.797 1.062-.64 2.344-.64.968 0 1.718.421.75.422 1.141 1.031h.14l-.14-1.343v-3.657h2.422v13.36h-2.281v-1.14h-.14q-.376.624-1.142 1.03-.75.407-1.718.407zm.406-2.25q.687 0 1.281-.36.61-.36.953-.984.36-.64.36-1.453 0-.828-.36-1.453-.343-.641-.953-.985-.594-.344-1.281-.344-.672 0-1.266.344-.593.344-.953.985-.36.625-.36 1.453 0 .812.36 1.453.36.625.953.984.594.36 1.266.36zm11.74 2.25q-1.421 0-2.562-.641-1.14-.656-1.78-1.797-.642-1.156-.642-2.594 0-1.359.625-2.53.641-1.173 1.75-1.86 1.125-.688 2.516-.688 1.469 0 2.531.64 1.063.626 1.61 1.735.562 1.094.562 2.438 0 .422-.062.828h-7.14q.187 1.125.905 1.719.72.593 1.72.593.843 0 1.452-.359.61-.375.953-.984l1.985.968q-1.453 2.532-4.422 2.532zm2.25-6.204q-.03-.453-.327-.89-.282-.438-.797-.719-.516-.297-1.203-.297-.875 0-1.5.516-.625.5-.907 1.39h4.735z"/><path d="M405.142 213.544h51.291v.063h51.291"/><path stroke="#666" stroke-width="2" stroke-linejoin="round" stroke-linecap="butt" d="M405.142 213.544h51.291v.063h39.291"/><path fill="#666" stroke="#666" stroke-width="2" stroke-linecap="butt" d="M495.724 216.91l9.077-3.303-9.077-3.304z" fill-rule="evenodd"/><path d="M412.231 104.09h46.518v.063h46.521"/><path stroke="#666" stroke-width="2" stroke-linejoin="round" stroke-linecap="butt" d="M412.231 104.09h46.518v.062h34.521"/><path fill="#666" stroke="#666" stroke-width="2" stroke-linecap="butt" d="M493.27 107.456l9.077-3.304-9.077-3.303z" fill-rule="evenodd"/><path fill="#dd4a68" d="M507.724 290.752h223.45v68.397c-111.725 0-111.725 26.06-223.45 11.253z" fill-rule="evenodd"/><path stroke="#85200c" stroke-linejoin="round" stroke-linecap="butt" d="M507.724 290.752h223.45v68.397c-111.725 0-111.725 26.06-223.45 11.253z"/><path fill="#f3f3f3" d="M589.975 311.355h2.297v1.187h.156q.437-.687 1.187-1.078.766-.406 1.703-.406 1 0 1.75.484.75.469 1.063 1.188.469-.735 1.281-1.204.813-.468 1.906-.468 1.625 0 2.47 1 .859 1 .859 2.687v6.125h-2.422v-5.672q0-.89-.422-1.375-.422-.484-1.172-.484-.953 0-1.531.75-.563.75-.563 1.984v4.797H596.1v-5.672q0-.89-.438-1.375-.437-.484-1.234-.484-.906 0-1.453.75t-.547 1.984v4.797h-2.453v-9.515zm21.558 9.812q-1.484 0-2.64-.656-1.157-.672-1.797-1.813-.641-1.156-.641-2.578t.64-2.578q.641-1.156 1.797-1.812 1.157-.672 2.641-.672 1.453 0 2.61.672 1.156.656 1.796 1.812.641 1.156.641 2.578t-.64 2.578q-.641 1.14-1.798 1.813-1.156.656-2.609.656zm0-2.25q.703 0 1.297-.328.61-.344.953-.984.36-.641.36-1.485 0-.844-.36-1.469-.344-.64-.953-.968-.594-.344-1.297-.344-.719 0-1.312.344-.594.328-.97.968-.359.625-.359 1.47 0 .827.36 1.484.375.64.969.984.593.328 1.312.328zm10.536 2.25q-1.734 0-2.812-.703-1.063-.719-1.5-1.844l2.187-.953q.297.672.844 1.016.547.343 1.281.343.672 0 1.11-.218.453-.22.453-.703 0-.47-.407-.688-.406-.234-1.234-.422l-1.11-.25q-1.156-.281-1.921-1.015-.766-.735-.766-1.844 0-.813.485-1.469.5-.656 1.343-1 .86-.36 1.875-.36 2.953 0 3.938 2.063l-2.078.922q-.563-1-1.797-1-.64 0-1.016.234-.36.22-.36.579 0 .671 1.266 1.015l1.391.328q1.422.36 2.14 1.094.72.719.72 1.781 0 .907-.532 1.61-.531.703-1.453 1.093-.922.391-2.047.391zm9.937-.14q-.703 0-1.297-.22-.593-.218-.968-.593-.875-.844-.875-2.39v-4.376h-1.672v-2.093h1.672v-2.688h2.437v2.688h2.328v2.093h-2.328v3.938q0 .719.313 1.047.265.297.906.297.344 0 .578-.094.234-.094.61-.328v2.39q-.798.328-1.704.328zm3.658-13.516h2.453v13.36h-2.453v-13.36zm7.82 12.906l-4-9.062h2.765l2.469 5.921h.156l2.36-5.921h2.734l-5.891 13.546h-2.625l2.031-4.484zm-88.172 22.75q-1.484 0-2.64-.656-1.156-.672-1.797-1.813-.64-1.156-.64-2.578t.64-2.578q.64-1.156 1.797-1.812 1.156-.672 2.64-.672 1.454 0 2.61.672 1.156.656 1.797 1.812.64 1.156.64 2.578t-.64 2.578q-.64 1.14-1.797 1.813-1.156.656-2.61.656zm0-2.25q.704 0 1.297-.328.61-.344.953-.984.36-.641.36-1.485 0-.844-.36-1.469-.343-.64-.953-.968-.593-.344-1.297-.344-.718 0-1.312.344-.594.328-.969.968-.36.625-.36 1.47 0 .827.36 1.484.375.64.969.984.594.328 1.312.328zm6.85-7.562h2.296v1.156h.14q.391-.61 1.141-1.031.75-.422 1.719-.422 1.281 0 2.328.64 1.063.64 1.656 1.797.594 1.156.594 2.625t-.594 2.625q-.593 1.14-1.656 1.781-1.047.641-2.328.641-.969 0-1.734-.406-.75-.406-1.125-1.031h-.141l.14 1.343v3.828h-2.437v-13.546zm4.858 7.562q.688 0 1.282-.36.61-.359.953-.984.36-.64.36-1.453 0-.828-.36-1.453-.344-.64-.953-.984-.594-.344-1.282-.344-.671 0-1.265.344-.594.343-.953.984-.344.625-.344 1.453 0 .813.344 1.453.36.625.953.985.594.36 1.265.36zm11.042 2.11q-.703 0-1.297-.22-.594-.218-.969-.593-.875-.844-.875-2.39v-4.376h-1.672v-2.093h1.672v-2.688h2.438v2.688h2.328v2.093h-2.328v3.938q0 .719.312 1.047.266.297.906.297.344 0 .578-.094.235-.094.61-.328v2.39q-.797.328-1.703.328zm5.048-10.72q-.656 0-1.125-.468-.469-.469-.469-1.11 0-.656.469-1.109.469-.469 1.125-.469t1.11.47q.452.452.452 1.109 0 .64-.453 1.109t-1.11.469zm-1.234 1.048h2.437v9.515h-2.437v-9.515zm4.992 0h2.297v1.187h.157q.437-.687 1.187-1.078.766-.406 1.703-.406 1 0 1.75.484.75.469 1.063 1.188.468-.735 1.281-1.204.812-.468 1.906-.468 1.625 0 2.469 1 .86 1 .86 2.687v6.125h-2.423v-5.672q0-.89-.421-1.375-.422-.484-1.172-.484-.953 0-1.532.75-.562.75-.562 1.984v4.797h-2.438v-5.672q0-.89-.437-1.375-.438-.484-1.234-.484-.907 0-1.454.75-.546.75-.546 1.984v4.797h-2.454v-9.515zm18.387-1.047q-.656 0-1.125-.47-.469-.468-.469-1.108 0-.657.469-1.11.469-.469 1.125-.469t1.11.47q.452.452.452 1.109 0 .64-.453 1.109t-1.11.469zm-1.234 1.047h2.437v9.515h-2.437v-9.515zm4.508 7.515l4.969-5.437h-4.813v-2.078h7.813v2l-4.953 5.437h5.11v2.078h-8.126v-2zm14.487 2.297q-1.422 0-2.563-.64-1.14-.657-1.781-1.797-.64-1.157-.64-2.594 0-1.36.624-2.531.64-1.172 1.75-1.86 1.125-.687 2.516-.687 1.469 0 2.531.64 1.063.625 1.61 1.735.562 1.093.562 2.437 0 .422-.063.828h-7.14q.187 1.125.906 1.72.719.593 1.719.593.844 0 1.453-.36.61-.375.953-.984l1.984.969q-1.453 2.531-4.421 2.531zm2.25-6.203q-.032-.453-.329-.89-.28-.438-.796-.72-.516-.296-1.204-.296-.875 0-1.5.515-.625.5-.906 1.39h4.735zm8.326 6.203q-1.282 0-2.344-.64-1.047-.641-1.656-1.782-.61-1.156-.61-2.625t.61-2.625q.61-1.156 1.656-1.797 1.062-.64 2.344-.64.968 0 1.718.422.75.421 1.141 1.03h.14l-.14-1.343v-3.656h2.422v13.36h-2.281v-1.141h-.14q-.376.625-1.142 1.03-.75.407-1.718.407zm.406-2.25q.687 0 1.281-.36.61-.359.953-.984.36-.64.36-1.453 0-.828-.36-1.453-.343-.64-.953-.984-.594-.344-1.281-.344-.672 0-1.266.344-.593.343-.953.984-.36.625-.36 1.453 0 .813.36 1.453.36.625.953.985.594.36 1.266.36zm6.085 1.953zm10.037.297q-1.438 0-2.578-.64-1.14-.641-1.781-1.797-.641-1.157-.641-2.61 0-1.469.64-2.61.641-1.14 1.782-1.796 1.14-.656 2.578-.656 1.578 0 2.719.687 1.14.672 1.64 1.922l-2.234.938q-.594-1.266-2.125-1.266-1.125 0-1.844.766-.719.765-.719 2.015 0 1.266.72 2.031.718.766 1.843.766 1.547 0 2.234-1.344l2.22.97q-.61 1.25-1.75 1.937-1.142.687-2.704.687zm10.768 0q-1.484 0-2.64-.656-1.157-.672-1.797-1.813-.64-1.156-.64-2.578t.64-2.578q.64-1.156 1.797-1.812 1.156-.672 2.64-.672 1.453 0 2.61.672 1.156.656 1.796 1.812.641 1.156.641 2.578t-.64 2.578q-.641 1.14-1.797 1.813-1.157.656-2.61.656zm0-2.25q.703 0 1.297-.328.61-.344.953-.984.36-.641.36-1.485 0-.844-.36-1.469-.344-.64-.953-.968-.594-.344-1.297-.344-.719 0-1.312.344-.594.328-.97.968-.358.625-.358 1.47 0 .827.359 1.484.375.64.969.984.593.328 1.312.328zm11.005 2.25q-1.281 0-2.344-.64-1.047-.641-1.656-1.782-.61-1.156-.61-2.625t.61-2.625q.61-1.156 1.656-1.797 1.063-.64 2.344-.64.969 0 1.719.422.75.421 1.14 1.03h.141l-.14-1.343v-3.656h2.421v13.36h-2.281v-1.141h-.14q-.376.625-1.141 1.03-.75.407-1.719.407zm.406-2.25q.688 0 1.282-.36.609-.359.953-.984.359-.64.359-1.453 0-.828-.36-1.453-.343-.64-.952-.984-.594-.344-1.282-.344-.672 0-1.265.344-.594.343-.953.984-.36.625-.36 1.453 0 .813.36 1.453.359.625.953.985.593.36 1.265.36zm11.741 2.25q-1.422 0-2.562-.64-1.141-.657-1.782-1.797-.64-1.157-.64-2.594 0-1.36.625-2.531.64-1.172 1.75-1.86 1.125-.687 2.515-.687 1.47 0 2.532.64 1.062.625 1.609 1.735.562 1.093.562 2.437 0 .422-.062.828h-7.14q.187 1.125.906 1.72.718.593 1.718.593.844 0 1.453-.36.61-.375.954-.984l1.984.969q-1.453 2.531-4.422 2.531zm2.25-6.203q-.031-.453-.328-.89-.281-.438-.797-.72-.516-.296-1.203-.296-.875 0-1.5.515-.625.5-.906 1.39h4.734z"/><path fill="#dd4a68" d="M226.043 310.656c0-6.28 5.09-11.37 11.37-11.37h155.465a11.37 11.37 0 0 1 11.37 11.37v45.48c0 6.28-5.09 11.37-11.37 11.37H237.413c-6.28 0-11.37-5.09-11.37-11.37z" fill-rule="evenodd"/><path stroke="#5b0f00" stroke-linejoin="round" stroke-linecap="butt" d="M226.043 310.656c0-6.28 5.09-11.37 11.37-11.37h155.465a11.37 11.37 0 0 1 11.37 11.37v45.48c0 6.28-5.09 11.37-11.37 11.37H237.413c-6.28 0-11.37-5.09-11.37-11.37z"/><path fill="#f3f3f3" d="M296.743 326.956h4.515q2.094 0 3.641.844 1.547.844 2.375 2.36.844 1.5.844 3.484 0 1.969-.844 3.484-.828 1.516-2.375 2.36-1.547.828-3.64.828h-4.516v-13.36zm4.406 10.969q2.156 0 3.297-1.14 1.14-1.157 1.14-3.141 0-2-1.14-3.14-1.14-1.157-3.297-1.157h-1.89v8.578h1.89zm9.362-10.969h8.469v2.39h-5.953v3.25h5.359v2.392h-5.36v5.328h-2.515v-13.36zm17.065 13.657q-1.922 0-3.531-.907-1.61-.906-2.563-2.5-.953-1.593-.953-3.562 0-1.985.953-3.578.953-1.594 2.563-2.5 1.61-.907 3.531-.907 1.578 0 2.875.547t2.219 1.563l-1.735 1.703q-.671-.719-1.484-1.063-.812-.359-1.89-.359-1.235 0-2.266.578-1.016.563-1.625 1.625-.61 1.047-.61 2.39 0 1.345.61 2.391.625 1.047 1.656 1.625 1.047.563 2.266.563 1.875 0 3.062-1.094.375-.344.656-.86.282-.53.407-1.14h-4.188v-2.14h6.547q.125.515.125 1.171 0 1.329-.406 2.47-.39 1.124-1.219 1.984-.89.968-2.156 1.484t-2.844.516z"/><path d="M731.173 333.396c12.5 0 24.993-29.96 25-59.921.008-29.96-12.468-59.921-24.937-59.921"/><path stroke="#ea4335" stroke-width="2" stroke-linejoin="round" stroke-linecap="butt" stroke-dasharray="8.0,6.0" d="M731.173 333.396c12.5 0 24.993-29.96 25-59.921.004-14.98-3.113-29.96-7.79-41.196-1.169-2.809-2.435-5.384-3.775-7.666a43.303 43.303 0 0 0-2.061-3.196 34.383 34.383 0 0 0-1.066-1.42l-.068-.084"/><path fill="#ea4335" stroke="#ea4335" stroke-width="2" stroke-linecap="butt" d="M743.164 217.111l-9.448-2.008 5.946 7.611z" fill-rule="evenodd"/><path fill="#ea4335" d="M507.052 413.28h223.45v68.398c-111.725 0-111.725 26.06-223.45 11.253z" fill-rule="evenodd"/><path stroke="#85200c" stroke-linejoin="round" stroke-linecap="butt" d="M507.052 413.28h223.45v68.398c-111.725 0-111.725 26.06-223.45 11.253z"/><path fill="#f3f3f3" d="M554.64 454.696q-1.484 0-2.64-.656-1.156-.672-1.797-1.813-.64-1.156-.64-2.578t.64-2.578q.64-1.156 1.797-1.813 1.156-.671 2.64-.671 1.454 0 2.61.671 1.156.657 1.797 1.813.64 1.156.64 2.578t-.64 2.578q-.64 1.14-1.797 1.813-1.156.656-2.61.656zm0-2.25q.704 0 1.297-.328.61-.344.953-.985.36-.64.36-1.484t-.36-1.469q-.343-.64-.953-.968-.593-.344-1.297-.344-.718 0-1.312.344-.594.328-.969.968-.36.625-.36 1.47 0 .827.36 1.483.375.641.969.985.594.328 1.313.328zm6.85-7.563h2.296v1.157h.14q.391-.61 1.141-1.032.75-.421 1.719-.421 1.281 0 2.328.64 1.063.64 1.656 1.797.594 1.156.594 2.625t-.594 2.625q-.593 1.14-1.656 1.781-1.047.64-2.328.64-.969 0-1.734-.405-.75-.407-1.125-1.032h-.141l.14 1.344v3.828h-2.437v-13.547zm4.859 7.563q.687 0 1.28-.36.61-.359.954-.984.36-.64.36-1.453 0-.828-.36-1.453-.344-.64-.953-.984-.594-.344-1.281-.344-.672 0-1.266.344-.594.343-.953.984-.344.625-.344 1.453 0 .813.344 1.453.36.625.953.985.594.359 1.266.359zm11.04 2.11q-.702 0-1.296-.22-.594-.218-.969-.593-.875-.844-.875-2.39v-4.376h-1.672v-2.094h1.672v-2.687h2.438v2.687h2.328v2.094h-2.328v3.938q0 .718.312 1.047.266.296.906.296.344 0 .578-.093.235-.094.61-.328v2.39q-.797.328-1.703.328zm5.049-10.72q-.656 0-1.125-.468-.469-.469-.469-1.11 0-.656.469-1.109.469-.469 1.125-.469t1.11.47q.453.452.453 1.108 0 .641-.454 1.11-.453.469-1.109.469zm-1.234 1.047h2.437v9.516h-2.437v-9.516zm4.993 0h2.296v1.188h.157q.437-.688 1.187-1.078.766-.406 1.703-.406 1 0 1.75.484.75.469 1.063 1.187.469-.734 1.281-1.203.813-.468 1.906-.468 1.625 0 2.469 1 .86 1 .86 2.687v6.125h-2.422v-5.672q0-.89-.422-1.375-.422-.484-1.172-.484-.953 0-1.531.75-.563.75-.563 1.984v4.797h-2.437v-5.672q0-.89-.438-1.375-.437-.484-1.234-.484-.907 0-1.453.75-.547.75-.547 1.984v4.797h-2.453v-9.516zm18.386-1.046q-.656 0-1.125-.47-.469-.468-.469-1.109 0-.656.469-1.109.469-.469 1.125-.469t1.11.47q.453.452.453 1.108 0 .641-.454 1.11-.453.469-1.109.469zm-1.234 1.046h2.437v9.516h-2.437v-9.516zm4.508 7.516l4.969-5.437h-4.813v-2.079h7.813v2l-4.953 5.438h5.11v2.078h-8.126v-2zm14.487 2.297q-1.422 0-2.563-.64-1.14-.657-1.781-1.798-.64-1.156-.64-2.593 0-1.36.624-2.532.64-1.171 1.75-1.859 1.125-.687 2.516-.687 1.469 0 2.531.64 1.063.625 1.61 1.735.562 1.093.562 2.437 0 .422-.063.828h-7.14q.187 1.125.906 1.719.719.594 1.719.594.844 0 1.453-.36.61-.375.953-.984l1.984.969q-1.453 2.53-4.421 2.53zm2.25-6.203q-.032-.453-.329-.89-.28-.438-.796-.72-.516-.296-1.204-.296-.875 0-1.5.515-.625.5-.906 1.39h4.735zm8.326 6.203q-1.281 0-2.344-.64-1.047-.641-1.656-1.782-.61-1.156-.61-2.625t.61-2.625q.61-1.156 1.656-1.797 1.063-.64 2.344-.64.969 0 1.719.421.75.422 1.14 1.032h.14l-.14-1.344v-3.656h2.422v13.36h-2.281v-1.142h-.14q-.376.625-1.141 1.032-.75.406-1.72.406zm.406-2.25q.688 0 1.281-.36.61-.359.953-.984.36-.64.36-1.453 0-.828-.36-1.453-.343-.64-.953-.984-.593-.344-1.281-.344-.672 0-1.266.344-.593.343-.953.984-.36.625-.36 1.453 0 .813.36 1.453.36.625.953.985.594.359 1.266.359zm6.085 1.953zm10.037.297q-1.437 0-2.578-.64-1.14-.641-1.781-1.798-.64-1.156-.64-2.609 0-1.469.64-2.61.64-1.14 1.781-1.796 1.14-.656 2.578-.656 1.578 0 2.719.687 1.14.672 1.64 1.922l-2.234.937q-.594-1.265-2.125-1.265-1.125 0-1.844.765-.718.766-.718 2.016 0 1.266.718 2.031.72.766 1.844.766 1.547 0 2.234-1.344l2.22.969q-.61 1.25-1.75 1.937-1.141.688-2.704.688zm10.768 0q-1.484 0-2.64-.656-1.157-.672-1.797-1.813-.64-1.156-.64-2.578t.64-2.578q.64-1.156 1.797-1.813 1.156-.671 2.64-.671 1.453 0 2.61.671 1.156.657 1.796 1.813.641 1.156.641 2.578t-.64 2.578q-.641 1.14-1.797 1.813-1.157.656-2.61.656zm0-2.25q.703 0 1.297-.328.61-.344.953-.985.36-.64.36-1.484t-.36-1.469q-.344-.64-.953-.968-.594-.344-1.297-.344-.719 0-1.312.344-.594.328-.969.968-.36.625-.36 1.47 0 .827.36 1.483.375.641.969.985.593.328 1.312.328zm11.005 2.25q-1.281 0-2.344-.64-1.046-.641-1.656-1.782-.61-1.156-.61-2.625t.61-2.625q.61-1.156 1.656-1.797 1.063-.64 2.344-.64.969 0 1.719.421.75.422 1.14 1.032h.141l-.14-1.344v-3.656h2.421v13.36h-2.28v-1.142h-.141q-.375.625-1.141 1.032-.75.406-1.719.406zm.406-2.25q.688 0 1.282-.36.609-.359.953-.984.36-.64.36-1.453 0-.828-.36-1.453-.344-.64-.953-.984-.594-.344-1.282-.344-.671 0-1.265.344-.594.343-.953.984-.36.625-.36 1.453 0 .813.36 1.453.359.625.953.985.594.359 1.265.359zm11.741 2.25q-1.422 0-2.562-.64-1.14-.657-1.782-1.798-.64-1.156-.64-2.593 0-1.36.625-2.532.64-1.171 1.75-1.859 1.125-.687 2.515-.687 1.47 0 2.532.64 1.062.625 1.61 1.735.562 1.093.562 2.437 0 .422-.063.828h-7.14q.187 1.125.906 1.719.718.594 1.718.594.844 0 1.454-.36.609-.375.953-.984l1.984.969q-1.453 2.53-4.422 2.53zm2.25-6.203q-.031-.453-.328-.89-.281-.438-.797-.72-.515-.296-1.203-.296-.875 0-1.5.515-.625.5-.906 1.39h4.734z"/><path fill="#ea4335" d="M229.496 433.16c0-6.28 5.09-11.371 11.37-11.371h155.465a11.37 11.37 0 0 1 11.37 11.37v45.48c0 6.28-5.09 11.37-11.37 11.37H240.866c-6.28 0-11.37-5.09-11.37-11.37z" fill-rule="evenodd"/><path stroke="#5b0f00" stroke-linejoin="round" stroke-linecap="butt" d="M229.496 433.16c0-6.28 5.09-11.371 11.37-11.371h155.465a11.37 11.37 0 0 1 11.37 11.37v45.48c0 6.28-5.09 11.37-11.37 11.37H240.866c-6.28 0-11.37-5.09-11.37-11.37z"/><path fill="#f3f3f3" d="M304.16 449.46h8.469v2.39h-5.953v3.25h5.359v2.391h-5.36v5.328h-2.515v-13.36zm13.393 2.39h-3.734v-2.39h9.984v2.39h-3.734v10.97h-2.516v-10.97zm8.267-2.39h2.515v10.969h5.657v2.39h-8.172v-13.36z"/><path d="M404.248 333.396h51.739v.063h51.726"/><path stroke="#666" stroke-width="2" stroke-linejoin="round" stroke-linecap="butt" d="M404.248 333.396h51.739v.063h39.726"/><path fill="#666" stroke="#666" stroke-width="2" stroke-linecap="butt" d="M495.713 336.762l9.076-3.303-9.076-3.304z" fill-rule="evenodd"/><path d="M407.7 455.9h49.676v.062h49.663"/><path stroke="#666" stroke-width="2" stroke-linejoin="round" stroke-linecap="butt" d="M407.7 455.9h49.676v.062h37.663"/><path fill="#666" stroke="#666" stroke-width="2" stroke-linecap="butt" d="M495.04 459.266l9.076-3.304-9.077-3.303z" fill-rule="evenodd"/><path d="M226.937 213.544c-12.947 0-25.783 29.96-25.894 59.921-.11 29.96 12.506 59.921 25.012 59.921"/><path stroke="#34a853" stroke-width="2" stroke-linejoin="round" stroke-linecap="butt" stroke-dasharray="8.0,6.0" d="M226.937 213.544c-12.947 0-25.783 29.96-25.894 59.921-.055 14.98 3.072 29.96 7.775 41.196 1.176 2.809 2.45 5.383 3.798 7.666a43.294 43.294 0 0 0 2.074 3.196c.354.494.712.967 1.073 1.42l.095.118"/><path fill="#34a853" stroke="#34a853" stroke-width="2" stroke-linecap="butt" d="M214.116 329.868l9.455 1.977-5.972-7.592z" fill-rule="evenodd"/><path d="M730.502 455.925c19.102 0 38.121-60.59 38.204-121.181.083-60.59-18.771-121.181-37.543-121.181"/><path stroke="#ea4335" stroke-width="2" stroke-linejoin="round" stroke-linecap="butt" stroke-dasharray="8.0,6.0" d="M730.502 455.925c19.102 0 38.121-60.59 38.204-121.181.041-30.295-4.652-60.59-11.701-83.312-3.525-11.36-7.639-20.828-12.045-27.455-1.102-1.657-2.221-3.136-3.355-4.423l-.027-.03"/><path fill="#ea4335" stroke="#ea4335" stroke-width="2" stroke-linecap="butt" d="M743.219 216.656l-9.518-1.64 6.236 7.375z" fill-rule="evenodd"/><path d="M824.356 189.73l.063 280.126h-47.685l-.063-280.126z"/><path fill="#ea4335" d="M792.71 277.822q-.001-1.469.733-2.672t2.046-1.906q1.313-.688 3-.688 1.672 0 2.985.688 1.328.703 2.063 1.906.734 1.203.735 2.672 0 1.11-.484 1.953-.469.86-1.172 1.313v.171l1.531-.171h4.172v2.78h-15.265v-2.609h1.297v-.171q-.704-.422-1.173-1.297-.469-.86-.469-1.97zm2.577.469q0 .797.407 1.468.406.688 1.125 1.094.735.406 1.672.406.938 0 1.656-.406.735-.406 1.125-1.094.39-.671.39-1.468 0-.766-.39-1.453-.391-.672-1.126-1.079-.719-.406-1.656-.406-.938 0-1.672.406-.719.407-1.125 1.079-.406.687-.406 1.453zm-2.575 13.426q0-1.625.75-2.937.75-1.297 2.062-2.031 1.312-.735 2.953-.735 1.547 0 2.875.72 1.344.733 2.125 2.015.797 1.281.798 2.86 0 1.687-.734 2.89-.718 1.218-1.984 1.843-1.25.641-2.781.641-.5 0-.937-.062l-.002-8.172q-1.313.218-1.985 1.031-.656.828-.655 1.969 0 .968.406 1.656.422.687 1.126 1.094l-1.11 2.265q-2.906-1.656-2.907-5.047zm7.11 2.579q.5-.047 1-.375.516-.329.844-.922.328-.578.328-1.375 0-1-.595-1.719-.578-.703-1.578-1.031l.001 5.422zm-7.107 10.035q0-1.672.75-3 .765-1.328 2.077-2.063 1.312-.734 2.953-.734 1.625 0 2.938.734 1.328.735 2.078 2.063.766 1.328.767 3 0 1.672-.765 2.984-.75 1.328-2.078 2.063-1.312.734-2.937.734-1.64 0-2.954-.734-1.312-.735-2.078-2.063-.75-1.312-.75-2.984zm2.578 0q0 .812.376 1.5.39.687 1.11 1.094.734.406 1.718.406.969 0 1.688-.406.718-.407 1.093-1.094.39-.688.39-1.5 0-.797-.39-1.484-.376-.688-1.095-1.11-.719-.406-1.687-.406-.953 0-1.703.406-.735.422-1.125 1.11-.375.687-.375 1.484zm8.643 7.836v2.625h-1.312v.171q.703.438 1.172 1.297.485.86.485 1.969 0 1.469-.734 2.672t-2.062 1.875q-1.312.687-2.984.687-1.688 0-3-.687-1.313-.672-2.048-1.875-.734-1.203-.735-2.672 0-1.11.469-1.984.468-.86 1.171-1.282v-.171l-1.531.171h-4.375v-2.796h15.484zm-8.64 5.562q0 .797.407 1.469.406.687 1.125 1.094.735.406 1.672.406.938 0 1.656-.406.735-.407 1.125-1.094.39-.672.39-1.469 0-.766-.39-1.453-.391-.672-1.126-1.078-.719-.406-1.656-.406-.938 0-1.672.406-.719.406-1.125 1.078-.406.687-.406 1.453zm-2.403 12.623q0-.797.234-1.485.25-.687.687-1.109.953-1 2.719-1h5.015v-1.906h2.39l.001 1.906h3.078v2.797h-3.077v2.656h-2.39l-.001-2.656h-4.5q-.828 0-1.187.36-.344.296-.344 1.015 0 .406.11.672.109.265.36.703h-2.735q-.36-.922-.36-1.953zm12.251 5.759q0-.735.531-1.282.531-.53 1.281-.53.735 0 1.25.53.532.547.532 1.282 0 .75-.531 1.265-.516.532-1.25.532-.75 0-1.281-.532-.532-.515-.532-1.265zm-1.203-1.407v2.797h-10.875v-2.797h10.875zm.001 5.715v2.625h-1.359v.172q.782.516 1.235 1.375.469.875.47 1.938 0 1.14-.547 2-.547.859-1.375 1.218.86.532 1.391 1.453.531.938.532 2.188 0 1.86-1.14 2.828-1.14.969-3.078.969h-7v-2.766h6.484q1.015 0 1.562-.484.562-.485.562-1.328 0-1.094-.86-1.75-.86-.64-2.265-.64h-5.485v-2.798h6.484q1.016 0 1.562-.5.563-.5.563-1.422 0-1.015-.86-1.656-.86-.625-2.266-.625h-5.484l-.001-2.797h10.875zm1.208 21.008q0-.734.53-1.28.532-.532 1.282-.532.734 0 1.25.531.531.547.532 1.281 0 .75-.531 1.266-.516.531-1.25.531-.75 0-1.282-.531-.531-.516-.531-1.266zm-1.204-1.406l.001 2.797h-10.875v-2.797h10.874zm-8.592 5.168l6.235 5.672v-5.5h2.359l.002 8.937h-2.282l-6.22-5.672.002 5.844h-2.375l-.002-9.281h2.28zm-2.621 16.555q0-1.625.749-2.938.75-1.297 2.062-2.03 1.312-.735 2.953-.735 1.547 0 2.875.718 1.344.735 2.126 2.016.797 1.281.797 2.86 0 1.687-.734 2.89-.718 1.219-1.984 1.844-1.25.64-2.78.64-.5 0-.938-.062l-.002-8.172q-1.313.219-1.984 1.031-.656.828-.656 1.97 0 .968.407 1.655.422.688 1.125 1.094l-1.109 2.266q-2.907-1.657-2.907-5.047zm7.11 2.578q.5-.047 1-.375.515-.328.843-.922.328-.578.328-1.375 0-1-.594-1.719-.579-.703-1.579-1.03l.002 5.421z"/><path d="M135.588 469.21l.094-409.071h45.796l-.095 409.07z"/><path fill="#34a853" d="M166.348 303.125q0 1.672-.751 3-.766 1.328-2.079 2.062-1.312.735-2.953.735-1.625 0-2.937-.735-1.328-.734-2.078-2.062-.765-1.328-.765-3t.766-2.984q.75-1.329 2.08-2.063 1.312-.734 2.937-.734 1.64 0 2.953.734 1.312.734 2.077 2.063.75 1.312.75 2.984zm-2.578 0q0-.813-.375-1.5-.39-.688-1.11-1.094-.734-.406-1.718-.406-.969 0-1.687.406-.72.406-1.094 1.094-.391.687-.391 1.5 0 .797.39 1.484.375.688 1.093 1.11.719.406 1.688.406.953 0 1.703-.406.734-.422 1.125-1.11.375-.687.376-1.484zm-8.64-7.836l.001-2.625h1.313v-.172q-.703-.437-1.172-1.296-.484-.86-.484-1.97 0-1.468.735-2.671.735-1.203 2.063-1.875 1.313-.688 2.985-.688 1.687 0 3 .688 1.312.672 2.046 1.875.734 1.203.734 2.672 0 1.11-.47 1.984-.468.86-1.171 1.281v.172l1.53-.172h4.376v2.797H155.13zm8.643-5.562q0-.797-.406-1.469-.406-.687-1.125-1.094-.734-.406-1.672-.406-.937 0-1.656.406-.735.407-1.125 1.094-.391.672-.391 1.469 0 .765.39 1.453.39.672 1.125 1.078.718.406 1.656.406.937 0 1.672-.406.719-.406 1.125-1.078.406-.688.407-1.453zm2.409-12.623q0 .797-.235 1.484-.25.688-.688 1.11-.953 1-2.719 1h-5.015v1.906h-2.391v-1.906h-3.078V277.9h3.079v-2.656h2.391v2.656h4.5q.827 0 1.187-.36.344-.296.344-1.015 0-.406-.11-.672-.109-.266-.358-.703h2.734q.36.922.359 1.953zm-12.249-5.759q0 .734-.531 1.281-.532.532-1.282.532-.734 0-1.25-.532-.53-.547-.53-1.28 0-.75.53-1.267.517-.53 1.251-.53.75 0 1.281.53.531.516.531 1.266zm1.203 1.406v-2.797h10.876l-.001 2.797h-10.875zm.001-5.714v-2.625h1.36v-.172q-.78-.516-1.234-1.375-.468-.875-.468-1.938 0-1.14.547-2 .547-.86 1.376-1.219-.86-.53-1.39-1.453-.532-.937-.531-2.187 0-1.86 1.14-2.828 1.142-.969 3.08-.969h7l-.002 2.766h-6.484q-1.016 0-1.562.484-.563.484-.563 1.328 0 1.094.859 1.75.859.64 2.265.64h5.485l-.001 2.798h-6.484q-1.016 0-1.563.5-.563.5-.563 1.421 0 1.016.859 1.657.86.625 2.266.625h5.484v2.797h-10.876zm-1.198-21.009q0 .735-.532 1.282-.53.531-1.28.531-.735 0-1.25-.531-.532-.547-.532-1.282 0-.75.532-1.265.516-.531 1.25-.531.75 0 1.281.53.531.516.531 1.266zm1.203 1.407v-2.797h10.875v2.797h-10.875zm8.595-5.168l-6.233-5.672-.002 5.5h-2.359l.002-8.937h2.281l6.218 5.671.001-5.843h2.375l-.002 9.28h-2.281zm2.629-16.555q0 1.625-.751 2.937-.75 1.297-2.063 2.032-1.313.734-2.953.734-1.547 0-2.875-.719-1.344-.734-2.125-2.015-.796-1.282-.796-2.86 0-1.687.735-2.89.72-1.22 1.985-1.844 1.25-.64 2.781-.64.5 0 .938.062l-.002 8.172q1.312-.22 1.984-1.032.657-.828.657-1.968 0-.97-.406-1.657-.421-.687-1.124-1.093l1.11-2.266q2.905 1.656 2.905 5.047zm-7.11-2.578q-.5.047-1 .375-.515.328-.843.922-.329.578-.329 1.375 0 1 .594 1.718.578.704 1.578 1.032v-5.422z"/><path d="M226.043 333.396c-12.5 0-25.433 30.622-25 61.244.433 30.622 14.233 61.244 28.465 61.244"/><path stroke="#34a853" stroke-width="2" stroke-linejoin="round" stroke-linecap="butt" stroke-dasharray="8.0,6.0" d="M226.043 333.396c-12.5 0-25.433 30.622-25 61.244.217 15.31 3.775 30.622 9.058 42.105 1.32 2.87 2.75 5.502 4.26 7.835a43.908 43.908 0 0 0 2.326 3.267 35.58 35.58 0 0 0 1.814 2.129c.102.11.204.219.307.326l.05.052"/><path fill="#34a853" stroke="#34a853" stroke-width="2" stroke-linecap="butt" d="M217.336 453.286l9.577 1.25-6.533-7.114z" fill-rule="evenodd"/><path d="M226.026 104.09c-12.5 0-25.114 27.362-25 54.724.114 27.362 12.957 54.724 25.914 54.724"/><path stroke="#34a853" stroke-width="2" stroke-linejoin="round" stroke-linecap="butt" stroke-dasharray="8.0,6.0" d="M226.026 104.09c-12.5 0-25.114 27.362-25 54.724.057 13.681 3.297 27.362 8.141 37.623 1.211 2.565 2.523 4.917 3.91 7a39.32 39.32 0 0 0 2.134 2.92c.364.451.732.884 1.104 1.297l.104.113"/><path fill="#34a853" stroke="#34a853" stroke-width="2" stroke-linecap="butt" d="M214.83 210.664l9.546 1.468-6.369-7.261z" fill-rule="evenodd"/></g></svg>