<svg viewBox="0 0 960 540" fill="none" stroke-linecap="square" stroke-miterlimit="10" xmlns="http://www.w3.org/2000/svg"><clipPath id="a"><path d="M0 0h960v540H0V0z"/></clipPath><g clip-path="url(#a)"><path fill="#fff" d="M0 0h960v540H0z" fill-rule="evenodd"/><path fill="#666" d="M25.705 517.365v-1.93h6.463c.066.34.104.746.104 1.184 0 1.447-.397 3.24-1.672 4.515-1.24 1.293-2.827 1.982-4.929 1.982-3.895 0-7.17-3.17-7.17-7.066 0-3.895 3.275-7.066 7.17-7.066 2.154 0 3.689.844 4.843 1.947l-1.361 1.362c-.827-.776-1.948-1.379-3.481-1.379-2.844 0-5.068 2.292-5.068 5.136 0 2.844 2.224 5.136 5.068 5.136 1.844 0 2.895-.741 3.567-1.413.548-.547.908-1.333 1.048-2.407h-4.582zM42.188 518.578c0 2.62-2.05 4.55-4.567 4.55-2.517 0-4.567-1.93-4.567-4.55 0-2.637 2.05-4.55 4.567-4.55 2.516 0 4.567 1.913 4.567 4.55zm-1.999 0c0-1.637-1.189-2.758-2.568-2.758-1.378 0-2.568 1.12-2.568 2.758 0 1.62 1.189 2.758 2.568 2.758s2.568-1.138 2.568-2.758zM52.152 518.578c0 2.62-2.05 4.55-4.567 4.55-2.517 0-4.568-1.93-4.568-4.55 0-2.637 2.051-4.55 4.568-4.55 2.516 0 4.567 1.913 4.567 4.55zm-2 0c0-1.637-1.188-2.758-2.567-2.758-1.379 0-2.568 1.12-2.568 2.758 0 1.62 1.189 2.758 2.568 2.758 1.378 0 2.568-1.138 2.568-2.758zM61.702 514.304v8.17c0 3.36-1.982 4.739-4.326 4.739-2.206 0-3.533-1.483-4.033-2.69l1.74-.723c.311.741 1.069 1.62 2.293 1.62 1.5 0 2.43-.93 2.43-2.67v-.656h-.068c-.449.552-1.31 1.034-2.396 1.034-2.275 0-4.36-1.982-4.36-4.533 0-2.568 2.085-4.567 4.36-4.567 1.086 0 1.947.483 2.396 1.018h.068v-.742h1.896zm-1.758 4.291c0-1.602-1.068-2.775-2.43-2.775-1.379 0-2.533 1.173-2.533 2.775 0 1.586 1.154 2.741 2.533 2.741 1.361 0 2.43-1.155 2.43-2.74zM65.088 509.522v13.33H63.09v-13.33h2zM72.81 520.077l1.55 1.034c-.5.742-1.706 2.017-3.791 2.017-2.586 0-4.516-2-4.516-4.55 0-2.707 1.948-4.551 4.292-4.551 2.361 0 3.516 1.879 3.895 2.896l.207.517-6.084 2.516c.465.914 1.19 1.379 2.206 1.379s1.723-.499 2.24-1.258zm-4.775-1.637l4.067-1.69c-.224-.568-.896-.965-1.689-.965-1.017.001-2.43.897-2.378 2.655z" fill-rule="evenodd"/><path fill="#fff" d="M2.37 495.703h96v44.284h-96z" fill-rule="evenodd"/><path fill="none" d="M405.52 221.567h394.708v46.047H405.52z"/><path fill="#666" d="M589.366 241.065h-1.703v-2.094h1.703v-.515q0-1.625.97-2.547.968-.922 2.546-.922.89 0 1.547.203v2.39q-.36-.156-.64-.234-.266-.078-.61-.078-.625 0-1 .36-.36.359-.36.968v.375h2.329v2.094h-2.329v7.422h-2.453v-7.422zm9.596 7.719q-1.516 0-2.484-.875-.97-.89-.97-2.328 0-.953.5-1.672.5-.735 1.376-1.125.89-.39 1.953-.39 1.469 0 2.516.421v-.406q0-.781-.594-1.266-.578-.484-1.578-.484-.672 0-1.297.312-.625.297-1.031.797l-1.563-1.234q.688-.89 1.734-1.375 1.047-.485 2.266-.485 2.188 0 3.328 1.016 1.14 1 1.14 2.938v5.859h-2.405v-.969h-.157q-.422.563-1.125.922-.703.344-1.609.344zm.578-1.906q1.063 0 1.688-.672.625-.688.625-1.594-.954-.453-2-.453-1.907 0-1.907 1.422 0 .578.407.937.421.36 1.187.36zm10.591 1.906q-1.734 0-2.812-.703-1.063-.72-1.5-1.844l2.187-.953q.297.672.844 1.015.547.344 1.281.344.672 0 1.11-.219.453-.218.453-.703 0-.468-.406-.687-.407-.235-1.235-.422l-1.11-.25q-1.155-.281-1.921-1.016-.766-.734-.766-1.843 0-.813.485-1.47.5-.655 1.343-1 .86-.359 1.875-.359 2.954 0 3.938 2.063l-2.078.922q-.563-1-1.797-1-.64 0-1.016.234-.36.219-.36.578 0 .672 1.267 1.016l1.39.328q1.422.36 2.14 1.094.72.719.72 1.781 0 .906-.532 1.61-.531.703-1.453 1.093t-2.047.39zm9.937-.14q-.703 0-1.297-.22-.593-.218-.968-.593-.875-.844-.875-2.39v-4.376h-1.672v-2.094h1.672v-2.687h2.437v2.687h2.328v2.094h-2.328v3.938q0 .718.313 1.046.265.297.906.297.344 0 .578-.093.234-.094.61-.329v2.391q-.797.328-1.704.328zm8.127.14q-1.422 0-2.563-.64-1.14-.657-1.781-1.798-.64-1.156-.64-2.593 0-1.36.624-2.532.641-1.172 1.75-1.86 1.125-.687 2.516-.687 1.469 0 2.531.641 1.063.625 1.61 1.734.562 1.094.562 2.438 0 .422-.062.828H625.6q.188 1.125.906 1.719.719.594 1.719.594.844 0 1.453-.36.61-.375.953-.984l1.985.969q-1.453 2.53-4.422 2.53zm2.25-6.203q-.031-.453-.328-.89-.282-.438-.797-.72-.516-.297-1.203-.297-.875 0-1.5.516-.625.5-.907 1.39h4.735zm4.232-3.61h2.297v1.266h.156q.36-.672 1.094-1.11.75-.437 1.64-.437.657 0 1.204.203v2.453q-.5-.187-.86-.265-.343-.094-.734-.094-1.078 0-1.719.781-.625.781-.625 1.985v4.734h-2.453v-9.516zm6.779 9.516zm9.694.156q-.704 0-1.297-.219-.594-.218-.969-.593-.875-.844-.875-2.39v-4.376h-1.672v-2.094h1.672v-2.687h2.437v2.687h2.329v2.094h-2.329v3.938q0 .718.313 1.046.266.297.906.297.344 0 .578-.093.235-.094.61-.329v2.391q-.797.328-1.703.328zm8.22.14q-1.485 0-2.64-.655-1.157-.672-1.798-1.813-.64-1.156-.64-2.578t.64-2.578q.64-1.156 1.797-1.813 1.156-.672 2.64-.672 1.454 0 2.61.672 1.156.657 1.797 1.813.64 1.156.64 2.578t-.64 2.578q-.64 1.14-1.797 1.813-1.156.656-2.61.656zm0-2.25q.703 0 1.297-.327.61-.344.953-.985.36-.64.36-1.484t-.36-1.469q-.344-.64-.953-.969-.594-.343-1.297-.343-.719 0-1.313.343-.593.329-.968.97-.36.624-.36 1.468 0 .828.36 1.484.375.64.968.985.594.328 1.313.328zm5.723 1.954zm10.022.297q-1.422 0-2.562-.64-1.14-.657-1.782-1.798-.64-1.156-.64-2.593 0-1.36.625-2.532.64-1.172 1.75-1.86 1.125-.687 2.515-.687 1.47 0 2.532.641 1.062.625 1.61 1.734.562 1.094.562 2.438 0 .422-.063.828h-7.14q.187 1.125.906 1.719.718.594 1.718.594.844 0 1.454-.36.609-.375.953-.984l1.984.969q-1.453 2.53-4.422 2.53zm2.25-6.203q-.031-.453-.328-.89-.281-.438-.797-.72-.515-.297-1.203-.297-.875 0-1.5.516-.625.5-.906 1.39h4.734zm6.592 1.078l-3.281-4.688h2.89l1.813 2.72h.11l1.687-2.72h2.984l-3.328 4.688 3.328 4.828h-2.89l-1.829-2.781h-.109l-1.781 2.78h-2.89l3.296-4.827zm12.11 5.125q-1.423 0-2.563-.64-1.14-.657-1.782-1.798-.64-1.156-.64-2.593 0-1.36.625-2.532.64-1.172 1.75-1.86 1.125-.687 2.515-.687 1.47 0 2.532.641 1.062.625 1.61 1.734.562 1.094.562 2.438 0 .422-.063.828h-7.14q.187 1.125.906 1.719.718.594 1.718.594.844 0 1.454-.36.609-.375.953-.984l1.984.969q-1.453 2.53-4.422 2.53zm2.25-6.203q-.032-.453-.329-.89-.281-.438-.797-.72-.515-.297-1.203-.297-.875 0-1.5.516-.625.5-.906 1.39h4.734zm8.716 6.203q-1.437 0-2.578-.64-1.14-.641-1.781-1.798-.64-1.156-.64-2.61 0-1.468.64-2.608.64-1.141 1.781-1.797 1.14-.657 2.578-.657 1.578 0 2.719.688 1.14.672 1.64 1.922l-2.234.937q-.594-1.265-2.125-1.265-1.125 0-1.844.765-.718.766-.718 2.016 0 1.266.718 2.031.72.766 1.844.766 1.547 0 2.234-1.344l2.22.969q-.61 1.25-1.75 1.937-1.141.688-2.704.688zm9.643 0q-1.719 0-2.61-1.063-.89-1.062-.89-2.968v-5.782h2.438v5.485q0 .968.468 1.53.47.548 1.235.548 1.047 0 1.656-.766.61-.765.61-1.953v-4.844h2.453v9.516h-2.297v-1.188h-.157q-.421.688-1.203 1.094-.765.39-1.703.39zm11.878-.14q-.703 0-1.296-.22-.594-.218-.97-.593-.874-.844-.874-2.39v-4.376h-1.672v-2.094h1.672v-2.687h2.437v2.687h2.328v2.094h-2.328v3.938q0 .718.313 1.046.265.297.906.297.344 0 .578-.093.235-.094.61-.329v2.391q-.797.328-1.704.328zm8.127.14q-1.422 0-2.563-.64-1.14-.657-1.78-1.798-.642-1.156-.642-2.593 0-1.36.625-2.532.641-1.172 1.75-1.86 1.125-.687 2.516-.687 1.469 0 2.531.641 1.063.625 1.61 1.734.562 1.094.562 2.438 0 .422-.062.828h-7.14q.187 1.125.905 1.719.72.594 1.72.594.843 0 1.452-.36.61-.375.953-.984l1.985.969q-1.453 2.53-4.422 2.53zm2.25-6.203q-.031-.453-.328-.89-.282-.438-.797-.72-.516-.297-1.203-.297-.875 0-1.5.516-.625.5-.907 1.39h4.735zm3.045 5.906zm10.037.297q-1.437 0-2.578-.64-1.14-.641-1.781-1.798-.64-1.156-.64-2.61 0-1.468.64-2.608.64-1.141 1.781-1.797 1.14-.657 2.578-.657 1.578 0 2.72.688 1.14.672 1.64 1.922l-2.235.937q-.593-1.265-2.125-1.265-1.125 0-1.843.765-.72.766-.72 2.016 0 1.266.72 2.031.718.766 1.843.766 1.547 0 2.235-1.344l2.218.969q-.609 1.25-1.75 1.937-1.14.688-2.703.688zm10.768 0q-1.484 0-2.64-.656-1.156-.672-1.797-1.813-.64-1.156-.64-2.578t.64-2.578q.64-1.156 1.797-1.813 1.156-.672 2.64-.672 1.454 0 2.61.672 1.156.657 1.797 1.813.64 1.156.64 2.578t-.64 2.578q-.64 1.14-1.797 1.813-1.156.656-2.61.656zm0-2.25q.704 0 1.297-.328.61-.344.953-.985.36-.64.36-1.484t-.36-1.469q-.343-.64-.953-.969-.593-.343-1.297-.343-.718 0-1.312.343-.594.329-.969.97-.36.624-.36 1.468 0 .828.36 1.484.375.64.969.985.594.328 1.312.328zm11.005 2.25q-1.28 0-2.343-.64-1.047-.641-1.657-1.782-.61-1.156-.61-2.625t.61-2.625q.61-1.156 1.657-1.797 1.062-.64 2.343-.64.97 0 1.72.421.75.422 1.14 1.032h.14l-.14-1.344v-3.656h2.422v13.359h-2.282v-1.14h-.14q-.375.624-1.14 1.03-.75.407-1.72.407zm.407-2.25q.687 0 1.28-.36.61-.359.954-.984.36-.64.36-1.453 0-.828-.36-1.453-.344-.64-.953-.985-.594-.343-1.281-.343-.672 0-1.266.343-.594.344-.953.985-.36.625-.36 1.453 0 .812.36 1.453.36.625.953.984.594.36 1.266.36zm11.74 2.25q-1.421 0-2.562-.64-1.14-.657-1.781-1.798-.641-1.156-.641-2.593 0-1.36.625-2.532.64-1.172 1.75-1.86 1.125-.687 2.516-.687 1.468 0 2.53.641 1.063.625 1.61 1.734.563 1.094.563 2.438 0 .422-.063.828h-7.14q.187 1.125.906 1.719.719.594 1.719.594.843 0 1.453-.36.61-.375.953-.984l1.984.969q-1.453 2.53-4.422 2.53zm2.25-6.203q-.03-.453-.328-.89-.281-.438-.797-.72-.515-.297-1.203-.297-.875 0-1.5.516-.625.5-.906 1.39h4.734z"/><path fill="none" d="M165.268 267.614h394.708v46.047H165.268z"/><path fill="#666" d="M176.486 287.112h-1.703v-2.093h1.703v-.516q0-1.625.97-2.547.968-.922 2.546-.922.89 0 1.547.203v2.39q-.36-.155-.64-.233-.266-.079-.61-.079-.625 0-1 .36-.36.36-.36.969v.375h2.329v2.093h-2.328v7.422h-2.454v-7.422zm9.596 7.719q-1.515 0-2.484-.875-.969-.89-.969-2.328 0-.953.5-1.672.5-.734 1.375-1.125.89-.39 1.953-.39 1.469 0 2.516.421v-.406q0-.781-.594-1.266-.578-.484-1.578-.484-.672 0-1.297.313-.625.296-1.031.796l-1.563-1.234q.688-.89 1.735-1.375 1.047-.484 2.265-.484 2.188 0 3.328 1.015 1.141 1 1.141 2.938v5.86h-2.406v-.97h-.156q-.422.563-1.125.922-.704.344-1.61.344zm.578-1.906q1.063 0 1.688-.672.625-.688.625-1.594-.953-.453-2-.453-1.906 0-1.906 1.422 0 .578.406.937.422.36 1.187.36zm10.591 1.906q-1.734 0-2.812-.703-1.063-.719-1.5-1.844l2.187-.953q.297.672.844 1.016.547.343 1.281.343.672 0 1.11-.218.453-.22.453-.703 0-.47-.406-.688-.407-.234-1.235-.422l-1.11-.25q-1.155-.281-1.921-1.015-.766-.735-.766-1.844 0-.813.485-1.469.5-.656 1.344-1 .859-.36 1.875-.36 2.953 0 3.937 2.063l-2.078.922q-.563-1-1.797-1-.64 0-1.016.234-.359.22-.359.579 0 .671 1.266 1.015l1.39.328q1.422.36 2.14 1.094.72.719.72 1.781 0 .907-.532 1.61-.53.703-1.453 1.093-.922.391-2.047.391zm9.937-.14q-.703 0-1.296-.22-.594-.218-.97-.593-.874-.844-.874-2.39v-4.376h-1.672v-2.093h1.672v-2.688h2.437v2.688h2.328v2.093h-2.328v3.938q0 .719.313 1.047.265.297.906.297.344 0 .578-.094.235-.094.61-.328v2.39q-.797.328-1.704.328zm8.127.14q-1.422 0-2.563-.64-1.14-.657-1.78-1.797-.642-1.157-.642-2.594 0-1.36.625-2.531.641-1.172 1.75-1.86 1.125-.687 2.516-.687 1.469 0 2.531.64 1.063.625 1.61 1.735.562 1.093.562 2.437 0 .422-.062.828h-7.14q.187 1.125.905 1.719.72.594 1.72.594.843 0 1.452-.36.61-.375.953-.984l1.985.969q-1.453 2.531-4.422 2.531zm2.25-6.203q-.031-.453-.328-.89-.282-.438-.797-.72-.516-.296-1.203-.296-.875 0-1.5.515-.625.5-.907 1.39h4.735zm4.232-3.61h2.297v1.266h.156q.36-.672 1.094-1.11.75-.437 1.64-.437.657 0 1.204.203v2.454q-.5-.188-.86-.266-.343-.094-.734-.094-1.078 0-1.719.781-.625.782-.625 1.985v4.734h-2.453v-9.515zm6.78 9.516zm9.693.156q-.703 0-1.297-.218-.594-.22-.969-.594-.875-.844-.875-2.39v-4.376h-1.672v-2.093h1.672v-2.688h2.438v2.688h2.328v2.093h-2.328v3.938q0 .719.312 1.047.266.297.906.297.344 0 .578-.094.235-.094.61-.328v2.39q-.797.328-1.703.328zm8.22.141q-1.484 0-2.64-.656-1.157-.672-1.798-1.813-.64-1.156-.64-2.578t.64-2.578q.641-1.156 1.797-1.812 1.157-.672 2.64-.672 1.454 0 2.61.672 1.157.656 1.797 1.812.64 1.156.64 2.578t-.64 2.578q-.64 1.14-1.797 1.813-1.156.656-2.61.656zm0-2.25q.703 0 1.297-.328.61-.344.953-.984.36-.641.36-1.485 0-.844-.36-1.469-.344-.64-.953-.968-.594-.344-1.297-.344-.719 0-1.313.344-.593.328-.968.968-.36.625-.36 1.47 0 .827.36 1.484.375.64.968.984.594.328 1.313.328zm5.724 1.953zm9.943 4.328q-1.812 0-3.015-.812-1.188-.813-1.594-1.953l2.297-.922q.297.703.906 1.11.625.421 1.406.421 1.156 0 1.828-.719.688-.703.688-2.015v-.75h-.14q-.454.64-1.188.984-.719.328-1.657.328-1.171 0-2.187-.61-1.016-.609-1.64-1.718-.61-1.11-.61-2.578 0-1.469.61-2.578.624-1.11 1.64-1.719 1.016-.61 2.187-.61.938 0 1.657.344.734.329 1.187.97h.14v-1.016h2.36v8.859q0 1.531-.61 2.64-.593 1.126-1.702 1.735-1.094.61-2.563.61zm.031-6.547q1.032 0 1.75-.718.735-.72.735-1.97 0-1.28-.719-1.983-.719-.704-1.766-.704-1.03 0-1.765.72-.735.702-.735 1.968t.735 1.984q.734.703 1.765.703zm11.689 2.516q-1.422 0-2.563-.64-1.14-.657-1.78-1.797-.642-1.157-.642-2.594 0-1.36.625-2.531.641-1.172 1.75-1.86 1.125-.687 2.516-.687 1.469 0 2.531.64 1.063.625 1.61 1.735.562 1.093.562 2.437 0 .422-.062.828h-7.14q.187 1.125.905 1.719.72.594 1.72.594.843 0 1.452-.36.61-.375.953-.984l1.985.969q-1.453 2.531-4.422 2.531zm2.25-6.203q-.031-.453-.328-.89-.282-.438-.797-.72-.516-.296-1.203-.296-.875 0-1.5.515-.625.5-.907 1.39h4.735zm4.232-3.61h2.297v1.188h.156q.422-.687 1.204-1.078.796-.406 1.703-.406 1.718 0 2.61 1.047.905 1.046.905 2.859v5.906h-2.453v-5.61q0-.921-.469-1.421-.468-.5-1.296-.5-1 0-1.61.766-.594.765-.594 1.921v4.844h-2.453v-9.515zm15.644 9.813q-1.422 0-2.562-.64-1.14-.657-1.782-1.797-.64-1.157-.64-2.594 0-1.36.625-2.531.64-1.172 1.75-1.86 1.125-.687 2.515-.687 1.47 0 2.532.64 1.062.625 1.61 1.735.562 1.093.562 2.437 0 .422-.063.828h-7.14q.187 1.125.906 1.719.718.594 1.718.594.844 0 1.454-.36.609-.375.953-.984l1.984.969q-1.453 2.531-4.422 2.531zm2.25-6.203q-.031-.453-.328-.89-.281-.438-.797-.72-.515-.296-1.203-.296-.875 0-1.5.515-.625.5-.906 1.39h4.734zm4.233-3.61h2.297v1.266h.156q.36-.672 1.094-1.11.75-.437 1.64-.437.656 0 1.203.203v2.454q-.5-.188-.86-.266-.343-.094-.733-.094-1.079 0-1.72.781-.624.782-.624 1.985v4.734h-2.453v-9.515zm10.888 9.813q-1.516 0-2.485-.875-.968-.89-.968-2.328 0-.953.5-1.672.5-.734 1.375-1.125.89-.39 1.953-.39 1.469 0 2.515.421v-.406q0-.781-.593-1.266-.578-.484-1.578-.484-.672 0-1.297.313-.625.296-1.032.796l-1.562-1.234q.687-.89 1.734-1.375 1.047-.484 2.266-.484 2.187 0 3.328 1.015 1.14 1 1.14 2.938v5.86h-2.406v-.97h-.156q-.422.563-1.125.922-.703.344-1.61.344zm.578-1.906q1.062 0 1.687-.672.625-.688.625-1.594-.953-.453-2-.453-1.906 0-1.906 1.422 0 .578.406.937.422.36 1.188.36zm11.107 1.765q-.703 0-1.297-.218-.594-.22-.969-.594-.875-.844-.875-2.39v-4.376h-1.672v-2.093h1.672v-2.688h2.438v2.688h2.328v2.093h-2.328v3.938q0 .719.312 1.047.266.297.906.297.344 0 .578-.094.235-.094.61-.328v2.39q-.797.328-1.703.328zm8.126.141q-1.422 0-2.562-.64-1.141-.657-1.782-1.797-.64-1.157-.64-2.594 0-1.36.625-2.531.64-1.172 1.75-1.86 1.125-.687 2.515-.687 1.47 0 2.532.64 1.062.625 1.609 1.735.562 1.093.562 2.437 0 .422-.062.828h-7.14q.187 1.125.906 1.719.718.594 1.718.594.844 0 1.453-.36.61-.375.954-.984l1.984.969q-1.453 2.531-4.422 2.531zm2.25-6.203q-.031-.453-.328-.89-.281-.438-.797-.72-.516-.296-1.203-.296-.875 0-1.5.515-.625.5-.906 1.39h4.734zm3.045 5.906zm10.037.297q-1.437 0-2.578-.64-1.14-.641-1.78-1.797-.642-1.157-.642-2.61 0-1.469.641-2.61.64-1.14 1.781-1.796 1.141-.656 2.578-.656 1.579 0 2.72.687 1.14.672 1.64 1.922l-2.235.938q-.593-1.266-2.125-1.266-1.125 0-1.843.766-.719.765-.719 2.015 0 1.266.719 2.031.718.766 1.843.766 1.547 0 2.235-1.344l2.219.969q-.61 1.25-1.75 1.938-1.141.687-2.704.687zm10.769 0q-1.485 0-2.641-.656-1.156-.672-1.797-1.813-.64-1.156-.64-2.578t.64-2.578q.64-1.156 1.797-1.812 1.156-.672 2.64-.672 1.454 0 2.61.672 1.156.656 1.797 1.812.64 1.156.64 2.578t-.64 2.578q-.64 1.14-1.797 1.813-1.156.656-2.61.656zm0-2.25q.703 0 1.297-.328.609-.344.953-.984.359-.641.359-1.485 0-.844-.36-1.469-.343-.64-.952-.968-.594-.344-1.297-.344-.72 0-1.313.344-.594.328-.969.968-.359.625-.359 1.47 0 .827.36 1.484.374.64.968.984.594.328 1.313.328zm11.004 2.25q-1.28 0-2.343-.64-1.047-.641-1.657-1.782-.609-1.156-.609-2.625t.61-2.625q.609-1.156 1.656-1.797 1.062-.64 2.343-.64.97 0 1.72.422.75.421 1.14 1.03h.14l-.14-1.343v-3.656h2.422v13.36h-2.282v-1.141h-.14q-.375.625-1.14 1.03-.75.407-1.72.407zm.407-2.25q.687 0 1.281-.36.61-.359.953-.984.36-.64.36-1.453 0-.828-.36-1.453-.344-.64-.953-.984-.594-.344-1.281-.344-.672 0-1.266.344-.594.343-.953.984-.36.625-.36 1.453 0 .813.36 1.453.36.625.953.985.594.36 1.266.36zm11.74 2.25q-1.421 0-2.562-.64-1.14-.657-1.781-1.797-.64-1.157-.64-2.594 0-1.36.624-2.531.64-1.172 1.75-1.86 1.125-.687 2.516-.687 1.469 0 2.531.64 1.063.625 1.61 1.735.562 1.093.562 2.437 0 .422-.063.828h-7.14q.187 1.125.906 1.719.719.594 1.719.594.844 0 1.453-.36.61-.375.953-.984l1.984.969q-1.453 2.531-4.421 2.531zm2.25-6.203q-.03-.453-.328-.89-.28-.438-.796-.72-.516-.296-1.204-.296-.875 0-1.5.515-.625.5-.906 1.39h4.735z"/><path fill="none" d="M165.268 267.615l634.96-.661"/><path stroke="#666" stroke-width="4" stroke-linejoin="round" stroke-linecap="butt" d="M180.428 267.6l604.64-.63"/><path fill="#666" stroke="#666" stroke-width="4" stroke-linecap="butt" d="M180.435 274.18l-13.16.013-.014-13.16 13.16-.014.014 13.16zM785.062 260.39l13.16-.014.013 13.16-13.16.013-.013-13.16z"/><path fill="#274e13" d="M223.094 267.284a7.528 7.528 0 1 1 15.055 0 7.528 7.528 0 0 1-15.055 0z" fill-rule="evenodd"/><path fill="none" d="M230.623 207.143v52.598"/><path stroke="#274e13" stroke-width="4" stroke-linejoin="round" stroke-linecap="butt" d="M230.623 207.143v52.598"/><path fill="#38761d" d="M137.52 144.99c0-6.864 5.566-12.43 12.43-12.43h161.345a12.43 12.43 0 0 1 12.43 12.43v49.723c0 6.865-5.565 12.43-12.43 12.43H149.95c-6.865 0-12.43-5.565-12.43-12.43z" fill-rule="evenodd"/><path stroke="#274e13" stroke-linejoin="round" stroke-linecap="butt" d="M137.52 144.99c0-6.864 5.566-12.43 12.43-12.43h161.345a12.43 12.43 0 0 1 12.43 12.43v49.723c0 6.865-5.565 12.43-12.43 12.43H149.95c-6.865 0-12.43-5.565-12.43-12.43z"/><path fill="#f3f3f3" d="M181.763 163.412h2.516v13.36h-2.516v-13.36zm5.216 3.844h2.297v1.188h.156q.422-.688 1.203-1.079.797-.406 1.703-.406 1.72 0 2.61 1.047.906 1.047.906 2.86v5.906h-2.453v-5.61q0-.922-.469-1.422-.469-.5-1.297-.5-1 0-1.609.766-.594.766-.594 1.922v4.844h-2.453v-9.516zm15.316 9.672q-.703 0-1.297-.219t-.969-.594q-.875-.843-.875-2.39v-4.375h-1.672v-2.094h1.672v-2.687h2.438v2.687h2.328v2.094h-2.328v3.937q0 .72.312 1.047.266.297.906.297.344 0 .579-.094.234-.093.609-.328v2.39q-.797.329-1.703.329zm8.126.14q-1.422 0-2.562-.64-1.14-.656-1.781-1.797-.641-1.156-.641-2.594 0-1.36.625-2.53.64-1.173 1.75-1.86 1.125-.688 2.516-.688 1.468 0 2.53.64 1.063.626 1.61 1.735.563 1.094.563 2.438 0 .422-.063.828h-7.14q.187 1.125.906 1.719.719.593 1.719.593.843 0 1.453-.36.609-.374.953-.983l1.984.968q-1.453 2.532-4.422 2.532zm2.25-6.203q-.031-.453-.328-.89-.281-.438-.797-.719-.515-.297-1.203-.297-.875 0-1.5.516-.625.5-.906 1.39h4.734zm4.233-3.609h2.297v1.266h.156q.36-.672 1.094-1.11.75-.437 1.64-.437.656 0 1.203.203v2.453q-.5-.187-.859-.266-.344-.093-.734-.093-1.079 0-1.72.78-.624.782-.624 1.985v4.735h-2.453v-9.516zm7.903 0h2.297v1.156h.141q.39-.61 1.14-1.03.75-.423 1.72-.423 1.28 0 2.327.64 1.063.641 1.657 1.798.593 1.156.593 2.625 0 1.468-.593 2.625-.594 1.14-1.657 1.78-1.046.642-2.328.642-.968 0-1.734-.407-.75-.406-1.125-1.03h-.14l.14 1.343v3.828h-2.438v-13.547zm4.86 7.563q.687 0 1.281-.36.61-.36.953-.984.36-.64.36-1.453 0-.828-.36-1.453-.344-.641-.953-.985-.594-.344-1.281-.344-.672 0-1.266.344t-.953.985q-.344.625-.344 1.453 0 .812.344 1.453.36.625.953.984.594.36 1.266.36zm6.9-7.563h2.297v1.266h.157q.359-.672 1.093-1.11.75-.437 1.64-.437.657 0 1.204.203v2.453q-.5-.187-.86-.266-.343-.093-.734-.093-1.078 0-1.718.78-.625.782-.625 1.985v4.735h-2.454v-9.516zm12.435 9.813q-1.421 0-2.562-.641-1.14-.656-1.781-1.797-.641-1.156-.641-2.594 0-1.36.625-2.53.64-1.173 1.75-1.86 1.125-.688 2.516-.688 1.468 0 2.53.64 1.063.626 1.61 1.735.563 1.094.563 2.438 0 .422-.063.828h-7.14q.187 1.125.906 1.719.719.593 1.719.593.843 0 1.453-.36.61-.374.953-.983l1.984.968q-1.453 2.532-4.422 2.532zm2.25-6.204q-.03-.453-.328-.89-.281-.438-.797-.719-.515-.297-1.203-.297-.875 0-1.5.516-.625.5-.906 1.39h4.734zm8.373 6.063q-.703 0-1.296-.219-.594-.219-.97-.594-.874-.843-.874-2.39v-4.375h-1.672v-2.094h1.672v-2.687h2.437v2.687h2.328v2.094h-2.328v3.937q0 .72.313 1.047.265.297.906.297.344 0 .578-.094.235-.093.61-.328v2.39q-.797.329-1.704.329zm8.127.14q-1.422 0-2.563-.64-1.14-.656-1.78-1.797-.641-1.156-.641-2.594 0-1.36.625-2.53.64-1.173 1.75-1.86 1.125-.688 2.515-.688 1.469 0 2.531.64 1.063.626 1.61 1.735.562 1.094.562 2.438 0 .422-.062.828h-7.14q.187 1.125.905 1.719.72.593 1.72.593.843 0 1.452-.36.61-.374.953-.983l1.985.968q-1.453 2.532-4.422 2.532zm2.25-6.203q-.031-.453-.328-.89-.281-.438-.797-.719-.516-.297-1.203-.297-.875 0-1.5.516-.625.5-.906 1.39h4.734zm4.232-3.609h2.297v1.266h.157q.359-.672 1.093-1.11.75-.437 1.64-.437.657 0 1.204.203v2.453q-.5-.187-.86-.266-.343-.093-.734-.093-1.078 0-1.718.78-.625.782-.625 1.985v4.735h-2.454v-9.516z"/><path fill="#c00" d="M725.85 267.284a7.528 7.528 0 1 1 15.055 0 7.528 7.528 0 0 1-15.055 0z" fill-rule="evenodd"/><path fill="none" d="M733.379 322.15V274.81"/><path stroke="#c00" stroke-width="4" stroke-linejoin="round" stroke-linecap="butt" d="M733.379 322.15V274.81"/><path fill="#ea4335" d="M644.276 336.365c0-7.851 6.365-14.215 14.216-14.215h149.774a14.215 14.215 0 0 1 14.215 14.215v56.86c0 7.852-6.364 14.216-14.215 14.216H658.492c-7.851 0-14.216-6.364-14.216-14.215z" fill-rule="evenodd"/><path stroke="#c00" stroke-linejoin="round" stroke-linecap="butt" d="M644.276 336.365c0-7.851 6.365-14.215 14.216-14.215h149.774a14.215 14.215 0 0 1 14.215 14.215v56.86c0 7.852-6.364 14.216-14.215 14.216H658.492c-7.851 0-14.216-6.364-14.216-14.215z"/><path fill="#f3f3f3" d="M685.004 358.356h2.516v13.36h-2.516v-13.36zm9.779 13.656q-1.485 0-2.64-.656-1.157-.672-1.798-1.813-.64-1.156-.64-2.578t.64-2.578q.64-1.156 1.797-1.812 1.156-.672 2.64-.672 1.454 0 2.61.672 1.156.656 1.797 1.812.64 1.156.64 2.578t-.64 2.578q-.64 1.141-1.797 1.813-1.156.656-2.61.656zm0-2.25q.703 0 1.297-.328.609-.344.953-.984.36-.641.36-1.485 0-.844-.36-1.469-.344-.64-.953-.968-.594-.344-1.297-.344-.719 0-1.313.344-.594.328-.969.968-.359.625-.359 1.47 0 .827.36 1.484.374.64.968.984.594.328 1.313.328zm6.91-7.562h2.298v1.187h.156q.422-.687 1.203-1.078.797-.406 1.703-.406 1.719 0 2.61 1.047.906 1.046.906 2.859v5.906h-2.453v-5.61q0-.921-.47-1.421-.468-.5-1.296-.5-1 0-1.61.766-.593.765-.593 1.921v4.844h-2.453V362.2zm11.52-3.844h3.25l3.547 9.39h.14l3.547-9.39h3.266v13.36h-2.5v-6.579l.14-2.234h-.14l-3.391 8.812h-1.969l-3.406-8.812h-.156l.156 2.234v6.578h-2.484v-13.36zm21.01 13.656q-1.485 0-2.642-.656-1.156-.672-1.796-1.813-.641-1.156-.641-2.578t.64-2.578q.641-1.156 1.797-1.812 1.157-.672 2.641-.672 1.453 0 2.61.672 1.156.656 1.796 1.812.64 1.156.64 2.578t-.64 2.578q-.64 1.141-1.797 1.813-1.156.656-2.609.656zm0-2.25q.702 0 1.296-.328.61-.344.953-.984.36-.641.36-1.485 0-.844-.36-1.469-.344-.64-.953-.968-.594-.344-1.297-.344-.719 0-1.312.344-.594.328-.97.968-.359.625-.359 1.47 0 .827.36 1.484.375.64.969.984.593.328 1.312.328zm6.91-7.562h2.297v1.187h.156q.422-.687 1.203-1.078.797-.406 1.703-.406 1.72 0 2.61 1.047.906 1.046.906 2.859v5.906h-2.453v-5.61q0-.921-.469-1.421t-1.297-.5q-1 0-1.609.766-.594.765-.594 1.921v4.844h-2.453V362.2zm11.175-3.844h2.453v7.281h.125l3.422-3.437h3v.156l-3.61 3.515 3.782 5.688v.156h-2.89l-2.594-4.156-1.235 1.203v2.953h-2.453v-13.36zm14.898 13.656q-1.422 0-2.563-.64-1.14-.657-1.78-1.797-.642-1.157-.642-2.594 0-1.36.625-2.531.641-1.172 1.75-1.86 1.125-.687 2.516-.687 1.469 0 2.531.64 1.063.625 1.61 1.735.562 1.093.562 2.437 0 .422-.062.828h-7.14q.187 1.125.905 1.72.72.593 1.72.593.843 0 1.452-.36.61-.375.953-.984l1.985.969q-1.453 2.531-4.422 2.531zm2.25-6.203q-.031-.453-.328-.89-.282-.438-.797-.72-.516-.296-1.203-.296-.875 0-1.5.515-.625.5-.907 1.391h4.735zm7.201 5.453l-4-9.062h2.766l2.468 5.921h.157l2.36-5.921h2.733l-5.89 13.546h-2.625l2.031-4.484z"/><path fill="#ff9800" d="M308.89 336.366c0-7.85 6.365-14.215 14.216-14.215H472.88a14.215 14.215 0 0 1 14.215 14.215v56.861c0 7.85-6.364 14.215-14.215 14.215H323.106c-7.851 0-14.216-6.364-14.216-14.215z" fill-rule="evenodd"/><path stroke="#b45f06" stroke-linejoin="round" stroke-linecap="butt" d="M308.89 336.366c0-7.85 6.365-14.215 14.216-14.215H472.88a14.215 14.215 0 0 1 14.215 14.215v56.861c0 7.85-6.364 14.215-14.215 14.215H323.106c-7.851 0-14.216-6.364-14.216-14.215z"/><path fill="#f3f3f3" d="M362.006 358.357h5.22q1.124 0 2.062.469.937.469 1.484 1.266.547.796.547 1.75 0 1.015-.5 1.75-.5.734-1.297 1.125v.156q1.047.375 1.656 1.187.625.813.625 1.938 0 1.11-.594 1.953-.578.844-1.578 1.312-1 .454-2.218.454h-5.407v-13.36zm5.032 5.453q.828 0 1.312-.453.5-.469.5-1.156 0-.672-.484-1.125-.47-.453-1.25-.453h-2.594v3.187h2.516zm.28 5.61q.923 0 1.423-.47.515-.483.515-1.25 0-.765-.515-1.25-.516-.483-1.5-.483h-2.72v3.453h2.798zm9.337 2.593q-1.516 0-2.484-.875-.97-.89-.97-2.328 0-.953.5-1.672.5-.734 1.376-1.125.89-.39 1.953-.39 1.469 0 2.516.422v-.407q0-.78-.594-1.265-.578-.485-1.578-.485-.672 0-1.297.313-.625.297-1.031.797l-1.563-1.235q.688-.89 1.735-1.375 1.046-.484 2.265-.484 2.188 0 3.328 1.016 1.14 1 1.14 2.937v5.86h-2.405v-.97h-.157q-.421.563-1.125.923-.703.343-1.609.343zm.578-1.906q1.063 0 1.688-.672.625-.687.625-1.593-.953-.454-2-.454-1.907 0-1.907 1.422 0 .578.407.938.422.36 1.187.36zm10.591 1.906q-1.734 0-2.812-.703-1.063-.718-1.5-1.843l2.187-.954q.297.672.844 1.016.547.344 1.281.344.672 0 1.11-.219.453-.219.453-.703 0-.469-.406-.688-.407-.234-1.235-.421l-1.11-.25q-1.155-.282-1.921-1.016t-.766-1.844q0-.812.485-1.469.5-.656 1.343-1 .86-.359 1.875-.359 2.954 0 3.938 2.063l-2.078.921q-.563-1-1.797-1-.64 0-1.016.235-.359.219-.359.578 0 .672 1.266 1.016l1.39.328q1.422.36 2.14 1.093.72.72.72 1.782 0 .906-.532 1.61-.53.702-1.453 1.093-.922.39-2.047.39zm10.265 0q-1.421 0-2.562-.64-1.14-.656-1.781-1.797-.64-1.156-.64-2.594 0-1.36.624-2.531.64-1.172 1.75-1.86 1.125-.687 2.516-.687 1.468 0 2.531.64 1.062.626 1.61 1.735.562 1.094.562 2.438 0 .421-.063.828h-7.14q.187 1.125.906 1.718.719.594 1.719.594.843 0 1.453-.36.61-.374.953-.984l1.984.97q-1.453 2.53-4.422 2.53zm2.25-6.203q-.03-.453-.328-.89-.28-.438-.797-.72-.515-.296-1.203-.296-.875 0-1.5.516-.625.5-.906 1.39h4.734zm4.233-7.453h2.453v13.36h-2.453v-13.36zm6.241 2.797q-.656 0-1.125-.469-.469-.468-.469-1.11 0-.655.47-1.108.468-.47 1.124-.47.656 0 1.11.47.453.453.453 1.109 0 .64-.453 1.11-.454.468-1.11.468zm-1.234 1.047h2.437v9.516h-2.437V362.2zm4.993 0h2.297v1.187h.156q.422-.687 1.203-1.078.797-.406 1.703-.406 1.719 0 2.61 1.047.906 1.047.906 2.86v5.906h-2.453v-5.61q0-.922-.47-1.422-.468-.5-1.296-.5-1 0-1.61.766-.593.766-.593 1.922v4.844h-2.453V362.2zm15.644 9.812q-1.422 0-2.563-.64-1.14-.656-1.781-1.797-.64-1.156-.64-2.594 0-1.36.624-2.531.64-1.172 1.75-1.86 1.125-.687 2.516-.687 1.469 0 2.531.64 1.063.626 1.61 1.735.562 1.094.562 2.438 0 .421-.063.828h-7.14q.187 1.125.906 1.718.719.594 1.719.594.844 0 1.453-.36.61-.374.953-.984l1.984.97q-1.453 2.53-4.421 2.53zm2.25-6.203q-.032-.453-.329-.89-.28-.438-.796-.72-.516-.296-1.204-.296-.875 0-1.5.516-.625.5-.906 1.39h4.735z"/><path fill="#b45f06" d="M390.464 267.284a7.528 7.528 0 1 1 15.055 0 7.528 7.528 0 1 1-15.055 0z" fill-rule="evenodd"/><path fill="none" d="M397.991 274.812v47.338"/><path stroke="#b45f06" stroke-width="4" stroke-linejoin="round" stroke-linecap="butt" d="M397.991 274.812v47.338"/></g></svg>