<svg viewBox="0 0 960 540" fill="none" stroke-linecap="square" stroke-miterlimit="10" xmlns="http://www.w3.org/2000/svg"><clipPath id="a"><path d="M0 0h960v540H0V0z"/></clipPath><g clip-path="url(#a)"><path fill="#fff" d="M0 0h960v540H0z" fill-rule="evenodd"/><path fill="#666" d="M25.705 517.365v-1.93h6.463c.066.34.104.746.104 1.184 0 1.447-.397 3.24-1.672 4.515-1.24 1.293-2.827 1.982-4.929 1.982-3.895 0-7.17-3.17-7.17-7.066 0-3.895 3.275-7.066 7.17-7.066 2.154 0 3.689.844 4.843 1.947l-1.361 1.362c-.827-.776-1.948-1.379-3.481-1.379-2.844 0-5.068 2.292-5.068 5.136 0 2.844 2.224 5.136 5.068 5.136 1.844 0 2.895-.741 3.567-1.413.548-.547.908-1.333 1.048-2.407h-4.582zm16.483 1.213c0 2.62-2.05 4.55-4.567 4.55-2.517 0-4.567-1.93-4.567-4.55 0-2.637 2.05-4.55 4.567-4.55 2.516 0 4.567 1.913 4.567 4.55zm-1.999 0c0-1.637-1.189-2.758-2.568-2.758-1.378 0-2.568 1.12-2.568 2.758 0 1.62 1.189 2.758 2.568 2.758s2.568-1.138 2.568-2.758zm11.963 0c0 2.62-2.05 4.55-4.567 4.55-2.517 0-4.568-1.93-4.568-4.55 0-2.637 2.051-4.55 4.568-4.55 2.516 0 4.567 1.913 4.567 4.55zm-2 0c0-1.637-1.188-2.758-2.567-2.758-1.379 0-2.568 1.12-2.568 2.758 0 1.62 1.189 2.758 2.568 2.758 1.378 0 2.568-1.138 2.568-2.758zm11.55-4.274v8.17c0 3.36-1.982 4.739-4.326 4.739-2.206 0-3.533-1.483-4.033-2.69l1.74-.723c.311.741 1.069 1.62 2.293 1.62 1.5 0 2.43-.93 2.43-2.67v-.656h-.068c-.449.552-1.31 1.034-2.396 1.034-2.275 0-4.36-1.982-4.36-4.533 0-2.568 2.085-4.567 4.36-4.567 1.086 0 1.947.483 2.396 1.018h.068v-.742h1.896zm-1.758 4.291c0-1.602-1.068-2.775-2.43-2.775-1.379 0-2.533 1.173-2.533 2.775 0 1.586 1.154 2.741 2.533 2.741 1.361 0 2.43-1.155 2.43-2.74zm5.144-9.073v13.33H63.09v-13.33h2zm7.722 10.555l1.55 1.034c-.5.742-1.706 2.017-3.791 2.017-2.586 0-4.516-2-4.516-4.55 0-2.707 1.948-4.551 4.292-4.551 2.361 0 3.516 1.879 3.895 2.896l.207.517-6.084 2.516c.465.914 1.19 1.379 2.206 1.379s1.723-.499 2.24-1.258zm-4.775-1.637l4.067-1.69c-.224-.568-.896-.965-1.689-.965-1.017.001-2.43.897-2.378 2.655z" fill-rule="evenodd"/><path fill="#fff" d="M2.37 495.703h96v44.284h-96z" fill-rule="evenodd"/><path fill="#ff9800" d="M505.268 216.677h223.45v85.524c-111.725 0-111.725 32.586-223.45 14.071z" fill-rule="evenodd"/><path stroke="#85200c" stroke-linejoin="round" stroke-linecap="butt" d="M505.268 216.677h223.45v85.524c-111.725 0-111.725 32.586-223.45 14.071z"/><path fill="#f3f3f3" d="M574.866 255.656q-1.734 0-2.812-.703-1.063-.719-1.5-1.844l2.187-.953q.297.672.844 1.016.547.343 1.281.343.672 0 1.11-.218.453-.22.453-.704 0-.468-.406-.687-.407-.234-1.235-.422l-1.109-.25q-1.156-.281-1.922-1.016-.766-.734-.766-1.843 0-.813.485-1.469.5-.656 1.344-1 .859-.36 1.875-.36 2.953 0 3.937 2.063l-2.078.922q-.563-1-1.797-1-.64 0-1.016.234-.359.22-.359.578 0 .672 1.266 1.016l1.39.328q1.422.36 2.141 1.094.719.719.719 1.781 0 .906-.532 1.61-.53.703-1.453 1.093-.922.391-2.047.391zm10.36 0q-1.485 0-2.641-.656-1.157-.672-1.797-1.813-.64-1.156-.64-2.578t.64-2.578q.64-1.156 1.797-1.813 1.156-.671 2.64-.671 1.453 0 2.61.671 1.156.657 1.797 1.813.64 1.156.64 2.578t-.64 2.578q-.641 1.14-1.797 1.813-1.157.656-2.61.656zm0-2.25q.702 0 1.296-.328.61-.344.953-.985.36-.64.36-1.484t-.36-1.469q-.343-.64-.953-.968-.594-.344-1.297-.344-.718 0-1.312.344-.594.328-.969.968-.36.625-.36 1.47 0 .827.36 1.483.375.641.969.985.594.328 1.312.328zm6.91-7.563h2.297v1.188h.157q.437-.688 1.187-1.078.766-.406 1.703-.406 1 0 1.75.484.75.469 1.063 1.187.468-.734 1.281-1.203.812-.468 1.906-.468 1.625 0 2.469 1 .86 1 .86 2.687v6.125h-2.423v-5.672q0-.89-.421-1.375-.422-.484-1.172-.484-.953 0-1.532.75-.562.75-.562 1.984v4.797h-2.438v-5.672q0-.89-.437-1.375-.438-.484-1.234-.484-.907 0-1.454.75-.546.75-.546 1.984v4.797h-2.454v-9.516zm21.465 9.813q-1.422 0-2.562-.64-1.141-.657-1.782-1.798-.64-1.156-.64-2.593 0-1.36.625-2.532.64-1.171 1.75-1.859 1.125-.687 2.515-.687 1.47 0 2.532.64 1.062.625 1.609 1.735.562 1.093.562 2.437 0 .422-.062.828h-7.14q.187 1.125.906 1.719.718.594 1.718.594.844 0 1.453-.36.61-.375.954-.984l1.984.969q-1.453 2.531-4.422 2.531zm2.25-6.203q-.031-.453-.328-.89-.281-.438-.797-.72-.516-.296-1.203-.296-.875 0-1.5.515-.625.5-.906 1.39h4.734zm3.17-3.61h2.75l1.64 6.172h.126l1.906-6.172h2.5l1.906 6.172h.125l1.64-6.172h2.704l-3.031 9.516h-2.64l-1.938-6.156h-.125l-1.922 6.156h-2.61l-3.03-9.516zM635.624 242h2.453v3.375l-.156 1.656h.156q.407-.672 1.188-1.078.781-.406 1.703-.406 1.734 0 2.656 1.03.922 1.032.922 2.876v5.906h-2.437v-5.61q0-.921-.5-1.421t-1.313-.5q-.969 0-1.594.781-.625.781-.625 1.922v4.828h-2.453V242zm14.153 13.656q-1.516 0-2.484-.875-.969-.89-.969-2.328 0-.953.5-1.672.5-.734 1.375-1.125.89-.39 1.953-.39 1.469 0 2.516.421v-.406q0-.781-.594-1.266-.578-.484-1.578-.484-.672 0-1.297.312-.625.297-1.031.797l-1.563-1.234q.688-.89 1.735-1.375 1.046-.484 2.265-.484 2.188 0 3.328 1.015 1.141 1 1.141 2.938v5.86h-2.406v-.97h-.157q-.421.563-1.125.922-.703.344-1.609.344zm.578-1.906q1.063 0 1.688-.672.625-.688.625-1.594-.953-.453-2-.453-1.907 0-1.907 1.422 0 .578.407.937.422.36 1.187.36zm11.107 1.765q-.703 0-1.297-.218-.594-.22-.969-.594-.875-.844-.875-2.39v-4.376h-1.671v-2.094h1.671v-2.687h2.438v2.687h2.328v2.094h-2.328v3.938q0 .718.312 1.047.266.296.907.296.343 0 .578-.093.234-.094.61-.328v2.39q-.798.328-1.704.328zm-108.605 22.141q-1.485 0-2.64-.656-1.157-.672-1.798-1.813-.64-1.156-.64-2.578t.64-2.578q.64-1.156 1.797-1.813 1.156-.671 2.64-.671 1.454 0 2.61.671 1.156.657 1.797 1.813.64 1.156.64 2.578t-.64 2.578q-.64 1.14-1.797 1.813-1.156.656-2.61.656zm0-2.25q.703 0 1.297-.328.609-.344.953-.985.36-.64.36-1.484t-.36-1.469q-.344-.64-.953-.968-.594-.344-1.297-.344-.719 0-1.313.344-.593.328-.968.968-.36.625-.36 1.47 0 .827.36 1.483.375.641.968.985.594.328 1.313.328zm6.848-7.563h2.297V269h.14q.392-.61 1.142-1.032.75-.421 1.718-.421 1.282 0 2.328.64 1.063.64 1.657 1.797.593 1.156.593 2.625t-.593 2.625q-.594 1.14-1.657 1.781-1.046.641-2.328.641-.968 0-1.734-.406-.75-.407-1.125-1.032h-.14l.14 1.344v3.828h-2.438v-13.547zm4.86 7.563q.687 0 1.281-.36.61-.359.953-.984.36-.64.36-1.453 0-.828-.36-1.453-.344-.64-.953-.984-.594-.344-1.281-.344-.672 0-1.266.344-.594.343-.953.984-.344.625-.344 1.453 0 .813.344 1.453.36.625.953.985.594.359 1.266.359zm11.041 2.11q-.703 0-1.297-.22-.594-.218-.969-.593-.875-.844-.875-2.39v-4.376h-1.672v-2.094h1.672v-2.687h2.438v2.687h2.328v2.094h-2.328v3.938q0 .718.312 1.047.266.296.907.296.343 0 .578-.093.234-.094.61-.328v2.39q-.798.328-1.704.328zm5.048-10.72q-.656 0-1.125-.468-.468-.469-.468-1.11 0-.656.468-1.109.469-.469 1.125-.469.657 0 1.11.47.453.452.453 1.108 0 .641-.453 1.11-.453.469-1.11.469zm-1.234 1.047h2.437v9.516h-2.437v-9.516zm4.993 0h2.297v1.188h.156q.437-.688 1.187-1.078.766-.406 1.704-.406 1 0 1.75.484.75.469 1.062 1.187.469-.734 1.281-1.203.813-.468 1.907-.468 1.625 0 2.468 1 .86 1 .86 2.687v6.125h-2.422v-5.672q0-.89-.422-1.375-.422-.484-1.172-.484-.953 0-1.531.75-.563.75-.563 1.984v4.797h-2.437v-5.672q0-.89-.438-1.375-.437-.484-1.234-.484-.906 0-1.453.75t-.547 1.984v4.797h-2.453v-9.516zm18.386-1.046q-.656 0-1.125-.47-.468-.468-.468-1.109 0-.656.468-1.109.469-.469 1.125-.469.657 0 1.11.47.453.452.453 1.108 0 .641-.453 1.11-.453.469-1.11.469zm-1.234 1.046h2.437v9.516h-2.437v-9.516zm4.508 7.516l4.97-5.437h-4.813v-2.079h7.812v2l-4.953 5.438h5.11v2.078h-8.126v-2zm14.487 2.297q-1.422 0-2.563-.64-1.14-.657-1.78-1.798-.642-1.156-.642-2.593 0-1.36.625-2.532.641-1.171 1.75-1.859 1.125-.687 2.516-.687 1.469 0 2.531.64 1.063.625 1.61 1.735.562 1.093.562 2.437 0 .422-.062.828h-7.14q.187 1.125.905 1.719.72.594 1.72.594.843 0 1.452-.36.61-.375.953-.984l1.985.969q-1.453 2.531-4.422 2.531zm2.25-6.203q-.031-.453-.328-.89-.282-.438-.797-.72-.516-.296-1.203-.296-.875 0-1.5.515-.625.5-.907 1.39h4.735zm8.326 6.203q-1.281 0-2.344-.64-1.047-.641-1.656-1.782-.61-1.156-.61-2.625t.61-2.625q.61-1.156 1.656-1.797 1.063-.64 2.344-.64.969 0 1.719.421.75.422 1.14 1.032h.141l-.14-1.344V264h2.421v13.36h-2.281v-1.142h-.14q-.376.625-1.141 1.032-.75.406-1.719.406zm.406-2.25q.688 0 1.282-.36.609-.359.953-.984.359-.64.359-1.453 0-.828-.36-1.453-.343-.64-.952-.984-.594-.344-1.282-.344-.672 0-1.265.344-.594.343-.953.984-.36.625-.36 1.453 0 .813.36 1.453.359.625.953.985.593.359 1.265.359zm6.085 1.953zm10.037.297q-1.437 0-2.578-.64-1.14-.641-1.781-1.798-.64-1.156-.64-2.609 0-1.469.64-2.61.64-1.14 1.781-1.796 1.14-.656 2.578-.656 1.578 0 2.72.687 1.14.672 1.64 1.922l-2.235.937q-.593-1.265-2.125-1.265-1.125 0-1.843.765-.72.766-.72 2.016 0 1.266.72 2.031.718.766 1.843.766 1.547 0 2.235-1.344l2.218.969q-.609 1.25-1.75 1.937-1.14.688-2.703.688zm10.768 0q-1.484 0-2.64-.656-1.156-.672-1.797-1.813-.64-1.156-.64-2.578t.64-2.578q.64-1.156 1.797-1.813 1.156-.671 2.64-.671 1.454 0 2.61.671 1.156.657 1.797 1.813.64 1.156.64 2.578t-.64 2.578q-.64 1.14-1.797 1.813-1.156.656-2.61.656zm0-2.25q.704 0 1.297-.328.61-.344.953-.985.36-.64.36-1.484t-.36-1.469q-.343-.64-.953-.968-.593-.344-1.297-.344-.718 0-1.312.344-.594.328-.969.968-.36.625-.36 1.47 0 .827.36 1.483.375.641.969.985.594.328 1.312.328zm11.005 2.25q-1.28 0-2.343-.64-1.047-.641-1.657-1.782-.61-1.156-.61-2.625t.61-2.625q.61-1.156 1.657-1.797 1.062-.64 2.343-.64.97 0 1.72.421.75.422 1.14 1.032h.14l-.14-1.344V264h2.422v13.36h-2.282v-1.142h-.14q-.375.625-1.14 1.032-.75.406-1.72.406zm.407-2.25q.687 0 1.28-.36.61-.359.954-.984.36-.64.36-1.453 0-.828-.36-1.453-.344-.64-.953-.984-.594-.344-1.281-.344-.672 0-1.266.344-.594.343-.953.984-.36.625-.36 1.453 0 .813.36 1.453.36.625.953.985.594.359 1.266.359zm11.74 2.25q-1.421 0-2.562-.64-1.14-.657-1.781-1.798-.641-1.156-.641-2.593 0-1.36.625-2.532.64-1.171 1.75-1.859 1.125-.687 2.516-.687 1.468 0 2.53.64 1.063.625 1.61 1.735.563 1.093.563 2.437 0 .422-.063.828h-7.14q.187 1.125.906 1.719.719.594 1.719.594.843 0 1.453-.36.61-.375.953-.984l1.984.969q-1.453 2.531-4.422 2.531zm2.25-6.203q-.03-.453-.328-.89-.281-.438-.797-.72-.515-.296-1.203-.296-.875 0-1.5.515-.625.5-.906 1.39h4.734z"/><path fill="#ff9800" d="M224.481 241.563c0-7.85 6.364-14.215 14.215-14.215H388.47a14.215 14.215 0 0 1 14.216 14.215v56.86c0 7.852-6.365 14.216-14.216 14.216H238.696c-7.85 0-14.215-6.364-14.215-14.215z" fill-rule="evenodd"/><path stroke="#5b0f00" stroke-linejoin="round" stroke-linecap="butt" d="M224.481 241.563c0-7.85 6.364-14.215 14.215-14.215H388.47a14.215 14.215 0 0 1 14.216 14.215v56.86c0 7.852-6.365 14.216-14.216 14.216H238.696c-7.85 0-14.215-6.364-14.215-14.215z"/><path fill="#f3f3f3" d="M275.266 277.21q-1.75 0-3.093-.984-1.344-.984-1.891-2.797l2.375-.937q.281 1.062.953 1.703.672.625 1.672.625.844 0 1.437-.407.594-.421.594-1.171t-.578-1.22q-.562-.484-2.016-1.015l-.812-.312q-1.297-.438-2.219-1.36-.906-.922-.906-2.328 0-1.047.547-1.906.547-.86 1.531-1.344.984-.5 2.234-.5 1.813 0 2.86.86 1.047.843 1.437 1.968l-2.218.938q-.22-.61-.735-1.031-.5-.422-1.312-.422-.813 0-1.344.39-.531.375-.531.985t.5 1.03q.5.407 1.656.798l.844.281q1.734.61 2.656 1.594.922.969.922 2.547 0 1.312-.672 2.218-.672.907-1.734 1.36-1.047.437-2.157.437zm8.005-10.86q-.657 0-1.125-.468-.47-.469-.47-1.11 0-.655.47-1.109.468-.468 1.125-.468.656 0 1.109.468.453.454.453 1.11 0 .64-.453 1.11-.453.468-1.11.468zm-1.235 1.048h2.438v9.515h-2.438v-9.515zm4.993 0h2.297v1.187h.156q.438-.687 1.188-1.078.765-.406 1.703-.406 1 0 1.75.484.75.47 1.062 1.188.469-.735 1.281-1.203.813-.47 1.907-.47 1.625 0 2.468 1 .86 1 .86 2.688v6.125h-2.422v-5.671q0-.891-.422-1.375-.422-.485-1.172-.485-.953 0-1.531.75-.563.75-.563 1.985v4.796h-2.437v-5.671q0-.891-.438-1.375-.437-.485-1.234-.485-.906 0-1.453.75t-.547 1.985v4.796h-2.453v-9.515zm16.933 0h2.297v1.156h.14q.391-.61 1.141-1.031.75-.422 1.72-.422 1.28 0 2.327.64 1.063.641 1.657 1.797.593 1.157.593 2.625 0 1.47-.593 2.625-.594 1.141-1.657 1.782-1.047.64-2.328.64-.969 0-1.734-.406-.75-.406-1.125-1.031h-.14l.14 1.344v3.828h-2.438v-13.547zm4.86 7.562q.687 0 1.281-.36.61-.358.953-.983.36-.641.36-1.454 0-.828-.36-1.453-.344-.64-.953-.984-.594-.344-1.281-.344-.672 0-1.266.344t-.953.984q-.344.625-.344 1.453 0 .813.344 1.454.36.625.953.984.594.36 1.266.36zm6.9-11.406h2.453v13.36h-2.453v-13.36zm9.32 13.656q-1.422 0-2.563-.64-1.14-.657-1.781-1.797-.64-1.156-.64-2.594 0-1.36.624-2.531.64-1.172 1.75-1.86 1.125-.687 2.516-.687 1.469 0 2.531.64 1.063.626 1.61 1.735.562 1.094.562 2.437 0 .422-.062.829h-7.141q.187 1.125.906 1.718.719.594 1.719.594.844 0 1.453-.36.61-.374.953-.984l1.985.97q-1.454 2.53-4.422 2.53zm2.25-6.203q-.032-.453-.328-.89-.282-.438-.797-.72-.516-.296-1.203-.296-.875 0-1.5.516-.625.5-.907 1.39h4.735zm7.967 6.203q-1.579 0-2.766-.86-1.188-.874-1.656-2.358l2.312-.954q.25.875.781 1.329.547.453 1.329.453.859 0 1.343-.547.5-.563.5-1.578v-9.14h2.532v9.124q0 1.453-.579 2.469-.578 1.015-1.578 1.547-.984.515-2.218.515zm7.206-13.656h2.515v13.36h-2.515v-13.36zm8.262 2.39h-3.734v-2.39h9.984v2.39h-3.734v10.97h-2.516v-10.97z"/><path fill="#38761d" d="M226.027 88.369c0-6.865 5.565-12.43 12.43-12.43h161.344a12.43 12.43 0 0 1 12.43 12.43v49.722c0 6.865-5.565 12.43-12.43 12.43H238.457c-6.865 0-12.43-5.565-12.43-12.43z" fill-rule="evenodd"/><path stroke="#274e13" stroke-linejoin="round" stroke-linecap="butt" d="M226.027 88.369c0-6.865 5.565-12.43 12.43-12.43h161.344a12.43 12.43 0 0 1 12.43 12.43v49.722c0 6.865-5.565 12.43-12.43 12.43H238.457c-6.865 0-12.43-5.565-12.43-12.43z"/><path fill="#f3f3f3" d="M271.522 109.587q-.656 0-1.125-.469-.469-.468-.469-1.109 0-.656.469-1.11.469-.468 1.125-.468t1.11.469q.452.453.452 1.109 0 .64-.453 1.11-.453.468-1.109.468zm-1.234 1.047h2.437v9.516h-2.437v-9.516zm4.992 0h2.297v1.188h.157q.421-.688 1.203-1.079.797-.406 1.703-.406 1.719 0 2.61 1.047.905 1.047.905 2.86v5.906h-2.453v-5.61q0-.922-.468-1.422-.47-.5-1.297-.5-1 0-1.61.766-.593.766-.593 1.922v4.844h-2.454v-9.516zm15.316 9.672q-.703 0-1.297-.219-.593-.219-.968-.594-.875-.843-.875-2.39v-4.375h-1.672v-2.094h1.672v-2.687h2.437v2.687h2.328v2.094h-2.328v3.937q0 .719.313 1.047.265.297.906.297.344 0 .578-.094.234-.093.61-.328v2.39q-.798.329-1.704.329zm8.127.14q-1.422 0-2.563-.64-1.14-.656-1.781-1.797-.64-1.156-.64-2.594 0-1.36.624-2.531.64-1.172 1.75-1.86 1.125-.687 2.516-.687 1.469 0 2.531.64 1.063.626 1.61 1.735.562 1.094.562 2.438 0 .422-.063.828h-7.14q.187 1.125.906 1.719.719.593 1.719.593.844 0 1.453-.36.61-.374.953-.983l1.984.968q-1.453 2.532-4.421 2.532zm2.25-6.203q-.032-.453-.329-.89-.28-.438-.796-.719-.516-.297-1.204-.297-.875 0-1.5.516-.625.5-.906 1.39h4.735zm4.232-3.609h2.297v1.266h.156q.36-.672 1.094-1.11.75-.437 1.64-.437.657 0 1.204.203v2.453q-.5-.187-.86-.266-.343-.093-.734-.093-1.078 0-1.719.78-.625.782-.625 1.985v4.735h-2.453v-9.516zm7.904 0h2.297v1.156h.14q.39-.61 1.14-1.031.75-.422 1.72-.422 1.28 0 2.328.64 1.062.641 1.656 1.798.594 1.156.594 2.625 0 1.468-.594 2.625-.594 1.14-1.656 1.78-1.047.642-2.328.642-.97 0-1.735-.407-.75-.406-1.125-1.031h-.14l.14 1.344v3.828h-2.437v-13.547zm4.86 7.563q.687 0 1.28-.36.61-.36.954-.984.359-.64.359-1.453 0-.828-.36-1.453-.343-.641-.953-.985-.593-.344-1.28-.344-.673 0-1.266.344-.594.344-.954.985-.343.625-.343 1.453 0 .812.343 1.453.36.625.954.984.593.36 1.265.36zm6.9-7.563h2.297v1.266h.156q.36-.672 1.094-1.11.75-.437 1.64-.437.657 0 1.203.203v2.453q-.5-.187-.859-.266-.344-.093-.734-.093-1.078 0-1.72.78-.624.782-.624 1.985v4.735h-2.453v-9.516zm12.435 9.813q-1.422 0-2.563-.641-1.14-.656-1.781-1.797-.64-1.156-.64-2.594 0-1.36.624-2.531.641-1.172 1.75-1.86 1.125-.687 2.516-.687 1.469 0 2.531.64 1.063.626 1.61 1.735.562 1.094.562 2.438 0 .422-.062.828h-7.141q.187 1.125.906 1.719.719.593 1.719.593.844 0 1.453-.36.61-.374.953-.983l1.985.968q-1.454 2.532-4.422 2.532zm2.25-6.204q-.032-.453-.328-.89-.282-.438-.797-.719-.516-.297-1.203-.297-.875 0-1.5.516-.625.5-.907 1.39h4.735zm8.373 6.063q-.703 0-1.297-.219t-.969-.594q-.875-.843-.875-2.39v-4.375h-1.672v-2.094h1.672v-2.687h2.438v2.687h2.328v2.094h-2.328v3.937q0 .719.312 1.047.266.297.906.297.344 0 .579-.094.234-.093.609-.328v2.39q-.797.329-1.703.329zm8.126.14q-1.422 0-2.562-.64-1.14-.656-1.782-1.797-.64-1.156-.64-2.594 0-1.36.625-2.531.64-1.172 1.75-1.86 1.125-.687 2.515-.687 1.47 0 2.532.64 1.062.626 1.61 1.735.562 1.094.562 2.438 0 .422-.063.828h-7.14q.187 1.125.906 1.719.718.593 1.718.593.844 0 1.454-.36.609-.374.953-.983l1.984.968q-1.453 2.532-4.422 2.532zm2.25-6.203q-.031-.453-.328-.89-.281-.438-.797-.719-.515-.297-1.203-.297-.875 0-1.5.516-.625.5-.906 1.39h4.734zm4.233-3.609h2.297v1.266h.156q.36-.672 1.094-1.11.75-.437 1.64-.437.656 0 1.203.203v2.453q-.5-.187-.859-.266-.344-.093-.734-.093-1.079 0-1.72.78-.624.782-.624 1.985v4.735h-2.453v-9.516z"/><path fill="#6aa84f" d="M505.268 59.912h223.449v85.524c-111.725 0-111.725 32.586-223.45 14.07z" fill-rule="evenodd"/><path stroke="#38761d" stroke-linejoin="round" stroke-linecap="butt" d="M505.268 59.912h223.449v85.524c-111.725 0-111.725 32.586-223.45 14.07z"/><path fill="#fff" d="M580.396 109.89q-.984 0-1.734-.406t-1.125-1.03h-.156v1.14h-2.297v-13.36h2.453v3.657l-.156 1.343h.156q.39-.609 1.125-1.03.75-.423 1.734-.423 1.282 0 2.328.641 1.063.64 1.657 1.797.593 1.156.593 2.625t-.593 2.625q-.594 1.14-1.657 1.781-1.046.64-2.328.64zm-.437-2.25q.687 0 1.281-.359.61-.359.953-.984.36-.64.36-1.453 0-.828-.36-1.453-.344-.64-.953-.985-.594-.343-1.281-.343-.672 0-1.266.343-.594.344-.953.985-.36.625-.36 1.453 0 .812.36 1.453.36.625.953.984.594.36 1.266.36zm9.866 1.5l-4-9.062h2.765l2.47 5.922h.155l2.36-5.922h2.734l-5.89 13.547h-2.626l2.032-4.484zm11.955.61q-.703 0-1.297-.219-.594-.218-.969-.593-.875-.844-.875-2.391v-4.375h-1.672v-2.094h1.672v-2.687h2.438v2.687h2.328v2.094h-2.328v3.937q0 .72.312 1.047.266.297.907.297.343 0 .578-.094.234-.093.609-.328v2.391q-.797.328-1.703.328zm8.126.14q-1.422 0-2.562-.64-1.14-.656-1.781-1.797-.641-1.156-.641-2.594 0-1.359.625-2.53.64-1.173 1.75-1.86 1.125-.688 2.516-.688 1.468 0 2.53.641 1.063.625 1.61 1.734.563 1.094.563 2.438 0 .422-.063.828h-7.14q.187 1.125.906 1.719.719.593 1.719.593.843 0 1.453-.359.61-.375.953-.984l1.984.968q-1.453 2.532-4.422 2.532zm2.25-6.202q-.03-.454-.328-.891-.281-.438-.797-.719-.515-.297-1.203-.297-.875 0-1.5.516-.625.5-.906 1.39h4.734zm8.717 6.203q-1.437 0-2.578-.64-1.14-.642-1.781-1.798-.64-1.156-.64-2.61 0-1.468.64-2.609.64-1.14 1.781-1.796 1.14-.657 2.578-.657 1.578 0 2.719.688 1.14.672 1.64 1.922l-2.234.937q-.594-1.265-2.125-1.265-1.125 0-1.844.765-.718.766-.718 2.016 0 1.265.718 2.031.72.766 1.844.766 1.547 0 2.235-1.344l2.218.969q-.61 1.25-1.75 1.937-1.14.688-2.703.688zm10.768 0q-1.484 0-2.64-.657-1.157-.671-1.797-1.812-.64-1.156-.64-2.578t.64-2.578q.64-1.157 1.797-1.813 1.156-.672 2.64-.672 1.453 0 2.61.672 1.156.656 1.797 1.813.64 1.156.64 2.578t-.64 2.578q-.641 1.14-1.797 1.812-1.157.657-2.61.657zm0-2.25q.703 0 1.297-.328.61-.344.953-.985.36-.64.36-1.484t-.36-1.469q-.343-.64-.953-.969-.594-.343-1.297-.343-.718 0-1.312.343-.594.328-.969.97-.36.624-.36 1.468 0 .828.36 1.484.375.64.969.985.594.328 1.312.328zm11.005 2.25q-1.281 0-2.344-.64-1.046-.642-1.656-1.782-.61-1.156-.61-2.625t.61-2.625q.61-1.156 1.656-1.797 1.063-.64 2.344-.64.969 0 1.719.421.75.422 1.14 1.031h.141l-.14-1.343v-3.657h2.421v13.36h-2.28v-1.14h-.141q-.375.624-1.141 1.03-.75.407-1.719.407zm.406-2.25q.688 0 1.282-.36.61-.359.953-.984.36-.64.36-1.453 0-.828-.36-1.453-.344-.64-.953-.985-.594-.343-1.282-.343-.671 0-1.265.343-.594.344-.953.985-.36.625-.36 1.453 0 .812.36 1.453.36.625.953.984.594.36 1.265.36zm11.741 2.25q-1.422 0-2.562-.64-1.14-.657-1.781-1.798-.641-1.156-.641-2.594 0-1.359.625-2.53.64-1.173 1.75-1.86 1.125-.688 2.516-.688 1.468 0 2.53.641 1.063.625 1.61 1.734.563 1.094.563 2.438 0 .422-.063.828h-7.14q.187 1.125.906 1.719.719.593 1.719.593.843 0 1.453-.359.609-.375.953-.984l1.984.968q-1.453 2.532-4.422 2.532zm2.25-6.203q-.031-.454-.328-.891-.281-.438-.797-.719-.515-.297-1.203-.297-.875 0-1.5.516-.625.5-.906 1.39h4.734z"/><path d="M402.686 269.993h51.291v.063h51.291"/><path stroke="#666" stroke-width="2" stroke-linejoin="round" stroke-linecap="butt" d="M402.686 269.993h51.291v.063h39.291"/><path fill="#666" stroke="#666" stroke-width="2" stroke-linecap="butt" d="M493.268 273.36l9.077-3.304-9.077-3.303z" fill-rule="evenodd"/><path d="M412.231 113.23h46.52v.063h46.52"/><path stroke="#666" stroke-width="2" stroke-linejoin="round" stroke-linecap="butt" d="M412.231 113.23h46.52v.063h34.52"/><path fill="#666" stroke="#666" stroke-width="2" stroke-linecap="butt" d="M493.27 116.596l9.077-3.303-9.076-3.304z" fill-rule="evenodd"/><path d="M305.782 352.826l165.134-74.835 18.929 41.764L324.71 394.59z"/><path fill="#666" d="M367.857 351.484l-1.665.755.748 1.65-1.124.51-.748-1.65-1.65.748-.51-1.125 1.65-.748-.748-1.65 1.124-.51.749 1.65 1.665-.754.51 1.124zm1.542 1.79zm.61-6.247l1.196-.542.27.598.072-.032q.071-.41.359-.798.28-.402.793-.634.67-.303 1.365-.207.703.076 1.28.553.583.456.925 1.21.349.768.306 1.508-.028.733-.428 1.326-.392.573-1.061.876-.513.232-1.008.199-.48-.04-.828-.276l-.072.032.394.68.897 1.977-1.267.574-3.193-7.044zm4.314 2.78q.356-.162.585-.488.229-.327.266-.739.036-.41-.157-.838-.194-.427-.527-.67-.333-.244-.73-.287-.397-.043-.753.118-.356.162-.585.489-.215.32-.252.731-.037.411.157.838.193.427.527.67.333.244.716.294.397.043.753-.118zm1.815-5.557l1.195-.542.303.669.071-.033q.024-.44.305-.841.296-.408.75-.615.343-.155.672-.184l.58 1.28q-.315.024-.52.065-.19.035-.388.125-.57.258-.71.819-.147.547.137 1.173l1.116 2.462-1.267.574-2.244-4.952zm8.822 2.16q-.768.348-1.52.277-.76-.085-1.366-.513-.598-.45-.94-1.204-.335-.74-.279-1.486.07-.752.514-1.365.436-.627 1.205-.975.754-.342 1.513-.257.767.064 1.365.514.612.443.948 1.183.342.754.271 1.507-.063.731-.513 1.365-.443.612-1.198.954zm-.535-1.181q.37-.168.606-.48.235-.313.272-.725.03-.425-.17-.866t-.533-.685q-.333-.243-.724-.272-.397-.043-.767.124-.37.168-.6.495-.235.313-.272.724-.036.41.164.852.2.441.54.699.333.243.723.272.39.03.76-.138zm2.85-4.706l-.883.4-.496-1.096.882-.4-.122-.27q-.381-.84-.102-1.55.293-.715 1.104-1.083.47-.213.863-.254l.561 1.239q-.217.012-.379.034-.162.022-.347.106-.313.142-.428.417-.101.269.047.596l.084.185 1.21-.548.496 1.096-1.21.548 1.749 3.857-1.281.58-1.748-3.857zm3.452-3.537q-.342.155-.694.023-.351-.133-.506-.474-.155-.342-.016-.679.132-.352.474-.506.341-.155.679-.016.345.118.5.46.155.34.022.692-.118.345-.46.5zm-.396.831l1.267-.574 2.245 4.953-1.267.574-2.245-4.953zm1.705-3.174l1.267-.574 3.147 6.945-1.266.574-3.148-6.945zm3.893-.014q-.341.154-.693.022-.352-.132-.506-.474-.155-.341-.016-.679.132-.351.473-.506.342-.155.68-.016.344.118.5.46.154.341.022.693-.118.345-.46.5zm-.395.83l1.266-.573 2.245 4.952-1.266.574-2.245-4.952zm2.608-1.181l1.195-.542.284.626.071-.032q.066-.459.368-.853.316-.4.786-.613.896-.407 1.618-.064.714.327 1.14 1.267l1.393 3.074-1.28.58-1.323-2.917q-.22-.484-.577-.63-.365-.161-.806.039-.512.232-.645.772-.132.54.145 1.152l1.142 2.52-1.267.573-2.244-4.952zm11.355 3.534q-.94.426-1.76.283-.813-.13-1.297-.63l.976-1.026q.324.3.734.37.424.066.837-.121.598-.27.786-.802.188-.531-.115-1.2l-.18-.399-.072.033q-.094.436-.394.796-.293.338-.777.557-.611.278-1.28.203-.668-.074-1.254-.495-.577-.442-.926-1.21-.348-.769-.293-1.48.063-.732.448-1.283.378-.566.99-.844.484-.219.938-.202.461-.003.852.215l.07-.033-.238-.526 1.224-.555 2.09 4.611q.361.797.312 1.522-.048.726-.476 1.297-.427.571-1.195.92zm-1.528-3.407q.541-.246.743-.783.21-.559-.08-1.2-.303-.668-.855-.864-.538-.202-1.079.043-.54.245-.757.79-.202.537.1 1.206.298.654.835.857.552.196 1.093-.05zm3.662-.27zm5.089-2.118q-.67.303-1.373.228-.695-.097-1.28-.553-.583-.456-.932-1.224-.341-.754-.3-1.494.037-.754.429-1.326.4-.593 1.07-.896.497-.226.985-.173.495.033.836.256l.085-.039-.401-.658-.858-1.893 1.267-.574 3.148 6.945-1.182.535-.27-.598-.086.04q-.037.41-.338.804-.302.394-.8.62zm-.322-1.278q.356-.161.585-.488.23-.327.266-.738.036-.411-.157-.838-.194-.427-.527-.67-.333-.244-.73-.287-.397-.043-.753.118-.356.161-.585.488-.215.32-.252.732-.036.41.157.838.194.427.527.67.333.244.716.293.397.043.753-.118zm5.834-1.22q-.782.355-1.501.131-.711-.243-1.047-.983-.225-.499-.137-.985.096-.506.462-.912.358-.42.913-.671.769-.349 1.413-.366l-.097-.214q-.187-.412-.61-.512-.415-.121-.927.111-.356.161-.612.466-.257.305-.354.658l-1.102-.273q.15-.616.575-1.118.439-.507 1.079-.798 1.138-.516 1.96-.253.837.255 1.295 1.266l1.38 3.045-1.252.568-.226-.498-.085.038q-.085.382-.37.734-.287.353-.757.566zm-.152-1.132q.555-.251.727-.741.166-.504-.053-.988-.601-.002-1.142.243-.996.452-.66 1.192.135.298.432.387.297.088.696-.093zm6.2-1.711q-.37.167-.729.21-.365.028-.64-.088-.655-.234-1.017-1.031l-1.032-2.277-.868.393-.496-1.096.868-.393-.632-1.395 1.266-.574.632 1.395 1.21-.548.497 1.095-1.21.549.922 2.035q.175.384.423.477.199.099.526-.05.185-.083.28-.178.102-.115.25-.319l.56 1.238q-.341.344-.81.557zm3.455-1.463q-.783.354-1.502.131-.71-.244-1.046-.984-.226-.498-.137-.984.096-.507.46-.912.36-.42.915-.672.768-.348 1.412-.365l-.097-.214q-.187-.413-.61-.513-.414-.12-.927.112-.356.161-.612.466-.256.305-.354.658l-1.101-.273q.15-.617.574-1.118.439-.508 1.08-.798 1.138-.516 1.96-.254.836.256 1.294 1.266l1.38 3.046-1.252.568-.225-.499-.086.04q-.084.38-.37.733-.287.353-.756.566zm-.153-1.132q.555-.251.728-.741.166-.504-.054-.988-.6-.002-1.142.243-.996.451-.66 1.191.135.3.432.387.298.089.696-.092z"/><path fill="#ea4335" d="M505.268 373.442h223.45v85.524c-111.725 0-111.725 32.586-223.45 14.071z" fill-rule="evenodd"/><path stroke="#85200c" stroke-linejoin="round" stroke-linecap="butt" d="M505.268 373.442h223.45v85.524c-111.725 0-111.725 32.586-223.45 14.071z"/><path fill="#f3f3f3" d="M552.857 423.421q-1.485 0-2.64-.656-1.157-.672-1.798-1.813-.64-1.156-.64-2.578t.64-2.578q.64-1.156 1.797-1.812 1.156-.672 2.64-.672 1.454 0 2.61.672 1.156.656 1.797 1.812.64 1.156.64 2.578t-.64 2.578q-.64 1.141-1.797 1.813-1.156.656-2.61.656zm0-2.25q.703 0 1.297-.328.609-.344.953-.984.36-.641.36-1.485 0-.844-.36-1.469-.344-.64-.953-.968-.594-.344-1.297-.344-.719 0-1.313.344-.593.328-.968.968-.36.625-.36 1.47 0 .827.36 1.484.375.64.968.984.594.328 1.313.328zm6.848-7.562h2.297v1.156h.14q.392-.61 1.142-1.031.75-.422 1.718-.422 1.282 0 2.328.64 1.063.641 1.657 1.797.593 1.156.593 2.625t-.593 2.625q-.594 1.14-1.657 1.781-1.046.641-2.328.641-.968 0-1.734-.406-.75-.406-1.125-1.031h-.14l.14 1.343v3.828h-2.438V413.61zm4.86 7.562q.687 0 1.281-.36.61-.359.953-.984.36-.64.36-1.453 0-.828-.36-1.453-.344-.64-.953-.984-.594-.344-1.281-.344-.672 0-1.266.344-.594.343-.953.984-.344.625-.344 1.453 0 .813.344 1.453.36.625.953.985.594.36 1.266.36zm11.041 2.11q-.703 0-1.297-.22-.594-.218-.969-.593-.875-.844-.875-2.39v-4.376h-1.672v-2.093h1.672v-2.688h2.438v2.688h2.328v2.093h-2.328v3.938q0 .719.312 1.047.266.297.907.297.343 0 .578-.094.234-.094.61-.328v2.39q-.798.328-1.704.328zm5.048-10.72q-.656 0-1.125-.468-.468-.469-.468-1.11 0-.656.468-1.109.469-.469 1.125-.469.657 0 1.11.47.453.452.453 1.109 0 .64-.453 1.109t-1.11.469zm-1.234 1.048h2.437v9.515h-2.437v-9.515zm4.993 0h2.297v1.187h.156q.437-.687 1.187-1.078.766-.406 1.704-.406 1 0 1.75.484.75.469 1.062 1.188.469-.735 1.281-1.204.813-.468 1.907-.468 1.625 0 2.468 1 .86 1 .86 2.687v6.125h-2.422v-5.672q0-.89-.422-1.375-.422-.484-1.172-.484-.953 0-1.531.75-.563.75-.563 1.984v4.797h-2.437v-5.672q0-.89-.438-1.375-.437-.484-1.234-.484-.906 0-1.453.75t-.547 1.984v4.797h-2.453v-9.515zm18.386-1.047q-.656 0-1.125-.469-.468-.469-.468-1.11 0-.656.468-1.109.469-.469 1.125-.469.657 0 1.11.47.453.452.453 1.109 0 .64-.453 1.109t-1.11.469zm-1.234 1.047h2.437v9.515h-2.437v-9.515zm4.508 7.515l4.97-5.437h-4.813v-2.078h7.812v2l-4.953 5.437h5.11v2.078h-8.126v-2zm14.487 2.297q-1.422 0-2.563-.64-1.14-.657-1.78-1.797-.642-1.157-.642-2.594 0-1.36.625-2.531.641-1.172 1.75-1.86 1.125-.687 2.516-.687 1.469 0 2.531.64 1.063.625 1.61 1.735.562 1.093.562 2.437 0 .422-.062.828h-7.14q.187 1.125.905 1.72.72.593 1.72.593.843 0 1.452-.36.61-.375.953-.984l1.985.969q-1.453 2.531-4.422 2.531zm2.25-6.203q-.031-.453-.328-.89-.282-.438-.797-.72-.516-.296-1.203-.296-.875 0-1.5.515-.625.5-.907 1.391h4.735zm8.326 6.203q-1.281 0-2.344-.64-1.047-.641-1.656-1.782-.61-1.156-.61-2.625t.61-2.625q.61-1.156 1.656-1.797 1.063-.64 2.344-.64.969 0 1.719.422.75.421 1.14 1.03h.141l-.14-1.343v-3.656h2.421v13.36h-2.281v-1.141h-.14q-.376.625-1.141 1.03-.75.407-1.719.407zm.406-2.25q.688 0 1.282-.36.609-.359.953-.984.359-.64.359-1.453 0-.828-.36-1.453-.343-.64-.952-.984-.594-.344-1.282-.344-.672 0-1.265.344-.594.343-.953.984-.36.625-.36 1.453 0 .813.36 1.453.359.625.953.985.593.36 1.265.36zm6.085 1.953zm10.037.297q-1.437 0-2.578-.64-1.14-.641-1.781-1.797-.64-1.157-.64-2.61 0-1.469.64-2.61.64-1.14 1.781-1.796 1.14-.656 2.578-.656 1.578 0 2.72.687 1.14.672 1.64 1.922l-2.235.938q-.593-1.266-2.125-1.266-1.125 0-1.843.766-.72.765-.72 2.015 0 1.266.72 2.031.718.766 1.843.766 1.547 0 2.235-1.344l2.218.97q-.609 1.25-1.75 1.937-1.14.687-2.703.687zm10.768 0q-1.484 0-2.64-.656-1.156-.672-1.797-1.813-.64-1.156-.64-2.578t.64-2.578q.64-1.156 1.797-1.812 1.156-.672 2.64-.672 1.454 0 2.61.672 1.156.656 1.797 1.812.64 1.156.64 2.578t-.64 2.578q-.64 1.141-1.797 1.813-1.156.656-2.61.656zm0-2.25q.704 0 1.297-.328.61-.344.953-.984.36-.641.36-1.485 0-.844-.36-1.469-.343-.64-.953-.968-.593-.344-1.297-.344-.718 0-1.312.344-.594.328-.969.968-.36.625-.36 1.47 0 .827.36 1.484.375.64.969.984.594.328 1.312.328zm11.005 2.25q-1.28 0-2.343-.64-1.047-.641-1.657-1.782-.61-1.156-.61-2.625t.61-2.625q.61-1.156 1.657-1.797 1.062-.64 2.343-.64.97 0 1.72.422.75.421 1.14 1.03h.14l-.14-1.343v-3.656h2.422v13.36h-2.282v-1.141h-.14q-.375.625-1.14 1.03-.75.407-1.72.407zm.407-2.25q.687 0 1.28-.36.61-.359.954-.984.36-.64.36-1.453 0-.828-.36-1.453-.344-.64-.953-.984-.594-.344-1.281-.344-.672 0-1.266.344-.594.343-.953.984-.36.625-.36 1.453 0 .813.36 1.453.36.625.953.985.594.36 1.266.36zm11.74 2.25q-1.421 0-2.562-.64-1.14-.657-1.781-1.797-.641-1.157-.641-2.594 0-1.36.625-2.531.64-1.172 1.75-1.86 1.125-.687 2.516-.687 1.468 0 2.53.64 1.063.625 1.61 1.735.563 1.093.563 2.437 0 .422-.063.828h-7.14q.187 1.125.906 1.72.719.593 1.719.593.843 0 1.453-.36.61-.375.953-.984l1.984.969q-1.453 2.531-4.422 2.531zm2.25-6.203q-.03-.453-.328-.89-.281-.438-.797-.72-.515-.296-1.203-.296-.875 0-1.5.515-.625.5-.906 1.391h4.734z"/><path fill="#ea4335" d="M226.119 398.328c0-7.85 6.364-14.215 14.215-14.215h149.774a14.215 14.215 0 0 1 14.216 14.215v56.861c0 7.85-6.365 14.215-14.216 14.215H240.334c-7.85 0-14.215-6.364-14.215-14.215z" fill-rule="evenodd"/><path stroke="#5b0f00" stroke-linejoin="round" stroke-linecap="butt" d="M226.119 398.328c0-7.85 6.364-14.215 14.215-14.215h149.774a14.215 14.215 0 0 1 14.216 14.215v56.861c0 7.85-6.365 14.215-14.216 14.215H240.334c-7.85 0-14.215-6.364-14.215-14.215z"/><path fill="#f3f3f3" d="M287.406 420.32h8.469v2.39h-5.953v3.25h5.36v2.39h-5.36v5.328h-2.516V420.32zm13.784 13.655q-1.719 0-2.61-1.062-.89-1.063-.89-2.969v-5.781h2.437v5.484q0 .969.47 1.531.468.547 1.234.547 1.046 0 1.656-.765.61-.766.61-1.953v-4.844h2.452v9.515h-2.297v-1.187h-.156q-.422.687-1.203 1.094-.766.39-1.703.39zm7.737-13.656h2.454v13.36h-2.454v-13.36zm4.851 0h2.453v13.36h-2.453v-13.36zm8.585 13.656q-1.578 0-2.765-.859-1.188-.875-1.657-2.36l2.313-.953q.25.875.781 1.329.547.453 1.328.453.86 0 1.344-.547.5-.563.5-1.578v-9.14h2.531v9.124q0 1.453-.578 2.469-.578 1.015-1.578 1.547-.984.515-2.219.515zm7.206-13.656h2.516v13.36h-2.516v-13.36zm8.263 2.39h-3.734v-2.39h9.984v2.39h-3.734v10.97h-2.516v-10.97z"/><path d="M535.614 321.37c-26.193 6.286-60.575 14.92-70.163 40.092-9.515 24.981 17.654 61.287-1.252 80.186-13.873 13.868-40.812-1.808-57.632-11.903"/><path stroke="#666" stroke-width="2" stroke-linejoin="round" stroke-linecap="butt" stroke-dasharray="8.0,6.0" d="M535.614 321.37c-26.193 6.286-60.575 14.92-70.163 40.092-9.515 24.981 17.654 61.287-1.252 80.186-6.936 6.934-17.14 6.482-27.711 3.035-5.286-1.724-10.664-4.196-15.771-6.869a184.633 184.633 0 0 1-3.775-2.033l-.002-.002"/><path fill="#666" stroke="#666" stroke-width="2" stroke-linecap="butt" d="M418.6 432.924l-9.506-1.708 6.185 7.419z" fill-rule="evenodd"/><path d="M622.69 160.997c-33.123 40.232-108.865 17.338-147.215 52.622-7.2 6.626-14.852 13.595-18.793 22.552-12.508 28.434 6.41 65.974-9.396 92.716-15.709 26.578-55.511 27.852-85.197 36.333-12.403 3.544-21.852 14.004-33.83 18.793"/><path stroke="#666" stroke-width="2" stroke-linejoin="round" stroke-linecap="butt" stroke-dasharray="8.0,6.0" d="M622.69 160.997c-33.123 40.232-108.865 17.338-147.215 52.622-7.2 6.626-14.852 13.595-18.793 22.552-12.508 28.434 6.41 65.974-9.396 92.716-15.709 26.578-55.511 27.852-85.197 36.333-6.201 1.772-11.664 5.273-17.074 8.93-1.353.914-2.702 1.838-4.058 2.747-.678.454-1.358.905-2.042 1.35l-.098.062"/><path fill="#666" stroke="#666" stroke-width="2" stroke-linecap="butt" d="M337.247 375.403l-6.415 7.22 9.556-1.408z" fill-rule="evenodd"/><path d="M362.874 435.466l181.26.094v45.858l-181.26-.094z"/><path fill="#666" d="M428.304 459.406h-1.36v1.359l-.937-.001v-1.36h-1.359v-.922h1.36v-1.359h.937v1.36l1.36.001v.922zm.508 1.703zm2.356-4.077h.985v.5h.062q.172-.265.485-.436.328-.188.734-.187.547 0 1 .281.453.266.703.766.266.5.266 1.11 0 .64-.266 1.14-.25.485-.703.766-.453.265-1 .265-.406 0-.734-.173-.329-.172-.485-.437h-.062l.062.578v1.64h-1.047v-5.813zm2.078 3.236q.297 0 .547-.14.266-.157.422-.422.156-.281.156-.64 0-.344-.156-.61-.156-.282-.422-.422-.25-.157-.547-.157-.28 0-.546.156-.25.14-.407.422-.14.265-.14.61 0 .358.14.64.157.266.407.422.265.14.546.14zm2.97-3.233h.984v.547h.062q.157-.296.47-.484.327-.187.702-.187.282 0 .516.094v1.047q-.219-.078-.375-.11-.14-.046-.313-.047-.453 0-.734.344-.266.328-.266.843v2.032h-1.046v-4.079zm5.369 4.206q-.641 0-1.141-.282-.484-.281-.766-.766-.28-.5-.28-1.125 0-.594.28-1.094.282-.5.766-.78.5-.282 1.14-.281.626 0 1.11.282.5.281.766.781.28.5.28 1.094 0 .625-.28 1.125-.266.484-.766.765-.484.281-1.11.28zm0-.969q.296 0 .546-.14.266-.14.407-.406.156-.281.156-.656 0-.36-.156-.625-.14-.266-.407-.407-.25-.156-.546-.156-.313 0-.579.155-.25.141-.406.407-.14.265-.14.624 0 .36.14.641.156.281.406.422.266.141.579.141zm3.404-2.342h-.734v-.89h.734v-.22q0-.702.406-1.093.422-.406 1.094-.405.39 0 .672.094v1.015q-.156-.062-.281-.094-.11-.03-.266-.031-.266 0-.422.156-.156.156-.156.422v.156h1v.891h-1v3.187h-1.047v-3.188zm3.46-1.342q-.281 0-.484-.188-.203-.203-.203-.484 0-.281.203-.469.203-.203.484-.203.281 0 .469.204.203.187.203.469 0 .28-.203.484-.188.187-.469.187zm-.531.453h1.047v4.079h-1.047v-4.079zm2.145-1.655h1.047v5.735h-1.047v-5.735zm2.674 1.204q-.281 0-.484-.187-.203-.204-.203-.485t.203-.468q.203-.203.484-.203.281 0 .469.203.203.188.203.469 0 .281-.203.484-.188.188-.469.187zm-.531.453h1.047v4.079h-1.047v-4.079zm2.145.001h.985v.517h.062q.188-.297.516-.469.344-.172.734-.171.735 0 1.11.453.39.438.39 1.22v2.53h-1.047v-2.406q0-.39-.203-.61-.203-.219-.562-.219-.422 0-.688.328-.25.328-.25.828v2.078h-1.047v-4.079zm6.667 5.941q-.781 0-1.297-.36-.5-.344-.672-.828l.985-.406q.125.313.39.485.266.172.594.172.5 0 .781-.312.297-.297.297-.844v-.328h-.062q-.188.281-.5.422-.313.14-.719.14-.5 0-.937-.25-.438-.266-.704-.735-.265-.485-.265-1.125 0-.625.265-1.094.266-.484.704-.734.437-.265.937-.265.406 0 .719.14.312.142.5.423h.062v-.438l1.016.001v3.797q0 .656-.266 1.14-.25.485-.718.734-.47.266-1.11.265zm.016-2.812q.437 0 .75-.297.312-.312.312-.859 0-.547-.312-.844-.297-.297-.75-.297t-.766.312q-.297.297-.297.828 0 .547.297.86.313.297.766.297zm2.586.954zm4.137.128q-.547 0-1-.267-.453-.281-.719-.766-.265-.5-.265-1.14 0-.61.265-1.11.266-.5.72-.765.452-.28 1-.28.421 0 .734.187.312.172.484.438h.062l-.062-.578v-1.578h1.047v5.735h-.985v-.485h-.062q-.156.265-.484.437-.313.172-.735.172zm.172-.97q.297.001.547-.14.266-.156.406-.421.156-.281.156-.64 0-.344-.156-.61-.14-.281-.406-.422-.25-.157-.547-.157-.281 0-.547.156-.25.14-.406.422-.14.265-.14.61 0 .359.14.64.156.266.406.422.266.14.547.14zm4.376.972q-.656 0-1.078-.376-.406-.375-.406-1 0-.406.218-.718.22-.313.594-.469.375-.172.828-.171.625 0 1.078.172v-.172q0-.328-.25-.531-.25-.22-.671-.22-.297 0-.563.141-.266.125-.437.344l-.672-.532q.297-.39.734-.593.453-.203.984-.203.938 0 1.422.438.485.422.485 1.25v2.516h-1.032v-.422h-.062q-.188.25-.484.406-.297.14-.688.14zm.25-.812q.453 0 .719-.281.265-.297.265-.688-.406-.203-.859-.203-.812 0-.812.609 0 .25.171.406.188.156.516.157zm4.754.752q-.297 0-.563-.094-.25-.094-.406-.25-.375-.36-.375-1.016v-1.89l-.719-.001v-.89h.719v-1.157l1.047.001v1.156h1v.891h-1v1.687q0 .313.14.454.11.125.375.125.157 0 .25-.031.11-.047.266-.14v1.015q-.344.14-.734.14zm2.828.064q-.656 0-1.078-.376-.406-.375-.406-1 0-.406.218-.718.22-.313.594-.469.375-.172.828-.171.625 0 1.078.172v-.172q0-.328-.25-.531-.25-.219-.671-.22-.297 0-.563.141-.266.125-.437.344l-.672-.532q.297-.39.734-.593.453-.203.984-.203.938 0 1.422.438.485.422.485 1.25v2.516h-1.032v-.422h-.062q-.188.25-.484.406-.297.14-.688.14zm.25-.812q.453 0 .719-.281.265-.297.265-.688-.406-.203-.859-.203-.812 0-.812.609 0 .25.171.406.188.156.516.157z"/><path d="M728.718 426.765c26.233 0 52.458-78.386 52.466-156.772.008-78.385-26.202-156.771-52.403-156.771"/><path stroke="#ea4335" stroke-width="2" stroke-linejoin="round" stroke-linecap="butt" stroke-dasharray="8.0,6.0" d="M728.718 426.765c26.233 0 52.458-78.386 52.466-156.772.004-39.193-6.547-78.385-16.373-107.78-4.914-14.698-10.646-26.945-16.787-35.519-1.536-2.143-3.097-4.057-4.677-5.722a37.782 37.782 0 0 0-2.384-2.308 32.33 32.33 0 0 0-.9-.767l-.173-.14"/><path fill="#ea4335" stroke="#ea4335" stroke-width="2" stroke-linecap="butt" d="M741.14 114.7l-9.652-.373 7.154 6.49z" fill-rule="evenodd"/><path d="M404.324 426.759h50.472v.062h50.472"/><path stroke="#666" stroke-width="2" stroke-linejoin="round" stroke-linecap="butt" d="M404.324 426.759h50.472v.063h38.472"/><path fill="#666" stroke="#666" stroke-width="2" stroke-linecap="butt" d="M493.268 430.125l9.077-3.303-9.077-3.304z" fill-rule="evenodd"/><path d="M824.327 58.26l.094 411.59h-47.685l-.094-411.59z"/><path fill="#ea4335" d="M792.696 212.084q0-1.468.733-2.671.735-1.204 2.047-1.907 1.312-.687 3-.687 1.672 0 2.984.687 1.329.703 2.063 1.907.735 1.203.735 2.671 0 1.11-.484 1.954-.468.859-1.171 1.312v.172l1.531-.172h4.172v2.781h-15.265v-2.609h1.296v-.172q-.703-.422-1.172-1.297-.469-.86-.47-1.969zm2.578.47q0 .796.407 1.468.406.687 1.125 1.094.734.406 1.672.406.937 0 1.656-.406.734-.407 1.125-1.094.39-.672.39-1.469 0-.765-.391-1.453-.39-.672-1.125-1.078-.72-.406-1.657-.406t-1.671.406q-.719.406-1.125 1.078-.406.688-.406 1.453zm-2.575 13.426q0-1.625.75-2.937.749-1.297 2.061-2.032 1.313-.734 2.953-.734 1.547 0 2.875.719 1.344.734 2.126 2.015.797 1.282.797 2.86 0 1.687-.733 2.89-.719 1.22-1.984 1.844-1.25.64-2.781.64-.5 0-.938-.062l-.002-8.172q-1.312.22-1.984 1.032-.656.828-.656 1.968 0 .97.407 1.657.422.687 1.125 1.093l-1.109 2.266q-2.906-1.656-2.907-5.047zm7.11 2.578q.5-.047 1-.375.515-.328.843-.922.328-.578.328-1.375 0-1-.594-1.718-.578-.704-1.578-1.032v5.422zm-7.107 10.035q0-1.671.75-3 .764-1.328 2.077-2.062 1.312-.734 2.953-.734 1.625 0 2.937.734 1.329.734 2.079 2.062.766 1.329.766 3 0 1.672-.765 2.985-.75 1.328-2.077 2.062-1.313.735-2.938.735-1.64 0-2.953-.735-1.313-.734-2.079-2.062-.75-1.313-.75-2.985zm2.578 0q0 .813.375 1.5.391.688 1.11 1.094.734.406 1.719.406.968 0 1.687-.406.719-.406 1.094-1.094.39-.687.39-1.5 0-.796-.391-1.484-.375-.687-1.094-1.11-.719-.406-1.688-.406-.953 0-1.703.407-.734.422-1.124 1.11-.375.687-.375 1.483zm8.642 7.836v2.625h-1.312v.172q.704.437 1.173 1.297.484.86.484 1.969 0 1.468-.733 2.671-.734 1.204-2.062 1.875-1.313.688-2.985.688-1.687 0-3-.688-1.312-.671-2.047-1.875-.735-1.203-.735-2.671 0-1.11.468-1.985.469-.86 1.172-1.281v-.172l-1.531.172h-4.375l-.001-2.797h15.484zm-8.639 5.563q0 .796.407 1.468.406.688 1.125 1.094.734.406 1.672.406.937 0 1.656-.406.734-.406 1.125-1.094.39-.672.39-1.468 0-.766-.39-1.454-.392-.671-1.126-1.078-.72-.406-1.657-.406t-1.671.406q-.719.407-1.125 1.078-.406.688-.406 1.454zm-2.403 12.622q0-.796.234-1.484.25-.687.687-1.11.953-1 2.718-1h5.016v-1.906h2.39v1.907h3.079v2.797h-3.078l.001 2.656h-2.39l-.001-2.656h-4.5q-.828 0-1.188.359-.343.297-.343 1.016 0 .406.11.671.109.266.359.704h-2.735q-.36-.922-.36-1.954zm12.251 5.76q0-.735.53-1.282.532-.531 1.282-.531.734 0 1.25.531.532.547.532 1.281 0 .75-.531 1.266-.516.531-1.25.531-.75 0-1.282-.531-.53-.516-.531-1.266zm-1.203-1.407v2.797h-10.875v-2.797h10.875zm0 5.715l.001 2.625h-1.359v.172q.781.515 1.235 1.375.469.875.469 1.937 0 1.14-.546 2-.547.86-1.375 1.219.86.531 1.39 1.453.532.938.533 2.188 0 1.859-1.14 2.828-1.14.968-3.078.968h-7v-2.765h6.483q1.016 0 1.563-.485.562-.484.562-1.328 0-1.093-.86-1.75-.86-.64-2.266-.64h-5.484v-2.797h6.484q1.015 0 1.562-.5.563-.5.562-1.422 0-1.016-.86-1.656-.859-.625-2.265-.625h-5.485v-2.797h10.875zm1.209 21.008q0-.734.53-1.281.532-.532 1.282-.532.734 0 1.25.532.531.547.532 1.28 0 .75-.531 1.267-.516.53-1.25.53-.75 0-1.282-.53-.531-.516-.531-1.266zm-1.204-1.406l.001 2.797h-10.875v-2.797h10.874zm-8.592 5.167l6.235 5.672v-5.5h2.359l.002 8.938h-2.282l-6.22-5.672.002 5.844h-2.375l-.002-9.282h2.28zm-2.621 16.555q0-1.625.749-2.937.75-1.297 2.062-2.031 1.312-.735 2.953-.735 1.547 0 2.875.72 1.344.733 2.126 2.015.797 1.28.797 2.86 0 1.687-.734 2.89-.718 1.218-1.984 1.843-1.25.641-2.78.641-.5 0-.938-.062l-.002-8.172q-1.313.218-1.984 1.03-.656.83-.656 1.97 0 .968.407 1.656.422.687 1.125 1.094l-1.109 2.265q-2.907-1.656-2.907-5.047zm7.11 2.579q.5-.047 1-.375.515-.329.843-.922.328-.578.328-1.375 0-1-.594-1.72-.579-.702-1.579-1.03l.002 5.422z"/><path d="M135.588 469.21l.094-409.071h45.796l-.095 409.07z"/><path fill="#34a853" d="M166.348 303.125q0 1.672-.751 3-.766 1.328-2.079 2.062-1.312.735-2.953.735-1.625 0-2.937-.735-1.328-.734-2.078-2.062-.765-1.328-.765-3t.766-2.984q.75-1.329 2.08-2.063 1.312-.734 2.937-.734 1.64 0 2.953.734 1.312.734 2.077 2.063.75 1.312.75 2.984zm-2.578 0q0-.813-.375-1.5-.39-.688-1.11-1.094-.734-.406-1.718-.406-.969 0-1.687.406-.72.406-1.094 1.094-.391.687-.391 1.5 0 .797.39 1.484.375.688 1.093 1.11.719.406 1.688.406.953 0 1.703-.406.734-.422 1.125-1.11.375-.687.376-1.484zm-8.64-7.836l.001-2.625h1.313v-.172q-.703-.437-1.172-1.296-.484-.86-.484-1.97 0-1.468.735-2.671.735-1.203 2.063-1.875 1.313-.688 2.985-.688 1.687 0 3 .688 1.312.672 2.046 1.875.734 1.203.734 2.672 0 1.11-.47 1.984-.468.86-1.171 1.281v.172l1.53-.172h4.376v2.797H155.13zm8.643-5.562q0-.797-.406-1.469-.406-.687-1.125-1.094-.734-.406-1.672-.406-.937 0-1.656.406-.735.407-1.125 1.094-.391.672-.391 1.469 0 .765.39 1.453.39.672 1.125 1.078.718.406 1.656.406.937 0 1.672-.406.719-.406 1.125-1.078.406-.688.407-1.453zm2.409-12.623q0 .797-.235 1.484-.25.688-.688 1.11-.953 1-2.719 1h-5.015v1.906h-2.391v-1.906h-3.078V277.9h3.079v-2.656h2.391v2.656h4.5q.827 0 1.187-.36.344-.296.344-1.015 0-.406-.11-.672-.109-.266-.358-.703h2.734q.36.922.359 1.953zm-12.249-5.759q0 .734-.531 1.281-.532.532-1.282.532-.734 0-1.25-.532-.53-.547-.53-1.28 0-.75.53-1.267.517-.53 1.251-.53.75 0 1.281.53.531.516.531 1.266zm1.203 1.406v-2.797h10.876l-.001 2.797h-10.875zm.001-5.714v-2.625h1.36v-.172q-.78-.516-1.234-1.375-.468-.875-.468-1.938 0-1.14.547-2 .547-.86 1.376-1.219-.86-.53-1.39-1.453-.532-.937-.531-2.187 0-1.86 1.14-2.828 1.142-.969 3.08-.969h7l-.002 2.766h-6.484q-1.016 0-1.562.484-.563.484-.563 1.328 0 1.094.859 1.75.859.64 2.265.64h5.485l-.001 2.798h-6.484q-1.016 0-1.563.5-.563.5-.563 1.421 0 1.016.859 1.657.86.625 2.266.625h5.484v2.797h-10.876zm-1.198-21.009q0 .735-.532 1.282-.53.531-1.28.531-.735 0-1.25-.531-.532-.547-.532-1.282 0-.75.532-1.265.516-.531 1.25-.531.75 0 1.281.53.531.516.531 1.266zm1.203 1.407v-2.797h10.875v2.797h-10.875zm8.595-5.168l-6.233-5.672-.002 5.5h-2.359l.002-8.937h2.281l6.218 5.671.001-5.843h2.375l-.002 9.28h-2.281zm2.629-16.555q0 1.625-.751 2.937-.75 1.297-2.063 2.032-1.313.734-2.953.734-1.547 0-2.875-.719-1.344-.734-2.125-2.015-.796-1.282-.796-2.86 0-1.687.735-2.89.72-1.22 1.985-1.844 1.25-.64 2.781-.64.5 0 .938.062l-.002 8.172q1.312-.22 1.984-1.032.657-.828.657-1.968 0-.97-.406-1.657-.421-.687-1.124-1.093l1.11-2.266q2.905 1.656 2.905 5.047zm-7.11-2.578q-.5.047-1 .375-.515.328-.843.922-.329.578-.329 1.375 0 1 .594 1.718.578.704 1.578 1.032v-5.422z"/><path d="M226.027 113.23c-13.273 0-26.353 39.189-26.546 78.378-.193 39.189 12.501 78.378 25.002 78.378"/><path stroke="#34a853" stroke-width="2" stroke-linejoin="round" stroke-linecap="butt" stroke-dasharray="8.0,6.0" d="M226.027 113.23c-13.273 0-26.353 39.189-26.546 78.378-.096 19.594 3.029 39.189 7.74 53.884 1.179 3.674 2.456 7.042 3.807 10.027a60.767 60.767 0 0 0 2.078 4.181 46.233 46.233 0 0 0 1.62 2.725l.2.304"/><path fill="#34a853" stroke="#34a853" stroke-width="2" stroke-linecap="butt" d="M212.928 265.36l9.227 2.858-5.232-8.12z" fill-rule="evenodd"/><path d="M224.481 269.993c-12.5 0-25.205 39.19-25 78.378.205 39.19 13.319 78.378 26.638 78.378"/><path stroke="#34a853" stroke-width="2" stroke-linejoin="round" stroke-linecap="butt" stroke-dasharray="8.0,6.0" d="M224.481 269.993c-12.5 0-25.205 39.19-25 78.378.102 19.595 3.432 39.19 8.401 53.885 1.242 3.674 2.587 7.042 4.01 10.027a59.461 59.461 0 0 0 2.188 4.181 45.533 45.533 0 0 0 1.707 2.725c.096.14.192.28.289.418l.2.279"/><path fill="#34a853" stroke="#34a853" stroke-width="2" stroke-linecap="butt" d="M214.386 422.596l9.334 2.481-5.555-7.9z" fill-rule="evenodd"/><path d="M226.027 113.23c-23.098 0-46.207 78.385-46.195 156.771.012 78.386 23.145 156.772 46.29 156.772"/><path stroke="#34a853" stroke-width="2" stroke-linejoin="round" stroke-linecap="butt" stroke-dasharray="8.0,6.0" d="M226.027 113.23c-23.098 0-46.207 78.385-46.195 156.771.006 39.193 5.792 78.386 14.47 107.78 4.339 14.698 9.4 26.946 14.824 35.52 1.356 2.143 2.735 4.056 4.13 5.721a35.69 35.69 0 0 0 2.105 2.309l.044.043"/><path fill="#34a853" stroke="#34a853" stroke-width="2" stroke-linecap="butt" d="M213.918 424.324l9.592 1.133-6.62-7.034z" fill-rule="evenodd"/></g></svg>