<svg viewBox="0 0 960 540" fill="none" stroke-linecap="square" stroke-miterlimit="10" xmlns="http://www.w3.org/2000/svg"><clipPath id="a"><path d="M0 0h960v540H0V0z"/></clipPath><g clip-path="url(#a)"><path fill="#fff" d="M0 0h960v540H0z" fill-rule="evenodd"/><path fill="#666" d="M25.705 517.365v-1.93h6.463c.066.34.104.746.104 1.184 0 1.447-.397 3.24-1.672 4.515-1.24 1.293-2.827 1.982-4.929 1.982-3.895 0-7.17-3.17-7.17-7.066 0-3.895 3.275-7.066 7.17-7.066 2.154 0 3.689.844 4.843 1.947l-1.361 1.362c-.827-.776-1.948-1.379-3.481-1.379-2.844 0-5.068 2.292-5.068 5.136 0 2.844 2.224 5.136 5.068 5.136 1.844 0 2.895-.741 3.567-1.413.548-.547.908-1.333 1.048-2.407h-4.582zM42.188 518.578c0 2.62-2.05 4.55-4.567 4.55-2.517 0-4.567-1.93-4.567-4.55 0-2.637 2.05-4.55 4.567-4.55 2.516 0 4.567 1.913 4.567 4.55zm-1.999 0c0-1.637-1.189-2.758-2.568-2.758-1.378 0-2.568 1.12-2.568 2.758 0 1.62 1.189 2.758 2.568 2.758s2.568-1.138 2.568-2.758zM52.152 518.578c0 2.62-2.05 4.55-4.567 4.55-2.517 0-4.568-1.93-4.568-4.55 0-2.637 2.051-4.55 4.568-4.55 2.516 0 4.567 1.913 4.567 4.55zm-2 0c0-1.637-1.188-2.758-2.567-2.758-1.379 0-2.568 1.12-2.568 2.758 0 1.62 1.189 2.758 2.568 2.758 1.378 0 2.568-1.138 2.568-2.758zM61.702 514.304v8.17c0 3.36-1.982 4.739-4.326 4.739-2.206 0-3.533-1.483-4.033-2.69l1.74-.723c.311.741 1.069 1.62 2.293 1.62 1.5 0 2.43-.93 2.43-2.67v-.656h-.068c-.449.552-1.31 1.034-2.396 1.034-2.275 0-4.36-1.982-4.36-4.533 0-2.568 2.085-4.567 4.36-4.567 1.086 0 1.947.483 2.396 1.018h.068v-.742h1.896zm-1.758 4.291c0-1.602-1.068-2.775-2.43-2.775-1.379 0-2.533 1.173-2.533 2.775 0 1.586 1.154 2.741 2.533 2.741 1.361 0 2.43-1.155 2.43-2.74zM65.088 509.522v13.33H63.09v-13.33h2zM72.81 520.077l1.55 1.034c-.5.742-1.706 2.017-3.791 2.017-2.586 0-4.516-2-4.516-4.55 0-2.707 1.948-4.551 4.292-4.551 2.361 0 3.516 1.879 3.895 2.896l.207.517-6.084 2.516c.465.914 1.19 1.379 2.206 1.379s1.723-.499 2.24-1.258zm-4.775-1.637l4.067-1.69c-.224-.568-.896-.965-1.689-.965-1.017.001-2.43.897-2.378 2.655z" fill-rule="evenodd"/><path fill="#fff" d="M2.37 495.703h96v44.284h-96z" fill-rule="evenodd"/><path fill="none" d="M79.276 386.207l.063-264.85h45.795l-.063 264.85z"/><path fill="#666" d="M110.014 312.882q0 1.64-.735 2.953-.734 1.297-2.063 2.031-1.328.735-2.984.735-1.672 0-2.969-.735-1.312-.734-2.062-2.03-.75-1.313-.75-2.954.001-1.813.783-3.11.781-1.312 2.203-1.874l1.062 2.546q-1.437.688-1.438 2.438 0 1.281.875 2.11.859.812 2.296.812 1.454 0 2.329-.813.875-.828.875-2.11 0-1.765-1.546-2.562l1.11-2.53q1.437.702 2.234 2 .78 1.296.78 3.093zm.003-12.3q0 1.673-.75 3-.766 1.329-2.079 2.063-1.313.735-2.953.735-1.625 0-2.938-.735-1.328-.734-2.077-2.062-.766-1.328-.765-3 0-1.672.766-2.985.75-1.328 2.079-2.062 1.312-.735 2.937-.735 1.641 0 2.953.735 1.313.734 2.078 2.062.75 1.313.75 2.985zm-2.578 0q0-.812-.374-1.5-.39-.687-1.11-1.093-.734-.406-1.718-.406-.969 0-1.688.406t-1.094 1.094q-.39.687-.39 1.5-.001.797.39 1.484.374.688 1.093 1.11.719.406 1.687.406.954 0 1.704-.407.734-.421 1.125-1.109.375-.687.375-1.484zM98.8 292.67l.001-2.625h1.36v-.172q-.782-.5-1.235-1.39-.468-.891-.468-1.938 0-1.969 1.204-2.984 1.188-1.032 3.25-1.032h6.766v2.797h-6.423q-1.047 0-1.61.532-.577.53-.578 1.5 0 1.125.875 1.828.86.687 2.187.687h5.547v2.797H98.8zm11.223-17.9q0 1.64-.735 2.953-.734 1.296-2.063 2.03-1.328.735-2.984.735-1.672 0-2.969-.734-1.312-.735-2.062-2.031-.75-1.313-.749-2.954 0-1.812.782-3.109.782-1.312 2.204-1.875l1.061 2.547q-1.437.687-1.438 2.437 0 1.282.875 2.11.859.812 2.297.812 1.453 0 2.328-.812.875-.828.875-2.11 0-1.765-1.546-2.562l1.11-2.531q1.437.703 2.234 2 .78 1.297.78 3.093zm.003-11.034q0 1.969-1.22 3-1.218 1.015-3.39 1.015h-6.61l.001-2.796h6.266q1.11 0 1.75-.532.625-.53.625-1.406 0-1.187-.874-1.89-.875-.704-2.219-.704h-5.547v-2.797h10.876v2.625h-1.36v.172q.78.485 1.25 1.375.452.875.452 1.938zm-11.217-8.838l.001-2.625h1.453v-.172q-.765-.406-1.265-1.25-.516-.86-.515-1.89 0-.75.234-1.36h2.797q-.203.578-.297.969-.11.39-.11.843 0 1.235.906 1.97.89.718 2.25.718h5.422v2.797H98.808zm.003-9.107v-2.625h1.453v-.172q-.765-.407-1.265-1.25-.515-.86-.515-1.89 0-.75.235-1.36h2.796q-.203.578-.297.968-.11.391-.11.844 0 1.235.907 1.969.89.719 2.25.719h5.421v2.797H98.812zm11.222-14.217q0 1.625-.75 2.938-.751 1.296-2.064 2.03-1.313.735-2.953.735-1.547 0-2.875-.719-1.344-.734-2.125-2.015-.796-1.281-.796-2.86 0-1.687.735-2.89.72-1.219 1.985-1.844 1.25-.64 2.782-.64.5 0 .937.062l-.002 8.172q1.313-.219 1.985-1.031.656-.829.656-1.97 0-.968-.405-1.655-.422-.688-1.125-1.094l1.11-2.266q2.906 1.656 2.905 5.047zm-7.109-2.578q-.5.047-1 .375-.516.328-.844.922-.328.578-.329 1.375 0 1 .594 1.719.578.703 1.578 1.03l.001-5.421zm-4.108-4.832v-2.625h1.36v-.172q-.781-.5-1.234-1.39-.469-.891-.469-1.938 0-1.969 1.204-2.985 1.188-1.03 3.25-1.03h6.766v2.796h-6.422q-1.047 0-1.61.531-.578.532-.578 1.5 0 1.125.874 1.828.86.688 2.188.688h5.546v2.797H98.817zm11.223-17.9q0 1.64-.735 2.952-.735 1.297-2.063 2.032-1.329.734-2.985.734-1.672 0-2.968-.734-1.313-.735-2.062-2.032-.75-1.312-.75-2.953 0-1.812.782-3.11.782-1.312 2.204-1.874l1.062 2.547q-1.438.687-1.438 2.437 0 1.281.874 2.11.86.812 2.297.812 1.453 0 2.328-.812.875-.829.876-2.11 0-1.765-1.547-2.562l1.11-2.532q1.438.704 2.234 2 .781 1.297.78 3.094zm-.857-10.488l-10.36 4.579v-3.172l6.766-2.813v-.172l-6.764-2.718v-3.11l15.483 6.719v3l-5.125-2.313z"/><path fill="#38761d" d="M146.058 307.646h68.535v59.905h-68.535z" fill-rule="evenodd"/><path stroke="#274e13" stroke-linejoin="round" stroke-linecap="butt" d="M146.058 307.646h68.535v59.905h-68.535z"/><path fill="#f3f3f3" d="M159.31 331.16h2.516v10.968h5.656v2.39h-8.171V331.16zm10.28 0h2.516v10.968h5.656v2.39h-8.172V331.16zm10.28 0h2.515v13.358h-2.515V331.16zm5.216 3.843h2.297v1.187h.156q.422-.687 1.203-1.078.797-.406 1.703-.406 1.719 0 2.61 1.047.906 1.047.906 2.86v5.905h-2.453v-5.609q0-.922-.47-1.422-.468-.5-1.296-.5-1 0-1.61.766-.593.765-.593 1.922v4.843h-2.453v-9.515zm15.315 9.672q-.703 0-1.297-.22-.593-.218-.968-.593-.875-.844-.875-2.39v-4.375h-1.672v-2.094h1.672v-2.688h2.437v2.688h2.328v2.094h-2.328v3.937q0 .719.313 1.047.265.297.906.297.344 0 .578-.094.234-.094.61-.328v2.39q-.797.329-1.704.329z"/><path fill="#ea4335" d="M778.874 307.656h87.307v59.906h-87.307z" fill-rule="evenodd"/><path stroke="#5b0f00" stroke-linejoin="round" stroke-linecap="butt" d="M778.874 307.656h87.307v59.906h-87.307z"/><path fill="#f3f3f3" d="M808.09 331.17h8.468v2.39h-5.953v3.25h5.36v2.39h-5.36v5.329h-2.516v-13.36zm13.392 2.39h-3.734v-2.39h9.984v2.39h-3.734v10.969h-2.516V333.56zm8.267-2.39h2.516v10.968h5.656v2.39h-8.172V331.17z"/><path fill="#673ab7" d="M477.984 189.36h100.504v59.905H477.984z" fill-rule="evenodd"/><path stroke="#351c75" stroke-linejoin="round" stroke-linecap="butt" d="M477.984 189.36h100.504v59.905H477.984z"/><path fill="#f3f3f3" d="M509.833 201.873h4.516q2.094 0 3.64.844 1.547.843 2.375 2.36.844 1.5.844 3.483 0 1.97-.843 3.485-.829 1.515-2.375 2.36-1.547.827-3.641.827h-4.516v-13.359zm4.406 10.969q2.157 0 3.297-1.14 1.141-1.157 1.141-3.142 0-2-1.14-3.14-1.141-1.156-3.298-1.156h-1.89v8.578h1.89zm9.363-10.969h8.468v2.39h-5.953v3.25h5.36v2.391h-5.36v5.328h-2.515v-13.359zm17.065 13.656q-1.922 0-3.532-.906-1.609-.906-2.562-2.5-.953-1.594-.953-3.563 0-1.984.953-3.578.953-1.593 2.562-2.5 1.61-.906 3.532-.906 1.578 0 2.875.547 1.296.547 2.218 1.562l-1.734 1.704q-.672-.72-1.484-1.063-.813-.36-1.891-.36-1.234 0-2.266.579-1.015.562-1.625 1.625-.609 1.047-.609 2.39 0 1.344.61 2.391.624 1.047 1.656 1.625 1.046.563 2.265.563 1.875 0 3.063-1.094.375-.344.656-.86.281-.53.406-1.14h-4.187v-2.14h6.547q.125.515.125 1.171 0 1.328-.407 2.469-.39 1.125-1.218 1.984-.891.969-2.157 1.485-1.265.515-2.843.515zm7.503-.297zM494.021 237.53q-1.437 0-2.578-.641-1.14-.641-1.781-1.797-.641-1.157-.641-2.61 0-1.468.64-2.609.641-1.14 1.782-1.797 1.14-.656 2.578-.656 1.578 0 2.719.687 1.14.672 1.64 1.922l-2.234.938q-.594-1.266-2.125-1.266-1.125 0-1.844.766-.718.765-.718 2.015 0 1.266.718 2.032.719.765 1.844.765 1.547 0 2.234-1.344l2.22.97q-.61 1.25-1.75 1.937-1.141.687-2.704.687zm10.768 0q-1.484 0-2.64-.657-1.157-.672-1.797-1.813-.64-1.156-.64-2.578t.64-2.578q.64-1.156 1.797-1.812 1.156-.672 2.64-.672 1.453 0 2.61.672 1.156.656 1.796 1.812.641 1.156.641 2.578t-.64 2.578q-.641 1.141-1.797 1.813-1.157.656-2.61.656zm0-2.25q.703 0 1.297-.329.61-.344.953-.984.36-.64.36-1.485 0-.843-.36-1.468-.344-.641-.953-.97-.594-.343-1.297-.343-.719 0-1.312.344-.594.328-.97.969-.358.625-.358 1.468 0 .828.359 1.485.375.64.969.984.593.328 1.312.328zm6.911-7.563h2.297v1.187h.156q.438-.687 1.188-1.078.766-.406 1.703-.406 1 0 1.75.484.75.469 1.063 1.188.468-.735 1.28-1.203.813-.47 1.907-.47 1.625 0 2.469 1 .86 1 .86 2.688v6.125h-2.423v-5.672q0-.89-.422-1.375-.421-.484-1.171-.484-.954 0-1.532.75-.562.75-.562 1.984v4.797h-2.438v-5.672q0-.89-.437-1.375-.438-.484-1.235-.484-.906 0-1.453.75t-.547 1.984v4.797H511.7v-9.515zm16.934 0h2.296v1.156h.141q.39-.61 1.14-1.031.75-.422 1.72-.422 1.28 0 2.328.64 1.062.641 1.656 1.797.594 1.157.594 2.625 0 1.47-.594 2.625-.594 1.141-1.656 1.782-1.047.64-2.329.64-.968 0-1.734-.406-.75-.406-1.125-1.031h-.14l.14 1.343v3.829h-2.437v-13.547zm4.859 7.562q.687 0 1.281-.36.61-.359.953-.984.36-.64.36-1.453 0-.828-.36-1.453-.343-.64-.953-.984-.594-.344-1.281-.344-.672 0-1.266.344-.593.344-.953.984-.344.625-.344 1.453 0 .813.344 1.453.36.625.953.985.594.36 1.266.36zm8.291-8.61q-.656 0-1.125-.468-.469-.469-.469-1.11 0-.656.47-1.109.468-.468 1.124-.468.656 0 1.11.468.453.453.453 1.11 0 .64-.453 1.11-.454.468-1.11.468zm-1.234 1.048h2.437v9.515h-2.437v-9.515zm4.993-3.844h2.453v13.36h-2.453v-13.36zm9.32 13.656q-1.423 0-2.563-.64-1.141-.657-1.782-1.797-.64-1.157-.64-2.594 0-1.36.625-2.531.64-1.172 1.75-1.86 1.125-.687 2.515-.687 1.47 0 2.532.64 1.062.625 1.609 1.735.563 1.094.563 2.437 0 .422-.063.828h-7.14q.187 1.125.906 1.72.718.593 1.718.593.844 0 1.454-.36.609-.374.953-.984l1.984.969q-1.453 2.531-4.422 2.531zm2.25-6.203q-.032-.453-.329-.89-.281-.438-.797-.72-.515-.296-1.203-.296-.875 0-1.5.515-.625.5-.906 1.391h4.734zm4.232-3.61h2.296v1.266h.157q.359-.672 1.093-1.109.75-.438 1.641-.438.656 0 1.203.204v2.453q-.5-.188-.86-.266-.343-.094-.734-.094-1.078 0-1.718.782-.625.78-.625 1.984v4.734h-2.453v-9.515z"/><path fill="#673ab7" d="M214.593 367.357v-59.496h21.323v59.496z" fill-rule="evenodd"/><path stroke="#351c75" stroke-linejoin="round" stroke-linecap="butt" d="M214.593 367.357v-59.496h21.323v59.496z"/><path fill="#f3f3f3" d="M229.073 352.587q0 .407-.11.75-.125.344-.343.547-.485.5-1.36.5h-2.5v.953h-1.203v-.953h-1.531v-1.39h1.531v-1.329h1.203v1.329h2.235q.421 0 .609-.188.172-.14.172-.5 0-.203-.047-.328-.063-.14-.188-.36h1.36q.172.454.172.97zm-5.516-2.095v-1.312h.734v-.078q-.39-.203-.64-.625-.25-.438-.25-.938 0-.375.11-.687h1.405q-.109.297-.156.5-.047.187-.047.406 0 .625.453.984.438.36 1.125.36h2.704v1.39h-5.438zm-.594-5.331q0 .375-.265.64-.266.266-.64.266-.376 0-.626-.266-.266-.265-.266-.64t.266-.625q.25-.266.625-.266t.64.266q.266.25.266.625zm.594.703v-1.39h5.438v1.39h-5.438zm7.906-5.363q0 1.031-.468 1.719-.454.687-1.11.921l-.531-1.312q.406-.172.64-.516.235-.359.235-.812 0-.656-.406-1.047-.407-.39-1.14-.39h-.438v.077q.359.266.562.688.188.406.188.937 0 .672-.344 1.25-.344.579-.969.938-.64.344-1.484.344t-1.469-.344q-.64-.36-.984-.938-.36-.578-.36-1.25 0-.53.203-.937.188-.422.547-.688v-.078h-.578v-1.343h5.063q.875 0 1.515.343.64.344.985.97.343.624.343 1.468zm-3.734-.016q0-.594-.406-1-.422-.422-1.125-.422-.735 0-1.14.422-.407.406-.407 1t.406 1.016q.406.406 1.14.406.72 0 1.126-.406.406-.422.406-1.016zm3.734-6.634q0 1.032-.468 1.719-.454.688-1.11.922l-.531-1.313q.406-.171.64-.515.235-.36.235-.813 0-.656-.406-1.047-.407-.39-1.14-.39h-.438v.078q.359.266.562.687.188.407.188.938 0 .672-.344 1.25t-.969.937q-.64.344-1.484.344t-1.469-.344q-.64-.359-.984-.937-.36-.578-.36-1.25 0-.531.203-.938.188-.421.547-.687v-.078h-.578v-1.344h5.063q.875 0 1.515.344.64.344.985.969.343.625.343 1.468zm-3.734-.015q0-.594-.406-1-.422-.422-1.125-.422-.735 0-1.14.422-.407.406-.407 1 0 .593.406 1.015.406.407 1.14.407.72 0 1.126-.407.406-.422.406-1.015zm1.437-6.681q0 .812-.375 1.469-.375.64-1.03 1.015-.657.36-1.47.36-.78 0-1.437-.36-.672-.36-1.063-1-.406-.64-.406-1.422 0-.843.375-1.453.36-.61.985-.922.625-.312 1.39-.312.25 0 .469.031v4.078q.656-.11 1-.515.328-.407.328-.985 0-.484-.203-.828-.219-.344-.563-.547l.547-1.125q1.453.828 1.453 2.516zm-3.546-1.281q-.266.015-.516.187-.25.156-.406.453-.172.297-.172.688 0 .5.297.86.297.358.797.515v-2.703zm-2.063-2.428v-1.312h.734v-.078q-.39-.203-.64-.625-.25-.438-.25-.938 0-.375.11-.687h1.405q-.109.297-.156.5-.047.187-.047.406 0 .625.453.984.438.36 1.125.36h2.704v1.39h-5.438z"/><path fill="none" d="M474.738 303.551l3.244-50.425"/><path stroke="#351c75" stroke-width="2" stroke-linejoin="round" stroke-linecap="butt" d="M474.738 303.551l2.473-38.45"/><path fill="#351c75" stroke="#351c75" stroke-width="2" stroke-linecap="butt" d="M480.508 265.313l-2.714-9.27-3.88 8.846z" fill-rule="evenodd"/><path fill="none" d="M575.729 253.54l1.638 50.047"/><path stroke="#351c75" stroke-width="2" stroke-linejoin="round" stroke-linecap="butt" d="M575.729 253.54l1.245 38.053"/><path fill="#351c75" stroke="#351c75" stroke-width="2" stroke-linecap="butt" d="M573.672 291.701l3.599 8.963 3.005-9.179z" fill-rule="evenodd"/><path fill="#ff9800" d="M354.323 307.86h100.504v59.906H354.323z" fill-rule="evenodd"/><path stroke="#5b0f00" stroke-linejoin="round" stroke-linecap="butt" d="M354.323 307.86h100.504v59.906H354.323z"/><path fill="#f3f3f3" d="M368.588 331.374h5.22q1.124 0 2.062.469.937.469 1.484 1.266.547.797.547 1.75 0 1.015-.5 1.75-.5.734-1.297 1.125v.156q1.047.375 1.656 1.187.625.813.625 1.938 0 1.11-.594 1.953-.578.844-1.578 1.313-1 .453-2.218.453h-5.407v-13.36zm5.032 5.453q.828 0 1.312-.453.5-.468.5-1.156 0-.672-.484-1.125-.469-.453-1.25-.453h-2.594v3.187h2.516zm.28 5.61q.923 0 1.423-.469.515-.484.515-1.25t-.515-1.25q-.516-.484-1.5-.484h-2.719v3.453h2.797zm9.337 2.594q-1.516 0-2.484-.875-.97-.891-.97-2.329 0-.953.5-1.671.5-.735 1.376-1.125.89-.391 1.953-.391 1.469 0 2.516.422v-.406q0-.782-.594-1.266-.578-.484-1.578-.484-.672 0-1.297.312-.625.297-1.031.797l-1.563-1.234q.688-.891 1.735-1.375 1.046-.485 2.265-.485 2.188 0 3.328 1.016 1.14 1 1.14 2.937v5.86h-2.405v-.97h-.157q-.421.563-1.125.923-.703.344-1.609.344zm.578-1.907q1.063 0 1.688-.672.625-.687.625-1.593-.953-.453-2-.453-1.907 0-1.907 1.421 0 .579.407.938.422.36 1.187.36zm10.591 1.907q-1.734 0-2.812-.704-1.063-.718-1.5-1.843l2.187-.953q.297.671.844 1.015.547.344 1.281.344.672 0 1.11-.219.453-.219.453-.703 0-.469-.406-.687-.407-.235-1.235-.422l-1.11-.25q-1.155-.282-1.921-1.016t-.766-1.844q0-.812.485-1.468.5-.657 1.343-1 .86-.36 1.875-.36 2.954 0 3.938 2.063l-2.078.922q-.563-1-1.797-1-.64 0-1.016.234-.359.219-.359.578 0 .672 1.266 1.016l1.39.328q1.422.36 2.14 1.094.72.718.72 1.78 0 .907-.532 1.61-.53.703-1.453 1.094-.922.39-2.047.39zm10.266 0q-1.422 0-2.563-.641-1.14-.656-1.781-1.797-.64-1.156-.64-2.594 0-1.36.624-2.531.64-1.172 1.75-1.86 1.125-.687 2.516-.687 1.469 0 2.531.64 1.063.626 1.61 1.735.562 1.094.562 2.438 0 .422-.063.828h-7.14q.187 1.125.906 1.719.719.593 1.719.593.844 0 1.453-.36.61-.374.953-.983l1.984.968q-1.453 2.532-4.421 2.532zm2.25-6.204q-.032-.453-.329-.89-.28-.438-.796-.719-.516-.297-1.204-.297-.875 0-1.5.516-.625.5-.906 1.39h4.735zm4.232-7.453h2.453v13.36h-2.453v-13.36zm6.241 2.797q-.656 0-1.125-.469-.469-.468-.469-1.109 0-.656.47-1.11.468-.468 1.124-.468.656 0 1.11.469.453.453.453 1.109 0 .64-.453 1.11-.454.468-1.11.468zm-1.234 1.047h2.437v9.516h-2.437v-9.516zm4.993 0h2.297v1.188h.156q.422-.688 1.203-1.079.797-.406 1.703-.406 1.719 0 2.61 1.047.906 1.047.906 2.86v5.906h-2.453v-5.61q0-.922-.47-1.422-.468-.5-1.296-.5-1 0-1.61.766-.593.766-.593 1.922v4.844h-2.453v-9.516zm15.644 9.813q-1.422 0-2.563-.641-1.14-.656-1.781-1.797-.64-1.156-.64-2.594 0-1.36.624-2.531.64-1.172 1.75-1.86 1.125-.687 2.516-.687 1.469 0 2.531.64 1.063.626 1.61 1.735.562 1.094.562 2.438 0 .422-.063.828h-7.14q.187 1.125.906 1.719.719.593 1.719.593.844 0 1.453-.36.61-.374.953-.983l1.984.968q-1.453 2.532-4.421 2.532zm2.25-6.204q-.032-.453-.329-.89-.28-.438-.796-.719-.516-.297-1.204-.297-.875 0-1.5.516-.625.5-.906 1.39h4.735z"/><path fill="none" d="M140.78 395.446l150.803.095v28.252l-150.803-.095z"/><path fill="#666" d="M197.45 408.265q-.579 0-.985-.407t-.406-.985q0-.281.093-.516.094-.234.313-.53l1.39-2.078.938.626-.812 1.25q.375.14.609.468.234.329.234.782 0 .578-.406.984-.39.406-.969.406zm3.5.002q-.579 0-.985-.407t-.406-.985q0-.281.093-.515.094-.235.313-.531l1.39-2.078.938.626-.812 1.25q.375.14.609.469.234.328.234.781 0 .578-.406.984-.39.406-.969.406zm3.182-4.248l2.094.001v2.89l-.14 1.422h.14q.344-.577 1.016-.92.672-.36 1.453-.36 1.5.002 2.281.893.797.891.797 2.454v5.078l-2.094-.002v-4.812q0-.781-.422-1.22-.422-.437-1.125-.437-.843 0-1.375.67-.53.672-.53 1.657v4.14l-2.095-.001v-11.453zm13.523 11.711q-1.266 0-2.25-.564-.984-.563-1.547-1.547-.547-.985-.547-2.22 0-1.218.547-2.202.563-1 1.547-1.562.984-.577 2.25-.577 1.25.001 2.234.58 1 .563 1.547 1.563.563.985.563 2.204 0 1.234-.563 2.218-.547.984-1.547 1.546-.984.562-2.234.561zm0-1.937q.61 0 1.125-.28.516-.282.812-.828.313-.547.313-1.281 0-.72-.313-1.266-.296-.547-.812-.829-.516-.297-1.125-.297-.61 0-1.125.296-.5.28-.813.827-.312.547-.312 1.266t.312 1.281q.313.547.813.829.516.281 1.125.282zm9.496 1.818q-.61 0-1.125-.172-.515-.188-.828-.516-.75-.72-.75-2.048v-3.765l-1.422-.001v-1.782l1.422.001v-2.312l2.094.001v2.313h2v1.782l-2-.001v3.39q0 .61.265.891.235.25.782.25.297.001.5-.077t.515-.265v2.047q-.687.265-1.453.264zm2.907-7.951l.922-1.234q-.422-.11-.688-.453-.265-.36-.265-.797 0-.579.406-.985.406-.421.984-.42.578 0 .97.422.405.406.405.984 0 .282-.093.516-.094.234-.297.531l-1.39 2.062-.954-.626zm3.5.002l.922-1.234q-.422-.11-.688-.453-.265-.36-.265-.797 0-.578.406-.984.422-.422.984-.422.578 0 .985.423.406.406.406.985 0 .28-.11.515-.093.234-.296.531l-1.39 2.062-.954-.626z"/><path fill="none" d="M383.65 395.446l150.804.095v28.252l-150.803-.095z"/><path fill="#666" d="M418.337 408.25q-.578 0-.985-.406-.406-.407-.406-.985 0-.281.094-.515.094-.235.312-.531l1.39-2.078.938.626-.812 1.25q.375.14.61.469.234.328.234.781 0 .578-.407.984-.39.406-.968.406zm3.5.003q-.578 0-.985-.407-.406-.406-.406-.985 0-.28.094-.515.094-.234.312-.531l1.39-2.077.938.625-.812 1.25q.375.14.61.469.234.328.234.781 0 .578-.407.984-.39.406-.968.406zm3.183-.951l1.953.001v1.016h.14q.375-.594 1.016-.937.656-.343 1.453-.343.875 0 1.516.423.64.407.906 1.032.406-.64 1.094-1.046.703-.406 1.64-.406 1.391.001 2.11.861.734.86.734 2.313v5.25l-2.078-.001v-4.86q0-.765-.36-1.187-.359-.423-1-.423-.812 0-1.296.656-.485.64-.485 1.702v4.11l-2.109-.002v-4.859q0-.766-.375-1.188-.375-.422-1.062-.422-.766 0-1.235.655-.469.64-.469 1.703v4.11l-2.093-.002v-8.156zm18.466 8.418q-1.265-.001-2.25-.564-.984-.563-1.547-1.548-.546-.985-.546-2.22 0-1.218.546-2.202.563-1 1.547-1.561.985-.578 2.25-.577 1.25 0 2.235.58 1 .562 1.547 1.563.562.985.562 2.203 0 1.235-.562 2.219-.547.984-1.547 1.546-.985.561-2.235.56zm0-1.938q.61 0 1.125-.28.516-.281.813-.828.312-.547.312-1.281 0-.719-.312-1.266-.297-.547-.813-.829-.515-.297-1.125-.297-.609 0-1.125.296-.5.281-.812.828-.313.546-.313 1.265 0 .719.313 1.282.312.547.812.828.516.282 1.125.282zm8.434 1.943q-1.297 0-2.125-.751-.828-.767-.828-2 0-.813.422-1.438.437-.625 1.187-.952.75-.344 1.672-.343 1.266 0 2.156.376v-.36q0-.671-.515-1.078-.5-.422-1.344-.422-.578 0-1.11.265-.53.265-.89.686l-1.344-1.047q.594-.765 1.485-1.187.906-.421 1.953-.42 1.875 0 2.844.876.984.86.984 2.517v5.03h-2.063v-.829h-.125q-.375.469-.984.781-.594.296-1.375.296zm.5-1.625q.906 0 1.438-.577.546-.593.546-1.375-.812-.39-1.718-.391-1.625-.001-1.625 1.217 0 .5.343.813.36.313 1.016.313zm5.992-6.777l1.953.001v1.078h.14q.297-.562.938-.937.64-.39 1.406-.39.563 0 1.031.189v2.093q-.437-.156-.734-.234-.297-.079-.625-.079-.937 0-1.484.671-.532.672-.532 1.703v4.062l-2.093-.001v-8.156zm5.8 8.16zm4.776-11.45h2.094v2.891l-.141 1.422h.14q.344-.578 1.016-.92.672-.36 1.453-.36 1.5.002 2.282.893.796.89.796 2.453v5.078h-2.093v-4.813q0-.782-.422-1.22-.422-.437-1.125-.438-.844 0-1.375.671-.531.672-.531 1.656v4.141l-2.094-.001v-11.453zm13.522 11.711q-1.265 0-2.25-.564-.984-.563-1.546-1.548-.547-.984-.547-2.219 0-1.218.547-2.203.562-1 1.546-1.561.985-.578 2.25-.577 1.25.001 2.235.58 1 .563 1.547 1.563.562.985.562 2.204 0 1.234-.562 2.218-.547.984-1.547 1.546-.985.562-2.235.561zm0-1.937q.61 0 1.125-.28.516-.282.813-.829.312-.546.312-1.28 0-.72-.312-1.266-.297-.547-.813-.83-.515-.296-1.125-.297-.609 0-1.125.297-.5.28-.812.827-.313.547-.313 1.266 0 .718.313 1.281.312.547.812.829.516.281 1.125.282zm9.497 1.818q-.61 0-1.125-.173-.516-.187-.828-.516-.75-.719-.75-2.047v-3.766h-1.422v-1.782l1.422.001v-2.312l2.093.001v2.312l2 .002v1.781l-2-.001v3.39q0 .61.266.891.234.25.781.25.297 0 .5-.077.203-.078.516-.266v2.047q-.688.266-1.453.265zm2.906-7.951l.922-1.234q-.422-.11-.687-.454-.266-.36-.266-.797 0-.578.406-.984.407-.421.985-.421.578 0 .969.422.406.407.406.985 0 .281-.094.516-.094.234-.297.53l-1.39 2.062-.954-.625zm3.5.002l.922-1.234q-.422-.11-.687-.453-.266-.36-.266-.797 0-.579.406-.985.422-.421.985-.42.578 0 .984.422.406.406.406.984 0 .282-.109.516-.094.234-.297.53l-1.39 2.063-.954-.626z"/><path fill="#673ab7" d="M251.307 189.36h100.504v59.905H251.307z" fill-rule="evenodd"/><path stroke="#351c75" stroke-linejoin="round" stroke-linecap="butt" d="M251.307 189.36h100.504v59.905H251.307z"/><path fill="#f3f3f3" d="M265.573 201.873h5.218q1.125 0 2.063.469.937.468 1.484 1.265.547.797.547 1.75 0 1.016-.5 1.75-.5.735-1.297 1.125v.157q1.047.375 1.656 1.187.625.813.625 1.938 0 1.109-.593 1.953-.578.843-1.578 1.312-1 .453-2.22.453h-5.405v-13.359zm5.03 5.453q.829 0 1.313-.453.5-.469.5-1.156 0-.672-.484-1.125-.469-.453-1.25-.453h-2.594v3.187h2.516zm.282 5.61q.922 0 1.422-.47.516-.484.516-1.25 0-.765-.516-1.25-.516-.484-1.5-.484h-2.719v3.453h2.797zm9.336 2.593q-1.515 0-2.484-.875-.969-.89-.969-2.328 0-.953.5-1.672.5-.734 1.375-1.125.89-.39 1.953-.39 1.47 0 2.516.421v-.406q0-.781-.594-1.265-.578-.485-1.578-.485-.672 0-1.297.313-.625.297-1.031.797l-1.563-1.235q.688-.89 1.735-1.375 1.047-.484 2.265-.484 2.188 0 3.329 1.015 1.14 1 1.14 2.938v5.86h-2.406v-.97h-.156q-.422.563-1.125.922-.703.344-1.61.344zm.578-1.906q1.063 0 1.688-.672.625-.687.625-1.594-.953-.453-2-.453-1.906 0-1.906 1.422 0 .578.406.938.422.359 1.187.359zm10.592 1.906q-1.735 0-2.813-.703-1.062-.719-1.5-1.844l2.188-.953q.296.672.843 1.016.547.344 1.282.344.671 0 1.109-.22.453-.218.453-.702 0-.469-.406-.688-.406-.234-1.235-.422l-1.109-.25q-1.156-.28-1.922-1.015-.765-.735-.765-1.844 0-.813.484-1.469.5-.656 1.344-1 .86-.36 1.875-.36 2.953 0 3.937 2.063l-2.078.922q-.562-1-1.797-1-.64 0-1.015.235-.36.218-.36.578 0 .672 1.266 1.015l1.39.328q1.422.36 2.141 1.094.719.719.719 1.781 0 .907-.531 1.61-.532.703-1.454 1.094-.921.39-2.046.39zm10.265 0q-1.422 0-2.563-.64-1.14-.657-1.781-1.797-.64-1.157-.64-2.594 0-1.36.624-2.531.641-1.172 1.75-1.86 1.125-.687 2.516-.687 1.469 0 2.531.64 1.063.625 1.61 1.735.562 1.094.562 2.437 0 .422-.062.828h-7.141q.187 1.125.906 1.72.719.593 1.719.593.844 0 1.453-.36.61-.374.953-.984l1.985.969q-1.454 2.531-4.422 2.531zm2.25-6.203q-.032-.453-.328-.89-.282-.438-.797-.72-.516-.296-1.203-.296-.875 0-1.5.515-.625.5-.907 1.391h4.735zm4.232-7.453h2.453v13.36h-2.453v-13.36zm6.241 2.797q-.656 0-1.125-.469-.468-.469-.468-1.11 0-.656.468-1.109.47-.468 1.125-.468.657 0 1.11.468.453.453.453 1.11 0 .64-.453 1.11-.453.468-1.11.468zm-1.234 1.047h2.438v9.515h-2.438v-9.515zm4.993 0h2.297v1.187h.156q.422-.687 1.203-1.078.797-.406 1.703-.406 1.72 0 2.61 1.047.906 1.047.906 2.86v5.905h-2.453v-5.609q0-.922-.469-1.422-.469-.5-1.297-.5-1 0-1.61.766-.593.765-.593 1.922v4.843h-2.453v-9.515zm15.644 9.812q-1.422 0-2.563-.64-1.14-.657-1.781-1.797-.64-1.157-.64-2.594 0-1.36.624-2.531.641-1.172 1.75-1.86 1.125-.687 2.516-.687 1.469 0 2.531.64 1.063.625 1.61 1.735.562 1.094.562 2.437 0 .422-.062.828h-7.141q.188 1.125.906 1.72.719.593 1.719.593.844 0 1.453-.36.61-.374.953-.984l1.985.969q-1.453 2.531-4.422 2.531zm2.25-6.203q-.031-.453-.328-.89-.282-.438-.797-.72-.516-.296-1.203-.296-.875 0-1.5.515-.625.5-.907 1.391h4.735zm3.045 5.906zM267.344 237.53q-1.438 0-2.578-.641t-1.782-1.797q-.64-1.157-.64-2.61 0-1.468.64-2.609.641-1.14 1.782-1.797 1.14-.656 2.578-.656 1.578 0 2.719.687 1.14.672 1.64 1.922l-2.234.938q-.594-1.266-2.125-1.266-1.125 0-1.844.766-.719.765-.719 2.015 0 1.266.72 2.032.718.765 1.843.765 1.547 0 2.234-1.344l2.219.97q-.61 1.25-1.75 1.937-1.14.687-2.703.687zm10.768 0q-1.484 0-2.64-.657-1.157-.672-1.797-1.813-.641-1.156-.641-2.578t.64-2.578q.641-1.156 1.797-1.812 1.157-.672 2.641-.672 1.453 0 2.61.672 1.156.656 1.796 1.812.64 1.156.64 2.578t-.64 2.578q-.64 1.141-1.797 1.813-1.156.656-2.609.656zm0-2.25q.703 0 1.297-.329.61-.344.953-.984.36-.64.36-1.485 0-.843-.36-1.468-.344-.641-.953-.97-.594-.343-1.297-.343-.719 0-1.312.344-.594.328-.97.969-.359.625-.359 1.468 0 .828.36 1.485.375.64.969.984.593.328 1.312.328zm6.911-7.563h2.297v1.187h.156q.438-.687 1.188-1.078.765-.406 1.703-.406 1 0 1.75.484.75.469 1.062 1.188.47-.735 1.282-1.203.812-.47 1.906-.47 1.625 0 2.469 1 .859 1 .859 2.688v6.125h-2.422v-5.672q0-.89-.422-1.375-.422-.484-1.172-.484-.953 0-1.53.75-.563.75-.563 1.984v4.797h-2.438v-5.672q0-.89-.437-1.375-.438-.484-1.235-.484-.906 0-1.453.75t-.547 1.984v4.797h-2.453v-9.515zm16.933 0h2.297v1.156h.141q.39-.61 1.14-1.031.75-.422 1.72-.422 1.28 0 2.327.64 1.063.641 1.657 1.797.593 1.157.593 2.625 0 1.47-.593 2.625-.594 1.141-1.657 1.782-1.046.64-2.328.64-.968 0-1.734-.406-.75-.406-1.125-1.031h-.14l.14 1.343v3.829h-2.438v-13.547zm4.86 7.562q.687 0 1.281-.36.61-.359.953-.984.36-.64.36-1.453 0-.828-.36-1.453-.344-.64-.953-.984-.594-.344-1.281-.344-.672 0-1.266.344t-.953.984q-.344.625-.344 1.453 0 .813.344 1.453.36.625.953.985.594.36 1.266.36zm8.291-8.61q-.656 0-1.125-.468-.469-.469-.469-1.11 0-.656.47-1.109.468-.468 1.124-.468.656 0 1.11.468.453.453.453 1.11 0 .64-.454 1.11-.453.468-1.109.468zm-1.234 1.048h2.437v9.515h-2.437v-9.515zm4.993-3.844h2.453v13.36h-2.453v-13.36zm9.319 13.656q-1.422 0-2.563-.64-1.14-.657-1.78-1.797-.641-1.157-.641-2.594 0-1.36.625-2.531.64-1.172 1.75-1.86 1.125-.687 2.515-.687 1.469 0 2.531.64 1.063.625 1.61 1.735.562 1.094.562 2.437 0 .422-.062.828h-7.14q.187 1.125.905 1.72.72.593 1.72.593.843 0 1.452-.36.61-.374.953-.984l1.985.969q-1.453 2.531-4.422 2.531zm2.25-6.203q-.031-.453-.328-.89-.281-.438-.797-.72-.516-.296-1.203-.296-.875 0-1.5.515-.625.5-.906 1.391h4.734zm4.232-3.61h2.297v1.266h.157q.359-.672 1.093-1.109.75-.438 1.64-.438.657 0 1.204.204v2.453q-.5-.188-.86-.266-.343-.094-.734-.094-1.078 0-1.718.782-.625.78-.625 1.984v4.734h-2.454v-9.515z"/><path fill="none" d="M241.504 302.314l12.315-50.866"/><path stroke="#351c75" stroke-width="2" stroke-linejoin="round" stroke-linecap="butt" d="M241.504 302.314l9.491-39.203"/><path fill="#351c75" stroke="#351c75" stroke-width="2" stroke-linecap="butt" d="M254.206 263.888l-1.075-9.599-5.346 8.044z" fill-rule="evenodd"/><path fill="none" d="M354.322 251.857l1.638 50.047"/><path stroke="#351c75" stroke-width="2" stroke-linejoin="round" stroke-linecap="butt" d="M354.322 251.857l1.245 38.054"/><path fill="#351c75" stroke="#351c75" stroke-width="2" stroke-linecap="butt" d="M352.266 290.019l3.598 8.963 3.005-9.18z" fill-rule="evenodd"/><path fill="#38761d" d="M236.338 307.656h117.984v59.906H236.338z" fill-rule="evenodd"/><path stroke="#274e13" stroke-linejoin="round" stroke-linecap="butt" d="M236.338 307.656h117.984v59.906H236.338z"/><path fill="#f3f3f3" d="M274.315 331.17h2.516v10.968h5.656v2.39h-8.172V331.17zm10.28 0h2.515v10.968h5.656v2.39h-8.171V331.17zm10.28 0h2.515v13.359h-2.516v-13.36zm5.215 3.843h2.297v1.188h.156q.422-.688 1.203-1.078.797-.407 1.703-.407 1.72 0 2.61 1.047.906 1.047.906 2.86v5.906h-2.453v-5.61q0-.921-.469-1.421t-1.297-.5q-1 0-1.61.765-.593.766-.593 1.922v4.844h-2.453v-9.516zm15.316 9.672q-.703 0-1.297-.219-.594-.218-.969-.593-.875-.844-.875-2.39v-4.376h-1.672v-2.094h1.672v-2.687h2.438v2.687h2.328v2.094h-2.328v3.938q0 .718.312 1.046.266.297.906.297.344 0 .579-.093.234-.094.609-.329v2.391q-.797.328-1.703.328z"/><path fill="#673ab7" d="M453.905 367.562v-59.496h21.322v59.496z" fill-rule="evenodd"/><path stroke="#351c75" stroke-linejoin="round" stroke-linecap="butt" d="M453.905 367.562v-59.496h21.322v59.496z"/><path fill="#f3f3f3" d="M468.384 352.792q0 .406-.11.75-.124.344-.343.547-.484.5-1.36.5h-2.5v.953h-1.202v-.953h-1.532v-1.39h1.532v-1.329h1.203v1.328h2.234q.422 0 .61-.187.171-.14.171-.5 0-.203-.047-.328-.062-.141-.187-.36h1.36q.171.453.171.969zm-5.515-2.095v-1.312h.734v-.079q-.39-.203-.64-.625-.25-.437-.25-.937 0-.375.109-.688h1.406q-.11.297-.156.5-.047.188-.047.407 0 .625.453.984.437.36 1.125.36h2.703v1.39h-5.437zm-.594-5.331q0 .375-.266.64-.265.266-.64.266t-.625-.266q-.266-.265-.266-.64t.266-.625q.25-.266.625-.266t.64.266q.266.25.266.625zm.594.703v-1.391h5.437v1.39h-5.437zm7.906-5.363q0 1.03-.469 1.718-.453.688-1.11.922l-.53-1.312q.406-.172.64-.516.234-.36.234-.812 0-.657-.406-1.047-.406-.39-1.14-.39h-.438v.077q.36.266.563.688.187.406.187.937 0 .672-.344 1.25-.343.578-.968.938-.641.343-1.485.343-.844 0-1.469-.343-.64-.36-.984-.938-.36-.578-.36-1.25 0-.531.204-.937.187-.422.547-.688v-.078h-.578v-1.344h5.062q.875 0 1.516.344.64.344.984.969t.344 1.469zm-3.735-.016q0-.594-.406-1-.422-.422-1.125-.422-.734 0-1.14.422-.407.406-.407 1t.407 1.016q.406.406 1.14.406.719 0 1.125-.406.406-.422.406-1.016zm3.735-6.634q0 1.031-.469 1.719-.453.687-1.11.922l-.53-1.313q.406-.172.64-.515.234-.36.234-.813 0-.656-.406-1.047-.406-.39-1.14-.39h-.438v.078q.36.265.563.687.187.406.187.938 0 .672-.344 1.25-.343.578-.968.937-.641.344-1.485.344-.844 0-1.469-.344-.64-.36-.984-.937-.36-.578-.36-1.25 0-.532.204-.938.187-.422.547-.687v-.078h-.578v-1.344h5.062q.875 0 1.516.344.64.343.984.968t.344 1.469zm-3.735-.016q0-.593-.406-1-.422-.421-1.125-.421-.734 0-1.14.421-.407.407-.407 1 0 .594.407 1.016.406.406 1.14.406.719 0 1.125-.406.406-.422.406-1.016zm1.438-6.68q0 .812-.375 1.468-.375.641-1.031 1.016-.657.36-1.469.36-.781 0-1.438-.36-.671-.36-1.062-1-.406-.64-.406-1.422 0-.844.375-1.453.36-.61.984-.922.625-.312 1.39-.312.25 0 .47.03v4.079q.656-.11 1-.516.328-.406.328-.984 0-.484-.204-.828-.218-.344-.562-.547l.547-1.125q1.453.828 1.453 2.516zm-3.547-1.282q-.266.016-.516.188-.25.156-.406.453-.172.297-.172.687 0 .5.297.86t.797.515v-2.703zm-2.062-2.427v-1.312h.734v-.078q-.39-.204-.64-.625-.25-.438-.25-.938 0-.375.109-.687h1.406q-.11.296-.156.5-.047.187-.047.406 0 .625.453.984.437.36 1.125.36h2.703v1.39h-5.437z"/><path fill="#dd4a68" d="M574.811 307.86h78.772v59.906H574.81z" fill-rule="evenodd"/><path stroke="#5b0f00" stroke-linejoin="round" stroke-linecap="butt" d="M574.811 307.86h78.772v59.906H574.81z"/><path fill="#f3f3f3" d="M595.794 331.374h4.516q2.093 0 3.64.844 1.547.844 2.375 2.36.844 1.5.844 3.484 0 1.969-.844 3.484-.828 1.516-2.375 2.36-1.547.828-3.64.828h-4.516v-13.36zm4.406 10.969q2.156 0 3.297-1.14 1.14-1.157 1.14-3.141 0-2-1.14-3.14-1.14-1.157-3.297-1.157h-1.89v8.578h1.89zm9.362-10.969h8.469v2.39h-5.953v3.25h5.36v2.392h-5.36v5.328h-2.516v-13.36zm17.065 13.657q-1.922 0-3.531-.907-1.61-.906-2.562-2.5-.954-1.593-.954-3.562 0-1.985.954-3.578.953-1.594 2.562-2.5 1.61-.907 3.531-.907 1.578 0 2.875.547t2.219 1.563l-1.734 1.703q-.672-.719-1.485-1.063-.812-.359-1.89-.359-1.235 0-2.266.578-1.016.563-1.625 1.625-.61 1.047-.61 2.39 0 1.345.61 2.391.625 1.047 1.656 1.625 1.047.563 2.266.563 1.875 0 3.062-1.094.375-.344.657-.86.28-.53.406-1.14h-4.188v-2.14h6.547q.125.515.125 1.171 0 1.329-.406 2.47-.39 1.124-1.219 1.984-.89.968-2.156 1.484t-2.844.516z"/><path fill="#ff9800" d="M475.224 307.86h100.504v59.906H475.224z" fill-rule="evenodd"/><path stroke="#5b0f00" stroke-linejoin="round" stroke-linecap="butt" d="M475.224 307.86h100.504v59.906H475.224z"/><path fill="#f3f3f3" d="M489.49 331.374h5.219q1.125 0 2.062.469.938.469 1.485 1.266.546.797.546 1.75 0 1.015-.5 1.75-.5.734-1.296 1.125v.156q1.046.375 1.656 1.187.625.813.625 1.938 0 1.11-.594 1.953-.578.844-1.578 1.313-1 .453-2.219.453h-5.406v-13.36zm5.031 5.453q.828 0 1.313-.453.5-.468.5-1.156 0-.672-.485-1.125-.468-.453-1.25-.453h-2.593v3.187h2.515zm.281 5.61q.922 0 1.422-.469.516-.484.516-1.25t-.516-1.25q-.515-.484-1.5-.484h-2.718v3.453h2.796zm9.337 2.594q-1.516 0-2.485-.875-.968-.891-.968-2.329 0-.953.5-1.671.5-.735 1.375-1.125.89-.391 1.953-.391 1.468 0 2.515.422v-.406q0-.782-.593-1.266-.579-.484-1.579-.484-.671 0-1.296.312-.625.297-1.032.797l-1.562-1.234q.687-.891 1.734-1.375 1.047-.485 2.266-.485 2.187 0 3.328 1.016 1.14 1 1.14 2.937v5.86h-2.406v-.97h-.156q-.422.563-1.125.923-.703.344-1.61.344zm.578-1.907q1.062 0 1.687-.672.625-.687.625-1.593-.953-.453-2-.453-1.906 0-1.906 1.421 0 .579.406.938.422.36 1.188.36zm10.59 1.907q-1.733 0-2.812-.704-1.062-.718-1.5-1.843l2.188-.953q.297.671.844 1.015.547.344 1.28.344.673 0 1.11-.219.453-.219.453-.703 0-.469-.406-.687-.406-.235-1.234-.422l-1.11-.25q-1.156-.282-1.921-1.016-.766-.734-.766-1.844 0-.812.484-1.468.5-.657 1.344-1 .86-.36 1.875-.36 2.953 0 3.938 2.063l-2.079.922q-.562-1-1.796-1-.641 0-1.016.234-.36.219-.36.578 0 .672 1.266 1.016l1.39.328q1.423.36 2.141 1.094.72.718.72 1.78 0 .907-.532 1.61-.531.703-1.453 1.094-.922.39-2.047.39zm10.266 0q-1.422 0-2.562-.641-1.141-.656-1.782-1.797-.64-1.156-.64-2.594 0-1.36.625-2.531.64-1.172 1.75-1.86 1.125-.687 2.515-.687 1.47 0 2.532.64 1.062.626 1.609 1.735.562 1.094.562 2.438 0 .422-.062.828h-7.14q.187 1.125.906 1.719.718.593 1.718.593.844 0 1.453-.36.61-.374.954-.983l1.984.968q-1.453 2.532-4.422 2.532zm2.25-6.204q-.031-.453-.328-.89-.281-.438-.797-.719-.516-.297-1.203-.297-.875 0-1.5.516-.625.5-.906 1.39h4.734zm4.233-7.453h2.453v13.36h-2.453v-13.36zm6.24 2.797q-.655 0-1.124-.469-.469-.468-.469-1.109 0-.656.469-1.11.469-.468 1.125-.468t1.11.469q.452.453.452 1.109 0 .64-.453 1.11-.453.468-1.11.468zm-1.234 1.047h2.438v9.516h-2.438v-9.516zm4.993 0h2.297v1.188h.156q.422-.688 1.204-1.079.796-.406 1.703-.406 1.718 0 2.609 1.047.906 1.047.906 2.86v5.906h-2.453v-5.61q0-.922-.469-1.422-.468-.5-1.296-.5-1 0-1.61.766-.594.766-.594 1.922v4.844h-2.453v-9.516zm15.644 9.813q-1.422 0-2.562-.641-1.141-.656-1.782-1.797-.64-1.156-.64-2.594 0-1.36.625-2.531.64-1.172 1.75-1.86 1.125-.687 2.515-.687 1.47 0 2.532.64 1.062.626 1.609 1.735.563 1.094.563 2.438 0 .422-.063.828h-7.14q.187 1.125.906 1.719.718.593 1.718.593.844 0 1.454-.36.609-.374.953-.983l1.984.968q-1.453 2.532-4.422 2.532zm2.25-6.204q-.031-.453-.328-.89-.281-.438-.797-.719-.515-.297-1.203-.297-.875 0-1.5.516-.625.5-.906 1.39h4.734z"/><path fill="#673ab7" d="M653.582 367.562v-59.496h21.323v59.496z" fill-rule="evenodd"/><path stroke="#351c75" stroke-linejoin="round" stroke-linecap="butt" d="M653.582 367.562v-59.496h21.323v59.496z"/><path fill="#f3f3f3" d="M668.061 352.792q0 .406-.109.75-.125.344-.344.547-.484.5-1.36.5h-2.5v.953h-1.202v-.953h-1.532v-1.39h1.532v-1.329h1.203v1.328h2.234q.422 0 .61-.187.171-.14.171-.5 0-.203-.046-.328-.063-.141-.188-.36h1.36q.171.453.171.969zm-5.515-2.095v-1.312h.734v-.079q-.39-.203-.64-.625-.25-.437-.25-.937 0-.375.109-.688h1.406q-.11.297-.156.5-.047.188-.047.407 0 .625.453.984.438.36 1.125.36h2.703v1.39h-5.437zm-.594-5.331q0 .375-.266.64-.265.266-.64.266t-.625-.266q-.266-.265-.266-.64t.266-.625q.25-.266.625-.266t.64.266q.266.25.266.625zm.594.703v-1.391h5.437v1.39h-5.437zm7.906-5.363q0 1.03-.469 1.718-.453.688-1.11.922l-.53-1.312q.406-.172.64-.516.235-.36.235-.812 0-.657-.407-1.047-.406-.39-1.14-.39h-.438v.077q.36.266.563.688.187.406.187.937 0 .672-.344 1.25-.343.578-.968.938-.64.343-1.485.343-.843 0-1.468-.343-.641-.36-.985-.938-.36-.578-.36-1.25 0-.531.204-.937.187-.422.547-.688v-.078h-.578v-1.344h5.062q.875 0 1.516.344.64.344.984.969t.344 1.469zm-3.734-.016q0-.594-.407-1-.422-.422-1.125-.422-.734 0-1.14.422-.407.406-.407 1t.407 1.016q.406.406 1.14.406.72 0 1.125-.406.407-.422.407-1.016zm3.734-6.634q0 1.031-.469 1.719-.453.687-1.11.922l-.53-1.313q.406-.172.64-.515.235-.36.235-.813 0-.656-.407-1.047-.406-.39-1.14-.39h-.438v.078q.36.265.563.687.187.406.187.938 0 .672-.344 1.25-.343.578-.968.937-.64.344-1.485.344-.843 0-1.468-.344-.641-.36-.985-.937-.36-.578-.36-1.25 0-.532.204-.938.187-.422.547-.687v-.078h-.578v-1.344h5.062q.875 0 1.516.344.64.343.984.968t.344 1.469zm-3.734-.016q0-.593-.407-1-.422-.421-1.125-.421-.734 0-1.14.421-.407.407-.407 1 0 .594.407 1.016.406.406 1.14.406.72 0 1.125-.406.407-.422.407-1.016zm1.437-6.68q0 .812-.375 1.468-.375.641-1.031 1.016-.656.36-1.469.36-.781 0-1.437-.36-.672-.36-1.063-1-.406-.64-.406-1.422 0-.844.375-1.453.36-.61.984-.922.625-.312 1.39-.312.25 0 .47.03v4.079q.656-.11 1-.516.328-.406.328-.984 0-.484-.203-.828-.22-.344-.563-.547l.547-1.125q1.453.828 1.453 2.516zm-3.547-1.282q-.265.016-.515.188-.25.156-.407.453-.172.297-.172.687 0 .5.297.86t.797.515v-2.703zm-2.062-2.427v-1.312h.734v-.078q-.39-.204-.64-.625-.25-.438-.25-.938 0-.375.109-.687h1.406q-.11.296-.156.5-.047.187-.047.406 0 .625.453.984.438.36 1.125.36h2.703v1.39h-5.437z"/><path fill="#dd4a68" d="M674.905 307.86h103.969v59.906H674.905z" fill-rule="evenodd"/><path stroke="#5b0f00" stroke-linejoin="round" stroke-linecap="butt" d="M674.905 307.86h103.969v59.906H674.905z"/><path fill="#f3f3f3" d="M708.487 331.374h4.515q2.094 0 3.641.844 1.547.844 2.375 2.36.844 1.5.844 3.484 0 1.969-.844 3.484-.828 1.516-2.375 2.36-1.547.828-3.64.828h-4.516v-13.36zm4.406 10.969q2.156 0 3.297-1.14 1.14-1.157 1.14-3.141 0-2-1.14-3.14-1.14-1.157-3.297-1.157h-1.89v8.578h1.89zm9.362-10.969h8.469v2.39h-5.953v3.25h5.36v2.392h-5.36v5.328h-2.516v-13.36zm17.065 13.657q-1.922 0-3.531-.907-1.61-.906-2.563-2.5-.953-1.593-.953-3.562 0-1.985.953-3.578.953-1.594 2.563-2.5 1.61-.907 3.531-.907 1.578 0 2.875.547t2.219 1.563l-1.735 1.703q-.671-.719-1.484-1.063-.812-.359-1.89-.359-1.235 0-2.266.578-1.016.563-1.625 1.625-.61 1.047-.61 2.39 0 1.345.61 2.391.625 1.047 1.656 1.625 1.047.563 2.266.563 1.875 0 3.062-1.094.375-.344.656-.86.282-.53.407-1.14h-4.188v-2.14h6.547q.125.515.125 1.171 0 1.329-.406 2.47-.39 1.124-1.219 1.984-.89.968-2.156 1.484t-2.844.516z"/><path fill="#673ab7" d="M678.36 189.358h100.505v59.906H678.36z" fill-rule="evenodd"/><path stroke="#351c75" stroke-linejoin="round" stroke-linecap="butt" d="M678.36 189.358h100.505v59.906H678.36z"/><path fill="#f3f3f3" d="M714.174 201.872h8.47v2.39h-5.954v3.25h5.36v2.39h-5.36v5.329h-2.516v-13.36zm13.394 2.39h-3.735v-2.39h9.985v2.39h-3.735v10.969h-2.515v-10.969zm8.266-2.39h2.516v10.968h5.656v2.391h-8.172v-13.36zm8.749 13.359zM694.398 237.528q-1.438 0-2.578-.64-1.141-.641-1.782-1.798-.64-1.156-.64-2.609 0-1.469.64-2.61.64-1.14 1.782-1.796 1.14-.656 2.578-.656 1.578 0 2.718.687 1.141.672 1.641 1.922l-2.234.937q-.594-1.265-2.125-1.265-1.125 0-1.844.765-.719.766-.719 2.016 0 1.266.719 2.031.719.766 1.844.766 1.547 0 2.234-1.344l2.219.969q-.61 1.25-1.75 1.937-1.14.688-2.703.688zm10.768 0q-1.485 0-2.64-.656-1.157-.672-1.798-1.813-.64-1.156-.64-2.578t.64-2.578q.641-1.156 1.797-1.813 1.156-.671 2.64-.671 1.454 0 2.61.671 1.156.657 1.797 1.813.64 1.156.64 2.578t-.64 2.578q-.64 1.14-1.797 1.813-1.156.656-2.61.656zm0-2.25q.703 0 1.297-.328.61-.344.953-.985.36-.64.36-1.484t-.36-1.469q-.344-.64-.953-.968-.594-.344-1.297-.344-.719 0-1.313.344-.593.328-.968.968-.36.625-.36 1.469 0 .828.36 1.484.375.641.968.985.594.328 1.313.328zm6.91-7.563h2.298v1.188h.156q.438-.688 1.188-1.078.765-.406 1.703-.406 1 0 1.75.484.75.469 1.062 1.187.469-.734 1.281-1.203.813-.468 1.907-.468 1.625 0 2.468 1 .86 1 .86 2.687v6.125h-2.422v-5.672q0-.89-.422-1.375-.422-.484-1.172-.484-.953 0-1.531.75-.563.75-.563 1.984v4.797h-2.437v-5.672q0-.89-.438-1.375-.437-.484-1.234-.484-.906 0-1.453.75t-.547 1.984v4.797h-2.453v-9.516zm16.934 0h2.297v1.157h.14q.391-.61 1.141-1.032.75-.421 1.72-.421 1.28 0 2.327.64 1.063.64 1.657 1.797.593 1.156.593 2.625t-.593 2.625q-.594 1.14-1.657 1.781-1.047.64-2.328.64-.969 0-1.734-.405-.75-.407-1.125-1.032h-.14l.14 1.344v3.828h-2.438v-13.547zm4.86 7.563q.687 0 1.28-.36.61-.359.954-.984.36-.64.36-1.453 0-.828-.36-1.453-.344-.64-.953-.984-.594-.344-1.281-.344-.672 0-1.266.344-.594.343-.953.984-.344.625-.344 1.453 0 .813.344 1.453.36.625.953.985.594.359 1.266.359zm8.29-8.61q-.655 0-1.124-.468-.469-.469-.469-1.11 0-.656.469-1.109.469-.469 1.125-.469t1.11.469q.452.453.452 1.11 0 .64-.453 1.109t-1.11.469zm-1.233 1.047h2.437v9.516h-2.437v-9.516zm4.992-3.843h2.453v13.359h-2.453v-13.36zm9.32 13.656q-1.422 0-2.563-.64-1.14-.657-1.781-1.798-.64-1.156-.64-2.593 0-1.36.624-2.532.641-1.171 1.75-1.859 1.125-.687 2.516-.687 1.469 0 2.531.64 1.063.625 1.61 1.735.562 1.093.562 2.437 0 .422-.062.828h-7.141q.188 1.125.906 1.719.719.594 1.719.594.844 0 1.453-.36.61-.375.953-.984l1.985.969q-1.453 2.53-4.422 2.53zm2.25-6.203q-.031-.453-.328-.89-.282-.438-.797-.72-.516-.296-1.203-.296-.875 0-1.5.515-.625.5-.907 1.39h4.735zm4.232-3.61h2.297v1.266h.156q.36-.672 1.094-1.11.75-.437 1.64-.437.657 0 1.204.203v2.453q-.5-.187-.86-.265-.343-.094-.734-.094-1.078 0-1.719.781-.625.782-.625 1.985v4.734h-2.453v-9.516z"/><path fill="none" d="M675.114 303.55l3.244-50.425"/><path stroke="#351c75" stroke-width="2" stroke-linejoin="round" stroke-linecap="butt" d="M675.114 303.55l2.474-38.45"/><path fill="#351c75" stroke="#351c75" stroke-width="2" stroke-linecap="butt" d="M680.885 265.312l-2.714-9.27-3.88 8.846z" fill-rule="evenodd"/><path fill="none" d="M776.105 253.538l1.638 50.047"/><path stroke="#351c75" stroke-width="2" stroke-linejoin="round" stroke-linecap="butt" d="M776.105 253.538l1.246 38.054"/><path fill="#351c75" stroke="#351c75" stroke-width="2" stroke-linecap="butt" d="M774.049 291.7l3.599 8.963 3.004-9.18z" fill-rule="evenodd"/><path fill="none" d="M588.842 395.446l150.804.095v28.252l-150.804-.095z"/><path fill="#666" d="M625.44 408.252q-.578 0-.984-.407-.406-.406-.406-.985 0-.28.093-.515.094-.234.313-.531l1.39-2.077.938.625-.813 1.25q.375.14.61.469.234.328.234.781 0 .578-.406.984-.39.406-.969.406zm3.5.002q-.578 0-.984-.407-.406-.406-.406-.984 0-.282.093-.516.094-.234.313-.53l1.39-2.078.938.625-.813 1.25q.375.14.61.469.234.328.234.781 0 .579-.406.985-.39.406-.969.405zm6.277 7.457q-1.484 0-2.406-.595-.922-.61-1.281-1.595l1.859-.81q.266.577.734.875.469.297 1.094.297.578 0 .953-.187.39-.187.39-.609 0-.39-.359-.594-.343-.203-1.046-.36l-.954-.204q-1-.25-1.656-.876-.656-.64-.656-1.578 0-.703.422-1.266.422-.562 1.156-.858.734-.312 1.61-.312 2.53.002 3.374 1.784l-1.796.78q-.47-.86-1.532-.86-.547 0-.875.202-.312.203-.312.5 0 .578 1.094.86l1.203.298q1.218.297 1.828.923.61.625.61 1.531 0 .797-.454 1.39-.453.594-1.25.937-.781.328-1.75.327zm4.986-8.403l1.953.001v1.078h.141q.297-.562.938-.936.64-.39 1.406-.39.562 0 1.031.188v2.094q-.437-.157-.734-.235-.297-.078-.625-.079-.938 0-1.485.671-.53.672-.53 1.703v4.063l-2.095-.002v-8.156zm9.926 8.413q-1.484-.001-2.406-.596-.922-.61-1.281-1.594l1.859-.812q.266.579.734.876.47.297 1.094.297.578 0 .953-.186.39-.188.39-.61 0-.39-.359-.594-.343-.203-1.046-.36l-.954-.203q-1-.25-1.656-.876-.656-.641-.656-1.579 0-.703.422-1.265.422-.562 1.156-.859.734-.312 1.61-.311 2.53.001 3.374 1.783l-1.796.78q-.47-.86-1.532-.86-.547 0-.875.202-.312.203-.312.5 0 .578 1.094.86l1.203.298q1.218.297 1.828.923.61.625.61 1.531 0 .797-.454 1.39-.453.594-1.25.938-.781.327-1.75.327zm4.986-11.7h2.094v11.454l-2.094-.001V404.02zm6.692 11.066l-3.438-7.768 2.39.002 2.11 5.064h.125l2.031-5.061 2.344.001-5.047 11.606-2.25-.001 1.735-3.843zm5.685.394zm4.775-11.45l2.094.002v2.89l-.14 1.422h.14q.344-.578 1.016-.921.672-.36 1.453-.359 1.5.001 2.281.892.797.892.797 2.454v5.078l-2.094-.001v-4.813q0-.78-.422-1.219-.422-.437-1.125-.438-.843 0-1.375.671-.53.672-.53 1.656v4.14h-2.095V404.03zm13.523 11.712q-1.266 0-2.25-.564-.984-.563-1.547-1.548-.547-.985-.547-2.219 0-1.219.547-2.203.563-1 1.547-1.561.984-.578 2.25-.577 1.25 0 2.234.58 1 .563 1.547 1.563.563.985.563 2.204 0 1.234-.563 2.218-.547.984-1.547 1.546-.984.562-2.234.56zm0-1.938q.61 0 1.125-.28.516-.281.812-.828.313-.546.313-1.28 0-.72-.313-1.267-.296-.547-.812-.828-.516-.297-1.125-.298-.61 0-1.125.296-.5.281-.813.828-.312.547-.312 1.265 0 .72.312 1.282.313.547.813.828.516.282 1.125.282zm9.496 1.819q-.61 0-1.125-.173-.515-.188-.828-.516-.75-.72-.75-2.047v-3.766h-1.422v-1.782h1.422v-2.312l2.094.002v2.312l2 .002v1.78h-2v3.39q0 .61.266.89.234.251.78.251.298 0 .5-.077.204-.078.516-.266v2.047q-.687.265-1.453.265zm2.907-7.951l.922-1.234q-.422-.11-.688-.454-.265-.36-.265-.797 0-.578.406-.984.406-.422.984-.421.579 0 .97.422.405.407.405.985 0 .281-.093.515-.094.235-.297.532l-1.39 2.061-.954-.625zm3.5.002l.922-1.234q-.422-.11-.688-.454-.265-.36-.265-.797 0-.578.406-.984.422-.421.984-.421.579 0 .985.422.406.407.406.985 0 .281-.11.516-.093.234-.296.53l-1.39 2.062-.954-.625z"/><path fill="none" d="M125.42 391.357v-275.15"/><path stroke="#666" stroke-width="2" stroke-linejoin="round" stroke-linecap="butt" d="M125.42 391.357v-263.15"/><path fill="#666" stroke="#666" stroke-width="2" stroke-linecap="butt" d="M128.723 128.207l-3.303-9.076-3.304 9.076z" fill-rule="evenodd"/><path fill="none" d="M125.134 390.328l755.59-1.165"/><path stroke="#666" stroke-width="2" stroke-linejoin="round" stroke-linecap="butt" d="M125.134 390.328l743.59-1.147"/><path fill="#666" stroke="#666" stroke-width="2" stroke-linecap="butt" d="M868.73 392.485l9.07-3.318-9.08-3.29z" fill-rule="evenodd"/></g></svg>