<svg viewBox="0 0 960 540" fill="none" stroke-linecap="square" stroke-miterlimit="10" xmlns="http://www.w3.org/2000/svg"><clipPath id="a"><path d="M0 0h960v540H0V0z"/></clipPath><g clip-path="url(#a)"><path fill="#fff" d="M0 0h960v540H0z" fill-rule="evenodd"/><path fill="#666" d="M25.705 517.365v-1.93h6.463c.066.34.104.746.104 1.184 0 1.447-.397 3.24-1.672 4.515-1.24 1.293-2.827 1.982-4.929 1.982-3.895 0-7.17-3.17-7.17-7.066 0-3.895 3.275-7.066 7.17-7.066 2.154 0 3.689.844 4.843 1.947l-1.361 1.362c-.827-.776-1.948-1.379-3.481-1.379-2.844 0-5.068 2.292-5.068 5.136 0 2.844 2.224 5.136 5.068 5.136 1.844 0 2.895-.741 3.567-1.413.548-.547.908-1.333 1.048-2.407h-4.582zM42.188 518.578c0 2.62-2.05 4.55-4.567 4.55-2.517 0-4.567-1.93-4.567-4.55 0-2.637 2.05-4.55 4.567-4.55 2.516 0 4.567 1.913 4.567 4.55zm-1.999 0c0-1.637-1.189-2.758-2.568-2.758-1.378 0-2.568 1.12-2.568 2.758 0 1.62 1.189 2.758 2.568 2.758s2.568-1.138 2.568-2.758zM52.152 518.578c0 2.62-2.05 4.55-4.567 4.55-2.517 0-4.568-1.93-4.568-4.55 0-2.637 2.051-4.55 4.568-4.55 2.516 0 4.567 1.913 4.567 4.55zm-2 0c0-1.637-1.188-2.758-2.567-2.758-1.379 0-2.568 1.12-2.568 2.758 0 1.62 1.189 2.758 2.568 2.758 1.378 0 2.568-1.138 2.568-2.758zM61.702 514.304v8.17c0 3.36-1.982 4.739-4.326 4.739-2.206 0-3.533-1.483-4.033-2.69l1.74-.723c.311.741 1.069 1.62 2.293 1.62 1.5 0 2.43-.93 2.43-2.67v-.656h-.068c-.449.552-1.31 1.034-2.396 1.034-2.275 0-4.36-1.982-4.36-4.533 0-2.568 2.085-4.567 4.36-4.567 1.086 0 1.947.483 2.396 1.018h.068v-.742h1.896zm-1.758 4.291c0-1.602-1.068-2.775-2.43-2.775-1.379 0-2.533 1.173-2.533 2.775 0 1.586 1.154 2.741 2.533 2.741 1.361 0 2.43-1.155 2.43-2.74zM65.088 509.522v13.33H63.09v-13.33h2zM72.81 520.077l1.55 1.034c-.5.742-1.706 2.017-3.791 2.017-2.586 0-4.516-2-4.516-4.55 0-2.707 1.948-4.551 4.292-4.551 2.361 0 3.516 1.879 3.895 2.896l.207.517-6.084 2.516c.465.914 1.19 1.379 2.206 1.379s1.723-.499 2.24-1.258zm-4.775-1.637l4.067-1.69c-.224-.568-.896-.965-1.689-.965-1.017.001-2.43.897-2.378 2.655z" fill-rule="evenodd"/><path fill="#fff" d="M2.37 495.703h96v44.284h-96z" fill-rule="evenodd"/><path fill="none" d="M79.276 386.215l.063-264.85h45.795l-.063 264.85z"/><path fill="#666" d="M110.014 312.89q0 1.64-.735 2.953-.734 1.297-2.063 2.031-1.328.735-2.984.735-1.672 0-2.969-.735-1.312-.734-2.062-2.031-.75-1.313-.75-2.953.001-1.813.783-3.11.781-1.312 2.203-1.875l1.062 2.547q-1.437.688-1.438 2.438 0 1.281.875 2.11.859.812 2.296.812 1.454 0 2.329-.813.875-.828.875-2.11 0-1.765-1.546-2.562l1.11-2.531q1.437.703 2.234 2 .78 1.297.78 3.094zm.003-12.3q0 1.672-.75 3-.766 1.329-2.079 2.063-1.313.734-2.953.734-1.625 0-2.938-.734-1.328-.734-2.077-2.062-.766-1.329-.765-3 0-1.672.766-2.985.75-1.328 2.079-2.062 1.312-.735 2.937-.735 1.641 0 2.953.735 1.313.734 2.078 2.062.75 1.313.75 2.985zm-2.578 0q0-.812-.374-1.5-.39-.687-1.11-1.093-.734-.406-1.718-.406-.969 0-1.688.406t-1.094 1.094q-.39.687-.39 1.5-.001.796.39 1.484.374.687 1.093 1.11.719.406 1.687.406.954 0 1.704-.407.734-.422 1.125-1.109.375-.688.375-1.484zm-8.639-7.913l.001-2.625h1.36v-.172q-.782-.5-1.235-1.39-.468-.891-.468-1.938 0-1.969 1.204-2.984 1.188-1.032 3.25-1.032h6.766v2.797h-6.423q-1.047 0-1.61.531-.577.532-.578 1.5 0 1.125.875 1.829.86.687 2.187.687h5.547v2.797H98.8zm11.223-17.9q0 1.64-.735 2.952-.734 1.297-2.063 2.032-1.328.734-2.984.734-1.672 0-2.969-.734-1.312-.735-2.062-2.032-.75-1.312-.749-2.953 0-1.812.782-3.11.782-1.312 2.204-1.874l1.061 2.547q-1.437.687-1.438 2.437 0 1.282.875 2.11.859.812 2.297.812 1.453 0 2.328-.812.875-.828.875-2.11 0-1.765-1.546-2.562l1.11-2.531q1.437.703 2.234 2 .78 1.296.78 3.093zm.003-11.034q0 1.968-1.22 3-1.218 1.015-3.39 1.015h-6.61l.001-2.797h6.266q1.11 0 1.75-.53.625-.532.625-1.407 0-1.188-.874-1.89-.875-.704-2.219-.704h-5.547v-2.797h10.876v2.625h-1.36v.172q.78.485 1.25 1.375.452.875.452 1.938zm-11.217-8.838l.001-2.625h1.453v-.172q-.765-.407-1.265-1.25-.516-.86-.515-1.89 0-.75.234-1.36h2.797q-.203.578-.297.968-.11.391-.11.844 0 1.235.906 1.969.89.719 2.25.719h5.422v2.797H98.808zm.003-9.108v-2.625h1.453v-.171q-.765-.407-1.265-1.25-.515-.86-.515-1.891 0-.75.235-1.36h2.796q-.203.579-.297.97-.11.39-.11.843 0 1.234.907 1.969.89.719 2.25.719h5.421v2.796H98.812zm11.222-14.216q0 1.625-.75 2.937-.751 1.297-2.064 2.032-1.313.734-2.953.734-1.547 0-2.875-.719-1.344-.734-2.125-2.015-.796-1.282-.796-2.86 0-1.687.735-2.89.72-1.22 1.985-1.844 1.25-.64 2.782-.64.5 0 .937.062l-.002 8.172q1.313-.22 1.985-1.032.656-.828.656-1.968 0-.97-.405-1.657-.422-.687-1.125-1.093l1.11-2.266q2.906 1.656 2.905 5.047zm-7.109-2.578q-.5.047-1 .375-.516.328-.844.922-.328.578-.329 1.375 0 1 .594 1.718.578.704 1.578 1.032l.001-5.422zm-4.108-4.832v-2.625h1.36v-.172q-.781-.5-1.234-1.39-.469-.891-.469-1.938 0-1.97 1.204-2.985 1.188-1.031 3.25-1.031h6.766v2.797h-6.422q-1.047 0-1.61.531-.578.531-.578 1.5 0 1.125.874 1.828.86.688 2.188.688h5.546v2.797H98.817zm11.223-17.901q0 1.64-.735 2.953-.735 1.297-2.063 2.031-1.329.735-2.985.735-1.672 0-2.968-.735-1.313-.734-2.062-2.03-.75-1.313-.75-2.954 0-1.812.782-3.11.782-1.312 2.204-1.874l1.062 2.547q-1.438.687-1.438 2.437 0 1.281.874 2.11.86.812 2.297.812 1.453 0 2.328-.813.875-.828.876-2.109 0-1.766-1.547-2.562l1.11-2.532q1.438.703 2.234 2 .781 1.297.78 3.094zm-.857-10.487l-10.36 4.578v-3.171l6.766-2.813v-.172l-6.764-2.719v-3.109l15.483 6.719v3l-5.125-2.313z"/><path fill="#38761d" d="M146.058 307.661h177.07v59.906h-177.07z" fill-rule="evenodd"/><path stroke="#274e13" stroke-linejoin="round" stroke-linecap="butt" d="M146.058 307.661h177.07v59.906h-177.07z"/><path fill="#f3f3f3" d="M201.564 331.175h2.515v13.36h-2.515v-13.36zm9.606 17.687q-1.812 0-3.015-.812-1.188-.813-1.594-1.953l2.297-.922q.297.703.906 1.11.625.421 1.406.421 1.156 0 1.828-.719.688-.703.688-2.015v-.75h-.14q-.454.64-1.188.984-.72.328-1.657.328-1.171 0-2.187-.61-1.016-.609-1.64-1.718-.61-1.11-.61-2.578 0-1.469.61-2.578.624-1.11 1.64-1.719 1.016-.61 2.187-.61.938 0 1.657.344.734.329 1.187.97h.14v-1.016h2.36v8.859q0 1.531-.61 2.64-.593 1.126-1.702 1.735-1.094.61-2.563.61zm.031-6.547q1.032 0 1.75-.718.735-.72.735-1.97 0-1.28-.719-1.983-.719-.704-1.766-.704-1.03 0-1.765.72-.735.702-.735 1.968t.735 1.984q.734.703 1.765.703zm7.22-7.296h2.297v1.187h.156q.422-.687 1.203-1.078.797-.406 1.703-.406 1.72 0 2.61 1.047.906 1.046.906 2.859v5.906h-2.453v-5.61q0-.921-.469-1.421t-1.297-.5q-1 0-1.61.766-.593.765-.593 1.921v4.844h-2.453v-9.515zm12.566-1.047q-.656 0-1.125-.47-.469-.468-.469-1.108 0-.657.469-1.11.469-.469 1.125-.469t1.11.47q.452.452.452 1.109 0 .64-.453 1.109t-1.11.469zm-1.235 1.047h2.438v9.515h-2.438v-9.515zm9.134 9.671q-.703 0-1.297-.218-.594-.22-.969-.594-.875-.844-.875-2.39v-4.376h-1.672v-2.093h1.672v-2.688h2.438v2.688h2.328v2.093h-2.328v3.938q0 .719.312 1.047.266.297.906.297.344 0 .579-.094.234-.094.609-.328v2.39q-.797.328-1.703.328zm5.048-10.718q-.656 0-1.125-.47-.469-.468-.469-1.108 0-.657.47-1.11.468-.469 1.124-.469.656 0 1.11.47.453.452.453 1.109 0 .64-.453 1.109-.454.469-1.11.469zm-1.234 1.047h2.437v9.515H242.7v-9.515zm9.555 9.812q-1.484 0-2.64-.656-1.157-.672-1.797-1.813-.64-1.156-.64-2.578t.64-2.578q.64-1.156 1.797-1.812 1.156-.672 2.64-.672 1.453 0 2.61.672 1.156.656 1.796 1.812.641 1.156.641 2.578t-.64 2.578q-.641 1.14-1.797 1.813-1.157.656-2.61.656zm0-2.25q.703 0 1.297-.328.61-.344.953-.984.36-.641.36-1.485 0-.844-.36-1.469-.344-.64-.953-.968-.594-.344-1.297-.344-.719 0-1.312.344-.594.328-.97.968-.358.625-.358 1.47 0 .827.359 1.484.375.64.969.984.593.328 1.312.328zm6.911-7.562h2.297v1.187h.156q.422-.687 1.204-1.078.796-.406 1.703-.406 1.718 0 2.609 1.047.906 1.046.906 2.859v5.906h-2.453v-5.61q0-.921-.469-1.421-.468-.5-1.296-.5-1 0-1.61.766-.594.765-.594 1.921v4.844h-2.453v-9.515z"/><path fill="#38761d" d="M428.362 307.661h145.701v59.906h-145.7z" fill-rule="evenodd"/><path stroke="#274e13" stroke-linejoin="round" stroke-linecap="butt" d="M428.362 307.661h145.701v59.906h-145.7z"/><path fill="#f3f3f3" d="M468.183 331.175h2.516v13.36h-2.516v-13.36zm9.607 17.687q-1.813 0-3.016-.812-1.188-.813-1.594-1.953l2.297-.922q.297.703.906 1.11.625.421 1.407.421 1.156 0 1.828-.719.687-.703.687-2.015v-.75h-.14q-.454.64-1.188.984-.719.328-1.656.328-1.172 0-2.188-.61-1.015-.609-1.64-1.718-.61-1.11-.61-2.578 0-1.469.61-2.578.625-1.11 1.64-1.719 1.016-.61 2.188-.61.937 0 1.656.344.734.329 1.188.97h.14v-1.016h2.36v8.859q0 1.531-.61 2.64-.594 1.126-1.703 1.735-1.094.61-2.562.61zm.03-6.547q1.032 0 1.75-.718.735-.72.735-1.97 0-1.28-.719-1.983-.718-.704-1.765-.704-1.031 0-1.766.72-.734.702-.734 1.968t.734 1.984q.735.703 1.766.703zm7.22-7.296h2.297v1.187h.157q.421-.687 1.203-1.078.797-.406 1.703-.406 1.719 0 2.61 1.047.905 1.046.905 2.859v5.906h-2.453v-5.61q0-.921-.468-1.421-.47-.5-1.297-.5-1 0-1.61.766-.593.765-.593 1.921v4.844h-2.454v-9.515zm12.566-1.047q-.656 0-1.125-.47-.469-.468-.469-1.108 0-.657.47-1.11.468-.469 1.124-.469.656 0 1.11.47.453.452.453 1.109 0 .64-.453 1.109-.454.469-1.11.469zm-1.234 1.047h2.437v9.515h-2.437v-9.515zm9.133 9.671q-.703 0-1.297-.218-.593-.22-.968-.594-.875-.844-.875-2.39v-4.376h-1.672v-2.093h1.672v-2.688h2.437v2.688h2.328v2.093h-2.328v3.938q0 .719.313 1.047.265.297.906.297.344 0 .578-.094.234-.094.61-.328v2.39q-.797.328-1.704.328zm5.049-10.718q-.657 0-1.125-.47-.47-.468-.47-1.108 0-.657.47-1.11.468-.469 1.125-.469.656 0 1.109.47.453.452.453 1.109 0 .64-.453 1.109t-1.11.469zm-1.235 1.047h2.438v9.515h-2.438v-9.515zm9.556 9.812q-1.485 0-2.641-.656-1.156-.672-1.797-1.813-.64-1.156-.64-2.578t.64-2.578q.64-1.156 1.797-1.812 1.156-.672 2.64-.672 1.454 0 2.61.672 1.156.656 1.797 1.812.64 1.156.64 2.578t-.64 2.578q-.64 1.14-1.797 1.813-1.156.656-2.61.656zm0-2.25q.703 0 1.297-.328.609-.344.953-.984.359-.641.359-1.485 0-.844-.36-1.469-.343-.64-.952-.968-.594-.344-1.297-.344-.72 0-1.313.344-.594.328-.969.968-.359.625-.359 1.47 0 .827.36 1.484.374.64.968.984.594.328 1.313.328zm6.91-7.562h2.298v1.187h.156q.422-.687 1.203-1.078.797-.406 1.703-.406 1.719 0 2.61 1.047.906 1.046.906 2.859v5.906h-2.453v-5.61q0-.921-.47-1.421-.468-.5-1.296-.5-1 0-1.61.766-.593.765-.593 1.921v4.844h-2.453v-9.515z"/><path fill="#ea4335" d="M574.04 307.672h292.157v59.905H574.039z" fill-rule="evenodd"/><path stroke="#5b0f00" stroke-linejoin="round" stroke-linecap="butt" d="M574.04 307.672h292.157v59.905H574.039z"/><path fill="#f3f3f3" d="M681.508 333.576h-3.734v-2.39h9.984v2.39h-3.734v10.969h-2.516v-10.97zm11.36 11.266q-1.718 0-2.609-1.063-.89-1.062-.89-2.969v-5.78h2.437v5.483q0 .97.47 1.532.468.547 1.233.547 1.047 0 1.657-.766.61-.766.61-1.953v-4.844h2.452v9.516h-2.297v-1.188h-.156q-.422.688-1.203 1.094-.766.39-1.703.39zm7.738-9.813h2.297v1.266h.157q.359-.672 1.093-1.11.75-.437 1.641-.437.656 0 1.203.203v2.453q-.5-.187-.86-.266-.343-.093-.734-.093-1.078 0-1.718.78-.625.782-.625 1.985v4.735h-2.454v-9.516zm13.28 9.813q-.985 0-1.735-.407-.75-.406-1.125-1.03h-.156v1.14h-2.297v-13.36h2.453v3.657l-.156 1.343h.156q.39-.61 1.125-1.03.75-.423 1.734-.423 1.281 0 2.328.64 1.063.641 1.657 1.798.593 1.156.593 2.625 0 1.468-.593 2.625-.594 1.14-1.657 1.78-1.047.642-2.328.642zm-.438-2.25q.687 0 1.28-.36.61-.36.954-.984.36-.64.36-1.453 0-.828-.36-1.453-.344-.641-.953-.985-.594-.344-1.281-.344-.672 0-1.266.344t-.953.985q-.36.625-.36 1.453 0 .812.36 1.453.36.625.953.984.594.36 1.266.36zm11.46 2.25q-1.485 0-2.641-.657-1.157-.672-1.797-1.812-.64-1.156-.64-2.578t.64-2.578q.64-1.157 1.797-1.813 1.156-.672 2.64-.672 1.453 0 2.61.672 1.156.656 1.797 1.813.64 1.156.64 2.578t-.64 2.578q-.641 1.14-1.797 1.812-1.157.657-2.61.657zm0-2.25q.702 0 1.296-.329.61-.343.953-.984.36-.64.36-1.484t-.36-1.47q-.343-.64-.953-.968-.594-.344-1.297-.344-.718 0-1.312.344-.594.328-.969.969-.36.625-.36 1.469 0 .828.36 1.484.375.64.969.984.594.329 1.312.329zm7.254-11.407h8.469v2.39h-5.953v3.25h5.36v2.392h-5.36v5.328h-2.516v-13.36zm13.268 13.657q-1.515 0-2.484-.875-.969-.891-.969-2.329 0-.953.5-1.671.5-.735 1.375-1.125.89-.391 1.953-.391 1.469 0 2.516.422v-.406q0-.782-.594-1.266-.578-.484-1.578-.484-.672 0-1.297.312-.625.297-1.031.797l-1.563-1.234q.688-.891 1.735-1.375 1.047-.485 2.265-.485 2.188 0 3.329 1.016 1.14 1 1.14 2.937v5.86h-2.406v-.97h-.156q-.422.563-1.125.923-.703.344-1.61.344zm.578-1.907q1.063 0 1.688-.672.625-.687.625-1.593-.953-.453-2-.453-1.906 0-1.906 1.421 0 .579.406.938.422.36 1.187.36zm6.967-7.906h2.296v1.188h.157q.422-.688 1.203-1.079.797-.406 1.703-.406 1.719 0 2.61 1.047.906 1.047.906 2.86v5.906h-2.454v-5.61q0-.922-.468-1.422-.469-.5-1.297-.5-1 0-1.61.766-.593.766-.593 1.922v4.844h-2.453v-9.516z"/><path fill="#673ab7" d="M440.33 189.49h133.733v59.906H440.331z" fill-rule="evenodd"/><path stroke="#351c75" stroke-linejoin="round" stroke-linecap="butt" d="M440.33 189.49h133.733v59.906H440.331z"/><path fill="#f3f3f3" d="M468.587 204.395h-3.734v-2.39h9.984v2.39h-3.734v10.969h-2.516v-10.97zm11.36 11.265q-1.718 0-2.609-1.062-.89-1.063-.89-2.969v-5.781h2.437v5.484q0 .97.469 1.532.469.546 1.234.546 1.047 0 1.657-.765.609-.766.609-1.953v-4.844h2.453v9.516h-2.297v-1.188h-.156q-.422.688-1.203 1.094-.766.39-1.703.39zm7.738-9.812h2.297v1.266h.156q.36-.672 1.094-1.11.75-.437 1.64-.437.657 0 1.204.203v2.453q-.5-.188-.86-.266-.343-.093-.734-.093-1.078 0-1.719.78-.625.782-.625 1.985v4.735h-2.453v-9.516zm13.279 9.812q-.984 0-1.734-.406t-1.125-1.031h-.157v1.14h-2.297v-13.359h2.454v3.656l-.157 1.344h.157q.39-.61 1.125-1.031.75-.422 1.734-.422 1.281 0 2.328.64 1.063.641 1.656 1.798.594 1.156.594 2.625 0 1.468-.594 2.625-.593 1.14-1.656 1.78-1.047.641-2.328.641zm-.438-2.25q.688 0 1.282-.359.61-.36.953-.984.36-.64.36-1.453 0-.829-.36-1.454-.344-.64-.953-.984-.594-.344-1.282-.344-.671 0-1.265.344-.594.344-.953.984-.36.625-.36 1.454 0 .812.36 1.453.36.625.953.984.594.36 1.265.36zm11.46 2.25q-1.484 0-2.64-.656-1.157-.672-1.797-1.812-.641-1.157-.641-2.578 0-1.422.64-2.579.641-1.156 1.797-1.812 1.157-.672 2.641-.672 1.453 0 2.61.672 1.156.656 1.796 1.812.64 1.157.64 2.579 0 1.421-.64 2.578-.64 1.14-1.797 1.812-1.156.656-2.609.656zm0-2.25q.703 0 1.297-.328.61-.343.953-.984.36-.64.36-1.484t-.36-1.47q-.344-.64-.953-.968-.594-.344-1.297-.344-.719 0-1.312.344-.594.328-.97.969-.359.625-.359 1.469 0 .828.36 1.484.375.64.969.984.593.328 1.312.328zm7.255-11.406h8.469v2.39h-5.953v3.25h5.359v2.391h-5.36v5.329h-2.515v-13.36zm13.268 13.656q-1.516 0-2.484-.875-.97-.89-.97-2.328 0-.953.5-1.672.5-.734 1.376-1.125.89-.39 1.953-.39 1.469 0 2.516.422v-.407q0-.78-.594-1.265-.578-.485-1.578-.485-.672 0-1.297.313-.625.297-1.031.797l-1.563-1.235q.688-.89 1.735-1.375 1.046-.484 2.265-.484 2.188 0 3.328 1.016 1.14 1 1.14 2.937v5.86H535.4v-.97h-.157q-.421.563-1.125.923-.703.343-1.609.343zm.578-1.906q1.063 0 1.688-.672.625-.687.625-1.593-.953-.454-2-.454-1.907 0-1.907 1.422 0 .578.407.938.422.36 1.187.36zm6.966-7.906h2.297v1.187h.156q.422-.687 1.204-1.078.796-.406 1.703-.406 1.718 0 2.61 1.047.905 1.047.905 2.86v5.906h-2.453v-5.61q0-.922-.469-1.422-.468-.5-1.296-.5-1 0-1.61.766-.594.766-.594 1.922v4.844h-2.453v-9.516zm9.988 9.516zM469.59 237.66q-1.485 0-2.64-.656-1.157-.672-1.798-1.812-.64-1.157-.64-2.578 0-1.422.64-2.579.64-1.156 1.797-1.812 1.156-.672 2.64-.672 1.454 0 2.61.672 1.156.656 1.797 1.812.64 1.157.64 2.579 0 1.421-.64 2.578-.64 1.14-1.797 1.812-1.156.656-2.61.656zm0-2.25q.703 0 1.297-.328.609-.343.953-.984.36-.64.36-1.484t-.36-1.47q-.344-.64-.953-.968-.594-.344-1.297-.344-.719 0-1.313.344-.594.328-.969.969-.359.625-.359 1.469 0 .828.36 1.484.374.64.968.984.594.328 1.313.328zm6.848-7.562h2.297v1.156h.14q.391-.61 1.141-1.031.75-.422 1.72-.422 1.28 0 2.327.64 1.063.641 1.657 1.798.593 1.156.593 2.625 0 1.468-.593 2.625-.594 1.14-1.657 1.78-1.047.641-2.328.641-.969 0-1.734-.406-.75-.406-1.125-1.031h-.14l.14 1.344v3.828h-2.438v-13.547zm4.86 7.562q.687 0 1.28-.359.61-.36.954-.984.36-.64.36-1.453 0-.829-.36-1.454-.344-.64-.953-.984-.594-.344-1.281-.344-.672 0-1.266.344t-.953.984q-.344.625-.344 1.454 0 .812.344 1.453.36.625.953.984.594.36 1.266.36zm11.04 2.11q-.702 0-1.296-.219-.594-.219-.969-.594-.875-.843-.875-2.39v-4.375h-1.672v-2.094h1.672v-2.688h2.438v2.688h2.328v2.094h-2.328v3.937q0 .719.312 1.047.266.297.907.297.343 0 .578-.094.234-.094.61-.328v2.39q-.798.329-1.704.329zm5.05-10.719q-.657 0-1.126-.469-.469-.468-.469-1.109 0-.656.47-1.11.468-.468 1.124-.468.656 0 1.11.469.453.453.453 1.109 0 .64-.453 1.11-.454.468-1.11.468zm-1.235 1.047h2.437v9.516h-2.437v-9.516zm4.993 0h2.297v1.187h.156q.437-.687 1.187-1.078.766-.406 1.703-.406 1 0 1.75.484.75.47 1.063 1.188.469-.734 1.281-1.203.813-.469 1.907-.469 1.625 0 2.468 1 .86 1 .86 2.688v6.125h-2.422v-5.672q0-.89-.422-1.375t-1.172-.485q-.953 0-1.531.75-.563.75-.563 1.985v4.797h-2.437v-5.672q0-.89-.438-1.375-.437-.485-1.234-.485-.906 0-1.453.75t-.547 1.985v4.797h-2.453v-9.516zm18.386-1.047q-.656 0-1.125-.469-.469-.468-.469-1.109 0-.656.47-1.11.468-.468 1.124-.468.656 0 1.11.469.453.453.453 1.109 0 .64-.453 1.11-.454.468-1.11.468zm-1.234 1.047h2.437v9.516h-2.437v-9.516zm4.508 7.516l4.97-5.438h-4.813v-2.078h7.812v2l-4.953 5.437h5.11v2.079h-8.126v-2zm14.487 2.296q-1.422 0-2.563-.64-1.14-.656-1.781-1.797-.64-1.156-.64-2.594 0-1.36.624-2.531.641-1.172 1.75-1.86 1.125-.687 2.516-.687 1.469 0 2.531.64 1.063.626 1.61 1.735.562 1.094.562 2.438 0 .421-.062.828h-7.141q.188 1.125.906 1.718.719.594 1.719.594.844 0 1.453-.36.61-.374.953-.984l1.985.97q-1.453 2.53-4.422 2.53zm2.25-6.203q-.031-.453-.328-.89-.282-.438-.797-.72-.516-.296-1.203-.296-.875 0-1.5.516-.625.5-.907 1.39h4.735zm4.232-3.609h2.297v1.266h.156q.36-.672 1.094-1.11.75-.437 1.64-.437.657 0 1.204.203v2.453q-.5-.188-.86-.266-.343-.093-.734-.093-1.078 0-1.719.78-.625.782-.625 1.985v4.735h-2.453v-9.516z"/><path fill="#673ab7" d="M323.733 307.661h104.63v59.906h-104.63z" fill-rule="evenodd"/><path stroke="#351c75" stroke-linejoin="round" stroke-linecap="butt" d="M323.733 307.661h104.63v59.906h-104.63z"/><path fill="#f3f3f3" d="M337.438 322.565h-3.734v-2.39h9.984v2.39h-3.734v10.97h-2.516v-10.97zm11.36 11.266q-1.718 0-2.609-1.062-.89-1.063-.89-2.97v-5.78h2.437v5.484q0 .969.469 1.531.469.547 1.234.547 1.047 0 1.657-.766.609-.765.609-1.953v-4.843h2.453v9.515h-2.297v-1.187h-.156q-.422.687-1.203 1.093-.766.391-1.703.391zm7.738-9.812h2.297v1.265h.156q.36-.672 1.094-1.11.75-.437 1.64-.437.657 0 1.204.203v2.454q-.5-.188-.86-.266-.343-.094-.734-.094-1.078 0-1.719.781-.625.782-.625 1.985v4.734h-2.453v-9.515zm13.28 9.812q-.985 0-1.735-.406-.75-.406-1.125-1.031h-.157v1.14h-2.296v-13.36h2.453v3.657l-.157 1.344h.157q.39-.61 1.125-1.031.75-.422 1.734-.422 1.281 0 2.328.64 1.063.64 1.656 1.797.594 1.156.594 2.625t-.594 2.625q-.593 1.14-1.656 1.781-1.047.641-2.328.641zm-.438-2.25q.687 0 1.28-.36.61-.359.954-.984.36-.64.36-1.453 0-.828-.36-1.453-.344-.64-.953-.984-.594-.344-1.281-.344-.672 0-1.266.344-.594.343-.953.984-.36.625-.36 1.453 0 .813.36 1.453.36.625.953.985.594.36 1.266.36zm11.46 2.25q-1.485 0-2.641-.656-1.157-.672-1.797-1.813-.641-1.156-.641-2.578t.64-2.578q.641-1.156 1.798-1.812 1.156-.672 2.64-.672 1.453 0 2.61.672 1.156.656 1.796 1.812.641 1.156.641 2.578t-.64 2.578q-.641 1.14-1.797 1.813-1.157.656-2.61.656zm0-2.25q.702 0 1.296-.328.61-.344.953-.984.36-.641.36-1.485 0-.844-.36-1.469-.344-.64-.953-.968-.594-.344-1.297-.344-.719 0-1.312.344-.594.328-.97.968-.358.625-.358 1.47 0 .827.359 1.484.375.64.969.984.593.328 1.312.328zm7.254-11.406h8.469v2.39h-5.953v3.25h5.359v2.391h-5.36v5.328h-2.515v-13.36zm13.268 13.656q-1.515 0-2.484-.875-.969-.89-.969-2.328 0-.953.5-1.672.5-.734 1.375-1.125.89-.39 1.953-.39 1.469 0 2.516.421v-.406q0-.781-.594-1.266-.578-.484-1.578-.484-.672 0-1.297.313-.625.296-1.031.796l-1.563-1.234q.688-.89 1.735-1.375 1.047-.484 2.265-.484 2.188 0 3.328 1.015 1.141 1 1.141 2.938v5.86h-2.406v-.97h-.156q-.422.563-1.125.922-.704.344-1.61.344zm.578-1.906q1.063 0 1.688-.672.625-.688.625-1.594-.953-.453-2-.453-1.906 0-1.906 1.422 0 .578.406.937.422.36 1.187.36zm6.966-7.906h2.297v1.187h.157q.421-.687 1.203-1.078.797-.406 1.703-.406 1.719 0 2.61 1.047.905 1.046.905 2.859v5.906h-2.453v-5.61q0-.921-.468-1.421-.47-.5-1.297-.5-1 0-1.61.766-.593.765-.593 1.921v4.844h-2.454v-9.515zm9.988 9.515zM338.258 348.112h-1.703v-2.093h1.703v-.516q0-1.625.97-2.547.968-.922 2.546-.922.89 0 1.547.203v2.39q-.36-.155-.64-.233-.266-.079-.61-.079-.625 0-1 .36-.36.36-.36.969v.375h2.329v2.093h-2.328v7.422h-2.454v-7.422zm6.674-2.093h2.297v1.265h.156q.36-.672 1.094-1.11.75-.437 1.64-.437.657 0 1.204.203v2.454q-.5-.188-.86-.266-.343-.094-.734-.094-1.078 0-1.719.781-.625.782-.625 1.985v4.734h-2.453v-9.515zm12.529 9.812q-1.484 0-2.64-.656-1.157-.672-1.798-1.813-.64-1.156-.64-2.578t.64-2.578q.641-1.156 1.797-1.812 1.157-.672 2.64-.672 1.454 0 2.61.672 1.157.656 1.797 1.812.64 1.156.64 2.578t-.64 2.578q-.64 1.14-1.797 1.813-1.156.656-2.61.656zm0-2.25q.703 0 1.297-.328.61-.344.953-.984.36-.641.36-1.485 0-.844-.36-1.469-.344-.64-.953-.968-.594-.344-1.297-.344-.719 0-1.313.344-.593.328-.968.968-.36.625-.36 1.47 0 .827.36 1.484.375.64.968.984.594.328 1.313.328zm6.911-7.562h2.297v1.187h.156q.422-.687 1.203-1.078.797-.406 1.703-.406 1.72 0 2.61 1.047.906 1.046.906 2.859v5.906h-2.453v-5.61q0-.921-.469-1.421t-1.297-.5q-1 0-1.61.766-.593.765-.593 1.921v4.844h-2.453v-9.515zm15.316 9.671q-.703 0-1.297-.218-.594-.22-.969-.594-.875-.844-.875-2.39v-4.376h-1.672v-2.093h1.672v-2.688h2.438v2.688h2.328v2.093h-2.328v3.938q0 .719.312 1.047.266.297.906.297.344 0 .578-.094.235-.094.61-.328v2.39q-.797.328-1.703.328zm8.126.141q-1.422 0-2.562-.64-1.141-.657-1.782-1.797-.64-1.157-.64-2.594 0-1.36.625-2.531.64-1.172 1.75-1.86 1.125-.687 2.515-.687 1.47 0 2.532.64 1.062.625 1.609 1.735.563 1.093.563 2.437 0 .422-.063.828h-7.14q.187 1.125.906 1.719.718.594 1.718.594.844 0 1.454-.36.609-.375.953-.984l1.984.969q-1.453 2.531-4.422 2.531zm2.25-6.203q-.031-.453-.328-.89-.281-.438-.797-.72-.515-.296-1.203-.296-.875 0-1.5.515-.625.5-.906 1.39h4.734zm4.233-3.61h2.296v1.188h.157q.422-.687 1.203-1.078.797-.406 1.703-.406 1.719 0 2.61 1.047.906 1.046.906 2.859v5.906h-2.454v-5.61q0-.921-.468-1.421-.469-.5-1.297-.5-1 0-1.61.766-.593.765-.593 1.921v4.844h-2.453v-9.515zm15.268 9.813q-1.28 0-2.343-.64-1.047-.641-1.657-1.782-.609-1.156-.609-2.625t.61-2.625q.609-1.156 1.656-1.797 1.062-.64 2.343-.64.97 0 1.72.422.75.421 1.14 1.03h.14l-.14-1.343v-3.656h2.422v13.36h-2.282v-1.141h-.14q-.375.625-1.14 1.03-.75.407-1.72.407zm.407-2.25q.687 0 1.281-.36.61-.359.953-.984.36-.64.36-1.453 0-.828-.36-1.453-.344-.64-.953-.984-.594-.344-1.281-.344-.672 0-1.266.344-.594.343-.953.984-.36.625-.36 1.453 0 .813.36 1.453.36.625.953.985.594.36 1.266.36z"/><path fill="none" d="M429.601 305.2l12.315-50.867"/><path stroke="#351c75" stroke-width="2" stroke-linejoin="round" stroke-linecap="butt" d="M429.601 305.2l9.491-39.204"/><path fill="#351c75" stroke="#351c75" stroke-width="2" stroke-linecap="butt" d="M442.303 266.774l-1.075-9.599-5.346 8.044z" fill-rule="evenodd"/><path fill="none" d="M573.22 252.677l1.637 50.047"/><path stroke="#351c75" stroke-width="2" stroke-linejoin="round" stroke-linecap="butt" d="M573.22 252.677l1.245 38.054"/><path fill="#351c75" stroke="#351c75" stroke-width="2" stroke-linecap="butt" d="M571.163 290.839l3.599 8.963 3.005-9.18z" fill-rule="evenodd"/><path fill="none" d="M268.75 395.47l109.922.063v28.252l-109.921-.063z"/><path fill="#666" d="M304.98 408.274q-.579 0-.985-.407-.406-.406-.406-.985 0-.28.094-.515.093-.235.312-.531l1.39-2.078.938.626-.812 1.25q.375.14.61.469.233.328.233.781 0 .578-.406.984-.39.406-.969.406zm3.5.002q-.579 0-.985-.407t-.406-.985q0-.28.094-.515.093-.235.312-.531l1.39-2.078.938.626-.812 1.25q.375.14.61.469.233.328.233.781 0 .578-.406.984-.39.406-.969.406zm3.183-4.248h2.093v2.891l-.14 1.422h.14q.344-.578 1.016-.921.672-.359 1.453-.359 1.5.001 2.281.892.797.892.797 2.454v5.078l-2.094-.001v-4.813q0-.78-.421-1.219-.422-.437-1.125-.438-.844 0-1.375.671-.532.672-.532 1.656v4.141l-2.093-.001v-11.453zm13.522 11.71q-1.265 0-2.25-.563-.984-.563-1.547-1.548-.547-.985-.547-2.22 0-1.218.547-2.202.563-1 1.547-1.562.985-.577 2.25-.576 1.25 0 2.235.579 1 .563 1.546 1.563.563.985.563 2.204 0 1.234-.563 2.218-.546.984-1.546 1.546-.985.562-2.235.561zm0-1.937q.61 0 1.125-.28.516-.282.813-.828.312-.547.312-1.281 0-.72-.312-1.266-.297-.547-.813-.829-.515-.297-1.125-.297t-1.125.296q-.5.281-.812.828-.313.546-.313 1.265 0 .719.313 1.282.312.547.812.828.516.282 1.125.282zm9.496 1.818q-.609 0-1.125-.173-.515-.187-.828-.516-.75-.719-.75-2.047v-3.766h-1.422v-1.782l1.422.001v-2.312h2.094v2.313l2 .001v1.782l-2-.001v3.39q0 .61.266.891.234.25.78.25.298 0 .5-.077.204-.078.517-.266v2.047q-.688.265-1.454.265zm2.907-7.952l.922-1.233q-.422-.11-.687-.454-.266-.36-.266-.797 0-.578.406-.984.406-.422.985-.421.578 0 .968.422.407.407.407.985 0 .28-.094.515t-.297.531l-1.39 2.062-.954-.626zm3.5.002l.922-1.233q-.422-.11-.687-.454-.266-.36-.266-.797 0-.578.406-.984.422-.422.985-.421.578 0 .984.422.406.407.406.985 0 .281-.11.515-.093.235-.296.531l-1.39 2.062-.954-.626z"/><path fill="none" d="M125.42 391.365v-275.15"/><path stroke="#666" stroke-width="2" stroke-linejoin="round" stroke-linecap="butt" d="M125.42 391.365v-263.15"/><path fill="#666" stroke="#666" stroke-width="2" stroke-linecap="butt" d="M128.723 128.215l-3.303-9.076-3.304 9.076z" fill-rule="evenodd"/><path fill="none" d="M125.134 390.336l755.59-1.165"/><path stroke="#666" stroke-width="2" stroke-linejoin="round" stroke-linecap="butt" d="M125.134 390.336l743.59-1.147"/><path fill="#666" stroke="#666" stroke-width="2" stroke-linecap="butt" d="M868.73 392.493l9.07-3.318-9.08-3.29z" fill-rule="evenodd"/></g></svg>