<svg viewBox="0 0 960 540" fill="none" stroke-linecap="square" stroke-miterlimit="10" xmlns="http://www.w3.org/2000/svg"><clipPath id="a"><path d="M0 0h960v540H0V0z"/></clipPath><g clip-path="url(#a)"><path fill="#fff" d="M0 0h960v540H0z" fill-rule="evenodd"/><path fill="#ff9800" d="M523.79 364.957c0-6.283 5.093-11.376 11.376-11.376h142.067a11.375 11.375 0 0 1 11.376 11.376v45.5c0 6.283-5.093 11.376-11.376 11.376H535.166c-6.283 0-11.376-5.093-11.376-11.375z" fill-rule="evenodd"/><path stroke="#666" stroke-linejoin="round" stroke-linecap="butt" d="M523.79 364.957c0-6.283 5.093-11.376 11.376-11.376h142.067a11.375 11.375 0 0 1 11.376 11.376v45.5c0 6.283-5.093 11.376-11.376 11.376H535.166c-6.283 0-11.376-5.093-11.376-11.375z"/><path fill="#fff" d="M577.755 392.354q0-.5-.187-.937-.172-.453-.594-.828-.422-.391-1.11-.704-.671-.328-1.687-.593-1.234-.344-2.359-.844-1.125-.516-1.984-1.219-.86-.719-1.375-1.672-.516-.953-.516-2.187 0-1.203.5-2.172.516-.984 1.406-1.672.906-.687 2.125-1.062 1.219-.375 2.656-.375 1.485 0 2.704.437 1.234.422 2.125 1.203.89.781 1.375 1.844.5 1.062.5 2.344h-3.563q-.031-.64-.234-1.172-.203-.531-.61-.906-.39-.391-.984-.61-.578-.219-1.375-.219-.734 0-1.297.188-.562.172-.953.484-.39.313-.594.75-.203.438-.203.953 0 .532.266.97.265.421.765.765.516.344 1.235.64.718.282 1.64.516 1.297.39 2.391.938 1.094.546 1.875 1.296.797.735 1.234 1.704.438.953.438 2.125 0 1.25-.516 2.218-.5.97-1.39 1.641-.875.672-2.094 1.016-1.219.343-2.672.343-.89 0-1.781-.172-.89-.156-1.719-.484-.813-.344-1.516-.844-.703-.515-1.218-1.187-.5-.688-.797-1.547-.297-.86-.297-1.906h3.594q.03.86.297 1.484.28.61.765 1t1.172.578q.688.172 1.5.172.734 0 1.297-.172.562-.172.953-.469.39-.296.594-.718.218-.422.218-.938zm9.903-7.187q.703-1.032 1.703-1.61 1.016-.593 2.266-.593 1.11 0 2.031.343.922.328 1.578 1.032.672.687 1.047 1.796.375 1.094.375 2.641v8.531h-3.625v-8.547q0-.765-.187-1.312-.188-.547-.547-.875-.344-.344-.844-.5-.484-.172-1.11-.172-.921 0-1.593.328-.656.328-1.094.906v10.172h-3.625v-20h3.625v7.86zm21.184 12.14q-.14-.265-.234-.593-.079-.344-.157-.72-.297.329-.687.61-.39.281-.875.5-.469.219-1.047.344-.563.125-1.219.125-1.078 0-1.984-.313-.906-.312-1.563-.875-.656-.562-1.015-1.328-.36-.78-.36-1.687 0-2.235 1.657-3.453 1.656-1.219 4.953-1.219h2.015v-.828q0-1.016-.672-1.61-.656-.593-1.906-.593-1.11 0-1.625.484-.5.469-.5 1.266h-3.61q0-.907.391-1.703.407-.813 1.157-1.422.765-.61 1.86-.969 1.108-.36 2.53-.36 1.266 0 2.36.313 1.11.313 1.906.922.812.61 1.266 1.547.468.922.468 2.156v6.031q0 1.141.14 1.891.142.734.407 1.266v.218h-3.656zm-3.453-2.53q.547 0 1.015-.126.47-.14.844-.344.375-.218.64-.484.282-.266.438-.531v-2.422h-1.843q-.844 0-1.454.156-.593.156-.968.453-.375.297-.563.703-.187.407-.187.891 0 .734.515 1.219.516.484 1.563.484zm23.293-4.376q0 1.531-.36 2.844-.359 1.312-1.062 2.281-.687.953-1.719 1.5-1.015.547-2.343.547-1.141 0-2-.39-.86-.391-1.5-1.094v6.64h-3.61v-19.5h3.344l.125 1.375q.656-.781 1.531-1.203.89-.437 2.078-.437 1.344 0 2.36.515 1.031.516 1.734 1.469.703.937 1.063 2.266.359 1.312.359 2.906v.281zm-3.61-.281q0-.875-.171-1.656-.156-.782-.5-1.344-.344-.563-.89-.89-.548-.329-1.313-.329-.953 0-1.563.375-.594.375-.937 1.047v5.89q.343.657.937 1.063.61.39 1.594.39.766 0 1.297-.327.547-.344.89-.922.344-.594.5-1.375.157-.782.157-1.64v-.282zm13.794 7.453q-1.625 0-2.953-.531-1.328-.547-2.281-1.453-.954-.922-1.47-2.157-.515-1.25-.515-2.672v-.515q0-1.625.5-2.953.516-1.328 1.422-2.297.922-.969 2.172-1.5t2.719-.531q1.515 0 2.703.5 1.203.5 2.031 1.421.828.907 1.25 2.188.438 1.281.438 2.828v1.531h-9.563q.11.72.422 1.313.328.594.812 1.031.5.422 1.141.656.64.235 1.39.235.532 0 1.063-.094.531-.11 1-.313.485-.203.906-.5.422-.312.735-.703l1.797 1.953q-.328.47-.875.938-.532.469-1.282.828-.734.344-1.64.563-.89.234-1.922.234zm-.438-11.688q-.609 0-1.125.22-.5.218-.89.624-.375.406-.64.969-.25.547-.391 1.234h5.937v-.28q-.016-.579-.219-1.079-.187-.516-.562-.875-.36-.375-.89-.594-.532-.219-1.22-.219z"/><path fill="#bdbdbd" d="M534.798 422.012H677.38v59.716H534.798z" fill-rule="evenodd"/><path stroke="#666" stroke-linejoin="round" stroke-linecap="butt" d="M534.798 422.012H677.38v59.716H534.798z"/><path fill="#000" d="M592.142 443.707l-.25 4.312h-1.61v-5.609h1.86v1.297zm14.027 8.719l3.39-4.704h2.532l-4.719 6.282 4.86 6.406h-2.516l-3.5-4.828-3.5 4.828h-2.531l4.843-6.406-4.718-6.282h2.5l3.359 4.704zm14.777-8.72l-.25 4.313h-1.609v-5.609h1.86v1.297z"/><path fill="#34a853" d="M271.391 384.655c0-6.282 5.093-11.375 11.376-11.375h166.225a11.376 11.376 0 0 1 11.375 11.375v45.501c0 6.282-5.093 11.376-11.375 11.376H282.767c-6.283 0-11.376-5.094-11.376-11.376z" fill-rule="evenodd"/><path stroke="#666" stroke-linejoin="round" stroke-linecap="butt" d="M271.391 384.655c0-6.282 5.093-11.375 11.376-11.375h166.225a11.376 11.376 0 0 1 11.375 11.375v45.501c0 6.282-5.093 11.376-11.375 11.376H282.767c-6.283 0-11.376-5.094-11.376-11.376z"/><path fill="#fff" d="M312.534 387.052h3.657l.015 13.141q-.015 1.344-.515 2.469-.5 1.11-1.375 1.922-.86.797-2.047 1.25-1.172.437-2.531.437-1.422 0-2.594-.36-1.172-.374-2.016-1.093-.844-.719-1.312-1.812-.469-1.094-.485-2.579h3.672q.016 1.532.672 2.22.672.671 2.063.671.625 0 1.14-.234.531-.235.89-.657.376-.421.563-1 .203-.578.203-1.234v-13.14zm16.903 14q0-.5-.187-.937-.172-.453-.594-.828-.422-.39-1.11-.703-.671-.328-1.687-.594-1.234-.344-2.36-.844-1.124-.515-1.984-1.219-.86-.718-1.375-1.671-.515-.954-.515-2.188 0-1.203.5-2.172.515-.984 1.406-1.672.906-.687 2.125-1.062 1.219-.375 2.656-.375 1.484 0 2.703.437 1.235.422 2.125 1.203.89.782 1.375 1.844.5 1.063.5 2.344h-3.562q-.032-.64-.235-1.172-.203-.531-.609-.906-.39-.39-.984-.61-.579-.218-1.375-.218-.735 0-1.297.187-.563.172-.953.485-.391.312-.594.75-.203.437-.203.953 0 .53.265.968.266.422.766.766.516.344 1.234.64.72.282 1.641.516 1.297.39 2.39.938 1.094.547 1.876 1.297.796.734 1.234 1.703.437.953.437 2.125 0 1.25-.515 2.219-.5.968-1.39 1.64-.876.672-2.095 1.016-1.218.344-2.671.344-.891 0-1.782-.172-.89-.157-1.718-.485-.813-.343-1.516-.843-.703-.516-1.219-1.188-.5-.687-.797-1.547-.297-.86-.297-1.906h3.594q.031.86.297 1.484.281.61.766 1 .484.39 1.172.578.687.172 1.5.172.734 0 1.296-.172.563-.171.954-.468.39-.297.593-.72.22-.421.22-.937zm19.371-3.125q0 1.813-.484 3.36-.469 1.531-1.39 2.64-.907 1.11-2.22 1.735-1.296.61-2.937.61-1.64 0-2.922-.61-1.265-.625-2.14-1.735-.875-1.125-1.328-2.656-.454-1.531-.454-3.344v-2.765q0-1.828.454-3.36.453-1.53 1.328-2.64.875-1.125 2.14-1.75 1.266-.625 2.907-.625 1.656 0 2.953.625 1.312.625 2.218 1.75.922 1.11 1.391 2.64.484 1.532.484 3.36v2.765zm-3.703-2.796q0-1.157-.187-2.125-.188-.985-.594-1.688-.406-.703-1.047-1.094-.625-.39-1.515-.39-.891 0-1.485.39-.594.39-.969 1.094-.359.703-.515 1.688-.156.968-.156 2.125v2.796q0 1.141.156 2.125.156.97.515 1.688.375.719.97 1.125.593.39 1.5.39.874 0 1.5-.39.64-.406 1.03-1.11.407-.718.594-1.687.203-.984.203-2.14v-2.797zm19.31 3.984q0 1.562-.36 2.89-.344 1.313-1.031 2.266-.688.938-1.72 1.469-1.015.531-2.39.531-1.234 0-2.14-.453-.907-.469-1.547-1.312l-.172 1.5h-3.266v-20h3.625v7.187q.625-.719 1.469-1.125.86-.406 2-.406 1.39 0 2.422.531 1.031.531 1.719 1.484.687.954 1.03 2.282.36 1.312.36 2.875v.28zm-3.626-.281q0-.86-.14-1.625-.125-.766-.438-1.344-.312-.578-.86-.922-.546-.344-1.374-.344-.985 0-1.61.422-.61.422-.953 1.14v5.61q.344.735.953 1.156.625.407 1.64.407.813 0 1.345-.313.547-.328.859-.89.313-.563.438-1.329.14-.78.14-1.687v-.281zm9.09-6.907h7.203v14.407q0 1.406-.406 2.406-.39 1.016-1.172 1.672-.765.656-1.875.969-1.093.312-2.515.312-.594 0-1.188-.047t-1.14-.172l.171-2.937q.157.031.438.062.281.032.578.047.297.031.563.031.265.016.39.016.531 0 .985-.125.468-.11.796-.39.329-.266.516-.72.203-.452.203-1.124V394.88h-3.547v-2.954zm3.297-3.609q0-.422.14-.781.157-.36.423-.61.28-.25.656-.39.39-.14.86-.14.952 0 1.515.546.578.531.578 1.375t-.578 1.39q-.563.532-1.516.532-.468 0-.86-.14-.374-.141-.655-.391-.266-.266-.422-.61-.14-.36-.14-.781zm17.371 17.953q-1.625 0-2.953-.531-1.328-.547-2.28-1.453-.954-.922-1.47-2.156-.515-1.25-.515-2.672v-.516q0-1.625.5-2.953.515-1.328 1.422-2.297.921-.969 2.171-1.5 1.25-.531 2.72-.531 1.515 0 2.702.5 1.203.5 2.032 1.422.828.906 1.25 2.187.437 1.281.437 2.828v1.532h-9.562q.109.718.421 1.312.329.594.813 1.031.5.422 1.14.657.641.234 1.391.234.531 0 1.063-.094.531-.11 1-.312.484-.203.906-.5.422-.313.734-.703l1.797 1.953q-.328.468-.875.937-.531.469-1.281.828-.734.344-1.64.563-.891.234-1.923.234zm-.437-11.687q-.61 0-1.125.218-.5.22-.89.625-.376.407-.641.97-.25.546-.39 1.234H393v-.282q-.016-.578-.22-1.078-.187-.515-.562-.875-.359-.375-.89-.594-.532-.218-1.219-.218zm15.824 8.797q.547 0 1.016-.157.484-.156.844-.437.375-.297.578-.703.203-.407.172-.891h3.406q.031 1.094-.453 2.031-.469.938-1.297 1.61-.812.672-1.906 1.062-1.078.375-2.281.375-1.641 0-2.891-.547-1.234-.547-2.063-1.515-.812-.97-1.25-2.25-.421-1.297-.421-2.782v-.39q0-1.485.421-2.781.422-1.297 1.25-2.25.829-.97 2.063-1.532 1.234-.562 2.86-.562 1.296 0 2.406.39 1.109.391 1.906 1.11.797.703 1.234 1.719.453 1 .422 2.25h-3.406q.031-.516-.156-.985-.188-.469-.547-.812-.344-.344-.844-.547-.484-.203-1.063-.203-.859 0-1.421.359-.563.344-.891.938-.328.578-.469 1.343-.14.75-.14 1.563v.39q0 .813.125 1.579.14.765.468 1.343t.891.938q.578.344 1.437.344zm16.403-14.907v3.453h5.266v2.657h-5.266v6.062q0 .766.172 1.281.187.516.5.829.328.296.797.437.469.125 1.031.125.422 0 .86-.031.437-.047.828-.11.406-.062.75-.125.343-.062.578-.125l.36 2.485q-.376.219-.892.39-.5.157-1.078.25-.562.11-1.187.157-.625.062-1.219.062-1.156 0-2.11-.297-.937-.312-1.609-.953-.672-.64-1.03-1.64-.36-1-.36-2.391v-6.406h-3.219v-2.657h3.219v-3.453h3.61zM352.82 430.325v-7.984h-2.593v-1.875h2.593v-.531q0-.985.313-1.719.312-.75.875-1.266.578-.515 1.39-.765.829-.266 1.844-.266.313 0 .61.031.296.016.578.063.28.031.562.078.297.047.61.094l-.172 1.984q-.344-.062-.782-.11-.437-.062-1.03-.062-1.188 0-1.72.5-.53.5-.53 1.438v.531h3.546v1.875h-3.547v7.984h-2.547zm8.399-5.015q0-1.078.312-1.985.313-.921.907-1.593.593-.688 1.453-1.063.86-.375 1.969-.375 1.125 0 1.984.375.86.375 1.453 1.063.61.672.906 1.593.313.907.313 1.985v.187q0 1.078-.313 2-.297.922-.89 1.594-.594.672-1.469 1.047-.86.375-1.953.375-1.125 0-2-.375-.86-.375-1.453-1.047-.594-.672-.907-1.594-.312-.922-.312-2v-.187zm2.531.187q0 .625.11 1.172.125.531.375.938.265.406.671.64.407.235.985.235.547 0 .937-.235.407-.234.657-.64.25-.407.375-.938.125-.547.125-1.172v-.187q0-.61-.125-1.14-.125-.548-.375-.954-.25-.406-.657-.64-.39-.235-.968-.235-.563 0-.97.234-.39.235-.655.641-.25.406-.375.953-.11.531-.11 1.14v.188zm8.665-.187q0-1.078.312-1.985.313-.921.906-1.593.594-.688 1.453-1.063.86-.375 1.97-.375 1.124 0 1.984.375.859.375 1.453 1.063.609.672.906 1.593.312.907.312 1.985v.187q0 1.078-.312 2-.297.922-.89 1.594-.594.672-1.47 1.047-.859.375-1.953.375-1.125 0-2-.375-.859-.375-1.453-1.047-.593-.672-.906-1.594-.312-.922-.312-2v-.187zm2.53.187q0 .625.11 1.172.125.531.375.938.266.406.672.64.406.235.984.235.547 0 .938-.235.406-.234.656-.64.25-.407.375-.938.125-.547.125-1.172v-.187q0-.61-.125-1.14-.125-.548-.375-.954-.25-.406-.656-.64-.39-.235-.969-.235-.562 0-.969.234-.39.235-.656.641-.25.406-.375.953-.11.531-.11 1.14v.188z"/><path fill="#bdbdbd" d="M284.012 441.709h163.496v59.716H284.012z" fill-rule="evenodd"/><path stroke="#666" stroke-linejoin="round" stroke-linecap="butt" d="M284.012 441.709h163.496v59.716H284.012z"/><path fill="#000" d="M344.127 464.357v3.063h4.828v1.687h-4.828v6.89q0 .735.188 1.22.187.468.515.765.329.281.75.406.438.11.922.11.344 0 .719-.031.375-.047.734-.11.36-.062.672-.125.313-.062.5-.11l.313 1.532q-.266.172-.656.297-.391.125-.844.203-.453.094-.969.14-.516.048-1.016.048-.843 0-1.578-.235-.734-.25-1.281-.765-.531-.532-.844-1.344-.297-.828-.297-2v-6.89h-3.328v-1.688h3.328v-3.063h2.172zm17.574 2.828q.313 0 .641.032.328.015.625.062.297.031.547.094.25.047.422.125l-.297 2.125q-.625-.14-1.203-.203-.563-.078-1.188-.078-1.515 0-2.468.703-.938.687-1.391 1.922v8.14h-2.172V467.42h2.063l.109 2.015q.766-1.031 1.844-1.64 1.093-.61 2.468-.61zm14.325 11.172q-.625.938-1.578 1.469-.954.516-2.188.516-1 0-1.812-.313-.813-.312-1.391-.969-.563-.656-.875-1.672-.313-1.015-.313-2.421v-7.547h2.172v7.562q0 1.031.157 1.719.171.672.5 1.078.328.406.796.578.485.156 1.094.156 1.328 0 2.14-.53.813-.548 1.22-1.47v-9.093h2.171v12.687h-1.968l-.125-1.75zm11.777 1.985q-1.328 0-2.453-.454-1.125-.468-1.922-1.28-.797-.829-1.25-1.954-.437-1.125-.437-2.437v-.5q0-1.532.484-2.735.5-1.219 1.312-2.062.829-.844 1.86-1.282 1.031-.453 2.125-.453 1.375 0 2.39.485 1.032.468 1.704 1.312.687.828 1.015 1.969.344 1.14.344 2.469v.968h-9.063q.032.86.329 1.625.312.766.828 1.344.515.563 1.234.89.734.329 1.625.329 1.156 0 2.047-.469.906-.469 1.516-1.25l1.312 1.031q-.312.485-.797.922-.469.438-1.094.782-.609.343-1.406.546-.781.204-1.703.204zm-.281-11.375q-.656 0-1.25.25-.578.234-1.047.703-.469.453-.797 1.14-.312.672-.437 1.547h6.812v-.172q-.031-.625-.234-1.25t-.61-1.11q-.39-.5-1-.796-.61-.312-1.437-.312z"/><path fill="none" d="M460.367 407.406c15.856 0 23.783-4.922 31.712-9.843 7.93-4.921 15.86-9.843 31.722-9.843"/><path stroke="#595959" stroke-width="4" stroke-linejoin="round" stroke-linecap="butt" d="M460.367 407.406c15.856 0 23.783-4.922 31.712-9.843 1.982-1.23 3.965-2.46 6.071-3.614a62.158 62.158 0 0 1 1.605-.85l.59-.294"/><path fill="#595959" stroke="#595959" stroke-width="4" stroke-linecap="butt" d="M501.745 399.262l16.34-10.303-19.14-2.611z" fill-rule="evenodd"/><path fill="#34a853" d="M271.391 177.814c0-6.283 5.093-11.376 11.376-11.376h166.225a11.376 11.376 0 0 1 11.375 11.376v45.5c0 6.283-5.093 11.376-11.375 11.376H282.767c-6.283 0-11.376-5.093-11.376-11.375z" fill-rule="evenodd"/><path stroke="#666" stroke-linejoin="round" stroke-linecap="butt" d="M271.391 177.814c0-6.283 5.093-11.376 11.376-11.376h166.225a11.376 11.376 0 0 1 11.375 11.376v45.5c0 6.283-5.093 11.376-11.375 11.376H282.767c-6.283 0-11.376-5.093-11.376-11.375z"/><path fill="#fff" d="M312.534 180.211h3.657l.015 13.14q-.015 1.345-.515 2.47-.5 1.109-1.375 1.921-.86.797-2.047 1.25-1.172.438-2.531.438-1.422 0-2.594-.36-1.172-.374-2.016-1.093-.844-.719-1.312-1.813-.469-1.093-.485-2.578h3.672q.016 1.531.672 2.219.672.672 2.063.672.625 0 1.14-.235.531-.234.89-.656.376-.422.563-1 .203-.578.203-1.234v-13.14zm16.903 14q0-.5-.187-.937-.172-.453-.594-.828-.422-.391-1.11-.704-.671-.328-1.687-.593-1.234-.344-2.36-.844-1.124-.516-1.984-1.219-.86-.719-1.375-1.672t-.515-2.187q0-1.203.5-2.172.515-.984 1.406-1.672.906-.687 2.125-1.062 1.219-.375 2.656-.375 1.484 0 2.703.437 1.235.422 2.125 1.203.89.781 1.375 1.844.5 1.062.5 2.344h-3.562q-.032-.64-.235-1.172-.203-.531-.609-.906-.39-.391-.984-.61-.579-.219-1.375-.219-.735 0-1.297.188-.563.172-.953.484-.391.313-.594.75-.203.438-.203.953 0 .532.265.97.266.421.766.765.516.344 1.234.64.72.282 1.641.516 1.297.39 2.39.938 1.094.546 1.876 1.296.796.735 1.234 1.704.437.953.437 2.125 0 1.25-.515 2.218-.5.97-1.39 1.64-.876.673-2.095 1.017-1.218.343-2.671.343-.891 0-1.782-.172-.89-.156-1.718-.484-.813-.344-1.516-.844-.703-.515-1.219-1.187-.5-.688-.797-1.547-.297-.86-.297-1.906h3.594q.031.86.297 1.484.281.61.766 1 .484.39 1.172.578.687.172 1.5.172.734 0 1.296-.172.563-.172.954-.469.39-.296.593-.718.22-.422.22-.938zm19.371-3.125q0 1.813-.484 3.36-.469 1.53-1.39 2.64-.907 1.11-2.22 1.735-1.296.609-2.937.609-1.64 0-2.922-.61-1.265-.624-2.14-1.734-.875-1.125-1.328-2.656-.454-1.531-.454-3.344v-2.765q0-1.829.454-3.36.453-1.531 1.328-2.64.875-1.125 2.14-1.75 1.266-.625 2.907-.625 1.656 0 2.953.625 1.312.625 2.218 1.75.922 1.109 1.391 2.64.484 1.531.484 3.36v2.765zm-3.703-2.797q0-1.156-.187-2.125-.188-.984-.594-1.687-.406-.703-1.047-1.094-.625-.39-1.515-.39-.891 0-1.485.39-.594.39-.969 1.094-.359.703-.515 1.687-.156.97-.156 2.125v2.797q0 1.14.156 2.125.156.969.515 1.688.375.718.97 1.125.593.39 1.5.39.874 0 1.5-.39.64-.407 1.03-1.11.407-.718.594-1.687.203-.985.203-2.14v-2.798zm19.31 3.985q0 1.562-.36 2.89-.344 1.313-1.031 2.266-.688.937-1.72 1.469-1.015.53-2.39.53-1.234 0-2.14-.452-.907-.469-1.547-1.313l-.172 1.5h-3.266v-20h3.625v7.188q.625-.719 1.469-1.125.86-.406 2-.406 1.39 0 2.422.53 1.031.532 1.719 1.485.687.953 1.03 2.281.36 1.313.36 2.875v.282zm-3.626-.282q0-.859-.14-1.625-.125-.765-.438-1.343-.312-.578-.86-.922-.546-.344-1.374-.344-.985 0-1.61.422-.61.422-.953 1.14v5.61q.344.734.953 1.156.625.406 1.64.406.813 0 1.345-.312.547-.328.859-.89.313-.563.438-1.329.14-.781.14-1.687v-.282zm9.09-6.906h7.203v14.406q0 1.407-.406 2.407-.39 1.015-1.172 1.672-.765.656-1.875.968-1.093.313-2.515.313-.594 0-1.188-.047t-1.14-.172l.171-2.937q.157.03.438.062.281.031.578.047.297.031.563.031.265.016.39.016.531 0 .985-.125.468-.11.796-.39.329-.266.516-.72.203-.453.203-1.125V188.04h-3.547v-2.953zm3.297-3.61q0-.421.14-.78.157-.36.423-.61.28-.25.656-.39.39-.141.86-.141.952 0 1.515.547.578.531.578 1.375t-.578 1.39q-.563.532-1.516.532-.468 0-.86-.14-.374-.142-.655-.392-.266-.265-.422-.609-.14-.36-.14-.781zm17.371 17.954q-1.625 0-2.953-.531-1.328-.547-2.28-1.453-.954-.922-1.47-2.157-.515-1.25-.515-2.672v-.515q0-1.625.5-2.953.515-1.328 1.422-2.297.921-.969 2.171-1.5 1.25-.531 2.72-.531 1.515 0 2.702.5 1.203.5 2.032 1.421.828.907 1.25 2.188.437 1.281.437 2.828v1.531h-9.562q.109.72.421 1.313.329.594.813 1.031.5.422 1.14.656.641.235 1.391.235.531 0 1.063-.094.531-.11 1-.313.484-.203.906-.5.422-.312.734-.703l1.797 1.953q-.328.47-.875.938-.531.469-1.281.828-.734.344-1.64.563-.891.234-1.923.234zm-.437-11.688q-.61 0-1.125.22-.5.218-.89.624-.376.406-.641.969-.25.547-.39 1.234H393v-.28q-.016-.58-.22-1.08-.187-.515-.562-.874-.359-.375-.89-.594-.532-.219-1.219-.219zm15.824 8.797q.547 0 1.016-.156.484-.156.844-.437.375-.297.578-.704.203-.406.172-.89h3.406q.031 1.094-.453 2.031-.469.938-1.297 1.61-.812.671-1.906 1.062-1.078.375-2.281.375-1.641 0-2.891-.547-1.234-.547-2.063-1.516-.812-.968-1.25-2.25-.421-1.296-.421-2.78v-.391q0-1.485.421-2.782.422-1.297 1.25-2.25.829-.968 2.063-1.53 1.234-.563 2.86-.563 1.296 0 2.406.39 1.109.39 1.906 1.11.797.703 1.234 1.718.453 1 .422 2.25h-3.406q.031-.515-.156-.984-.188-.469-.547-.813-.344-.343-.844-.546-.484-.204-1.063-.204-.859 0-1.421.36-.563.344-.891.937-.328.578-.469 1.344-.14.75-.14 1.563v.39q0 .813.125 1.578.14.766.468 1.344.328.578.891.938.578.343 1.437.343zm16.403-14.906v3.453h5.266v2.656h-5.266v6.063q0 .766.172 1.281.187.516.5.828.328.297.797.438.469.125 1.031.125.422 0 .86-.031.437-.047.828-.11.406-.062.75-.125.343-.062.578-.125l.36 2.485q-.376.218-.892.39-.5.156-1.078.25-.562.11-1.187.156-.625.063-1.219.063-1.156 0-2.11-.297-.937-.312-1.609-.953-.672-.64-1.03-1.64-.36-1-.36-2.391v-6.407h-3.219v-2.656h3.219v-3.453h3.61zM294.28 223.484V210.22h4.453q1.094 0 1.969.218.89.22 1.515.672.641.438.985 1.125.344.688.344 1.61-.016.937-.5 1.672-.485.734-1.438 1.125.578.14.984.437.422.281.704.688.28.39.406.859.14.469.14.969 0 .953-.328 1.687-.328.735-.937 1.235-.61.484-1.485.734-.875.234-1.968.234h-4.844zm2.578-5.843v3.78h2.266q1.047-.015 1.593-.515.563-.515.563-1.328.016-.906-.5-1.422-.5-.515-1.547-.515h-2.375zm0-1.86h1.89q1.079 0 1.641-.437.578-.438.594-1.282 0-.937-.578-1.343-.578-.407-1.656-.407h-1.89v3.47zm14.883 7.703q-.094-.187-.156-.422-.063-.234-.11-.5-.203.235-.484.438-.266.187-.61.344-.327.156-.734.234-.39.094-.859.094-.75 0-1.39-.219-.626-.219-1.079-.61-.453-.39-.719-.937-.25-.547-.25-1.187 0-1.547 1.157-2.391 1.172-.86 3.468-.86h1.422v-.593q0-.703-.468-1.11-.47-.421-1.344-.421-.766 0-1.125.328-.36.328-.36.89h-2.53q0-.625.28-1.187.282-.578.813-1 .531-.422 1.297-.672.765-.25 1.765-.25.891 0 1.657.219.781.219 1.343.64.563.422.875 1.079.329.656.329 1.5v4.234q0 .797.093 1.312.094.516.297.891v.156h-2.578zm-2.406-1.781q.375 0 .703-.078.328-.094.594-.234.265-.157.453-.344.203-.188.312-.375v-1.703H310.1q-.593 0-1.015.125-.422.109-.688.312-.265.203-.39.5-.125.281-.125.625 0 .5.36.844.358.328 1.093.328zm14.524-8.25q.578 0 1.062.078.484.063.797.156l-.375 2.532q-.5-.125-1.031-.172-.516-.063-1-.063-1.063 0-1.703.407-.641.406-.97 1.171v5.922h-2.53v-9.86h2.359l.125 1.61q.594-.828 1.437-1.297.844-.484 1.829-.484zm6.68 8.563q0-.36.109-.657.125-.312.344-.531.234-.219.562-.344.328-.14.75-.14.406 0 .735.14.328.125.546.344.22.219.344.531.125.297.125.657 0 .343-.125.656-.125.297-.344.515-.218.22-.546.344-.329.14-.735.14-.422 0-.75-.14-.328-.125-.562-.344-.22-.218-.344-.515-.11-.313-.11-.656zm17.492-3.375q0 1.078-.25 2-.25.921-.75 1.593-.484.672-1.203 1.063-.719.375-1.64.375-.798 0-1.407-.266-.594-.281-1.031-.781v4.656h-2.532v-13.656h2.329l.093.969q.453-.547 1.078-.844.625-.297 1.454-.297.937 0 1.656.36.719.359 1.203 1.015.5.656.75 1.578t.25 2.047v.188zm-2.531-.188q0-.61-.125-1.156-.11-.547-.36-.938-.234-.406-.609-.625-.375-.234-.906-.234-.672 0-1.094.266-.422.265-.656.734v4.11q.234.468.656.75.422.28 1.11.28.53 0 .906-.234.39-.25.625-.656.234-.406.343-.953.11-.547.11-1.156v-.188zm11.945-5q.578 0 1.063.078.484.063.797.156l-.375 2.532q-.5-.125-1.032-.172-.515-.063-1-.063-1.062 0-1.703.407-.64.406-.968 1.171v5.922h-2.532v-9.86h2.36l.125 1.61q.593-.828 1.437-1.297.844-.484 1.828-.484zm3.774 5.016q0-1.078.312-1.985.313-.922.907-1.593.593-.688 1.453-1.063.86-.375 1.969-.375 1.125 0 1.984.375.86.375 1.453 1.063.61.671.906 1.593.313.907.313 1.985v.187q0 1.078-.313 2-.297.922-.89 1.594-.594.672-1.469 1.047-.86.375-1.953.375-1.125 0-2-.375-.86-.375-1.453-1.047-.594-.672-.907-1.594-.312-.922-.312-2v-.187zm2.531.187q0 .625.11 1.172.125.531.375.938.265.406.671.64.407.235.985.235.547 0 .937-.235.407-.234.657-.64.25-.407.375-.938.125-.547.125-1.172v-.187q0-.61-.125-1.141-.125-.547-.375-.953-.25-.406-.657-.64-.39-.235-.968-.235-.563 0-.97.234-.39.235-.655.64-.25.407-.375.954-.11.531-.11 1.14v.188zm13.665-7.437v2.406h3.671v1.875h-3.671v4.234q0 .532.109.89.125.36.344.579.234.219.562.313.328.078.719.078.297 0 .594-.016.312-.031.593-.062.282-.047.516-.094.25-.047.422-.094l.234 1.734q-.25.157-.61.282-.358.109-.765.172-.39.078-.828.109-.437.047-.844.047-.812 0-1.484-.203-.656-.22-1.125-.672-.469-.453-.734-1.14-.25-.704-.25-1.673V215.5h-2.25v-1.875h2.25v-2.406h2.547zm6.195 7.25q0-1.078.313-1.985.312-.922.906-1.593.594-.688 1.453-1.063.86-.375 1.969-.375 1.125 0 1.984.375.86.375 1.453 1.063.61.671.907 1.593.312.907.312 1.985v.187q0 1.078-.312 2-.297.922-.891 1.594-.594.672-1.469 1.047-.86.375-1.953.375-1.125 0-2-.375-.86-.375-1.453-1.047-.594-.672-.906-1.594-.313-.922-.313-2v-.187zm2.531.187q0 .625.11 1.172.125.531.375.938.265.406.672.64.406.235.984.235.547 0 .938-.235.406-.234.656-.64.25-.407.375-.938.125-.547.125-1.172v-.187q0-.61-.125-1.141-.125-.547-.375-.953-.25-.406-.656-.64-.391-.235-.97-.235-.562 0-.968.234-.39.235-.656.64-.25.407-.375.954-.11.531-.11 1.14v.188zm13.665-7.437v2.406h3.672v1.875h-3.672v4.234q0 .532.11.89.124.36.343.579.234.219.562.313.328.078.72.078.296 0 .593-.016.312-.031.594-.062.28-.047.515-.094.25-.047.422-.094l.234 1.734q-.25.157-.609.282-.36.109-.766.172-.39.078-.828.109-.437.047-.843.047-.813 0-1.485-.203-.656-.22-1.125-.672-.469-.453-.734-1.14-.25-.704-.25-1.673V215.5h-2.25v-1.875h2.25v-2.406h2.547zm10.742 8.125l.297 1.062 2.625-6.781h2.797l-5.016 11.328q-.156.375-.422.813-.25.437-.64.812-.39.375-.953.625-.563.266-1.328.266-.188 0-.344-.016-.156-.016-.297-.047-.14-.015-.281-.047-.141-.031-.313-.078l.313-1.922h.39q.25.016.39.016.298 0 .532-.188.235-.171.39-.39.173-.219.266-.406.11-.172.141-.172l.61-1.157-4.172-9.437h2.78l2.235 5.719zm15.852-.703q0 1.078-.25 2-.25.921-.75 1.593-.484.672-1.203 1.063-.719.375-1.64.375-.798 0-1.407-.266-.594-.281-1.031-.781v4.656h-2.532v-13.656h2.329l.093.969q.453-.547 1.078-.844.625-.297 1.454-.297.937 0 1.656.36.719.359 1.203 1.015.5.656.75 1.578t.25 2.047v.188zm-2.531-.188q0-.61-.125-1.156-.11-.547-.36-.938-.234-.406-.609-.625-.375-.234-.906-.234-.672 0-1.094.266-.422.265-.656.734v4.11q.234.468.656.75.422.28 1.11.28.53 0 .906-.234.39-.25.625-.656.234-.406.343-.953.11-.547.11-1.156v-.188zm9.648 5.219q-1.14 0-2.078-.375-.922-.375-1.593-1.016-.657-.64-1.016-1.515-.36-.875-.36-1.86v-.375q0-1.125.36-2.047.36-.937.984-1.61.64-.687 1.516-1.046.875-.375 1.906-.375 1.063 0 1.89.344.845.344 1.423.984.578.64.875 1.547.312.89.312 1.969v1.078h-6.687q.062.5.28.922.235.406.58.719.343.296.78.468.453.157.985.157.375 0 .734-.079.375-.078.703-.218.344-.141.64-.344.298-.219.516-.5l1.266 1.375q-.234.328-.625.656-.375.328-.89.578-.516.25-1.141.407-.625.156-1.36.156zm-.296-8.172q-.422 0-.782.156-.36.14-.625.422-.265.281-.453.672-.187.39-.265.875h4.14v-.203q-.015-.39-.156-.75-.125-.36-.39-.61-.25-.265-.626-.406-.36-.156-.843-.156z"/><path fill="#bdbdbd" d="M284.012 234.868h163.496v59.716H284.012z" fill-rule="evenodd"/><path stroke="#666" stroke-linejoin="round" stroke-linecap="butt" d="M284.012 234.868h163.496v59.716H284.012z"/><path fill="#000" d="M317.595 250.38h1.718v9.235q-.015.922-.359 1.703-.328.765-.906 1.328-.563.547-1.344.875-.781.312-1.703.312t-1.688-.28q-.765-.282-1.328-.813-.547-.532-.89-1.266-.344-.75-.422-1.656h1.719q.015.547.218 1.031.203.469.532.828.343.344.812.531.469.188 1.047.188.61 0 1.078-.219.469-.219.797-.594.344-.39.516-.89.171-.516.203-1.078v-9.235zm11.914 9.907q0-.61-.281-1.016-.281-.422-.719-.703-.437-.297-.969-.485-.515-.187-1-.343-.703-.235-1.422-.547-.718-.328-1.328-.781-.593-.47-.968-1.094-.375-.64-.375-1.5t.375-1.531q.375-.672.984-1.141.61-.469 1.375-.703.781-.25 1.578-.25.86 0 1.656.297.813.281 1.422.812.625.516 1 1.25.375.735.39 1.64h-1.734q-.078-.562-.28-1.03-.204-.47-.563-.813-.344-.344-.828-.516-.47-.187-1.063-.187-.484 0-.953.14-.453.126-.813.407-.359.265-.578.672-.218.39-.218.922.015.578.296.984.282.39.72.672.437.265.937.453.5.172.953.312.484.157.984.36.5.187.969.437t.86.578q.406.313.702.72.313.405.47.89.171.484.171 1.078 0 .89-.406 1.562-.39.672-1.016 1.11-.625.437-1.422.672-.781.218-1.578.218-.89 0-1.734-.265-.844-.281-1.516-.797t-1.094-1.25q-.406-.75-.437-1.703h1.719q.078.625.328 1.11.265.468.656.812.406.328.922.5.531.156 1.156.156.485 0 .969-.125t.844-.375q.375-.266.609-.656.25-.407.25-.953zm11.633-2.5h-5.531v5.859h-1.703V250.38h8.156v1.438h-6.453v4.547h5.531v1.422zm10.211 4.5q-.5.734-1.234 1.14-.734.406-1.703.406-.781 0-1.406-.234-.625-.25-1.079-.766-.437-.515-.687-1.296-.234-.782-.234-1.891v-5.86h1.687v5.876q0 .812.125 1.343.125.516.375.828.266.313.625.454.375.125.86.125 1.03 0 1.656-.422.64-.422.953-1.125v-7.078h1.687v9.859h-1.53l-.095-1.36zm6.305-8.5l.125 1.453q.531-.766 1.313-1.188.781-.437 1.75-.437.781 0 1.406.218.64.22 1.078.688.453.453.688 1.172.25.719.25 1.687v6.266h-1.688v-6.219q0-.656-.156-1.11-.14-.452-.422-.734-.281-.296-.703-.421-.406-.125-.953-.125-.844 0-1.485.421-.64.422-1.03 1.125v7.063h-1.688v-9.86h1.515zm13.883 8.671q.453 0 .89-.14.438-.14.767-.406.343-.266.546-.61.204-.36.22-.765h1.593q-.016.656-.344 1.265-.328.594-.89 1.047-.563.438-1.282.719-.718.265-1.5.265-1.11 0-1.953-.406-.844-.406-1.406-1.078-.547-.687-.844-1.562-.281-.891-.281-1.875v-.391q0-.969.281-1.86.297-.89.844-1.562.562-.687 1.406-1.078.844-.406 1.953-.406.875 0 1.61.281.734.266 1.265.75.532.469.828 1.125.313.656.313 1.406h-1.594q-.015-.453-.203-.844-.187-.39-.516-.687-.312-.313-.75-.484-.437-.172-.953-.172-.78 0-1.312.312-.531.313-.86.828-.328.5-.468 1.14-.14.626-.14 1.25v.392q0 .64.14 1.28.14.626.453 1.141.328.5.86.813.53.312 1.327.312zm10.993-11.062v2.39h3.75v1.313h-3.75v5.344q0 .578.14.953.141.375.391.594.266.218.594.312.344.094.719.094.265 0 .546-.031.297-.032.579-.078.28-.047.515-.094.25-.047.406-.094l.235 1.203q-.219.125-.516.219-.297.094-.656.156-.344.078-.75.11-.39.046-.781.046-.657 0-1.235-.187-.562-.188-.984-.594-.422-.406-.672-1.047-.234-.64-.234-1.562v-5.344h-2.578v-1.312h2.578v-2.391h1.703zm7.461 2.39h5.047v8.407h3.219v1.453h-8.266v-1.453h3.36v-6.938h-3.36v-1.468zm3.14-2.578q0-.421.25-.703.25-.297.766-.297.5 0 .75.297.25.282.25.703 0 .407-.25.688-.25.266-.75.266-.515 0-.765-.266-.25-.281-.25-.688zm7.321 7.422q0-1.062.313-1.984.312-.922.89-1.594.578-.672 1.407-1.047.828-.39 1.859-.39 1.047 0 1.875.39.844.375 1.422 1.047.578.672.89 1.594.313.922.313 1.984v.203q0 1.063-.313 1.97-.312.905-.89 1.593-.578.672-1.406 1.062-.829.375-1.86.375-1.047 0-1.89-.375-.829-.39-1.407-1.062-.578-.688-.89-1.594-.313-.906-.313-1.969v-.203zm1.688.203q0 .72.172 1.391.171.656.515 1.156.36.5.89.797.532.281 1.235.281.688 0 1.203-.28.532-.298.875-.798.36-.5.532-1.156.171-.672.171-1.39v-.204q0-.718-.187-1.375-.172-.672-.531-1.172-.344-.5-.875-.796-.516-.297-1.22-.297-.702 0-1.218.297-.515.296-.875.796-.344.5-.515 1.172-.172.657-.172 1.375v.203zm11.492-5.046l.125 1.453q.531-.766 1.313-1.188.78-.437 1.75-.437.78 0 1.406.218.64.22 1.078.688.453.453.687 1.172.25.719.25 1.687v6.266h-1.687v-6.219q0-.656-.156-1.11-.14-.452-.422-.734-.281-.296-.703-.421-.407-.125-.953-.125-.844 0-1.485.421-.64.422-1.031 1.125v7.063h-1.688v-9.86h1.516zM350.67 276.948q0-.781.187-1.438.204-.672.563-1.14.375-.485.89-.75.516-.266 1.172-.266.657 0 1.141.234.5.235.844.657l.062-.766h1.094v6.89q0 .704-.219 1.235-.218.547-.625.922-.39.375-.937.562-.547.204-1.203.204-.282 0-.64-.063-.345-.047-.704-.187-.36-.141-.703-.375-.328-.235-.563-.579l.625-.734q.22.266.453.453.235.188.47.297.25.11.484.156.25.063.484.063.422 0 .766-.125.359-.125.593-.375.25-.235.375-.594.14-.344.14-.797v-.61q-.358.407-.843.626-.469.203-1.11.203-.64 0-1.155-.266-.516-.281-.891-.75-.36-.484-.563-1.14-.187-.657-.187-1.407v-.14zm1.203.14q0 .516.11.985.109.453.343.812.235.344.578.547.36.203.875.203.313 0 .563-.078.25-.078.437-.203.203-.14.36-.328.156-.188.28-.422v-3.219q-.124-.234-.28-.406-.157-.187-.36-.312-.203-.141-.453-.22-.234-.077-.547-.077-.5 0-.86.218-.358.204-.593.563-.234.344-.344.812-.109.47-.109.985v.14zm10.139 3.563q-.75 0-1.375-.25-.61-.25-1.063-.703-.437-.453-.687-1.078-.25-.625-.25-1.375v-.266q0-.86.265-1.531.282-.672.735-1.125.453-.469 1.031-.719.578-.25 1.188-.25.75 0 1.312.266.578.265.953.734.375.453.563 1.094.187.625.187 1.36v.546h-5.031q.031.484.187.906.172.422.454.735.296.312.687.5.406.172.906.172.641 0 1.141-.25.5-.266.828-.688l.734.563q-.171.265-.437.515t-.61.438q-.343.187-.78.297-.438.109-.938.109zm-.156-6.313q-.375 0-.704.141-.312.125-.578.39-.265.25-.453.626-.172.375-.234.859h3.781v-.078q-.016-.36-.14-.703-.11-.344-.329-.61-.218-.28-.562-.453-.328-.172-.781-.172zm7.888-2.562v1.703h2.688v.938h-2.688v3.828q0 .406.094.672.11.265.297.437.188.156.422.219.234.062.5.062.203 0 .406-.015l.406-.063q.204-.031.375-.062.172-.047.282-.063l.172.844q-.157.094-.375.172-.204.062-.47.11-.25.046-.53.062-.282.03-.563.03-.469 0-.875-.124-.406-.14-.703-.422-.297-.297-.484-.75-.172-.469-.172-1.11v-3.827h-1.844v-.938h1.844v-1.703h1.218zm8.077 2.984l2.047-3.703h1.421l-2.75 4.688 2.813 4.78h-1.406l-2.094-3.78-2.11 3.78h-1.421l2.828-4.78-2.75-4.688h1.406l2.016 3.703z"/><path fill="#673ab7" d="M523.68 158.116c0-6.283 5.093-11.376 11.375-11.376h142.068a11.376 11.376 0 0 1 11.376 11.376v45.5c0 6.283-5.093 11.376-11.376 11.376H535.055c-6.282 0-11.375-5.093-11.375-11.375z" fill-rule="evenodd"/><path stroke="#666" stroke-linejoin="round" stroke-linecap="butt" d="M523.68 158.116c0-6.283 5.093-11.376 11.375-11.376h142.068a11.376 11.376 0 0 1 11.376 11.376v45.5c0 6.283-5.093 11.376-11.376 11.376H535.055c-6.282 0-11.375-5.093-11.375-11.375z"/><path fill="#fff" d="M580.474 173.953q0-.453-.156-.844-.156-.406-.547-.75-.375-.36-.984-.64-.61-.282-1.532-.532-1.11-.312-2.125-.765t-1.797-1.094q-.765-.656-1.234-1.5-.453-.86-.453-1.969 0-1.078.453-1.953.453-.89 1.266-1.5.812-.625 1.906-.953 1.11-.344 2.39-.344 1.344 0 2.454.39 1.109.376 1.906 1.079.797.703 1.234 1.672.453.953.453 2.094h-3.218q-.016-.578-.203-1.047-.188-.485-.547-.828-.344-.344-.891-.532-.531-.203-1.234-.203-.657 0-1.172.157-.516.156-.875.453-.344.28-.531.672-.172.39-.172.843 0 .485.234.875.25.39.703.703.453.297 1.11.563.656.25 1.468.484 1.172.328 2.157.828.984.485 1.687 1.172.719.672 1.11 1.532.39.859.39 1.906 0 1.125-.453 2t-1.25 1.484q-.797.594-1.906.906-1.094.313-2.391.313-.813 0-1.61-.156-.796-.141-1.53-.438-.735-.312-1.376-.765-.625-.454-1.093-1.063-.453-.61-.72-1.375-.265-.781-.265-1.719h3.235q.015.766.265 1.328.25.547.688.907.437.343 1.047.515.625.157 1.359.157.656 0 1.156-.157.516-.156.86-.422.359-.265.547-.64.187-.39.187-.844zm8.918-6.484q.64-.922 1.547-1.453.906-.532 2.031-.532 1 0 1.828.313.828.297 1.422.937.61.625.938 1.61.343.984.343 2.39v7.672h-3.265v-7.703q0-.672-.172-1.156-.172-.5-.485-.797-.312-.313-.765-.453-.438-.156-1-.156-.828 0-1.438.296-.593.282-.984.813v9.156h-3.25v-18h3.25v7.063zm19.074 10.937q-.125-.234-.203-.531-.078-.313-.14-.656-.266.297-.626.562-.343.25-.78.453-.423.188-.938.297-.516.11-1.11.11-.968 0-1.797-.282-.812-.281-1.406-.781-.578-.516-.906-1.203-.328-.703-.328-1.516 0-2.015 1.5-3.11 1.5-1.093 4.453-1.093h1.828v-.75q0-.906-.61-1.437-.593-.547-1.718-.547-1 0-1.453.437-.453.422-.453 1.14h-3.266q0-.812.36-1.53.359-.735 1.046-1.282.688-.546 1.672-.875 1-.328 2.266-.328 1.156 0 2.14.282 1 .28 1.72.843.734.547 1.14 1.39.406.829.406 1.938v5.438q0 1.016.125 1.687.14.657.375 1.141v.203h-3.297zm-3.11-2.281q.5 0 .923-.11.422-.124.75-.312.343-.187.593-.422.25-.25.391-.5v-2.172h-1.672q-.765 0-1.312.14-.532.142-.875.407-.328.266-.5.64-.157.36-.157.798 0 .656.454 1.093.468.438 1.406.438zm20.981-3.938q0 1.375-.328 2.563-.312 1.187-.953 2.047-.625.86-1.547 1.36-.922.484-2.125.484-1.015 0-1.797-.344-.765-.36-1.343-1v5.984h-3.25V165.72h3.015l.11 1.25q.593-.703 1.39-1.094.797-.39 1.86-.39 1.203 0 2.125.468.937.469 1.562 1.313.64.843.953 2.046.328 1.188.328 2.625v.25zm-3.265-.25q0-.796-.141-1.484-.14-.703-.453-1.219-.313-.515-.797-.797-.484-.296-1.187-.296-.844 0-1.391.343-.547.328-.86.938v5.297q.313.593.86.953.547.36 1.422.36.687 0 1.172-.298.484-.312.78-.843.313-.532.454-1.22.14-.702.14-1.484v-.25zm12.433 6.704q-1.468 0-2.672-.485-1.187-.484-2.046-1.297-.86-.828-1.329-1.953-.453-1.125-.453-2.39v-.47q0-1.452.453-2.655.47-1.204 1.282-2.063.828-.875 1.953-1.36 1.125-.484 2.437-.484 1.375 0 2.438.453 1.078.454 1.828 1.282.75.812 1.125 1.968.39 1.157.39 2.547v1.39h-8.593q.094.642.375 1.173t.719.922q.453.39 1.03.609.579.203 1.25.203.485 0 .954-.094.484-.093.906-.28.438-.188.813-.454.375-.266.656-.625l1.64 1.75q-.312.438-.796.86-.485.406-1.157.734-.656.312-1.468.515-.797.204-1.735.204zm-.39-10.516q-.547 0-1.016.203-.453.188-.797.547-.344.36-.578.875-.234.5-.36 1.125h5.344v-.266q-.015-.515-.203-.968-.172-.454-.5-.782-.328-.343-.797-.531-.468-.203-1.093-.203zM547.654 196.896q0-1.282.188-2.422.203-1.141.531-2.094.344-.969.797-1.75.453-.797.953-1.406.5-.61 1.031-1.032.531-.421 1.031-.656l.5 1.39q-.515.391-1.03 1.048-.5.656-.907 1.64-.406.985-.672 2.282-.25 1.296-.25 2.984v.234q0 1.688.25 2.985.266 1.297.672 2.28.406.985.906 1.642.516.671 1.031 1.062l-.5 1.36q-.5-.22-1.03-.657-.532-.422-1.032-1.031-.5-.594-.953-1.39-.453-.798-.797-1.75-.328-.97-.531-2.094-.188-1.141-.188-2.422v-.203zm11.977.53v4.86h-2.562v-13.265h4.53q1.095 0 1.97.312.875.313 1.484.875.61.563.937 1.344.344.781.344 1.75 0 .89-.344 1.64-.328.75-.937 1.313-.61.547-1.484.86-.875.312-1.97.312h-1.968zm0-2.077h1.969q.547 0 .937-.157.407-.171.672-.453.281-.281.406-.656.141-.375.141-.766 0-.468-.14-.859-.126-.406-.407-.703-.265-.313-.672-.484-.39-.172-.937-.172h-1.969v4.25zm15.633-3.094q.578 0 1.063.078.484.063.796.156l-.375 2.532q-.5-.125-1.03-.172-.516-.063-1-.063-1.063 0-1.704.406-.64.407-.969 1.172v5.922h-2.53v-9.86h2.358l.125 1.61q.594-.828 1.438-1.297.844-.484 1.828-.484zm3.774 5.016q0-1.079.312-1.985.313-.922.907-1.594.593-.687 1.453-1.062.859-.375 1.968-.375 1.125 0 1.985.375.86.375 1.453 1.062.61.672.906 1.594.313.906.313 1.985v.187q0 1.078-.313 2-.297.922-.89 1.594-.594.672-1.47 1.047-.859.375-1.952.375-1.125 0-2-.375-.86-.375-1.453-1.047-.594-.672-.907-1.594-.312-.922-.312-2v-.187zm2.531.187q0 .625.11 1.172.124.531.374.937.266.407.672.641.407.234.985.234.547 0 .937-.234.406-.234.656-.64.25-.407.375-.938.125-.547.125-1.172v-.187q0-.61-.125-1.141-.125-.547-.375-.953-.25-.406-.656-.64-.39-.235-.969-.235-.562 0-.968.234-.391.235-.657.64-.25.407-.375.954-.109.531-.109 1.14v.188zm13.664-7.437v2.406h3.672v1.875h-3.672v4.234q0 .531.11.89.125.36.344.579.234.219.562.312.328.079.719.079.297 0 .594-.016.312-.031.593-.063.282-.046.516-.093.25-.047.422-.094l.234 1.734q-.25.157-.61.282-.359.109-.765.171-.39.079-.828.11-.437.047-.844.047-.812 0-1.484-.203-.656-.22-1.125-.672-.469-.453-.734-1.141-.25-.703-.25-1.672v-4.484h-2.25v-1.875h2.25v-2.406h2.546zm6.196 7.25q0-1.079.312-1.985.313-.922.907-1.594.593-.687 1.453-1.062.86-.375 1.969-.375 1.125 0 1.984.375.86.375 1.453 1.062.61.672.906 1.594.313.906.313 1.985v.187q0 1.078-.313 2-.297.922-.89 1.594-.594.672-1.469 1.047-.86.375-1.953.375-1.125 0-2-.375-.86-.375-1.453-1.047-.594-.672-.907-1.594-.312-.922-.312-2v-.187zm2.531.187q0 .625.11 1.172.125.531.375.937.265.407.671.641.407.234.985.234.547 0 .937-.234.407-.234.657-.64.25-.407.375-.938.125-.547.125-1.172v-.187q0-.61-.125-1.141-.125-.547-.375-.953-.25-.406-.657-.64-.39-.235-.968-.235-.563 0-.97.234-.39.235-.655.64-.25.407-.375.954-.11.531-.11 1.14v.188zm13.665-7.437v2.406h3.671v1.875h-3.671v4.234q0 .531.109.89.125.36.344.579.234.219.562.312.328.079.719.079.297 0 .594-.016.312-.031.593-.063.282-.046.516-.093.25-.047.422-.094l.234 1.734q-.25.157-.61.282-.358.109-.765.171-.39.079-.828.11-.437.047-.844.047-.812 0-1.484-.203-.656-.22-1.125-.672-.469-.453-.734-1.141-.25-.703-.25-1.672v-4.484h-2.25v-1.875h2.25v-2.406h2.547zm10.742 8.125l.297 1.062 2.625-6.781h2.797l-5.016 11.328q-.156.375-.422.812-.25.438-.64.813-.391.375-.954.625-.562.266-1.328.266-.187 0-.343-.016-.157-.016-.297-.047-.14-.016-.282-.047-.14-.031-.312-.078l.312-1.922h.391q.25.016.39.016.298 0 .532-.188.234-.172.39-.39.172-.22.266-.407.11-.171.14-.171l.61-1.157-4.172-9.437h2.782l2.234 5.719zm15.852-.704q0 1.079-.25 2-.25.922-.75 1.594-.485.672-1.203 1.063-.72.375-1.64.375-.798 0-1.407-.266-.594-.281-1.031-.781v4.656h-2.532v-13.656h2.328l.094.969q.453-.547 1.078-.844.625-.297 1.453-.297.938 0 1.657.36.718.359 1.203 1.015.5.656.75 1.578t.25 2.047v.187zm-2.531-.187q0-.61-.125-1.156-.11-.547-.36-.938-.234-.406-.61-.625-.374-.234-.905-.234-.672 0-1.094.265-.422.266-.656.735v4.11q.234.468.656.75.422.28 1.11.28.53 0 .905-.234.391-.25.625-.656.235-.406.344-.953.11-.547.11-1.157v-.187zm9.648 5.219q-1.14 0-2.078-.375-.922-.375-1.594-1.016-.656-.64-1.015-1.516-.36-.875-.36-1.859v-.375q0-1.125.36-2.047.36-.937.984-1.61.64-.687 1.516-1.046.875-.375 1.906-.375 1.062 0 1.89.344.844.343 1.422.984.579.64.875 1.547.313.89.313 1.969v1.078h-6.688q.063.5.282.922.234.406.578.718.344.297.781.47.453.155.984.155.375 0 .735-.078.375-.078.703-.218.344-.141.64-.344.297-.219.516-.5l1.266 1.375q-.235.328-.625.656-.375.328-.89.578-.516.25-1.141.406-.625.157-1.36.157zm-.297-8.172q-.422 0-.78.156-.36.14-.626.422-.266.281-.453.672-.188.39-.266.875h4.141v-.203q-.016-.391-.156-.75-.125-.36-.39-.61-.25-.265-.626-.406-.36-.156-.844-.156zm13.462 2.797q0 1.25-.204 2.359-.203 1.11-.546 2.078-.344.969-.813 1.766-.453.797-.984 1.422-.516.625-1.063 1.062-.547.438-1.062.656l-.485-1.359q.5-.39 1.016-1.062.516-.657.922-1.625.406-.97.656-2.282.266-1.312.266-3v-.234q0-1.688-.266-2.984-.266-1.313-.687-2.297-.407-.985-.907-1.657-.5-.671-1-1.046l.485-1.36q.515.235 1.062.672.547.438 1.063 1.063.53.625.984 1.421.469.797.813 1.766.343.953.546 2.078.204 1.11.204 2.36v.203z"/><path fill="#bdbdbd" d="M534.687 215.17H677.27v59.717H534.687z" fill-rule="evenodd"/><path stroke="#666" stroke-linejoin="round" stroke-linecap="butt" d="M534.687 215.17H677.27v59.717H534.687z"/><path fill="#000" d="M570.428 236.866l-.25 4.312h-1.61v-5.609h1.86v1.297zm8.387 10.25q0-1.407.343-2.594.344-1.203 1-2.047.657-.86 1.594-1.344.938-.484 2.125-.484 1.172 0 2.047.422.89.422 1.516 1.203l.109-1.39h1.969v12.421q0 1.25-.39 2.219-.392.984-1.11 1.656-.703.688-1.688 1.031-.984.36-2.187.36-.485 0-1.125-.125-.625-.11-1.282-.36-.64-.25-1.25-.672-.609-.421-1.03-1.046l1.124-1.297q.39.484.813.812.422.344.86.531.437.204.858.282.438.093.875.093.766 0 1.391-.218.625-.22 1.063-.657.437-.421.671-1.062.235-.625.235-1.453v-1.078q-.625.718-1.5 1.11-.86.374-1.985.374-1.171 0-2.109-.484-.937-.5-1.594-1.36-.64-.875-1-2.047-.343-1.187-.343-2.546v-.25zm2.171.25q0 .921.188 1.765.203.828.61 1.469.421.625 1.062 1 .64.36 1.547.36.562 0 1.015-.126.453-.14.813-.39.36-.25.64-.578.282-.344.485-.75v-5.813q-.203-.406-.485-.734-.28-.328-.656-.563-.36-.25-.812-.375-.438-.14-.969-.14-.922 0-1.578.375-.64.375-1.063 1.015-.406.64-.609 1.485-.188.828-.188 1.75v.25zm18.231 6.437q-1.328 0-2.453-.453-1.125-.469-1.922-1.281-.797-.828-1.25-1.953-.438-1.125-.438-2.438v-.5q0-1.531.485-2.734.5-1.219 1.312-2.063.828-.844 1.86-1.281 1.031-.453 2.125-.453 1.375 0 2.39.484 1.032.469 1.703 1.313.688.828 1.016 1.968.344 1.141.344 2.47v.968h-9.063q.032.86.328 1.625.313.766.829 1.344.515.562 1.234.89.734.328 1.625.328 1.156 0 2.047-.468.906-.469 1.515-1.25l1.313 1.031q-.313.484-.797.922-.469.437-1.094.781-.609.344-1.406.547-.781.203-1.703.203zm-.281-11.375q-.657 0-1.25.25-.578.234-1.047.703-.469.453-.797 1.14-.313.673-.438 1.548h6.813v-.172q-.031-.625-.234-1.25-.204-.625-.61-1.11-.39-.5-1-.796-.61-.313-1.437-.313zm14.215-4.61v3.063h4.828v1.688h-4.828v6.89q0 .735.187 1.22.188.468.516.765.328.281.75.406.437.11.922.11.343 0 .718-.032.375-.047.735-.11.36-.062.672-.124.312-.063.5-.11l.312 1.532q-.266.171-.656.296-.39.125-.844.204-.453.093-.969.14-.515.047-1.015.047-.844 0-1.578-.234-.735-.25-1.282-.766-.53-.531-.843-1.344-.297-.828-.297-2v-6.89h-3.328v-1.688h3.328v-3.062h2.172zm14.558 5.376l3.672-6.688h2.563l-4.954 8.453 5.063 8.61h-2.531l-3.766-6.828-3.781 6.828h-2.578l5.093-8.61-4.953-8.453h2.532l3.64 6.688zm14.73-6.328l-.25 4.312h-1.609v-5.609h1.86v1.297z"/><path fill="none" d="M460.367 200.564c15.828 0 23.743-4.92 31.657-9.842 7.913-4.921 15.825-9.843 31.65-9.843"/><path stroke="#595959" stroke-width="4" stroke-linejoin="round" stroke-linecap="butt" d="M460.367 200.564c15.828 0 23.743-4.92 31.657-9.842 1.978-1.23 3.956-2.46 6.058-3.614a61.908 61.908 0 0 1 1.602-.85l.54-.27"/><path fill="#595959" stroke="#595959" stroke-width="4" stroke-linecap="butt" d="M501.63 192.443l16.33-10.32-19.142-2.591z" fill-rule="evenodd"/><path fill="none" d="M606.2 353.581c0-14.749-60.11-22.124-120.221-29.498-60.11-7.374-120.22-14.747-120.22-29.494"/><path stroke="#595959" stroke-width="4" stroke-linejoin="round" stroke-linecap="butt" d="M606.2 353.581c0-14.749-60.11-22.124-120.221-29.498-30.055-3.687-60.11-7.374-82.652-11.982-5.635-1.152-10.8-2.362-15.38-3.644-.572-.16-1.135-.321-1.689-.484l-.482-.143"/><path stroke="#595959" stroke-width="4" stroke-linecap="butt" d="M389.42 302.32l-18.784-4.505 11.495 15.525z"/><path fill="#673ab7" d="M526.388 38.573H685.57V70.7H526.388z" fill-rule="evenodd"/><path stroke="#666" stroke-linejoin="round" stroke-linecap="butt" d="M526.388 38.573H685.57V70.7H526.388z"/><path fill="#fff" d="M540.967 57.853l2.515-9.562h2.813l-4.016 13.265h-2.594l-4.015-13.265h2.828l2.469 9.562zm13.055 3.703q-.094-.187-.157-.421-.062-.235-.11-.5-.202.234-.483.437-.266.188-.61.344-.328.156-.734.234-.39.094-.86.094-.75 0-1.39-.219-.625-.219-1.078-.61-.453-.39-.72-.937-.25-.547-.25-1.187 0-1.547 1.157-2.39 1.172-.86 3.469-.86h1.422v-.594q0-.703-.469-1.11-.469-.421-1.344-.421-.765 0-1.125.328t-.36.89h-2.53q0-.624.28-1.187.282-.578.813-1 .532-.422 1.297-.672.766-.25 1.766-.25.89 0 1.656.219.781.219 1.344.64.562.422.875 1.079.328.656.328 1.5v4.234q0 .797.094 1.313.094.515.297.89v.156h-2.578zm-2.407-1.78q.375 0 .703-.079.329-.094.594-.234.266-.157.453-.344.203-.188.313-.375v-1.703h-1.297q-.594 0-1.016.125-.422.11-.687.312-.266.203-.39.5-.126.282-.126.625 0 .5.36.844.359.328 1.093.328zm7.977-12.22h5.516v11.938h2.812v2.062h-8.328v-2.062h2.953v-9.86h-2.953v-2.078zm11.336 4.141h5.375v7.797h2.672v2.062h-8.047v-2.062h2.813v-5.719h-2.813v-2.078zm2.625-2.516q0-.296.11-.546.109-.25.297-.422.187-.188.453-.282.28-.109.609-.109.672 0 1.063.39.39.376.39.97 0 .593-.39.968-.391.375-1.063.375-.328 0-.61-.094-.265-.109-.452-.28-.188-.188-.297-.438-.11-.25-.11-.532zm7.633 7.375q0-1.125.266-2.046.266-.938.766-1.594.5-.672 1.203-1.031.718-.36 1.64-.36.782 0 1.36.281.593.266 1.047.782v-5.032h2.546v14h-2.296l-.125-1.03q-.47.577-1.094.905-.625.313-1.453.313-.907 0-1.625-.375-.703-.39-1.203-1.047-.5-.672-.766-1.578-.266-.922-.266-2v-.188zm2.532.188q0 .625.109 1.156.11.531.344.938.234.39.61.625.374.218.905.218.657 0 1.094-.28.438-.282.688-.782v-3.984q-.25-.5-.688-.782-.422-.28-1.078-.28-.531 0-.906.233-.375.235-.625.641-.235.406-.344.953-.11.531-.11 1.156v.188zm9.601-5.047h5.375v7.797h2.672v2.062h-8.047v-2.062h2.813v-5.719h-2.813v-2.078zm2.625-2.516q0-.296.11-.546.11-.25.297-.422.187-.188.453-.282.281-.109.61-.109.671 0 1.062.39.39.376.39.97 0 .593-.39.968t-1.063.375q-.328 0-.61-.094-.265-.109-.452-.28-.188-.188-.297-.438-.11-.25-.11-.532zm12.555.11v2.406h3.672v1.875H608.5v4.234q0 .532.11.891.125.36.344.578.234.219.562.313.328.078.719.078.297 0 .594-.016.312-.031.593-.062.282-.047.516-.094.25-.047.422-.094l.234 1.735q-.25.156-.61.28-.359.11-.765.173-.39.078-.828.11-.437.046-.844.046-.812 0-1.484-.203-.656-.219-1.125-.672-.469-.453-.734-1.14-.25-.704-.25-1.673v-4.484h-2.25v-1.875h2.25v-2.406h2.546zm10.743 8.125l.297 1.062 2.625-6.78h2.797l-5.016 11.327q-.156.375-.422.813-.25.437-.64.812-.391.375-.954.625-.562.266-1.328.266-.187 0-.344-.016-.156-.015-.296-.047-.141-.015-.282-.047-.14-.03-.312-.078l.312-1.922h.39q.25.016.392.016.296 0 .53-.187.235-.172.391-.391.172-.219.266-.406.11-.172.14-.172l.61-1.156-4.172-9.438h2.781l2.235 5.719zm16.117-.016q-.062 1-.437 1.813-.375.797-1 1.36-.61.562-1.469.874-.844.297-1.89.297-1.172 0-2.094-.422-.907-.437-1.532-1.219-.609-.78-.937-1.875-.328-1.093-.328-2.406v-1.781q0-1.328.344-2.406.343-1.094.984-1.875.64-.797 1.547-1.22.906-.437 2.031-.437 1.094 0 1.938.313.859.312 1.453.89.609.563.953 1.391.36.828.437 1.875h-2.547q-.03-.594-.171-1.031-.141-.453-.422-.75-.266-.297-.672-.453-.406-.157-.969-.157-.594 0-1.031.266-.438.25-.719.75-.281.484-.422 1.203-.14.719-.14 1.625v1.797q0 1.969.546 2.906.563.938 1.75.938 1 0 1.579-.531.593-.532.656-1.735h2.562zm6.852 4.344q-1.14 0-2.078-.375-.922-.375-1.594-1.016-.656-.64-1.015-1.515-.36-.875-.36-1.86v-.375q0-1.125.36-2.047.359-.937.984-1.609.64-.687 1.516-1.047.875-.375 1.906-.375 1.062 0 1.89.344.844.344 1.422.984.578.641.875 1.547.313.89.313 1.969v1.078h-6.688q.063.5.282.922.234.406.578.719.343.297.781.468.453.157.984.157.375 0 .735-.078.375-.079.703-.22.344-.14.64-.343.297-.219.516-.5l1.266 1.375q-.235.328-.625.656-.375.328-.89.578-.517.25-1.142.407-.625.156-1.359.156zm-.297-8.172q-.422 0-.781.156-.36.141-.625.422-.266.281-.453.672-.188.39-.266.875h4.14v-.203q-.015-.39-.155-.75-.125-.36-.391-.61-.25-.265-.625-.406-.36-.156-.844-.156zm7.243-6.016h5.515v11.938h2.813v2.062h-8.328v-2.062h2.953v-9.86h-2.953v-2.078zm11.195 0h5.516v11.938h2.812v2.062h-8.328v-2.062h2.953v-9.86h-2.953v-2.078z"/><path fill="#bdbdbd" d="M526.388 70.7H685.57v32.125H526.388z" fill-rule="evenodd"/><path stroke="#666" stroke-linejoin="round" stroke-linecap="butt" d="M526.388 70.7H685.57v32.125H526.388z"/><path fill="#000" d="M540.95 90.964l3.126-10.547h1.797l-4.188 13.265h-1.453l-4.203-13.265h1.813l3.109 10.547zm13.697 2.718q-.094-.187-.157-.468-.062-.297-.093-.61-.25.266-.563.5-.312.22-.703.391-.375.172-.813.266-.421.109-.89.109-.797 0-1.438-.219-.625-.234-1.062-.625-.438-.39-.688-.922-.234-.53-.234-1.156 0-.812.312-1.422.329-.61.922-1.015.594-.407 1.422-.594.844-.203 1.875-.203h1.828v-.782q0-.453-.172-.796-.156-.36-.453-.61-.297-.25-.734-.39-.422-.141-.969-.141-.5 0-.906.14-.39.126-.672.344-.266.203-.422.485-.14.281-.14.593h-1.688q0-.53.266-1.046.28-.532.78-.938.5-.422 1.22-.672.734-.25 1.656-.25.844 0 1.562.203.72.203 1.235.625.531.407.828 1.032.297.609.297 1.437v4.578q0 .5.094 1.047.093.547.25.969v.14h-1.75zm-2.985-1.28q.5 0 .922-.126.438-.14.781-.344.344-.203.594-.468.266-.282.406-.563v-2h-1.562q-1.469 0-2.297.438-.813.437-.813 1.375 0 .36.125.672.125.312.36.53.25.22.625.36.375.125.86.125zm7.961-12.72h5.047V92.23h3.219v1.453h-8.266V92.23h3.36V81.151h-3.36v-1.469zm11.196 4.141h5.047v8.406h3.219v1.453h-8.266V92.23h3.36v-6.937h-3.36v-1.469zm3.14-2.578q0-.422.25-.703.25-.297.766-.297.5 0 .75.297.25.281.25.703 0 .406-.25.687-.25.266-.75.266-.515 0-.765-.266-.25-.28-.25-.687zm7.477 7.422q0-1.094.282-2.016.28-.937.78-1.594.516-.671 1.25-1.03.735-.376 1.626-.376.89 0 1.547.297.672.281 1.14.86v-5.126h1.688v14h-1.547l-.063-1.03q-.5.593-1.187.905-.672.313-1.594.313-.89 0-1.625-.375-.719-.39-1.234-1.063-.5-.687-.781-1.593-.282-.922-.282-1.969v-.203zm1.688.203q0 .719.156 1.36.156.64.469 1.14.328.484.828.781.5.281 1.203.281.438 0 .781-.093.344-.11.625-.297.282-.188.5-.438.22-.265.375-.578v-4.578q-.328-.594-.89-.984-.547-.39-1.375-.39-.703 0-1.22.296-.5.281-.827.781-.313.5-.469 1.156-.156.641-.156 1.36v.203zm12.758 3.719q0-.266.078-.5.094-.25.25-.422.172-.188.422-.281.25-.094.578-.094.328 0 .578.094.25.093.406.28.172.173.25.423.094.234.094.5 0 .265-.094.5-.078.234-.25.406-.156.172-.406.266-.25.093-.578.093-.328 0-.578-.093-.25-.094-.422-.266-.156-.172-.25-.406-.078-.235-.078-.5zm0-8q0-.266.078-.5.094-.25.25-.422.172-.188.422-.281.25-.094.578-.094.328 0 .578.094.25.093.406.28.172.173.25.423.094.234.094.5 0 .265-.094.5-.078.234-.25.406-.156.172-.406.266-.25.093-.578.093-.328 0-.578-.093-.25-.094-.422-.266-.156-.172-.25-.406-.078-.235-.078-.5zm23.454-3.157v2.391h3.75v1.313h-3.75v5.343q0 .578.14.953t.39.594q.266.219.595.313.343.093.718.093.266 0 .547-.03.297-.032.578-.079.282-.047.516-.094.25-.047.406-.093l.235 1.203q-.22.125-.516.218-.297.094-.656.157-.344.078-.75.11-.391.046-.782.046-.656 0-1.234-.188-.562-.187-.984-.593-.422-.407-.672-1.047-.235-.64-.235-1.563v-5.343h-2.578v-1.313h2.578v-2.39h1.704zM633 83.652q.234 0 .484.015.266 0 .485.031.234.031.421.078.204.047.344.11l-.234 1.64q-.485-.11-.938-.156-.437-.047-.922-.047-1.187 0-1.921.547-.735.531-1.079 1.484v6.328h-1.687v-9.859h1.594l.093 1.563q.594-.797 1.438-1.266t1.922-.469zm11.133 8.671q-.5.734-1.234 1.14-.735.407-1.704.407-.78 0-1.406-.234-.625-.25-1.078-.766-.437-.516-.687-1.297-.235-.781-.235-1.89v-5.86h1.688v5.875q0 .813.125 1.344.125.515.375.828.265.312.625.453.375.125.86.125 1.03 0 1.655-.422.641-.422.953-1.125v-7.078h1.688v9.86h-1.531l-.094-1.36zm9.149 1.547q-1.032 0-1.907-.36-.875-.359-1.5-.984-.609-.64-.953-1.515-.343-.875-.343-1.907v-.39q0-1.188.375-2.125.39-.953 1.015-1.594.64-.656 1.438-1 .812-.344 1.656-.344 1.062 0 1.86.375.796.36 1.327 1.016.532.64.782 1.531.265.875.265 1.906v.75h-7.031q.016.688.25 1.282.234.578.64 1.03.407.438.97.704.562.25 1.25.25.906 0 1.593-.36.703-.374 1.172-.968l1.031.797q-.25.375-.625.718-.36.329-.843.594-.485.266-1.094.422-.61.172-1.328.172zm-.22-8.844q-.515 0-.968.188-.453.187-.812.547-.36.359-.625.89-.25.516-.344 1.203h5.297v-.125q-.016-.5-.188-.984-.156-.484-.468-.86-.297-.39-.766-.624-.469-.235-1.125-.235z"/><path fill="none" d="M606.09 146.74l-.095-43.905"/><path stroke="#595959" stroke-width="2" stroke-linejoin="round" stroke-linecap="butt" d="M606.09 146.74l-.07-31.905"/><path fill="#595959" stroke="#595959" stroke-width="2" stroke-linecap="butt" d="M609.324 114.828l-3.323-9.07-3.284 9.084z" fill-rule="evenodd"/></g></svg>