<svg viewBox="0 0 960 540" fill="none" stroke-linecap="square" stroke-miterlimit="10" xmlns="http://www.w3.org/2000/svg"><clipPath id="a"><path d="M0 0h960v540H0V0z"/></clipPath><g clip-path="url(#a)"><path fill="#fff" d="M0 0h960v540H0z" fill-rule="evenodd"/><path fill="#666" d="M25.705 517.365v-1.93h6.463c.066.34.104.746.104 1.184 0 1.447-.397 3.24-1.672 4.515-1.24 1.293-2.827 1.982-4.929 1.982-3.895 0-7.17-3.17-7.17-7.066 0-3.895 3.275-7.066 7.17-7.066 2.154 0 3.689.844 4.843 1.947l-1.361 1.362c-.827-.776-1.948-1.379-3.481-1.379-2.844 0-5.068 2.292-5.068 5.136 0 2.844 2.224 5.136 5.068 5.136 1.844 0 2.895-.741 3.567-1.413.548-.547.908-1.333 1.048-2.407h-4.582zm16.483 1.213c0 2.62-2.05 4.55-4.567 4.55-2.517 0-4.567-1.93-4.567-4.55 0-2.637 2.05-4.55 4.567-4.55 2.516 0 4.567 1.913 4.567 4.55zm-1.999 0c0-1.637-1.189-2.758-2.568-2.758-1.378 0-2.568 1.12-2.568 2.758 0 1.62 1.189 2.758 2.568 2.758s2.568-1.138 2.568-2.758zm11.963 0c0 2.62-2.05 4.55-4.567 4.55-2.517 0-4.568-1.93-4.568-4.55 0-2.637 2.051-4.55 4.568-4.55 2.516 0 4.567 1.913 4.567 4.55zm-2 0c0-1.637-1.188-2.758-2.567-2.758-1.379 0-2.568 1.12-2.568 2.758 0 1.62 1.189 2.758 2.568 2.758 1.378 0 2.568-1.138 2.568-2.758zm11.55-4.274v8.17c0 3.36-1.982 4.739-4.326 4.739-2.206 0-3.533-1.483-4.033-2.69l1.74-.723c.311.741 1.069 1.62 2.293 1.62 1.5 0 2.43-.93 2.43-2.67v-.656h-.068c-.449.552-1.31 1.034-2.396 1.034-2.275 0-4.36-1.982-4.36-4.533 0-2.568 2.085-4.567 4.36-4.567 1.086 0 1.947.483 2.396 1.018h.068v-.742h1.896zm-1.758 4.291c0-1.602-1.068-2.775-2.43-2.775-1.379 0-2.533 1.173-2.533 2.775 0 1.586 1.154 2.741 2.533 2.741 1.361 0 2.43-1.155 2.43-2.74zm5.144-9.073v13.33H63.09v-13.33h2zm7.722 10.555l1.55 1.034c-.5.742-1.706 2.017-3.791 2.017-2.586 0-4.516-2-4.516-4.55 0-2.707 1.948-4.551 4.292-4.551 2.361 0 3.516 1.879 3.895 2.896l.207.517-6.084 2.516c.465.914 1.19 1.379 2.206 1.379s1.723-.499 2.24-1.258zm-4.775-1.637l4.067-1.69c-.224-.568-.896-.965-1.689-.965-1.017.001-2.43.897-2.378 2.655z" fill-rule="evenodd"/><path fill="#fff" d="M2.37 495.703h96v44.284h-96z" fill-rule="evenodd"/><path fill="#ea4335" d="M515.736 346.962h223.449v85.524c-111.725 0-111.725 32.586-223.45 14.07z" fill-rule="evenodd"/><path stroke="#85200c" stroke-linejoin="round" stroke-linecap="butt" d="M515.736 346.962h223.449v85.524c-111.725 0-111.725 32.586-223.45 14.07z"/><path fill="#f3f3f3" d="M563.324 396.94q-1.484 0-2.64-.655-1.157-.672-1.798-1.813-.64-1.156-.64-2.578t.64-2.578q.641-1.156 1.797-1.813 1.157-.672 2.641-.672 1.453 0 2.61.672 1.156.657 1.796 1.813.64 1.156.64 2.578t-.64 2.578q-.64 1.14-1.797 1.813-1.156.656-2.609.656zm0-2.25q.703 0 1.297-.327.61-.344.953-.985.36-.64.36-1.484t-.36-1.469q-.344-.64-.953-.969-.594-.343-1.297-.343-.719 0-1.313.343-.593.329-.968.97-.36.624-.36 1.468 0 .828.36 1.484.375.64.968.985.594.328 1.313.328zm6.849-7.562h2.296v1.157h.141q.39-.61 1.14-1.032.75-.422 1.72-.422 1.28 0 2.328.641 1.062.64 1.656 1.797.594 1.156.594 2.625t-.594 2.625q-.594 1.14-1.656 1.781-1.047.64-2.329.64-.968 0-1.734-.405-.75-.407-1.125-1.032h-.14l.14 1.344v3.828h-2.437v-13.547zm4.859 7.563q.687 0 1.281-.36.61-.359.953-.984.36-.64.36-1.453 0-.828-.36-1.453-.343-.64-.953-.985-.594-.343-1.281-.343-.672 0-1.266.343-.593.344-.953.985-.344.625-.344 1.453 0 .812.344 1.453.36.625.953.984.594.36 1.266.36zm11.041 2.11q-.703 0-1.297-.22-.593-.218-.968-.593-.875-.844-.875-2.391v-4.375h-1.672v-2.094h1.672v-2.687h2.437v2.687h2.328v2.094h-2.328v3.938q0 .718.313 1.046.265.297.906.297.344 0 .578-.093.234-.094.61-.329v2.391q-.798.328-1.704.328zm5.048-10.72q-.656 0-1.125-.468-.468-.47-.468-1.11 0-.656.468-1.11.47-.468 1.125-.468.657 0 1.11.469.453.453.453 1.11 0 .64-.453 1.109-.453.468-1.11.468zm-1.234 1.047h2.438v9.516h-2.438v-9.516zm4.993 0h2.297v1.188h.156q.438-.688 1.188-1.078.765-.407 1.703-.407 1 0 1.75.485.75.469 1.062 1.187.469-.734 1.281-1.203.813-.469 1.907-.469 1.625 0 2.468 1 .86 1 .86 2.688v6.125h-2.422v-5.672q0-.89-.422-1.375-.422-.484-1.172-.484-.953 0-1.531.75-.563.75-.563 1.984v4.797h-2.437v-5.672q0-.89-.438-1.375-.437-.484-1.234-.484-.906 0-1.453.75t-.547 1.984v4.797h-2.453v-9.516zm18.386-1.047q-.656 0-1.125-.468-.468-.47-.468-1.11 0-.656.468-1.11.47-.468 1.125-.468.657 0 1.11.469.453.453.453 1.11 0 .64-.453 1.109-.453.468-1.11.468zm-1.234 1.047h2.438v9.516h-2.438v-9.516zm4.509 7.516l4.968-5.438h-4.812v-2.078h7.812v2l-4.953 5.438h5.11v2.078h-8.125v-2zm14.486 2.297q-1.422 0-2.562-.64-1.141-.657-1.782-1.798-.64-1.156-.64-2.593 0-1.36.625-2.532.64-1.172 1.75-1.86 1.125-.687 2.515-.687 1.47 0 2.532.641 1.062.625 1.609 1.734.562 1.094.562 2.438 0 .422-.062.828h-7.14q.187 1.125.906 1.719.718.594 1.718.594.844 0 1.453-.36.61-.375.954-.984l1.984.969q-1.453 2.53-4.422 2.53zm2.25-6.203q-.031-.453-.328-.891-.281-.437-.797-.719-.516-.297-1.203-.297-.875 0-1.5.516-.625.5-.906 1.39h4.734zm8.326 6.203q-1.281 0-2.344-.64-1.046-.641-1.656-1.782-.61-1.156-.61-2.625t.61-2.625q.61-1.156 1.656-1.797 1.063-.64 2.344-.64.969 0 1.719.421.75.422 1.14 1.032h.141l-.14-1.344v-3.656h2.421v13.359h-2.28v-1.14h-.141q-.375.624-1.141 1.03-.75.407-1.719.407zm.406-2.25q.688 0 1.282-.36.61-.359.953-.984.36-.64.36-1.453 0-.828-.36-1.453-.344-.64-.953-.985-.594-.343-1.282-.343-.671 0-1.265.343-.594.344-.953.985-.36.625-.36 1.453 0 .812.36 1.453.36.625.953.984.594.36 1.265.36zm6.085 1.953zm10.038.297q-1.438 0-2.579-.64-1.14-.641-1.78-1.798-.641-1.156-.641-2.61 0-1.468.64-2.608.64-1.141 1.781-1.797 1.141-.657 2.579-.657 1.578 0 2.718.688 1.14.672 1.64 1.922l-2.233.937q-.594-1.265-2.125-1.265-1.125 0-1.844.765-.719.766-.719 2.016 0 1.266.719 2.031.719.766 1.844.766 1.546 0 2.234-1.344l2.219.969q-.61 1.25-1.75 1.937-1.14.688-2.703.688zm10.768 0q-1.485 0-2.64-.656-1.157-.672-1.798-1.813-.64-1.156-.64-2.578t.64-2.578q.64-1.156 1.797-1.813 1.156-.672 2.64-.672 1.454 0 2.61.672 1.156.657 1.797 1.813.64 1.156.64 2.578t-.64 2.578q-.64 1.14-1.797 1.813-1.156.656-2.61.656zm0-2.25q.703 0 1.297-.328.609-.344.953-.985.36-.64.36-1.484t-.36-1.469q-.344-.64-.953-.969-.594-.343-1.297-.343-.72 0-1.313.343-.594.329-.969.97-.359.624-.359 1.468 0 .828.36 1.484.374.64.968.985.594.328 1.313.328zm11.005 2.25q-1.282 0-2.344-.64-1.047-.641-1.656-1.782-.61-1.156-.61-2.625t.61-2.625q.609-1.156 1.656-1.797 1.062-.64 2.344-.64.968 0 1.718.421.75.422 1.14 1.032h.142l-.141-1.344v-3.656h2.422v13.359h-2.281v-1.14h-.141q-.375.624-1.14 1.03-.75.407-1.72.407zm.406-2.25q.687 0 1.281-.36.61-.359.953-.984.36-.64.36-1.453 0-.828-.36-1.453-.344-.64-.953-.985-.594-.343-1.281-.343-.672 0-1.266.343-.594.344-.953.985-.36.625-.36 1.453 0 .812.36 1.453.36.625.953.984.594.36 1.266.36zm11.74 2.25q-1.421 0-2.562-.64-1.14-.657-1.781-1.798-.64-1.156-.64-2.593 0-1.36.624-2.532.64-1.172 1.75-1.86 1.125-.687 2.516-.687 1.469 0 2.531.641 1.063.625 1.61 1.734.562 1.094.562 2.438 0 .422-.062.828h-7.141q.187 1.125.906 1.719.719.594 1.719.594.844 0 1.453-.36.61-.375.953-.984l1.985.969q-1.454 2.53-4.422 2.53zm2.25-6.203q-.03-.453-.327-.891-.282-.437-.797-.719-.516-.297-1.203-.297-.875 0-1.5.516-.625.5-.907 1.39h4.735z"/><path fill="#ea4335" d="M230.034 371.848c0-7.851 6.364-14.215 14.215-14.215h174.467a14.215 14.215 0 0 1 14.216 14.215v56.86c0 7.852-6.365 14.216-14.216 14.216H244.25c-7.85 0-14.215-6.364-14.215-14.215z" fill-rule="evenodd"/><path stroke="#5b0f00" stroke-linejoin="round" stroke-linecap="butt" d="M230.034 371.848c0-7.851 6.364-14.215 14.215-14.215h174.467a14.215 14.215 0 0 1 14.216 14.215v56.86c0 7.852-6.365 14.216-14.216 14.216H244.25c-7.85 0-14.215-6.364-14.215-14.215z"/><path fill="#f3f3f3" d="M292.873 396.23h-3.734v-2.391h9.984v2.39h-3.734v10.97h-2.516v-10.97zm11.36 11.265q-1.718 0-2.609-1.062-.89-1.063-.89-2.97v-5.78h2.437v5.484q0 .969.469 1.531.469.547 1.234.547 1.047 0 1.657-.766.609-.765.609-1.953v-4.843h2.453v9.515h-2.297v-1.187h-.156q-.422.687-1.203 1.093-.766.391-1.703.391zm7.738-9.812h2.297v1.265h.156q.36-.672 1.094-1.11.75-.437 1.64-.437.657 0 1.204.203v2.454q-.5-.188-.86-.266-.343-.094-.734-.094-1.078 0-1.719.781-.625.782-.625 1.985v4.734h-2.453v-9.515zm13.279 9.812q-.984 0-1.734-.406t-1.125-1.031h-.157v1.14h-2.297v-13.36h2.454v3.657l-.157 1.344h.157q.39-.61 1.125-1.031.75-.422 1.734-.422 1.281 0 2.328.64 1.063.641 1.656 1.797.594 1.156.594 2.625t-.594 2.625q-.593 1.14-1.656 1.781-1.047.641-2.328.641zm-.438-2.25q.688 0 1.282-.36.61-.359.953-.984.36-.64.36-1.453 0-.828-.36-1.453-.344-.64-.953-.984-.594-.344-1.282-.344-.671 0-1.265.344-.594.343-.953.984-.36.625-.36 1.453 0 .813.36 1.453.36.625.953.985.594.36 1.265.36zm11.46 2.25q-1.484 0-2.64-.656-1.157-.672-1.797-1.813-.641-1.156-.641-2.578t.64-2.578q.641-1.156 1.797-1.812 1.157-.672 2.641-.672 1.453 0 2.61.672 1.156.656 1.796 1.812.64 1.156.64 2.578t-.64 2.578q-.64 1.141-1.797 1.813-1.156.656-2.609.656zm0-2.25q.703 0 1.297-.328.61-.344.953-.984.36-.641.36-1.485 0-.844-.36-1.469-.344-.64-.953-.968-.594-.344-1.297-.344-.719 0-1.312.344-.594.328-.97.968-.359.625-.359 1.47 0 .827.36 1.484.375.64.969.984.593.328 1.312.328zm7.255-11.406h8.469v2.39h-5.953v3.25h5.359v2.391h-5.36v5.328h-2.515v-13.36zm13.268 13.656q-1.516 0-2.484-.875-.969-.89-.969-2.328 0-.953.5-1.672.5-.734 1.375-1.125.89-.39 1.953-.39 1.469 0 2.516.421v-.406q0-.781-.594-1.266-.578-.484-1.578-.484-.672 0-1.297.313-.625.296-1.031.796l-1.563-1.234q.688-.89 1.735-1.375 1.046-.484 2.265-.484 2.188 0 3.328 1.015 1.141 1 1.141 2.938v5.86h-2.406v-.97h-.157q-.421.563-1.125.922-.703.344-1.609.344zm.578-1.906q1.063 0 1.688-.672.625-.688.625-1.594-.953-.453-2-.453-1.907 0-1.907 1.422 0 .578.407.937.422.36 1.187.36zm6.966-7.906h2.297v1.187h.156q.422-.687 1.204-1.078.796-.406 1.703-.406 1.718 0 2.61 1.047.905 1.046.905 2.859v5.906h-2.453v-5.61q0-.921-.469-1.421-.468-.5-1.296-.5-1 0-1.61.766-.594.765-.594 1.921v4.844h-2.453v-9.515z"/><path fill="#38761d" d="M226.027 114.85c0-6.866 5.565-12.431 12.43-12.431h161.344a12.43 12.43 0 0 1 12.43 12.43v49.722c0 6.865-5.565 12.43-12.43 12.43H238.457c-6.865 0-12.43-5.565-12.43-12.43z" fill-rule="evenodd"/><path stroke="#274e13" stroke-linejoin="round" stroke-linecap="butt" d="M226.027 114.85c0-6.866 5.565-12.431 12.43-12.431h161.344a12.43 12.43 0 0 1 12.43 12.43v49.722c0 6.865-5.565 12.43-12.43 12.43H238.457c-6.865 0-12.43-5.565-12.43-12.43z"/><path fill="#f3f3f3" d="M286.1 133.27h2.515v13.36H286.1v-13.36zm9.606 17.688q-1.812 0-3.016-.812-1.187-.813-1.593-1.954l2.297-.921q.296.703.906 1.109.625.422 1.406.422 1.156 0 1.828-.719.688-.703.688-2.016v-.75h-.14q-.454.641-1.188.985-.72.328-1.657.328-1.172 0-2.187-.61-1.016-.609-1.64-1.718-.61-1.11-.61-2.578 0-1.47.61-2.578.624-1.11 1.64-1.72 1.015-.609 2.187-.609.938 0 1.657.344.734.328 1.187.969h.14v-1.016h2.36v8.86q0 1.53-.61 2.64-.593 1.125-1.702 1.735-1.094.61-2.563.61zm.031-6.547q1.032 0 1.75-.719.735-.718.735-1.968 0-1.282-.719-1.985-.719-.703-1.766-.703-1.03 0-1.765.719-.735.703-.735 1.969 0 1.265.735 1.984.734.703 1.765.703zm7.22-7.297h2.297v1.188h.156q.422-.688 1.203-1.078.797-.407 1.703-.407 1.72 0 2.61 1.047.906 1.047.906 2.86v5.906h-2.453v-5.61q0-.921-.469-1.421t-1.297-.5q-1 0-1.61.765-.593.766-.593 1.922v4.844h-2.453v-9.516zm12.566-1.047q-.657 0-1.125-.468-.469-.47-.469-1.11 0-.656.469-1.11.468-.468 1.125-.468.656 0 1.11.469.452.453.452 1.11 0 .64-.453 1.109-.453.468-1.11.468zm-1.235 1.047h2.438v9.516h-2.438v-9.516zm9.134 9.672q-.703 0-1.297-.219-.594-.218-.969-.593-.875-.844-.875-2.39v-4.376h-1.672v-2.094h1.672v-2.687h2.438v2.687h2.328v2.094h-2.328v3.938q0 .718.312 1.046.266.297.906.297.344 0 .579-.093.234-.094.609-.329v2.391q-.797.328-1.703.328zm5.048-10.719q-.656 0-1.125-.468-.469-.47-.469-1.11 0-.656.47-1.11.468-.468 1.124-.468.656 0 1.11.469.453.453.453 1.11 0 .64-.453 1.109-.454.468-1.11.468zm-1.234 1.047h2.437v9.516h-2.437v-9.516zm9.555 9.813q-1.484 0-2.64-.656-1.157-.672-1.797-1.813-.641-1.156-.641-2.578t.64-2.578q.641-1.156 1.798-1.813 1.156-.672 2.64-.672 1.453 0 2.61.672 1.156.657 1.796 1.813.641 1.156.641 2.578t-.64 2.578q-.641 1.14-1.797 1.813-1.157.656-2.61.656zm0-2.25q.703 0 1.297-.328.61-.344.953-.985.36-.64.36-1.484t-.36-1.469q-.344-.64-.953-.969-.594-.343-1.297-.343-.719 0-1.312.343-.594.329-.97.97-.358.624-.358 1.468 0 .828.359 1.484.375.64.969.985.593.328 1.312.328zm6.911-7.563H346v1.188h.156q.422-.688 1.204-1.078.796-.407 1.703-.407 1.718 0 2.609 1.047.906 1.047.906 2.86v5.906h-2.453v-5.61q0-.921-.469-1.421-.468-.5-1.296-.5-1 0-1.61.765-.594.766-.594 1.922v4.844h-2.453v-9.516z"/><path fill="#6aa84f" d="M505.268 86.392h223.449v85.524c-111.725 0-111.725 32.586-223.45 14.071z" fill-rule="evenodd"/><path stroke="#38761d" stroke-linejoin="round" stroke-linecap="butt" d="M505.268 86.392h223.449v85.524c-111.725 0-111.725 32.586-223.45 14.071z"/><path fill="#fff" d="M580.396 136.371q-.984 0-1.734-.406t-1.125-1.031h-.156v1.14h-2.297v-13.36h2.453v3.657l-.156 1.344h.156q.39-.61 1.125-1.031.75-.422 1.734-.422 1.282 0 2.328.64 1.063.64 1.657 1.797.593 1.156.593 2.625t-.593 2.625q-.594 1.14-1.657 1.781-1.046.641-2.328.641zm-.437-2.25q.687 0 1.281-.36.61-.359.953-.984.36-.64.36-1.453 0-.828-.36-1.453-.344-.64-.953-.984-.594-.344-1.281-.344-.672 0-1.266.344-.594.343-.953.984-.36.625-.36 1.453 0 .813.36 1.453.36.625.953.985.594.359 1.266.359zm9.866 1.5l-4-9.062h2.765l2.47 5.921h.155l2.36-5.921h2.734l-5.89 13.546h-2.626l2.032-4.484zm11.955.61q-.703 0-1.297-.22-.594-.218-.969-.593-.875-.844-.875-2.39v-4.376h-1.672v-2.093h1.672v-2.688h2.438v2.688h2.328v2.093h-2.328v3.938q0 .719.312 1.047.266.297.907.297.343 0 .578-.094.234-.094.609-.328v2.39q-.797.328-1.703.328zm8.126.14q-1.422 0-2.562-.64-1.14-.657-1.781-1.797-.641-1.157-.641-2.594 0-1.36.625-2.531.64-1.172 1.75-1.86 1.125-.687 2.516-.687 1.468 0 2.53.64 1.063.625 1.61 1.735.563 1.093.563 2.437 0 .422-.063.828h-7.14q.187 1.125.906 1.719.719.594 1.719.594.843 0 1.453-.36.61-.375.953-.984l1.984.969q-1.453 2.531-4.422 2.531zm2.25-6.203q-.03-.453-.328-.89-.281-.438-.797-.72-.515-.296-1.203-.296-.875 0-1.5.515-.625.5-.906 1.39h4.734zm8.717 6.203q-1.437 0-2.578-.64-1.14-.641-1.781-1.797-.64-1.157-.64-2.61 0-1.469.64-2.61.64-1.14 1.781-1.796 1.14-.656 2.578-.656 1.578 0 2.719.687 1.14.672 1.64 1.922l-2.234.938q-.594-1.266-2.125-1.266-1.125 0-1.844.766-.718.765-.718 2.015 0 1.266.718 2.031.72.766 1.844.766 1.547 0 2.235-1.344l2.218.969q-.61 1.25-1.75 1.938-1.14.687-2.703.687zm10.768 0q-1.484 0-2.64-.656-1.157-.672-1.797-1.813-.64-1.156-.64-2.578t.64-2.578q.64-1.156 1.797-1.812 1.156-.672 2.64-.672 1.453 0 2.61.672 1.156.656 1.797 1.812.64 1.156.64 2.578t-.64 2.578q-.641 1.14-1.797 1.813-1.157.656-2.61.656zm0-2.25q.703 0 1.297-.328.61-.344.953-.984.36-.641.36-1.485 0-.844-.36-1.469-.343-.64-.953-.968-.594-.344-1.297-.344-.718 0-1.312.344-.594.328-.969.968-.36.625-.36 1.47 0 .827.36 1.484.375.64.969.984.594.328 1.312.328zm11.005 2.25q-1.281 0-2.344-.64-1.046-.641-1.656-1.782-.61-1.156-.61-2.625t.61-2.625q.61-1.156 1.656-1.797 1.063-.64 2.344-.64.969 0 1.719.422.75.421 1.14 1.03h.141l-.14-1.343v-3.656h2.421v13.36h-2.28v-1.141h-.141q-.375.625-1.141 1.03-.75.407-1.719.407zm.406-2.25q.688 0 1.282-.36.61-.359.953-.984.36-.64.36-1.453 0-.828-.36-1.453-.344-.64-.953-.984-.594-.344-1.282-.344-.671 0-1.265.344-.594.343-.953.984-.36.625-.36 1.453 0 .813.36 1.453.36.625.953.985.594.359 1.265.359zm11.741 2.25q-1.422 0-2.562-.64-1.14-.657-1.781-1.797-.641-1.157-.641-2.594 0-1.36.625-2.531.64-1.172 1.75-1.86 1.125-.687 2.516-.687 1.468 0 2.53.64 1.063.625 1.61 1.735.563 1.093.563 2.437 0 .422-.063.828h-7.14q.187 1.125.906 1.719.719.594 1.719.594.843 0 1.453-.36.609-.375.953-.984l1.984.969q-1.453 2.531-4.422 2.531zm2.25-6.203q-.031-.453-.328-.89-.281-.438-.797-.72-.515-.296-1.203-.296-.875 0-1.5.515-.625.5-.906 1.39h4.734z"/><path d="M432.932 400.278h41.401v.063h41.402"/><path stroke="#666" stroke-width="2" stroke-linejoin="round" stroke-linecap="butt" d="M432.932 400.278h41.401v.063h29.402"/><path fill="#666" stroke="#666" stroke-width="2" stroke-linecap="butt" d="M503.735 403.645l9.076-3.304-9.076-3.303z" fill-rule="evenodd"/><path d="M412.231 139.71h46.52v.063h46.52"/><path stroke="#666" stroke-width="2" stroke-linejoin="round" stroke-linecap="butt" d="M412.231 139.71h46.52v.063h34.52"/><path fill="#666" stroke="#666" stroke-width="2" stroke-linecap="butt" d="M493.27 143.076l9.077-3.303-9.076-3.304z" fill-rule="evenodd"/><path d="M824.327 83.945l.094 355.181h-47.685l-.094-355.181z"/><path fill="#ea4335" d="M792.694 209.565q0-1.469.734-2.672t2.046-1.906q1.312-.688 3-.688 1.672 0 2.985.688 1.328.703 2.062 1.906.735 1.203.736 2.672 0 1.11-.484 1.953-.469.86-1.172 1.312v.172l1.531-.172h4.172l.001 2.782H793.04v-2.61h1.297v-.172q-.704-.422-1.173-1.297-.469-.859-.469-1.968zm2.578.468q0 .797.407 1.47.406.687 1.125 1.093.735.406 1.672.406.938 0 1.656-.406.735-.406 1.125-1.094.39-.672.39-1.469 0-.765-.39-1.453-.392-.672-1.126-1.078-.719-.406-1.656-.406-.938 0-1.672.406-.719.406-1.125 1.078-.406.688-.406 1.453zm-2.574 13.427q0-1.625.749-2.937.75-1.297 2.062-2.031 1.312-.735 2.953-.735 1.547 0 2.875.719 1.344.734 2.126 2.016.797 1.28.797 2.859 0 1.687-.733 2.89-.719 1.22-1.984 1.844-1.25.641-2.781.641-.5 0-.938-.063l-.002-8.171q-1.312.218-1.984 1.03-.656.829-.656 1.97 0 .968.407 1.656.422.687 1.125 1.094l-1.109 2.265q-2.906-1.656-2.907-5.047zm7.11 2.578q.5-.046 1-.375.515-.328.843-.921.328-.579.328-1.375 0-1-.594-1.72-.579-.702-1.579-1.03l.002 5.421zm-7.107 10.036q0-1.672.75-3 .765-1.328 2.077-2.063 1.312-.734 2.953-.734 1.625 0 2.938.734 1.328.735 2.078 2.063.766 1.328.767 3 0 1.672-.765 2.984-.75 1.328-2.078 2.063-1.312.734-2.937.734-1.64 0-2.953-.734-1.313-.735-2.08-2.063-.75-1.312-.75-2.984zm2.578 0q0 .812.376 1.5.39.687 1.11 1.093.734.407 1.718.407.969 0 1.688-.407.718-.406 1.093-1.093.39-.688.39-1.5 0-.797-.39-1.485-.376-.687-1.095-1.109-.719-.406-1.687-.406-.954 0-1.703.406-.735.422-1.125 1.11-.375.687-.375 1.484zm8.643 7.835v2.625h-1.312v.172q.703.438 1.172 1.297.485.86.485 1.969 0 1.469-.733 2.672-.734 1.203-2.062 1.875-1.313.687-2.985.687-1.687 0-3-.687-1.312-.672-2.047-1.875-.735-1.203-.735-2.672 0-1.11.468-1.985.469-.859 1.172-1.28v-.173l-1.532.172h-4.375v-2.797h15.484zm-8.64 5.563q.001.797.407 1.469.407.687 1.126 1.093.734.407 1.672.407.937 0 1.656-.407.734-.406 1.125-1.093.39-.672.39-1.47 0-.765-.391-1.452-.391-.672-1.125-1.078-.72-.407-1.657-.407t-1.672.407q-.718.406-1.124 1.078-.406.687-.406 1.453zm-2.402 12.623q0-.797.234-1.485.25-.687.687-1.11.953-1 2.719-1h5.015v-1.905h2.39v1.906h3.079v2.797h-3.077v2.656h-2.39l-.001-2.656h-4.5q-.828 0-1.187.36-.344.296-.344 1.015 0 .406.11.672.11.265.36.703h-2.735q-.36-.922-.36-1.953zm12.251 5.759q0-.735.531-1.282.531-.53 1.281-.53.735 0 1.25.53.532.547.532 1.282 0 .75-.53 1.265-.516.531-1.25.531-.75 0-1.282-.53-.531-.516-.532-1.266zm-1.203-1.407v2.797h-10.874l-.001-2.797h10.875zm.001 5.715l.001 2.625h-1.36v.172q.782.516 1.236 1.375.469.875.469 1.937 0 1.141-.546 2-.547.86-1.375 1.22.86.53 1.39 1.452.532.938.533 2.188 0 1.86-1.14 2.828-1.14.969-3.078.969h-7v-2.766h6.484q1.015 0 1.562-.484.562-.485.562-1.328 0-1.094-.86-1.75-.86-.641-2.266-.641h-5.484v-2.797h6.484q1.015 0 1.562-.5.562-.5.562-1.422 0-1.015-.86-1.656-.86-.625-2.265-.625h-5.485v-2.797h10.874zm1.21 21.008q-.001-.734.53-1.281.531-.531 1.281-.531.735 0 1.25.53.532.548.532 1.282 0 .75-.53 1.266-.516.531-1.25.531-.75 0-1.282-.531-.532-.516-.532-1.266zm-1.204-1.406v2.797H793.06v-2.797h10.875zm-8.593 5.168l6.236 5.672-.001-5.5h2.36l.001 8.937h-2.28l-6.221-5.672.002 5.844h-2.375l-.003-9.281h2.281zm-2.62 16.555q0-1.625.749-2.938.75-1.297 2.062-2.031 1.312-.734 2.953-.734 1.547 0 2.875.718 1.344.735 2.126 2.016.797 1.281.797 2.86 0 1.687-.733 2.89-.719 1.219-1.984 1.844-1.25.64-2.781.64-.5 0-.938-.062l-.002-8.172q-1.312.219-1.984 1.031-.656.828-.656 1.969 0 .969.407 1.656.422.688 1.125 1.094l-1.109 2.266q-2.906-1.657-2.907-5.047zm7.11 2.578q.5-.047 1-.375.515-.328.843-.922.328-.578.328-1.375 0-1-.594-1.719-.579-.703-1.579-1.031l.002 5.422z"/><path d="M616.992 185.987c0 44.334-71.378 67.211-142.756 88.668-71.378 21.456-142.756 41.493-142.756 82.986"/><path stroke="#666" stroke-width="2" stroke-linejoin="round" stroke-linecap="butt" stroke-dasharray="8.0,6.0" d="M616.992 185.987c0 44.334-71.378 67.211-142.756 88.668-35.689 10.728-71.378 21.101-98.144 33.98-13.384 6.438-24.536 13.503-32.343 21.552-3.904 4.024-6.971 8.294-9.062 12.855a36.796 36.796 0 0 0-1.073 2.596l-.065.182"/><path fill="#666" stroke="#666" stroke-width="2" stroke-linecap="butt" d="M330.295 345.25l1.69 9.51 4.818-8.37z" fill-rule="evenodd"/><path d="M151.598 446.659l.095-353.323h45.795l-.094 353.323z"/><path fill="#34a853" d="M182.357 308.448q0 1.672-.751 3-.766 1.328-2.079 2.062-1.312.735-2.953.735-1.625 0-2.937-.735-1.328-.734-2.078-2.062-.765-1.328-.765-3t.767-2.985q.75-1.328 2.078-2.062 1.313-.734 2.938-.734 1.64 0 2.953.734 1.312.734 2.078 2.062.75 1.313.749 2.985zm-2.578 0q0-.813-.375-1.5-.39-.688-1.109-1.094-.734-.406-1.719-.406-.968 0-1.687.406-.72.406-1.094 1.094-.391.687-.391 1.5 0 .797.39 1.484.375.688 1.093 1.11.719.406 1.688.406.953 0 1.703-.406.734-.422 1.125-1.11.375-.687.376-1.484zm-8.639-7.836v-2.625h1.313v-.172q-.703-.437-1.171-1.297-.484-.859-.484-1.968 0-1.47.735-2.672.735-1.203 2.063-1.875 1.313-.688 2.985-.688 1.687 0 3 .688 1.312.672 2.046 1.875.734 1.203.733 2.672 0 1.11-.469 1.984-.469.86-1.172 1.281v.172l1.531-.172h4.375v2.797H171.14zm8.642-5.562q0-.797-.406-1.47-.406-.687-1.124-1.093-.735-.406-1.672-.406-.938 0-1.656.406-.735.406-1.126 1.094-.39.672-.39 1.469-.001.765.39 1.453.39.672 1.124 1.078.719.406 1.656.406.938 0 1.672-.406.72-.406 1.126-1.078.406-.688.406-1.453zm2.41-12.623q0 .797-.235 1.484-.25.688-.688 1.11-.953 1-2.719 1h-5.015v1.906h-2.391v-1.906h-3.078v-2.797h3.079v-2.656h2.391v2.656h4.5q.828 0 1.187-.36.344-.296.344-1.015 0-.406-.11-.672-.108-.266-.358-.703h2.734q.36.922.359 1.953zm-12.249-5.759q0 .734-.531 1.281-.532.531-1.282.531-.734 0-1.25-.53-.53-.548-.53-1.282 0-.75.531-1.266.516-.53 1.25-.53.75 0 1.281.53.532.516.531 1.266zm1.203 1.406v-2.797h10.876v2.797h-10.876zm.002-5.714v-2.625h1.36v-.172q-.781-.516-1.234-1.375-.469-.875-.468-1.938 0-1.14.547-2 .547-.86 1.375-1.219-.859-.53-1.39-1.453-.53-.937-.53-2.187 0-1.86 1.14-2.828 1.142-.97 3.08-.97h7l-.002 2.767h-6.484q-1.016 0-1.563.484-.562.484-.562 1.328 0 1.094.858 1.75.86.64 2.266.64h5.484v2.798h-6.485q-1.015 0-1.562.5-.563.5-.563 1.421 0 1.016.859 1.657.859.625 2.265.625h5.484v2.797h-10.875zm-1.198-21.009q0 .735-.531 1.282-.532.53-1.282.53-.734 0-1.25-.53-.53-.547-.53-1.282 0-.75.531-1.265.516-.531 1.25-.531.75 0 1.281.53.531.516.531 1.266zm1.203 1.407v-2.797h10.876l-.001 2.797h-10.875zm8.595-5.168l-6.233-5.672-.001 5.5h-2.36l.003-8.938h2.281l6.217 5.672.002-5.843h2.375l-.003 9.28h-2.281zm2.63-16.555q-.001 1.625-.751 2.937-.75 1.297-2.063 2.032-1.313.734-2.954.734-1.547 0-2.874-.719-1.344-.734-2.125-2.015-.796-1.282-.796-2.86 0-1.687.735-2.89.72-1.22 1.985-1.844 1.25-.64 2.781-.64.5 0 .938.062l-.002 8.172q1.312-.22 1.984-1.032.657-.828.657-1.968 0-.97-.406-1.657-.421-.687-1.124-1.093l1.11-2.266q2.905 1.656 2.904 5.047zm-7.11-2.578q-.5.047-1 .375-.515.328-.843.922-.329.578-.329 1.375 0 1 .593 1.718.578.703 1.578 1.032l.002-5.422z"/><path d="M307.664 282.85l225.45-69.513 13.48 43.811-225.45 69.512z"/><path fill="#666" d="M363.803 292.593l-3.494 1.078 1.066 3.464-2.359.728-1.066-3.465-3.464 1.068-.726-2.36 3.464-1.068-1.066-3.464 2.36-.728 1.065 3.465 3.494-1.077.726 2.36zm2.618 3.951zm2.796-12.242l2.508-.773.386 1.254.165-.05q.21-.802.894-1.503.679-.716 1.74-1.043 1.403-.433 2.768-.085 1.366.347 2.399 1.419 1.043 1.052 1.534 2.65.497 1.612.226 3.07-.256 1.452-1.19 2.508-.934 1.057-2.337 1.49-1.06.326-2.035.136-.959-.195-1.569-.743l-.164.051.615 1.413 1.286 4.182-2.672.824-4.554-14.8zm7.857 6.62q.761-.235 1.284-.821.537-.591.714-1.398.172-.822-.104-1.718-.275-.896-.875-1.463-.604-.582-1.376-.753-.757-.175-1.518.06-.732.225-1.274.801-.527.571-.7 1.393-.176.807.1 1.703.275.896.88 1.478.599.567 1.36.757.777.186 1.509-.04zm4.997-10.583l2.508-.774.427 1.39.165-.051q.163-.852.822-1.578.67-.746 1.655-1.05.717-.221 1.368-.177l.823 2.673q-.613-.023-1.013.002-.406.01-.839.144-1.18.364-1.615 1.446-.425 1.063-.025 2.363l1.595 5.182-2.673.824-3.198-10.394zm16.974 6.506q-1.598.493-3.087.167-1.495-.34-2.583-1.378-1.087-1.038-1.57-2.607-.478-1.553-.162-3.024.311-1.485 1.36-2.593 1.044-1.124 2.642-1.616 1.597-.493 3.077-.148 1.49.326 2.582 1.379 1.088 1.038 1.565 2.591.483 1.568.167 3.039-.316 1.47-1.36 2.594-1.033 1.103-2.631 1.596zm-.758-2.464q.776-.24 1.323-.8.542-.576.719-1.383.172-.822-.117-1.762-.285-.926-.885-1.494-.6-.567-1.367-.723-.772-.17-1.548.069-.762.235-1.304.81-.546.562-.738 1.373-.177.806.108 1.732.28.911.889 1.509.62.577 1.391.748.767.156 1.529-.08zm6.844-8.65l-1.851.57-.704-2.285 1.852-.57-.175-.568q-.546-1.777.206-3.105.747-1.342 2.465-1.871.985-.304 1.756-.297l.8 2.599q-.435-.03-.756-.012-.312-.003-.7.117-.672.207-.97.725-.284.512-.077 1.184l.124.403 2.553-.787.703 2.285-2.553.787 2.495 8.11-2.673.824-2.495-8.11zm7.749-6.15q-.702.216-1.38-.13-.665-.352-.885-1.069-.216-.702.14-1.351.366-.669 1.068-.885.717-.221 1.366.135.659.336.875 1.038.22.717-.13 1.38-.337.66-1.054.881zm-.99 1.564l2.673-.824 3.198 10.394-2.673.824-3.198-10.394zm4.17-5.88l2.672-.825 4.49 14.591-2.673.824-4.49-14.59zm7.744.947q-.701.217-1.38-.13-.664-.351-.885-1.068-.216-.702.14-1.351.367-.67 1.068-.886.717-.22 1.366.135.66.337.875 1.038.221.717-.13 1.382-.337.66-1.054.88zm-.99 1.564l2.673-.824 3.198 10.394-2.672.825-3.199-10.395zm5.461-1.683l2.509-.774.4 1.3.164-.051q.248-.894.966-1.59.713-.71 1.713-1.019 1.882-.58 3.206.271 1.335.831 1.941 2.803l1.99 6.466-2.673.824-1.888-6.138q-.308-1-.981-1.382-.678-.396-1.604-.11-1.075.331-1.49 1.375-.404 1.024-.013 2.293l1.631 5.302-2.672.824-3.199-10.394zm21.657 9.886q-1.971.608-3.561.117-1.57-.48-2.4-1.582l2.192-1.804q.567.675 1.377.916.81.24 1.661-.022 1.27-.391 1.762-1.393.512-.992.07-2.426l-.252-.821-.164.05q-.262.85-.953 1.472-.681.602-1.697.915-1.284.396-2.606.084-1.312-.33-2.356-1.333-1.044-1.003-1.54-2.616-.496-1.613-.197-3.03.3-1.416 1.203-2.414.913-1.017 2.197-1.413 1.015-.313 1.922-.184.916.11 1.61.664l.164-.05-.34-1.105 2.568-.792 2.978 9.677q.515 1.673.234 3.1-.265 1.422-1.272 2.452-.988 1.04-2.6 1.538zm-2.157-7.167q1.12-.346 1.668-1.381.548-1.036.13-2.395-.432-1.403-1.458-1.921-1.015-.537-2.15-.187-1.15.354-1.702 1.375-.553 1.02-.125 2.41.427 1.388 1.457 1.92 1.03.533 2.18.179zm7.326.39zm10.634-2.92q-1.404.434-2.77.086-1.365-.347-2.423-1.395-1.043-1.051-1.54-2.664-.49-1.598-.22-3.055.281-1.477 1.215-2.533.934-1.057 2.337-1.49 1.06-.326 2.01-.112.958.195 1.598.733l.164-.05-.614-1.413-1.227-3.987 2.658-.82 4.49 14.59-2.494.77-.382-1.24-.164.05q-.196.797-.895 1.503-.683.701-1.743 1.028zm-.31-2.601q.761-.235 1.284-.821.537-.591.714-1.398.172-.822-.103-1.718-.276-.896-.876-1.463-.604-.582-1.376-.753-.757-.175-1.518.06-.732.225-1.274.801-.527.571-.7 1.393-.176.807.1 1.703.275.896.88 1.478.599.567 1.36.757.777.186 1.509-.04zm11.886-.968q-1.642.507-3-.137-1.36-.644-1.842-2.212-.322-1.045-.028-2.003.31-.961 1.136-1.674.837-.732 2.002-1.092 1.598-.492 2.89-.384l-.138-.448q-.262-.851-1.065-1.176-.807-.34-1.882-.008-.747.23-1.328.786-.57.535-.849 1.226l-2.13-.815q.458-1.22 1.432-2.093.984-.892 2.328-1.306 2.374-.732 3.953-.01 1.59.704 2.242 2.825l1.972 6.407-2.628.81-.326-1.06-.165.05q-.274.755-.931 1.383-.642.623-1.643.931zm.004-2.273q1.15-.355 1.607-1.313.457-.959.149-1.96-1.197-.17-2.332.18-2.075.64-1.597 2.193.193.627.765.892.572.265 1.408.008zm12.724-1.83q-.762.234-1.488.213-.73-.037-1.262-.33-1.236-.617-1.755-2.304l-1.475-4.794-1.822.562-.703-2.285 1.822-.562-.906-2.942 2.673-.824.905 2.942 2.539-.783.703 2.285-2.539.783 1.324 4.3q.243.792.693 1.03.384.241 1.071.03.388-.12.61-.303.222-.183.566-.551l.804 2.613q-.775.616-1.76.92zm7.226-2.049q-1.643.507-3.001-.137-1.36-.644-1.842-2.212-.321-1.045-.027-2.003.309-.962 1.135-1.674.838-.733 2.002-1.092 1.598-.492 2.89-.384l-.138-.448q-.262-.851-1.064-1.176-.808-.34-1.883-.008-.747.23-1.328.785-.57.536-.848 1.227l-2.131-.815q.458-1.22 1.432-2.093.984-.892 2.328-1.306 2.374-.732 3.954-.01 1.59.704 2.242 2.825l1.971 6.407-2.628.81-.326-1.06-.164.05q-.275.755-.932 1.383-.642.623-1.642.931zm.003-2.273q1.15-.355 1.607-1.313.457-.959.15-1.96-1.198-.17-2.332.18-2.076.64-1.598 2.193.193.627.765.892.572.265 1.408.008z"/><path d="M739.185 400.285c18.694 0 38.694-65.142 37.387-130.284-1.307-65.141-23.922-130.283-47.844-130.283"/><path stroke="#ea4335" stroke-width="2" stroke-linejoin="round" stroke-linecap="butt" stroke-dasharray="8.0,6.0" d="M739.185 400.285c18.694 0 38.695-65.142 37.387-130.284-.653-32.57-6.634-65.141-15.441-89.57-4.404-12.214-9.514-22.392-15.019-29.517-1.376-1.781-2.777-3.372-4.197-4.755a34.5 34.5 0 0 0-1.876-1.696l-.214-.177"/><path fill="#ea4335" stroke="#ea4335" stroke-width="2" stroke-linecap="butt" d="M741.082 141.231l-9.65-.4 7.135 6.51z" fill-rule="evenodd"/><path d="M226.027 139.71c-12.5 0-25.5 65.142-25 130.283.5 65.142 14.5 130.284 29 130.284"/><path stroke="#34a853" stroke-width="2" stroke-linejoin="round" stroke-linecap="butt" stroke-dasharray="8.0,6.0" d="M226.027 139.71c-12.5 0-25.5 65.142-25 130.283.25 32.571 3.875 65.142 9.25 89.57 2.687 12.214 5.812 22.393 9.172 29.518a53.346 53.346 0 0 0 1.59 3.112l.047.08"/><path fill="#34a853" stroke="#34a853" stroke-width="2" stroke-linecap="butt" d="M218.882 394.735l8.966 3.592-4.56-8.515z" fill-rule="evenodd"/><path d="M757.096-.001h202.903v202.903H757.096z"/></g></svg>