<svg viewBox="0 0 960 540" fill="none" stroke-linecap="square" stroke-miterlimit="10" xmlns="http://www.w3.org/2000/svg"><clipPath id="a"><path d="M0 0h960v540H0V0z"/></clipPath><g clip-path="url(#a)"><path fill="#fff" d="M0 0h960v540H0z" fill-rule="evenodd"/><path fill="#fbbc05" fill-opacity=".377" d="M501.163 305.156H879.87v26.173H501.163z" fill-rule="evenodd"/><path stroke="#666" stroke-linejoin="round" stroke-linecap="butt" d="M501.163 305.156H879.87v26.173H501.163z"/><path fill="#000" d="M511.256 319.806q0-.953.235-1.735.234-.796.672-1.359.437-.578 1.062-.89.625-.329 1.406-.329.782 0 1.375.282.594.265 1 .796l.079-.921h1.312v8.265q0 .844-.266 1.485-.265.656-.734 1.109-.469.453-1.125.687-.656.235-1.453.235-.328 0-.75-.078-.422-.063-.86-.235-.437-.172-.843-.453-.39-.281-.688-.687l.75-.875q.266.328.547.547.281.218.563.343.297.14.578.203.297.063.594.063.515 0 .921-.156.422-.141.704-.438.296-.281.453-.703.156-.422.156-.969v-.734q-.422.484-1 .75-.563.25-1.328.25-.766 0-1.39-.328-.626-.328-1.063-.906-.438-.579-.672-1.36-.235-.797-.235-1.703v-.156zm1.454.156q0 .625.125 1.188.125.546.406.968.281.422.703.672.437.235 1.031.235.375 0 .672-.079.313-.093.547-.25.234-.171.422-.39.187-.235.328-.516v-3.875q-.14-.265-.328-.484-.188-.219-.438-.375-.234-.156-.53-.25-.298-.094-.657-.094-.61 0-1.047.25-.422.25-.703.688-.281.421-.406.984-.125.547-.125 1.172v.156zm12.148 4.297q-.89 0-1.64-.297-.735-.312-1.266-.86-.531-.546-.828-1.296-.297-.75-.297-1.64v-.329q0-1.016.328-1.828.328-.813.86-1.36.546-.562 1.234-.859.703-.297 1.422-.297.921 0 1.593.313.688.312 1.14.875.454.562.673 1.328.234.75.234 1.625v.656h-6.047q.032.578.219 1.094.203.5.547.875.36.375.844.594.484.218 1.062.218.781 0 1.375-.312.61-.313 1-.828l.89.687q-.218.328-.53.625-.313.282-.735.516-.406.219-.937.36-.516.14-1.141.14zm-.187-7.578q-.438 0-.829.156-.39.156-.703.469-.312.312-.531.765-.203.438-.297 1.032h4.547v-.11q-.016-.422-.156-.828-.14-.422-.406-.75t-.672-.531q-.391-.203-.953-.203zm9.476-3.078v2.047h3.219v1.109h-3.219v4.594q0 .5.125.828.125.312.344.5.219.187.5.265.297.079.61.079.234 0 .484-.016.25-.031.484-.063.25-.046.453-.093l.344-.078.203 1.03q-.188.11-.453.188-.25.078-.563.14-.297.063-.64.095-.328.03-.672.03-.563 0-1.047-.155-.484-.172-.844-.516-.36-.344-.578-.89-.203-.563-.203-1.344v-4.594h-2.219v-1.11h2.219v-2.046h1.453zm13.195 11.687h-7.156v-1.187h7.156v1.187zm9.758-5.328q0 .906-.219 1.703-.218.781-.64 1.36-.422.578-1.047.906-.625.328-1.422.328-.812 0-1.422-.281-.594-.297-1.015-.844l-.063.969h-1.328v-12h1.437v4.453q.422-.516 1-.781.594-.282 1.375-.282.813 0 1.438.328.625.313 1.047.891.422.563.64 1.36.22.78.22 1.734v.156zm-1.453-.156q0-.625-.125-1.172-.11-.563-.375-.984-.266-.438-.703-.688-.422-.25-1.047-.25-.375 0-.687.11-.313.093-.563.265-.25.172-.437.422-.188.234-.329.516v3.687q.141.281.329.531.203.235.453.422.25.172.562.266.313.094.688.094.593 0 1.015-.235.422-.25.688-.672.281-.422.406-.968.125-.563.125-1.188v-.156zm6.992 1.297l.375 1.015 2.578-6.468h1.625l-4.296 9.765q-.141.328-.375.688-.235.375-.563.687-.328.313-.766.516-.437.219-1 .219-.109 0-.234-.016l-.25-.031q-.125-.016-.234-.047-.11-.016-.172-.031l.234-1.188h.14q.095.016.188.016.11.015.203.015.094.016.157.016.297 0 .53-.172.25-.156.438-.39.204-.22.329-.47.14-.234.218-.39l.578-1.14-3.64-8.047h1.625l2.312 5.453zm13.508 4.187h-7.156v-1.187h7.156v1.187zm2.82-9.64h4.313v7.203h2.766v1.25h-7.079v-1.25h2.875V316.9h-2.875v-1.25zm2.688-2.22q0-.359.203-.609.219-.25.656-.25.438 0 .657.25.218.25.218.61 0 .344-.218.578-.22.234-.657.234-.437 0-.656-.234-.203-.234-.203-.578zm6.414 6.376q0-.953.234-1.735.235-.796.672-1.359.453-.578 1.078-.89.625-.329 1.391-.329t1.328.25q.563.25.984.735v-4.375h1.438v12h-1.328l-.063-.891q-.422.516-1.015.781-.578.266-1.36.266-.765 0-1.39-.328-.61-.328-1.047-.906-.438-.579-.688-1.36-.234-.797-.234-1.703v-.156zm1.437.156q0 .625.125 1.188.141.546.422.968.282.422.703.672.438.235 1.032.235.375 0 .672-.079.296-.093.53-.25.25-.156.438-.375.188-.234.328-.5V317.9q-.28-.516-.765-.844-.469-.344-1.188-.344-.609 0-1.047.25-.421.25-.703.688-.28.421-.422.984-.125.547-.125 1.172v.156zm18.266-7.86h4.313v10.75h2.765v1.25h-7.078v-1.25h2.875v-9.5h-2.875v-1.25zm8.961 7.688q0-.906.266-1.687.265-.797.765-1.375t1.203-.907q.72-.328 1.61-.328.89 0 1.61.328.718.329 1.202.907.5.578.766 1.375.266.78.266 1.687v.172q0 .922-.266 1.703t-.766 1.36q-.484.578-1.203.906-.703.328-1.594.328-.906 0-1.625-.328-.703-.328-1.203-.906-.5-.579-.765-1.36-.266-.781-.266-1.703v-.172zm1.453.172q0 .625.14 1.203.157.563.454 1 .297.422.75.672.453.25 1.062.25.594 0 1.032-.25.453-.25.75-.672.312-.437.453-1 .156-.578.156-1.203v-.172q0-.61-.156-1.172-.156-.578-.453-1-.297-.437-.75-.687-.453-.25-1.047-.25-.61 0-1.063.25-.437.25-.734.687-.297.422-.453 1-.14.563-.14 1.172v.172zm12.164 3.125q.39 0 .75-.125.375-.125.656-.344.297-.234.47-.531.187-.297.187-.656h1.375q-.016.562-.297 1.078-.281.516-.766.906-.469.375-1.094.61-.609.234-1.28.234-.97 0-1.688-.344-.719-.344-1.203-.922-.47-.593-.72-1.343-.234-.766-.234-1.61v-.328q0-.844.235-1.61.25-.765.719-1.343.484-.578 1.203-.922.718-.344 1.687-.344.75 0 1.375.235.625.234 1.078.656.47.406.72.969.265.562.265 1.203h-1.375q0-.39-.172-.719-.156-.344-.438-.594-.265-.265-.64-.406-.375-.156-.813-.156-.672 0-1.14.265-.454.266-.735.704-.281.437-.406.984-.11.531-.11 1.078v.328q0 .547.11 1.094.125.547.406.984.281.422.735.703.453.266 1.14.266zm13.133-3.344q0 1.094-.25 1.938-.25.828-.719 1.406-.468.578-1.156.875-.672.297-1.547.297-.86 0-1.547-.297-.687-.297-1.172-.875-.468-.578-.718-1.406-.25-.844-.25-1.938v-2.656q0-1.094.25-1.922.25-.844.718-1.422.47-.578 1.157-.875.687-.312 1.547-.312.875 0 1.562.312.688.297 1.156.875.469.578.719 1.422.25.828.25 1.922v2.656zm-5.906-.281l4.422-3.406q-.125-1.125-.657-1.719-.53-.594-1.546-.594-1.141 0-1.688.782-.531.765-.531 2.234v2.703zm4.453-2.016l-4.422 3.375q.14 1.11.688 1.688.546.578 1.515.578 1.156 0 1.688-.781.53-.781.53-2.25v-2.61zm7.586 6.313q0 .375-.094.781t-.266.797q-.171.39-.421.75-.25.36-.579.64l-.906-.484q.375-.547.531-1.172.157-.609.157-1.28v-1.407h1.578v1.375zm21.094.344q-.094-.172-.141-.407-.047-.25-.078-.515-.219.219-.485.422-.265.187-.593.343-.328.141-.703.22-.36.093-.766.093-.672 0-1.219-.188-.547-.203-.922-.53-.375-.345-.593-.798-.204-.453-.204-.984 0-.703.282-1.219.281-.531.781-.875.516-.344 1.219-.515.718-.172 1.61-.172h1.577v-.672q0-.375-.14-.672-.141-.313-.407-.531-.25-.22-.625-.328-.375-.125-.828-.125-.437 0-.781.109-.328.11-.563.297-.234.172-.375.422-.125.25-.125.515h-1.453q.016-.468.235-.906.234-.453.672-.797.437-.36 1.046-.578.625-.219 1.422-.219.72 0 1.328.172.625.172 1.063.531.453.36.703.891.266.531.266 1.234v3.938q0 .422.078.89.078.47.219.829v.125h-1.5zm-2.563-1.11q.422 0 .781-.11.375-.108.672-.28.313-.188.531-.407.22-.234.344-.484v-1.719h-1.344q-1.265 0-1.968.375-.703.375-.703 1.188 0 .312.093.578.11.266.313.453.219.188.531.297.328.11.75.11zm12.149-7.5q.203 0 .421.016.22 0 .407.031.203.031.375.078.172.032.28.078l-.202 1.407q-.422-.094-.797-.125-.375-.047-.797-.047-1.016 0-1.64.469-.626.453-.922 1.28v5.423h-1.454v-8.453h1.375l.063 1.343q.516-.703 1.234-1.093.735-.407 1.657-.407zm3.789 4.313q0-.953.234-1.735.234-.796.672-1.359.437-.578 1.062-.89.625-.329 1.407-.329.78 0 1.375.282.593.265 1 .796l.078-.921h1.312v8.265q0 .844-.265 1.485-.266.656-.735 1.109-.469.453-1.125.687-.656.235-1.453.235-.328 0-.75-.078-.422-.063-.86-.235-.437-.172-.843-.453-.39-.281-.688-.687l.75-.875q.266.328.547.547.282.218.563.343.297.14.578.203.297.063.594.063.515 0 .922-.156.421-.141.703-.438.297-.281.453-.703.156-.422.156-.969v-.734q-.422.484-1 .75-.562.25-1.328.25t-1.39-.328q-.626-.328-1.063-.906-.438-.579-.672-1.36-.234-.797-.234-1.703v-.156zm1.453.156q0 .625.125 1.188.125.546.406.968.281.422.703.672.438.235 1.031.235.375 0 .672-.079.313-.093.547-.25.234-.171.422-.39.187-.235.328-.516v-3.875q-.14-.265-.328-.484-.188-.219-.438-.375-.234-.156-.53-.25-.298-.094-.657-.094-.61 0-1.047.25-.422.25-.703.688-.281.421-.406.984-.125.547-.125 1.172v.156zm13.101 4.14h-1.437v-9.53l-2.985 1.124v-1.312l4.313-1.656h.11v11.375zm8.586-.343q0 .375-.094.781-.093.406-.265.797-.172.39-.422.75t-.578.64l-.906-.484q.375-.547.53-1.172.157-.609.157-1.28v-1.407h1.578v1.375zm19.031-4.984l2.25-3.125h1.704l-3.157 4.171 3.235 4.282h-1.672l-2.328-3.22-2.344 3.22h-1.688l3.235-4.282-3.14-4.171h1.671l2.234 3.125z"/><path fill="#fbbc05" fill-opacity=".377" d="M501.163 331.217H879.87v26.173H501.163z" fill-rule="evenodd"/><path stroke="#666" stroke-linejoin="round" stroke-linecap="butt" d="M501.163 331.217H879.87v26.173H501.163z"/><path fill="#000" d="M517.069 341.554q.203 0 .422.015.219 0 .406.032.203.03.375.078.172.031.281.078l-.203 1.406q-.422-.094-.797-.125-.375-.047-.797-.047-1.015 0-1.64.469-.625.453-.922 1.281v5.422h-1.453v-8.453h1.375l.062 1.344q.516-.703 1.235-1.094.734-.406 1.656-.406zm7.79 8.765q-.892 0-1.642-.296-.734-.313-1.265-.86-.531-.547-.828-1.297-.297-.75-.297-1.64v-.328q0-1.016.328-1.829.328-.812.86-1.359.546-.562 1.234-.86.703-.296 1.422-.296.921 0 1.593.312.688.313 1.14.875.454.563.673 1.328.234.75.234 1.625v.657h-6.047q.032.578.22 1.093.202.5.546.875.36.375.844.594.484.219 1.062.219.781 0 1.375-.313.61-.312 1-.828l.89.688q-.218.328-.53.625-.313.281-.735.515-.406.22-.937.36-.516.14-1.14.14zm-.188-7.578q-.438 0-.829.157-.39.156-.703.468-.312.313-.53.766-.204.437-.298 1.031h4.547v-.11q-.016-.421-.156-.827-.14-.422-.406-.75t-.672-.532q-.39-.203-.953-.203zm9.476-3.078v2.047h3.219v1.11h-3.219v4.593q0 .5.125.828.125.313.344.5.219.188.5.266.297.078.61.078.234 0 .484-.016.25-.03.484-.062.25-.047.453-.094l.344-.078.203 1.031q-.188.11-.453.188-.25.078-.563.14-.297.063-.64.094-.328.031-.672.031-.563 0-1.047-.156-.484-.172-.844-.515-.36-.344-.578-.891-.203-.563-.203-1.344v-4.594h-2.219v-1.109h2.219v-2.047h1.453zm11.664 9.328q-.422.625-1.062.985-.625.343-1.453.343-.657 0-1.204-.203-.53-.218-.921-.656-.375-.437-.594-1.11-.203-.671-.203-1.624v-5.016h1.453v5.031q0 .688.11 1.14.109.454.327.735.22.266.532.375.312.11.734.11.875 0 1.422-.36.547-.36.812-.968v-6.063h1.453v8.453h-1.312l-.094-1.172zm9.664-7.437q.203 0 .422.015.219 0 .406.032.203.03.375.078.172.031.282.078l-.204 1.406q-.421-.094-.796-.125-.375-.047-.797-.047-1.016 0-1.64.469-.626.453-.923 1.281v5.422h-1.453v-8.453h1.375l.063 1.344q.515-.703 1.234-1.094.734-.406 1.656-.406zm5.352.156l.11 1.25q.452-.656 1.124-1.031.672-.375 1.5-.375.672 0 1.203.187.547.188.922.594.39.39.594 1 .219.61.219 1.453v5.375h-1.453v-5.344q0-.562-.125-.953-.125-.39-.375-.625-.235-.25-.594-.36-.36-.108-.813-.108-.734 0-1.28.375-.548.359-.876.953v6.062h-1.453v-8.453h1.297zm18.14-3.547h4.313v10.75h2.766v1.25h-7.079v-1.25h2.875v-9.5h-2.875v-1.25zm8.961 7.688q0-.907.266-1.688.266-.797.766-1.375t1.203-.906q.718-.328 1.61-.328.89 0 1.608.328.72.328 1.204.906.5.578.765 1.375.266.781.266 1.688v.172q0 .921-.266 1.703-.265.78-.765 1.359-.485.578-1.204.906-.703.328-1.593.328-.907 0-1.625-.328-.703-.328-1.203-.906-.5-.578-.766-1.36-.266-.78-.266-1.702v-.172zm1.453.172q0 .625.141 1.203.156.562.453 1 .297.422.75.672.453.25 1.063.25.593 0 1.031-.25.453-.25.75-.672.313-.438.453-1 .156-.578.156-1.203v-.172q0-.61-.156-1.172-.156-.578-.453-1-.297-.438-.75-.688-.453-.25-1.047-.25-.61 0-1.062.25-.438.25-.735.688-.297.422-.453 1-.14.562-.14 1.172v.172zm12.165 3.125q.39 0 .75-.125.375-.125.656-.344.297-.235.469-.531.187-.297.187-.657h1.375q-.016.563-.297 1.078-.281.516-.765.907-.47.375-1.094.609-.61.234-1.281.234-.97 0-1.688-.343-.719-.344-1.203-.922-.469-.594-.719-1.344-.234-.766-.234-1.61v-.327q0-.844.234-1.61.25-.765.719-1.344.484-.578 1.203-.921.719-.344 1.688-.344.75 0 1.375.234.625.235 1.078.656.468.407.718.97.266.562.266 1.202h-1.375q0-.39-.172-.718-.156-.344-.437-.594-.266-.266-.64-.406-.376-.157-.813-.157-.672 0-1.141.266-.453.266-.734.703-.282.438-.407.984-.11.532-.11 1.079v.328q0 .547.11 1.093.125.547.407.985.28.422.734.703.453.266 1.14.266zm13.132-3.344q0 1.094-.25 1.937-.25.828-.718 1.407-.47.578-1.157.875-.672.296-1.547.296-.859 0-1.546-.296-.688-.297-1.172-.875-.469-.579-.719-1.407-.25-.843-.25-1.937v-2.656q0-1.094.25-1.922.25-.844.719-1.422.468-.578 1.156-.875.688-.313 1.547-.313.875 0 1.562.313.688.297 1.157.875.468.578.718 1.422.25.828.25 1.922v2.656zm-5.906-.281l4.422-3.407q-.125-1.125-.656-1.718-.532-.594-1.547-.594-1.14 0-1.688.781-.53.766-.53 2.234v2.704zm4.453-2.016l-4.422 3.375q.141 1.11.688 1.687.547.579 1.515.579 1.157 0 1.688-.782.531-.781.531-2.25v-2.61z"/><path fill="#34a853" d="M489.979 247.25c0-6.283 5.093-11.376 11.376-11.376h376.304a11.375 11.375 0 0 1 11.375 11.376v45.5c0 6.283-5.093 11.376-11.375 11.376H501.355c-6.283 0-11.376-5.093-11.376-11.376z" fill-rule="evenodd"/><path stroke="#666" stroke-linejoin="round" stroke-linecap="butt" d="M489.979 247.25c0-6.283 5.093-11.376 11.376-11.376h376.304a11.375 11.375 0 0 1 11.375 11.376v45.5c0 6.283-5.093 11.376-11.375 11.376H501.355c-6.283 0-11.376-5.093-11.376-11.376z"/><path fill="#fff" d="M580.98 260.647h3.657l.016 13.14q-.016 1.344-.516 2.47-.5 1.109-1.375 1.921-.86.797-2.047 1.25-1.172.438-2.531.438-1.422 0-2.594-.36-1.172-.375-2.015-1.093-.844-.72-1.313-1.813-.469-1.094-.484-2.578h3.672q.015 1.531.672 2.219.671.672 2.062.672.625 0 1.14-.235.532-.234.891-.656.375-.422.563-1 .203-.578.203-1.234v-13.141zm16.904 14q0-.5-.188-.938-.172-.453-.594-.828-.422-.39-1.11-.703-.671-.328-1.687-.594-1.234-.343-2.359-.843-1.125-.516-1.984-1.22-.86-.718-1.375-1.671-.516-.953-.516-2.187 0-1.204.5-2.172.516-.985 1.406-1.672.907-.688 2.125-1.063 1.219-.375 2.657-.375 1.484 0 2.703.438 1.234.422 2.125 1.203.89.781 1.375 1.844.5 1.062.5 2.343h-3.563q-.031-.64-.234-1.171-.203-.532-.61-.907-.39-.39-.984-.61-.578-.218-1.375-.218-.734 0-1.297.188-.562.172-.953.484-.39.313-.594.75-.203.438-.203.953 0 .531.266.969.265.422.765.766.516.343 1.235.64.719.281 1.64.516 1.297.39 2.391.937t1.875 1.297q.797.735 1.234 1.703.438.953.438 2.125 0 1.25-.516 2.219-.5.969-1.39 1.64-.875.673-2.094 1.016-1.219.344-2.672.344-.89 0-1.781-.172-.89-.156-1.719-.484-.812-.344-1.516-.844-.703-.516-1.218-1.187-.5-.688-.797-1.547-.297-.86-.297-1.907h3.594q.03.86.297 1.485.28.61.765 1t1.172.578q.688.172 1.5.172.734 0 1.297-.172.562-.172.953-.469.39-.297.594-.719.219-.421.219-.937zm18.183-2.89h-8.125v7.843h-3.671v-18.953h12.812v2.984h-9.14v5.157h8.124v2.968zm13.075 5.859q-.719 1.062-1.735 1.656-1 .594-2.187.594-1.094 0-2.016-.328-.906-.344-1.562-1.079-.64-.734-1-1.875-.36-1.14-.36-2.734v-8.328h3.625v8.344q0 .859.11 1.453.125.578.39.937.282.36.72.516.452.156 1.093.156 1.078 0 1.75-.406.687-.406 1.031-1.125v-9.875h3.625V279.6h-3.265l-.22-1.984zm10.293-12.094l.234 1.953q.75-1.062 1.829-1.64 1.078-.579 2.39-.579 1.078 0 1.953.313.89.312 1.532 1 .64.672 1 1.75.359 1.078.359 2.61v8.671h-3.61v-8.61q0-.843-.203-1.374-.187-.547-.546-.86-.344-.312-.844-.437-.485-.125-1.11-.125-.921 0-1.578.375-.64.375-1.047 1.015V279.6h-3.64v-14.078h3.281zm18.95 11.453q.546 0 1.015-.156.485-.156.844-.438.375-.297.578-.703.203-.406.172-.89h3.406q.031 1.093-.453 2.03-.469.938-1.297 1.61-.812.672-1.906 1.063-1.078.375-2.281.375-1.641 0-2.891-.547-1.234-.547-2.062-1.516-.813-.969-1.25-2.25-.422-1.297-.422-2.781v-.39q0-1.485.422-2.782.421-1.297 1.25-2.25.828-.969 2.062-1.531 1.234-.563 2.86-.563 1.296 0 2.406.39 1.109.392 1.906 1.11.797.703 1.234 1.719.453 1 .422 2.25h-3.406q.031-.516-.156-.984-.188-.47-.547-.813-.344-.344-.844-.547-.484-.203-1.062-.203-.86 0-1.422.36-.563.343-.891.937-.328.578-.469 1.344-.14.75-.14 1.562v.39q0 .813.125 1.579.14.766.468 1.344.329.578.891.937.578.344 1.438.344zm16.402-14.906v3.453h5.266v2.656h-5.266v6.063q0 .765.172 1.28.188.517.5.829.328.297.797.438.469.125 1.031.125.422 0 .86-.032.437-.047.828-.11.406-.062.75-.124.343-.063.578-.125l.36 2.484q-.376.219-.891.39-.5.157-1.079.25-.562.11-1.187.157-.625.063-1.219.063-1.156 0-2.11-.297-.937-.313-1.609-.953-.671-.641-1.03-1.641-.36-1-.36-2.39v-6.407h-3.219v-2.656h3.219v-3.453h3.61zm10.325 3.453h7.672v11.14h3.812v2.938h-11.484v-2.937h4.015v-8.188h-4.015v-2.953zm3.75-3.61q0-.421.14-.78.157-.36.422-.61.281-.25.656-.39.391-.141.86-.141.969 0 1.531.547.563.53.563 1.375 0 .843-.563 1.39-.562.531-1.531.531-.469 0-.86-.14-.375-.14-.656-.39-.265-.266-.422-.61-.14-.36-.14-.781zm10.793 10.516q0-1.531.437-2.844.438-1.312 1.297-2.265.86-.969 2.078-1.516 1.235-.547 2.828-.547 1.579 0 2.813.547 1.25.547 2.094 1.516.86.953 1.297 2.265.437 1.313.437 2.844v.281q0 1.547-.437 2.86-.438 1.297-1.297 2.265-.844.954-2.078 1.5-1.235.532-2.813.532t-2.828-.532q-1.234-.546-2.094-1.5-.86-.968-1.297-2.265-.437-1.313-.437-2.86v-.28zm3.61.281q0 .875.171 1.657.172.765.531 1.343.375.579.953.922.579.344 1.391.344.797 0 1.36-.344.578-.343.937-.922.36-.578.531-1.343.172-.782.172-1.657v-.28q0-.86-.172-1.626-.172-.765-.531-1.344-.36-.593-.938-.937-.562-.344-1.375-.344-.812 0-1.39.344-.563.344-.938.937-.359.579-.53 1.344-.173.766-.173 1.625v.281zm16.152-7.187l.234 1.953q.75-1.062 1.828-1.64 1.078-.579 2.39-.579 1.08 0 1.954.313.89.312 1.531 1 .64.672 1 1.75.36 1.078.36 2.61v8.671h-3.61v-8.61q0-.843-.203-1.374-.187-.547-.547-.86-.343-.312-.843-.437-.485-.125-1.11-.125-.922 0-1.578.375-.64.375-1.047 1.015V279.6h-3.64v-14.078h3.28zm28.192 1.375l-.25 3.656h-1.703V265.6h1.953v1.297zm6.117 7.703q0-1.125.266-2.047.281-.937.797-1.594.53-.671 1.265-1.03.735-.36 1.672-.36.86 0 1.469.297.625.28 1.062.812l.11-.937h2.297v9.547q0 1-.344 1.78-.328.782-.953 1.313-.61.547-1.469.813-.86.281-1.906.281-.438 0-.953-.094-.516-.078-1.016-.281-.5-.187-.953-.484-.438-.297-.75-.703l1.14-1.532q.485.547 1.094.828.61.282 1.313.282 1.062 0 1.656-.578.61-.563.61-1.61v-.562q-.454.5-1.047.78-.594.267-1.375.267-.922 0-1.657-.375-.734-.391-1.265-1.047-.516-.672-.797-1.578-.266-.922-.266-2v-.188zm2.547.188q0 .625.11 1.156.124.531.374.937.266.39.657.625.39.219.922.219.671 0 1.093-.25.438-.266.703-.719v-4.172q-.265-.468-.703-.718-.422-.25-1.062-.25-.547 0-.938.234-.39.234-.656.64-.25.407-.375.954-.125.531-.125 1.156v.188zm13.68 5q-1.14 0-2.078-.375-.922-.375-1.594-1.016-.656-.64-1.015-1.516-.36-.875-.36-1.86v-.374q0-1.125.36-2.047.359-.937.984-1.61.64-.687 1.516-1.046.875-.375 1.906-.375 1.062 0 1.89.344.844.343 1.422.984.578.64.875 1.547.313.89.313 1.969v1.078h-6.688q.063.5.282.922.234.406.578.718.343.297.78.469.454.156.985.156.375 0 .735-.078.375-.078.703-.219.344-.14.64-.343.297-.22.516-.5l1.266 1.375q-.235.328-.625.656-.375.328-.89.578-.517.25-1.142.406-.625.157-1.359.157zm-.297-8.172q-.422 0-.781.156-.36.14-.625.422-.266.281-.453.672-.188.39-.266.875h4.14v-.203q-.015-.391-.155-.75-.125-.36-.391-.61-.25-.265-.625-.406-.36-.156-.844-.156zm11.368-4.282v2.407h3.671v1.875h-3.671v4.234q0 .531.109.89.125.36.344.579.234.219.562.312.328.078.719.078.297 0 .594-.015.312-.031.593-.063.282-.047.516-.093.25-.047.422-.094l.234 1.734q-.25.156-.609.281-.36.11-.766.172-.39.078-.828.11-.437.047-.844.047-.812 0-1.484-.204-.656-.218-1.125-.671-.469-.454-.734-1.141-.25-.703-.25-1.672v-4.484h-2.25v-1.875h2.25v-2.407h2.547zm10.945 3.75l2.36-4.75h3l-3.735 6.579 3.828 6.687h-2.984L792 274.772l-2.421 4.828h-3.032l3.828-6.687-3.718-6.579h2.984l2.328 4.75zm11.618-4.187l-.25 3.656h-1.704V265.6h1.954v1.297z"/><path fill="#e67c73" d="M821.604 305.155h58.267v26.173h-58.267z" fill-rule="evenodd"/><path stroke="#666" stroke-linejoin="round" stroke-linecap="butt" d="M821.604 305.155h58.267v26.173h-58.267z"/><path fill="#ff0" d="M845.937 308.741h9.601v19.2h-9.601v-19.2z"/><path fill="#000" d="M854.437 319.742q0 1.094-.25 1.938-.25.828-.719 1.406t-1.156.875q-.672.297-1.547.297-.86 0-1.547-.297-.687-.297-1.172-.875-.469-.578-.719-1.406-.25-.844-.25-1.938v-2.656q0-1.094.25-1.922.25-.844.72-1.422.468-.578 1.155-.875.688-.312 1.547-.312.875 0 1.563.312.687.297 1.156.875.469.578.719 1.422.25.828.25 1.922v2.656zm-5.906-.281l4.421-3.406q-.125-1.125-.656-1.72-.531-.593-1.547-.593-1.14 0-1.687.781-.531.766-.531 2.235v2.703zm4.453-2.016l-4.422 3.375q.14 1.11.687 1.688.547.578 1.516.578 1.156 0 1.687-.781.532-.782.532-2.25v-2.61z"/><path fill="#e67c73" d="M763.336 305.155h58.268v26.173h-58.268z" fill-rule="evenodd"/><path stroke="#666" stroke-linejoin="round" stroke-linecap="butt" d="M763.336 305.155h58.268v26.173h-58.268z"/><path fill="#ff9800" d="M381.428 55.122c0-6.282 5.093-11.375 11.375-11.375h142.068a11.376 11.376 0 0 1 11.376 11.375v45.501c0 6.283-5.093 11.376-11.376 11.376H392.803c-6.282 0-11.375-5.093-11.375-11.376z" fill-rule="evenodd"/><path stroke="#666" stroke-linejoin="round" stroke-linecap="butt" d="M381.428 55.122c0-6.282 5.093-11.375 11.375-11.375h142.068a11.376 11.376 0 0 1 11.376 11.375v45.501c0 6.283-5.093 11.376-11.376 11.376H392.803c-6.282 0-11.375-5.093-11.375-11.376z"/><path fill="#fff" d="M435.393 71.52q0-.5-.187-.938-.172-.453-.594-.828-.422-.39-1.11-.703-.671-.328-1.687-.594-1.234-.344-2.36-.844-1.124-.515-1.984-1.218-.859-.72-1.375-1.672-.515-.953-.515-2.188 0-1.203.5-2.172.515-.984 1.406-1.672.906-.687 2.125-1.062 1.219-.375 2.656-.375 1.485 0 2.703.437 1.235.422 2.125 1.204.891.78 1.375 1.843.5 1.063.5 2.344h-3.562q-.031-.64-.234-1.172-.204-.531-.61-.906-.39-.39-.984-.61-.578-.218-1.375-.218-.735 0-1.297.187-.563.172-.953.485-.39.312-.594.75-.203.437-.203.953 0 .531.266.969.265.421.765.765.516.344 1.235.64.718.282 1.64.516 1.297.391 2.39.938 1.095.547 1.876 1.297.797.734 1.234 1.703.438.953.438 2.125 0 1.25-.516 2.219-.5.968-1.39 1.64-.876.672-2.094 1.016-1.22.344-2.672.344-.89 0-1.781-.172-.891-.156-1.72-.485-.812-.343-1.515-.843-.703-.516-1.219-1.188-.5-.687-.796-1.547-.297-.859-.297-1.906h3.593q.032.86.297 1.484.282.61.766 1 .484.391 1.172.579.687.171 1.5.171.734 0 1.297-.171.562-.172.953-.47.39-.296.594-.718.218-.422.218-.937zm9.903-7.188q.703-1.031 1.703-1.61 1.016-.593 2.266-.593 1.109 0 2.03.344.923.328 1.579 1.031.672.687 1.047 1.797.375 1.094.375 2.64v8.532h-3.625v-8.547q0-.766-.188-1.313-.187-.547-.547-.875-.343-.343-.843-.5-.485-.172-1.11-.172-.922 0-1.593.329-.657.328-1.094.906v10.172h-3.625v-20h3.625v7.86zm21.184 12.14q-.14-.265-.235-.593-.078-.344-.156-.719-.297.328-.687.61-.391.28-.875.5-.47.218-1.047.343-.563.125-1.219.125-1.078 0-1.984-.312-.907-.313-1.563-.875-.656-.563-1.016-1.328-.359-.782-.359-1.688 0-2.234 1.656-3.453 1.657-1.219 4.953-1.219h2.016v-.828q0-1.015-.672-1.61-.656-.593-1.906-.593-1.11 0-1.625.484-.5.47-.5 1.266h-3.61q0-.906.391-1.703.406-.813 1.156-1.422.766-.61 1.86-.969 1.11-.359 2.531-.359 1.266 0 2.36.312 1.109.313 1.906.922.812.61 1.265 1.547.47.922.47 2.156v6.032q0 1.14.14 1.89.14.735.406 1.266v.219h-3.656zm-3.453-2.53q.546 0 1.015-.126.469-.14.844-.343.375-.219.64-.485.282-.265.438-.53v-2.423h-1.844q-.843 0-1.453.156-.594.157-.969.454-.375.296-.562.703-.188.406-.188.89 0 .735.516 1.22.516.483 1.563.483zm23.293-4.376q0 1.532-.36 2.844-.359 1.313-1.062 2.281-.688.954-1.719 1.5-1.015.547-2.344.547-1.14 0-2-.39-.859-.39-1.5-1.094v6.64h-3.609v-19.5h3.344l.125 1.376q.656-.782 1.531-1.204.89-.437 2.078-.437 1.344 0 2.36.516 1.03.515 1.734 1.468.703.938 1.062 2.266.36 1.312.36 2.906v.281zm-3.61-.28q0-.876-.171-1.657-.157-.781-.5-1.344-.344-.562-.891-.89-.547-.329-1.313-.329-.953 0-1.562.375-.594.375-.938 1.047v5.891q.344.656.938 1.062.61.391 1.594.391.765 0 1.297-.328.546-.344.89-.922.344-.594.5-1.375.156-.781.156-1.64v-.282zm13.794 7.452q-1.625 0-2.953-.53-1.329-.548-2.282-1.454-.953-.922-1.468-2.156-.516-1.25-.516-2.672v-.516q0-1.625.5-2.953.516-1.328 1.422-2.297.922-.969 2.172-1.5t2.718-.531q1.516 0 2.704.5 1.203.5 2.03 1.422.829.906 1.25 2.187.438 1.282.438 2.828v1.532h-9.562q.11.718.422 1.312.328.594.812 1.031.5.422 1.14.657.641.234 1.391.234.532 0 1.063-.094.531-.109 1-.312.484-.203.906-.5.422-.313.735-.703l1.796 1.953q-.328.469-.875.937-.53.47-1.28.828-.735.344-1.641.563-.891.234-1.922.234zm-.438-11.687q-.61 0-1.125.219-.5.218-.89.625-.375.406-.641.968-.25.547-.39 1.235h5.937v-.282q-.016-.578-.219-1.078-.187-.515-.562-.875-.36-.375-.891-.593-.531-.22-1.219-.22zm-45.881 30.351q0-1.281.187-2.422.203-1.14.531-2.094.344-.968.797-1.75.453-.796.953-1.406.5-.61 1.032-1.031.53-.422 1.03-.656l.5 1.39q-.515.391-1.03 1.047-.5.656-.907 1.64-.406.985-.672 2.282-.25 1.297-.25 2.984v.235q0 1.687.25 2.984.266 1.297.672 2.281.407.985.907 1.641.515.672 1.03 1.063l-.5 1.359q-.5-.219-1.03-.656-.532-.422-1.032-1.032-.5-.593-.953-1.39-.453-.797-.797-1.75-.328-.969-.531-2.094-.187-1.14-.187-2.422v-.203zm13.851-1.39l2.172-3.079h2.719l-3.313 4.844 3.422 5.016h-2.718l-2.282-3.219-2.25 3.219h-2.734l3.422-5.016-3.297-4.844h2.719l2.14 3.078zm13.43 1.593q0 1.25-.203 2.36-.203 1.109-.547 2.078-.343.968-.812 1.765-.453.797-.985 1.422-.515.625-1.062 1.063-.547.437-1.063.656l-.484-1.36q.5-.39 1.016-1.062.515-.656.922-1.625.406-.969.656-2.281.265-1.313.265-3v-.235q0-1.687-.265-2.984-.266-1.312-.688-2.297-.406-.984-.906-1.656-.5-.672-1-1.047l.484-1.36q.516.235 1.063.673.547.437 1.062 1.062.532.625.985 1.422.469.797.812 1.766.344.953.547 2.078.203 1.11.203 2.36v.202z"/><path d="M40 51.14h494.74v153.92H40z"/><path fill="#4285f4" d="M54.281 83.18v-11h-3.5v-1.688h3.5V69.6q0-1.219.344-2.125.36-.922 1.016-1.547.656-.625 1.562-.937.922-.313 2.047-.313.766 0 1.5.125t1.5.328L62 66.93q-.484-.172-1.125-.297-.64-.125-1.36-.125-1.53.016-2.296.781-.766.766-.766 2.313v.89h4.89v1.688h-4.89v11h-2.172zm19.399-1.75q-.625.937-1.578 1.468-.954.515-2.188.515-1 0-1.812-.312-.813-.313-1.391-.969-.563-.656-.875-1.672-.313-1.015-.313-2.422v-7.546h2.172v7.562q0 1.031.157 1.719.171.672.5 1.078.328.406.796.578.485.156 1.094.156 1.328 0 2.14-.53.813-.548 1.22-1.47v-9.093h2.171v12.687h-1.968l-.125-1.75zm8.12-10.938l.157 1.875q.688-.985 1.688-1.532 1.015-.562 2.265-.578.985 0 1.797.281.828.282 1.39.891.579.594.891 1.516.313.922.313 2.187v8.047h-2.172v-8q0-.844-.188-1.422-.187-.594-.562-.953-.36-.375-.89-.531-.532-.172-1.235-.172-1.078 0-1.906.547-.828.547-1.328 1.437v9.094h-2.157V70.492h1.938zm17.856 11.156q.594 0 1.14-.188.563-.187 1-.515.438-.328.688-.782.266-.453.282-.984h2.047q0 .844-.438 1.61-.422.765-1.14 1.359-.72.578-1.641.922-.922.343-1.938.343-1.437 0-2.515-.515-1.078-.516-1.797-1.39-.719-.876-1.094-2.016-.36-1.141-.36-2.407v-.5q0-1.25.36-2.39.375-1.157 1.094-2.032.719-.875 1.797-1.39 1.078-.516 2.515-.516 1.125 0 2.063.36.953.359 1.64.984.688.61 1.063 1.453.39.844.39 1.797h-2.046q-.016-.563-.25-1.078-.235-.516-.657-.89-.406-.391-.984-.61-.562-.235-1.219-.235-1 0-1.687.407-.688.406-1.11 1.062-.421.64-.609 1.453-.172.813-.172 1.625v.5q0 .828.172 1.641.188.812.594 1.469.422.656 1.11 1.062.687.39 1.702.39zm14.137-14.219v3.063h4.828v1.687h-4.828v6.89q0 .735.187 1.22.188.468.516.765.328.281.75.406.438.11.922.11.344 0 .719-.032.375-.046.734-.109.36-.062.672-.125.312-.062.5-.11l.312 1.532q-.265.172-.656.297-.39.125-.844.203-.453.094-.968.14-.516.047-1.016.047-.844 0-1.578-.234-.734-.25-1.281-.766-.532-.53-.844-1.343-.297-.828-.297-2v-6.89h-3.328v-1.688h3.328v-3.063h2.172zm9.605 3.063h6.485v10.812h4.14v1.875h-10.625v-1.875h4.313v-8.922h-4.313v-1.89zm4.032-3.329q0-.53.328-.89.328-.375.984-.375.64 0 .969.375.328.36.328.89 0 .532-.328.891-.328.344-.969.344-.656 0-.984-.344-.328-.36-.328-.89zm9.433 9.563q0-1.375.39-2.547.407-1.187 1.142-2.047.75-.875 1.812-1.375 1.063-.5 2.406-.5 1.344 0 2.407.5 1.078.5 1.828 1.375.75.86 1.14 2.047.407 1.172.407 2.547v.25q0 1.375-.407 2.547-.39 1.172-1.14 2.047-.75.86-1.813 1.36-1.062.483-2.406.483t-2.422-.484q-1.062-.5-1.812-1.36-.735-.874-1.141-2.046-.39-1.172-.39-2.547v-.25zm2.157.25q0 .937.218 1.797.235.844.688 1.484.453.64 1.125 1.016.687.375 1.578.375.89 0 1.562-.375.688-.375 1.125-1.016.454-.64.672-1.484.235-.86.235-1.797v-.25q0-.938-.235-1.781-.218-.844-.672-1.485-.453-.656-1.125-1.03-.671-.392-1.578-.392-.906 0-1.578.391-.656.375-1.11 1.031-.452.641-.687 1.485-.218.843-.218 1.781v.25zm14.793-6.484l.156 1.875q.687-.985 1.687-1.532 1.016-.562 2.266-.578.984 0 1.797.281.828.282 1.39.891.579.594.891 1.516.313.922.313 2.187v8.047h-2.172v-8q0-.844-.188-1.422-.187-.594-.562-.953-.36-.375-.891-.531-.531-.172-1.234-.172-1.078 0-1.907.547-.828.547-1.328 1.437v9.094h-2.156V70.492h1.938z"/><path fill="#000" d="M180.273 76.726q0-1.406.344-2.594.344-1.203 1-2.047.656-.859 1.594-1.343.937-.485 2.125-.485 1.172 0 2.047.422.89.422 1.515 1.203l.11-1.39h1.969v12.421q0 1.25-.391 2.22-.39.984-1.11 1.655-.703.688-1.687 1.032-.984.36-2.187.36-.485 0-1.125-.126-.625-.11-1.282-.36-.64-.25-1.25-.671-.61-.422-1.03-1.047l1.124-1.297q.39.484.813.813.421.343.859.53.437.204.86.282.437.094.874.094.766 0 1.39-.219.626-.219 1.063-.656.438-.422.672-1.063.235-.625.235-1.453V81.93q-.625.719-1.5 1.11-.86.374-1.985.374-1.172 0-2.11-.484-.937-.5-1.593-1.36-.64-.874-1-2.046-.344-1.188-.344-2.547v-.25zm2.172.25q0 .922.188 1.766.203.828.61 1.468.421.625 1.062 1 .64.36 1.547.36.562 0 1.015-.125.453-.14.813-.39.36-.25.64-.579.282-.344.485-.75v-5.813q-.203-.406-.485-.734-.28-.328-.656-.562-.36-.25-.812-.375-.438-.141-.97-.141-.921 0-1.577.375-.64.375-1.063 1.016-.406.64-.61 1.484-.187.828-.187 1.75v.25zm18.23 6.437q-1.327 0-2.452-.453-1.125-.468-1.922-1.28-.797-.829-1.25-1.954-.438-1.125-.438-2.438v-.5q0-1.53.485-2.734.5-1.219 1.312-2.062.828-.844 1.86-1.282 1.03-.453 2.125-.453 1.375 0 2.39.485 1.031.468 1.703 1.312.688.828 1.016 1.969.344 1.14.344 2.469v.968h-9.063q.031.86.328 1.625.313.766.828 1.344.516.563 1.235.89.734.329 1.625.329 1.156 0 2.047-.469.906-.469 1.515-1.25l1.313 1.031q-.313.485-.797.922-.469.438-1.094.781-.61.344-1.406.547-.781.203-1.703.203zm-.28-11.375q-.657 0-1.25.25-.579.235-1.047.704-.47.453-.797 1.14-.313.672-.438 1.547h6.813v-.172q-.031-.625-.235-1.25-.203-.625-.609-1.11-.39-.5-1-.796-.61-.313-1.437-.313zm14.214-4.609v3.063h4.829v1.687h-4.829v6.89q0 .735.188 1.22.187.468.516.765.328.281.75.406.437.11.921.11.344 0 .72-.032.374-.046.734-.109.359-.062.671-.125.313-.062.5-.11l.313 1.532q-.266.172-.656.297-.391.125-.844.203-.453.094-.969.14-.515.047-1.015.047-.844 0-1.579-.234-.734-.25-1.28-.766-.532-.53-.845-1.343-.296-.828-.296-2v-6.89h-3.329v-1.688h3.329v-3.063h2.171zm14.559 5.375l3.672-6.687h2.562l-4.953 8.453 5.063 8.61h-2.532l-3.765-6.829-3.781 6.828h-2.579l5.094-8.61-4.953-8.452h2.531l3.641 6.687z"/><path fill="#e67c73" d="M240.43 76.257q0-1.687.265-3.156.266-1.484.703-2.734.454-1.266 1.032-2.297.578-1.047 1.218-1.86.641-.812 1.282-1.375.64-.578 1.234-.906l.453 1.422q-.734.547-1.453 1.5-.719.953-1.297 2.312-.562 1.344-.922 3.11-.343 1.765-.343 3.953v.172q0 2.187.343 3.953.36 1.766.922 3.125.578 1.375 1.297 2.328.719.969 1.453 1.563l-.453 1.328q-.594-.328-1.25-.907-.64-.562-1.281-1.375-.64-.812-1.219-1.859-.578-1.031-1.016-2.297-.437-1.265-.703-2.734-.265-1.485-.265-3.156v-.11z"/><path fill="#000" d="M252.082 76.726q0-1.375.39-2.547.407-1.187 1.141-2.047.75-.875 1.813-1.375 1.062-.5 2.406-.5t2.406.5q1.078.5 1.828 1.375.75.86 1.141 2.047.406 1.172.406 2.547v.25q0 1.375-.406 2.547-.39 1.172-1.14 2.047-.75.86-1.813 1.36-1.063.483-2.406.483-1.344 0-2.422-.484-1.063-.5-1.813-1.36-.734-.874-1.14-2.046-.391-1.172-.391-2.547v-.25zm2.156.25q0 .937.219 1.797.234.844.688 1.484.453.64 1.125 1.016.687.375 1.578.375.89 0 1.562-.375.688-.375 1.125-1.016.453-.64.672-1.484.234-.86.234-1.797v-.25q0-.938-.234-1.781-.219-.844-.672-1.485-.453-.656-1.125-1.03-.672-.392-1.578-.392t-1.578.391q-.656.375-1.11 1.031-.453.641-.687 1.485-.219.843-.219 1.781v.25z"/><path fill="#e67c73" d="M275 76.367q0 1.671-.266 3.156-.265 1.469-.718 2.734-.438 1.266-1.016 2.297-.578 1.047-1.219 1.86-.64.812-1.297 1.374-.64.579-1.234.907l-.453-1.328q.734-.547 1.453-1.516.719-.953 1.281-2.328.578-1.375.922-3.156.36-1.782.36-3.97v-.171q0-2.188-.375-3.969-.375-1.797-.97-3.172-.577-1.375-1.296-2.328-.703-.969-1.375-1.515l.453-1.313q.594.328 1.234.906.657.563 1.297 1.375.64.813 1.219 1.86.578 1.031 1.016 2.297.453 1.25.718 2.734.266 1.469.266 3.156v.11zm30.32 11.109q-.765-.031-1.39-.266-.625-.234-1.125-.64-.485-.39-.844-.922-.344-.516-.594-1.125-.234-.61-.36-1.25-.109-.64-.109-1.25v-1.985q0-1.687-.812-2.453-.797-.765-2.453-.765v-1.703q1.656 0 2.453-.75.812-.766.812-2.47v-1.984q0-.625.094-1.265.11-.64.328-1.235.235-.609.578-1.125.344-.53.829-.921.5-.407 1.14-.641.64-.234 1.453-.266l.235 1.344q-.844.031-1.344.406-.484.375-.75.953-.25.579-.328 1.313-.063.719-.063 1.437v1.985q0 1.406-.656 2.469-.64 1.062-2 1.609 1.36.547 2 1.61.656 1.062.656 2.452v1.985q0 .719.11 1.437.125.735.406 1.313.297.578.766.953.484.375 1.203.39l-.235 1.36z"/><path fill="#4285f4" d="M88.148 113.257q.313 0 .641.031.328.016.625.063.297.031.547.094.25.047.422.125l-.297 2.125q-.625-.14-1.203-.203-.563-.079-1.188-.079-1.515 0-2.468.704-.938.687-1.391 1.921v8.141h-2.172v-12.687h2.063l.109 2.015q.766-1.031 1.844-1.64 1.093-.61 2.468-.61zm11.7 13.156q-1.328 0-2.453-.453-1.125-.468-1.922-1.28-.797-.829-1.25-1.954-.438-1.125-.438-2.438v-.5q0-1.53.485-2.734.5-1.219 1.312-2.062.828-.844 1.86-1.282 1.03-.453 2.124-.453 1.375 0 2.391.485 1.031.468 1.703 1.312.688.828 1.016 1.969.344 1.14.344 2.469v.968h-9.063q.031.86.328 1.625.313.766.828 1.344.516.563 1.235.89.734.329 1.625.329 1.156 0 2.047-.469.906-.469 1.515-1.25l1.313 1.031q-.313.485-.797.922-.469.438-1.094.781-.61.344-1.406.547-.781.203-1.703.203zm-.282-11.375q-.656 0-1.25.25-.578.235-1.046.704-.47.453-.797 1.14-.313.672-.438 1.547h6.813v-.172q-.032-.625-.235-1.25-.203-.625-.61-1.11-.39-.5-1-.796-.608-.313-1.437-.313zm14.215-4.609v3.063h4.828v1.687h-4.828v6.89q0 .735.188 1.22.187.468.515.765.329.281.75.406.438.11.922.11.344 0 .719-.032.375-.046.734-.109.36-.062.672-.125.313-.062.5-.11l.313 1.532q-.266.172-.656.297-.391.125-.844.203-.453.094-.969.14-.516.047-1.016.047-.843 0-1.578-.234-.734-.25-1.281-.766-.531-.53-.844-1.343-.297-.828-.297-2v-6.89h-3.328v-1.688h3.328v-3.063h2.172zm17.496 14q-.625.938-1.578 1.469-.953.515-2.187.515-1 0-1.813-.312-.812-.313-1.39-.969-.563-.656-.875-1.672-.313-1.015-.313-2.422v-7.546h2.172v7.562q0 1.031.156 1.719.172.672.5 1.078t.797.578q.484.156 1.094.156 1.328 0 2.14-.53.813-.548 1.22-1.47v-9.093h2.171v12.687h-1.969l-.125-1.75zm14.48-11.172q.313 0 .641.031.329.016.625.063.297.031.547.094.25.047.422.125l-.297 2.125q-.625-.14-1.203-.203-.562-.079-1.187-.079-1.516 0-2.47.704-.937.687-1.39 1.921v8.141h-2.172v-12.687h2.063l.11 2.015q.765-1.031 1.843-1.64 1.094-.61 2.469-.61zm8.044.235l.156 1.875q.688-.985 1.688-1.532 1.015-.562 2.265-.578.985 0 1.797.281.828.282 1.39.891.579.594.891 1.516.313.922.313 2.187v8.047h-2.172v-8q0-.844-.188-1.422-.187-.594-.562-.953-.36-.375-.89-.531-.532-.172-1.235-.172-1.078 0-1.906.547-.828.547-1.328 1.437v9.094h-2.157v-12.687h1.938z"/><path fill="#000" d="M180.059 119.726q0-1.375.39-2.547.406-1.187 1.14-2.047.75-.875 1.813-1.375t2.407-.5q1.343 0 2.406.5 1.078.5 1.828 1.375.75.86 1.14 2.047.407 1.172.407 2.547v.25q0 1.375-.406 2.547-.391 1.172-1.141 2.047-.75.86-1.813 1.36-1.062.483-2.406.483t-2.422-.484q-1.062-.5-1.812-1.36-.735-.874-1.14-2.046-.391-1.172-.391-2.547v-.25zm2.156.25q0 .937.219 1.797.234.844.687 1.484.453.64 1.125 1.016.688.375 1.578.375.89 0 1.563-.375.687-.375 1.125-1.016.453-.64.672-1.484.234-.86.234-1.797v-.25q0-.938-.234-1.781-.22-.844-.672-1.485-.453-.656-1.125-1.03-.672-.392-1.578-.392-.907 0-1.579.391-.656.375-1.109 1.031-.453.641-.687 1.485-.22.843-.22 1.781v.25z"/><path fill="#e67c73" d="M198.836 124.773q0-.36.11-.656.109-.313.312-.532.219-.234.531-.359.328-.125.75-.125t.734.125q.329.125.547.36.22.218.328.53.11.297.11.657 0 .344-.11.64-.109.297-.328.516-.218.219-.547.344-.312.125-.734.125t-.75-.125q-.312-.125-.531-.344-.203-.219-.313-.516-.11-.296-.11-.64z"/><path fill="#000" d="M214.707 118.195l3.39-4.703h2.532l-4.719 6.28 4.86 6.407h-2.516l-3.5-4.828-3.5 4.828h-2.531l4.843-6.406-4.718-6.281h2.5l3.359 4.703z"/><path fill="#e67c73" d="M227.64 114.773q0-.36.11-.656.11-.313.312-.532.22-.234.532-.359.328-.125.75-.125t.734.125q.328.125.547.36.219.218.328.53.11.297.11.657 0 .344-.11.64-.11.297-.328.516-.219.219-.547.344-.312.125-.734.125t-.75-.125q-.313-.125-.532-.344-.203-.219-.312-.516-.11-.296-.11-.64zm3.72 10.906q0 .547-.141 1.14-.125.61-.39 1.204-.267.594-.642 1.125-.375.547-.859.969l-1.344-.735q.563-.828.797-1.75.235-.922.235-1.922v-2.093h2.343v2.062zM52.781 172.117q.719-.016 1.203-.391.485-.375.766-.953t.406-1.313q.125-.718.125-1.437v-1.985q0-1.39.64-2.453.657-1.062 2.017-1.609-1.36-.547-2.016-1.61-.64-1.062-.64-2.468v-1.985q0-.718-.079-1.437-.078-.734-.328-1.313-.25-.578-.75-.953-.484-.375-1.328-.406l.234-1.344q.813.032 1.453.266.641.234 1.125.64.5.391.844.922.344.516.563 1.125.218.594.328 1.235.11.64.11 1.265v1.985q0 1.703.796 2.469.813.75 2.453.75v1.703q-1.64 0-2.453.765-.797.766-.797 2.453v1.985q0 .937-.266 1.89-.25.954-.796 1.735-.547.797-1.375 1.297-.828.5-1.985.531l-.25-1.36z"/><path fill="#d8d8d8" d="M121.012 232.14h144.023v28.8H121.012v-28.8z"/><path fill="#000" d="M50.64 248.726q0-1.406.344-2.594.344-1.203 1-2.047.657-.859 1.594-1.343.938-.485 2.125-.485 1.172 0 2.047.422.89.422 1.516 1.203l.109-1.39h1.969v12.421q0 1.25-.39 2.22-.392.984-1.11 1.655-.703.688-1.688 1.032-.984.36-2.187.36-.485 0-1.125-.126-.625-.11-1.282-.36-.64-.25-1.25-.671-.609-.422-1.03-1.047l1.124-1.297q.39.484.813.813.422.343.86.53.437.204.858.282.438.094.876.094.765 0 1.39-.219.625-.219 1.063-.656.437-.422.672-1.063.234-.625.234-1.453v-1.078q-.625.719-1.5 1.11-.86.374-1.984.374-1.172 0-2.11-.484-.937-.5-1.594-1.36-.64-.874-1-2.046-.343-1.188-.343-2.547v-.25zm2.172.25q0 .922.188 1.766.203.828.61 1.468.421.625 1.062 1 .64.36 1.547.36.562 0 1.015-.125.453-.14.813-.39.36-.25.64-.579.282-.344.485-.75v-5.813q-.203-.406-.484-.734-.282-.328-.657-.562-.36-.25-.812-.375-.438-.141-.969-.141-.922 0-1.578.375-.64.375-1.063 1.016-.406.64-.609 1.484-.188.828-.188 1.75v.25zm18.231 6.437q-1.328 0-2.453-.453-1.125-.468-1.922-1.28-.797-.829-1.25-1.954-.438-1.125-.438-2.438v-.5q0-1.53.485-2.734.5-1.219 1.312-2.062.828-.844 1.86-1.282 1.031-.453 2.125-.453 1.375 0 2.39.485 1.032.468 1.703 1.312.688.828 1.016 1.969.344 1.14.344 2.469v.968h-9.063q.032.86.328 1.625.313.766.829 1.344.515.563 1.234.89.734.329 1.625.329 1.156 0 2.047-.469.906-.469 1.515-1.25l1.313 1.031q-.313.485-.797.922-.469.438-1.094.781-.609.344-1.406.547-.781.203-1.703.203zm-.281-11.375q-.657 0-1.25.25-.578.235-1.047.704-.469.453-.797 1.14-.313.672-.438 1.547h6.813v-.172q-.031-.625-.234-1.25-.204-.625-.61-1.11-.39-.5-1-.796-.61-.313-1.437-.313zm14.215-4.609v3.063h4.828v1.687h-4.828v6.89q0 .735.187 1.22.188.468.516.765.328.281.75.406.437.11.922.11.343 0 .718-.032.375-.046.735-.109.36-.062.672-.125.312-.062.5-.11l.312 1.532q-.266.172-.656.297t-.844.203q-.453.094-.969.14-.515.047-1.015.047-.844 0-1.578-.234-.735-.25-1.282-.766-.53-.53-.843-1.343-.297-.828-.297-2v-6.89h-3.328v-1.688h3.328v-3.063h2.172zm14.558 5.375l3.672-6.687h2.563l-4.954 8.453 5.063 8.61h-2.531l-3.766-6.829-3.781 6.828h-2.578l5.093-8.61-4.953-8.452h2.532l3.64 6.687z"/><path fill="#e67c73" d="M110.797 248.257q0-1.687.266-3.156.265-1.484.703-2.734.453-1.266 1.03-2.297.579-1.047 1.22-1.86.64-.812 1.28-1.375.641-.578 1.235-.906l.453 1.422q-.734.547-1.453 1.5-.719.953-1.297 2.312-.562 1.344-.921 3.11-.344 1.765-.344 3.953v.172q0 2.187.344 3.953.359 1.766.921 3.125.579 1.375 1.297 2.328.719.969 1.453 1.563l-.453 1.328q-.594-.328-1.25-.907-.64-.562-1.281-1.375-.64-.812-1.219-1.859-.578-1.031-1.015-2.297-.438-1.265-.704-2.734-.265-1.485-.265-3.156v-.11zm21.683 11.219q-.765-.031-1.39-.266-.625-.234-1.125-.64-.485-.39-.844-.922-.344-.516-.594-1.125-.234-.61-.359-1.25-.11-.64-.11-1.25v-1.985q0-1.687-.812-2.453-.797-.765-2.453-.765v-1.703q1.656 0 2.453-.75.813-.766.813-2.47v-1.984q0-.625.093-1.265.11-.64.328-1.235.235-.609.579-1.125.343-.53.828-.921.5-.407 1.14-.641.641-.234 1.453-.266l.235 1.344q-.844.031-1.344.406-.484.375-.75.953-.25.579-.328 1.313-.063.719-.063 1.437v1.985q0 1.406-.656 2.469-.64 1.062-2 1.609 1.36.547 2 1.61.656 1.062.656 2.452v1.985q0 .719.11 1.437.125.735.406 1.313.297.578.766.953.484.375 1.203.39l-.235 1.36z"/><path fill="#000" d="M157.098 247.195l3.39-4.703h2.532l-4.72 6.28 4.86 6.407h-2.515l-3.5-4.828-3.5 4.828h-2.532l4.844-6.406-4.719-6.281h2.5l3.36 4.703z"/><path fill="#e67c73" d="M171.031 253.773q0-.36.11-.656.109-.313.312-.532.219-.234.531-.359.328-.125.75-.125t.735.125q.328.125.547.36.218.218.328.53.11.297.11.657 0 .344-.11.64-.11.297-.328.516-.22.219-.547.344-.313.125-.735.125t-.75-.125q-.312-.125-.53-.344-.204-.219-.313-.516-.11-.296-.11-.64zm0-10q0-.36.11-.656.109-.313.312-.532.219-.234.531-.359.328-.125.75-.125t.735.125q.328.125.547.36.218.218.328.53.11.297.11.657 0 .344-.11.64-.11.297-.328.516-.22.219-.547.344-.313.125-.735.125t-.75-.125q-.312-.125-.53-.344-.204-.219-.313-.516-.11-.296-.11-.64z"/><path fill="#0f9d58" d="M200.68 238.476l-.25 4.312h-1.61v-5.609h1.86v1.297zm17.12 16.703q-.124-.25-.202-.61-.078-.374-.11-.78-.328.328-.734.624-.406.297-.89.516-.485.219-1.048.344-.546.14-1.171.14-1 0-1.813-.296-.812-.297-1.39-.782-.563-.5-.876-1.187-.312-.688-.312-1.485 0-1.046.406-1.828.422-.78 1.188-1.297.765-.53 1.828-.78 1.078-.266 2.406-.266h2.36v-1q0-.579-.22-1.032-.202-.453-.593-.765-.375-.328-.938-.5-.546-.188-1.25-.188-.64 0-1.156.172-.5.156-.86.438-.343.265-.546.64-.188.36-.188.75h-2.171q0-.687.343-1.344.36-.671 1-1.203.657-.547 1.578-.875.938-.328 2.125-.328 1.079 0 2 .266.922.265 1.594.797.688.531 1.063 1.328.39.797.39 1.875v5.89q0 .625.11 1.344.125.703.343 1.235v.187h-2.265zm-3.827-1.656q.625 0 1.172-.156.562-.172 1-.438.453-.266.78-.61.329-.359.516-.734v-2.562h-2.015q-1.89 0-2.953.562-1.047.563-1.047 1.766 0 .469.156.875.156.39.469.687.328.282.797.454.484.156 1.125.156zm15.511-15.047l-.25 4.312h-1.609v-5.609h1.86v1.297z"/><path fill="#e67c73" d="M254.414 258.117q.719-.016 1.203-.391.485-.375.766-.953t.406-1.313q.125-.718.125-1.437v-1.985q0-1.39.64-2.453.657-1.062 2.016-1.609-1.36-.547-2.015-1.61-.64-1.062-.64-2.468v-1.985q0-.718-.08-1.437-.077-.734-.327-1.313-.25-.578-.75-.953-.485-.375-1.328-.406l.234-1.344q.813.032 1.453.266.64.234 1.125.64.5.391.844.922.344.516.562 1.125.22.594.329 1.235.109.64.109 1.265v1.985q0 1.703.797 2.469.812.75 2.453.75v1.703q-1.64 0-2.453.765-.797.766-.797 2.453v1.985q0 .937-.266 1.89-.25.954-.797 1.735-.546.797-1.375 1.297-.828.5-1.984.531l-.25-1.36zm20.574-9.75q0 1.671-.265 3.156-.266 1.469-.72 2.734-.437 1.266-1.015 2.297-.578 1.047-1.218 1.86-.641.812-1.297 1.374-.641.579-1.235.907l-.453-1.328q.735-.547 1.453-1.516.719-.953 1.282-2.328.578-1.375.921-3.156.36-1.782.36-3.97v-.171q0-2.188-.375-3.969-.375-1.797-.969-3.172-.578-1.375-1.297-2.328-.703-.969-1.375-1.515l.453-1.313q.594.328 1.235.906.656.563 1.297 1.375.64.813 1.218 1.86.578 1.031 1.016 2.297.453 1.25.719 2.734.265 1.469.265 3.156v.11zm10.262-4.594q0-.36.11-.656.109-.313.312-.532.219-.234.531-.359.328-.125.75-.125t.734.125q.329.125.547.36.22.218.328.53.11.297.11.657 0 .344-.11.64-.109.297-.328.516-.218.219-.547.344-.312.125-.734.125t-.75-.125q-.312-.125-.531-.344-.203-.219-.313-.516-.109-.296-.109-.64zm3.719 10.906q0 .547-.14 1.14-.126.61-.392 1.204-.265.594-.64 1.125-.375.547-.86.969l-1.343-.735q.562-.828.797-1.75.234-.922.234-1.922v-2.093h2.344v2.062z"/><path fill="#bdbdbd" d="M392.546 112.266h142.582v59.717H392.546z" fill-rule="evenodd"/><path stroke="#666" stroke-linejoin="round" stroke-linecap="butt" d="M392.546 112.266h142.582v59.717H392.546z"/><path fill="#000" d="M449.89 133.961l-.25 4.313h-1.61v-5.609h1.86v1.296zm14.027 8.72l3.39-4.704h2.532l-4.719 6.281 4.86 6.407h-2.516l-3.5-4.829-3.5 4.829h-2.531l4.843-6.407-4.718-6.28h2.5l3.359 4.702zm14.777-8.72l-.25 4.313h-1.609v-5.609h1.86v1.296z"/><path d="M206.499 232.518c43.732 0 65.598-38.661 87.464-77.322 21.866-38.662 43.733-77.323 87.465-77.323"/><path stroke="#595959" stroke-width="4" stroke-linejoin="round" stroke-linecap="butt" d="M206.499 232.518c43.732 0 65.598-38.661 87.464-77.322 10.933-19.331 21.866-38.662 35.533-53.16 6.833-7.249 14.35-13.29 22.89-17.518a64.59 64.59 0 0 1 4.916-2.184l.508-.196"/><path fill="#595959" stroke="#595959" stroke-width="4" stroke-linecap="butt" d="M358.984 88.64l16.69-9.728-19.038-3.276z" fill-rule="evenodd"/><path d="M500.84 146.205l85.165-38.803"/><path stroke="#666" stroke-width="4" stroke-linejoin="round" stroke-linecap="butt" d="M514.635 139.92l49.53-22.568"/><path fill="#666" stroke="#666" stroke-width="4" stroke-linecap="butt" d="M502.66 145.375a6.58 6.58 0 1 1 11.975-5.456 6.58 6.58 0 0 1-11.975 5.456z"/><path fill="#666" stroke="#666" stroke-width="4" stroke-linecap="butt" d="M566.905 123.365l13.779-13.539-19.258 1.514z" fill-rule="evenodd"/><path fill="#fbbc05" fill-opacity=".377" d="M586.005 41.544c0-18.187 14.743-32.93 32.93-32.93H864.1a32.93 32.93 0 0 1 32.93 32.93v131.715c0 18.187-14.743 32.93-32.93 32.93H618.935c-18.187 0-32.93-14.743-32.93-32.93z" fill-rule="evenodd"/><path stroke="#666" stroke-linejoin="round" stroke-linecap="butt" d="M586.005 41.544c0-18.187 14.743-32.93 32.93-32.93H864.1a32.93 32.93 0 0 1 32.93 32.93v131.715c0 18.187-14.743 32.93-32.93 32.93H618.935c-18.187 0-32.93-14.743-32.93-32.93z"/><path fill="#000" d="M608.572 42.462v4.86h-2.563V34.056h4.532q1.093 0 1.968.312.875.313 1.485.875.61.563.937 1.344.344.781.344 1.75 0 .89-.344 1.64-.328.75-.937 1.313-.61.547-1.485.86-.875.312-1.968.312h-1.969zm0-2.078h1.969q.547 0 .937-.156.406-.172.672-.453.281-.282.406-.657.141-.375.141-.765 0-.469-.14-.86-.126-.406-.407-.703-.266-.312-.672-.484-.39-.172-.937-.172h-1.969v4.25zm15.633-3.094q.578 0 1.063.078.484.063.796.157l-.375 2.53q-.5-.124-1.03-.17-.516-.063-1-.063-1.063 0-1.704.406-.64.406-.969 1.172v5.922h-2.531v-9.86h2.36l.124 1.61q.594-.829 1.438-1.297.844-.485 1.828-.485zm3.774 5.016q0-1.078.312-1.984.313-.922.906-1.594.594-.688 1.454-1.063.859-.375 1.968-.375 1.125 0 1.985.375.86.375 1.453 1.063.61.672.906 1.594.313.906.313 1.984v.187q0 1.079-.313 2-.297.922-.89 1.594-.594.672-1.47 1.047-.859.375-1.952.375-1.125 0-2-.375-.86-.375-1.454-1.047-.593-.672-.906-1.594-.312-.921-.312-2v-.187zm2.53.187q0 .625.11 1.172.125.532.375.938.266.406.672.64.406.235.985.235.546 0 .937-.235.406-.234.656-.64t.375-.938q.125-.547.125-1.172v-.187q0-.61-.125-1.14-.125-.548-.375-.954-.25-.406-.656-.64-.39-.235-.969-.235-.562 0-.968.235-.391.234-.657.64-.25.406-.375.953-.11.532-.11 1.14v.188zm17.868-.015q0 1.078-.25 2-.25.922-.75 1.594-.484.671-1.203 1.062-.718.375-1.64.375-.797 0-1.407-.266-.593-.28-1.03-.78v4.655h-2.532V37.462h2.328l.094.969q.453-.547 1.078-.844.625-.297 1.453-.297.938 0 1.656.36.719.36 1.203 1.015.5.657.75 1.578.25.922.25 2.047v.188zm-2.53-.188q0-.61-.126-1.156-.11-.547-.36-.937-.234-.407-.609-.625-.375-.235-.906-.235-.672 0-1.094.266-.421.265-.656.734v4.11q.235.468.656.75.422.28 1.11.28.531 0 .906-.234.39-.25.625-.656.234-.406.344-.953.11-.547.11-1.156v-.188zm9.648 5.22q-1.14 0-2.078-.376-.922-.375-1.594-1.016-.656-.64-1.016-1.515-.359-.875-.359-1.86v-.375q0-1.125.36-2.046.359-.938.984-1.61.64-.687 1.515-1.047.875-.375 1.907-.375 1.062 0 1.89.344.844.344 1.422.984.578.641.875 1.547.313.89.313 1.97v1.077h-6.688q.063.5.281.922.235.406.578.719.344.297.782.469.453.156.984.156.375 0 .734-.078.375-.078.704-.22.343-.14.64-.343.297-.219.516-.5l1.265 1.375q-.234.328-.625.656-.375.329-.89.579-.516.25-1.14.406-.626.156-1.36.156zm-.297-8.173q-.422 0-.781.156-.36.141-.625.422-.266.282-.453.672-.188.39-.266.875h4.14v-.203q-.015-.39-.156-.75-.125-.36-.39-.61-.25-.265-.625-.406-.36-.156-.844-.156zm13.79-2.047q.577 0 1.062.078.484.063.797.157l-.375 2.53q-.5-.124-1.032-.17-.515-.063-1-.063-1.062 0-1.703.406-.64.406-.968 1.172v5.922h-2.532v-9.86h2.36l.125 1.61q.593-.829 1.437-1.297.844-.485 1.828-.485zm8.773-2.234v2.406h3.672v1.875h-3.672v4.235q0 .53.11.89.124.36.343.578.234.22.563.313.328.078.718.078.297 0 .594-.016.313-.03.594-.062.281-.047.515-.094.25-.047.422-.094l.235 1.735q-.25.156-.61.28-.359.11-.765.173-.39.078-.828.11-.438.046-.844.046-.813 0-1.485-.203-.656-.219-1.125-.672-.468-.453-.734-1.14-.25-.704-.25-1.672v-4.485h-2.25v-1.875h2.25v-2.406h2.547zm10.742 8.125l.297 1.062 2.625-6.78h2.797l-5.015 11.327q-.157.375-.422.813-.25.437-.641.812-.39.375-.953.625-.563.266-1.328.266-.188 0-.344-.016-.156-.015-.297-.047-.14-.015-.281-.046-.14-.032-.313-.079l.313-1.921h.39q.25.015.391.015.297 0 .531-.187.235-.172.391-.39.172-.22.266-.407.109-.172.14-.172l.61-1.156-4.172-9.438h2.781l2.234 5.719zm18.86-5.719h5.375v7.797h2.672v2.063h-8.047v-2.063h2.813V39.54h-2.813v-2.078zm2.625-2.515q0-.297.11-.547.11-.25.297-.422.187-.188.453-.281.281-.11.61-.11.671 0 1.062.39.39.376.39.97 0 .593-.39.968-.391.375-1.063.375-.328 0-.61-.093-.265-.11-.452-.282-.188-.187-.297-.437-.11-.25-.11-.531zm10.196 2.515l.156 1.375q.531-.75 1.281-1.14.766-.407 1.688-.407.734 0 1.36.22.624.218 1.062.702.453.469.703 1.219.25.75.25 1.828v6.063h-2.531V41.29q0-.578-.141-.953-.125-.39-.375-.61-.234-.218-.578-.296-.344-.094-.781-.094-.657 0-1.11.266-.453.265-.734.719v7h-2.547v-9.86h2.297zm11.352 9.86v-7.985h-2.594v-1.875h2.594v-.531q0-.984.312-1.719.313-.75.875-1.265.578-.516 1.39-.766.829-.266 1.845-.266.312 0 .609.032.297.015.578.062.281.031.563.078.296.047.609.094l-.172 1.984q-.344-.062-.781-.11-.438-.062-1.031-.062-1.188 0-1.72.5-.53.5-.53 1.438v.531h3.546v1.875h-3.546v7.985h-2.547zm8.398-5.016q0-1.078.313-1.984.312-.922.906-1.594.594-.688 1.453-1.063.86-.375 1.97-.375 1.124 0 1.983.375.86.375 1.454 1.063.609.672.906 1.594.312.906.312 1.984v.187q0 1.079-.312 2-.297.922-.89 1.594-.595.672-1.47 1.047-.859.375-1.953.375-1.125 0-2-.375-.859-.375-1.453-1.047-.594-.672-.906-1.594-.313-.921-.313-2v-.187zm2.532.187q0 .625.11 1.172.124.532.374.938.266.406.672.64.406.235.984.235.547 0 .938-.235.406-.234.656-.64t.375-.938q.125-.547.125-1.172v-.187q0-.61-.125-1.14-.125-.548-.375-.954-.25-.406-.656-.64-.39-.235-.969-.235-.562 0-.969.235-.39.234-.656.64-.25.406-.375.953-.11.532-.11 1.14v.188zm16.086-5.203q.578 0 1.062.078.485.063.797.157l-.375 2.53q-.5-.124-1.031-.17-.516-.063-1-.063-1.062 0-1.703.406-.64.406-.969 1.172v5.922h-2.531v-9.86h2.36l.124 1.61q.594-.829 1.438-1.297.844-.485 1.828-.485zm5.695.172l.079 1.203q.28-.64.765-1 .5-.375 1.219-.375 1.187 0 1.562 1.047.282-.5.735-.765.453-.282 1.094-.282.437 0 .828.172.39.156.672.516.296.36.453.922.156.562.156 1.39v7.032h-2.313v-7.047q0-.282-.062-.453-.047-.188-.156-.282-.094-.11-.235-.156-.125-.047-.265-.047-.266 0-.453.125-.172.125-.266.328v7.532h-2.234v-7.047q0-.282-.063-.47-.047-.187-.14-.28-.094-.094-.235-.14-.125-.048-.266-.048-.296 0-.468.172-.172.156-.282.438v7.375h-2.296v-9.86h2.171zm15.774 9.86q-.094-.188-.156-.422-.063-.235-.11-.5-.203.234-.484.437-.266.188-.61.344-.327.156-.734.234-.39.094-.859.094-.75 0-1.39-.219-.626-.218-1.079-.61-.453-.39-.719-.937-.25-.546-.25-1.187 0-1.547 1.157-2.39 1.172-.86 3.468-.86h1.422v-.594q0-.703-.468-1.11-.47-.421-1.344-.421-.766 0-1.125.328-.36.328-.36.89h-2.53q0-.624.28-1.187.282-.578.813-1 .531-.422 1.297-.672.765-.25 1.765-.25.891 0 1.657.22.781.218 1.343.64.563.422.875 1.078.329.656.329 1.5v4.234q0 .797.093 1.313.094.515.297.89v.157h-2.578zm-2.406-1.782q.375 0 .703-.078.328-.094.594-.234.265-.156.453-.344.203-.187.312-.375v-1.703h-1.297q-.593 0-1.015.125-.422.11-.688.312-.265.204-.39.5-.125.282-.125.625 0 .5.36.844.358.328 1.093.328zm12.102-10.484v2.406h3.672v1.875h-3.672v4.235q0 .53.11.89.124.36.343.578.234.22.562.313.328.078.72.078.296 0 .593-.016.312-.03.594-.062.28-.047.515-.094.25-.047.422-.094l.234 1.735q-.25.156-.609.28-.36.11-.766.173-.39.078-.828.11-.437.046-.843.046-.813 0-1.485-.203-.656-.219-1.125-.672-.469-.453-.734-1.14-.25-.704-.25-1.672v-4.485h-2.25v-1.875h2.25v-2.406h2.547zm7.21 2.406h5.376v7.797h2.672v2.063h-8.047v-2.063h2.812V39.54h-2.812v-2.078zm2.626-2.515q0-.297.11-.547.109-.25.296-.422.188-.188.453-.281.282-.11.61-.11.672 0 1.062.39.39.376.39.97 0 .593-.39.968t-1.062.375q-.328 0-.61-.093-.265-.11-.453-.282-.187-.187-.297-.437-.11-.25-.11-.531zm7.555 7.359q0-1.078.312-1.984.313-.922.907-1.594.593-.688 1.453-1.063.86-.375 1.968-.375 1.125 0 1.985.375.86.375 1.453 1.063.61.672.906 1.594.313.906.313 1.984v.187q0 1.079-.313 2-.297.922-.89 1.594-.594.672-1.47 1.047-.859.375-1.952.375-1.125 0-2-.375-.86-.375-1.453-1.047-.594-.672-.907-1.594-.312-.921-.312-2v-.187zm2.531.187q0 .625.11 1.172.124.532.374.938.266.406.672.64.407.235.985.235.547 0 .937-.235.406-.234.656-.64t.375-.938q.125-.547.125-1.172v-.187q0-.61-.125-1.14-.125-.548-.375-.954-.25-.406-.656-.64-.39-.235-.969-.235-.562 0-.968.235-.39.234-.657.64-.25.406-.375.953-.109.532-.109 1.14v.188zm11.305-5.03l.156 1.374q.532-.75 1.282-1.14.765-.407 1.687-.407.734 0 1.36.22.624.218 1.062.702.453.469.703 1.219.25.75.25 1.828v6.063h-2.531V41.29q0-.578-.14-.953-.126-.39-.376-.61-.234-.218-.578-.296-.344-.094-.781-.094-.656 0-1.11.266-.453.265-.734.719v7h-2.547v-9.86h2.297z"/><path fill="#ff0" d="M604.65 81.402h100.778v22.4H604.65v-22.4z"/><path fill="#673ab7" d="M614.869 93.462q-.016.703-.14 1.438-.11.718-.345 1.39-.234.672-.609 1.266-.36.578-.875 1.016-.5.437-1.172.687-.656.25-1.469.25-.828 0-1.484-.25t-1.172-.687q-.515-.438-.89-1.032-.375-.593-.61-1.265-.234-.672-.36-1.39-.124-.72-.124-1.423v-1.515q0-.72.11-1.438.124-.719.359-1.39.25-.688.609-1.266.375-.594.875-1.031.516-.438 1.172-.688.672-.266 1.484-.266.828 0 1.485.266.671.25 1.171.688.516.437.875 1.03.375.579.61 1.25.25.673.36 1.407.124.719.14 1.438v1.515zm-1.672-1.531q-.016-.484-.078-1-.047-.516-.188-1.016-.125-.5-.343-.953-.22-.469-.547-.812-.328-.36-.782-.563-.437-.203-1.03-.203-.579 0-1.032.203-.438.203-.766.563-.328.343-.547.812-.218.453-.359.969-.125.5-.187 1.016-.063.515-.063.984v1.531q0 .453.063.985.062.515.203 1.015.14.5.36.969.218.469.546.828.328.344.766.563.453.203 1.046.203.579 0 1.032-.203.453-.22.781-.563.328-.36.531-.812.219-.47.344-.97.14-.515.187-1.03.047-.516.063-.985v-1.531zm6.742 7.39v-8.546h-2.703v-1.313h2.703v-.687q0-.953.282-1.657.28-.718.78-1.203.517-.484 1.22-.734.718-.25 1.593-.25.594 0 1.157.11.578.093 1.172.25l-.188 1.39q-.375-.125-.875-.219t-1.062-.094q-1.188.016-1.782.61-.593.578-.593 1.797v.687h3.796v1.313h-3.796v8.547h-1.704zm11.205 0v-8.546h-2.703v-1.313h2.703v-.687q0-.953.281-1.657.282-.718.782-1.203.515-.484 1.218-.734.719-.25 1.594-.25.594 0 1.156.11.578.093 1.172.25l-.187 1.39q-.375-.125-.875-.219t-1.063-.094q-1.187.016-1.781.61-.594.578-.594 1.797v.687h3.797v1.313h-3.797v8.547h-1.703zm15.252-2.609q0-.312-.125-.547-.125-.234-.407-.437-.28-.203-.75-.375-.453-.172-1.14-.297-.86-.188-1.563-.422-.687-.25-1.187-.594-.485-.343-.766-.797-.265-.468-.265-1.078 0-.593.28-1.11.282-.53.782-.92.516-.392 1.219-.61.703-.235 1.562-.235.907 0 1.625.235.735.234 1.25.656.516.406.782.969.28.562.28 1.218h-1.687q0-.328-.172-.625-.156-.312-.453-.546-.281-.235-.703-.375-.406-.157-.922-.157-.547 0-.953.125-.406.11-.672.313-.265.203-.406.469-.14.265-.14.546 0 .282.109.516.11.234.375.422.281.172.734.328.453.14 1.14.266.907.203 1.626.453.719.25 1.203.61.5.343.75.812.266.453.266 1.062 0 .656-.297 1.203-.282.532-.813.922-.531.375-1.265.594-.735.203-1.61.203-1.015 0-1.797-.266-.781-.28-1.328-.718-.531-.438-.828-1.016-.281-.594-.281-1.219h1.687q.032.516.266.875.25.36.61.578.359.22.796.313.438.078.875.078 1.063 0 1.672-.39.625-.391.64-1.032zm8.992 2.797q-1.031 0-1.906-.36-.875-.359-1.5-.984-.61-.64-.953-1.515-.344-.875-.344-1.907v-.39q0-1.188.375-2.125.39-.953 1.016-1.594.64-.656 1.437-1 .813-.344 1.656-.344 1.063 0 1.86.375.797.36 1.328 1.016.531.64.781 1.531.266.875.266 1.906v.75h-7.032q.016.688.25 1.282.235.578.641 1.03.406.438.969.704.562.25 1.25.25.906 0 1.594-.36.703-.374 1.171-.968l1.032.797q-.25.375-.625.719-.36.328-.844.593-.484.266-1.094.422-.61.172-1.328.172zm-.219-8.844q-.515 0-.968.188-.454.187-.813.547-.36.36-.625.89-.25.516-.344 1.203h5.297v-.125q-.015-.5-.187-.984-.157-.484-.47-.86-.296-.39-.765-.624-.468-.235-1.125-.235zm11.055-3.593v2.39h3.75v1.313h-3.75v5.343q0 .579.14.954.141.375.391.593.266.22.594.313.344.094.719.094.266 0 .547-.032.297-.03.578-.078.281-.047.516-.094.25-.046.406-.093l.234 1.203q-.219.125-.515.219-.297.093-.657.156-.343.078-.75.11-.39.046-.78.046-.657 0-1.235-.187-.563-.188-.985-.594-.422-.406-.672-1.047-.234-.64-.234-1.563v-5.343h-2.578v-1.313h2.578v-2.39h1.703z"/><path fill="#e67c73" d="M676.357 98.228q0-.266.078-.5.094-.25.25-.422.172-.188.422-.281.25-.094.578-.094.329 0 .579.094.25.093.406.28.172.173.25.423.094.234.094.5 0 .265-.094.5-.078.234-.25.406-.156.172-.406.266-.25.093-.579.093-.328 0-.578-.093-.25-.094-.422-.266-.156-.172-.25-.406-.078-.235-.078-.5zm0-8q0-.266.078-.5.094-.25.25-.422.172-.188.422-.281.25-.094.578-.094.329 0 .579.094.25.093.406.28.172.173.25.423.094.234.094.5 0 .265-.094.5-.078.234-.25.406-.156.172-.406.266-.25.093-.579.093-.328 0-.578-.093-.25-.094-.422-.266-.156-.172-.25-.406-.078-.235-.078-.5z"/><path fill="#db4437" d="M704.14 94.243q0 1.266-.298 2.25-.281.985-.828 1.657-.547.656-1.344 1.015-.78.344-1.812.344-1 0-1.797-.344-.797-.36-1.36-1.015-.562-.672-.859-1.657-.281-.984-.281-2.25v-3.109q0-1.266.281-2.234.297-.985.844-1.657.547-.671 1.344-1.015.797-.36 1.812-.36 1.016 0 1.813.36.797.344 1.343 1.015.563.672.844 1.657.297.968.297 2.234v3.11zm-6.892-.328l5.172-3.968q-.156-1.313-.78-2-.626-.688-1.798-.688-1.328 0-1.969.89-.625.891-.625 2.626v3.14zm5.204-2.36l-5.157 3.954q.157 1.281.782 1.953.64.672 1.78.672 1.345 0 1.97-.906t.625-2.625v-3.047z"/><path fill="#e67c73" d="M612.134 111.54h-2.015v15.235h2.015v1.39h-3.609v-18h3.61v1.375zm11.196 0h-2.016v15.235h2.016v1.39h-3.61v-18h3.61v1.375z"/><path fill="#673ab7" d="M635.197 121.728l1.016-9.672h1.594l-1.61 13.266h-1.718l-1.703-10-1.72 10h-1.734l-1.609-13.266h1.594l1.015 9.672 1.704-9.672h1.468l1.703 9.672zm11.087-6.438q.234 0 .484.016.266 0 .484.031.235.031.422.078.203.047.344.11l-.234 1.64q-.485-.11-.938-.156-.437-.047-.922-.047-1.187 0-1.922.547-.734.531-1.078 1.484v6.329h-1.687v-9.86h1.594l.093 1.563q.594-.797 1.438-1.266t1.922-.469zm4.992.172h5.047v8.406h3.219v1.454h-8.266v-1.454h3.36v-6.937h-3.36v-1.469zm3.14-2.578q0-.422.25-.703.25-.297.766-.297.5 0 .75.297.25.281.25.703 0 .406-.25.688-.25.265-.75.265-.515 0-.765-.265-.25-.282-.25-.688zm11.79.188v2.39h3.75v1.313h-3.75v5.343q0 .579.14.954.141.375.391.593.266.22.594.313.344.094.719.094.265 0 .547-.032.297-.03.578-.078.281-.047.515-.094.25-.046.407-.093l.234 1.203q-.219.125-.516.219-.296.093-.656.156-.344.078-.75.11-.39.046-.781.046-.656 0-1.234-.187-.563-.188-.985-.594-.422-.406-.672-1.047-.234-.64-.234-1.563v-5.343h-2.578v-1.313h2.578v-2.39h1.703zm13.68 12.25q-.094-.188-.156-.47-.063-.296-.094-.609-.25.266-.563.5-.312.22-.703.391-.375.172-.812.266-.422.11-.89.11-.798 0-1.438-.22-.625-.234-1.063-.625-.437-.39-.687-.922-.235-.53-.235-1.156 0-.812.313-1.422.328-.61.922-1.015.593-.407 1.422-.594.843-.203 1.875-.203h1.828v-.781q0-.454-.172-.797-.156-.36-.453-.61-.297-.25-.735-.39-.422-.14-.968-.14-.5 0-.907.14-.39.125-.672.343-.265.204-.421.485-.141.281-.141.594h-1.688q0-.532.266-1.047.281-.532.781-.938.5-.422 1.22-.672.733-.25 1.655-.25.844 0 1.563.203.719.204 1.234.625.531.407.828 1.032.297.61.297 1.437v4.578q0 .5.094 1.047.094.547.25.969v.14h-1.75zm-2.984-1.282q.5 0 .921-.125.438-.14.782-.343.343-.204.593-.47.266-.28.407-.562v-2h-1.563q-1.469 0-2.297.438-.812.437-.812 1.375 0 .36.125.672.125.312.36.53.25.22.624.36.375.125.86.125zm16.055-3.53q0 1.046-.266 1.968-.25.906-.75 1.594-.484.671-1.203 1.062-.719.375-1.656.375-.954 0-1.657-.328-.687-.344-1.187-.984l-.078 1.125h-1.547v-14h1.687v5.203q.485-.61 1.157-.922.687-.313 1.609-.313.937 0 1.656.375.735.36 1.219 1.032.5.656.75 1.593.266.922.266 2.016v.203zm-1.688-.204q0-.719-.14-1.36-.141-.656-.454-1.156-.312-.5-.812-.78-.5-.298-1.219-.298-.437 0-.812.125-.36.11-.657.313-.281.203-.5.484-.218.266-.375.594v4.312q.157.328.375.61.235.28.516.5.297.203.656.312.375.11.813.11.687 0 1.187-.282.5-.297.813-.78.312-.5.453-1.142.156-.64.156-1.359v-.203zm4.79-8.984h5.046v12.546h3.219v1.454h-8.266v-1.454h3.36V112.79h-3.36v-1.468zm15.289 14.187q-1.032 0-1.907-.36-.875-.359-1.5-.984-.609-.64-.953-1.515-.343-.875-.343-1.907v-.39q0-1.188.375-2.125.39-.953 1.015-1.594.64-.656 1.438-1 .812-.344 1.656-.344 1.062 0 1.86.375.796.36 1.327 1.016.532.64.782 1.531.265.875.265 1.906v.75h-7.03q.015.688.25 1.282.233.578.64 1.03.406.438.968.704.563.25 1.25.25.907 0 1.594-.36.703-.374 1.172-.968l1.031.797q-.25.375-.625.719-.359.328-.843.593-.485.266-1.094.422-.61.172-1.328.172zm-.219-8.844q-.516 0-.969.188-.453.187-.812.547-.36.36-.625.89-.25.516-.344 1.203h5.297v-.125q-.016-.5-.188-.984-.156-.484-.468-.86-.297-.39-.766-.624-.469-.235-1.125-.235z"/><path fill="#e67c73" d="M720.293 110.165h3.625v18h-3.625v-1.39h2.032V111.54h-2.032v-1.375zm11.196 0h3.625v18h-3.625v-1.39h2.031V111.54h-2.031v-1.375zm12.024 14.063q0-.266.078-.5.093-.25.25-.422.172-.188.422-.281.25-.094.578-.094.328 0 .578.094.25.093.406.28.172.173.25.423.094.234.094.5 0 .265-.094.5-.078.234-.25.406-.156.172-.406.266-.25.093-.578.093-.328 0-.578-.093-.25-.094-.422-.266-.157-.172-.25-.406-.078-.235-.078-.5zm0-8q0-.266.078-.5.093-.25.25-.422.172-.188.422-.281.25-.094.578-.094.328 0 .578.094.25.093.406.28.172.173.25.423.094.234.094.5 0 .265-.094.5-.078.234-.25.406-.156.172-.406.266-.25.093-.578.093-.328 0-.578-.093-.25-.094-.422-.266-.157-.172-.25-.406-.078-.235-.078-.5z"/><path fill="#4285f4" d="M766.966 113.072v2.39h3.75v1.313h-3.75v5.343q0 .579.14.954.141.375.391.593.266.22.594.313.344.094.719.094.266 0 .547-.032.297-.03.578-.078.281-.047.516-.094.25-.046.406-.093l.234 1.203q-.219.125-.515.219-.297.093-.657.156-.343.078-.75.11-.39.046-.78.046-.657 0-1.235-.187-.563-.188-.985-.594-.422-.406-.672-1.047-.234-.64-.234-1.563v-5.343h-2.578v-1.313h2.578v-2.39h1.703zm13.665 2.218q.234 0 .484.016.266 0 .484.031.235.031.422.078.203.047.344.11l-.234 1.64q-.485-.11-.938-.156-.437-.047-.922-.047-1.187 0-1.922.547-.734.531-1.078 1.484v6.329h-1.687v-9.86h1.593l.094 1.563q.594-.797 1.438-1.266.843-.469 1.922-.469zm11.133 8.672q-.5.735-1.235 1.14-.734.407-1.703.407-.781 0-1.406-.234-.625-.25-1.078-.766-.438-.516-.688-1.297-.234-.781-.234-1.89v-5.86h1.687v5.875q0 .813.125 1.344.125.516.375.828.266.313.625.453.375.125.86.125 1.031 0 1.656-.422.64-.422.953-1.125v-7.078h1.688v9.86h-1.532l-.093-1.36zm9.148 1.547q-1.03 0-1.906-.36-.875-.359-1.5-.984-.61-.64-.953-1.515-.344-.875-.344-1.907v-.39q0-1.188.375-2.125.39-.953 1.016-1.594.64-.656 1.437-1 .813-.344 1.657-.344 1.062 0 1.859.375.797.36 1.328 1.016.531.64.781 1.531.266.875.266 1.906v.75h-7.031q.015.688.25 1.282.234.578.64 1.03.407.438.97.704.562.25 1.25.25.905 0 1.593-.36.703-.374 1.172-.968l1.03.797q-.25.375-.624.719-.36.328-.844.593-.484.266-1.094.422-.609.172-1.328.172zm-.218-8.844q-.516 0-.97.188-.452.187-.812.547-.36.36-.625.89-.25.516-.343 1.203h5.296v-.125q-.015-.5-.187-.984-.156-.484-.469-.86-.297-.39-.765-.624-.47-.235-1.125-.235z"/><path fill="#e67c73" d="M612.134 137.54h-2.015v15.235h2.015v1.39h-3.609v-18h3.61v1.375zm11.196 0h-2.016v15.235h2.016v1.39h-3.61v-18h3.61v1.375z"/><path fill="#673ab7" d="M635.916 145.197h-5.531v4.687h6.453v1.438h-8.14v-13.266h8.062v1.437h-6.375v4.266h5.531v1.438zm5.415-3.735l.125 1.453q.53-.765 1.312-1.187.781-.438 1.75-.438.781 0 1.406.22.64.218 1.078.687.454.453.688 1.171.25.72.25 1.688v6.266h-1.688v-6.22q0-.655-.156-1.109-.14-.453-.422-.734-.281-.297-.703-.422-.406-.125-.953-.125-.844 0-1.484.422-.641.422-1.032 1.125v7.063h-1.687v-9.86h1.516zm16.086 8.5q-.5.735-1.235 1.14-.734.407-1.703.407-.781 0-1.406-.234-.625-.25-1.078-.766-.438-.516-.688-1.297-.234-.781-.234-1.89v-5.86h1.687v5.875q0 .813.125 1.344.125.516.375.828.266.313.625.453.375.125.86.125 1.031 0 1.656-.422.64-.422.953-1.125v-7.078h1.688v9.86h-1.532l-.093-1.36zm5.57-8.5l.047.938q.297-.532.781-.813.5-.297 1.188-.297 1.36 0 1.812 1.047.297-.469.766-.75.484-.297 1.156-.297 1.094 0 1.672.672.578.656.578 2v7.36h-1.593v-7.375q0-1.25-1.141-1.235-.297 0-.516.094-.218.078-.375.219-.14.14-.218.328-.079.187-.11.375v7.594h-1.61v-7.391q0-.594-.265-.906-.265-.328-.828-.313-.531 0-.828.219-.281.203-.422.547v7.844h-1.61v-9.86h1.516zm14.774 10.047q-1.031 0-1.906-.36-.875-.359-1.5-.984-.61-.64-.953-1.515-.344-.875-.344-1.907v-.39q0-1.188.375-2.125.39-.953 1.015-1.594.641-.656 1.438-1 .812-.344 1.656-.344 1.063 0 1.86.375.796.36 1.328 1.016.531.64.781 1.531.266.875.266 1.906v.75h-7.032q.016.688.25 1.282.235.578.641 1.031.406.437.969.703.562.25 1.25.25.906 0 1.593-.36.704-.374 1.172-.968l1.032.797q-.25.375-.625.719-.36.328-.844.593-.485.266-1.094.422-.61.172-1.328.172zm-.219-8.844q-.515 0-.969.188-.453.187-.812.547-.36.36-.625.89-.25.516-.344 1.203h5.297v-.125q-.016-.5-.187-.984-.157-.484-.47-.86-.296-.39-.765-.624-.469-.235-1.125-.235zm13.524-1.375q.234 0 .484.016.266 0 .485.031.234.031.422.078.203.047.343.11l-.234 1.64q-.484-.109-.938-.156-.437-.047-.921-.047-1.188 0-1.922.547-.735.531-1.078 1.484v6.329h-1.688v-9.86h1.594l.094 1.563q.593-.797 1.437-1.266.844-.469 1.922-.469zm11.211 10.032q-.094-.188-.156-.47-.063-.296-.094-.609-.25.266-.562.5-.313.22-.703.391-.375.172-.813.266-.422.11-.89.11-.797 0-1.438-.22-.625-.234-1.063-.625-.437-.39-.687-.922-.234-.53-.234-1.156 0-.812.312-1.422.328-.609.922-1.015.594-.407 1.422-.594.844-.203 1.875-.203h1.828v-.781q0-.454-.172-.797-.156-.36-.453-.61-.297-.25-.734-.39-.422-.14-.97-.14-.5 0-.905.14-.391.125-.672.343-.266.204-.422.485-.14.281-.14.594h-1.688q0-.532.265-1.047.282-.532.782-.938.5-.422 1.218-.672.735-.25 1.657-.25.843 0 1.562.203.719.204 1.234.625.532.407.829 1.032.296.61.296 1.437v4.578q0 .5.094 1.047.094.547.25.969v.14h-1.75zm-2.984-1.282q.5 0 .922-.125.437-.14.78-.343.345-.204.595-.47.265-.28.406-.562v-2h-1.563q-1.468 0-2.296.438-.813.437-.813 1.375 0 .36.125.672.125.312.36.531.25.219.624.36.375.124.86.124zm16.055-3.53q0 1.046-.266 1.968-.25.906-.75 1.594-.484.671-1.203 1.062-.719.375-1.656.375-.953 0-1.657-.328-.687-.344-1.187-.984l-.078 1.125h-1.547v-14h1.687v5.203q.485-.61 1.157-.922.687-.313 1.61-.313.937 0 1.655.375.735.36 1.22 1.032.5.656.75 1.593.265.922.265 2.016v.203zm-1.688-.204q0-.719-.14-1.36-.141-.656-.454-1.156-.312-.5-.812-.78-.5-.298-1.219-.298-.437 0-.812.125-.36.11-.657.313-.28.203-.5.484-.218.266-.375.594v4.312q.157.328.375.61.235.281.516.5.297.203.656.312.375.11.813.11.687 0 1.187-.282.5-.297.813-.78.312-.5.453-1.142.156-.64.156-1.359v-.203zm4.79-8.984h5.046v12.546h3.22v1.454h-8.266v-1.454h3.359V138.79h-3.36v-1.468zm15.289 14.187q-1.031 0-1.906-.36-.875-.359-1.5-.984-.61-.64-.954-1.515-.343-.875-.343-1.907v-.39q0-1.188.375-2.125.39-.953 1.015-1.594.641-.656 1.438-1 .812-.344 1.656-.344 1.063 0 1.86.375.796.36 1.328 1.016.53.64.78 1.531.266.875.266 1.906v.75h-7.03q.015.688.25 1.282.234.578.64 1.031.406.437.969.703.562.25 1.25.25.906 0 1.593-.36.703-.374 1.172-.968l1.031.797q-.25.375-.625.719-.359.328-.843.593-.485.266-1.094.422-.61.172-1.328.172zm-.219-8.844q-.516 0-.969.188-.453.187-.812.547-.36.36-.625.89-.25.516-.344 1.203h5.297v-.125q-.016-.5-.188-.984-.156-.484-.468-.86-.297-.39-.766-.624-.469-.235-1.125-.235z"/><path fill="#e67c73" d="M742.684 136.165h3.625v18h-3.625v-1.39h2.032V137.54h-2.032v-1.375zm11.196 0h3.625v18h-3.625v-1.39h2.031V137.54h-2.031v-1.375zm12.024 14.063q0-.266.078-.5.094-.25.25-.422.172-.188.422-.281.25-.094.578-.094.328 0 .578.094.25.093.406.281.172.172.25.422.094.234.094.5 0 .265-.094.5-.078.234-.25.406-.156.172-.406.266-.25.093-.578.093-.328 0-.578-.093-.25-.094-.422-.266-.156-.172-.25-.406-.078-.235-.078-.5zm0-8q0-.266.078-.5.094-.25.25-.422.172-.188.422-.281.25-.094.578-.094.328 0 .578.094.25.093.406.281.172.172.25.422.094.234.094.5 0 .265-.094.5-.078.234-.25.406-.156.172-.406.266-.25.093-.578.093-.328 0-.578-.093-.25-.094-.422-.266-.156-.172-.25-.406-.078-.235-.078-.5z"/><path fill="#4285f4" d="M789.357 139.072v2.39h3.75v1.313h-3.75v5.343q0 .579.141.954.14.375.39.593.266.22.594.313.344.094.72.094.265 0 .546-.032.297-.03.578-.078.281-.047.516-.094.25-.046.406-.093l.234 1.203q-.218.125-.515.219-.297.093-.657.156-.343.078-.75.11-.39.046-.78.046-.657 0-1.235-.187-.563-.188-.985-.594-.421-.406-.671-1.047-.235-.64-.235-1.563v-5.343h-2.578v-1.313h2.578v-2.39h1.703zm13.665 2.218q.234 0 .484.016.266 0 .484.031.235.031.422.078.203.047.344.11l-.234 1.64q-.485-.109-.938-.156-.437-.047-.922-.047-1.187 0-1.922.547-.734.531-1.078 1.484v6.329h-1.687v-9.86h1.594l.093 1.563q.594-.797 1.438-1.266t1.922-.469zm11.133 8.672q-.5.735-1.235 1.14-.734.407-1.703.407-.781 0-1.406-.234-.625-.25-1.078-.766-.438-.516-.688-1.297-.234-.781-.234-1.89v-5.86h1.687v5.875q0 .813.125 1.344.125.516.375.828.266.313.625.453.375.125.86.125 1.031 0 1.656-.422.64-.422.953-1.125v-7.078h1.688v9.86h-1.532l-.093-1.36zm9.148 1.547q-1.03 0-1.906-.36-.875-.359-1.5-.984-.61-.64-.953-1.515-.344-.875-.344-1.907v-.39q0-1.188.375-2.125.39-.953 1.016-1.594.64-.656 1.437-1 .813-.344 1.657-.344 1.062 0 1.859.375.797.36 1.328 1.016.531.64.781 1.531.266.875.266 1.906v.75h-7.031q.015.688.25 1.282.234.578.64 1.031.407.437.97.703.562.25 1.25.25.905 0 1.593-.36.703-.374 1.172-.968l1.031.797q-.25.375-.625.719-.36.328-.844.593-.484.266-1.093.422-.61.172-1.329.172zm-.218-8.844q-.516 0-.97.188-.452.187-.812.547-.359.36-.625.89-.25.516-.343 1.203h5.297v-.125q-.016-.5-.188-.984-.156-.484-.469-.86-.297-.39-.765-.624-.47-.235-1.125-.235z"/><path fill="#e67c73" d="M612.134 163.54h-2.015v15.235h2.015v1.39h-3.609v-18h3.61v1.375zm11.196 0h-2.016v15.235h2.016v1.39h-3.61v-18h3.61v1.375z"/><path fill="#673ab7" d="M637.213 173.337q-.11.922-.469 1.688-.359.765-.937 1.328-.563.547-1.344.86-.766.296-1.734.296-.813 0-1.485-.234-.672-.235-1.203-.64-.515-.423-.89-.97-.375-.562-.625-1.218-.25-.657-.375-1.375-.125-.72-.141-1.454v-1.843q.016-.75.14-1.47.126-.718.376-1.374.25-.656.625-1.203.375-.563.89-.969.531-.422 1.188-.656.672-.235 1.5-.235 1 0 1.781.313.781.312 1.344.875.562.547.906 1.344.344.78.453 1.718h-1.687q-.079-.593-.282-1.109-.203-.531-.547-.922-.328-.39-.812-.61-.484-.218-1.156-.218-.594 0-1.063.203-.453.188-.797.531-.328.329-.547.782-.218.437-.359.937-.14.5-.203 1.031-.047.516-.047 1.016v1.86q0 .5.047 1.03.062.516.203 1.016.14.5.36.953.218.438.546.782.344.343.797.547.453.187 1.063.187.672 0 1.156-.203.484-.219.812-.594.344-.375.547-.89.203-.516.282-1.11h1.687zm2.133-1.031q0-1.063.313-1.984.312-.922.89-1.594.578-.672 1.407-1.047.828-.39 1.859-.39 1.047 0 1.875.39.844.375 1.422 1.047.578.672.89 1.594.313.921.313 1.984v.203q0 1.063-.313 1.969-.312.906-.89 1.594-.578.671-1.406 1.062-.829.375-1.86.375-1.047 0-1.89-.375-.829-.39-1.407-1.062-.578-.688-.89-1.594-.313-.906-.313-1.969v-.203zm1.688.203q0 .719.172 1.39.171.657.515 1.157.36.5.89.797.532.281 1.235.281.688 0 1.203-.281.532-.297.875-.797.36-.5.532-1.156.171-.672.171-1.39v-.204q0-.719-.187-1.375-.172-.672-.531-1.172-.344-.5-.875-.797-.516-.297-1.22-.297-.702 0-1.218.297-.515.297-.875.797-.344.5-.515 1.172-.172.656-.172 1.375v.203zm11.492-5.047l.125 1.453q.531-.765 1.313-1.187.78-.438 1.75-.438.78 0 1.406.22.64.218 1.078.687.453.453.688 1.171.25.72.25 1.688v6.266h-1.688v-6.22q0-.655-.156-1.109-.14-.453-.422-.734-.281-.297-.703-.422-.406-.125-.953-.125-.844 0-1.485.422-.64.422-1.031 1.125v7.063h-1.687v-9.86h1.515zm12.196 9.86v-8.547h-2.703v-1.313h2.703v-.687q0-.953.281-1.657.281-.718.781-1.203.516-.484 1.219-.734.719-.25 1.594-.25.593 0 1.156.11.578.093 1.172.25l-.188 1.39q-.375-.125-.875-.219t-1.062-.094q-1.188.016-1.781.61-.594.578-.594 1.797v.687h3.797v1.313h-3.797v8.547h-1.703zm8.954-9.86h5.047v8.406h3.219v1.454h-8.266v-1.454h3.36v-6.937h-3.36v-1.469zm3.141-2.578q0-.422.25-.703.25-.297.766-.297.5 0 .75.297.25.281.25.703 0 .406-.25.688-.25.265-.75.265-.516 0-.766-.265-.25-.282-.25-.688zm7.492 7.422q0-1.094.266-2.016.266-.937.766-1.593.515-.672 1.25-1.032.734-.375 1.64-.375.922 0 1.61.328.687.313 1.172.922l.078-1.078h1.531v9.656q0 .97-.313 1.72-.296.765-.859 1.28-.547.532-1.312.797-.766.282-1.688.282-.39 0-.89-.094-.485-.078-.985-.281-.5-.188-.969-.516-.468-.328-.812-.813l.875-1q.312.375.64.625.329.266.657.422.343.157.672.22.343.062.687.062.594 0 1.078-.172.485-.172.828-.5.344-.328.516-.828.187-.485.187-1.125v-.844q-.484.562-1.156.86-.672.296-1.562.296t-1.625-.375q-.735-.39-1.235-1.062-.5-.688-.78-1.594-.267-.922-.267-1.969v-.203zm1.672.203q0 .719.157 1.36.156.64.468 1.14.328.484.828.781.5.282 1.204.282.437 0 .78-.094.36-.11.641-.297.282-.203.5-.469.22-.265.375-.578v-4.516q-.156-.312-.375-.562-.218-.266-.515-.453-.281-.188-.625-.281-.344-.11-.766-.11-.703 0-1.219.297-.5.281-.828.781-.312.5-.468 1.157-.157.64-.157 1.359v.203zm16.227 3.453q-.5.735-1.234 1.14-.735.407-1.703.407-.782 0-1.407-.234-.625-.25-1.078-.766-.437-.516-.687-1.297-.235-.781-.235-1.89v-5.86h1.688v5.875q0 .813.125 1.344.125.516.375.828.266.313.625.453.375.125.86.125 1.03 0 1.656-.422.64-.422.953-1.125v-7.078h1.687v9.86h-1.531l-.094-1.36zm11.258-8.672q.235 0 .485.016.265 0 .484.031.234.031.422.078.203.047.344.11l-.235 1.64q-.484-.109-.937-.156-.438-.047-.922-.047-1.188 0-1.922.547-.734.531-1.078 1.484v6.329h-1.688v-9.86h1.594l.094 1.563q.594-.797 1.437-1.266.844-.469 1.922-.469zm11.211 10.032q-.093-.188-.156-.47-.062-.296-.094-.609-.25.266-.562.5-.313.22-.703.391-.375.172-.813.266-.422.11-.89.11-.797 0-1.438-.22-.625-.234-1.062-.625-.438-.39-.688-.922-.234-.53-.234-1.156 0-.812.312-1.422.328-.609.922-1.015.594-.407 1.422-.594.844-.203 1.875-.203h1.828v-.781q0-.454-.172-.797-.156-.36-.453-.61-.297-.25-.734-.39-.422-.14-.969-.14-.5 0-.906.14-.39.125-.672.343-.266.204-.422.485-.14.281-.14.594h-1.688q0-.532.266-1.047.28-.532.78-.938.5-.422 1.22-.672.734-.25 1.656-.25.844 0 1.562.203.719.204 1.235.625.53.407.828 1.032.297.61.297 1.437v4.578q0 .5.093 1.047.094.547.25.969v.14h-1.75zm-2.984-1.282q.5 0 .922-.125.437-.14.781-.343.344-.204.594-.47.266-.28.406-.562v-2h-1.562q-1.47 0-2.297.438-.813.437-.813 1.375 0 .36.125.672.125.312.36.53.25.22.625.36.375.125.859.125zm16.055-3.53q0 1.046-.266 1.968-.25.906-.75 1.594-.484.671-1.203 1.062-.718.375-1.656.375-.953 0-1.656-.328-.688-.344-1.188-.984l-.078 1.125h-1.547v-14h1.688v5.203q.484-.61 1.156-.922.688-.313 1.61-.313.937 0 1.656.375.734.36 1.218 1.032.5.656.75 1.593.266.922.266 2.016v.203zm-1.687-.204q0-.719-.141-1.36-.14-.656-.453-1.156-.313-.5-.813-.78-.5-.298-1.218-.298-.438 0-.813.125-.36.11-.656.313-.281.203-.5.484-.219.266-.375.594v4.312q.156.328.375.61.234.28.515.5.297.203.657.312.375.11.812.11.688 0 1.188-.282.5-.297.812-.78.313-.5.453-1.142.157-.64.157-1.359v-.203zm4.789-8.984h5.047v12.546h3.218v1.454h-8.265v-1.454h3.36V164.79h-3.36v-1.468zm15.29 14.187q-1.032 0-1.907-.36-.875-.359-1.5-.984-.61-.64-.953-1.515-.344-.875-.344-1.907v-.39q0-1.188.375-2.125.39-.953 1.016-1.594.64-.656 1.437-1 .813-.344 1.656-.344 1.063 0 1.86.375.797.36 1.328 1.016.531.64.781 1.531.266.875.266 1.906v.75h-7.031q.015.688.25 1.282.234.578.64 1.03.406.438.969.704.562.25 1.25.25.906 0 1.594-.36.703-.374 1.172-.968l1.03.797q-.25.375-.624.719-.36.328-.844.593-.484.266-1.094.422-.61.172-1.328.172zm-.22-8.844q-.515 0-.968.188-.453.187-.813.547-.36.36-.625.89-.25.516-.344 1.203h5.297v-.125q-.015-.5-.187-.984-.156-.484-.469-.86-.297-.39-.766-.624-.468-.235-1.125-.235z"/><path fill="#e67c73" d="M765.085 162.165h3.625v18h-3.625v-1.39h2.03V163.54h-2.03v-1.375zm11.195 0h3.625v18h-3.625v-1.39h2.032V163.54h-2.032v-1.375zm12.024 14.063q0-.266.078-.5.094-.25.25-.422.172-.188.422-.281.25-.094.578-.094.328 0 .578.094.25.093.406.281.172.172.25.422.094.234.094.5 0 .265-.094.5-.078.234-.25.406-.156.172-.406.266-.25.093-.578.093-.328 0-.578-.093-.25-.094-.422-.266-.156-.172-.25-.406-.078-.235-.078-.5zm0-8q0-.266.078-.5.094-.25.25-.422.172-.188.422-.281.25-.094.578-.094.328 0 .578.094.25.093.406.281.172.172.25.422.094.234.094.5 0 .265-.094.5-.078.234-.25.406-.156.172-.406.266-.25.093-.578.093-.328 0-.578-.093-.25-.094-.422-.266-.156-.172-.25-.406-.078-.235-.078-.5z"/><path fill="#4285f4" d="M811.758 165.072v2.39h3.75v1.313h-3.75v5.343q0 .579.14.954t.39.593q.266.22.595.313.343.094.718.094.266 0 .547-.032.297-.03.578-.078.282-.047.516-.094.25-.046.406-.093l.235 1.203q-.22.125-.516.219-.297.093-.656.156-.344.078-.75.11-.39.046-.782.046-.656 0-1.234-.187-.562-.188-.984-.594-.422-.406-.672-1.047-.235-.64-.235-1.563v-5.343h-2.578v-1.313h2.578v-2.39h1.704zm13.664 2.218q.234 0 .484.016.266 0 .485.031.234.031.422.078.203.047.343.11l-.234 1.64q-.484-.109-.938-.156-.437-.047-.921-.047-1.188 0-1.922.547-.735.531-1.078 1.484v6.329h-1.688v-9.86h1.594l.094 1.563q.593-.797 1.437-1.266.844-.469 1.922-.469zm11.133 8.672q-.5.735-1.234 1.14-.735.407-1.704.407-.78 0-1.406-.234-.625-.25-1.078-.766-.437-.516-.687-1.297-.235-.781-.235-1.89v-5.86h1.688v5.875q0 .813.125 1.344.125.516.375.828.265.313.625.453.375.125.86.125 1.03 0 1.655-.422.641-.422.953-1.125v-7.078h1.688v9.86h-1.531l-.094-1.36zm9.149 1.547q-1.032 0-1.907-.36-.875-.359-1.5-.984-.609-.64-.953-1.515-.343-.875-.343-1.907v-.39q0-1.188.375-2.125.39-.953 1.015-1.594.64-.656 1.438-1 .812-.344 1.656-.344 1.062 0 1.86.375.796.36 1.327 1.016.532.64.782 1.531.265.875.265 1.906v.75h-7.03q.015.688.25 1.282.233.578.64 1.031.406.437.968.703.563.25 1.25.25.907 0 1.594-.36.703-.374 1.172-.968l1.031.797q-.25.375-.625.719-.36.328-.843.593-.485.266-1.094.422-.61.172-1.328.172zm-.22-8.844q-.515 0-.968.188-.453.187-.812.547-.36.36-.625.89-.25.516-.344 1.203h5.297v-.125q-.016-.5-.188-.984-.156-.484-.468-.86-.297-.39-.766-.624-.469-.235-1.125-.235z"/><path d="M798.527 310.186c-4.396 48.35-43.82 93.174-85.666 117.79-37.13 21.842-81.317 30.262-123.909 36.714-53.054 8.038-114.612 16.903-160.624-10.706-45.719-27.432-42.861-106.497-27.536-157.564 13.32-44.382 56.601-80.63 56.601-126.969"/><path stroke="#595959" stroke-width="4" stroke-linejoin="round" stroke-linecap="butt" d="M796.053 325.143l-.183.76c-.182.74-.372 1.479-.57 2.217-1.58 5.9-3.644 11.714-6.128 17.407-4.969 11.386-11.616 22.291-19.435 32.455-15.636 20.326-35.953 37.686-56.876 49.994-37.13 21.842-81.317 30.262-123.909 36.714-53.054 8.038-114.612 16.903-160.624-10.706-45.719-27.432-42.861-106.497-27.536-157.564 6.66-22.191 20.81-42.349 33.296-62.751 6.242-10.201 12.069-20.463 16.335-31.071a112.03 112.03 0 0 0 3.203-9.04l.116-.386"/><path fill="#595959" stroke="#595959" stroke-width="4" stroke-linecap="butt" d="M798.2 312.16a6.58 6.58 0 1 1-2.147 12.983 6.58 6.58 0 0 1 2.148-12.983z"/><path fill="#595959" stroke="#595959" stroke-width="4" stroke-linecap="butt" d="M460.272 194.177l-3.768-18.946-9.292 16.936z" fill-rule="evenodd"/><path d="M687.504 92.772c0-7.228 6.261-13.087 13.984-13.087 7.724 0 13.985 5.86 13.985 13.087 0 7.227-6.261 13.086-13.985 13.086-7.723 0-13.984-5.859-13.984-13.086z"/><path stroke="#673ab7" stroke-width="3" stroke-linejoin="round" stroke-linecap="butt" stroke-dasharray="3.0,9.0" d="M687.504 92.772c0-7.228 6.261-13.087 13.984-13.087 7.724 0 13.985 5.86 13.985 13.087 0 7.227-6.261 13.086-13.985 13.086-7.723 0-13.984-5.859-13.984-13.086z"/><path d="M723.108 93.25c56.899 0 126.7 21.924 155.133 71.21 23.208 40.225-3.117 94.12-17.803 138.178"/><path stroke="#595959" stroke-width="3" stroke-linejoin="round" stroke-linecap="butt" stroke-dasharray="3.0,9.0" d="M723.108 93.25c56.899 0 126.7 21.924 155.133 71.21 11.604 20.112 10.825 43.643 5.309 67.652-2.758 12.004-6.7 24.129-10.87 36.006-1.044 2.969-2.1 5.922-3.157 8.855l-3.133 8.677"/><path fill="#595959" stroke="#595959" stroke-width="3" stroke-linecap="butt" d="M861.713 284.012l.175 14.487 9.178-11.21z" fill-rule="evenodd"/></g></svg>