<svg viewBox="0 0 960 540" fill="none" stroke-linecap="square" stroke-miterlimit="10" xmlns="http://www.w3.org/2000/svg"><clipPath id="a"><path d="M0 0h960v540H0V0z"/></clipPath><g clip-path="url(#a)"><path fill="#fff" d="M0 0h960v540H0z" fill-rule="evenodd"/><path fill="#666" d="M25.705 517.365v-1.93h6.463c.066.34.104.746.104 1.184 0 1.447-.397 3.24-1.672 4.515-1.24 1.293-2.827 1.982-4.929 1.982-3.895 0-7.17-3.17-7.17-7.066 0-3.895 3.275-7.066 7.17-7.066 2.154 0 3.689.844 4.843 1.947l-1.361 1.362c-.827-.776-1.948-1.379-3.481-1.379-2.844 0-5.068 2.292-5.068 5.136 0 2.844 2.224 5.136 5.068 5.136 1.844 0 2.895-.741 3.567-1.413.548-.547.908-1.333 1.048-2.407h-4.582zM42.188 518.578c0 2.62-2.05 4.55-4.567 4.55-2.517 0-4.567-1.93-4.567-4.55 0-2.637 2.05-4.55 4.567-4.55 2.516 0 4.567 1.913 4.567 4.55zm-1.999 0c0-1.637-1.189-2.758-2.568-2.758-1.378 0-2.568 1.12-2.568 2.758 0 1.62 1.189 2.758 2.568 2.758s2.568-1.138 2.568-2.758zM52.152 518.578c0 2.62-2.05 4.55-4.567 4.55-2.517 0-4.568-1.93-4.568-4.55 0-2.637 2.051-4.55 4.568-4.55 2.516 0 4.567 1.913 4.567 4.55zm-2 0c0-1.637-1.188-2.758-2.567-2.758-1.379 0-2.568 1.12-2.568 2.758 0 1.62 1.189 2.758 2.568 2.758 1.378 0 2.568-1.138 2.568-2.758zM61.702 514.304v8.17c0 3.36-1.982 4.739-4.326 4.739-2.206 0-3.533-1.483-4.033-2.69l1.74-.723c.311.741 1.069 1.62 2.293 1.62 1.5 0 2.43-.93 2.43-2.67v-.656h-.068c-.449.552-1.31 1.034-2.396 1.034-2.275 0-4.36-1.982-4.36-4.533 0-2.568 2.085-4.567 4.36-4.567 1.086 0 1.947.483 2.396 1.018h.068v-.742h1.896zm-1.758 4.291c0-1.602-1.068-2.775-2.43-2.775-1.379 0-2.533 1.173-2.533 2.775 0 1.586 1.154 2.741 2.533 2.741 1.361 0 2.43-1.155 2.43-2.74zM65.088 509.522v13.33H63.09v-13.33h2zM72.81 520.077l1.55 1.034c-.5.742-1.706 2.017-3.791 2.017-2.586 0-4.516-2-4.516-4.55 0-2.707 1.948-4.551 4.292-4.551 2.361 0 3.516 1.879 3.895 2.896l.207.517-6.084 2.516c.465.914 1.19 1.379 2.206 1.379s1.723-.499 2.24-1.258zm-4.775-1.637l4.067-1.69c-.224-.568-.896-.965-1.689-.965-1.017.001-2.43.897-2.378 2.655z" fill-rule="evenodd"/><path fill="#fff" d="M2.37 495.703h96v44.284h-96z" fill-rule="evenodd"/><path fill="none" d="M393.472 221.766h394.71v46.048h-394.71z"/><path fill="#666" d="M577.32 241.265h-1.704v-2.094h1.703v-.516q0-1.625.969-2.547.969-.922 2.547-.922.89 0 1.547.204v2.39q-.36-.156-.641-.234-.266-.078-.61-.078-.624 0-1 .359-.359.36-.359.969v.375h2.328v2.094h-2.328v7.421h-2.453v-7.421zm9.595 7.718q-1.516 0-2.485-.875-.968-.89-.968-2.328 0-.953.5-1.672.5-.734 1.375-1.125.89-.39 1.953-.39 1.468 0 2.515.422v-.407q0-.781-.593-1.265-.579-.485-1.579-.485-.671 0-1.296.313-.625.297-1.032.797l-1.562-1.235q.687-.89 1.734-1.375 1.047-.484 2.266-.484 2.187 0 3.328 1.016 1.14 1 1.14 2.937v5.86h-2.406v-.97h-.156q-.422.563-1.125.923-.703.343-1.61.343zm.578-1.906q1.062 0 1.687-.672.625-.687.625-1.594-.953-.453-2-.453-1.906 0-1.906 1.422 0 .578.406.938.422.359 1.188.359zm10.591 1.906q-1.734 0-2.812-.703-1.063-.719-1.5-1.844l2.187-.953q.297.672.844 1.016.547.344 1.281.344.672 0 1.11-.22.453-.218.453-.702 0-.469-.407-.688-.406-.234-1.234-.422l-1.11-.25q-1.156-.28-1.921-1.015-.766-.735-.766-1.844 0-.812.484-1.469.5-.656 1.344-1 .86-.36 1.875-.36 2.953 0 3.938 2.063l-2.078.922q-.563-1-1.797-1-.64 0-1.016.235-.36.218-.36.578 0 .672 1.266 1.015l1.39.329q1.423.359 2.142 1.093.718.719.718 1.782 0 .906-.53 1.609-.532.703-1.454 1.094-.922.39-2.047.39zm9.937-.14q-.703 0-1.297-.22-.594-.218-.969-.593-.875-.844-.875-2.39v-4.375h-1.671v-2.094h1.671v-2.688h2.438v2.688h2.328v2.094h-2.328v3.937q0 .719.312 1.047.266.297.907.297.343 0 .578-.094.234-.094.61-.328v2.39q-.798.329-1.704.329zm8.126.14q-1.421 0-2.562-.64-1.14-.657-1.781-1.797-.64-1.156-.64-2.594 0-1.36.624-2.531.64-1.172 1.75-1.86 1.125-.687 2.516-.687 1.468 0 2.531.64 1.062.626 1.61 1.735.562 1.094.562 2.437 0 .422-.063.829h-7.14q.187 1.125.906 1.718.719.594 1.719.594.843 0 1.453-.36.61-.374.953-.984l1.984.969q-1.453 2.531-4.422 2.531zm2.25-6.203q-.03-.453-.328-.89-.28-.438-.797-.72-.515-.296-1.203-.296-.875 0-1.5.516-.625.5-.906 1.39h4.734zm4.233-3.61h2.297v1.266h.156q.36-.671 1.094-1.109.75-.437 1.64-.437.657 0 1.204.203v2.453q-.5-.188-.86-.266-.344-.094-.734-.094-1.078 0-1.719.782-.625.78-.625 1.984v4.734h-2.453v-9.515zm6.779 9.516zm9.693.157q-.703 0-1.297-.22-.593-.218-.968-.593-.875-.844-.875-2.39v-4.375h-1.672v-2.094h1.672v-2.688h2.437v2.688h2.328v2.094H638.4v3.937q0 .719.313 1.047.265.297.906.297.344 0 .578-.094.234-.094.61-.328v2.39q-.797.329-1.704.329zm8.22.14q-1.484 0-2.64-.656-1.156-.672-1.797-1.812-.64-1.157-.64-2.579 0-1.421.64-2.578.64-1.156 1.797-1.812 1.156-.672 2.64-.672 1.454 0 2.61.672 1.156.656 1.797 1.812.64 1.157.64 2.578 0 1.422-.64 2.579-.64 1.14-1.797 1.812-1.156.656-2.61.656zm0-2.25q.704 0 1.297-.328.61-.344.954-.984.359-.64.359-1.485 0-.843-.36-1.468-.343-.641-.953-.97-.593-.343-1.296-.343-.72 0-1.313.344-.594.328-.969.969-.359.625-.359 1.468 0 .829.36 1.485.374.64.968.984.594.328 1.313.328zm5.724 1.953zm10.022.297q-1.422 0-2.563-.64-1.14-.657-1.78-1.797-.641-1.156-.641-2.594 0-1.36.625-2.531.64-1.172 1.75-1.86 1.125-.687 2.515-.687 1.469 0 2.531.64 1.063.626 1.61 1.735.562 1.094.562 2.437 0 .422-.062.829h-7.14q.187 1.125.905 1.718.72.594 1.72.594.843 0 1.452-.36.61-.374.953-.984l1.985.969q-1.453 2.531-4.422 2.531zm2.25-6.203q-.031-.453-.328-.89-.281-.438-.797-.72-.516-.296-1.203-.296-.875 0-1.5.516-.625.5-.906 1.39h4.734zm6.592 1.078l-3.281-4.687h2.89l1.813 2.719h.11l1.687-2.72h2.984l-3.328 4.688 3.328 4.828h-2.89l-1.829-2.78h-.11l-1.78 2.78h-2.891l3.297-4.828zm12.109 5.125q-1.422 0-2.563-.64-1.14-.657-1.78-1.797-.641-1.156-.641-2.594 0-1.36.625-2.531.64-1.172 1.75-1.86 1.125-.687 2.515-.687 1.469 0 2.531.64 1.063.626 1.61 1.735.562 1.094.562 2.437 0 .422-.062.829h-7.14q.187 1.125.905 1.718.72.594 1.72.594.843 0 1.452-.36.61-.374.953-.984l1.985.969q-1.453 2.531-4.422 2.531zm2.25-6.203q-.031-.453-.328-.89-.281-.438-.797-.72-.516-.296-1.203-.296-.875 0-1.5.516-.625.5-.906 1.39h4.734zm8.717 6.203q-1.438 0-2.578-.64-1.141-.641-1.782-1.797-.64-1.156-.64-2.61 0-1.468.64-2.609.641-1.14 1.782-1.797 1.14-.656 2.578-.656 1.578 0 2.719.687 1.14.672 1.64 1.922l-2.234.938q-.594-1.266-2.125-1.266-1.125 0-1.844.766-.719.765-.719 2.015 0 1.266.719 2.032.719.765 1.844.765 1.547 0 2.234-1.343l2.219.968q-.61 1.25-1.75 1.938-1.14.687-2.703.687zm9.643 0q-1.719 0-2.61-1.062-.89-1.063-.89-2.969v-5.781h2.437v5.484q0 .969.47 1.531.468.547 1.234.547 1.046 0 1.656-.765.61-.766.61-1.953v-4.844h2.452v9.515h-2.297V247.5h-.156q-.422.687-1.203 1.094-.766.39-1.703.39zm11.878-.14q-.703 0-1.297-.22-.593-.218-.968-.593-.875-.844-.875-2.39v-4.375h-1.672v-2.094h1.672v-2.688h2.437v2.688h2.328v2.094h-2.328v3.937q0 .719.313 1.047.265.297.906.297.344 0 .578-.094.234-.094.61-.328v2.39q-.798.329-1.704.329zm8.127.14q-1.422 0-2.563-.64-1.14-.657-1.781-1.797-.64-1.156-.64-2.594 0-1.36.624-2.531.64-1.172 1.75-1.86 1.125-.687 2.516-.687 1.469 0 2.531.64 1.063.626 1.61 1.735.562 1.094.562 2.437 0 .422-.063.829h-7.14q.187 1.125.906 1.718.719.594 1.719.594.844 0 1.453-.36.61-.374.953-.984l1.984.969q-1.453 2.531-4.421 2.531zm2.25-6.203q-.032-.453-.329-.89-.28-.438-.796-.72-.516-.296-1.204-.296-.875 0-1.5.516-.625.5-.906 1.39h4.735zm3.045 5.906zm10.037.297q-1.437 0-2.578-.64-1.14-.641-1.781-1.797t-.641-2.61q0-1.468.64-2.609.641-1.14 1.782-1.797 1.14-.656 2.578-.656 1.578 0 2.719.687 1.14.672 1.64 1.922l-2.234.938q-.594-1.266-2.125-1.266-1.125 0-1.844.766-.718.765-.718 2.015 0 1.266.718 2.032.719.765 1.844.765 1.547 0 2.234-1.343l2.22.968q-.61 1.25-1.75 1.938-1.141.687-2.704.687zm10.768 0q-1.484 0-2.64-.656-1.157-.672-1.797-1.812-.641-1.157-.641-2.579 0-1.421.64-2.578.641-1.156 1.798-1.812 1.156-.672 2.64-.672 1.453 0 2.61.672 1.156.656 1.796 1.812.641 1.157.641 2.578 0 1.422-.64 2.579-.641 1.14-1.797 1.812-1.157.656-2.61.656zm0-2.25q.703 0 1.297-.328.61-.344.953-.984.36-.64.36-1.485 0-.843-.36-1.468-.344-.641-.953-.97-.594-.343-1.297-.343-.719 0-1.312.344-.594.328-.97.969-.358.625-.358 1.468 0 .829.359 1.485.375.64.969.984.593.328 1.312.328zm11.005 2.25q-1.281 0-2.344-.64-1.047-.641-1.656-1.782-.61-1.156-.61-2.625 0-1.468.61-2.625.61-1.156 1.656-1.796 1.063-.641 2.344-.641.969 0 1.719.422.75.422 1.14 1.031h.141l-.14-1.344v-3.656h2.421v13.36h-2.281v-1.141h-.14q-.376.625-1.141 1.031-.75.406-1.719.406zm.406-2.25q.688 0 1.282-.36.609-.358.953-.983.359-.641.359-1.454 0-.828-.36-1.453-.343-.64-.952-.984-.594-.344-1.282-.344-.672 0-1.265.344-.594.344-.953.984-.36.625-.36 1.453 0 .813.36 1.454.359.625.953.984.593.36 1.265.36zm11.741 2.25q-1.422 0-2.562-.64-1.141-.657-1.782-1.797-.64-1.156-.64-2.594 0-1.36.625-2.531.64-1.172 1.75-1.86 1.125-.687 2.515-.687 1.47 0 2.532.64 1.062.626 1.609 1.735.562 1.094.562 2.437 0 .422-.062.829h-7.14q.187 1.125.906 1.718.718.594 1.718.594.844 0 1.453-.36.61-.374.954-.984l1.984.969q-1.453 2.531-4.422 2.531zm2.25-6.203q-.031-.453-.328-.89-.281-.438-.797-.72-.516-.296-1.203-.296-.875 0-1.5.516-.625.5-.906 1.39h4.734z"/><path fill="none" d="M153.22 267.814h394.71v46.047H153.22z"/><path fill="#666" d="M164.44 287.312h-1.704v-2.094h1.703v-.516q0-1.625.969-2.546.969-.922 2.547-.922.89 0 1.547.203v2.39q-.36-.156-.64-.234-.267-.078-.61-.078-.625 0-1 .36-.36.359-.36.968v.375h2.328v2.094h-2.328v7.422h-2.453v-7.422zm9.595 7.719q-1.516 0-2.484-.875-.97-.891-.97-2.329 0-.953.5-1.671.5-.735 1.376-1.125.89-.391 1.953-.391 1.469 0 2.516.422v-.406q0-.782-.594-1.266-.578-.484-1.578-.484-.672 0-1.297.312-.625.297-1.031.797l-1.563-1.234q.688-.891 1.734-1.375 1.047-.485 2.266-.485 2.188 0 3.328 1.016 1.14 1 1.14 2.937v5.86h-2.405v-.97h-.157q-.422.563-1.125.923-.703.344-1.61.344zm.578-1.907q1.063 0 1.688-.672.625-.687.625-1.593-.954-.453-2-.453-1.907 0-1.907 1.421 0 .579.407.938.421.36 1.187.36zm10.591 1.907q-1.734 0-2.812-.704-1.063-.718-1.5-1.843l2.187-.953q.297.671.844 1.015.547.344 1.281.344.672 0 1.11-.219.453-.219.453-.703 0-.469-.407-.687-.406-.235-1.234-.422l-1.11-.25q-1.156-.282-1.921-1.016-.766-.734-.766-1.844 0-.812.485-1.468.5-.657 1.343-1 .86-.36 1.875-.36 2.953 0 3.938 2.063l-2.078.922q-.563-1-1.797-1-.64 0-1.016.234-.36.219-.36.578 0 .672 1.266 1.016l1.391.328q1.422.36 2.14 1.094.72.718.72 1.78 0 .907-.532 1.61-.531.703-1.453 1.094-.922.39-2.047.39zm9.937-.141q-.703 0-1.297-.219-.593-.219-.968-.594-.875-.843-.875-2.39v-4.375h-1.672v-2.094H192v-2.687h2.437v2.687h2.328v2.094h-2.328v3.937q0 .719.313 1.047.265.297.906.297.344 0 .578-.094.234-.093.61-.328v2.39q-.798.329-1.704.329zm8.127.14q-1.422 0-2.563-.64-1.14-.656-1.781-1.797-.64-1.156-.64-2.594 0-1.36.624-2.531.64-1.172 1.75-1.86 1.125-.687 2.516-.687 1.469 0 2.531.64 1.063.626 1.61 1.735.562 1.094.562 2.438 0 .422-.063.828h-7.14q.187 1.125.906 1.719.719.593 1.719.593.844 0 1.453-.36.61-.374.953-.983l1.984.968q-1.453 2.532-4.421 2.532zm2.25-6.203q-.032-.453-.329-.89-.28-.438-.796-.719-.516-.297-1.204-.297-.875 0-1.5.516-.625.5-.906 1.39h4.735zm4.232-3.609h2.297v1.266h.156q.36-.672 1.094-1.11.75-.437 1.64-.437.657 0 1.204.203v2.453q-.5-.187-.86-.266-.343-.093-.734-.093-1.078 0-1.719.78-.625.782-.625 1.985v4.735h-2.453v-9.516zm6.779 9.516zm9.693.156q-.703 0-1.296-.219-.594-.219-.97-.594-.874-.843-.874-2.39v-4.375h-1.672v-2.094h1.672v-2.687h2.437v2.687h2.328v2.094h-2.328v3.937q0 .719.313 1.047.265.297.906.297.344 0 .578-.094.235-.093.61-.328v2.39q-.797.329-1.704.329zm8.22.14q-1.484 0-2.64-.656-1.156-.672-1.797-1.812-.64-1.156-.64-2.578t.64-2.578q.64-1.157 1.797-1.813 1.156-.672 2.64-.672 1.454 0 2.61.672 1.156.656 1.797 1.813.64 1.156.64 2.578t-.64 2.578q-.64 1.14-1.797 1.812-1.156.657-2.61.657zm0-2.25q.704 0 1.298-.328.609-.343.953-.984.36-.64.36-1.484t-.36-1.47q-.344-.64-.953-.968-.594-.344-1.297-.344-.72 0-1.313.344-.594.328-.969.969-.359.625-.359 1.469 0 .828.36 1.484.374.64.968.984.594.329 1.313.329zm5.724 1.954zm9.944 4.328q-1.813 0-3.016-.813-1.187-.812-1.593-1.953l2.296-.922q.297.703.907 1.11.625.422 1.406.422 1.156 0 1.828-.72.688-.702.688-2.015v-.75h-.141q-.453.64-1.188.985-.718.328-1.656.328-1.172 0-2.187-.61-1.016-.61-1.64-1.718-.61-1.11-.61-2.579 0-1.468.61-2.578.624-1.11 1.64-1.718 1.015-.61 2.187-.61.938 0 1.656.344.735.328 1.188.969h.14v-1.016h2.36v8.86q0 1.53-.61 2.64-.593 1.125-1.703 1.734-1.093.61-2.562.61zm.031-6.547q1.031 0 1.75-.719.735-.719.735-1.969 0-1.28-.72-1.984-.718-.703-1.765-.703-1.031 0-1.765.719-.735.703-.735 1.968 0 1.266.735 1.985.734.703 1.765.703zm11.689 2.516q-1.422 0-2.563-.641-1.14-.656-1.781-1.797-.64-1.156-.64-2.594 0-1.36.624-2.531.64-1.172 1.75-1.86 1.125-.687 2.516-.687 1.469 0 2.531.64 1.063.626 1.61 1.735.562 1.094.562 2.438 0 .422-.063.828h-7.14q.187 1.125.906 1.719.719.593 1.719.593.844 0 1.453-.36.61-.374.953-.983l1.984.968q-1.453 2.532-4.421 2.532zm2.25-6.204q-.032-.453-.329-.89-.28-.438-.796-.719-.516-.297-1.204-.297-.875 0-1.5.516-.625.5-.906 1.39h4.735zm4.232-3.609h2.297v1.188h.156q.422-.688 1.203-1.079.797-.406 1.703-.406 1.72 0 2.61 1.047.906 1.047.906 2.86v5.906h-2.453v-5.61q0-.922-.469-1.422-.469-.5-1.297-.5-1 0-1.61.766-.593.766-.593 1.922v4.844h-2.453v-9.516zm15.644 9.813q-1.422 0-2.563-.641-1.14-.656-1.78-1.797-.641-1.156-.641-2.594 0-1.36.625-2.531.64-1.172 1.75-1.86 1.125-.687 2.515-.687 1.469 0 2.531.64 1.063.626 1.61 1.735.562 1.094.562 2.438 0 .422-.062.828h-7.14q.187 1.125.905 1.719.72.593 1.72.593.843 0 1.452-.36.61-.374.953-.983l1.985.968q-1.453 2.532-4.422 2.532zm2.25-6.204q-.031-.453-.328-.89-.281-.438-.797-.719-.516-.297-1.203-.297-.875 0-1.5.516-.625.5-.906 1.39h4.734zm4.232-3.609h2.297v1.266h.157q.359-.672 1.093-1.11.75-.437 1.64-.437.657 0 1.204.203v2.453q-.5-.187-.86-.266-.343-.093-.734-.093-1.078 0-1.718.78-.625.782-.625 1.985v4.735h-2.454v-9.516zm10.888 9.813q-1.515 0-2.484-.875-.969-.891-.969-2.329 0-.953.5-1.671.5-.735 1.375-1.125.891-.391 1.953-.391 1.47 0 2.516.422v-.406q0-.782-.594-1.266-.578-.484-1.578-.484-.672 0-1.297.312-.625.297-1.03.797l-1.563-1.234q.687-.891 1.734-1.375 1.047-.485 2.266-.485 2.187 0 3.328 1.016 1.14 1 1.14 2.937v5.86h-2.406v-.97h-.156q-.422.563-1.125.923-.703.344-1.61.344zm.579-1.907q1.062 0 1.687-.672.625-.687.625-1.593-.953-.453-2-.453-1.906 0-1.906 1.421 0 .579.406.938.422.36 1.188.36zm11.106 1.766q-.703 0-1.296-.219-.594-.219-.97-.594-.874-.843-.874-2.39v-4.375h-1.672v-2.094h1.672v-2.687h2.437v2.687h2.328v2.094h-2.328v3.937q0 .719.313 1.047.265.297.906.297.344 0 .578-.094.235-.093.61-.328v2.39q-.797.329-1.704.329zm8.127.14q-1.422 0-2.563-.64-1.14-.656-1.78-1.797-.642-1.156-.642-2.594 0-1.36.625-2.531.641-1.172 1.75-1.86 1.125-.687 2.516-.687 1.469 0 2.531.64 1.063.626 1.61 1.735.562 1.094.562 2.438 0 .422-.062.828h-7.14q.187 1.125.905 1.719.72.593 1.72.593.843 0 1.452-.36.61-.374.953-.983l1.985.968q-1.453 2.532-4.422 2.532zm2.25-6.203q-.031-.453-.328-.89-.282-.438-.797-.719-.516-.297-1.203-.297-.875 0-1.5.516-.625.5-.907 1.39h4.735zm3.045 5.907zm10.037.297q-1.437 0-2.578-.641-1.14-.64-1.781-1.797-.64-1.156-.64-2.61 0-1.468.64-2.609.64-1.14 1.781-1.797 1.14-.656 2.578-.656 1.578 0 2.719.688 1.14.672 1.64 1.922l-2.234.937q-.594-1.266-2.125-1.266-1.125 0-1.844.766-.718.766-.718 2.016 0 1.265.718 2.03.72.767 1.844.767 1.547 0 2.235-1.344l2.218.969q-.609 1.25-1.75 1.937-1.14.688-2.703.688zm10.768 0q-1.484 0-2.64-.657-1.156-.672-1.797-1.812-.64-1.156-.64-2.578t.64-2.578q.64-1.157 1.797-1.813 1.156-.672 2.64-.672 1.454 0 2.61.672 1.156.656 1.797 1.813.64 1.156.64 2.578t-.64 2.578q-.641 1.14-1.797 1.812-1.156.657-2.61.657zm0-2.25q.704 0 1.297-.329.61-.343.953-.984.36-.64.36-1.484t-.36-1.47q-.343-.64-.953-.968-.593-.344-1.297-.344-.718 0-1.312.344-.594.328-.969.969-.36.625-.36 1.469 0 .828.36 1.484.375.64.969.984.594.329 1.312.329zm11.005 2.25q-1.281 0-2.344-.641-1.046-.64-1.656-1.781-.61-1.157-.61-2.625 0-1.47.61-2.625.61-1.157 1.656-1.797 1.063-.64 2.344-.64.969 0 1.719.421.75.422 1.14 1.031h.141l-.14-1.343v-3.657h2.421v13.36h-2.28v-1.141h-.141q-.375.625-1.141 1.031-.75.407-1.719.407zm.406-2.25q.688 0 1.282-.36.61-.36.953-.984.36-.64.36-1.453 0-.828-.36-1.453-.344-.641-.953-.985-.594-.344-1.282-.344-.671 0-1.265.344-.594.344-.953.985-.36.625-.36 1.453 0 .812.36 1.453.36.625.953.984.594.36 1.265.36zm11.741 2.25q-1.422 0-2.562-.641-1.14-.656-1.781-1.797-.641-1.156-.641-2.594 0-1.36.625-2.531.64-1.172 1.75-1.86 1.125-.687 2.516-.687 1.468 0 2.53.64 1.063.626 1.61 1.735.563 1.094.563 2.438 0 .422-.063.828h-7.14q.187 1.125.906 1.719.719.593 1.719.593.843 0 1.453-.36.61-.374.953-.983l1.984.968q-1.453 2.532-4.422 2.532zm2.25-6.204q-.03-.453-.328-.89-.281-.438-.797-.719-.515-.297-1.203-.297-.875 0-1.5.516-.625.5-.906 1.39h4.734z"/><path fill="none" d="M153.22 267.814l634.961-.66"/><path stroke="#666" stroke-width="4" stroke-linejoin="round" stroke-linecap="butt" d="M168.38 267.799l604.641-.63"/><path fill="#666" stroke="#666" stroke-width="4" stroke-linecap="butt" d="M168.387 274.379l-13.16.013-.013-13.16 13.16-.013.013 13.16zM773.014 260.589l13.16-.014.014 13.16-13.16.014-.014-13.16z"/><path fill="#c00" d="M697.803 267.484a7.528 7.528 0 1 1 15.055 0 7.528 7.528 0 0 1-15.055 0z" fill-rule="evenodd"/><path fill="none" d="M705.33 321.074v-46.048"/><path stroke="#c00" stroke-width="4" stroke-linejoin="round" stroke-linecap="butt" d="M705.33 321.074v-46.048"/><path fill="#ea4335" d="M603.881 335.289c0-7.851 6.364-14.216 14.215-14.216h174.467a14.215 14.215 0 0 1 14.216 14.216v56.86c0 7.851-6.365 14.216-14.216 14.216H618.096c-7.85 0-14.215-6.365-14.215-14.215z" fill-rule="evenodd"/><path stroke="#c00" stroke-linejoin="round" stroke-linecap="butt" d="M603.881 335.289c0-7.851 6.364-14.216 14.215-14.216h174.467a14.215 14.215 0 0 1 14.216 14.216v56.86c0 7.851-6.365 14.216-14.216 14.216H618.096c-7.85 0-14.215-6.365-14.215-14.215z"/><path fill="#f3f3f3" d="M666.72 359.67h-3.734v-2.39h9.984v2.39h-3.734v10.97h-2.516v-10.97zm11.36 11.266q-1.718 0-2.609-1.062-.89-1.063-.89-2.97v-5.78h2.437v5.484q0 .969.469 1.531.469.547 1.234.547 1.047 0 1.657-.766.609-.765.609-1.953v-4.843h2.453v9.515h-2.297v-1.187h-.156q-.422.687-1.203 1.093-.766.391-1.703.391zm7.738-9.812h2.297v1.265h.156q.36-.672 1.094-1.11.75-.437 1.64-.437.657 0 1.204.203v2.454q-.5-.188-.86-.266-.343-.094-.734-.094-1.078 0-1.719.781-.625.782-.625 1.985v4.734h-2.453v-9.515zm13.279 9.812q-.984 0-1.734-.406t-1.125-1.031h-.157v1.14h-2.297v-13.36h2.454v3.657l-.157 1.344h.157q.39-.61 1.125-1.031.75-.422 1.734-.422 1.281 0 2.328.64 1.063.64 1.656 1.797.594 1.156.594 2.625t-.594 2.625q-.593 1.14-1.656 1.781-1.047.641-2.328.641zm-.438-2.25q.688 0 1.282-.36.61-.359.953-.984.36-.64.36-1.453 0-.828-.36-1.453-.344-.64-.953-.984-.594-.344-1.282-.344-.671 0-1.265.344-.594.343-.953.984-.36.625-.36 1.453 0 .813.36 1.453.36.625.953.985.594.359 1.265.359zm11.46 2.25q-1.484 0-2.64-.656-1.157-.672-1.797-1.813-.641-1.156-.641-2.578t.64-2.578q.641-1.156 1.797-1.812 1.157-.672 2.641-.672 1.453 0 2.61.672 1.156.656 1.796 1.812.641 1.156.641 2.578t-.64 2.578q-.641 1.14-1.798 1.813-1.156.656-2.609.656zm0-2.25q.703 0 1.297-.328.61-.344.953-.984.36-.641.36-1.485 0-.844-.36-1.469-.344-.64-.953-.968-.594-.344-1.297-.344-.719 0-1.312.344-.594.328-.97.968-.359.625-.359 1.47 0 .827.36 1.484.375.64.969.984.593.328 1.312.328zm7.255-11.406h8.469v2.39h-5.953v3.25h5.359v2.391h-5.36v5.328h-2.515v-13.36zm13.268 13.656q-1.516 0-2.484-.875-.969-.89-.969-2.328 0-.953.5-1.672.5-.734 1.375-1.125.89-.39 1.953-.39 1.469 0 2.516.421v-.406q0-.781-.594-1.266-.578-.484-1.578-.484-.672 0-1.297.313-.625.296-1.031.796l-1.563-1.234q.688-.89 1.735-1.375 1.046-.484 2.265-.484 2.188 0 3.328 1.015 1.141 1 1.141 2.938v5.86h-2.406v-.97h-.157q-.421.563-1.125.922-.703.344-1.609.344zm.578-1.906q1.063 0 1.688-.672.625-.688.625-1.594-.953-.453-2-.453-1.907 0-1.907 1.422 0 .578.407.937.422.36 1.187.36zm6.966-7.906h2.297v1.187h.157q.421-.687 1.203-1.078.797-.406 1.703-.406 1.719 0 2.61 1.047.905 1.046.905 2.859v5.906h-2.453v-5.61q0-.921-.468-1.421-.47-.5-1.297-.5-1 0-1.61.766-.593.765-.593 1.921v4.844h-2.454v-9.515z"/><path fill="#274e13" d="M283.047 267.484a7.528 7.528 0 1 1 15.055 0 7.528 7.528 0 1 1-15.055 0z" fill-rule="evenodd"/><path fill="none" d="M290.574 208.22v51.747"/><path stroke="#274e13" stroke-width="4" stroke-linejoin="round" stroke-linecap="butt" d="M290.574 208.22v51.747"/><path fill="#38761d" d="M197.472 146.067c0-6.865 5.565-12.43 12.43-12.43h161.344a12.43 12.43 0 0 1 12.43 12.43v49.722c0 6.865-5.565 12.43-12.43 12.43H209.902c-6.865 0-12.43-5.565-12.43-12.43z" fill-rule="evenodd"/><path stroke="#274e13" stroke-linejoin="round" stroke-linecap="butt" d="M197.472 146.067c0-6.865 5.565-12.43 12.43-12.43h161.344a12.43 12.43 0 0 1 12.43 12.43v49.722c0 6.865-5.565 12.43-12.43 12.43H209.902c-6.865 0-12.43-5.565-12.43-12.43z"/><path fill="#f3f3f3" d="M257.545 164.488h2.515v13.36h-2.515v-13.36zm9.606 17.688q-1.812 0-3.016-.813-1.187-.812-1.593-1.953l2.297-.922q.296.704.906 1.11.625.422 1.406.422 1.156 0 1.828-.72.688-.702.688-2.015v-.75h-.141q-.453.64-1.187.985-.72.328-1.657.328-1.172 0-2.187-.61-1.016-.609-1.64-1.718-.61-1.11-.61-2.578 0-1.47.61-2.579.624-1.109 1.64-1.718 1.015-.61 2.187-.61.938 0 1.657.344.734.328 1.187.969h.14v-1.016h2.36v8.86q0 1.53-.61 2.64-.593 1.125-1.702 1.735-1.094.609-2.563.609zm.031-6.547q1.032 0 1.75-.719.735-.718.735-1.968 0-1.282-.72-1.985-.718-.703-1.765-.703-1.031 0-1.765.719-.735.703-.735 1.969 0 1.265.735 1.984.734.703 1.765.703zm7.22-7.297h2.297v1.188h.156q.422-.688 1.203-1.078.797-.407 1.703-.407 1.719 0 2.61 1.047.906 1.047.906 2.86v5.906h-2.453v-5.61q0-.921-.469-1.421t-1.297-.5q-1 0-1.61.765-.593.766-.593 1.922v4.844h-2.453v-9.516zm12.566-1.047q-.657 0-1.125-.468-.47-.47-.47-1.11 0-.656.47-1.11.468-.468 1.125-.468.656 0 1.109.469.453.453.453 1.11 0 .64-.453 1.109-.453.468-1.11.468zm-1.235 1.047h2.438v9.516h-2.438v-9.516zm9.134 9.672q-.703 0-1.297-.219-.594-.218-.969-.593-.875-.844-.875-2.391v-4.375h-1.672v-2.094h1.672v-2.687h2.438v2.687h2.328v2.094h-2.328v3.937q0 .72.312 1.047.266.297.906.297.344 0 .578-.094.235-.093.61-.328v2.39q-.797.329-1.703.329zm5.048-10.719q-.656 0-1.125-.468-.469-.47-.469-1.11 0-.656.469-1.11.469-.468 1.125-.468t1.11.469q.453.453.453 1.11 0 .64-.454 1.109-.453.468-1.109.468zm-1.234 1.047h2.437v9.516h-2.437v-9.516zm9.555 9.813q-1.484 0-2.64-.657-1.157-.671-1.797-1.812-.641-1.156-.641-2.578t.64-2.578q.641-1.157 1.797-1.813 1.157-.672 2.641-.672 1.453 0 2.61.672 1.156.656 1.796 1.813.64 1.156.64 2.578t-.64 2.578q-.64 1.14-1.797 1.812-1.156.657-2.609.657zm0-2.25q.703 0 1.297-.328.61-.344.953-.985.36-.64.36-1.484t-.36-1.469q-.344-.64-.953-.969-.594-.343-1.297-.343-.719 0-1.312.343-.594.328-.97.969-.359.625-.359 1.469 0 .828.36 1.484.375.64.969.985.593.328 1.312.328zm6.911-7.563h2.297v1.188h.156q.422-.688 1.203-1.078.797-.407 1.704-.407 1.718 0 2.609 1.047.906 1.047.906 2.86v5.906h-2.453v-5.61q0-.921-.469-1.421-.468-.5-1.297-.5-1 0-1.609.765-.594.766-.594 1.922v4.844h-2.453v-9.516z"/></g></svg>