<svg viewBox="0 0 960 540" fill="none" stroke-linecap="square" stroke-miterlimit="10" xmlns="http://www.w3.org/2000/svg"><clipPath id="a"><path d="M0 0h960v540H0V0z"/></clipPath><g clip-path="url(#a)"><path fill="#fff" d="M0 0h960v540H0z" fill-rule="evenodd"/><path fill="#666" d="M25.705 517.365v-1.93h6.463c.066.34.104.746.104 1.184 0 1.447-.397 3.24-1.672 4.515-1.24 1.293-2.827 1.982-4.929 1.982-3.895 0-7.17-3.17-7.17-7.066 0-3.895 3.275-7.066 7.17-7.066 2.154 0 3.689.844 4.843 1.947l-1.361 1.362c-.827-.776-1.948-1.379-3.481-1.379-2.844 0-5.068 2.292-5.068 5.136 0 2.844 2.224 5.136 5.068 5.136 1.844 0 2.895-.741 3.567-1.413.548-.547.908-1.333 1.048-2.407h-4.582zM42.188 518.578c0 2.62-2.05 4.55-4.567 4.55-2.517 0-4.567-1.93-4.567-4.55 0-2.637 2.05-4.55 4.567-4.55 2.516 0 4.567 1.913 4.567 4.55zm-1.999 0c0-1.637-1.189-2.758-2.568-2.758-1.378 0-2.568 1.12-2.568 2.758 0 1.62 1.189 2.758 2.568 2.758s2.568-1.138 2.568-2.758zM52.152 518.578c0 2.62-2.05 4.55-4.567 4.55-2.517 0-4.568-1.93-4.568-4.55 0-2.637 2.051-4.55 4.568-4.55 2.516 0 4.567 1.913 4.567 4.55zm-2 0c0-1.637-1.188-2.758-2.567-2.758-1.379 0-2.568 1.12-2.568 2.758 0 1.62 1.189 2.758 2.568 2.758 1.378 0 2.568-1.138 2.568-2.758zM61.702 514.304v8.17c0 3.36-1.982 4.739-4.326 4.739-2.206 0-3.533-1.483-4.033-2.69l1.74-.723c.311.741 1.069 1.62 2.293 1.62 1.5 0 2.43-.93 2.43-2.67v-.656h-.068c-.449.552-1.31 1.034-2.396 1.034-2.275 0-4.36-1.982-4.36-4.533 0-2.568 2.085-4.567 4.36-4.567 1.086 0 1.947.483 2.396 1.018h.068v-.742h1.896zm-1.758 4.291c0-1.602-1.068-2.775-2.43-2.775-1.379 0-2.533 1.173-2.533 2.775 0 1.586 1.154 2.741 2.533 2.741 1.361 0 2.43-1.155 2.43-2.74zM65.088 509.522v13.33H63.09v-13.33h2zM72.81 520.077l1.55 1.034c-.5.742-1.706 2.017-3.791 2.017-2.586 0-4.516-2-4.516-4.55 0-2.707 1.948-4.551 4.292-4.551 2.361 0 3.516 1.879 3.895 2.896l.207.517-6.084 2.516c.465.914 1.19 1.379 2.206 1.379s1.723-.499 2.24-1.258zm-4.775-1.637l4.067-1.69c-.224-.568-.896-.965-1.689-.965-1.017.001-2.43.897-2.378 2.655z" fill-rule="evenodd"/><path fill="#fff" d="M2.37 495.703h96v44.284h-96z" fill-rule="evenodd"/><path fill="none" d="M79.276 386.207l.063-264.85h45.795l-.063 264.85z"/><path fill="#666" d="M110.014 312.882q0 1.64-.735 2.953-.734 1.297-2.063 2.031-1.328.735-2.984.735-1.672 0-2.969-.735-1.312-.734-2.062-2.03-.75-1.313-.75-2.954.001-1.813.783-3.11.781-1.312 2.203-1.874l1.062 2.546q-1.437.688-1.438 2.438 0 1.281.875 2.11.859.812 2.296.812 1.454 0 2.329-.813.875-.828.875-2.11 0-1.765-1.546-2.562l1.11-2.53q1.437.702 2.234 2 .78 1.296.78 3.093zm.003-12.3q0 1.673-.75 3-.766 1.329-2.079 2.063-1.313.735-2.953.735-1.625 0-2.938-.735-1.328-.734-2.077-2.062-.766-1.328-.765-3 0-1.672.766-2.985.75-1.328 2.079-2.062 1.312-.735 2.937-.735 1.641 0 2.953.735 1.313.734 2.078 2.062.75 1.313.75 2.985zm-2.578 0q0-.812-.374-1.5-.39-.687-1.11-1.093-.734-.406-1.718-.406-.969 0-1.688.406t-1.094 1.094q-.39.687-.39 1.5-.001.797.39 1.484.374.688 1.093 1.11.719.406 1.687.406.954 0 1.704-.407.734-.421 1.125-1.109.375-.687.375-1.484zM98.8 292.67l.001-2.625h1.36v-.172q-.782-.5-1.235-1.39-.468-.891-.468-1.938 0-1.969 1.204-2.984 1.188-1.032 3.25-1.032h6.766v2.797h-6.423q-1.047 0-1.61.532-.577.53-.578 1.5 0 1.125.875 1.828.86.687 2.187.687h5.547v2.797H98.8zm11.223-17.9q0 1.64-.735 2.953-.734 1.296-2.063 2.03-1.328.735-2.984.735-1.672 0-2.969-.734-1.312-.735-2.062-2.031-.75-1.313-.749-2.954 0-1.812.782-3.109.782-1.312 2.204-1.875l1.061 2.547q-1.437.687-1.438 2.437 0 1.282.875 2.11.859.812 2.297.812 1.453 0 2.328-.812.875-.828.875-2.11 0-1.765-1.546-2.562l1.11-2.531q1.437.703 2.234 2 .78 1.297.78 3.093zm.003-11.034q0 1.969-1.22 3-1.218 1.015-3.39 1.015h-6.61l.001-2.796h6.266q1.11 0 1.75-.532.625-.53.625-1.406 0-1.187-.874-1.89-.875-.704-2.219-.704h-5.547v-2.797h10.876v2.625h-1.36v.172q.78.485 1.25 1.375.452.875.452 1.938zm-11.217-8.838l.001-2.625h1.453v-.172q-.765-.406-1.265-1.25-.516-.86-.515-1.89 0-.75.234-1.36h2.797q-.203.578-.297.969-.11.39-.11.843 0 1.235.906 1.97.89.718 2.25.718h5.422v2.797H98.808zm.003-9.107v-2.625h1.453v-.172q-.765-.407-1.265-1.25-.515-.86-.515-1.89 0-.75.235-1.36h2.796q-.203.578-.297.968-.11.391-.11.844 0 1.235.907 1.969.89.719 2.25.719h5.421v2.797H98.812zm11.222-14.217q0 1.625-.75 2.938-.751 1.296-2.064 2.03-1.313.735-2.953.735-1.547 0-2.875-.719-1.344-.734-2.125-2.015-.796-1.281-.796-2.86 0-1.687.735-2.89.72-1.219 1.985-1.844 1.25-.64 2.782-.64.5 0 .937.062l-.002 8.172q1.313-.219 1.985-1.031.656-.829.656-1.97 0-.968-.405-1.655-.422-.688-1.125-1.094l1.11-2.266q2.906 1.656 2.905 5.047zm-7.109-2.578q-.5.047-1 .375-.516.328-.844.922-.328.578-.329 1.375 0 1 .594 1.719.578.703 1.578 1.03l.001-5.421zm-4.108-4.832v-2.625h1.36v-.172q-.781-.5-1.234-1.39-.469-.891-.469-1.938 0-1.969 1.204-2.985 1.188-1.03 3.25-1.03h6.766v2.796h-6.422q-1.047 0-1.61.531-.578.532-.578 1.5 0 1.125.874 1.828.86.688 2.188.688h5.546v2.797H98.817zm11.223-17.9q0 1.64-.735 2.952-.735 1.297-2.063 2.032-1.329.734-2.985.734-1.672 0-2.968-.734-1.313-.735-2.062-2.032-.75-1.312-.75-2.953 0-1.812.782-3.11.782-1.312 2.204-1.874l1.062 2.547q-1.438.687-1.438 2.437 0 1.281.874 2.11.86.812 2.297.812 1.453 0 2.328-.812.875-.829.876-2.11 0-1.765-1.547-2.562l1.11-2.532q1.438.704 2.234 2 .781 1.297.78 3.094zm-.857-10.488l-10.36 4.579v-3.172l6.766-2.813v-.172l-6.764-2.718v-3.11l15.483 6.719v3l-5.125-2.313z"/><path fill="#38761d" d="M146.058 307.646h126.614v59.905H146.058z" fill-rule="evenodd"/><path stroke="#274e13" stroke-linejoin="round" stroke-linecap="butt" d="M146.058 307.646h126.614v59.905H146.058z"/><path fill="#f3f3f3" d="M161.758 333.956q-.657 0-1.125-.469-.47-.469-.47-1.11 0-.655.47-1.109.468-.468 1.125-.468.656 0 1.109.468.453.454.453 1.11 0 .64-.453 1.11-.453.468-1.11.468zm-1.235 1.047h2.438v9.515h-2.438v-9.515zm4.993 0h2.297v1.187h.156q.422-.687 1.203-1.078.797-.406 1.704-.406 1.718 0 2.609 1.047.906 1.047.906 2.86v5.905h-2.453v-5.609q0-.922-.469-1.422-.468-.5-1.297-.5-1 0-1.609.766-.594.765-.594 1.922v4.843h-2.453v-9.515zm15.316 9.672q-.703 0-1.297-.22-.594-.218-.969-.593-.875-.844-.875-2.39v-4.375h-1.672v-2.094h1.672v-2.688h2.438v2.688h2.328v2.094h-2.328v3.937q0 .719.312 1.047.266.297.906.297.344 0 .579-.094.234-.094.609-.328v2.39q-.797.329-1.703.329zm8.126.14q-1.422 0-2.562-.64-1.14-.657-1.781-1.797-.641-1.156-.641-2.594 0-1.36.625-2.531.64-1.172 1.75-1.86 1.125-.687 2.516-.687 1.468 0 2.53.64 1.063.626 1.61 1.735.563 1.094.563 2.437 0 .422-.063.829h-7.14q.187 1.125.906 1.718.719.594 1.719.594.843 0 1.453-.36.609-.374.953-.984l1.984.97q-1.453 2.53-4.422 2.53zm2.25-6.203q-.031-.453-.328-.89-.281-.438-.797-.72-.515-.296-1.203-.296-.875 0-1.5.516-.625.5-.906 1.39h4.734zm4.233-3.61h2.297v1.266h.156q.36-.671 1.094-1.109.75-.437 1.64-.437.657 0 1.203.203v2.453q-.5-.188-.859-.266-.344-.094-.734-.094-1.078 0-1.72.782-.624.78-.624 1.984v4.734h-2.453v-9.515zm7.903 0h2.297v1.157h.141q.39-.61 1.14-1.031.75-.422 1.72-.422 1.28 0 2.327.64 1.063.641 1.657 1.797.593 1.157.593 2.625 0 1.47-.593 2.625-.594 1.141-1.657 1.782-1.046.64-2.328.64-.968 0-1.734-.406-.75-.406-1.125-1.031h-.14l.14 1.344v3.828h-2.438v-13.547zm4.86 7.563q.687 0 1.281-.36.61-.358.953-.983.36-.641.36-1.454 0-.828-.36-1.453-.344-.64-.953-.984-.594-.344-1.281-.344-.672 0-1.266.344t-.953.984q-.344.625-.344 1.453 0 .813.344 1.454.36.625.953.984.594.36 1.266.36zm6.9-7.562h2.297v1.265h.157q.359-.671 1.093-1.109.75-.437 1.64-.437.657 0 1.204.203v2.453q-.5-.188-.86-.266-.343-.094-.734-.094-1.078 0-1.718.782-.625.78-.625 1.984v4.734h-2.454v-9.515zm12.435 9.812q-1.421 0-2.562-.64-1.14-.657-1.781-1.797-.641-1.156-.641-2.594 0-1.36.625-2.531.64-1.172 1.75-1.86 1.125-.687 2.516-.687 1.468 0 2.53.64 1.063.626 1.61 1.735.563 1.094.563 2.437 0 .422-.063.829h-7.14q.187 1.125.906 1.718.719.594 1.719.594.843 0 1.453-.36.61-.374.953-.984l1.984.97q-1.453 2.53-4.422 2.53zm2.25-6.203q-.03-.453-.328-.89-.281-.438-.797-.72-.515-.296-1.203-.296-.875 0-1.5.516-.625.5-.906 1.39h4.734zm8.374 6.063q-.704 0-1.297-.22-.594-.218-.97-.593-.874-.844-.874-2.39v-4.375h-1.672v-2.094h1.672v-2.688h2.437v2.688h2.329v2.094h-2.329v3.937q0 .719.313 1.047.266.297.906.297.344 0 .578-.094.235-.094.61-.328v2.39q-.797.329-1.703.329zm8.126.14q-1.422 0-2.563-.64-1.14-.657-1.78-1.797-.641-1.156-.641-2.594 0-1.36.625-2.531.64-1.172 1.75-1.86 1.125-.687 2.515-.687 1.469 0 2.531.64 1.063.626 1.61 1.735.562 1.094.562 2.437 0 .422-.062.829h-7.14q.187 1.125.905 1.718.72.594 1.72.594.843 0 1.452-.36.61-.374.953-.984l1.985.97q-1.453 2.53-4.422 2.53zm2.25-6.203q-.031-.453-.328-.89-.281-.438-.797-.72-.516-.296-1.203-.296-.875 0-1.5.516-.625.5-.906 1.39h4.734zm4.232-3.61h2.297v1.266h.157q.359-.671 1.093-1.109.75-.437 1.64-.437.657 0 1.204.203v2.453q-.5-.188-.86-.266-.343-.094-.734-.094-1.078 0-1.718.782-.625.78-.625 1.984v4.734h-2.454v-9.515z"/><path fill="#ea4335" d="M719.53 307.656h146.646v59.906H719.53z" fill-rule="evenodd"/><path stroke="#5b0f00" stroke-linejoin="round" stroke-linecap="butt" d="M719.53 307.656h146.646v59.906H719.53z"/><path fill="#f3f3f3" d="M765.038 331.17h8.469v2.39h-5.953v3.25h5.359v2.39h-5.36v5.329h-2.515v-13.36zm13.784 13.656q-1.719 0-2.61-1.063-.89-1.062-.89-2.968v-5.782h2.437v5.485q0 .968.469 1.53.469.548 1.234.548 1.047 0 1.657-.766.609-.765.609-1.953v-4.844h2.453v9.516h-2.297v-1.188h-.156q-.422.688-1.203 1.094-.766.39-1.703.39zm7.737-13.656h2.453v13.359h-2.453v-13.36zm4.851 0h2.453v13.359h-2.453v-13.36zm8.585 13.656q-1.578 0-2.766-.86-1.187-.875-1.656-2.359l2.313-.953q.25.875.78 1.328.548.453 1.329.453.86 0 1.344-.547.5-.562.5-1.578v-9.14h2.531v9.125q0 1.453-.578 2.468-.578 1.016-1.578 1.547-.985.516-2.219.516zm7.206-13.656h2.516v13.359H807.2v-13.36zm8.263 2.39h-3.735v-2.39h9.985v2.39h-3.735v10.969h-2.515V333.56z"/><path fill="#673ab7" d="M589.363 186.604h133.732v59.905H589.363z" fill-rule="evenodd"/><path stroke="#351c75" stroke-linejoin="round" stroke-linecap="butt" d="M589.363 186.604h133.732v59.905H589.363z"/><path fill="#f3f3f3" d="M628.414 199.117h8.47v2.39h-5.954v3.25h5.36v2.391h-5.36v5.328h-2.516v-13.359zm13.784 13.656q-1.719 0-2.61-1.062-.89-1.063-.89-2.969v-5.781h2.438v5.484q0 .969.468 1.531.47.547 1.235.547 1.047 0 1.656-.765.61-.766.61-1.953v-4.844h2.452v9.515h-2.296v-1.187h-.157q-.422.687-1.203 1.094-.765.39-1.703.39zm7.738-13.656h2.453v13.36h-2.453v-13.36zm4.85 0h2.453v13.36h-2.453v-13.36zm8.585 13.656q-1.578 0-2.765-.86-1.188-.874-1.657-2.358l2.313-.954q.25.875.781 1.329.547.453 1.328.453.86 0 1.344-.547.5-.563.5-1.578v-9.141h2.531v9.125q0 1.453-.578 2.469-.578 1.015-1.578 1.547-.984.515-2.219.515zm7.206-13.656h2.516v13.36h-2.516v-13.36zm8.263 2.39h-3.734v-2.39h9.984v2.39h-3.734v10.97h-2.516v-10.97zm6.736 10.97zM622.014 234.773q-1.437 0-2.578-.64-1.14-.641-1.781-1.797-.64-1.156-.64-2.61 0-1.468.64-2.609.64-1.14 1.781-1.797 1.14-.656 2.578-.656 1.578 0 2.719.687 1.14.672 1.64 1.922l-2.234.938q-.594-1.266-2.125-1.266-1.125 0-1.844.766-.718.765-.718 2.015 0 1.266.718 2.032.72.765 1.844.765 1.547 0 2.235-1.343l2.218.968q-.61 1.25-1.75 1.938-1.14.687-2.703.687zm10.768 0q-1.484 0-2.64-.656-1.157-.672-1.797-1.812-.64-1.157-.64-2.579 0-1.421.64-2.578.64-1.156 1.797-1.812 1.156-.672 2.64-.672 1.453 0 2.61.672 1.156.656 1.797 1.812.64 1.157.64 2.578 0 1.422-.64 2.579-.641 1.14-1.797 1.812-1.157.656-2.61.656zm0-2.25q.703 0 1.297-.328.61-.344.953-.984.36-.64.36-1.485 0-.843-.36-1.468-.343-.641-.953-.97-.594-.343-1.297-.343-.718 0-1.312.344-.594.328-.969.969-.36.625-.36 1.468 0 .829.36 1.485.375.64.969.984.594.328 1.312.328zm6.911-7.562h2.297v1.187h.157q.437-.687 1.187-1.078.766-.406 1.703-.406 1 0 1.75.484.75.47 1.063 1.188.468-.735 1.28-1.203.813-.47 1.907-.47 1.625 0 2.469 1 .86 1 .86 2.688v6.125h-2.423v-5.671q0-.891-.421-1.375-.422-.485-1.172-.485-.953 0-1.532.75-.562.75-.562 1.985v4.796h-2.438v-5.671q0-.891-.437-1.375-.438-.485-1.234-.485-.907 0-1.454.75-.546.75-.546 1.985v4.796h-2.454v-9.515zm16.934 0h2.297v1.156h.14q.39-.61 1.14-1.031.75-.422 1.72-.422 1.28 0 2.328.64 1.062.641 1.656 1.797.594 1.157.594 2.625 0 1.47-.594 2.625-.594 1.141-1.656 1.782-1.047.64-2.328.64-.97 0-1.735-.406-.75-.406-1.125-1.031h-.14l.14 1.344v3.828h-2.437V224.96zm4.86 7.562q.687 0 1.28-.36.61-.358.954-.983.359-.641.359-1.454 0-.828-.36-1.453-.343-.64-.953-.984-.593-.344-1.28-.344-.673 0-1.266.344-.594.344-.954.984-.343.625-.343 1.453 0 .813.343 1.454.36.625.954.984.593.36 1.265.36zm8.29-8.61q-.656 0-1.125-.468-.468-.469-.468-1.11 0-.655.468-1.109.47-.468 1.125-.468.657 0 1.11.468.453.454.453 1.11 0 .64-.453 1.11-.453.468-1.11.468zm-1.234 1.048h2.437v9.515h-2.437v-9.515zm4.993-3.844h2.453v13.36h-2.453v-13.36zm9.32 13.656q-1.423 0-2.563-.64-1.14-.657-1.782-1.797-.64-1.156-.64-2.594 0-1.36.625-2.531.64-1.172 1.75-1.86 1.125-.687 2.515-.687 1.47 0 2.532.64 1.062.626 1.61 1.735.562 1.094.562 2.437 0 .422-.063.829h-7.14q.187 1.125.906 1.718.718.594 1.718.594.844 0 1.454-.36.609-.374.953-.984l1.984.97q-1.453 2.53-4.422 2.53zm2.25-6.203q-.032-.453-.329-.89-.281-.438-.797-.72-.515-.296-1.203-.296-.875 0-1.5.516-.625.5-.906 1.39h4.734zm4.232-3.61h2.297v1.266h.156q.36-.671 1.094-1.109.75-.437 1.64-.437.656 0 1.203.203v2.453q-.5-.188-.859-.266-.344-.094-.734-.094-1.079 0-1.72.782-.624.78-.624 1.984v4.734h-2.453v-9.515z"/><path fill="#673ab7" d="M273.274 367.352v-59.496h32.598v59.496z" fill-rule="evenodd"/><path stroke="#351c75" stroke-linejoin="round" stroke-linecap="butt" d="M273.274 367.352v-59.496h32.598v59.496z"/><path fill="#f3f3f3" d="M294.591 349.504q0 1.016-.453 1.828-.468.813-1.297 1.281-.828.453-1.875.453-1.03 0-1.843-.453-.828-.468-1.297-1.281-.469-.812-.469-1.828 0-1.14.5-1.953.484-.813 1.375-1.172l.656 1.594q-.906.437-.906 1.53 0 .798.547 1.313.547.516 1.437.516.907 0 1.454-.516.546-.515.546-1.312 0-1.11-.953-1.61l.688-1.578q.906.438 1.406 1.25.484.813.484 1.938zm0-7.7q0 1.063-.468 1.891-.485.813-1.297 1.281-.828.453-1.86.453-1 0-1.828-.453-.828-.468-1.297-1.281-.484-.828-.484-1.89 0-1.032.484-1.86.47-.828 1.297-1.281.828-.469 1.828-.469 1.032 0 1.86.469.812.453 1.297 1.281.468.828.468 1.86zm-1.625 0q0-.5-.234-.921-.234-.438-.687-.688-.454-.25-1.079-.25-.593 0-1.046.25-.454.25-.688.688-.25.421-.25.921 0 .516.25.938.234.422.688.687.453.266 1.046.266.61 0 1.079-.266.453-.265.687-.687.234-.422.234-.938zm-5.39-4.884v-1.64h.828v-.11q-.438-.281-.734-.812-.313-.532-.313-1.22 0-.921.469-1.671.453-.766 1.281-1.187.828-.422 1.86-.422 1.062 0 1.89.422.813.421 1.281 1.187.453.75.453 1.672 0 .687-.296 1.234-.297.532-.735.797v.11l.953-.11h2.735v1.75h-9.672zm5.39-3.484q0-.485-.25-.906-.25-.438-.703-.688-.453-.25-1.047-.25-.578 0-1.03.25-.454.25-.704.688-.25.421-.25.906 0 .484.25.906.25.422.703.688.453.25 1.031.25.594 0 1.047-.25.453-.266.703-.688.25-.422.25-.906zm1.094-7.044l-6.484 2.859v-1.984l4.219-1.766v-.094l-4.22-1.703v-1.937l9.673 4.187v1.89l-3.188-1.452z"/><path fill="none" d="M578.634 302.312l12.314-50.866"/><path stroke="#351c75" stroke-width="2" stroke-linejoin="round" stroke-linecap="butt" d="M578.634 302.312l9.49-39.203"/><path fill="#351c75" stroke="#351c75" stroke-width="2" stroke-linecap="butt" d="M591.336 263.887l-1.076-9.6-5.346 8.045z" fill-rule="evenodd"/><path fill="none" d="M720.89 249.79l1.638 50.047"/><path stroke="#351c75" stroke-width="2" stroke-linejoin="round" stroke-linecap="butt" d="M720.89 249.79l1.245 38.054"/><path fill="#351c75" stroke="#351c75" stroke-width="2" stroke-linecap="butt" d="M718.833 287.952l3.599 8.963 3.005-9.18z" fill-rule="evenodd"/><path fill="#ff9800" d="M433.083 307.656h109.921v59.906h-109.92z" fill-rule="evenodd"/><path stroke="#5b0f00" stroke-linejoin="round" stroke-linecap="butt" d="M433.083 307.656h109.921v59.906h-109.92z"/><path fill="#f3f3f3" d="M449.727 344.826q-1.75 0-3.094-.985-1.344-.984-1.89-2.796l2.374-.938q.282 1.063.953 1.703.672.625 1.672.625.844 0 1.438-.406.594-.422.594-1.172t-.579-1.219q-.562-.484-2.015-1.015l-.813-.313q-1.297-.437-2.218-1.36-.907-.921-.907-2.327 0-1.047.547-1.907.547-.859 1.531-1.343.985-.5 2.235-.5 1.812 0 2.86.86 1.046.843 1.437 1.968l-2.219.937q-.219-.61-.734-1.03-.5-.423-1.313-.423-.812 0-1.344.39-.53.376-.53.985 0 .61.5 1.031.5.407 1.655.797l.844.282q1.734.609 2.656 1.593.922.97.922 2.547 0 1.313-.672 2.219-.672.906-1.734 1.36-1.047.437-2.156.437zm8.004-10.86q-.656 0-1.125-.468-.469-.47-.469-1.11 0-.656.469-1.11.469-.468 1.125-.468t1.11.469q.452.453.452 1.11 0 .64-.453 1.109-.453.468-1.11.468zm-1.234 1.047h2.437v9.516h-2.437v-9.516zm4.992 0h2.297v1.188h.157q.437-.688 1.187-1.078.766-.407 1.703-.407 1 0 1.75.485.75.469 1.063 1.187.468-.734 1.28-1.203.813-.469 1.907-.469 1.625 0 2.469 1 .86 1 .86 2.688v6.125h-2.423v-5.672q0-.89-.421-1.375-.422-.484-1.172-.484-.953 0-1.532.75-.562.75-.562 1.984v4.797h-2.438v-5.672q0-.89-.437-1.375-.438-.484-1.234-.484-.907 0-1.454.75-.546.75-.546 1.984v4.797h-2.454v-9.516zm16.934 0h2.297v1.157h.14q.39-.61 1.14-1.032.75-.422 1.72-.422 1.28 0 2.328.641 1.062.64 1.656 1.797.594 1.156.594 2.625t-.594 2.625q-.594 1.14-1.656 1.781-1.047.64-2.328.64-.97 0-1.735-.405-.75-.407-1.125-1.032h-.14l.14 1.344v3.828h-2.437v-13.547zm4.86 7.563q.687 0 1.28-.36.61-.359.954-.984.359-.64.359-1.453 0-.828-.36-1.453-.343-.64-.953-.985-.593-.343-1.28-.343-.673 0-1.266.343-.594.344-.954.985-.343.625-.343 1.453 0 .812.343 1.453.36.625.954.984.593.36 1.265.36zm6.9-11.406h2.453v13.359h-2.453v-13.36zm9.32 13.656q-1.423 0-2.563-.64-1.141-.657-1.782-1.798-.64-1.156-.64-2.593 0-1.36.625-2.532.64-1.172 1.75-1.86 1.125-.687 2.515-.687 1.47 0 2.532.641 1.062.625 1.609 1.734.562 1.094.562 2.438 0 .422-.062.828h-7.14q.187 1.125.906 1.719.718.594 1.718.594.844 0 1.453-.36.61-.375.954-.984l1.984.969q-1.453 2.53-4.422 2.53zm2.25-6.203q-.032-.453-.329-.89-.281-.438-.797-.72-.516-.297-1.203-.297-.875 0-1.5.516-.625.5-.906 1.39h4.734zm7.966 6.203q-1.578 0-2.766-.86-1.187-.875-1.656-2.359l2.313-.953q.25.875.78 1.328.548.453 1.329.453.86 0 1.344-.547.5-.562.5-1.578v-9.14h2.53v9.125q0 1.453-.577 2.468-.578 1.016-1.578 1.547-.985.516-2.219.516zm7.206-13.656h2.516v13.359h-2.516v-13.36zm8.263 2.39h-3.735v-2.39h9.985v2.39h-3.735v10.969h-2.515V333.56z"/><path fill="#ff9800" d="M575.35 307.656h146.646v59.906H575.351z" fill-rule="evenodd"/><path stroke="#5b0f00" stroke-linejoin="round" stroke-linecap="butt" d="M575.35 307.656h146.646v59.906H575.351z"/><path fill="#f3f3f3" d="M610.357 344.826q-1.75 0-3.094-.985-1.344-.984-1.89-2.796l2.374-.938q.282 1.063.953 1.703.672.625 1.672.625.844 0 1.438-.406.594-.422.594-1.172t-.579-1.219q-.562-.484-2.015-1.015l-.813-.313q-1.297-.437-2.218-1.36-.907-.921-.907-2.327 0-1.047.547-1.907.547-.859 1.531-1.343.985-.5 2.235-.5 1.812 0 2.86.86 1.046.843 1.437 1.968l-2.219.937q-.219-.61-.734-1.03-.5-.423-1.313-.423-.812 0-1.344.39-.53.376-.53.985 0 .61.5 1.031.5.407 1.655.797l.844.282q1.734.609 2.656 1.593.922.97.922 2.547 0 1.313-.672 2.219-.672.906-1.734 1.36-1.047.437-2.156.437zm8.004-10.86q-.656 0-1.125-.468-.469-.47-.469-1.11 0-.656.469-1.11.469-.468 1.125-.468t1.11.469q.452.453.452 1.11 0 .64-.453 1.109-.453.468-1.11.468zm-1.235 1.047h2.438v9.516h-2.438v-9.516zm4.993 0h2.297v1.188h.156q.438-.688 1.188-1.078.766-.407 1.703-.407 1 0 1.75.485.75.469 1.063 1.187.468-.734 1.28-1.203.813-.469 1.907-.469 1.625 0 2.469 1 .86 1 .86 2.688v6.125h-2.423v-5.672q0-.89-.422-1.375-.421-.484-1.171-.484-.954 0-1.532.75-.562.75-.562 1.984v4.797h-2.438v-5.672q0-.89-.437-1.375-.438-.484-1.235-.484-.906 0-1.453.75t-.547 1.984v4.797h-2.453v-9.516zm16.934 0h2.297v1.157h.14q.39-.61 1.14-1.032.75-.422 1.72-.422 1.28 0 2.328.641 1.062.64 1.656 1.797.594 1.156.594 2.625t-.594 2.625q-.594 1.14-1.656 1.781-1.047.64-2.328.64-.97 0-1.735-.405-.75-.407-1.125-1.032h-.14l.14 1.344v3.828h-2.437v-13.547zm4.86 7.563q.687 0 1.28-.36.61-.359.953-.984.36-.64.36-1.453 0-.828-.36-1.453-.343-.64-.953-.985-.593-.343-1.28-.343-.673 0-1.267.343-.593.344-.953.985-.343.625-.343 1.453 0 .812.343 1.453.36.625.953.984.594.36 1.266.36zm6.9-11.406h2.453v13.359h-2.453v-13.36zm9.319 13.656q-1.422 0-2.562-.64-1.141-.657-1.782-1.798-.64-1.156-.64-2.593 0-1.36.625-2.532.64-1.172 1.75-1.86 1.125-.687 2.515-.687 1.469 0 2.532.641 1.062.625 1.609 1.734.562 1.094.562 2.438 0 .422-.062.828h-7.14q.187 1.125.906 1.719.718.594 1.718.594.844 0 1.453-.36.61-.375.954-.984l1.984.969q-1.453 2.53-4.422 2.53zm2.25-6.203q-.031-.453-.328-.89-.281-.438-.797-.72-.516-.297-1.203-.297-.875 0-1.5.516-.625.5-.906 1.39h4.734zm7.967 6.203q-1.578 0-2.766-.86-1.187-.875-1.656-2.359l2.313-.953q.25.875.78 1.328.548.453 1.329.453.86 0 1.344-.547.5-.562.5-1.578v-9.14h2.53v9.125q0 1.453-.577 2.468-.578 1.016-1.578 1.547-.985.516-2.22.516zm7.206-13.656h2.516v13.359h-2.516v-13.36zm8.263 2.39h-3.735v-2.39h9.985v2.39h-3.735v10.969h-2.515V333.56z"/><path fill="none" d="M189.58 395.446l150.803.095v28.252l-150.803-.095z"/><path fill="#666" d="M246.25 408.265q-.578 0-.985-.407-.406-.407-.406-.985 0-.281.094-.516.094-.234.312-.53l1.391-2.078.938.626-.813 1.25q.375.14.61.468.234.329.234.782 0 .578-.406.984-.391.406-.97.406zm3.5.002q-.578 0-.985-.407-.406-.407-.406-.985 0-.281.094-.515.094-.235.312-.531l1.391-2.078.938.626-.813 1.25q.375.14.61.469.234.328.234.781 0 .578-.406.984-.391.406-.97.406zm3.183-4.248l2.094.001v2.89l-.141 1.422h.14q.344-.577 1.016-.92.672-.36 1.453-.36 1.5.002 2.282.893.796.891.796 2.454v5.078l-2.093-.002v-4.812q0-.781-.422-1.22-.422-.437-1.125-.437-.844 0-1.375.67-.531.672-.531 1.657v4.14l-2.094-.001v-11.453zm13.522 11.711q-1.265 0-2.25-.564-.984-.563-1.546-1.547-.547-.985-.547-2.22 0-1.218.547-2.202.562-1 1.546-1.562.985-.577 2.25-.577 1.25.001 2.235.58 1 .563 1.547 1.563.562.985.562 2.204 0 1.234-.562 2.218-.547.984-1.547 1.546-.985.562-2.235.561zm0-1.937q.61 0 1.125-.28.516-.282.813-.828.312-.547.312-1.281 0-.72-.312-1.266-.297-.547-.813-.829-.515-.297-1.125-.297-.609 0-1.125.296-.5.28-.812.827-.313.547-.313 1.266t.313 1.281q.312.547.812.829.516.281 1.125.282zm9.497 1.818q-.61 0-1.125-.172-.516-.188-.828-.516-.75-.72-.75-2.048v-3.765l-1.422-.001v-1.782l1.422.001v-2.312l2.093.001v2.313h2v1.782l-2-.001v3.39q0 .61.266.891.234.25.781.25.297.001.5-.077t.516-.265v2.047q-.688.265-1.453.264zm2.907-7.951l.921-1.234q-.421-.11-.687-.453-.266-.36-.266-.797 0-.579.407-.985.406-.421.984-.42.578 0 .969.422.406.406.406.984 0 .282-.094.516-.094.234-.297.531l-1.39 2.062-.953-.626zm3.5.002l.921-1.234q-.421-.11-.687-.453-.266-.36-.266-.797 0-.578.407-.984.421-.422.984-.422.578 0 .984.423.407.406.407.985 0 .28-.11.515-.094.234-.297.531l-1.39 2.062-.953-.626z"/><path fill="none" d="M454.228 394.003l150.803.094v28.252l-150.803-.094z"/><path fill="#666" d="M488.914 406.807q-.578 0-.984-.407-.407-.406-.407-.984 0-.282.094-.516.094-.234.313-.53l1.39-2.078.938.625-.813 1.25q.375.14.61.469.234.328.234.781 0 .579-.406.985-.39.406-.969.405zm3.5.002q-.578 0-.984-.406-.407-.407-.407-.985 0-.281.094-.516.094-.234.313-.53l1.39-2.078.938.626-.813 1.25q.375.14.61.468.234.329.234.782 0 .578-.406.984-.39.406-.969.405zm3.183-.95h1.953v1.016h.14q.376-.593 1.016-.937.657-.343 1.454-.342.875 0 1.515.422.64.407.906 1.032.407-.64 1.094-1.046.703-.406 1.64-.405 1.391 0 2.11.86.735.86.735 2.313v5.25h-2.079v-4.86q0-.766-.359-1.188-.36-.422-1-.423-.812 0-1.297.656-.484.64-.484 1.703v4.11l-2.11-.002v-4.86q0-.765-.375-1.187-.375-.422-1.062-.423-.766 0-1.234.656-.47.64-.47 1.702v4.11l-2.093-.001v-8.157zm18.467 8.417q-1.266 0-2.25-.564-.985-.563-1.547-1.548-.547-.984-.547-2.219 0-1.218.547-2.203.562-1 1.547-1.561.984-.578 2.25-.577 1.25.001 2.234.58 1 .563 1.547 1.563.563.985.563 2.204 0 1.234-.563 2.218-.547.984-1.547 1.546-.984.562-2.234.561zm0-1.937q.61 0 1.125-.281.515-.28.812-.828.313-.546.313-1.28 0-.72-.313-1.266-.297-.547-.812-.83-.516-.296-1.125-.297-.61 0-1.125.297-.5.28-.813.827-.312.547-.312 1.266 0 .718.312 1.281.313.547.813.829.515.281 1.125.282zm8.434 1.942q-1.297 0-2.125-.75-.829-.767-.829-2.001 0-.813.422-1.438.438-.624 1.188-.952.75-.343 1.672-.343 1.265.001 2.156.377v-.36q0-.672-.516-1.078-.5-.422-1.343-.423-.579 0-1.11.265-.531.265-.89.687l-1.344-1.048q.594-.765 1.484-1.186.906-.422 1.953-.421 1.875.001 2.844.877.984.86.984 2.516v5.031l-2.062-.001v-.828h-.125q-.375.468-.984.78-.594.297-1.375.296zm.5-1.624q.906 0 1.437-.578.547-.593.547-1.374-.813-.391-1.719-.392-1.625 0-1.625 1.218 0 .5.344.813.36.312 1.016.313zm5.991-6.778l1.953.001v1.079h.14q.298-.563.938-.937.641-.39 1.407-.39.562 0 1.03.188v2.094q-.437-.157-.733-.235-.297-.078-.625-.078-.938-.001-1.485.67-.531.672-.531 1.703v4.063l-2.094-.002v-8.156zm5.8 8.16zm4.776-11.45l2.094.001v2.89l-.14 1.423h.14q.344-.578 1.016-.921.671-.36 1.453-.359 1.5.001 2.28.892.798.891.798 2.454v5.078l-2.094-.001v-4.813q0-.781-.422-1.219-.422-.438-1.125-.438-.844 0-1.375.67-.531.672-.531 1.657v4.14h-2.094v-11.454zm13.523 11.712q-1.266-.001-2.25-.564-.985-.563-1.547-1.548-.547-.985-.547-2.22 0-1.218.547-2.202.562-1 1.547-1.562.984-.577 2.25-.576 1.25 0 2.234.58 1 .562 1.547 1.563.563.984.563 2.203 0 1.235-.563 2.219-.547.984-1.547 1.545-.984.562-2.234.562zm0-1.938q.61 0 1.125-.28.515-.281.812-.828.313-.547.313-1.281 0-.719-.313-1.266-.297-.547-.812-.829-.516-.297-1.125-.297-.61 0-1.125.296-.5.28-.813.828-.312.546-.312 1.265 0 .719.312 1.281.313.548.813.83.515.28 1.125.281zm9.496 1.818q-.61 0-1.125-.172-.516-.188-.828-.516-.75-.72-.75-2.048v-3.765l-1.422-.001v-1.781h1.422v-2.312l2.094.001v2.313l2 .001v1.781h-2v3.39q0 .61.265.89.235.25.782.251.296 0 .5-.078.203-.078.515-.265v2.047q-.687.265-1.453.264zm2.907-7.95l.922-1.235q-.422-.11-.688-.453-.265-.36-.265-.797 0-.578.406-.984.406-.422.984-.422t.969.423q.406.406.406.985 0 .28-.094.515-.093.234-.296.531l-1.391 2.062-.953-.626zm3.5.001l.922-1.233q-.422-.11-.688-.454-.265-.36-.265-.797 0-.578.406-.984.422-.422.984-.421.578 0 .985.422.406.407.406.985 0 .281-.11.515-.093.235-.296.531l-1.391 2.062-.953-.626z"/><path fill="#673ab7" d="M324.593 186.606h109.921v59.906H324.593z" fill-rule="evenodd"/><path stroke="#351c75" stroke-linejoin="round" stroke-linecap="butt" d="M324.593 186.606h109.921v59.906H324.593z"/><path fill="#f3f3f3" d="M341.236 212.776q-1.75 0-3.093-.984-1.344-.985-1.89-2.797l2.374-.938q.281 1.063.953 1.703.672.625 1.672.625.844 0 1.438-.406.593-.422.593-1.172t-.578-1.219q-.562-.484-2.015-1.015l-.813-.313q-1.297-.437-2.219-1.36-.906-.921-.906-2.327 0-1.047.547-1.906.547-.86 1.531-1.344.985-.5 2.235-.5 1.812 0 2.859.86 1.047.843 1.437 1.968l-2.218.937q-.219-.609-.735-1.03-.5-.423-1.312-.423-.813 0-1.344.39-.531.376-.531.985 0 .61.5 1.032.5.406 1.656.796l.844.282q1.734.609 2.656 1.593.922.97.922 2.547 0 1.313-.672 2.219-.672.906-1.734 1.36-1.047.437-2.157.437zm8.005-10.86q-.657 0-1.125-.468-.47-.469-.47-1.11 0-.656.47-1.109.468-.469 1.125-.469.656 0 1.109.469.453.453.453 1.11 0 .64-.453 1.109t-1.11.469zm-1.235 1.047h2.438v9.516h-2.438v-9.516zm4.993 0h2.297v1.188h.156q.438-.688 1.188-1.078.765-.406 1.703-.406 1 0 1.75.484.75.469 1.062 1.187.47-.734 1.282-1.203.812-.468 1.906-.468 1.625 0 2.469 1 .859 1 .859 2.687v6.125h-2.422v-5.672q0-.89-.422-1.375-.422-.484-1.172-.484-.953 0-1.53.75-.563.75-.563 1.984v4.797h-2.438v-5.672q0-.89-.437-1.375-.438-.484-1.235-.484-.906 0-1.453.75t-.547 1.984v4.797H353v-9.516zm16.933 0h2.297v1.157h.141q.39-.61 1.14-1.032.75-.421 1.72-.421 1.28 0 2.327.64 1.063.64 1.657 1.797.593 1.156.593 2.625t-.593 2.625q-.594 1.14-1.657 1.781-1.046.64-2.328.64-.968 0-1.734-.405-.75-.407-1.125-1.032h-.14l.14 1.344v3.828h-2.438v-13.547zm4.86 7.563q.687 0 1.281-.36.61-.359.953-.984.36-.64.36-1.453 0-.828-.36-1.453-.344-.64-.953-.984-.594-.344-1.281-.344-.672 0-1.266.344-.594.343-.953.984-.344.625-.344 1.453 0 .813.344 1.453.36.625.953.985.594.359 1.266.359zm6.9-11.406h2.454v13.359h-2.454v-13.36zm9.32 13.656q-1.422 0-2.563-.64-1.14-.657-1.78-1.798-.642-1.156-.642-2.593 0-1.36.625-2.532.641-1.171 1.75-1.859 1.125-.687 2.516-.687 1.469 0 2.531.64 1.063.625 1.61 1.735.562 1.093.562 2.437 0 .422-.062.828h-7.14q.187 1.125.905 1.719.72.594 1.72.594.843 0 1.452-.36.61-.375.953-.984l1.985.969q-1.453 2.53-4.422 2.53zm2.25-6.203q-.031-.453-.328-.89-.282-.438-.797-.72-.516-.296-1.203-.296-.875 0-1.5.515-.625.5-.907 1.39h4.735zm7.967 6.203q-1.578 0-2.766-.86-1.187-.874-1.656-2.359l2.312-.953q.25.875.782 1.328.546.453 1.328.453.859 0 1.343-.547.5-.562.5-1.578v-9.14h2.532v9.125q0 1.453-.578 2.468-.579 1.016-1.579 1.547-.984.516-2.218.516zm7.206-13.656h2.515v13.359h-2.515v-13.36zm8.262 2.39h-3.734v-2.39h9.984v2.39h-3.734v10.969h-2.516V201.51zm6.736 10.969zM345.338 234.776q-1.437 0-2.578-.64-1.14-.641-1.781-1.798-.64-1.156-.64-2.609 0-1.469.64-2.61.64-1.14 1.781-1.796 1.14-.656 2.578-.656 1.578 0 2.719.687 1.14.672 1.64 1.922l-2.234.937q-.593-1.265-2.125-1.265-1.125 0-1.843.765-.72.766-.72 2.016 0 1.266.72 2.031.718.766 1.843.766 1.547 0 2.235-1.344l2.218.969q-.609 1.25-1.75 1.937-1.14.688-2.703.688zm10.768 0q-1.484 0-2.64-.656-1.156-.672-1.797-1.813-.64-1.156-.64-2.578t.64-2.578q.64-1.156 1.797-1.813 1.156-.671 2.64-.671 1.454 0 2.61.671 1.156.657 1.797 1.813.64 1.156.64 2.578t-.64 2.578q-.64 1.14-1.797 1.813-1.156.656-2.61.656zm0-2.25q.704 0 1.297-.328.61-.344.953-.985.36-.64.36-1.484t-.36-1.469q-.343-.64-.953-.968-.593-.344-1.297-.344-.718 0-1.312.344-.594.328-.969.968-.36.625-.36 1.469 0 .828.36 1.484.375.641.969.985.594.328 1.312.328zm6.912-7.563h2.296v1.188h.157q.437-.688 1.187-1.078.766-.406 1.703-.406 1 0 1.75.484.75.469 1.063 1.187.469-.734 1.281-1.203.813-.468 1.906-.468 1.625 0 2.47 1 .858 1 .858 2.687v6.125h-2.421v-5.672q0-.89-.422-1.375-.422-.484-1.172-.484-.953 0-1.531.75-.563.75-.563 1.984v4.797h-2.437v-5.672q0-.89-.438-1.375-.437-.484-1.234-.484-.907 0-1.453.75-.547.75-.547 1.984v4.797h-2.453v-9.516zm16.933 0h2.297v1.157h.14q.391-.61 1.141-1.032.75-.421 1.719-.421 1.281 0 2.328.64 1.062.64 1.656 1.797.594 1.156.594 2.625t-.594 2.625q-.594 1.14-1.656 1.781-1.047.64-2.328.64-.969 0-1.735-.405-.75-.407-1.125-1.032h-.14l.14 1.344v3.828h-2.437v-13.547zm4.86 7.563q.687 0 1.28-.36.61-.359.954-.984.359-.64.359-1.453 0-.828-.36-1.453-.343-.64-.952-.984-.594-.344-1.282-.344-.672 0-1.265.344-.594.343-.953.984-.344.625-.344 1.453 0 .813.344 1.453.359.625.953.985.593.359 1.265.359zm8.29-8.61q-.656 0-1.125-.468-.468-.469-.468-1.11 0-.656.468-1.109.47-.469 1.125-.469.657 0 1.11.469.453.453.453 1.11 0 .64-.453 1.109t-1.11.469zm-1.234 1.047h2.438v9.516h-2.438v-9.516zm4.993-3.843h2.453v13.359h-2.453v-13.36zm9.32 13.656q-1.423 0-2.563-.64-1.14-.657-1.781-1.798-.641-1.156-.641-2.593 0-1.36.625-2.532.64-1.171 1.75-1.859 1.125-.687 2.516-.687 1.468 0 2.53.64 1.063.625 1.61 1.735.563 1.093.563 2.437 0 .422-.063.828h-7.14q.187 1.125.906 1.719.719.594 1.719.594.843 0 1.453-.36.61-.375.953-.984l1.984.969q-1.453 2.53-4.422 2.53zm2.25-6.203q-.032-.453-.329-.89-.281-.438-.797-.72-.515-.296-1.203-.296-.875 0-1.5.515-.625.5-.906 1.39h4.734zm4.232-3.61h2.297v1.266h.156q.36-.672 1.094-1.11.75-.437 1.64-.437.657 0 1.203.203v2.453q-.5-.187-.859-.265-.344-.094-.734-.094-1.078 0-1.719.781-.625.782-.625 1.985v4.734h-2.453v-9.516z"/><path fill="none" d="M308.124 302.314l12.315-50.866"/><path stroke="#351c75" stroke-width="2" stroke-linejoin="round" stroke-linecap="butt" d="M308.124 302.314l9.492-39.203"/><path fill="#351c75" stroke="#351c75" stroke-width="2" stroke-linecap="butt" d="M320.826 263.888l-1.075-9.599-5.346 8.044z" fill-rule="evenodd"/><path fill="none" d="M434.727 251.857l1.638 50.047"/><path stroke="#351c75" stroke-width="2" stroke-linejoin="round" stroke-linecap="butt" d="M434.727 251.857l1.245 38.054"/><path fill="#351c75" stroke="#351c75" stroke-width="2" stroke-linecap="butt" d="M432.67 290.019l3.6 8.963 3.004-9.18z" fill-rule="evenodd"/><path fill="#38761d" d="M306.482 307.656h126.614v59.906H306.482z" fill-rule="evenodd"/><path stroke="#274e13" stroke-linejoin="round" stroke-linecap="butt" d="M306.482 307.656h126.614v59.906H306.482z"/><path fill="#f3f3f3" d="M322.182 333.966q-.656 0-1.125-.468-.469-.47-.469-1.11 0-.656.469-1.11.469-.468 1.125-.468t1.11.469q.452.453.452 1.11 0 .64-.453 1.109-.453.468-1.11.468zm-1.234 1.047h2.437v9.516h-2.437v-9.516zm4.992 0h2.297v1.188h.157q.421-.688 1.203-1.078.797-.407 1.703-.407 1.719 0 2.61 1.047.905 1.047.905 2.86v5.906h-2.453v-5.61q0-.921-.468-1.421-.47-.5-1.297-.5-1 0-1.61.765-.593.766-.593 1.922v4.844h-2.454v-9.516zm15.316 9.672q-.703 0-1.297-.219-.593-.218-.968-.593-.875-.844-.875-2.39v-4.376h-1.672v-2.094h1.672v-2.687h2.437v2.687h2.328v2.094h-2.328v3.938q0 .718.313 1.046.265.297.906.297.344 0 .578-.093.234-.094.61-.329v2.391q-.798.328-1.704.328zm8.127.14q-1.422 0-2.563-.64-1.14-.656-1.781-1.797-.64-1.156-.64-2.593 0-1.36.624-2.532.64-1.172 1.75-1.86 1.125-.687 2.516-.687 1.469 0 2.531.641 1.063.625 1.61 1.734.562 1.094.562 2.438 0 .422-.063.828h-7.14q.187 1.125.906 1.719.719.594 1.719.594.844 0 1.453-.36.61-.375.953-.984l1.984.969q-1.453 2.53-4.421 2.53zm2.25-6.202q-.032-.453-.329-.89-.28-.438-.796-.72-.516-.297-1.204-.297-.875 0-1.5.516-.625.5-.906 1.39h4.735zm4.232-3.61h2.297v1.266h.156q.36-.672 1.094-1.11.75-.437 1.64-.437.657 0 1.204.203v2.453q-.5-.187-.86-.265-.343-.094-.734-.094-1.078 0-1.719.781-.625.781-.625 1.985v4.734h-2.453v-9.516zm7.904 0h2.297v1.157h.14q.39-.61 1.14-1.032.75-.422 1.72-.422 1.28 0 2.328.641 1.062.64 1.656 1.797.594 1.156.594 2.625t-.594 2.625q-.594 1.14-1.656 1.781-1.047.64-2.328.64-.97 0-1.735-.405-.75-.407-1.125-1.032h-.14l.14 1.344v3.828h-2.437v-13.547zm4.86 7.563q.687 0 1.28-.36.61-.359.954-.984.359-.64.359-1.453 0-.828-.36-1.453-.343-.64-.953-.985-.593-.343-1.28-.343-.673 0-1.266.343-.594.344-.954.985-.343.625-.343 1.453 0 .812.343 1.453.36.625.954.984.593.36 1.265.36zm6.9-7.563h2.297v1.266h.156q.36-.672 1.094-1.11.75-.437 1.64-.437.656 0 1.203.203v2.453q-.5-.187-.859-.265-.344-.094-.734-.094-1.079 0-1.72.781-.624.781-.624 1.985v4.734h-2.453v-9.516zm12.435 9.813q-1.422 0-2.563-.64-1.14-.657-1.781-1.798-.64-1.156-.64-2.593 0-1.36.624-2.532.64-1.172 1.75-1.86 1.125-.687 2.516-.687 1.469 0 2.531.641 1.063.625 1.61 1.734.562 1.094.562 2.438 0 .422-.062.828h-7.141q.187 1.125.906 1.719.719.594 1.719.594.844 0 1.453-.36.61-.375.953-.984l1.985.969q-1.454 2.53-4.422 2.53zm2.25-6.203q-.032-.453-.328-.89-.282-.438-.797-.72-.516-.297-1.203-.297-.875 0-1.5.516-.625.5-.907 1.39h4.735zm8.373 6.062q-.703 0-1.297-.219-.594-.218-.969-.593-.875-.844-.875-2.39v-4.376h-1.672v-2.094h1.672v-2.687h2.438v2.687h2.328v2.094h-2.328v3.938q0 .718.312 1.046.266.297.906.297.344 0 .579-.093.234-.094.609-.329v2.391q-.797.328-1.703.328zm8.126.14q-1.422 0-2.562-.64-1.14-.656-1.782-1.797-.64-1.156-.64-2.593 0-1.36.625-2.532.64-1.172 1.75-1.86 1.125-.687 2.515-.687 1.47 0 2.532.641 1.062.625 1.61 1.734.562 1.094.562 2.438 0 .422-.063.828h-7.14q.187 1.125.906 1.719.718.594 1.718.594.844 0 1.454-.36.609-.375.953-.984l1.984.969q-1.453 2.53-4.422 2.53zm2.25-6.202q-.031-.453-.328-.89-.281-.438-.797-.72-.515-.297-1.203-.297-.875 0-1.5.516-.625.5-.906 1.39h4.734zm4.233-3.61h2.297v1.266h.156q.36-.672 1.094-1.11.75-.437 1.64-.437.656 0 1.203.203v2.453q-.5-.187-.86-.265-.343-.094-.733-.094-1.079 0-1.72.781-.624.781-.624 1.985v4.734h-2.453v-9.516z"/><path fill="#673ab7" d="M543.005 367.357v-59.496h32.599v59.496z" fill-rule="evenodd"/><path stroke="#351c75" stroke-linejoin="round" stroke-linecap="butt" d="M543.005 367.357v-59.496h32.599v59.496z"/><path fill="#f3f3f3" d="M564.323 349.51q0 1.015-.453 1.827-.469.813-1.297 1.281-.828.454-1.875.454-1.03 0-1.843-.454-.829-.468-1.297-1.28-.47-.813-.47-1.829 0-1.14.5-1.953.485-.813 1.376-1.172l.656 1.594q-.906.437-.906 1.531 0 .797.547 1.313.547.515 1.437.515.907 0 1.453-.515.547-.516.547-1.313 0-1.11-.953-1.61l.688-1.577q.906.437 1.406 1.25.484.812.484 1.937zm0-7.7q0 1.062-.468 1.89-.485.813-1.297 1.281-.828.454-1.86.454-1 0-1.828-.454-.828-.468-1.297-1.28-.484-.829-.484-1.891 0-1.032.484-1.86.47-.828 1.297-1.281.828-.469 1.828-.469 1.032 0 1.86.469.812.453 1.297 1.281.468.828.468 1.86zm-1.625 0q0-.5-.234-.922-.234-.438-.688-.688-.453-.25-1.078-.25-.593 0-1.047.25-.453.25-.687.688-.25.422-.25.922 0 .515.25.937.234.422.687.688.454.265 1.047.265.61 0 1.078-.265.454-.266.688-.688.234-.422.234-.937zm-5.39-4.885v-1.64h.828v-.11q-.438-.28-.735-.812-.312-.531-.312-1.219 0-.922.469-1.672.453-.765 1.28-1.187.83-.422 1.86-.422 1.063 0 1.89.422.813.422 1.282 1.187.453.75.453 1.672 0 .688-.297 1.234-.296.532-.734.797v.11l.953-.11h2.735v1.75h-9.672zm5.39-3.484q0-.484-.25-.906-.25-.438-.703-.688-.453-.25-1.047-.25-.578 0-1.03.25-.454.25-.704.688-.25.422-.25.906 0 .484.25.906.25.422.703.688.453.25 1.031.25.594 0 1.047-.25.453-.266.703-.688.25-.422.25-.906zm1.094-7.044l-6.484 2.86v-1.985l4.218-1.766v-.094l-4.218-1.703v-1.937l9.672 4.187v1.89l-3.188-1.452z"/><path fill="#673ab7" d="M284.145 251.326h20.489v18.806c-10.244 0-10.244 7.235-20.489 3.617zm1.688 0v-2.438h20.35v18.924c-.774 0-1.549.13-1.549.13v-16.616zm1.587-2.438v-2.379h20.525v18.865c-.881 0-1.763.098-1.763.098v-16.584z" fill-rule="evenodd"/><path fill="none" d="M284.145 251.326h20.489v18.806c-10.244 0-10.244 7.235-20.489 3.617zm1.688 0v-2.438h20.35v18.924c-.774 0-1.549.13-1.549.13m-17.214-19.054v-2.379h20.525v18.865c-.881 0-1.763.098-1.763.098"/><path fill="none" d="M284.145 273.75c10.245 3.617 10.245-3.618 20.489-3.618v-2.19s.775-.13 1.548-.13v-2.34s.882-.098 1.763-.098v-18.865H287.42v2.38h-1.587v2.437h-1.688z"/><path stroke="#351c75" stroke-linejoin="round" stroke-linecap="butt" d="M284.145 251.326h20.489v18.806c-10.244 0-10.244 7.235-20.489 3.617zm1.688 0v-2.438h20.35v18.924c-.774 0-1.549.13-1.549.13m-17.214-19.054v-2.379h20.525v18.865c-.881 0-1.763.098-1.763.098"/><path fill="#673ab7" d="M554.833 251.326h20.489v18.806c-10.244 0-10.244 7.235-20.489 3.617zm1.688 0v-2.438h20.349v18.924c-.774 0-1.548.13-1.548.13v-16.616zm1.587-2.438v-2.379h20.525v18.865c-.882 0-1.763.098-1.763.098v-16.584z" fill-rule="evenodd"/><path fill="none" d="M554.833 251.326h20.489v18.806c-10.244 0-10.244 7.235-20.489 3.617zm1.688 0v-2.438h20.349v18.924c-.774 0-1.548.13-1.548.13m-17.214-19.054v-2.379h20.525v18.865c-.882 0-1.763.098-1.763.098"/><path fill="none" d="M554.833 273.75c10.245 3.617 10.245-3.618 20.489-3.618v-2.19s.774-.13 1.548-.13v-2.34s.881-.098 1.763-.098v-18.865h-20.525v2.38h-1.587v2.437h-1.688z"/><path stroke="#351c75" stroke-linejoin="round" stroke-linecap="butt" d="M554.833 251.326h20.489v18.806c-10.244 0-10.244 7.235-20.489 3.617zm1.688 0v-2.438h20.349v18.924c-.774 0-1.548.13-1.548.13m-17.214-19.054v-2.379h20.525v18.865c-.882 0-1.763.098-1.763.098"/><path fill="none" d="M125.42 391.357v-275.15"/><path stroke="#666" stroke-width="2" stroke-linejoin="round" stroke-linecap="butt" d="M125.42 391.357v-263.15"/><path fill="#666" stroke="#666" stroke-width="2" stroke-linecap="butt" d="M128.723 128.207l-3.303-9.076-3.304 9.076z" fill-rule="evenodd"/><path fill="none" d="M125.134 390.328l755.59-1.165"/><path stroke="#666" stroke-width="2" stroke-linejoin="round" stroke-linecap="butt" d="M125.134 390.328l743.59-1.147"/><path fill="#666" stroke="#666" stroke-width="2" stroke-linecap="butt" d="M868.73 392.485l9.07-3.318-9.08-3.29z" fill-rule="evenodd"/></g></svg>