<svg viewBox="0 0 960 540" fill="none" stroke-linecap="square" stroke-miterlimit="10" xmlns="http://www.w3.org/2000/svg"><clipPath id="a"><path d="M0 0h960v540H0V0z"/></clipPath><g clip-path="url(#a)"><path fill="#fff" d="M0 0h960v540H0z" fill-rule="evenodd"/><path d="M38.514 118.189h261.48v303.622H38.515z"/><path fill="#000" d="M49.905 153.634q0-2.28.656-4.234.672-1.969 1.907-3.406 1.234-1.453 3.015-2.282 1.781-.843 4-.843 2.25 0 4.031.843 1.797.829 3.032 2.282 1.25 1.437 1.906 3.406.672 1.953.672 4.234v.438q0 2.281-.672 4.234-.656 1.953-1.906 3.406-1.235 1.438-3.016 2.266-1.781.813-4 .813-2.25 0-4.047-.813-1.781-.828-3.015-2.266-1.235-1.453-1.907-3.406-.656-1.953-.656-4.234v-.438zm3.61.438q0 1.562.359 2.984.375 1.406 1.125 2.485.765 1.062 1.89 1.687 1.141.625 2.641.625 1.484 0 2.61-.625 1.124-.625 1.874-1.687.75-1.079 1.11-2.485.375-1.422.375-2.984v-.438q0-1.547-.375-2.953-.375-1.422-1.14-2.484-.75-1.078-1.876-1.719-1.11-.64-2.625-.64-1.5 0-2.61.64-1.109.64-1.874 1.719-.75 1.062-1.125 2.484-.36 1.406-.36 2.953v.438zm39.316 0q0 2.265-.547 4.234-.547 1.953-1.61 3.406-1.046 1.438-2.609 2.266-1.547.813-3.562.813-2.032 0-3.532-.72-1.484-.734-2.53-2.077l-.188 2.406H74.94v-30h3.61v11.125q1.03-1.281 2.5-1.969 1.468-.687 3.421-.687 2.032 0 3.594.812 1.563.797 2.61 2.219 1.062 1.422 1.609 3.406.547 1.985.547 4.344v.422zm-3.61-.422q0-1.531-.312-2.922-.297-1.406-.969-2.469-.656-1.062-1.734-1.687-1.078-.625-2.64-.625-.938 0-1.72.25-.78.234-1.39.672-.61.437-1.094 1.031-.484.594-.812 1.297v9.25q.359.703.828 1.297.484.593 1.11 1.047.624.437 1.405.687.782.25 1.72.25 1.483 0 2.546-.61 1.062-.624 1.734-1.671.672-1.063 1-2.453.328-1.39.328-2.922v-.422zm12.145-10.39h10.656v21.28q0 2.032-.562 3.594-.547 1.563-1.61 2.625-1.062 1.063-2.593 1.61-1.532.562-3.485.562-1.125 0-2.094-.062-.953-.063-2.03-.266l.25-2.969q.327.063.827.11.516.047 1.032.078.53.031 1 .031.484.016.75.016 1.015 0 1.906-.266.906-.266 1.562-.89.672-.626 1.047-1.657.39-1.015.39-2.515v-18.125h-7.046v-3.157zm6.547-5.563q0-.875.515-1.485.532-.625 1.625-.625 1.094 0 1.641.625.547.61.547 1.485 0 .875-.547 1.484-.547.594-1.64.594-1.094 0-1.626-.594-.515-.61-.515-1.484zm24.348 27.094q-2.22 0-4.094-.766-1.86-.766-3.188-2.125-1.328-1.375-2.078-3.25-.734-1.875-.734-4.078v-.813q0-2.562.812-4.578.828-2.031 2.188-3.422 1.36-1.406 3.078-2.14 1.734-.75 3.547-.75 2.281 0 3.984.797 1.719.796 2.844 2.187 1.14 1.39 1.687 3.297.563 1.89.563 4.094v1.625h-15.094q.063 1.437.563 2.718.5 1.266 1.359 2.22.875.937 2.078 1.484 1.219.546 2.688.546 1.922 0 3.422-.78 1.515-.782 2.515-2.063l2.203 1.718q-.531.797-1.328 1.532-.781.734-1.828 1.297-1.031.562-2.344.906-1.297.344-2.843.344zm-.47-18.954q-1.093 0-2.077.407-.97.406-1.75 1.172-.782.765-1.328 1.89-.532 1.125-.735 2.594h11.36v-.281q-.063-1.047-.407-2.078-.328-1.047-1-1.86-.656-.828-1.672-1.328-1-.516-2.39-.516zm24.145 16.016q.97 0 1.89-.312.938-.313 1.657-.86.735-.562 1.172-1.312.438-.75.453-1.625h3.422q-.016 1.406-.734 2.687-.72 1.266-1.907 2.235-1.187.968-2.734 1.546-1.547.579-3.219.579-2.406 0-4.203-.86-1.797-.86-3-2.312-1.203-1.453-1.812-3.36-.594-1.906-.594-4.015v-.828q0-2.079.594-3.985.61-1.922 1.812-3.375 1.203-1.469 3-2.328 1.797-.86 4.203-.86 1.875 0 3.438.61 1.578.594 2.719 1.625 1.14 1.016 1.78 2.422.657 1.406.657 3h-3.422q-.015-.953-.422-1.797-.39-.86-1.078-1.5-.687-.64-1.64-1.016-.938-.375-2.032-.375-1.687 0-2.828.688-1.14.672-1.844 1.75-.703 1.078-1.015 2.437-.297 1.344-.297 2.704v.828q0 1.39.297 2.75.312 1.343 1 2.437.703 1.078 1.844 1.75 1.14.672 2.843.672zm23.551-23.703v5.11h8.047v2.796h-8.047v11.485q0 1.234.313 2.03.312.798.859 1.282.547.484 1.25.688.719.187 1.531.187.578 0 1.203-.062.625-.079 1.22-.172.593-.11 1.108-.203.532-.11.86-.188l.5 2.547q-.438.281-1.094.484-.64.203-1.406.344-.75.156-1.61.234-.843.079-1.687.079-1.406 0-2.625-.391-1.219-.406-2.125-1.281-.89-.875-1.406-2.25-.516-1.375-.516-3.328v-11.485h-5.547v-2.797h5.547v-5.109h3.625z"/><path fill="#e67c73" d="M236.37 149.166h-17.453v-3.141h17.453v3.14zm0 8.109h-17.453v-3.125h17.453v3.125zm46.289 14.281q-1.281-.047-2.313-.437-1.03-.39-1.859-1.063-.812-.656-1.406-1.531-.594-.875-1-1.89-.406-1-.61-2.079-.187-1.062-.187-2.094v-3.296q0-2.813-1.344-4.079-1.328-1.28-4.078-1.296v-2.829q2.75 0 4.078-1.25 1.344-1.265 1.344-4.109v-3.312q0-1.032.172-2.094.187-1.078.547-2.078.375-1 .953-1.875.578-.89 1.39-1.547.829-.672 1.891-1.063 1.063-.39 2.422-.422l.406 2.235q-1.406.047-2.234.672-.828.625-1.25 1.593-.422.97-.547 2.188-.11 1.203-.11 2.39v3.313q-.015 2.344-1.093 4.125-1.078 1.766-3.344 2.672 2.266.906 3.344 2.672 1.078 1.765 1.094 4.094v3.296q0 1.22.187 2.422.203 1.203.672 2.157.484.968 1.266 1.593.796.625 2.015.672l-.406 2.25z"/><path fill="#000" d="M107.647 223.103l5.656-7.844h4.235l-7.875 10.453 8.094 10.688h-4.188l-5.844-8.047-5.828 8.047h-4.219l8.079-10.688-7.875-10.453h4.187l5.578 7.844z"/><path fill="#e67c73" d="M130.214 234.056q0-.594.187-1.094.188-.515.531-.89.36-.375.875-.594.532-.219 1.235-.219.703 0 1.234.22.547.218.906.593.36.375.547.89.188.5.188 1.094 0 .563-.188 1.063-.187.5-.547.875-.359.36-.906.562-.531.219-1.234.219t-1.235-.219q-.515-.203-.875-.562-.343-.375-.53-.875-.188-.5-.188-1.063zm0-17q0-.594.187-1.094.188-.515.531-.89.36-.375.875-.594.532-.219 1.235-.219.703 0 1.234.22.547.218.906.593.36.375.547.89.188.5.188 1.094 0 .563-.188 1.063-.187.5-.547.875-.359.36-.906.578-.531.203-1.234.203t-1.235-.203q-.515-.219-.875-.578-.343-.375-.53-.875-.188-.5-.188-1.063z"/><path fill="#db4437" d="M172.221 222.134l1.422-14.172h14.594v3.516H176.69l-.797 7.578q.844-.484 2.016-.86 1.172-.374 2.719-.374 1.968 0 3.531.687 1.562.688 2.656 1.922 1.094 1.235 1.672 3 .594 1.75.594 3.906 0 2.032-.547 3.766t-1.656 3q-1.094 1.266-2.782 1.984-1.671.704-3.937.704-1.75 0-3.297-.485-1.531-.5-2.734-1.469-1.203-.984-1.985-2.468-.765-1.485-.953-3.453h3.438q.328 2.421 1.781 3.671 1.453 1.25 3.75 1.25 1.281 0 2.281-.453 1-.468 1.672-1.312.672-.844 1.016-2.031.343-1.204.343-2.672 0-1.328-.39-2.469-.375-1.156-1.11-2-.718-.86-1.78-1.344-1.048-.484-2.407-.484-.906 0-1.563.125-.64.125-1.171.36-.532.234-1 .562-.454.328-.938.765l-2.89-.75z"/><path fill="#e67c73" d="M204.1 235.556q0 .922-.234 1.922-.219 1.016-.656 2-.438.984-1.063 1.875-.625.906-1.453 1.61l-2.234-1.235q.937-1.36 1.328-2.906.39-1.547.39-3.203v-3.5h3.922v3.437z"/><path fill="#000" d="M106.694 300.9l.938 2.563 6.453-16.204h4.031l-10.719 24.407q-.375.812-.953 1.734-.562.922-1.39 1.703-.813.781-1.907 1.297-1.094.531-2.531.531-.25 0-.563-.031-.312-.016-.625-.078-.312-.047-.593-.11-.266-.046-.438-.093l.578-2.938q.141 0 .375.016l.485.031q.265.031.5.031.234.016.36.016.75 0 1.358-.422.625-.406 1.094-.969.485-.562.828-1.172.344-.609.532-1l1.453-2.812-9.11-20.14h4.047l5.797 13.64z"/><path fill="#e67c73" d="M130.214 306.056q0-.594.187-1.094.188-.515.531-.89.36-.375.875-.594.532-.219 1.235-.219.703 0 1.234.22.547.218.906.593.36.375.547.89.188.5.188 1.094 0 .563-.188 1.063-.187.5-.547.875-.359.36-.906.562-.531.219-1.234.219t-1.235-.219q-.515-.203-.875-.562-.343-.375-.53-.875-.188-.5-.188-1.063zm0-17q0-.594.187-1.094.188-.515.531-.89.36-.375.875-.594.532-.219 1.235-.219.703 0 1.234.22.547.218.906.593.36.375.547.89.188.5.188 1.094 0 .563-.188 1.063-.187.5-.547.875-.359.36-.906.578-.531.203-1.234.203t-1.235-.203q-.515-.219-.875-.578-.343-.375-.53-.875-.188-.5-.188-1.063z"/><path fill="#db4437" d="M184.253 279.947v3.234h-.313q-1.797 0-3.219.375-1.406.375-2.484 1.016-1.078.64-1.844 1.531-.765.89-1.28 1.953-.5 1.047-.782 2.203-.266 1.141-.344 2.344.5-.61 1.156-1.125.672-.516 1.438-.89.781-.391 1.672-.61.89-.234 1.86-.234 2.124 0 3.671.812 1.547.813 2.531 2.14 1 1.329 1.469 3.016.469 1.672.469 3.407 0 2-.563 3.765-.547 1.75-1.656 3.063-1.11 1.312-2.766 2.078-1.656.766-3.812.766-1.547 0-2.828-.454-1.282-.453-2.297-1.218-1.016-.766-1.781-1.813-.75-1.062-1.25-2.265-.5-1.22-.766-2.532-.25-1.312-.25-2.625v-1.687q0-1.953.25-3.922t.828-3.766q.594-1.797 1.578-3.359 1-1.578 2.516-2.719 1.515-1.156 3.594-1.812 2.093-.672 4.89-.672h.313zm-4.719 12.812q-.922 0-1.781.297-.86.281-1.61.813-.734.531-1.312 1.281-.563.734-.89 1.625v1.219q0 1.875.452 3.328.453 1.453 1.203 2.453.766.984 1.766 1.516 1 .515 2.094.515 1.265 0 2.234-.484.985-.5 1.656-1.36.672-.859 1.016-2.062.344-1.203.344-2.61 0-1.25-.313-2.421-.312-1.188-.968-2.094-.641-.922-1.625-1.469-.97-.547-2.266-.547z"/><path fill="#e67c73" d="M204.1 307.556q0 .922-.234 1.922-.219 1.016-.656 2-.438.984-1.063 1.875-.625.906-1.453 1.61l-2.234-1.235q.937-1.36 1.328-2.906.39-1.547.39-3.203v-3.5h3.922v3.437zm-150.273 77.75q1.187-.047 1.984-.672.813-.625 1.282-1.593.484-.954.687-2.157.203-1.203.203-2.422v-3.296q0-2.329 1.078-4.094 1.078-1.766 3.344-2.672-2.266-.906-3.344-2.672-1.078-1.781-1.078-4.125v-3.312q0-1.188-.125-2.391-.125-1.219-.547-2.188-.422-.968-1.25-1.593-.812-.625-2.218-.672l.39-2.235q1.344.032 2.406.422 1.079.391 1.891 1.063.828.656 1.39 1.547.579.875.954 1.875t.547 2.078q.172 1.062.172 2.094v3.312q0 2.844 1.343 4.11 1.36 1.25 4.094 1.25v2.828q-2.734.015-4.094 1.296-1.343 1.266-1.343 4.079v3.296q0 1.563-.438 3.157-.422 1.593-1.328 2.906-.906 1.312-2.297 2.14-1.375.844-3.297.891l-.406-2.25zm28.379-24.25q0-.594.187-1.094.188-.515.532-.89.359-.375.875-.594.53-.219 1.234-.219.703 0 1.234.22.547.218.907.593.359.375.546.89.188.5.188 1.094 0 .563-.188 1.063-.187.5-.546.875-.36.36-.907.578-.53.203-1.234.203-.703 0-1.234-.203-.516-.219-.875-.578-.344-.375-.532-.875-.187-.5-.187-1.063zm4.875 18.5q0 .922-.235 1.922-.218 1.016-.656 2-.437.984-1.062 1.875-.625.906-1.453 1.61l-2.235-1.235q.938-1.36 1.328-2.906.391-1.547.391-3.203v-3.5h3.922v3.437z"/><path fill="#fbbc05" fill-opacity=".377" d="M632.787 100.302C632.787 81.91 647.697 67 666.09 67h222.844a33.302 33.302 0 0 1 33.302 33.302V233.51c0 18.392-14.91 33.302-33.302 33.302H666.09c-18.393 0-33.303-14.91-33.303-33.302z" fill-rule="evenodd"/><path stroke="#666" stroke-linejoin="round" stroke-linecap="butt" d="M632.787 100.302C632.787 81.91 647.697 67 666.09 67h222.844a33.302 33.302 0 0 1 33.302 33.302V233.51c0 18.392-14.91 33.302-33.302 33.302H666.09c-18.393 0-33.303-14.91-33.303-33.302z"/><path fill="#000" d="M655.463 101.966v4.86h-2.562V93.56h4.531q1.094 0 1.969.312.875.313 1.484.875.61.563.938 1.344.343.781.343 1.75 0 .89-.343 1.64-.328.75-.938 1.313-.61.547-1.484.86-.875.312-1.969.312h-1.969zm0-2.078h1.969q.547 0 .938-.156.406-.172.671-.453.282-.282.407-.657.14-.375.14-.765 0-.469-.14-.86-.125-.406-.407-.703-.265-.312-.671-.484-.391-.172-.938-.172h-1.969v4.25zm15.633-3.094q.578 0 1.063.078.484.063.797.157l-.375 2.53q-.5-.124-1.032-.171-.515-.063-1-.063-1.062 0-1.703.407-.64.406-.968 1.172v5.922h-2.532v-9.86h2.36l.125 1.61q.593-.829 1.437-1.297.844-.485 1.828-.485zm3.774 5.016q0-1.078.312-1.984.313-.922.907-1.594.593-.688 1.453-1.063.86-.375 1.969-.375 1.125 0 1.984.375.86.375 1.453 1.063.61.672.906 1.594.313.906.313 1.984v.187q0 1.079-.313 2-.297.922-.89 1.594-.594.672-1.469 1.047-.86.375-1.953.375-1.125 0-2-.375-.86-.375-1.453-1.047-.594-.672-.907-1.594-.312-.921-.312-2v-.187zm2.531.187q0 .625.11 1.172.125.532.375.938.265.406.671.64.407.235.985.235.547 0 .937-.235.407-.234.657-.64.25-.406.375-.938.125-.547.125-1.172v-.187q0-.61-.125-1.14-.125-.548-.375-.954-.25-.406-.657-.64-.39-.235-.968-.235-.563 0-.97.235-.39.234-.655.64-.25.406-.375.953-.11.532-.11 1.14v.188zm17.868-.015q0 1.078-.25 2-.25.922-.75 1.594-.485.671-1.203 1.062-.72.375-1.641.375-.797 0-1.406-.266-.594-.28-1.032-.78v4.655h-2.53V96.966h2.327l.094.969q.453-.547 1.078-.844.625-.297 1.453-.297.938 0 1.657.36.718.359 1.203 1.015.5.657.75 1.578.25.922.25 2.047v.188zm-2.532-.188q0-.61-.125-1.156-.109-.547-.359-.938-.234-.406-.61-.624-.374-.235-.906-.235-.671 0-1.093.266-.422.265-.657.734v4.11q.235.468.657.75.422.28 1.11.28.53 0 .905-.234.391-.25.625-.656.235-.406.344-.953.11-.547.11-1.156v-.188zm9.65 5.219q-1.141 0-2.079-.375-.922-.375-1.594-1.016-.656-.64-1.015-1.515-.36-.875-.36-1.86v-.375q0-1.125.36-2.046.359-.938.984-1.61.64-.687 1.516-1.047.875-.375 1.906-.375 1.062 0 1.89.344.844.344 1.422.984.579.641.875 1.547.313.89.313 1.969v1.078h-6.688q.063.5.282.922.234.406.578.719.344.297.781.469.453.156.984.156.375 0 .735-.078.375-.078.703-.22.344-.14.64-.343.297-.219.516-.5l1.266 1.375q-.235.328-.625.656-.375.329-.89.579-.516.25-1.141.406-.625.156-1.36.156zm-.298-8.172q-.422 0-.781.156-.36.141-.625.422-.266.282-.453.672-.188.39-.266.875h4.14v-.203q-.015-.39-.155-.75-.125-.36-.391-.61-.25-.265-.625-.406-.36-.156-.844-.156zm13.79-2.047q.578 0 1.062.078.484.063.797.157l-.375 2.53q-.5-.124-1.031-.171-.516-.063-1-.063-1.063 0-1.703.407-.641.406-.97 1.172v5.922h-2.53v-9.86h2.359l.125 1.61q.594-.829 1.437-1.297.844-.485 1.829-.485zm8.773-2.234v2.406h3.672v1.875h-3.672v4.235q0 .53.11.89.125.36.343.578.235.219.563.313.328.078.719.078.297 0 .593-.016.313-.031.594-.062.281-.047.516-.094.25-.047.422-.094l.234 1.735q-.25.156-.61.28-.359.11-.765.173-.39.078-.828.11-.438.046-.844.046-.812 0-1.484-.203-.656-.219-1.125-.672-.469-.453-.735-1.14-.25-.704-.25-1.672V98.84h-2.25v-1.875h2.25V94.56h2.547zm10.743 8.125l.297 1.062 2.625-6.78h2.797l-5.016 11.327q-.156.375-.422.813-.25.437-.64.812-.391.375-.954.625-.562.266-1.328.266-.187 0-.344-.016-.156-.015-.296-.047-.141-.015-.282-.046-.14-.032-.312-.079l.312-1.921h.39q.25.015.392.015.296 0 .53-.187.235-.172.391-.391.172-.219.266-.406.11-.172.14-.172l.61-1.156-4.172-9.438h2.781l2.235 5.719zm24.344 4.14q-.094-.187-.156-.421-.063-.235-.11-.5-.203.234-.484.437-.266.188-.61.344-.327.156-.734.234-.39.094-.86.094-.75 0-1.39-.219-.625-.218-1.078-.61-.453-.39-.719-.937-.25-.546-.25-1.187 0-1.547 1.157-2.39 1.172-.86 3.468-.86h1.422v-.594q0-.703-.468-1.11-.47-.421-1.344-.421-.766 0-1.125.328-.36.328-.36.89h-2.53q0-.624.28-1.187.282-.578.813-1 .531-.422 1.297-.672.765-.25 1.765-.25.891 0 1.657.219.78.219 1.343.64.563.422.875 1.079.329.656.329 1.5v4.234q0 .797.093 1.313.094.515.297.89v.157h-2.578zm-2.406-1.78q.375 0 .703-.079.328-.094.594-.234.265-.156.453-.344.203-.188.312-.375v-1.703h-1.297q-.593 0-1.015.125-.422.11-.688.312-.265.204-.39.5-.125.282-.125.625 0 .5.359.844.36.328 1.094.328zm12.102-10.485v2.406h3.671v1.875h-3.671v4.235q0 .53.109.89.125.36.344.578.234.219.562.313.328.078.719.078.297 0 .594-.016.312-.031.593-.062.282-.047.516-.094.25-.047.422-.094l.234 1.735q-.25.156-.609.28-.36.11-.766.173-.39.078-.828.11-.437.046-.844.046-.812 0-1.484-.203-.656-.219-1.125-.672-.469-.453-.734-1.14-.25-.704-.25-1.672V98.84h-2.25v-1.875h2.25V94.56h2.547zm11.195 0v2.406h3.672v1.875h-3.672v4.235q0 .53.11.89.125.36.343.578.235.219.563.313.328.078.719.078.296 0 .593-.016.313-.031.594-.062.281-.047.516-.094.25-.047.422-.094l.234 1.735q-.25.156-.61.28-.359.11-.765.173-.39.078-.828.11-.438.046-.844.046-.812 0-1.484-.203-.657-.219-1.125-.672-.47-.453-.735-1.14-.25-.704-.25-1.672V98.84h-2.25v-1.875h2.25V94.56h2.547zm13.618 2.234q.578 0 1.062.078.485.063.797.157l-.375 2.53q-.5-.124-1.031-.171-.516-.063-1-.063-1.063 0-1.703.407-.641.406-.97 1.172v5.922h-2.53v-9.86h2.359l.125 1.61q.594-.829 1.438-1.297.843-.485 1.828-.485zm4.789.172h5.375v7.797h2.672v2.063h-8.047v-2.063h2.812v-5.719h-2.812v-2.078zm2.625-2.515q0-.297.11-.547.109-.25.296-.422.188-.188.453-.281.282-.11.61-.11.672 0 1.062.39.39.376.39.97 0 .593-.39.968t-1.062.375q-.328 0-.61-.093-.265-.11-.453-.282-.187-.187-.297-.437-.11-.25-.11-.531zm16.79 7.546q0 1.11-.25 2.032-.235.906-.72 1.578-.484.656-1.203 1.031-.718.375-1.672.375-.875 0-1.515-.328-.625-.328-1.078-.906l-.125 1.047h-2.266v-14h2.531v5.03q.438-.5 1.032-.78.593-.282 1.39-.282.969 0 1.688.375.734.36 1.218 1.032.485.656.72 1.593.25.922.25 2.016v.187zm-2.532-.187q0-.61-.094-1.14-.094-.548-.328-.938-.219-.406-.61-.64-.374-.25-.937-.25-.703 0-1.14.296-.422.297-.657.797v3.937q.235.5.657.797.437.282 1.156.282.578 0 .937-.22.375-.218.594-.609.234-.406.328-.937.094-.547.094-1.188v-.187zm11.117 3.625q-.5.75-1.203 1.172-.703.406-1.547.406-.765 0-1.406-.234-.625-.235-1.078-.75-.453-.516-.719-1.313-.25-.797-.25-1.922v-5.828h2.547v5.844q0 .61.078 1.016.094.406.282.656.187.25.5.36.312.109.75.109.765 0 1.234-.282.469-.281.719-.781v-6.922h2.547v9.86h-2.297l-.157-1.391zm9.571-10.875v2.406h3.672v1.875h-3.672v4.235q0 .53.11.89.124.36.343.578.235.219.563.313.328.078.718.078.297 0 .594-.016.313-.031.594-.062.281-.047.516-.094.25-.047.421-.094l.235 1.735q-.25.156-.61.28-.359.11-.765.173-.39.078-.828.11-.438.046-.844.046-.813 0-1.484-.203-.657-.219-1.125-.672-.47-.453-.735-1.14-.25-.704-.25-1.672V98.84h-2.25v-1.875h2.25V94.56h2.547zm11.32 12.453q-1.14 0-2.078-.375-.921-.375-1.593-1.016-.657-.64-1.016-1.515-.36-.875-.36-1.86v-.375q0-1.125.36-2.046.36-.938.984-1.61.641-.687 1.516-1.047.875-.375 1.906-.375 1.063 0 1.891.344.844.344 1.422.984.578.641.875 1.547.312.89.312 1.969v1.078h-6.687q.062.5.281.922.234.406.578.719.344.297.781.469.454.156.985.156.375 0 .734-.078.375-.078.703-.22.344-.14.641-.343.297-.219.516-.5l1.265 1.375q-.234.328-.625.656-.375.329-.89.579-.516.25-1.141.406-.625.156-1.36.156zm-.296-8.172q-.422 0-.782.156-.359.141-.625.422-.265.282-.453.672-.187.39-.265.875h4.14v-.203q-.015-.39-.156-.75-.125-.36-.39-.61-.25-.265-.626-.406-.359-.156-.843-.156zm13.07 5.281q0-.234-.11-.406-.093-.172-.374-.312-.266-.157-.719-.282-.437-.125-1.125-.265-.86-.172-1.578-.422-.703-.266-1.219-.625-.515-.375-.797-.86-.28-.484-.28-1.109 0-.61.28-1.156.297-.563.844-.984.547-.422 1.328-.657.782-.25 1.766-.25 1.031 0 1.844.235.828.234 1.39.672.578.421.875 1 .297.578.297 1.265h-2.531q0-.578-.469-.953-.453-.39-1.406-.39-.89 0-1.344.328-.437.312-.437.765 0 .219.078.406.094.188.328.344.234.14.625.266.406.125 1.031.219.89.14 1.656.375.766.218 1.313.578.562.359.875.875.328.515.328 1.234 0 .656-.328 1.203-.313.547-.89.953-.579.407-1.407.625-.812.219-1.812.219-1.11 0-1.97-.281-.859-.297-1.437-.766-.562-.469-.86-1.062-.296-.594-.296-1.203h2.422q.016.406.203.687.203.281.5.469.297.172.688.265.39.079.796.079.938 0 1.422-.297.5-.313.5-.782z"/><path fill="#e67c73" d="M659.026 145.044h-2.016v15.235h2.016v1.39h-3.61v-18h3.61v1.375zm11.195 0h-2.015v15.235h2.015v1.39h-3.61v-18h3.61v1.375z"/><path fill="#673ab7" d="M679.495 156.107l3.125-10.547h1.797l-4.188 13.266h-1.453l-4.203-13.266h1.813l3.109 10.547zm13.696 2.719q-.094-.188-.157-.47-.062-.296-.093-.609-.25.266-.563.5-.312.22-.703.391-.375.172-.813.266-.421.109-.89.109-.797 0-1.438-.219-.625-.234-1.062-.625-.438-.39-.688-.922-.234-.53-.234-1.156 0-.812.312-1.422.329-.61.922-1.015.594-.407 1.422-.594.844-.203 1.875-.203h1.828v-.781q0-.454-.172-.797-.156-.36-.453-.61-.297-.25-.734-.39-.422-.141-.969-.141-.5 0-.906.14-.39.126-.672.344-.266.203-.422.485-.14.281-.14.594h-1.688q0-.532.266-1.047.281-.532.781-.938.5-.422 1.219-.672.734-.25 1.656-.25.844 0 1.562.203.72.203 1.235.625.531.407.828 1.032.297.609.297 1.437v4.578q0 .5.094 1.047.093.547.25.969v.14h-1.75zm-2.985-1.282q.5 0 .922-.125.438-.14.781-.344.344-.203.594-.468.266-.281.406-.563v-2h-1.562q-1.469 0-2.297.438-.813.437-.813 1.375 0 .36.125.672.125.312.36.53.25.22.625.36.375.125.86.125zm7.961-12.719h5.047v12.547h3.219v1.453h-8.266v-1.453h3.36v-11.078h-3.36v-1.469zm17.337 12.641q-.5.734-1.235 1.14-.734.407-1.703.407-.781 0-1.406-.234-.625-.25-1.078-.766-.438-.516-.688-1.297-.234-.781-.234-1.89v-5.86h1.687v5.875q0 .813.125 1.344.125.516.375.828.266.313.625.453.375.125.86.125 1.031 0 1.656-.422.64-.422.953-1.125v-7.078h1.688v9.86h-1.532l-.093-1.36zm9.148 1.547q-1.031 0-1.906-.36-.875-.359-1.5-.984-.61-.64-.953-1.515-.344-.875-.344-1.907v-.39q0-1.188.375-2.125.39-.953 1.016-1.594.64-.656 1.437-1 .813-.344 1.657-.344 1.062 0 1.859.375.797.36 1.328 1.016.531.64.781 1.531.266.875.266 1.906v.75h-7.031q.015.688.25 1.282.234.578.64 1.03.407.438.969.704.563.25 1.25.25.906 0 1.594-.36.703-.374 1.172-.968l1.03.797q-.25.375-.624.719-.36.328-.844.593-.484.266-1.094.422-.609.172-1.328.172zm-.218-8.844q-.516 0-.97.188-.452.187-.812.547-.36.359-.625.89-.25.516-.343 1.203h5.296v-.125q-.015-.5-.187-.984-.156-.484-.469-.86-.297-.39-.765-.624-.47-.235-1.125-.235z"/><path fill="#e67c73" d="M733.598 143.67h3.625v18h-3.625v-1.391h2.031v-15.235h-2.031v-1.375zm11.195 0h3.625v18h-3.625v-1.391h2.032v-15.235h-2.032v-1.375zm12.024 14.062q0-.266.078-.5.094-.25.25-.422.172-.188.422-.281.25-.094.578-.094.328 0 .578.094.25.093.407.28.172.173.25.423.093.234.093.5 0 .265-.093.5-.078.234-.25.406-.157.172-.407.266-.25.093-.578.093-.328 0-.578-.093-.25-.094-.422-.266-.156-.172-.25-.406-.078-.235-.078-.5zm0-8q0-.266.078-.5.094-.25.25-.422.172-.188.422-.281.25-.094.578-.094.328 0 .578.094.25.093.407.28.172.173.25.423.093.234.093.5 0 .265-.093.5-.078.234-.25.406-.157.172-.407.266-.25.093-.578.093-.328 0-.578-.093-.25-.094-.422-.266-.156-.172-.25-.406-.078-.235-.078-.5z"/><path fill="#db4437" d="M776.88 152.17l.656-6.61h6.813v1.64h-5.39l-.36 3.532q.39-.219.937-.39.547-.173 1.266-.173.906 0 1.64.313.735.312 1.235.89.516.578.781 1.407.282.812.282 1.812 0 .953-.266 1.766-.25.812-.766 1.406-.5.578-1.297.922-.78.328-1.828.328-.812 0-1.53-.219-.72-.234-1.282-.687-.563-.469-.922-1.156-.36-.688-.453-1.61h1.61q.155 1.125.827 1.719.672.578 1.75.578.594 0 1.063-.219t.781-.61q.313-.39.469-.952.156-.563.156-1.235 0-.625-.187-1.156-.172-.547-.516-.937-.328-.407-.828-.625-.485-.235-1.11-.235-.421 0-.734.063-.297.062-.547.172-.25.109-.469.265-.203.156-.437.36l-1.344-.36z"/><path fill="#e67c73" d="M659.026 171.044h-2.016v15.235h2.016v1.39h-3.61v-18h3.61v1.375zm11.195 0h-2.015v15.235h2.015v1.39h-3.61v-18h3.61v1.375z"/><path fill="#673ab7" d="M682.089 181.232l1.015-9.672h1.594l-1.61 13.266h-1.718l-1.703-10-1.719 10h-1.734l-1.61-13.266h1.594l1.016 9.672 1.703-9.672h1.469l1.703 9.672zm11.086-6.438q.234 0 .484.016.266 0 .485.031.234.031.422.078.203.047.343.11l-.234 1.64q-.484-.11-.938-.156-.437-.047-.921-.047-1.188 0-1.922.547-.735.531-1.078 1.484v6.328h-1.688v-9.859h1.594l.094 1.563q.593-.797 1.437-1.266.844-.469 1.922-.469zm4.992.172h5.047v8.406h3.219v1.453h-8.266v-1.453h3.36v-6.937h-3.36v-1.469zm3.141-2.578q0-.422.25-.703.25-.297.766-.297.5 0 .75.297.25.281.25.703 0 .406-.25.688-.25.265-.75.265-.516 0-.766-.266-.25-.28-.25-.687zm11.79.188v2.39h3.75v1.313h-3.75v5.343q0 .578.14.953.14.376.39.594.266.219.594.313.344.094.72.094.265 0 .546-.032.297-.031.578-.078.281-.047.516-.094.25-.047.406-.093l.234 1.203q-.218.125-.515.219-.297.093-.657.156-.343.078-.75.11-.39.046-.78.046-.657 0-1.235-.188-.563-.187-.985-.593-.421-.406-.671-1.047-.235-.64-.235-1.563v-5.343h-2.578v-1.313h2.578v-2.39h1.703zm13.68 12.25q-.094-.188-.157-.47-.062-.296-.094-.609-.25.266-.562.5-.313.22-.703.391-.375.172-.813.266-.422.109-.89.109-.797 0-1.438-.219-.625-.234-1.062-.625-.438-.39-.688-.922-.234-.53-.234-1.156 0-.812.312-1.422.328-.61.922-1.015.594-.407 1.422-.594.844-.203 1.875-.203h1.828v-.781q0-.454-.172-.797-.156-.36-.453-.61-.297-.25-.734-.39-.422-.141-.97-.141-.5 0-.905.14-.391.126-.672.344-.266.203-.422.485-.14.281-.14.594h-1.688q0-.532.265-1.047.282-.532.782-.938.5-.422 1.218-.672.735-.25 1.657-.25.843 0 1.562.203.719.203 1.235.625.53.407.828 1.032.297.609.297 1.437v4.578q0 .5.093 1.047.094.547.25.969v.14h-1.75zm-2.985-1.282q.5 0 .922-.125.437-.14.781-.344.344-.203.594-.468.265-.281.406-.563v-2h-1.562q-1.47 0-2.297.438-.813.437-.813 1.375 0 .36.125.672.125.312.36.53.25.22.625.36.375.125.859.125zm16.055-3.531q0 1.047-.266 1.969-.25.906-.75 1.594-.484.671-1.203 1.062-.719.375-1.656.375-.953 0-1.656-.328-.688-.344-1.188-.984l-.078 1.125h-1.547v-14h1.688v5.203q.484-.61 1.156-.922.687-.313 1.61-.313.937 0 1.656.375.734.36 1.218 1.031.5.657.75 1.594.266.922.266 2.016v.203zm-1.688-.203q0-.719-.14-1.36-.14-.656-.453-1.156-.313-.5-.813-.781-.5-.297-1.219-.297-.437 0-.812.125-.36.11-.656.313-.282.203-.5.484-.22.266-.375.594v4.312q.156.328.375.61.234.28.515.5.297.203.657.312.375.11.812.11.688 0 1.188-.282.5-.297.812-.781.313-.5.453-1.14.156-.641.156-1.36v-.203zm4.79-8.984h5.047v12.546h3.218v1.453h-8.265v-1.453h3.36v-11.078h-3.36v-1.469zm15.289 14.187q-1.031 0-1.906-.36-.875-.359-1.5-.984-.61-.64-.953-1.515-.344-.875-.344-1.907v-.39q0-1.188.375-2.125.39-.953 1.016-1.594.64-.656 1.437-1 .813-.344 1.656-.344 1.063 0 1.86.375.797.36 1.328 1.016.531.64.781 1.531.266.875.266 1.906v.75h-7.032q.016.688.25 1.282.235.578.641 1.03.406.438.969.704.562.25 1.25.25.906 0 1.594-.36.703-.374 1.171-.968l1.032.797q-.25.375-.625.719-.36.328-.844.593-.484.266-1.094.422-.61.172-1.328.172zm-.219-8.844q-.515 0-.968.188-.454.187-.813.547-.36.359-.625.89-.25.516-.344 1.203h5.297v-.125q-.015-.5-.187-.984-.157-.484-.47-.86-.296-.39-.765-.624-.468-.235-1.125-.235z"/><path fill="#e67c73" d="M767.185 169.67h3.625v18h-3.625v-1.391h2.03v-15.235h-2.03v-1.375zm11.195 0h3.625v18h-3.625v-1.391h2.031v-15.235h-2.03v-1.375zm12.024 14.062q0-.266.078-.5.094-.25.25-.422.172-.188.422-.281.25-.094.578-.094.328 0 .578.094.25.093.406.28.172.173.25.423.094.234.094.5 0 .265-.094.5-.078.234-.25.406-.156.172-.406.266-.25.093-.578.093-.328 0-.578-.093-.25-.094-.422-.266-.156-.172-.25-.406-.078-.235-.078-.5zm0-8q0-.266.078-.5.094-.25.25-.422.172-.188.422-.281.25-.094.578-.094.328 0 .578.094.25.093.406.28.172.173.25.423.094.234.094.5 0 .265-.094.5-.078.234-.25.406-.156.172-.406.266-.25.093-.578.093-.328 0-.578-.093-.25-.094-.422-.266-.156-.172-.25-.406-.078-.235-.078-.5z"/><path fill="#4285f4" d="M813.857 172.576v2.39h3.75v1.313h-3.75v5.343q0 .578.141.953.14.376.39.594.266.219.594.313.344.094.72.094.265 0 .546-.032.297-.031.578-.078.281-.047.516-.094.25-.047.406-.093l.234 1.203q-.218.125-.515.219-.297.093-.656.156-.344.078-.75.11-.391.046-.782.046-.656 0-1.234-.188-.563-.187-.984-.593-.422-.406-.672-1.047-.235-.64-.235-1.563v-5.343h-2.578v-1.313h2.578v-2.39h1.703zm13.665 2.218q.234 0 .484.016.266 0 .485.031.234.031.421.078.204.047.344.11l-.234 1.64q-.485-.11-.938-.156-.437-.047-.922-.047-1.187 0-1.921.547-.735.531-1.079 1.484v6.328h-1.687v-9.859h1.594l.093 1.563q.594-.797 1.438-1.266t1.922-.469zm11.133 8.672q-.5.734-1.234 1.14-.735.407-1.704.407-.78 0-1.406-.234-.625-.25-1.078-.766-.437-.516-.687-1.297-.235-.781-.235-1.89v-5.86H834v5.875q0 .813.125 1.344.125.516.375.828.265.313.625.453.375.125.859.125 1.031 0 1.656-.422.64-.422.953-1.125v-7.078h1.688v9.86h-1.531l-.094-1.36zm9.149 1.547q-1.032 0-1.907-.36-.875-.359-1.5-.984-.609-.64-.953-1.515-.344-.875-.344-1.907v-.39q0-1.188.375-2.125.391-.953 1.016-1.594.64-.656 1.438-1 .812-.344 1.656-.344 1.062 0 1.86.375.796.36 1.327 1.016.532.64.782 1.531.265.875.265 1.906v.75h-7.031q.016.688.25 1.282.234.578.64 1.03.407.438.97.704.562.25 1.25.25.906 0 1.593-.36.703-.374 1.172-.968l1.031.797q-.25.375-.625.719-.36.328-.844.593-.484.266-1.093.422-.61.172-1.328.172zm-.22-8.844q-.515 0-.968.188-.453.187-.812.547-.36.359-.625.89-.25.516-.344 1.203h5.297v-.125q-.016-.5-.188-.984-.156-.484-.469-.86-.296-.39-.765-.624-.469-.235-1.125-.235z"/><path fill="#e67c73" d="M659.026 197.044h-2.016v15.235h2.016v1.39h-3.61v-18h3.61v1.375zm11.195 0h-2.015v15.235h2.015v1.39h-3.61v-18h3.61v1.375z"/><path fill="#673ab7" d="M682.808 204.7h-5.532v4.688h6.453v1.437h-8.14V197.56h8.062v1.437h-6.375v4.266h5.532v1.437zm5.414-3.734l.125 1.453q.531-.765 1.312-1.187.782-.438 1.75-.438.782 0 1.407.219.64.219 1.078.687.453.454.687 1.172.25.72.25 1.688v6.265h-1.687v-6.218q0-.657-.157-1.11-.14-.453-.421-.734-.282-.297-.704-.422-.406-.125-.953-.125-.843 0-1.484.422-.64.422-1.031 1.125v7.062h-1.688v-9.859h1.516zm16.086 8.5q-.5.734-1.234 1.14-.735.407-1.703.407-.782 0-1.407-.234-.625-.25-1.078-.766-.437-.516-.687-1.297-.235-.781-.235-1.89v-5.86h1.688v5.875q0 .813.125 1.344.125.515.375.828.265.312.625.453.375.125.86.125 1.03 0 1.655-.422.641-.422.954-1.125v-7.078h1.687v9.86h-1.531l-.094-1.36zm5.57-8.5l.047.938q.297-.532.782-.813.5-.297 1.187-.297 1.36 0 1.813 1.047.297-.469.765-.75.485-.297 1.157-.297 1.093 0 1.671.672.579.656.579 2v7.36h-1.594v-7.376q0-1.25-1.14-1.234-.298 0-.516.094-.22.078-.375.219-.141.14-.22.328-.077.187-.109.375v7.593h-1.609v-7.39q0-.594-.266-.906-.265-.329-.828-.313-.53 0-.828.219-.281.203-.422.547v7.843h-1.609v-9.859h1.516zm14.774 10.047q-1.031 0-1.906-.36-.875-.359-1.5-.984-.61-.64-.953-1.515-.344-.875-.344-1.907v-.39q0-1.188.375-2.125.39-.953 1.016-1.594.64-.656 1.437-1 .813-.344 1.657-.344 1.062 0 1.859.375.797.36 1.328 1.016.531.64.781 1.531.266.875.266 1.906v.75h-7.031q.015.688.25 1.282.234.578.64 1.03.407.438.969.704.563.25 1.25.25.906 0 1.594-.36.703-.374 1.172-.968l1.03.797q-.25.375-.624.718-.36.329-.844.594-.484.266-1.094.422-.609.172-1.328.172zm-.218-8.844q-.516 0-.97.188-.452.187-.812.547-.36.359-.625.89-.25.516-.343 1.203h5.296v-.125q-.015-.5-.187-.984-.156-.484-.469-.86-.297-.39-.765-.624-.47-.235-1.125-.235zm13.523-1.375q.235 0 .485.016.265 0 .484.031.234.031.422.078.203.047.344.11l-.235 1.64q-.484-.11-.937-.156-.438-.047-.922-.047-1.188 0-1.922.547-.734.531-1.078 1.484v6.328h-1.688v-9.859h1.594l.094 1.563q.594-.797 1.437-1.266.844-.469 1.922-.469zm11.211 10.031q-.093-.187-.156-.468-.062-.297-.094-.61-.25.266-.562.5-.313.22-.703.391-.375.172-.813.266-.422.109-.89.109-.797 0-1.438-.219-.625-.234-1.062-.625-.438-.39-.688-.922-.234-.53-.234-1.156 0-.812.312-1.422.328-.61.922-1.015.594-.407 1.422-.594.844-.203 1.875-.203h1.828v-.782q0-.453-.172-.796-.156-.36-.453-.61-.297-.25-.734-.39-.422-.141-.969-.141-.5 0-.906.14-.39.126-.672.344-.266.203-.422.485-.14.281-.14.593h-1.688q0-.53.266-1.046.28-.532.78-.938.5-.422 1.22-.672.734-.25 1.656-.25.844 0 1.562.203.72.203 1.235.625.531.407.828 1.032.297.609.297 1.437v4.578q0 .5.093 1.047.094.547.25.969v.14h-1.75zm-2.984-1.28q.5 0 .922-.126.437-.14.781-.344.344-.203.594-.468.266-.282.406-.563v-2h-1.562q-1.469 0-2.297.438-.813.437-.813 1.375 0 .36.125.672.125.312.36.53.25.22.625.36.375.125.86.125zm16.055-3.532q0 1.047-.266 1.969-.25.906-.75 1.593-.484.672-1.203 1.063-.718.375-1.656.375-.953 0-1.656-.328-.688-.344-1.188-.985l-.078 1.125h-1.547v-14h1.688v5.204q.484-.61 1.156-.922.688-.313 1.61-.313.937 0 1.656.375.734.36 1.218 1.031.5.657.75 1.594.266.922.266 2.016v.203zm-1.687-.203q0-.719-.141-1.36-.14-.656-.453-1.156-.313-.5-.813-.781-.5-.297-1.218-.297-.438 0-.813.125-.36.11-.656.313-.281.203-.5.484-.219.266-.375.594v4.312q.156.328.375.61.234.28.515.5.297.203.657.312.375.11.812.11.688 0 1.188-.282.5-.297.812-.781.313-.5.453-1.14.157-.641.157-1.36v-.203zm4.789-8.985h5.047v12.547h3.218v1.453h-8.265v-1.453h3.36v-11.078h-3.36v-1.469zm15.29 14.188q-1.032 0-1.907-.36-.875-.359-1.5-.984-.61-.64-.953-1.515-.344-.875-.344-1.907v-.39q0-1.188.375-2.125.39-.953 1.016-1.594.64-.656 1.437-1 .813-.344 1.656-.344 1.063 0 1.86.375.797.36 1.328 1.016.531.64.781 1.531.266.875.266 1.906v.75h-7.031q.015.688.25 1.282.234.578.64 1.03.406.438.969.704.562.25 1.25.25.906 0 1.594-.36.703-.374 1.172-.968l1.03.797q-.25.375-.624.718-.36.329-.844.594-.484.266-1.094.422-.61.172-1.328.172zm-.22-8.844q-.515 0-.968.188-.453.187-.813.547-.36.359-.625.89-.25.516-.344 1.203h5.297v-.125q-.015-.5-.187-.984-.156-.484-.469-.86-.297-.39-.766-.624-.468-.235-1.125-.235z"/><path fill="#e67c73" d="M789.576 195.67h3.625v18h-3.625v-1.391h2.031v-15.235h-2.031v-1.375zm11.195 0h3.625v18h-3.625v-1.391h2.032v-15.235h-2.032v-1.375zm12.024 14.062q0-.266.078-.5.094-.25.25-.422.172-.188.422-.281.25-.094.578-.094.328 0 .578.094.25.093.406.28.172.173.25.423.094.234.094.5 0 .265-.094.5-.078.234-.25.406-.156.172-.406.266-.25.093-.578.093-.328 0-.578-.093-.25-.094-.422-.266-.156-.172-.25-.406-.078-.235-.078-.5zm0-8q0-.266.078-.5.094-.25.25-.422.172-.188.422-.281.25-.094.578-.094.328 0 .578.094.25.093.406.28.172.173.25.423.094.234.094.5 0 .265-.094.5-.078.234-.25.406-.156.172-.406.266-.25.093-.578.093-.328 0-.578-.093-.25-.094-.422-.266-.156-.172-.25-.406-.078-.235-.078-.5z"/><path fill="#4285f4" d="M836.249 198.575v2.391h3.75v1.313h-3.75v5.343q0 .578.14.953t.39.594q.267.219.595.313.343.093.718.093.266 0 .547-.03.297-.032.578-.079.282-.047.516-.094.25-.047.406-.093l.235 1.203q-.22.125-.516.218-.297.094-.656.157-.344.078-.75.11-.39.046-.781.046-.657 0-1.235-.188-.562-.187-.984-.593-.422-.407-.672-1.047-.234-.64-.234-1.563v-5.343h-2.579v-1.313h2.579v-2.39h1.703zm13.664 2.22q.234 0 .484.015.266 0 .485.031.234.031.422.078.203.047.343.11l-.234 1.64q-.484-.11-.938-.156-.437-.047-.921-.047-1.188 0-1.922.547-.735.531-1.078 1.484v6.328h-1.688v-9.859h1.594l.094 1.563q.593-.797 1.437-1.266.844-.469 1.922-.469zm11.133 8.671q-.5.734-1.234 1.14-.735.407-1.703.407-.782 0-1.407-.234-.625-.25-1.078-.766-.437-.516-.687-1.297-.235-.781-.235-1.89v-5.86h1.688v5.875q0 .813.125 1.344.125.515.375.828.265.312.625.453.375.125.86.125 1.03 0 1.655-.422.641-.422.954-1.125v-7.078h1.687v9.86h-1.531l-.094-1.36zm9.149 1.547q-1.031 0-1.906-.36-.875-.359-1.5-.984-.61-.64-.954-1.515-.343-.875-.343-1.907v-.39q0-1.188.375-2.125.39-.953 1.015-1.594.64-.656 1.438-1 .812-.344 1.656-.344 1.063 0 1.86.375.796.36 1.328 1.016.53.64.78 1.531.266.875.266 1.906v.75h-7.03q.015.688.25 1.282.234.578.64 1.03.406.438.969.704.562.25 1.25.25.906 0 1.593-.36.703-.374 1.172-.968l1.031.797q-.25.375-.625.718-.359.329-.843.594-.485.266-1.094.422-.61.172-1.328.172zm-.219-8.844q-.516 0-.969.188-.453.187-.812.547-.36.359-.625.89-.25.516-.344 1.203h5.297v-.125q-.016-.5-.188-.984-.156-.484-.468-.86-.297-.39-.766-.624-.469-.235-1.125-.235z"/><path fill="#e67c73" d="M659.026 223.044h-2.016v15.235h2.016v1.39h-3.61v-18h3.61v1.375zm11.195 0h-2.015v15.235h2.015v1.39h-3.61v-18h3.61v1.375z"/><path fill="#673ab7" d="M684.104 232.841q-.109.922-.468 1.688-.36.765-.938 1.328-.562.547-1.344.86-.765.296-1.734.296-.812 0-1.484-.234-.672-.235-1.203-.641-.516-.422-.891-.969-.375-.562-.625-1.219-.25-.656-.375-1.375-.125-.718-.14-1.453v-1.843q.015-.75.14-1.47.125-.718.375-1.374.25-.656.625-1.203.375-.563.89-.969.532-.422 1.188-.656.672-.235 1.5-.235 1 0 1.781.313.782.312 1.344.875.563.547.906 1.344.344.78.453 1.718h-1.687q-.078-.593-.281-1.109-.203-.531-.547-.922-.328-.39-.813-.61-.484-.218-1.156-.218-.594 0-1.062.203-.454.188-.797.531-.328.328-.547.782-.219.437-.36.937-.14.5-.203 1.031-.047.516-.047 1.016v1.86q0 .5.047 1.03.063.516.203 1.016.141.5.36.953.219.438.547.782.343.343.797.546.453.188 1.062.188.672 0 1.156-.203.485-.219.813-.594.344-.375.547-.89.203-.516.28-1.11h1.688zm2.134-1.031q0-1.063.312-1.985.313-.921.89-1.593.579-.672 1.407-1.047.828-.39 1.86-.39 1.046 0 1.874.39.844.375 1.422 1.047.578.672.89 1.593.313.922.313 1.985v.203q0 1.062-.312 1.969-.313.906-.89 1.593-.579.672-1.407 1.063-.828.375-1.86.375-1.046 0-1.89-.375-.828-.39-1.406-1.063-.578-.687-.891-1.593-.312-.907-.312-1.969v-.203zm1.687.203q0 .719.172 1.39.172.657.516 1.157.359.5.89.797.531.281 1.235.281.687 0 1.203-.281.53-.297.875-.797.359-.5.53-1.156.173-.672.173-1.391v-.203q0-.719-.188-1.375-.172-.672-.531-1.172-.344-.5-.875-.797-.516-.297-1.219-.297-.703 0-1.218.297-.516.297-.875.797-.344.5-.516 1.172-.172.656-.172 1.375v.203zm11.492-5.047l.125 1.453q.532-.765 1.313-1.187.781-.438 1.75-.438.781 0 1.406.219.64.219 1.078.687.453.454.688 1.172.25.72.25 1.688v6.265h-1.688v-6.218q0-.657-.156-1.11-.14-.453-.422-.734-.281-.297-.703-.422-.406-.125-.953-.125-.844 0-1.484.422-.641.422-1.032 1.125v7.062h-1.687v-9.859h1.515zm12.196 9.86v-8.547h-2.703v-1.313h2.703v-.687q0-.954.281-1.657.282-.718.782-1.203.515-.484 1.218-.734.719-.25 1.594-.25.594 0 1.156.11.578.093 1.172.25l-.187 1.39q-.375-.125-.875-.219t-1.063-.094q-1.187.016-1.781.61-.594.578-.594 1.797v.687h3.797v1.313h-3.797v8.546h-1.703zm8.955-9.86h5.047v8.406h3.218v1.453h-8.265v-1.453h3.36v-6.937h-3.36v-1.469zm3.14-2.578q0-.422.25-.703.25-.297.766-.297.5 0 .75.297.25.281.25.703 0 .406-.25.687-.25.266-.75.266-.516 0-.766-.266-.25-.28-.25-.687zm7.493 7.422q0-1.094.265-2.016.266-.937.766-1.594.516-.671 1.25-1.03.734-.376 1.64-.376.923 0 1.61.328.688.313 1.172.922l.078-1.078h1.531v9.656q0 .97-.312 1.72-.297.765-.86 1.28-.546.532-1.312.797-.766.281-1.688.281-.39 0-.89-.093-.485-.078-.985-.282-.5-.187-.968-.515-.47-.328-.813-.813l.875-1q.313.375.64.625.329.266.657.422.344.156.672.219.344.062.687.062.594 0 1.079-.171.484-.172.828-.5.343-.329.515-.829.188-.484.188-1.125v-.843q-.485.562-1.156.86-.672.296-1.563.296-.89 0-1.625-.375-.734-.39-1.234-1.063-.5-.687-.782-1.593-.265-.922-.265-1.969v-.203zm1.672.203q0 .719.156 1.36.156.64.469 1.14.328.484.828.781.5.281 1.203.281.437 0 .781-.093.36-.11.64-.297.282-.203.5-.469.22-.266.376-.578v-4.516q-.156-.312-.375-.562-.219-.266-.516-.453-.281-.188-.625-.282-.344-.109-.765-.109-.704 0-1.22.297-.5.281-.827.781-.313.5-.47 1.156-.155.641-.155 1.36v.203zm16.226 3.453q-.5.734-1.234 1.14-.734.407-1.703.407-.781 0-1.406-.234-.625-.25-1.078-.766-.438-.516-.688-1.297-.234-.781-.234-1.89v-5.86h1.687v5.875q0 .813.125 1.344.125.515.375.828.266.312.625.453.375.125.86.125 1.03 0 1.656-.422.64-.422.953-1.125v-7.078h1.687v9.86h-1.53l-.095-1.36zm11.259-8.672q.234 0 .484.016.266 0 .484.031.235.031.422.078.203.047.344.11l-.234 1.64q-.485-.11-.938-.156-.437-.047-.922-.047-1.187 0-1.922.547-.734.531-1.078 1.484v6.328h-1.687v-9.859h1.593l.094 1.563q.594-.797 1.438-1.266.843-.469 1.922-.469zm11.21 10.031q-.093-.187-.155-.468-.063-.297-.094-.61-.25.266-.563.5-.312.22-.703.391-.375.172-.812.266-.422.109-.891.109-.797 0-1.437-.219-.625-.234-1.063-.625-.437-.39-.687-.922-.235-.53-.235-1.156 0-.812.313-1.422.328-.61.922-1.015.593-.407 1.421-.594.844-.203 1.875-.203h1.829v-.782q0-.453-.172-.796-.157-.36-.453-.61-.297-.25-.735-.39-.422-.141-.969-.141-.5 0-.906.14-.39.126-.672.344-.265.203-.422.485-.14.281-.14.593h-1.688q0-.53.266-1.046.281-.532.781-.938.5-.422 1.219-.672.734-.25 1.656-.25.844 0 1.563.203.718.203 1.234.625.531.407.828 1.032.297.609.297 1.437v4.578q0 .5.094 1.047.094.547.25.969v.14h-1.75zm-2.984-1.28q.5 0 .922-.126.438-.14.782-.344.343-.203.593-.468.266-.282.407-.563v-2h-1.563q-1.469 0-2.297.438-.812.437-.812 1.375 0 .36.125.672.125.312.359.53.25.22.625.36.375.125.86.125zm16.055-3.532q0 1.047-.265 1.969-.25.906-.75 1.593-.485.672-1.203 1.063-.72.375-1.657.375-.953 0-1.656-.328-.687-.344-1.187-.985l-.079 1.125h-1.546v-14h1.687v5.204q.484-.61 1.156-.922.688-.313 1.61-.313.937 0 1.656.375.734.36 1.219 1.031.5.657.75 1.594.265.922.265 2.016v.203zm-1.687-.203q0-.719-.14-1.36-.141-.656-.454-1.156-.312-.5-.812-.781-.5-.297-1.22-.297-.437 0-.812.125-.36.11-.656.313-.281.203-.5.484-.219.266-.375.594v4.312q.156.328.375.61.234.28.516.5.297.203.656.312.375.11.812.11.688 0 1.188-.282.5-.297.812-.781.313-.5.454-1.14.156-.641.156-1.36v-.203zm4.79-8.985h5.046v12.547h3.219v1.453h-8.266v-1.453h3.36v-11.078h-3.36v-1.469zm15.288 14.188q-1.03 0-1.906-.36-.875-.359-1.5-.984-.61-.64-.953-1.515-.344-.875-.344-1.907v-.39q0-1.188.375-2.125.39-.953 1.016-1.594.64-.656 1.437-1 .813-.344 1.657-.344 1.062 0 1.86.375.796.36 1.327 1.016.531.64.781 1.531.266.875.266 1.906v.75h-7.031q.015.688.25 1.282.234.578.64 1.03.407.438.97.704.562.25 1.25.25.905 0 1.593-.36.703-.374 1.172-.968l1.031.797q-.25.375-.625.718-.36.329-.844.594-.484.266-1.093.422-.61.172-1.329.172zm-.218-8.844q-.516 0-.97.188-.452.187-.812.547-.359.359-.625.89-.25.516-.343 1.203h5.297v-.125q-.016-.5-.188-.984-.156-.484-.469-.86-.297-.39-.765-.624-.47-.235-1.125-.235z"/><path fill="#e67c73" d="M811.976 221.67h3.625v18h-3.625v-1.391h2.031v-15.235h-2.031v-1.375zm11.196 0h3.625v18h-3.625v-1.391h2.03v-15.235h-2.03v-1.375zm12.023 14.062q0-.266.078-.5.094-.25.25-.422.172-.188.422-.281.25-.094.578-.094.328 0 .578.094.25.093.407.28.172.173.25.423.093.234.093.5 0 .265-.093.5-.078.234-.25.406-.157.172-.407.266-.25.093-.578.093-.328 0-.578-.093-.25-.094-.422-.266-.156-.172-.25-.406-.078-.235-.078-.5zm0-8q0-.266.078-.5.094-.25.25-.422.172-.188.422-.281.25-.094.578-.094.328 0 .578.094.25.093.407.28.172.173.25.423.093.234.093.5 0 .265-.093.5-.078.234-.25.406-.157.172-.407.266-.25.093-.578.093-.328 0-.578-.093-.25-.094-.422-.266-.156-.172-.25-.406-.078-.235-.078-.5z"/><path fill="#4285f4" d="M858.649 224.575v2.391h3.75v1.313h-3.75v5.343q0 .578.14.953.141.375.391.594.266.219.594.313.344.093.719.093.265 0 .547-.03.296-.032.578-.079.28-.047.515-.094.25-.047.407-.093l.234 1.203q-.219.125-.516.218-.297.094-.656.157-.344.078-.75.11-.39.046-.781.046-.656 0-1.235-.188-.562-.187-.984-.593-.422-.407-.672-1.047-.234-.64-.234-1.563v-5.343h-2.578v-1.313h2.578v-2.39h1.703zm13.664 2.22q.235 0 .485.015.265 0 .484.031.234.031.422.078.203.047.344.11l-.235 1.64q-.484-.11-.937-.156-.438-.047-.922-.047-1.188 0-1.922.547-.734.531-1.078 1.484v6.328h-1.688v-9.859h1.594l.094 1.563q.594-.797 1.437-1.266.844-.469 1.922-.469zm11.133 8.671q-.5.734-1.234 1.14-.734.407-1.703.407-.781 0-1.406-.234-.625-.25-1.079-.766-.437-.516-.687-1.297-.234-.781-.234-1.89v-5.86h1.687v5.875q0 .813.125 1.344.125.515.375.828.266.312.625.453.375.125.86.125 1.03 0 1.656-.422.64-.422.953-1.125v-7.078h1.687v9.86h-1.531l-.094-1.36zm9.149 1.547q-1.031 0-1.906-.36-.875-.359-1.5-.984-.61-.64-.953-1.515-.344-.875-.344-1.907v-.39q0-1.188.375-2.125.39-.953 1.015-1.594.641-.656 1.438-1 .812-.344 1.656-.344 1.063 0 1.86.375.796.36 1.328 1.016.53.64.78 1.531.267.875.267 1.906v.75h-7.032q.016.688.25 1.282.235.578.64 1.03.407.438.97.704.562.25 1.25.25.906 0 1.593-.36.704-.374 1.172-.968l1.032.797q-.25.375-.625.718-.36.329-.844.594-.485.266-1.094.422-.61.172-1.328.172zm-.219-8.844q-.515 0-.969.188-.453.187-.812.547-.36.359-.625.89-.25.516-.344 1.203h5.297v-.125q-.016-.5-.187-.984-.157-.484-.47-.86-.296-.39-.765-.624-.469-.235-1.125-.235z"/><path fill="#34a853" d="M342.913 187.45c0-6.282 5.093-11.375 11.376-11.375h142.068a11.376 11.376 0 0 1 11.375 11.375v45.501c0 6.283-5.093 11.376-11.375 11.376H354.289c-6.283 0-11.376-5.093-11.376-11.376z" fill-rule="evenodd"/><path stroke="#666" stroke-linejoin="round" stroke-linecap="butt" d="M342.913 187.45c0-6.282 5.093-11.375 11.376-11.375h142.068a11.376 11.376 0 0 1 11.375 11.375v45.501c0 6.283-5.093 11.376-11.375 11.376H354.289c-6.283 0-11.376-5.093-11.376-11.376z"/><path fill="#fff" d="M392.256 211.723q0 1.812-.485 3.359-.468 1.531-1.39 2.64-.907 1.11-2.22 1.735-1.296.61-2.937.61-1.64 0-2.921-.61-1.266-.625-2.141-1.734-.875-1.125-1.328-2.657-.453-1.53-.453-3.343v-2.766q0-1.828.453-3.36.453-1.53 1.328-2.64.875-1.125 2.14-1.75 1.266-.625 2.907-.625 1.656 0 2.953.625 1.312.625 2.219 1.75.922 1.11 1.39 2.64.485 1.532.485 3.36v2.766zm-3.703-2.797q0-1.156-.188-2.125-.187-.985-.594-1.688-.406-.703-1.047-1.093-.625-.391-1.515-.391-.89 0-1.485.39-.593.391-.968 1.094-.36.703-.516 1.688-.156.969-.156 2.125v2.797q0 1.14.156 2.125.156.968.516 1.687.375.719.968 1.125.594.39 1.5.39.875 0 1.5-.39.641-.406 1.032-1.11.406-.718.593-1.687.204-.984.204-2.14v-2.797zm19.308 3.984q0 1.563-.359 2.89-.344 1.313-1.031 2.266-.688.938-1.719 1.47-1.016.53-2.39.53-1.235 0-2.141-.453-.906-.468-1.547-1.312l-.172 1.5h-3.266v-20h3.625v7.187q.625-.718 1.47-1.125.859-.406 2-.406 1.39 0 2.421.531 1.031.532 1.719 1.485.687.953 1.031 2.28.36 1.313.36 2.876v.281zm-3.625-.281q0-.86-.14-1.625-.125-.766-.438-1.344-.312-.578-.86-.922-.546-.343-1.374-.343-.984 0-1.61.421-.609.422-.953 1.141v5.61q.344.734.954 1.156.625.406 1.64.406.813 0 1.344-.313.547-.328.86-.89.312-.563.437-1.328.14-.782.14-1.688v-.281zm9.09-6.906h7.204v14.406q0 1.406-.407 2.406-.39 1.016-1.172 1.672-.765.656-1.875.969-1.093.312-2.515.312-.594 0-1.188-.047-.593-.046-1.14-.171l.172-2.938q.156.031.437.063.281.03.578.046.297.032.563.032.265.015.39.015.532 0 .985-.125.468-.11.797-.39.328-.266.515-.72.203-.452.203-1.124v-11.453h-3.547v-2.953zm3.297-3.61q0-.422.141-.781.156-.36.422-.61.281-.25.656-.39.39-.14.86-.14.953 0 1.515.546.578.532.578 1.375 0 .844-.578 1.39-.562.532-1.516.532-.468 0-.859-.14-.375-.141-.656-.391-.266-.266-.422-.61-.14-.359-.14-.78zm17.372 17.953q-1.625 0-2.953-.53-1.329-.548-2.282-1.454-.953-.922-1.468-2.156-.516-1.25-.516-2.672v-.516q0-1.625.5-2.953.516-1.328 1.422-2.297.922-.968 2.172-1.5 1.25-.531 2.718-.531 1.516 0 2.704.5 1.203.5 2.03 1.422.829.906 1.25 2.187.438 1.282.438 2.829v1.53h-9.562q.11.72.422 1.313.328.594.812 1.032.5.421 1.14.656.641.234 1.391.234.532 0 1.063-.094.531-.109 1-.312.484-.203.906-.5.422-.313.735-.703l1.796 1.953q-.328.469-.875.937-.53.47-1.28.829-.735.343-1.641.562-.891.234-1.922.234zm-.438-11.687q-.61 0-1.125.219-.5.218-.89.625-.375.406-.641.968-.25.547-.39 1.235h5.937v-.281q-.016-.579-.219-1.079-.187-.515-.562-.875-.36-.375-.891-.593-.531-.22-1.219-.22zm15.825 8.797q.547 0 1.015-.156.485-.157.844-.438.375-.297.578-.703.203-.406.172-.89h3.406q.032 1.093-.453 2.03-.469.938-1.297 1.61-.812.672-1.906 1.062-1.078.375-2.281.375-1.64 0-2.89-.546-1.235-.547-2.063-1.516-.813-.969-1.25-2.25-.422-1.297-.422-2.781v-.391q0-1.484.422-2.781.422-1.297 1.25-2.25.828-.969 2.062-1.531 1.235-.563 2.86-.563 1.296 0 2.406.39 1.11.391 1.906 1.11.797.703 1.234 1.719.454 1 .422 2.25h-3.406q.031-.516-.156-.985-.188-.468-.547-.812-.344-.344-.844-.547-.484-.203-1.062-.203-.86 0-1.422.36-.563.343-.89.937-.329.578-.47 1.344-.14.75-.14 1.562v.39q0 .813.125 1.579.14.765.469 1.344.328.578.89.937.578.344 1.438.344zm16.402-14.906v3.453h5.266v2.656h-5.266v6.062q0 .766.172 1.282.188.515.5.828.328.297.797.437.469.125 1.031.125.422 0 .86-.031.437-.047.828-.11.406-.062.75-.124.344-.063.578-.125l.36 2.484q-.376.219-.891.39-.5.157-1.078.25-.563.11-1.188.157-.625.062-1.219.062-1.156 0-2.11-.296-.937-.313-1.608-.954-.672-.64-1.032-1.64-.36-1-.36-2.39v-6.407h-3.218v-2.656h3.219v-3.453h3.61z"/><path fill="#bdbdbd" d="M353.921 244.505h142.583v59.717H353.92z" fill-rule="evenodd"/><path stroke="#666" stroke-linejoin="round" stroke-linecap="butt" d="M353.921 244.505h142.583v59.717H353.92z"/><path fill="#000" d="M411.265 266.2l-.25 4.313h-1.61v-5.61h1.86v1.297zm14.027 8.719l3.391-4.703h2.531l-4.719 6.281 4.86 6.406h-2.516l-3.5-4.828-3.5 4.828h-2.531l4.844-6.406-4.719-6.281h2.5l3.36 4.703zm14.778-8.719l-.25 4.313h-1.61v-5.61h1.86v1.297z"/><path fill="#bdbdbd" d="M353.921 304.209h142.583v59.716H353.92z" fill-rule="evenodd"/><path stroke="#666" stroke-linejoin="round" stroke-linecap="butt" d="M353.921 304.209h142.583v59.716H353.92z"/><path fill="#000" d="M411.265 325.904l-.25 4.312h-1.61v-5.609h1.86v1.297zm13.45 12.203l.562 1.531 3.875-9.719h2.422l-6.438 14.641q-.219.5-.562 1.047-.344.547-.844 1.015-.485.47-1.14.782-.657.328-1.516.328-.157 0-.344-.016-.188-.015-.375-.047-.188-.03-.36-.078-.156-.031-.265-.047l.36-1.765h.218l.297.031q.156.016.297.016h.218q.438 0 .813-.25.375-.235.656-.579.281-.343.485-.703.218-.359.328-.593l.875-1.688-5.469-12.094h2.422l3.484 8.188zm15.355-12.203l-.25 4.312h-1.61v-5.609h1.86v1.297z"/><path d="M470.504 278l162.803-83.528"/><path stroke="#666" stroke-width="4" stroke-linejoin="round" stroke-linecap="butt" d="M483.992 271.08l127.962-65.652"/><path fill="#666" stroke="#666" stroke-width="4" stroke-linecap="butt" d="M472.283 277.087a6.58 6.58 0 1 1 11.71-6.007 6.58 6.58 0 0 1-11.71 6.007z"/><path fill="#666" stroke="#666" stroke-width="4" stroke-linecap="butt" d="M614.97 211.306l13.134-14.164-19.166 2.408z" fill-rule="evenodd"/><path d="M471.984 334.008l160.82 22.52"/><path stroke="#666" stroke-width="4" stroke-linejoin="round" stroke-linecap="butt" d="M486.998 336.11l122.037 17.09"/><path fill="#666" stroke="#666" stroke-width="4" stroke-linecap="butt" d="M473.965 334.285a6.58 6.58 0 1 1 13.033 1.825 6.58 6.58 0 0 1-13.033-1.825z"/><path fill="#666" stroke="#666" stroke-width="4" stroke-linecap="butt" d="M608.119 359.742l18.893-4.025-17.06-9.06z" fill-rule="evenodd"/><path fill="#fbbc05" fill-opacity=".377" d="M632.787 308.303c0-18.393 14.91-33.303 33.303-33.303h222.844a33.302 33.302 0 0 1 33.302 33.303v133.206c0 18.392-14.91 33.302-33.302 33.302H666.09c-18.393 0-33.303-14.91-33.303-33.302z" fill-rule="evenodd"/><path stroke="#666" stroke-linejoin="round" stroke-linecap="butt" d="M632.787 308.303c0-18.393 14.91-33.303 33.303-33.303h222.844a33.302 33.302 0 0 1 33.302 33.303v133.206c0 18.392-14.91 33.302-33.302 33.302H666.09c-18.393 0-33.303-14.91-33.303-33.302z"/><path fill="#000" d="M655.463 309.966v4.86h-2.562V301.56h4.531q1.094 0 1.969.312.875.313 1.484.875.61.563.938 1.344.343.781.343 1.75 0 .89-.343 1.64-.328.75-.938 1.313-.61.547-1.484.86-.875.312-1.969.312h-1.969zm0-2.078h1.969q.547 0 .938-.156.406-.172.671-.453.282-.282.407-.657.14-.375.14-.765 0-.469-.14-.86-.125-.406-.407-.703-.265-.312-.671-.484-.391-.172-.938-.172h-1.969v4.25zm15.633-3.094q.578 0 1.063.078.484.063.797.157l-.375 2.53q-.5-.124-1.032-.171-.515-.062-1-.062-1.062 0-1.703.406-.64.406-.968 1.172v5.922h-2.532v-9.86h2.36l.125 1.61q.593-.829 1.437-1.297.844-.485 1.828-.485zm3.774 5.016q0-1.078.312-1.984.313-.922.907-1.594.593-.688 1.453-1.063.86-.375 1.969-.375 1.125 0 1.984.375.86.375 1.453 1.063.61.672.906 1.594.313.906.313 1.984v.187q0 1.079-.313 2-.297.922-.89 1.594-.594.672-1.469 1.047-.86.375-1.953.375-1.125 0-2-.375-.86-.375-1.453-1.047-.594-.672-.907-1.594-.312-.921-.312-2v-.187zm2.531.187q0 .625.11 1.172.125.532.375.938.265.406.671.64.407.235.985.235.547 0 .937-.235.407-.234.657-.64.25-.406.375-.938.125-.547.125-1.172v-.187q0-.61-.125-1.14-.125-.548-.375-.954-.25-.406-.657-.64-.39-.235-.968-.235-.563 0-.97.235-.39.234-.655.64-.25.406-.375.953-.11.532-.11 1.14v.188zm17.868-.015q0 1.078-.25 2-.25.922-.75 1.594-.485.671-1.203 1.062-.72.375-1.641.375-.797 0-1.406-.266-.594-.28-1.032-.78v4.655h-2.53v-13.656h2.327l.094.969q.453-.547 1.078-.844.625-.297 1.453-.297.938 0 1.657.36.718.359 1.203 1.015.5.657.75 1.578.25.922.25 2.047v.188zm-2.532-.188q0-.61-.125-1.156-.109-.547-.359-.937-.234-.407-.61-.625-.374-.235-.906-.235-.671 0-1.093.266-.422.265-.657.734v4.11q.235.468.657.75.422.28 1.11.28.53 0 .905-.234.391-.25.625-.656.235-.406.344-.953.11-.547.11-1.156v-.188zm9.65 5.219q-1.141 0-2.079-.375-.922-.375-1.594-1.016-.656-.64-1.015-1.515-.36-.875-.36-1.86v-.375q0-1.125.36-2.046.359-.938.984-1.61.64-.687 1.516-1.047.875-.375 1.906-.375 1.062 0 1.89.344.844.344 1.422.984.579.641.875 1.547.313.89.313 1.969v1.078h-6.688q.063.5.282.922.234.406.578.719.344.297.781.469.453.156.984.156.375 0 .735-.078.375-.078.703-.22.344-.14.64-.343.297-.219.516-.5l1.266 1.375q-.235.328-.625.656-.375.329-.89.579-.516.25-1.141.406-.625.156-1.36.156zm-.298-8.172q-.422 0-.781.156-.36.141-.625.422-.266.282-.453.672-.188.39-.266.875h4.14v-.203q-.015-.39-.155-.75-.125-.36-.391-.61-.25-.265-.625-.406-.36-.156-.844-.156zm13.79-2.047q.578 0 1.062.078.484.063.797.157l-.375 2.53q-.5-.124-1.031-.171-.516-.062-1-.062-1.063 0-1.703.406-.641.406-.97 1.172v5.922h-2.53v-9.86h2.359l.125 1.61q.594-.829 1.437-1.297.844-.485 1.829-.485zm8.773-2.234v2.406h3.672v1.875h-3.672v4.235q0 .53.11.89.125.36.343.578.235.219.563.313.328.078.719.078.297 0 .593-.016.313-.031.594-.062.281-.047.516-.094.25-.047.422-.094l.234 1.735q-.25.156-.61.28-.359.11-.765.173-.39.078-.828.11-.438.046-.844.046-.812 0-1.484-.203-.656-.219-1.125-.672-.469-.453-.735-1.14-.25-.704-.25-1.672v-4.485h-2.25v-1.875h2.25v-2.406h2.547zm10.743 8.125l.297 1.062 2.625-6.78h2.797l-5.016 11.327q-.156.375-.422.813-.25.437-.64.812-.391.375-.954.625-.562.266-1.328.266-.187 0-.344-.016-.156-.015-.296-.047-.141-.015-.282-.046-.14-.032-.312-.079l.312-1.921h.39q.25.015.392.015.296 0 .53-.187.235-.172.391-.391.172-.219.266-.406.11-.172.14-.172l.61-1.156-4.172-9.438h2.781l2.235 5.719zm24.344 4.14q-.094-.187-.156-.421-.063-.235-.11-.5-.203.234-.484.437-.266.188-.61.344-.327.156-.734.234-.39.094-.86.094-.75 0-1.39-.219-.625-.218-1.078-.61-.453-.39-.719-.937-.25-.546-.25-1.187 0-1.547 1.157-2.39 1.172-.86 3.468-.86h1.422v-.594q0-.703-.468-1.11-.47-.421-1.344-.421-.766 0-1.125.328-.36.328-.36.89h-2.53q0-.624.28-1.187.282-.578.813-1 .531-.422 1.297-.672.765-.25 1.765-.25.891 0 1.657.219.78.219 1.343.64.563.423.875 1.079.329.656.329 1.5v4.234q0 .797.093 1.313.094.515.297.89v.157h-2.578zm-2.406-1.78q.375 0 .703-.079.328-.094.594-.234.265-.156.453-.344.203-.187.312-.375v-1.703h-1.297q-.593 0-1.015.125-.422.11-.688.312-.265.204-.39.5-.125.282-.125.625 0 .5.359.844.36.328 1.094.328zm12.102-10.485v2.406h3.671v1.875h-3.671v4.235q0 .53.109.89.125.36.344.578.234.219.562.313.328.078.719.078.297 0 .594-.016.312-.031.593-.062.282-.047.516-.094.25-.047.422-.094l.234 1.735q-.25.156-.609.28-.36.11-.766.173-.39.078-.828.11-.437.046-.844.046-.812 0-1.484-.203-.656-.219-1.125-.672-.469-.453-.734-1.14-.25-.704-.25-1.672v-4.485h-2.25v-1.875h2.25v-2.406h2.547zm11.195 0v2.406h3.672v1.875h-3.672v4.235q0 .53.11.89.125.36.343.578.235.219.563.313.328.078.719.078.296 0 .593-.016.313-.031.594-.062.281-.047.516-.094.25-.047.422-.094l.234 1.735q-.25.156-.61.28-.359.11-.765.173-.39.078-.828.11-.438.046-.844.046-.812 0-1.484-.203-.657-.219-1.125-.672-.47-.453-.735-1.14-.25-.704-.25-1.672v-4.485h-2.25v-1.875h2.25v-2.406h2.547zm13.618 2.234q.578 0 1.062.078.485.063.797.157l-.375 2.53q-.5-.124-1.031-.171-.516-.062-1-.062-1.063 0-1.703.406-.641.406-.97 1.172v5.922h-2.53v-9.86h2.359l.125 1.61q.594-.829 1.438-1.297.843-.485 1.828-.485zm4.789.172h5.375v7.797h2.672v2.063h-8.047v-2.063h2.812v-5.719h-2.812v-2.078zm2.625-2.515q0-.297.11-.547.109-.25.296-.422.188-.188.453-.281.282-.11.61-.11.672 0 1.062.39.39.376.39.97 0 .593-.39.968t-1.062.375q-.328 0-.61-.093-.265-.11-.453-.282-.187-.187-.297-.437-.11-.25-.11-.531zm16.79 7.546q0 1.11-.25 2.032-.235.906-.72 1.578-.484.656-1.203 1.031-.718.375-1.672.375-.875 0-1.515-.328-.625-.328-1.078-.906l-.125 1.047h-2.266v-14h2.531v5.03q.438-.5 1.032-.78.593-.282 1.39-.282.969 0 1.688.375.734.36 1.218 1.032.485.656.72 1.593.25.922.25 2.016v.187zm-2.532-.187q0-.61-.094-1.14-.094-.548-.328-.938-.219-.406-.61-.64-.374-.25-.937-.25-.703 0-1.14.296-.422.297-.657.797v3.937q.235.5.657.797.437.282 1.156.282.578 0 .937-.22.375-.218.594-.609.234-.406.328-.937.094-.547.094-1.188v-.187zm11.117 3.625q-.5.75-1.203 1.172-.703.406-1.547.406-.765 0-1.406-.234-.625-.235-1.078-.75-.453-.516-.719-1.313-.25-.797-.25-1.922v-5.828h2.547v5.844q0 .61.078 1.016.094.406.282.656.187.25.5.36.312.109.75.109.765 0 1.234-.282.469-.281.719-.781v-6.922h2.547v9.86h-2.297l-.157-1.391zm9.571-10.875v2.406h3.672v1.875h-3.672v4.235q0 .53.11.89.124.36.343.578.235.219.563.313.328.078.718.078.297 0 .594-.016.313-.031.594-.062.281-.047.516-.094.25-.047.421-.094l.235 1.735q-.25.156-.61.28-.359.11-.765.173-.39.078-.828.11-.438.046-.844.046-.813 0-1.484-.203-.657-.219-1.125-.672-.47-.453-.735-1.14-.25-.704-.25-1.672v-4.485h-2.25v-1.875h2.25v-2.406h2.547zm11.32 12.453q-1.14 0-2.078-.375-.921-.375-1.593-1.016-.657-.64-1.016-1.515-.36-.875-.36-1.86v-.375q0-1.125.36-2.046.36-.938.984-1.61.641-.687 1.516-1.047.875-.375 1.906-.375 1.063 0 1.891.344.844.344 1.422.984.578.641.875 1.547.312.89.312 1.969v1.078h-6.687q.062.5.281.922.234.406.578.719.344.297.781.469.454.156.985.156.375 0 .734-.078.375-.078.703-.22.344-.14.641-.343.297-.219.516-.5l1.265 1.375q-.234.328-.625.656-.375.329-.89.579-.516.25-1.141.406-.625.156-1.36.156zm-.296-8.172q-.422 0-.782.156-.359.141-.625.422-.265.282-.453.672-.187.39-.265.875h4.14v-.203q-.015-.39-.156-.75-.125-.36-.39-.61-.25-.265-.626-.406-.359-.156-.843-.156zm13.07 5.281q0-.234-.11-.406-.093-.172-.374-.312-.266-.157-.719-.282-.437-.125-1.125-.265-.86-.172-1.578-.422-.703-.266-1.219-.625-.515-.375-.797-.86-.28-.484-.28-1.109 0-.61.28-1.156.297-.563.844-.984.547-.422 1.328-.657.782-.25 1.766-.25 1.031 0 1.844.235.828.234 1.39.672.578.421.875 1 .297.578.297 1.265h-2.531q0-.578-.469-.953-.453-.39-1.406-.39-.89 0-1.344.328-.437.312-.437.765 0 .219.078.406.094.188.328.344.234.14.625.266.406.125 1.031.219.89.14 1.656.375.766.218 1.313.578.562.359.875.875.328.515.328 1.234 0 .656-.328 1.203-.313.547-.89.953-.579.407-1.407.625-.812.219-1.812.219-1.11 0-1.97-.281-.859-.297-1.437-.766-.562-.469-.86-1.062-.296-.594-.296-1.203h2.422q.016.406.203.687.203.281.5.469.297.172.688.265.39.079.796.079.938 0 1.422-.297.5-.313.5-.782z"/><path fill="#e67c73" d="M659.026 353.044h-2.016v15.235h2.016v1.39h-3.61v-18h3.61v1.375zm11.195 0h-2.015v15.235h2.015v1.39h-3.61v-18h3.61v1.375z"/><path fill="#673ab7" d="M679.495 364.107l3.125-10.547h1.797l-4.188 13.265h-1.453l-4.203-13.265h1.813l3.109 10.547zm13.696 2.718q-.094-.187-.157-.468-.062-.297-.093-.61-.25.266-.563.5-.312.22-.703.391-.375.172-.813.266-.421.109-.89.109-.797 0-1.438-.219-.625-.234-1.062-.625-.438-.39-.688-.922-.234-.53-.234-1.156 0-.812.312-1.422.329-.61.922-1.015.594-.407 1.422-.594.844-.203 1.875-.203h1.828v-.782q0-.453-.172-.796-.156-.36-.453-.61-.297-.25-.734-.39-.422-.141-.969-.141-.5 0-.906.14-.39.126-.672.344-.266.203-.422.485-.14.281-.14.593h-1.688q0-.53.266-1.046.281-.532.781-.938.5-.422 1.219-.672.734-.25 1.656-.25.844 0 1.562.203.72.203 1.235.625.531.407.828 1.032.297.609.297 1.437v4.578q0 .5.094 1.047.093.547.25.969v.14h-1.75zm-2.985-1.28q.5 0 .922-.126.438-.14.781-.344.344-.203.594-.468.266-.282.406-.563v-2h-1.562q-1.469 0-2.297.438-.813.437-.813 1.375 0 .36.125.672.125.312.36.53.25.22.625.36.375.125.86.125zm7.961-12.72h5.047v12.547h3.219v1.453h-8.266v-1.453h3.36v-11.078h-3.36v-1.469zm17.337 12.641q-.5.734-1.235 1.14-.734.407-1.703.407-.781 0-1.406-.234-.625-.25-1.078-.766-.438-.516-.688-1.297-.234-.781-.234-1.89v-5.86h1.687v5.875q0 .813.125 1.344.125.515.375.828.266.313.625.453.375.125.86.125 1.031 0 1.656-.422.64-.422.953-1.125v-7.078h1.688v9.86h-1.532l-.093-1.36zm9.148 1.547q-1.031 0-1.906-.36-.875-.359-1.5-.984-.61-.64-.953-1.515-.344-.875-.344-1.907v-.39q0-1.188.375-2.125.39-.953 1.016-1.594.64-.656 1.437-1 .813-.344 1.657-.344 1.062 0 1.859.375.797.36 1.328 1.016.531.64.781 1.531.266.875.266 1.906v.75h-7.031q.015.688.25 1.282.234.578.64 1.03.407.438.969.704.563.25 1.25.25.906 0 1.594-.36.703-.374 1.172-.968l1.03.797q-.25.375-.624.718-.36.329-.844.594-.484.266-1.094.422-.609.172-1.328.172zm-.218-8.844q-.516 0-.97.188-.452.187-.812.547-.36.359-.625.89-.25.516-.343 1.203h5.296v-.125q-.015-.5-.187-.984-.156-.484-.469-.86-.297-.39-.765-.624-.47-.235-1.125-.235z"/><path fill="#e67c73" d="M733.598 351.67h3.625v18h-3.625v-1.391h2.031v-15.235h-2.031v-1.375zm11.195 0h3.625v18h-3.625v-1.391h2.032v-15.235h-2.032v-1.375zm12.024 14.062q0-.266.078-.5.094-.25.25-.422.172-.188.422-.281.25-.094.578-.094.328 0 .578.094.25.093.407.28.172.173.25.423.093.234.093.5 0 .265-.093.5-.078.234-.25.406-.157.172-.407.266-.25.093-.578.093-.328 0-.578-.093-.25-.094-.422-.266-.156-.172-.25-.406-.078-.235-.078-.5zm0-8q0-.266.078-.5.094-.25.25-.422.172-.188.422-.281.25-.094.578-.094.328 0 .578.094.25.093.407.28.172.173.25.423.093.234.093.5 0 .265-.093.5-.078.234-.25.406-.157.172-.407.266-.25.093-.578.093-.328 0-.578-.093-.25-.094-.422-.266-.156-.172-.25-.406-.078-.235-.078-.5z"/><path fill="#db4437" d="M782.49 353.56v1.5h-.141q-.844 0-1.5.172t-1.172.484q-.5.297-.86.719-.359.406-.593.906-.234.485-.36 1.031-.124.532-.171 1.079.25-.282.547-.516.312-.25.671-.422.36-.172.766-.281.422-.11.875-.11 1 0 1.719.391.719.375 1.187 1 .47.61.688 1.39.219.782.219 1.594 0 .938-.266 1.75-.266.813-.781 1.438-.516.61-1.297.969-.766.359-1.766.359-.719 0-1.328-.203-.594-.219-1.062-.578-.47-.36-.829-.844-.359-.5-.593-1.062-.235-.563-.36-1.172-.11-.625-.11-1.235v-.781q0-.922.11-1.828.125-.922.39-1.75.282-.844.735-1.578.47-.735 1.172-1.266.719-.547 1.688-.844.968-.312 2.28-.312h.142zm-2.204 5.969q-.421 0-.828.14-.406.14-.75.39-.343.235-.61.579-.265.344-.42.766v.562q0 .875.202 1.563.219.672.578 1.14.36.469.813.703.469.235.984.235.594 0 1.047-.219.453-.234.766-.625.312-.406.468-.969.157-.562.157-1.218 0-.579-.14-1.125-.142-.563-.454-.985-.297-.422-.75-.672-.453-.265-1.063-.265z"/><path fill="#e67c73" d="M659.026 379.044h-2.016v15.235h2.016v1.39h-3.61v-18h3.61v1.375zm11.195 0h-2.015v15.235h2.015v1.39h-3.61v-18h3.61v1.375z"/><path fill="#673ab7" d="M682.089 389.232l1.015-9.672h1.594l-1.61 13.265h-1.718l-1.703-10-1.719 10h-1.734l-1.61-13.265h1.594l1.016 9.672 1.703-9.672h1.469l1.703 9.672zm11.086-6.438q.234 0 .484.016.266 0 .485.031.234.031.422.078.203.047.343.11l-.234 1.64q-.484-.11-.938-.156-.437-.047-.921-.047-1.188 0-1.922.547-.735.531-1.078 1.484v6.328h-1.688v-9.859h1.594l.094 1.563q.593-.797 1.437-1.266.844-.469 1.922-.469zm4.992.172h5.047v8.406h3.219v1.453h-8.266v-1.453h3.36v-6.937h-3.36v-1.469zm3.141-2.578q0-.422.25-.703.25-.297.766-.297.5 0 .75.297.25.281.25.703 0 .406-.25.688-.25.265-.75.265-.516 0-.766-.266-.25-.28-.25-.687zm11.79.188v2.39h3.75v1.313h-3.75v5.343q0 .578.14.953t.39.594q.266.219.594.313.344.093.72.093.265 0 .546-.03.297-.032.578-.079.281-.047.516-.094.25-.047.406-.093l.234 1.203q-.218.125-.515.218-.297.094-.657.157-.343.078-.75.11-.39.046-.78.046-.657 0-1.235-.188-.563-.187-.985-.593-.421-.407-.671-1.047-.235-.64-.235-1.563v-5.343h-2.578v-1.313h2.578v-2.39h1.703zm13.68 12.25q-.094-.188-.157-.47-.062-.296-.094-.609-.25.266-.562.5-.313.22-.703.391-.375.172-.813.266-.422.109-.89.109-.797 0-1.438-.219-.625-.234-1.062-.625-.438-.39-.688-.922-.234-.53-.234-1.156 0-.812.312-1.422.328-.61.922-1.015.594-.407 1.422-.594.844-.203 1.875-.203h1.828v-.782q0-.453-.172-.796-.156-.36-.453-.61-.297-.25-.734-.39-.422-.141-.97-.141-.5 0-.905.14-.391.126-.672.344-.266.203-.422.485-.14.281-.14.593h-1.688q0-.53.265-1.046.282-.532.782-.938.5-.422 1.218-.672.735-.25 1.657-.25.843 0 1.562.203.719.203 1.235.625.53.407.828 1.032.297.609.297 1.437v4.578q0 .5.093 1.047.094.547.25.969v.14h-1.75zm-2.985-1.282q.5 0 .922-.125.437-.14.781-.344.344-.203.594-.468.265-.282.406-.563v-2h-1.562q-1.47 0-2.297.438-.813.437-.813 1.375 0 .36.125.672.125.312.36.53.25.22.625.36.375.125.859.125zm16.055-3.531q0 1.047-.266 1.969-.25.906-.75 1.593-.484.672-1.203 1.063-.719.375-1.656.375-.953 0-1.656-.328-.688-.344-1.188-.985l-.078 1.125h-1.547v-14h1.688v5.204q.484-.61 1.156-.922.687-.313 1.61-.313.937 0 1.656.375.734.36 1.218 1.031.5.657.75 1.594.266.922.266 2.016v.203zm-1.688-.203q0-.719-.14-1.36-.14-.656-.453-1.156-.313-.5-.813-.781-.5-.297-1.219-.297-.437 0-.812.125-.36.11-.656.313-.282.203-.5.484-.22.266-.375.594v4.312q.156.328.375.61.234.28.515.5.297.203.657.312.375.11.812.11.688 0 1.188-.282.5-.297.812-.781.313-.5.453-1.14.156-.641.156-1.36v-.203zm4.79-8.985h5.047v12.547h3.218v1.453h-8.265v-1.453h3.36v-11.078h-3.36v-1.469zm15.289 14.188q-1.031 0-1.906-.36-.875-.359-1.5-.984-.61-.64-.953-1.515-.344-.875-.344-1.907v-.39q0-1.188.375-2.125.39-.953 1.016-1.594.64-.656 1.437-1 .813-.344 1.656-.344 1.063 0 1.86.375.797.36 1.328 1.016.531.64.781 1.531.266.875.266 1.906v.75h-7.032q.016.688.25 1.282.235.578.641 1.03.406.438.969.704.562.25 1.25.25.906 0 1.594-.36.703-.374 1.171-.968l1.032.797q-.25.375-.625.718-.36.329-.844.594-.484.266-1.094.422-.61.172-1.328.172zm-.219-8.844q-.515 0-.968.188-.454.187-.813.547-.36.359-.625.89-.25.516-.344 1.203h5.297v-.125q-.015-.5-.187-.984-.157-.484-.47-.86-.296-.39-.765-.624-.468-.235-1.125-.235z"/><path fill="#e67c73" d="M767.185 377.67h3.625v18h-3.625v-1.391h2.03v-15.235h-2.03v-1.375zm11.195 0h3.625v18h-3.625v-1.391h2.031v-15.235h-2.03v-1.375zm12.024 14.062q0-.266.078-.5.094-.25.25-.422.172-.188.422-.281.25-.094.578-.094.328 0 .578.094.25.093.406.28.172.173.25.423.094.234.094.5 0 .265-.094.5-.078.234-.25.406-.156.172-.406.266-.25.093-.578.093-.328 0-.578-.093-.25-.094-.422-.266-.156-.172-.25-.406-.078-.235-.078-.5zm0-8q0-.266.078-.5.094-.25.25-.422.172-.188.422-.281.25-.094.578-.094.328 0 .578.094.25.093.406.28.172.173.25.423.094.234.094.5 0 .265-.094.5-.078.234-.25.406-.156.172-.406.266-.25.093-.578.093-.328 0-.578-.093-.25-.094-.422-.266-.156-.172-.25-.406-.078-.235-.078-.5z"/><path fill="#4285f4" d="M813.857 380.575v2.391h3.75v1.313h-3.75v5.343q0 .578.141.953.14.375.39.594.266.219.594.313.344.093.72.093.265 0 .546-.03.297-.032.578-.079.281-.047.516-.094.25-.047.406-.093l.234 1.203q-.218.125-.515.218-.297.094-.656.157-.344.078-.75.11-.391.046-.782.046-.656 0-1.234-.188-.563-.187-.984-.593-.422-.407-.672-1.047-.235-.64-.235-1.563v-5.343h-2.578v-1.313h2.578v-2.39h1.703zm13.665 2.22q.234 0 .484.015.266 0 .485.031.234.031.421.078.204.047.344.11l-.234 1.64q-.485-.11-.938-.156-.437-.047-.922-.047-1.187 0-1.921.547-.735.531-1.079 1.484v6.328h-1.687v-9.859h1.594l.093 1.563q.594-.797 1.438-1.266t1.922-.469zm11.133 8.671q-.5.734-1.234 1.14-.735.407-1.704.407-.78 0-1.406-.234-.625-.25-1.078-.766-.437-.516-.687-1.297-.235-.781-.235-1.89v-5.86H834v5.875q0 .813.125 1.344.125.515.375.828.265.313.625.453.375.125.859.125 1.031 0 1.656-.422.64-.422.953-1.125v-7.078h1.688v9.86h-1.531l-.094-1.36zm9.149 1.547q-1.032 0-1.907-.36-.875-.359-1.5-.984-.609-.64-.953-1.515-.344-.875-.344-1.907v-.39q0-1.188.375-2.125.391-.953 1.016-1.594.64-.656 1.438-1 .812-.344 1.656-.344 1.062 0 1.86.375.796.36 1.327 1.016.532.64.782 1.531.265.875.265 1.906v.75h-7.031q.016.688.25 1.282.234.578.64 1.03.407.438.97.704.562.25 1.25.25.906 0 1.593-.36.703-.374 1.172-.968l1.031.797q-.25.375-.625.718-.36.329-.844.594-.484.266-1.093.422-.61.172-1.328.172zm-.22-8.844q-.515 0-.968.188-.453.187-.812.547-.36.359-.625.89-.25.516-.344 1.203h5.297v-.125q-.016-.5-.188-.984-.156-.484-.469-.86-.296-.39-.765-.624-.469-.235-1.125-.235z"/><path fill="#e67c73" d="M659.026 405.044h-2.016v15.235h2.016v1.39h-3.61v-18h3.61v1.375zm11.195 0h-2.015v15.235h2.015v1.39h-3.61v-18h3.61v1.375z"/><path fill="#673ab7" d="M682.808 412.7h-5.532v4.688h6.453v1.438h-8.14V405.56h8.062v1.437h-6.375v4.266h5.532v1.438zm5.414-3.734l.125 1.453q.531-.765 1.312-1.187.782-.438 1.75-.438.782 0 1.407.219.64.219 1.078.688.453.453.687 1.171.25.72.25 1.688v6.265h-1.687v-6.218q0-.657-.157-1.11-.14-.453-.421-.734-.282-.297-.704-.422-.406-.125-.953-.125-.843 0-1.484.422-.64.422-1.031 1.125v7.063h-1.688v-9.86h1.516zm16.086 8.5q-.5.734-1.234 1.14-.735.407-1.703.407-.782 0-1.407-.234-.625-.25-1.078-.766-.437-.516-.687-1.297-.235-.781-.235-1.89v-5.86h1.688v5.875q0 .813.125 1.344.125.515.375.828.265.313.625.453.375.125.86.125 1.03 0 1.655-.422.641-.422.954-1.125v-7.078h1.687v9.86h-1.531l-.094-1.36zm5.57-8.5l.047.938q.297-.532.782-.813.5-.297 1.187-.297 1.36 0 1.813 1.047.297-.469.765-.75.485-.297 1.157-.297 1.093 0 1.671.672.579.656.579 2v7.36h-1.594v-7.376q0-1.25-1.14-1.234-.298 0-.516.094-.22.078-.375.219-.141.14-.22.328-.077.187-.109.375v7.593h-1.609v-7.39q0-.594-.266-.906-.265-.329-.828-.313-.53 0-.828.219-.281.203-.422.547v7.843h-1.609v-9.859h1.516zm14.774 10.047q-1.031 0-1.906-.36-.875-.359-1.5-.984-.61-.64-.953-1.515-.344-.875-.344-1.907v-.39q0-1.188.375-2.125.39-.953 1.016-1.594.64-.656 1.437-1 .813-.344 1.657-.344 1.062 0 1.859.375.797.36 1.328 1.016.531.64.781 1.531.266.875.266 1.906v.75h-7.031q.015.688.25 1.282.234.578.64 1.03.407.438.969.704.563.25 1.25.25.906 0 1.594-.36.703-.374 1.172-.968l1.03.797q-.25.375-.624.718-.36.329-.844.594-.484.266-1.094.422-.609.172-1.328.172zm-.218-8.844q-.516 0-.97.188-.452.187-.812.547-.36.359-.625.89-.25.516-.343 1.203h5.296v-.125q-.015-.5-.187-.984-.156-.484-.469-.86-.297-.39-.765-.624-.47-.235-1.125-.235zm13.523-1.375q.235 0 .485.016.265 0 .484.031.234.031.422.078.203.047.344.11l-.235 1.64q-.484-.11-.937-.156-.438-.047-.922-.047-1.188 0-1.922.547-.734.531-1.078 1.484v6.328h-1.688v-9.859h1.594l.094 1.563q.594-.797 1.437-1.266.844-.469 1.922-.469zm11.211 10.031q-.093-.187-.156-.468-.062-.297-.094-.61-.25.266-.562.5-.313.22-.703.391-.375.172-.813.266-.422.109-.89.109-.797 0-1.438-.219-.625-.234-1.062-.625-.438-.39-.688-.922-.234-.53-.234-1.156 0-.812.312-1.422.328-.61.922-1.015.594-.407 1.422-.594.844-.203 1.875-.203h1.828v-.782q0-.453-.172-.796-.156-.36-.453-.61-.297-.25-.734-.39-.422-.141-.969-.141-.5 0-.906.14-.39.126-.672.344-.266.203-.422.485-.14.281-.14.593h-1.688q0-.53.266-1.046.28-.532.78-.938.5-.422 1.22-.672.734-.25 1.656-.25.844 0 1.562.203.72.203 1.235.625.531.407.828 1.032.297.609.297 1.437v4.578q0 .5.093 1.047.094.547.25.969v.14h-1.75zm-2.984-1.28q.5 0 .922-.126.437-.14.781-.344.344-.203.594-.468.266-.282.406-.563v-2h-1.562q-1.469 0-2.297.438-.813.437-.813 1.375 0 .36.125.672.125.312.36.53.25.22.625.36.375.125.86.125zm16.055-3.532q0 1.047-.266 1.969-.25.906-.75 1.593-.484.672-1.203 1.063-.718.375-1.656.375-.953 0-1.656-.328-.688-.344-1.188-.985l-.078 1.125h-1.547v-14h1.688v5.204q.484-.61 1.156-.922.688-.313 1.61-.313.937 0 1.656.375.734.36 1.218 1.031.5.657.75 1.594.266.922.266 2.016v.203zm-1.687-.203q0-.719-.141-1.36-.14-.656-.453-1.156-.313-.5-.813-.781-.5-.297-1.218-.297-.438 0-.813.125-.36.11-.656.313-.281.203-.5.484-.219.266-.375.594v4.312q.156.328.375.61.234.28.515.5.297.203.657.312.375.11.812.11.688 0 1.188-.282.5-.297.812-.781.313-.5.453-1.14.157-.641.157-1.36v-.203zm4.789-8.985h5.047v12.547h3.218v1.453h-8.265v-1.453h3.36v-11.078h-3.36v-1.469zm15.29 14.188q-1.032 0-1.907-.36-.875-.359-1.5-.984-.61-.64-.953-1.515-.344-.875-.344-1.907v-.39q0-1.188.375-2.125.39-.953 1.016-1.594.64-.656 1.437-1 .813-.344 1.656-.344 1.063 0 1.86.375.797.36 1.328 1.016.531.64.781 1.531.266.875.266 1.906v.75h-7.031q.015.688.25 1.282.234.578.64 1.03.406.438.969.704.562.25 1.25.25.906 0 1.594-.36.703-.374 1.172-.968l1.03.797q-.25.375-.624.718-.36.329-.844.594-.484.266-1.094.422-.61.172-1.328.172zm-.22-8.844q-.515 0-.968.188-.453.187-.813.547-.36.359-.625.89-.25.516-.344 1.203h5.297v-.125q-.015-.5-.187-.984-.156-.484-.469-.86-.297-.39-.766-.624-.468-.235-1.125-.235z"/><path fill="#e67c73" d="M789.576 403.67h3.625v18h-3.625v-1.391h2.031v-15.235h-2.031v-1.375zm11.195 0h3.625v18h-3.625v-1.391h2.032v-15.235h-2.032v-1.375zm12.024 14.062q0-.266.078-.5.094-.25.25-.422.172-.188.422-.281.25-.094.578-.094.328 0 .578.094.25.093.406.28.172.173.25.423.094.234.094.5 0 .265-.094.5-.078.234-.25.406-.156.172-.406.266-.25.093-.578.093-.328 0-.578-.093-.25-.094-.422-.266-.156-.172-.25-.406-.078-.235-.078-.5zm0-8q0-.266.078-.5.094-.25.25-.422.172-.188.422-.281.25-.094.578-.094.328 0 .578.094.25.093.406.28.172.173.25.423.094.234.094.5 0 .265-.094.5-.078.234-.25.406-.156.172-.406.266-.25.093-.578.093-.328 0-.578-.093-.25-.094-.422-.266-.156-.172-.25-.406-.078-.235-.078-.5z"/><path fill="#4285f4" d="M836.249 406.575v2.391h3.75v1.313h-3.75v5.343q0 .578.14.953t.39.594q.267.219.595.313.343.093.718.093.266 0 .547-.03.297-.032.578-.079.282-.047.516-.094.25-.047.406-.093l.235 1.203q-.22.125-.516.218-.297.094-.656.157-.344.078-.75.11-.39.046-.781.046-.657 0-1.235-.188-.562-.187-.984-.593-.422-.407-.672-1.047-.234-.64-.234-1.563v-5.343h-2.579v-1.313h2.579v-2.39h1.703zm13.664 2.22q.234 0 .484.015.266 0 .485.031.234.031.422.078.203.047.343.11l-.234 1.64q-.484-.11-.938-.156-.437-.047-.921-.047-1.188 0-1.922.547-.735.531-1.078 1.484v6.328h-1.688v-9.859h1.594l.094 1.563q.593-.797 1.437-1.266.844-.469 1.922-.469zm11.133 8.671q-.5.734-1.234 1.14-.735.407-1.703.407-.782 0-1.407-.234-.625-.25-1.078-.766-.437-.516-.687-1.297-.235-.781-.235-1.89v-5.86h1.688v5.875q0 .813.125 1.344.125.515.375.828.265.313.625.453.375.125.86.125 1.03 0 1.655-.422.641-.422.954-1.125v-7.078h1.687v9.86h-1.531l-.094-1.36zm9.149 1.547q-1.031 0-1.906-.36-.875-.359-1.5-.984-.61-.64-.954-1.515-.343-.875-.343-1.907v-.39q0-1.188.375-2.125.39-.953 1.015-1.594.64-.656 1.438-1 .812-.344 1.656-.344 1.063 0 1.86.375.796.36 1.328 1.016.53.64.78 1.531.266.875.266 1.906v.75h-7.03q.015.688.25 1.282.234.578.64 1.03.406.438.969.704.562.25 1.25.25.906 0 1.593-.36.703-.374 1.172-.968l1.031.797q-.25.375-.625.718-.359.329-.843.594-.485.266-1.094.422-.61.172-1.328.172zm-.219-8.844q-.516 0-.969.188-.453.187-.812.547-.36.359-.625.89-.25.516-.344 1.203h5.297v-.125q-.016-.5-.188-.984-.156-.484-.468-.86-.297-.39-.766-.624-.469-.235-1.125-.235z"/><path fill="#e67c73" d="M659.026 431.044h-2.016v15.235h2.016v1.39h-3.61v-18h3.61v1.375zm11.195 0h-2.015v15.235h2.015v1.39h-3.61v-18h3.61v1.375z"/><path fill="#673ab7" d="M684.104 440.841q-.109.922-.468 1.688-.36.765-.938 1.328-.562.547-1.344.86-.765.296-1.734.296-.812 0-1.484-.234-.672-.235-1.203-.641-.516-.422-.891-.969-.375-.562-.625-1.218-.25-.657-.375-1.375-.125-.72-.14-1.454v-1.843q.015-.75.14-1.47.125-.718.375-1.374.25-.656.625-1.203.375-.563.89-.969.532-.422 1.188-.656.672-.235 1.5-.235 1 0 1.781.313.782.312 1.344.875.563.547.906 1.344.344.78.453 1.718h-1.687q-.078-.593-.281-1.109-.203-.531-.547-.922-.328-.39-.813-.61-.484-.218-1.156-.218-.594 0-1.062.203-.454.188-.797.531-.328.329-.547.782-.219.437-.36.937-.14.5-.203 1.031-.047.516-.047 1.016v1.86q0 .5.047 1.03.063.516.203 1.016.141.5.36.953.219.438.547.782.343.343.797.547.453.187 1.062.187.672 0 1.156-.203.485-.219.813-.594.344-.375.547-.89.203-.516.28-1.11h1.688zm2.134-1.031q0-1.063.312-1.984.313-.922.89-1.594.579-.672 1.407-1.047.828-.39 1.86-.39 1.046 0 1.874.39.844.375 1.422 1.047.578.672.89 1.594.313.921.313 1.984v.203q0 1.063-.312 1.969-.313.906-.89 1.594-.579.671-1.407 1.062-.828.375-1.86.375-1.046 0-1.89-.375-.828-.39-1.406-1.062-.578-.688-.891-1.594-.312-.906-.312-1.969v-.203zm1.687.203q0 .719.172 1.39.172.657.516 1.157.359.5.89.797.531.281 1.235.281.687 0 1.203-.281.53-.297.875-.797.359-.5.53-1.156.173-.672.173-1.391v-.203q0-.719-.188-1.375-.172-.672-.531-1.172-.344-.5-.875-.797-.516-.297-1.219-.297-.703 0-1.218.297-.516.297-.875.797-.344.5-.516 1.172-.172.656-.172 1.375v.203zm11.492-5.047l.125 1.453q.532-.765 1.313-1.187.781-.438 1.75-.438.781 0 1.406.219.64.219 1.078.688.453.453.688 1.171.25.72.25 1.688v6.266h-1.688v-6.22q0-.655-.156-1.109-.14-.453-.422-.734-.281-.297-.703-.422-.406-.125-.953-.125-.844 0-1.484.422-.641.422-1.032 1.125v7.063h-1.687v-9.86h1.515zm12.196 9.86v-8.547h-2.703v-1.313h2.703v-.687q0-.953.281-1.657.282-.718.782-1.203.515-.484 1.218-.734.719-.25 1.594-.25.594 0 1.156.11.578.093 1.172.25l-.187 1.39q-.375-.125-.875-.219t-1.063-.094q-1.187.016-1.781.61-.594.578-.594 1.797v.687h3.797v1.313h-3.797v8.547h-1.703zm8.955-9.86h5.047v8.406h3.218v1.454h-8.265v-1.454h3.36v-6.937h-3.36v-1.469zm3.14-2.578q0-.422.25-.703.25-.297.766-.297.5 0 .75.297.25.281.25.703 0 .406-.25.688-.25.265-.75.265-.516 0-.766-.265-.25-.282-.25-.688zm7.493 7.422q0-1.094.265-2.016.266-.937.766-1.593.516-.672 1.25-1.032.734-.375 1.64-.375.923 0 1.61.328.688.313 1.172.922l.078-1.078h1.531v9.656q0 .97-.312 1.72-.297.765-.86 1.28-.546.532-1.312.797-.766.282-1.688.282-.39 0-.89-.094-.485-.078-.985-.281-.5-.188-.968-.516-.47-.328-.813-.813l.875-1q.313.375.64.625.329.266.657.422.344.157.672.219.344.063.687.063.594 0 1.079-.172.484-.172.828-.5.343-.328.515-.828.188-.485.188-1.125v-.844q-.485.562-1.156.86-.672.296-1.563.296-.89 0-1.625-.375-.734-.39-1.234-1.062-.5-.688-.782-1.594-.265-.922-.265-1.969v-.203zm1.672.203q0 .719.156 1.36.156.64.469 1.14.328.484.828.781.5.282 1.203.282.437 0 .781-.094.36-.11.64-.297.282-.203.5-.469.22-.265.376-.578v-4.516q-.156-.312-.375-.562-.219-.266-.516-.453-.281-.188-.625-.281-.344-.11-.765-.11-.704 0-1.22.297-.5.281-.827.781-.313.5-.47 1.157-.155.64-.155 1.359v.203zm16.226 3.453q-.5.735-1.234 1.14-.734.407-1.703.407-.781 0-1.406-.234-.625-.25-1.078-.766-.438-.516-.688-1.297-.234-.781-.234-1.89v-5.86h1.687v5.875q0 .813.125 1.344.125.516.375.828.266.313.625.453.375.125.86.125 1.03 0 1.656-.422.64-.422.953-1.125v-7.078h1.687v9.86h-1.53l-.095-1.36zm11.259-8.672q.234 0 .484.016.266 0 .484.031.235.031.422.078.203.047.344.11l-.234 1.64q-.485-.11-.938-.156-.437-.047-.922-.047-1.187 0-1.922.547-.734.531-1.078 1.484v6.329h-1.687v-9.86h1.593l.094 1.563q.594-.797 1.438-1.266.843-.469 1.922-.469zm11.21 10.032q-.093-.188-.155-.47-.063-.296-.094-.609-.25.266-.563.5-.312.22-.703.391-.375.172-.812.266-.422.109-.891.109-.797 0-1.437-.219-.625-.234-1.063-.625-.437-.39-.687-.922-.235-.53-.235-1.156 0-.812.313-1.422.328-.61.922-1.015.593-.407 1.421-.594.844-.203 1.875-.203h1.829v-.781q0-.454-.172-.797-.157-.36-.453-.61-.297-.25-.735-.39-.422-.141-.969-.141-.5 0-.906.14-.39.126-.672.344-.265.204-.422.485-.14.281-.14.594h-1.688q0-.532.266-1.047.281-.532.781-.938.5-.422 1.219-.672.734-.25 1.656-.25.844 0 1.563.203.718.204 1.234.625.531.407.828 1.032.297.609.297 1.437v4.578q0 .5.094 1.047.094.547.25.969v.14h-1.75zm-2.984-1.282q.5 0 .922-.125.438-.14.782-.343.343-.204.593-.47.266-.28.407-.562v-2h-1.563q-1.469 0-2.297.438-.812.437-.812 1.375 0 .36.125.672.125.312.359.53.25.22.625.36.375.125.86.125zm16.055-3.531q0 1.047-.265 1.969-.25.906-.75 1.594-.485.671-1.203 1.062-.72.375-1.657.375-.953 0-1.656-.328-.687-.344-1.187-.984l-.079 1.125h-1.546v-14h1.687v5.203q.484-.61 1.156-.922.688-.313 1.61-.313.937 0 1.656.375.734.36 1.219 1.032.5.656.75 1.593.265.922.265 2.016v.203zm-1.687-.203q0-.719-.14-1.36-.141-.656-.454-1.156-.312-.5-.812-.781-.5-.297-1.22-.297-.437 0-.812.125-.36.11-.656.313-.281.203-.5.484-.219.266-.375.594v4.312q.156.328.375.61.234.28.516.5.297.203.656.312.375.11.812.11.688 0 1.188-.282.5-.297.812-.781.313-.5.454-1.14.156-.641.156-1.36v-.203zm4.79-8.984h5.046v12.546h3.219v1.454h-8.266v-1.454h3.36v-11.078h-3.36v-1.468zm15.288 14.187q-1.03 0-1.906-.36-.875-.359-1.5-.984-.61-.64-.953-1.515-.344-.875-.344-1.907v-.39q0-1.188.375-2.125.39-.953 1.016-1.594.64-.656 1.437-1 .813-.344 1.657-.344 1.062 0 1.86.375.796.36 1.327 1.016.531.64.781 1.531.266.875.266 1.906v.75h-7.031q.015.688.25 1.282.234.578.64 1.03.407.438.97.704.562.25 1.25.25.905 0 1.593-.36.703-.374 1.172-.968l1.031.797q-.25.375-.625.719-.36.328-.844.593-.484.266-1.093.422-.61.172-1.329.172zm-.218-8.844q-.516 0-.97.188-.452.187-.812.547-.359.359-.625.89-.25.516-.343 1.203h5.297v-.125q-.016-.5-.188-.984-.156-.484-.469-.86-.297-.39-.765-.624-.47-.235-1.125-.235z"/><path fill="#e67c73" d="M811.976 429.67h3.625v18h-3.625v-1.391h2.031v-15.235h-2.031v-1.375zm11.196 0h3.625v18h-3.625v-1.391h2.03v-15.235h-2.03v-1.375zm12.023 14.062q0-.266.078-.5.094-.25.25-.422.172-.188.422-.281.25-.094.578-.094.328 0 .578.094.25.093.407.28.172.173.25.423.093.234.093.5 0 .265-.093.5-.078.234-.25.406-.157.172-.407.266-.25.093-.578.093-.328 0-.578-.093-.25-.094-.422-.266-.156-.172-.25-.406-.078-.235-.078-.5zm0-8q0-.266.078-.5.094-.25.25-.422.172-.188.422-.281.25-.094.578-.094.328 0 .578.094.25.093.407.28.172.173.25.423.093.234.093.5 0 .265-.093.5-.078.234-.25.406-.157.172-.407.266-.25.093-.578.093-.328 0-.578-.093-.25-.094-.422-.266-.156-.172-.25-.406-.078-.235-.078-.5z"/><path fill="#4285f4" d="M858.649 432.575v2.391h3.75v1.313h-3.75v5.343q0 .578.14.953.141.375.391.594.266.219.594.313.344.093.719.093.265 0 .547-.03.296-.032.578-.079.28-.047.515-.094.25-.047.407-.093l.234 1.203q-.219.125-.516.218-.297.094-.656.157-.344.078-.75.11-.39.046-.781.046-.656 0-1.235-.188-.562-.187-.984-.593-.422-.407-.672-1.047-.234-.64-.234-1.563v-5.343h-2.578v-1.313h2.578v-2.39h1.703zm13.664 2.22q.235 0 .485.015.265 0 .484.031.234.031.422.078.203.047.344.11l-.235 1.64q-.484-.11-.937-.156-.438-.047-.922-.047-1.188 0-1.922.547-.734.531-1.078 1.484v6.328h-1.688v-9.859h1.594l.094 1.563q.594-.797 1.437-1.266.844-.469 1.922-.469zm11.133 8.671q-.5.734-1.234 1.14-.734.407-1.703.407-.781 0-1.406-.234-.625-.25-1.079-.766-.437-.516-.687-1.297-.234-.781-.234-1.89v-5.86h1.687v5.875q0 .813.125 1.344.125.515.375.828.266.313.625.453.375.125.86.125 1.03 0 1.656-.422.64-.422.953-1.125v-7.078h1.687v9.86h-1.531l-.094-1.36zm9.149 1.547q-1.031 0-1.906-.36-.875-.359-1.5-.984-.61-.64-.953-1.515-.344-.875-.344-1.907v-.39q0-1.188.375-2.125.39-.953 1.015-1.594.641-.656 1.438-1 .812-.344 1.656-.344 1.063 0 1.86.375.796.36 1.328 1.016.53.64.78 1.531.267.875.267 1.906v.75h-7.032q.016.688.25 1.282.235.578.64 1.03.407.438.97.704.562.25 1.25.25.906 0 1.593-.36.704-.374 1.172-.968l1.032.797q-.25.375-.625.718-.36.329-.844.594-.485.266-1.094.422-.61.172-1.328.172zm-.219-8.844q-.515 0-.969.188-.453.187-.812.547-.36.359-.625.89-.25.516-.344 1.203h5.297v-.125q-.016-.5-.187-.984-.157-.484-.47-.86-.296-.39-.765-.624-.469-.235-1.125-.235z"/></g></svg>