<svg viewBox="0 0 960 540" fill="none" stroke-linecap="square" stroke-miterlimit="10" xmlns="http://www.w3.org/2000/svg"><clipPath id="a"><path d="M0 0h960v540H0V0z"/></clipPath><g clip-path="url(#a)"><path fill="#fff" d="M0 0h960v540H0z" fill-rule="evenodd"/><path d="M38.514 52.213h729.48v303.622H38.515z"/><path fill="#000" d="M60.186 89.373q-.156-.297-.25-.75-.093-.454-.14-.938-.39.406-.89.766-.5.343-1.095.625-.593.265-1.265.422-.672.156-1.422.156-1.235 0-2.235-.344-1-.36-1.687-.969-.688-.609-1.078-1.453-.375-.844-.375-1.812 0-1.282.5-2.235.515-.953 1.437-1.593.938-.641 2.25-.954 1.313-.312 2.922-.312h2.906v-1.219q0-.703-.265-1.265-.25-.563-.735-.954-.468-.39-1.156-.593-.672-.219-1.515-.219-.782 0-1.407.203-.625.188-1.062.516-.422.328-.656.781-.235.453-.235.937h-2.672q.016-.843.438-1.656.422-.812 1.219-1.469.796-.656 1.937-1.046 1.14-.407 2.578-.407 1.313 0 2.438.328 1.14.313 1.968.97.829.655 1.297 1.624.47.969.47 2.281v7.204q0 .765.14 1.64.14.86.406 1.5v.235h-2.766zM55.5 87.357q.781 0 1.453-.203t1.219-.531q.562-.329.953-.75.406-.422.64-.875v-3.141h-2.468q-2.328 0-3.61.687-1.28.688-1.28 2.157 0 .578.187 1.062.187.485.578.844.39.344.968.547.594.203 1.36.203z"/><path fill="#e67c73" d="M97.98 78.2H85.198v-2.296H97.98V78.2zm0 5.938H85.198v-2.281H97.98v2.281zm33.933 10.469q-.921-.016-1.687-.313-.75-.28-1.36-.765-.593-.485-1.03-1.14-.438-.641-.735-1.376-.297-.734-.438-1.515-.14-.782-.14-1.547v-2.422q0-2.063-.985-2.985-.984-.937-3-.953v-2.078q2.016 0 3-.922.985-.922.985-3V73.17q0-.765.125-1.546.125-.782.39-1.516.282-.734.704-1.375.421-.656 1.015-1.14.61-.485 1.39-.766.782-.297 1.766-.328l.313 1.656q-1.031.031-1.64.484-.61.453-.923 1.172-.312.703-.406 1.594-.078.89-.078 1.765v2.422q-.016 1.72-.797 3.016-.781 1.297-2.453 1.969 1.672.656 2.453 1.953.781 1.297.797 3v2.422q0 .89.14 1.765.157.891.5 1.594.36.719.938 1.172.578.453 1.469.484l-.313 1.641z"/><path fill="#000" d="M162.004 79.623l4.14-5.75h3.11l-5.766 7.671 5.922 7.829h-3.063l-4.281-5.907-4.281 5.907h-3.094l5.922-7.829-5.766-7.671h3.063l4.094 5.75z"/><path fill="#e67c73" d="M178.822 87.654q0-.422.125-.797.14-.375.39-.656.266-.282.641-.438.39-.156.907-.156.515 0 .906.156.406.156.672.438.265.281.39.656.14.375.14.797 0 .422-.14.781-.125.36-.39.64-.266.266-.672.407-.39.156-.906.156t-.907-.156q-.375-.14-.64-.406-.25-.282-.391-.64-.125-.36-.125-.782zm0-13q0-.422.125-.797.14-.375.39-.656.266-.282.641-.438.39-.156.907-.156.515 0 .906.156.406.156.672.438.265.281.39.656.14.375.14.797 0 .422-.14.781-.125.36-.39.64-.266.266-.672.423-.39.14-.906.14t-.907-.14q-.375-.157-.64-.422-.25-.282-.391-.64-.125-.36-.125-.782z"/><path fill="#db4437" d="M209.35 78.92l1.047-10.391h10.687v2.578h-8.453l-.594 5.547q.625-.36 1.485-.625.859-.281 1.984-.281 1.453 0 2.594.515 1.14.5 1.937 1.406.813.907 1.235 2.204.437 1.28.437 2.859 0 1.484-.406 2.766-.39 1.265-1.203 2.187-.813.922-2.047 1.453-1.235.516-2.89.516-1.282 0-2.407-.344-1.125-.36-2.016-1.078-.875-.719-1.437-1.797-.563-1.094-.719-2.547h2.531q.235 1.781 1.297 2.703 1.078.907 2.75.907.953 0 1.672-.329.734-.343 1.219-.968.5-.625.75-1.5t.25-1.938q0-.984-.281-1.828-.266-.844-.797-1.469-.532-.625-1.313-.968-.765-.36-1.765-.36-.672 0-1.157.094-.468.078-.86.25-.374.172-.718.422-.328.25-.687.562l-2.125-.547z"/><path fill="#e67c73" d="M232.715 88.763q0 .672-.172 1.406-.156.735-.484 1.454-.313.734-.781 1.39-.454.656-1.047 1.172l-1.657-.906q.688-1 .97-2.14.296-1.126.296-2.345v-2.562h2.875v2.531z"/><path fill="#000" d="M266.899 83.873l.687 1.875 4.735-11.875h2.953l-7.86 17.89q-.265.61-.687 1.281-.422.672-1.031 1.235-.594.578-1.406.969-.797.39-1.844.39-.188 0-.422-.031-.219-.016-.453-.063-.219-.03-.422-.078-.203-.03-.328-.062l.422-2.172q.109 0 .28.016l.345.03q.187.016.359.016.172.016.281.016.547 0 .985-.297.453-.297.797-.719.359-.421.609-.859.25-.437.406-.734l1.047-2.063-6.672-14.765h2.969l4.25 10z"/><path fill="#e67c73" d="M284.42 87.654q0-.422.126-.797.14-.375.39-.656.266-.282.64-.438.391-.156.907-.156t.906.156q.407.156.672.438.266.281.39.656.141.375.141.797 0 .422-.14.781-.125.36-.39.64-.266.266-.673.407-.39.156-.906.156t-.906-.156q-.375-.14-.64-.406-.25-.282-.391-.64-.125-.36-.125-.782zm0-13q0-.422.126-.797.14-.375.39-.656.266-.282.64-.438.391-.156.907-.156t.906.156q.407.156.672.438.266.281.39.656.141.375.141.797 0 .422-.14.781-.125.36-.39.64-.266.266-.673.423-.39.14-.906.14t-.906-.14q-.375-.157-.64-.422-.25-.282-.391-.64-.125-.36-.125-.782z"/><path fill="#db4437" d="M323.776 68.513v2.375h-.234q-1.313 0-2.36.281-1.03.266-1.828.735-.78.469-1.359 1.125-.562.656-.937 1.422-.36.765-.563 1.625-.203.843-.266 1.718.375-.453.86-.828.5-.375 1.062-.656.563-.281 1.203-.437.657-.172 1.375-.172 1.563 0 2.688.593 1.14.594 1.86 1.563.734.969 1.077 2.203.344 1.234.344 2.516 0 1.453-.406 2.75-.406 1.281-1.219 2.25-.812.968-2.031 1.531-1.203.547-2.797.547-1.125 0-2.062-.328-.938-.328-1.688-.89-.75-.563-1.312-1.329-.547-.781-.922-1.672-.36-.89-.547-1.844-.188-.968-.188-1.922v-1.25q0-1.421.172-2.859.188-1.453.61-2.766.437-1.312 1.171-2.468.735-1.157 1.844-2 1.11-.844 2.64-1.328 1.532-.485 3.579-.485h.234zm-3.468 9.39q-.672 0-1.313.22-.625.203-1.172.593-.547.391-.969.938-.406.547-.64 1.203v.89q0 1.36.328 2.438.328 1.063.875 1.797.562.734 1.297 1.11.734.374 1.531.374.938 0 1.64-.359.72-.36 1.22-.984.5-.625.75-1.5.25-.891.25-1.922 0-.922-.235-1.782-.234-.875-.703-1.546-.469-.672-1.188-1.063-.718-.406-1.671-.406z"/><path fill="#e67c73" d="M351.335 92.966q.875-.03 1.453-.484.594-.453.938-1.172.36-.703.5-1.594.156-.875.156-1.765v-2.422q0-1.703.781-3 .797-1.297 2.453-1.953-1.656-.672-2.453-1.969-.781-1.297-.781-3.016V73.17q0-.875-.094-1.765-.094-.89-.406-1.594-.297-.719-.906-1.172-.594-.453-1.625-.484l.281-1.656q1 .03 1.766.328.78.281 1.375.765.609.485 1.03 1.141.423.64.688 1.375.282.734.407 1.516.14.78.14 1.546v2.422q0 2.078.985 3 .984.922 3 .922v2.078q-2.016.016-3 .953-.985.922-.985 2.985v2.422q0 1.156-.328 2.312-.312 1.172-.984 2.125-.657.969-1.672 1.578-1.016.625-2.422.641l-.297-1.64zm21.084-18.312q0-.422.125-.797.14-.375.39-.656.266-.282.641-.438.391-.156.907-.156.515 0 .906.156.406.156.672.438.265.281.39.656.141.375.141.797 0 .422-.14.781-.126.36-.391.64-.266.266-.672.423-.39.14-.906.14t-.907-.14q-.375-.157-.64-.422-.25-.282-.39-.64-.126-.36-.126-.782zm3.094 14.11q0 .671-.172 1.405-.156.735-.484 1.454-.313.734-.782 1.39-.453.656-1.046 1.172l-1.657-.906q.688-1 .97-2.14.296-1.126.296-2.345v-2.562h2.875v2.531z"/><path fill="#000" d="M63.14 134.794q0 1.657-.407 3.11-.39 1.437-1.172 2.5-.765 1.047-1.906 1.656-1.14.594-2.625.594-1.484 0-2.578-.516-1.094-.531-1.875-1.531l-.125 1.766h-2.438v-22h2.657v8.171q.765-.953 1.828-1.453 1.078-.5 2.515-.5 1.485 0 2.625.594 1.157.578 1.922 1.625.782 1.047 1.172 2.5.406 1.453.406 3.188v.296zm-2.657-.296q0-1.125-.219-2.157-.218-1.03-.703-1.797-.484-.78-1.28-1.234-.782-.469-1.938-.469-.688 0-1.266.188-.563.172-1.016.5-.453.312-.797.75-.343.437-.593.953v6.766q.25.515.593.953.36.437.813.781.469.328 1.031.5.578.172 1.266.172 1.094 0 1.875-.438.781-.453 1.265-1.218.5-.782.735-1.797.234-1.016.234-2.157v-.296z"/><path fill="#e67c73" d="M97.98 131.2H85.198v-2.296H97.98v2.297zm0 5.938H85.198v-2.281H97.98v2.281zm33.933 10.469q-.921-.016-1.687-.313-.75-.28-1.36-.765-.593-.485-1.03-1.14-.438-.641-.735-1.376-.297-.734-.438-1.515-.14-.782-.14-1.547v-2.422q0-2.063-.985-2.985-.984-.937-3-.953v-2.078q2.016 0 3-.922.985-.922.985-3v-2.422q0-.765.125-1.546.125-.782.39-1.516.282-.734.704-1.375.421-.656 1.015-1.14.61-.485 1.39-.766.782-.297 1.766-.328l.313 1.656q-1.031.031-1.64.484-.61.453-.923 1.172-.312.703-.406 1.594-.078.89-.078 1.765v2.422q-.016 1.72-.797 3.016-.781 1.297-2.453 1.969 1.672.656 2.453 1.953.781 1.297.797 3v2.422q0 .89.14 1.765.157.891.5 1.594.36.719.938 1.172.578.453 1.469.484l-.313 1.641z"/><path fill="#000" d="M162.004 132.623l4.14-5.75h3.11l-5.766 7.671 5.922 7.829h-3.063l-4.281-5.907-4.281 5.907h-3.094l5.922-7.829-5.766-7.671h3.063l4.094 5.75z"/><path fill="#e67c73" d="M178.822 140.654q0-.422.125-.797.14-.375.39-.656.266-.282.641-.438.39-.156.907-.156.515 0 .906.156.406.156.672.438.265.281.39.656.14.375.14.797 0 .422-.14.781-.125.36-.39.64-.266.266-.672.407-.39.156-.906.156t-.907-.156q-.375-.14-.64-.406-.25-.282-.391-.64-.125-.36-.125-.782zm0-13q0-.422.125-.797.14-.375.39-.656.266-.282.641-.438.39-.156.907-.156.515 0 .906.156.406.156.672.438.265.281.39.656.14.375.14.797 0 .422-.14.781-.125.36-.39.64-.266.266-.672.423-.39.14-.906.14t-.907-.14q-.375-.157-.64-.422-.25-.282-.391-.64-.125-.36-.125-.782z"/><path fill="#db4437" d="M221.6 123.013l-8.625 19.36h-2.782l8.61-18.532h-11.281v-2.312H221.6v1.484z"/><path fill="#e67c73" d="M232.715 141.763q0 .672-.172 1.406-.156.735-.484 1.454-.313.734-.781 1.39-.454.656-1.047 1.172l-1.657-.906q.688-1 .97-2.14.296-1.126.296-2.345v-2.562h2.875v2.531z"/><path fill="#000" d="M266.899 136.873l.687 1.875 4.735-11.875h2.953l-7.86 17.89q-.265.61-.687 1.281-.422.672-1.031 1.235-.594.578-1.406.969-.797.39-1.844.39-.188 0-.422-.031-.219-.016-.453-.063-.219-.03-.422-.078-.203-.03-.328-.062l.422-2.172q.109 0 .28.016l.345.03q.187.016.359.016.172.016.281.016.547 0 .985-.297.453-.297.797-.719.359-.421.609-.859.25-.437.406-.734l1.047-2.063-6.672-14.765h2.969l4.25 10z"/><path fill="#e67c73" d="M284.42 140.654q0-.422.126-.797.14-.375.39-.656.266-.282.64-.438.391-.156.907-.156t.906.156q.407.156.672.438.266.281.39.656.141.375.141.797 0 .422-.14.781-.125.36-.39.64-.266.266-.673.407-.39.156-.906.156t-.906-.156q-.375-.14-.64-.406-.25-.282-.391-.64-.125-.36-.125-.782zm0-13q0-.422.126-.797.14-.375.39-.656.266-.282.64-.438.391-.156.907-.156t.906.156q.407.156.672.438.266.281.39.656.141.375.141.797 0 .422-.14.781-.125.36-.39.64-.266.266-.673.423-.39.14-.906.14t-.906-.14q-.375-.157-.64-.422-.25-.282-.391-.64-.125-.36-.125-.782z"/><path fill="#db4437" d="M326.839 126.966q-.016 1.563-.86 2.782-.828 1.218-2.203 1.906.797.344 1.438.86.656.5 1.125 1.155.469.657.719 1.438.25.766.25 1.64 0 1.422-.532 2.532-.515 1.094-1.422 1.844-.89.75-2.093 1.14-1.203.39-2.578.39-1.391 0-2.61-.374-1.203-.39-2.11-1.14-.89-.75-1.405-1.86-.516-1.11-.516-2.531 0-.875.234-1.657.25-.78.703-1.422.47-.656 1.11-1.171.656-.516 1.453-.86-.688-.344-1.25-.828-.563-.484-.953-1.078-.375-.594-.594-1.297-.219-.703-.219-1.469 0-1.359.453-2.422.47-1.078 1.282-1.796.812-.735 1.922-1.125 1.125-.391 2.468-.391 1.313 0 2.438.39 1.14.391 1.969 1.126.828.718 1.296 1.796.485 1.063.485 2.422zm-2.188 9.72q0-.876-.297-1.595-.28-.734-.812-1.25-.531-.53-1.266-.812-.734-.297-1.61-.297-.905 0-1.64.297-.734.281-1.25.812-.515.516-.797 1.25-.265.72-.265 1.594 0 .906.265 1.625.282.703.797 1.188.516.484 1.25.75.75.25 1.657.25.875 0 1.609-.25.734-.266 1.25-.75.531-.485.812-1.188.297-.719.297-1.625zm-.484-9.673q0-.797-.266-1.453-.265-.656-.734-1.14-.453-.485-1.11-.735-.64-.266-1.406-.266-.781 0-1.406.25-.625.25-1.094.72-.453.468-.703 1.14-.25.656-.25 1.484 0 .813.25 1.469.25.64.719 1.11.469.468 1.094.718.64.25 1.422.25.75 0 1.39-.25.656-.25 1.11-.719.468-.468.718-1.125.266-.656.266-1.453z"/><path fill="#e67c73" d="M351.335 145.966q.875-.03 1.453-.484.594-.453.938-1.172.36-.703.5-1.594.156-.875.156-1.765v-2.422q0-1.703.781-3 .797-1.297 2.453-1.953-1.656-.672-2.453-1.969-.781-1.297-.781-3.016v-2.422q0-.875-.094-1.765-.094-.89-.406-1.594-.297-.719-.906-1.172-.594-.453-1.625-.484l.281-1.656q1 .03 1.766.328.78.281 1.375.765.609.485 1.03 1.141.423.64.688 1.375.282.734.407 1.516.14.78.14 1.546v2.422q0 2.078.985 3 .984.922 3 .922v2.078q-2.016.016-3 .953-.985.922-.985 2.985v2.422q0 1.156-.328 2.312-.312 1.172-.984 2.125-.657.969-1.672 1.578-1.016.625-2.422.641l-.297-1.64zm21.084-18.312q0-.422.125-.797.14-.375.39-.656.266-.282.641-.438.391-.156.907-.156.515 0 .906.156.406.156.672.438.265.281.39.656.141.375.141.797 0 .422-.14.781-.126.36-.391.64-.266.266-.672.423-.39.14-.906.14t-.907-.14q-.375-.157-.64-.422-.25-.282-.39-.64-.126-.36-.126-.782zm3.094 14.11q0 .671-.172 1.405-.156.735-.484 1.454-.313.734-.782 1.39-.453.656-1.046 1.172l-1.657-.906q.688-1 .97-2.14.296-1.126.296-2.345v-2.562h2.875v2.531z"/><path fill="#fbbc05" fill-opacity=".377" d="M632.787 85.515c0-18.392 14.91-33.302 33.303-33.302h222.844a33.302 33.302 0 0 1 33.302 33.302v133.206c0 18.393-14.91 33.303-33.302 33.303H666.09c-18.393 0-33.303-14.91-33.303-33.303z" fill-rule="evenodd"/><path stroke="#666" stroke-linejoin="round" stroke-linecap="butt" d="M632.787 85.515c0-18.392 14.91-33.302 33.303-33.302h222.844a33.302 33.302 0 0 1 33.302 33.302v133.206c0 18.393-14.91 33.303-33.302 33.303H666.09c-18.393 0-33.303-14.91-33.303-33.303z"/><path fill="#000" d="M655.463 87.179v4.86h-2.562V78.771h4.531q1.094 0 1.969.313.875.312 1.484.875.61.562.938 1.344.343.781.343 1.75 0 .89-.343 1.64-.328.75-.938 1.313-.61.547-1.484.86-.875.312-1.969.312h-1.969zm0-2.078h1.969q.547 0 .938-.157.406-.172.671-.453.282-.281.407-.656.14-.375.14-.766 0-.468-.14-.859-.125-.406-.407-.703-.265-.313-.671-.485-.391-.171-.938-.171h-1.969v4.25zm15.633-3.094q.578 0 1.063.078.484.062.797.156l-.375 2.531q-.5-.125-1.032-.171-.515-.063-1-.063-1.062 0-1.703.406-.64.407-.968 1.172v5.922h-2.532v-9.86h2.36l.125 1.61q.593-.828 1.437-1.297.844-.484 1.828-.484zm3.774 5.015q0-1.078.312-1.984.313-.922.907-1.594.593-.687 1.453-1.062.86-.375 1.969-.375 1.125 0 1.984.375.86.375 1.453 1.062.61.672.906 1.594.313.906.313 1.984v.188q0 1.078-.313 2-.297.922-.89 1.594-.594.672-1.469 1.047-.86.375-1.953.375-1.125 0-2-.375-.86-.375-1.453-1.047-.594-.672-.907-1.594-.312-.922-.312-2v-.188zm2.531.188q0 .625.11 1.172.125.531.375.937.265.407.671.641.407.234.985.234.547 0 .937-.234.407-.234.657-.64.25-.407.375-.938.125-.547.125-1.172v-.188q0-.609-.125-1.14-.125-.547-.375-.953-.25-.407-.657-.64-.39-.235-.968-.235-.563 0-.97.234-.39.234-.655.64-.25.407-.375.954-.11.531-.11 1.14v.188zm17.868-.016q0 1.078-.25 2-.25.922-.75 1.594-.485.672-1.203 1.063-.72.375-1.641.375-.797 0-1.406-.266-.594-.281-1.032-.781v4.656h-2.53V82.179h2.327l.094.968q.453-.546 1.078-.843.625-.297 1.453-.297.938 0 1.657.36.718.359 1.203 1.015.5.656.75 1.578t.25 2.047v.187zm-2.532-.187q0-.61-.125-1.156-.109-.547-.359-.938-.234-.406-.61-.625-.374-.234-.906-.234-.671 0-1.093.265-.422.266-.657.735v4.11q.235.468.657.75.422.28 1.11.28.53 0 .905-.234.391-.25.625-.656.235-.407.344-.953.11-.547.11-1.157v-.187zm9.65 5.219q-1.141 0-2.079-.375-.922-.375-1.594-1.016-.656-.64-1.015-1.516-.36-.875-.36-1.859v-.375q0-1.125.36-2.047.359-.937.984-1.61.64-.687 1.516-1.046.875-.375 1.906-.375 1.062 0 1.89.344.844.343 1.422.984.579.64.875 1.547.313.89.313 1.969v1.078h-6.688q.063.5.282.922.234.406.578.718.344.297.781.47.453.155.984.155.375 0 .735-.078.375-.078.703-.219.344-.14.64-.343.297-.219.516-.5l1.266 1.375q-.235.328-.625.656-.375.328-.89.578-.516.25-1.141.406-.625.157-1.36.157zm-.298-8.172q-.422 0-.781.156-.36.14-.625.422-.266.281-.453.672-.188.39-.266.875h4.14v-.203q-.015-.391-.155-.75-.125-.36-.391-.61-.25-.265-.625-.406-.36-.156-.844-.156zm13.79-2.047q.578 0 1.062.078.484.062.797.156l-.375 2.531q-.5-.125-1.031-.171-.516-.063-1-.063-1.063 0-1.703.406-.641.407-.97 1.172v5.922h-2.53v-9.86h2.359l.125 1.61q.594-.828 1.437-1.297.844-.484 1.829-.484zm8.773-2.235v2.407h3.672v1.875h-3.672v4.234q0 .531.11.89.125.36.343.579.235.219.563.312.328.078.719.078.297 0 .593-.015.313-.031.594-.063.281-.047.516-.093.25-.047.422-.094l.234 1.734q-.25.156-.61.281-.359.11-.765.172-.39.078-.828.11-.438.047-.844.047-.812 0-1.484-.204-.656-.218-1.125-.671-.469-.454-.735-1.141-.25-.703-.25-1.672v-4.484h-2.25v-1.875h2.25v-2.407h2.547zm10.743 8.125l.297 1.063 2.625-6.781h2.797l-5.016 11.328q-.156.375-.422.812-.25.438-.64.813-.391.375-.954.625-.562.265-1.328.265-.187 0-.344-.015-.156-.016-.296-.047-.141-.016-.282-.047-.14-.031-.312-.078l.312-1.922h.39q.25.016.392.016.296 0 .53-.188.235-.172.391-.39.172-.22.266-.407.11-.172.14-.172l.61-1.156-4.172-9.437h2.781l2.235 5.718zm18.86-5.718h5.375v7.797h2.672v2.062h-8.047v-2.062h2.812v-5.72h-2.812V82.18zm2.625-2.516q0-.297.109-.547.11-.25.297-.422.187-.187.453-.28.281-.11.61-.11.671 0 1.062.39.39.375.39.97 0 .593-.39.968t-1.063.375q-.328 0-.609-.094-.266-.11-.453-.281-.188-.188-.297-.438-.11-.25-.11-.53zm10.195 2.516l.156 1.375q.532-.75 1.282-1.14.765-.407 1.687-.407.735 0 1.36.219.625.218 1.062.703.453.468.703 1.218.25.75.25 1.829v6.062h-2.531v-6.031q0-.578-.14-.953-.126-.39-.376-.61-.234-.218-.578-.297-.344-.093-.781-.093-.656 0-1.11.265-.453.266-.734.72v7h-2.547v-9.86h2.297zm11.352 9.86v-7.985h-2.594v-1.875h2.594v-.532q0-.984.313-1.718.312-.75.875-1.266.578-.516 1.39-.766.828-.265 1.844-.265.312 0 .61.031.296.016.577.063.282.03.563.078.297.047.61.093l-.173 1.985q-.343-.063-.78-.11-.438-.062-1.032-.062-1.188 0-1.719.5-.531.5-.531 1.437v.532h3.547v1.875h-3.547v7.984h-2.547zm8.399-5.017q0-1.078.312-1.984.313-.922.907-1.594.593-.687 1.453-1.062.859-.375 1.968-.375 1.125 0 1.985.375.86.375 1.453 1.062.61.672.906 1.594.313.906.313 1.984v.188q0 1.078-.313 2-.297.922-.89 1.594-.594.672-1.47 1.047-.859.375-1.952.375-1.125 0-2-.375-.86-.375-1.453-1.047-.594-.672-.907-1.594-.312-.922-.312-2v-.188zm2.531.188q0 .625.11 1.172.124.531.374.937.266.407.672.641.407.234.985.234.547 0 .937-.234.406-.234.656-.64.25-.407.375-.938.125-.547.125-1.172v-.188q0-.609-.125-1.14-.125-.547-.375-.953-.25-.407-.656-.64-.39-.235-.969-.235-.562 0-.968.234-.391.234-.657.64-.25.407-.375.954-.109.531-.109 1.14v.188zm16.086-5.203q.578 0 1.063.078.484.062.797.156l-.375 2.531q-.5-.125-1.032-.171-.515-.063-1-.063-1.062 0-1.703.406-.64.407-.969 1.172v5.922h-2.53v-9.86h2.359l.125 1.61q.593-.828 1.437-1.297.844-.484 1.828-.484zm5.696.172l.078 1.203q.281-.64.765-1 .5-.375 1.22-.375 1.187 0 1.562 1.047.281-.5.734-.766.453-.281 1.094-.281.437 0 .828.172.39.156.672.515.297.36.453.922.156.563.156 1.39v7.032h-2.312v-7.047q0-.281-.063-.453-.047-.187-.156-.281-.094-.11-.234-.156-.125-.047-.266-.047-.266 0-.453.125-.172.125-.266.328v7.531h-2.234v-7.047q0-.281-.063-.469-.047-.187-.14-.28-.094-.095-.235-.141-.125-.047-.265-.047-.297 0-.469.172-.172.156-.281.437v7.375h-2.297v-9.86h2.172zm15.773 9.86q-.093-.188-.156-.423-.062-.234-.11-.5-.202.235-.484.438-.265.187-.609.343-.328.157-.734.235-.39.094-.86.094-.75 0-1.39-.22-.625-.218-1.078-.609-.454-.39-.72-.937-.25-.547-.25-1.188 0-1.546 1.157-2.39 1.172-.86 3.469-.86h1.422v-.593q0-.703-.469-1.11-.469-.422-1.344-.422-.765 0-1.125.329-.36.328-.36.89h-2.53q0-.625.28-1.187.282-.578.813-1 .532-.422 1.297-.672.766-.25 1.766-.25.89 0 1.656.219.781.218 1.344.64.562.422.875 1.078.328.657.328 1.5v4.235q0 .797.094 1.312.093.516.297.89v.157h-2.579zm-2.406-1.782q.375 0 .703-.078.328-.094.594-.235.266-.156.453-.343.203-.188.313-.375v-1.704h-1.297q-.594 0-1.016.125-.422.11-.687.313-.266.203-.39.5-.126.281-.126.625 0 .5.36.844.359.328 1.093.328zm12.102-10.485v2.407h3.672v1.875h-3.672v4.234q0 .531.11.89.124.36.343.579.235.219.563.312.328.078.718.078.297 0 .594-.015.313-.031.594-.063.281-.047.516-.093.25-.047.421-.094l.235 1.734q-.25.156-.61.281-.359.11-.765.172-.39.078-.828.11-.438.047-.844.047-.813 0-1.484-.204-.657-.218-1.125-.671-.47-.454-.735-1.141-.25-.703-.25-1.672v-4.484h-2.25v-1.875h2.25v-2.407h2.547zm7.211 2.407h5.375v7.797h2.672v2.062h-8.047v-2.062h2.813v-5.72h-2.813V82.18zm2.625-2.516q0-.297.11-.547.109-.25.296-.422.188-.187.454-.28.28-.11.609-.11.672 0 1.062.39.391.375.391.97 0 .593-.39.968-.391.375-1.063.375-.328 0-.61-.094-.265-.11-.453-.281-.187-.188-.296-.438-.11-.25-.11-.53zm7.555 7.36q0-1.079.313-1.985.312-.922.906-1.594.594-.687 1.453-1.062.86-.375 1.969-.375 1.125 0 1.984.375.86.375 1.453 1.062.61.672.907 1.594.312.906.312 1.984v.188q0 1.078-.312 2-.297.922-.891 1.594-.594.672-1.469 1.047-.86.375-1.953.375-1.125 0-2-.375-.86-.375-1.453-1.047-.594-.672-.906-1.594-.313-.922-.313-2v-.188zm2.531.187q0 .625.11 1.172.125.531.375.937.265.407.672.641.406.234.984.234.547 0 .938-.234.406-.234.656-.64.25-.407.375-.938.125-.547.125-1.172v-.188q0-.609-.125-1.14-.125-.547-.375-.953-.25-.407-.656-.64-.391-.235-.97-.235-.562 0-.968.234-.39.234-.656.64-.25.407-.375.954-.11.531-.11 1.14v.188zm11.305-5.031l.157 1.375q.53-.75 1.28-1.14.767-.407 1.688-.407.735 0 1.36.219.625.218 1.062.703.453.468.703 1.218.25.75.25 1.829v6.062h-2.53v-6.031q0-.578-.141-.953-.125-.39-.375-.61-.235-.218-.579-.297-.343-.093-.78-.093-.657 0-1.11.265-.453.266-.735.72v7h-2.546v-9.86h2.296z"/><path fill="#673ab7" d="M661.76 138.179q-.015.703-.14 1.437-.11.719-.344 1.39-.235.673-.61 1.266-.359.579-.875 1.016-.5.438-1.171.688-.657.25-1.47.25-.827 0-1.484-.25-.656-.25-1.171-.688-.516-.437-.891-1.031-.375-.594-.61-1.266-.234-.672-.359-1.39-.125-.72-.125-1.422v-1.516q0-.719.11-1.437.125-.72.359-1.391.25-.688.61-1.266.374-.593.874-1.03.516-.438 1.172-.688.672-.266 1.485-.266.828 0 1.484.266.672.25 1.172.687.515.438.875 1.031.375.578.61 1.25.25.672.359 1.407.125.718.14 1.437v1.516zm-1.672-1.532q-.015-.484-.078-1-.047-.515-.187-1.015-.125-.5-.344-.953-.219-.469-.547-.813-.328-.36-.781-.562-.438-.203-1.031-.203-.579 0-1.032.203-.437.203-.765.562-.328.344-.547.813-.219.453-.36.968-.125.5-.187 1.016-.063.516-.063.984v1.532q0 .453.063.984.062.516.203 1.016.14.5.36.968.218.47.546.829.328.343.766.562.453.203 1.047.203.578 0 1.031-.203.453-.219.781-.562.328-.36.532-.813.218-.469.343-.969.14-.515.188-1.03.047-.517.062-.985v-1.532zm6.743 7.391v-8.547h-2.703v-1.312h2.703v-.688q0-.953.28-1.656.282-.719.782-1.203.516-.485 1.219-.735.719-.25 1.594-.25.593 0 1.156.11.578.094 1.172.25l-.188 1.39q-.375-.125-.875-.218-.5-.094-1.062-.094-1.188.016-1.781.61-.594.577-.594 1.796v.688h3.797v1.312h-3.797v8.547h-1.703zm11.204 0v-8.547h-2.703v-1.312h2.703v-.688q0-.953.282-1.656.28-.719.78-1.203.517-.485 1.22-.735.718-.25 1.593-.25.594 0 1.157.11.578.094 1.172.25l-.188 1.39q-.375-.125-.875-.218-.5-.094-1.062-.094-1.188.016-1.782.61-.593.577-.593 1.796v.688h3.796v1.312h-3.796v8.547h-1.704zm15.252-2.61q0-.312-.125-.546-.125-.235-.406-.438-.282-.203-.75-.375-.453-.172-1.141-.297-.86-.187-1.562-.421-.688-.25-1.188-.594-.484-.344-.766-.797-.265-.469-.265-1.078 0-.594.281-1.11.281-.53.781-.921.516-.391 1.219-.61.703-.234 1.563-.234.906 0 1.625.234.734.235 1.25.656.515.407.78.97.282.562.282 1.218h-1.687q0-.328-.172-.625-.157-.313-.453-.547-.282-.234-.704-.375-.406-.156-.921-.156-.547 0-.954.125-.406.11-.671.312-.266.203-.407.47-.14.265-.14.546t.109.516q.11.234.375.421.281.172.734.329.454.14 1.141.265.906.203 1.625.453t1.203.61q.5.343.75.812.266.453.266 1.063 0 .656-.297 1.203-.281.531-.813.922-.53.375-1.265.593-.735.204-1.61.204-1.015 0-1.796-.266-.782-.281-1.329-.719-.53-.437-.828-1.015-.281-.594-.281-1.22h1.688q.03.516.265.876.25.36.61.578.359.219.796.312.438.079.875.079 1.063 0 1.672-.391.625-.39.64-1.031zm8.992 2.798q-1.03 0-1.906-.36-.875-.36-1.5-.984-.61-.64-.953-1.516-.344-.875-.344-1.906v-.39q0-1.188.375-2.126.39-.953 1.016-1.593.64-.657 1.437-1 .813-.344 1.657-.344 1.062 0 1.859.375.797.36 1.328 1.015.531.641.781 1.532.266.875.266 1.906v.75h-7.031q.015.687.25 1.281.234.578.64 1.031.407.438.97.704.562.25 1.25.25.905 0 1.593-.36.703-.375 1.172-.969l1.031.797q-.25.375-.625.72-.36.327-.844.593-.484.265-1.094.422-.609.172-1.328.172zm-.218-8.844q-.516 0-.97.187-.452.188-.812.547-.359.36-.625.89-.25.516-.343 1.204h5.296v-.125q-.015-.5-.187-.984-.156-.485-.469-.86-.297-.39-.765-.625-.47-.234-1.125-.234zm11.055-3.594v2.39h3.75v1.313h-3.75v5.344q0 .578.14.953t.39.594q.266.219.595.312.343.094.718.094.266 0 .547-.031.297-.031.578-.078.282-.047.516-.094.25-.047.406-.094l.235 1.203q-.22.125-.516.22-.297.093-.656.155-.344.078-.75.11-.39.047-.782.047-.656 0-1.234-.188-.562-.187-.984-.594-.422-.406-.672-1.047-.235-.64-.235-1.562v-5.344h-2.578v-1.312h2.578v-2.39h1.704z"/><path fill="#e67c73" d="M723.249 142.944q0-.265.078-.5.094-.25.25-.422.172-.187.422-.28.25-.095.578-.095.328 0 .578.094.25.094.406.281.172.172.25.422.094.235.094.5 0 .266-.094.5-.078.235-.25.407-.156.171-.406.265t-.578.094q-.328 0-.578-.094-.25-.094-.422-.265-.156-.172-.25-.407-.078-.234-.078-.5zm0-8q0-.265.078-.5.094-.25.25-.422.172-.187.422-.28.25-.095.578-.095.328 0 .578.094.25.094.406.281.172.172.25.422.094.235.094.5 0 .266-.094.5-.078.235-.25.407-.156.171-.406.265t-.578.094q-.328 0-.578-.094-.25-.094-.422-.265-.156-.172-.25-.407-.078-.234-.078-.5z"/><path fill="#db4437" d="M751.03 138.96q0 1.266-.296 2.25-.282.984-.829 1.656-.546.656-1.343 1.016-.782.344-1.813.344-1 0-1.797-.344-.797-.36-1.36-1.016-.562-.672-.858-1.656-.282-.984-.282-2.25v-3.11q0-1.265.282-2.234.296-.984.843-1.656.547-.672 1.344-1.016.797-.359 1.813-.359 1.015 0 1.812.36.797.343 1.344 1.015.562.672.844 1.656.296.969.296 2.235v3.109zm-6.89-.328l5.172-3.969q-.157-1.312-.782-2-.625-.687-1.796-.687-1.329 0-1.97.89-.624.89-.624 2.625v3.14zm5.203-2.36l-5.156 3.954q.156 1.28.78 1.953.642.672 1.782.672 1.344 0 1.969-.907.625-.906.625-2.625v-3.047z"/><path fill="#e67c73" d="M659.026 156.257h-2.016v15.234h2.016v1.39h-3.61v-18h3.61v1.376zm11.195 0h-2.015v15.234h2.015v1.39h-3.61v-18h3.61v1.376z"/><path fill="#673ab7" d="M682.089 166.444l1.015-9.672h1.594l-1.61 13.266h-1.718l-1.703-10-1.719 10h-1.734l-1.61-13.266h1.594l1.016 9.672 1.703-9.672h1.469l1.703 9.672zm11.086-6.437q.234 0 .484.015.266 0 .485.032.234.031.422.078.203.047.343.11l-.234 1.64q-.484-.11-.938-.156-.437-.047-.921-.047-1.188 0-1.922.547-.735.53-1.078 1.484v6.328h-1.688v-9.86h1.594l.094 1.563q.593-.797 1.437-1.265.844-.47 1.922-.47zm4.992.172h5.047v8.406h3.219v1.453h-8.266v-1.453h3.36v-6.938h-3.36v-1.468zm3.141-2.578q0-.422.25-.704.25-.296.766-.296.5 0 .75.296.25.282.25.704 0 .406-.25.687-.25.266-.75.266-.516 0-.766-.266-.25-.281-.25-.687zm11.79.187v2.39h3.75v1.313h-3.75v5.344q0 .578.14.953t.39.594q.266.219.594.312.344.094.72.094.265 0 .546-.031.297-.031.578-.078.281-.047.516-.094.25-.047.406-.094l.234 1.203q-.218.125-.515.22-.297.093-.657.155-.343.078-.75.11-.39.047-.78.047-.657 0-1.235-.188-.563-.187-.985-.594-.421-.406-.671-1.047-.235-.64-.235-1.562v-5.344h-2.578v-1.312h2.578v-2.39h1.703zm13.68 12.25q-.094-.187-.157-.469-.062-.297-.094-.609-.25.266-.562.5-.313.219-.703.39-.375.172-.813.266-.422.11-.89.11-.797 0-1.438-.22-.625-.234-1.062-.624-.438-.39-.688-.922-.234-.531-.234-1.156 0-.813.312-1.422.328-.61.922-1.016.594-.406 1.422-.594.844-.203 1.875-.203h1.828v-.78q0-.454-.172-.798-.156-.36-.453-.61-.297-.25-.734-.39-.422-.14-.97-.14-.5 0-.905.14-.391.125-.672.344-.266.203-.422.484-.14.282-.14.594h-1.688q0-.531.265-1.047.282-.531.782-.937.5-.422 1.218-.672.735-.25 1.657-.25.843 0 1.562.203.719.203 1.235.625.53.406.828 1.031.297.61.297 1.438v4.578q0 .5.093 1.047.094.547.25.968v.141h-1.75zm-2.985-1.281q.5 0 .922-.125.437-.14.781-.344.344-.203.594-.469.265-.28.406-.562v-2h-1.562q-1.47 0-2.297.437-.813.438-.813 1.375 0 .36.125.672.125.313.36.531.25.22.625.36.375.125.859.125zm16.055-3.531q0 1.046-.266 1.968-.25.907-.75 1.594-.484.672-1.203 1.063-.719.375-1.656.375-.953 0-1.656-.329-.688-.343-1.188-.984l-.078 1.125h-1.547v-14h1.688v5.203q.484-.61 1.156-.922.687-.312 1.61-.312.937 0 1.656.375.734.36 1.218 1.031.5.656.75 1.594.266.922.266 2.015v.204zm-1.688-.204q0-.718-.14-1.359-.14-.656-.453-1.156-.313-.5-.813-.781-.5-.297-1.219-.297-.437 0-.812.125-.36.11-.656.312-.282.203-.5.485-.22.265-.375.593v4.313q.156.328.375.61.234.28.515.5.297.202.657.312.375.11.812.11.688 0 1.188-.282.5-.297.812-.781.313-.5.453-1.141.156-.64.156-1.36v-.203zm4.79-8.984h5.047v12.547h3.218v1.453h-8.265v-1.453h3.36v-11.078h-3.36v-1.469zm15.289 14.188q-1.031 0-1.906-.36t-1.5-.984q-.61-.64-.953-1.516-.344-.875-.344-1.906v-.39q0-1.188.375-2.126.39-.953 1.016-1.593.64-.657 1.437-1 .813-.344 1.656-.344 1.063 0 1.86.375.797.36 1.328 1.015.531.641.781 1.532.266.875.266 1.906v.75h-7.032q.016.687.25 1.281.235.578.641 1.031.406.438.969.704.562.25 1.25.25.906 0 1.594-.36.703-.375 1.171-.969l1.032.797q-.25.375-.625.72-.36.327-.844.593-.484.265-1.094.422-.61.172-1.328.172zm-.219-8.844q-.515 0-.968.187-.454.188-.813.547-.36.36-.625.89-.25.516-.344 1.204h5.297v-.125q-.015-.5-.187-.984-.157-.485-.47-.86-.296-.39-.765-.625-.468-.234-1.125-.234z"/><path fill="#e67c73" d="M767.185 154.882h3.625v18h-3.625v-1.39h2.03v-15.235h-2.03v-1.375zm11.195 0h3.625v18h-3.625v-1.39h2.031v-15.235h-2.03v-1.375zm12.024 14.062q0-.265.078-.5.094-.25.25-.422.172-.187.422-.28.25-.095.578-.095.328 0 .578.094.25.094.406.281.172.172.25.422.094.235.094.5 0 .266-.094.5-.078.235-.25.407-.156.171-.406.265t-.578.094q-.328 0-.578-.094-.25-.094-.422-.265-.156-.172-.25-.407-.078-.234-.078-.5zm0-8q0-.265.078-.5.094-.25.25-.422.172-.187.422-.28.25-.095.578-.095.328 0 .578.094.25.094.406.281.172.172.25.422.094.235.094.5 0 .266-.094.5-.078.235-.25.407-.156.171-.406.265t-.578.094q-.328 0-.578-.094-.25-.094-.422-.265-.156-.172-.25-.407-.078-.234-.078-.5z"/><path fill="#4285f4" d="M813.857 157.788v2.39h3.75v1.313h-3.75v5.344q0 .578.141.953.14.375.39.594.266.219.594.312.344.094.72.094.265 0 .546-.031.297-.031.578-.078.281-.047.516-.094.25-.047.406-.094l.234 1.203q-.218.125-.515.22-.297.093-.656.155-.344.078-.75.11-.391.047-.782.047-.656 0-1.234-.188-.563-.187-.984-.594-.422-.406-.672-1.047-.235-.64-.235-1.562v-5.344h-2.578v-1.312h2.578v-2.39h1.703zm13.665 2.219q.234 0 .484.015.266 0 .485.032.234.031.421.078.204.047.344.11l-.234 1.64q-.485-.11-.938-.156-.437-.047-.922-.047-1.187 0-1.921.547-.735.53-1.079 1.484v6.328h-1.687v-9.86h1.594l.093 1.563q.594-.797 1.438-1.265.844-.47 1.922-.47zm11.133 8.672q-.5.734-1.234 1.14-.735.407-1.704.407-.78 0-1.406-.235-.625-.25-1.078-.765-.437-.516-.687-1.297-.235-.782-.235-1.89v-5.86H834v5.875q0 .812.125 1.343.125.516.375.829.265.312.625.453.375.125.859.125 1.031 0 1.656-.422.64-.422.953-1.125v-7.078h1.688v9.86h-1.531l-.094-1.36zm9.149 1.547q-1.032 0-1.907-.36t-1.5-.984q-.609-.64-.953-1.516-.344-.875-.344-1.906v-.39q0-1.188.375-2.126.391-.953 1.016-1.593.64-.657 1.438-1 .812-.344 1.656-.344 1.062 0 1.86.375.796.36 1.327 1.015.532.641.782 1.532.265.875.265 1.906v.75h-7.031q.016.687.25 1.281.234.578.64 1.031.407.438.97.704.562.25 1.25.25.906 0 1.593-.36.703-.375 1.172-.969l1.031.797q-.25.375-.625.72-.36.327-.844.593-.484.265-1.093.422-.61.172-1.328.172zm-.22-8.844q-.515 0-.968.187-.453.188-.812.547-.36.36-.625.89-.25.516-.344 1.204h5.297v-.125q-.016-.5-.188-.984-.156-.485-.469-.86-.296-.39-.765-.625-.469-.234-1.125-.234z"/><path fill="#e67c73" d="M659.026 182.257h-2.016v15.234h2.016v1.39h-3.61v-18h3.61v1.376zm11.195 0h-2.015v15.234h2.015v1.39h-3.61v-18h3.61v1.376z"/><path fill="#673ab7" d="M682.808 189.913h-5.532v4.688h6.453v1.437h-8.14v-13.266h8.062v1.438h-6.375v4.266h5.532v1.437zm5.414-3.734l.125 1.453q.531-.766 1.312-1.188.782-.437 1.75-.437.782 0 1.407.219.64.218 1.078.687.453.453.687 1.172.25.719.25 1.687v6.266h-1.687v-6.219q0-.656-.157-1.109-.14-.453-.421-.734-.282-.297-.704-.422-.406-.125-.953-.125-.843 0-1.484.422-.64.421-1.031 1.125v7.062h-1.688v-9.86h1.516zm16.086 8.5q-.5.734-1.234 1.14-.735.407-1.703.407-.782 0-1.407-.235-.625-.25-1.078-.765-.437-.516-.687-1.297-.235-.782-.235-1.89v-5.86h1.688v5.875q0 .812.125 1.343.125.516.375.829.265.312.625.453.375.125.86.125 1.03 0 1.655-.422.641-.422.954-1.125v-7.078h1.687v9.86h-1.531l-.094-1.36zm5.57-8.5l.047.937q.297-.531.782-.812.5-.297 1.187-.297 1.36 0 1.813 1.047.297-.469.765-.75.485-.297 1.157-.297 1.093 0 1.671.672.579.656.579 2v7.36h-1.594v-7.376q0-1.25-1.14-1.234-.298 0-.516.093-.22.079-.375.22-.141.14-.22.327-.077.188-.109.375v7.594h-1.609v-7.39q0-.594-.266-.907-.265-.328-.828-.312-.53 0-.828.218-.281.204-.422.547v7.844h-1.609v-9.86h1.516zm14.774 10.047q-1.031 0-1.906-.36t-1.5-.984q-.61-.64-.953-1.516-.344-.875-.344-1.906v-.39q0-1.188.375-2.126.39-.953 1.016-1.593.64-.657 1.437-1 .813-.344 1.657-.344 1.062 0 1.859.375.797.36 1.328 1.015.531.641.781 1.532.266.875.266 1.906v.75h-7.031q.015.687.25 1.281.234.578.64 1.031.407.438.969.704.563.25 1.25.25.906 0 1.594-.36.703-.375 1.172-.969l1.03.797q-.25.375-.624.72-.36.327-.844.593-.484.265-1.094.422-.609.172-1.328.172zm-.218-8.844q-.516 0-.97.187-.452.188-.812.547-.36.36-.625.89-.25.516-.343 1.204h5.296v-.125q-.015-.5-.187-.984-.156-.485-.469-.86-.297-.39-.765-.625-.47-.234-1.125-.234zm13.523-1.375q.235 0 .485.015.265 0 .484.032.234.031.422.078.203.047.344.11l-.235 1.64q-.484-.11-.937-.156-.438-.047-.922-.047-1.188 0-1.922.547-.734.53-1.078 1.484v6.328h-1.688v-9.86h1.594l.094 1.563q.594-.797 1.437-1.265.844-.47 1.922-.47zm11.211 10.031q-.093-.187-.156-.469-.062-.297-.094-.609-.25.266-.562.5-.313.219-.703.39-.375.172-.813.266-.422.11-.89.11-.797 0-1.438-.22-.625-.234-1.062-.624-.438-.39-.688-.922-.234-.531-.234-1.156 0-.813.312-1.422.328-.61.922-1.016.594-.406 1.422-.594.844-.203 1.875-.203h1.828v-.78q0-.454-.172-.798-.156-.36-.453-.61-.297-.25-.734-.39-.422-.14-.969-.14-.5 0-.906.14-.39.125-.672.344-.266.203-.422.484-.14.282-.14.594h-1.688q0-.531.266-1.047.28-.531.78-.937.5-.422 1.22-.672.734-.25 1.656-.25.844 0 1.562.203.72.203 1.235.625.531.406.828 1.031.297.61.297 1.438v4.578q0 .5.093 1.047.094.547.25.968v.141h-1.75zm-2.984-1.281q.5 0 .922-.125.437-.14.781-.344.344-.203.594-.469.266-.28.406-.562v-2h-1.562q-1.469 0-2.297.437-.813.438-.813 1.375 0 .36.125.672.125.313.36.531.25.22.625.36.375.125.86.125zm16.055-3.531q0 1.046-.266 1.968-.25.907-.75 1.594-.484.672-1.203 1.063-.718.375-1.656.375-.953 0-1.656-.329-.688-.343-1.188-.984l-.078 1.125h-1.547v-14h1.688v5.203q.484-.61 1.156-.922.688-.312 1.61-.312.937 0 1.656.375.734.36 1.218 1.031.5.656.75 1.594.266.922.266 2.015v.204zm-1.687-.204q0-.718-.141-1.359-.14-.656-.453-1.156-.313-.5-.813-.781-.5-.297-1.218-.297-.438 0-.813.125-.36.11-.656.312-.281.203-.5.485-.219.265-.375.593v4.313q.156.328.375.61.234.28.515.5.297.202.657.312.375.11.812.11.688 0 1.188-.282.5-.297.812-.781.313-.5.453-1.141.157-.64.157-1.36v-.203zm4.789-8.984h5.047v12.547h3.218v1.453h-8.265v-1.453h3.36v-11.078h-3.36v-1.469zm15.29 14.188q-1.032 0-1.907-.36t-1.5-.984q-.61-.64-.953-1.516-.344-.875-.344-1.906v-.39q0-1.188.375-2.126.39-.953 1.016-1.593.64-.657 1.437-1 .813-.344 1.656-.344 1.063 0 1.86.375.797.36 1.328 1.015.531.641.781 1.532.266.875.266 1.906v.75h-7.031q.015.687.25 1.281.234.578.64 1.031.406.438.969.704.562.25 1.25.25.906 0 1.594-.36.703-.375 1.172-.969l1.03.797q-.25.375-.624.72-.36.327-.844.593-.484.265-1.094.422-.61.172-1.328.172zm-.22-8.844q-.515 0-.968.187-.453.188-.813.547-.36.36-.625.89-.25.516-.344 1.204h5.297v-.125q-.015-.5-.187-.984-.156-.485-.469-.86-.297-.39-.766-.625-.468-.234-1.125-.234z"/><path fill="#e67c73" d="M789.576 180.882h3.625v18h-3.625v-1.39h2.031v-15.235h-2.031v-1.375zm11.195 0h3.625v18h-3.625v-1.39h2.032v-15.235h-2.032v-1.375zm12.024 14.062q0-.265.078-.5.094-.25.25-.422.172-.187.422-.28.25-.095.578-.095.328 0 .578.094.25.094.406.281.172.172.25.422.094.235.094.5 0 .266-.094.5-.078.235-.25.407-.156.171-.406.265t-.578.094q-.328 0-.578-.094-.25-.094-.422-.265-.156-.172-.25-.407-.078-.234-.078-.5zm0-8q0-.265.078-.5.094-.25.25-.422.172-.187.422-.28.25-.095.578-.095.328 0 .578.094.25.094.406.281.172.172.25.422.094.235.094.5 0 .266-.094.5-.078.235-.25.407-.156.171-.406.265t-.578.094q-.328 0-.578-.094-.25-.094-.422-.265-.156-.172-.25-.407-.078-.234-.078-.5z"/><path fill="#4285f4" d="M836.249 183.788v2.39h3.75v1.313h-3.75v5.344q0 .578.14.953t.39.594q.267.219.595.312.343.094.718.094.266 0 .547-.031.297-.031.578-.078.282-.047.516-.094.25-.047.406-.094l.235 1.203q-.22.125-.516.22-.297.093-.656.155-.344.078-.75.11-.39.047-.781.047-.657 0-1.235-.188-.562-.187-.984-.594-.422-.406-.672-1.047-.234-.64-.234-1.562v-5.344h-2.579v-1.312h2.579v-2.39h1.703zm13.664 2.219q.234 0 .484.015.266 0 .485.032.234.031.422.078.203.047.343.11l-.234 1.64q-.484-.11-.938-.156-.437-.047-.921-.047-1.188 0-1.922.547-.735.53-1.078 1.484v6.328h-1.688v-9.86h1.594l.094 1.563q.593-.797 1.437-1.265.844-.47 1.922-.47zm11.133 8.672q-.5.734-1.234 1.14-.735.407-1.703.407-.782 0-1.407-.235-.625-.25-1.078-.765-.437-.516-.687-1.297-.235-.782-.235-1.89v-5.86h1.688v5.875q0 .812.125 1.343.125.516.375.829.265.312.625.453.375.125.86.125 1.03 0 1.655-.422.641-.422.954-1.125v-7.078h1.687v9.86h-1.531l-.094-1.36zm9.149 1.547q-1.031 0-1.906-.36t-1.5-.984q-.61-.64-.954-1.516-.343-.875-.343-1.906v-.39q0-1.188.375-2.126.39-.953 1.015-1.593.64-.657 1.438-1 .812-.344 1.656-.344 1.063 0 1.86.375.796.36 1.328 1.015.53.641.78 1.532.266.875.266 1.906v.75h-7.03q.015.687.25 1.281.234.578.64 1.031.406.438.969.704.562.25 1.25.25.906 0 1.593-.36.703-.375 1.172-.969l1.031.797q-.25.375-.625.72-.359.327-.843.593-.485.265-1.094.422-.61.172-1.328.172zm-.219-8.844q-.516 0-.969.187-.453.188-.812.547-.36.36-.625.89-.25.516-.344 1.204h5.297v-.125q-.016-.5-.188-.984-.156-.485-.468-.86-.297-.39-.766-.625-.469-.234-1.125-.234z"/><path fill="#e67c73" d="M659.026 208.257h-2.016v15.234h2.016v1.39h-3.61v-18h3.61v1.376zm11.195 0h-2.015v15.234h2.015v1.39h-3.61v-18h3.61v1.376z"/><path fill="#673ab7" d="M684.104 218.054q-.109.922-.468 1.687-.36.766-.938 1.328-.562.547-1.344.86-.765.297-1.734.297-.812 0-1.484-.235-.672-.234-1.203-.64-.516-.422-.891-.97-.375-.562-.625-1.218-.25-.656-.375-1.375t-.14-1.453v-1.844q.015-.75.14-1.469.125-.718.375-1.375.25-.656.625-1.203.375-.562.89-.968.532-.422 1.188-.657.672-.234 1.5-.234 1 0 1.781.312.782.313 1.344.875.563.547.906 1.344.344.781.453 1.719h-1.687q-.078-.594-.281-1.11-.203-.53-.547-.921-.328-.39-.813-.61-.484-.218-1.156-.218-.594 0-1.062.203-.454.187-.797.531-.328.328-.547.781-.219.438-.36.938-.14.5-.203 1.031-.047.516-.047 1.016v1.859q0 .5.047 1.031.063.516.203 1.016.141.5.36.953.219.437.547.781.343.344.797.547.453.188 1.062.188.672 0 1.156-.204.485-.218.813-.593.344-.375.547-.89.203-.517.28-1.11h1.688zm2.134-1.032q0-1.062.312-1.984.313-.922.89-1.594.579-.672 1.407-1.047.828-.39 1.86-.39 1.046 0 1.874.39.844.375 1.422 1.047.578.672.89 1.594.313.922.313 1.984v.204q0 1.062-.312 1.968-.313.907-.89 1.594-.579.672-1.407 1.063-.828.375-1.86.375-1.046 0-1.89-.375-.828-.391-1.406-1.063-.578-.687-.891-1.594-.312-.906-.312-1.968v-.204zm1.687.204q0 .718.172 1.39.172.656.516 1.156.359.5.89.797.531.282 1.235.282.687 0 1.203-.282.53-.297.875-.797.359-.5.53-1.156.173-.672.173-1.39v-.204q0-.718-.188-1.375-.172-.671-.531-1.171-.344-.5-.875-.797-.516-.297-1.219-.297-.703 0-1.218.297-.516.297-.875.797-.344.5-.516 1.171-.172.657-.172 1.375v.204zm11.492-5.047l.125 1.453q.532-.766 1.313-1.188.781-.437 1.75-.437.781 0 1.406.219.64.218 1.078.687.453.453.688 1.172.25.719.25 1.687v6.266h-1.688v-6.219q0-.656-.156-1.109-.14-.453-.422-.734-.281-.297-.703-.422-.406-.125-.953-.125-.844 0-1.484.422-.641.421-1.032 1.125v7.062h-1.687v-9.86h1.515zm12.196 9.86v-8.548h-2.703v-1.312h2.703v-.688q0-.953.281-1.656.282-.719.782-1.203.515-.485 1.218-.735.719-.25 1.594-.25.594 0 1.156.11.578.094 1.172.25l-.187 1.39q-.375-.125-.875-.218-.5-.094-1.063-.094-1.187.016-1.781.61-.594.577-.594 1.796v.688h3.797v1.312h-3.797v8.547h-1.703zm8.955-9.86h5.047v8.406h3.218v1.453h-8.265v-1.453h3.36v-6.938h-3.36v-1.468zm3.14-2.578q0-.422.25-.704.25-.296.766-.296.5 0 .75.296.25.282.25.704 0 .406-.25.687-.25.266-.75.266-.516 0-.766-.266-.25-.281-.25-.687zm7.493 7.421q0-1.093.265-2.015.266-.938.766-1.594.516-.672 1.25-1.031.734-.375 1.64-.375.923 0 1.61.328.688.312 1.172.922l.078-1.078h1.531v9.656q0 .969-.312 1.719-.297.765-.86 1.281-.546.531-1.312.797-.766.281-1.688.281-.39 0-.89-.094-.485-.078-.985-.28-.5-.188-.968-.517-.47-.328-.813-.812l.875-1q.313.375.64.625.329.266.657.422.344.156.672.219.344.062.687.062.594 0 1.079-.172.484-.172.828-.5.343-.328.515-.828.188-.484.188-1.125v-.844q-.485.563-1.156.86-.672.297-1.563.297-.89 0-1.625-.375-.734-.391-1.234-1.063-.5-.687-.782-1.594-.265-.922-.265-1.968v-.204zm1.672.204q0 .718.156 1.359.156.64.469 1.14.328.485.828.782.5.281 1.203.281.437 0 .781-.094.36-.109.64-.297.282-.203.5-.468.22-.266.376-.578v-4.516q-.156-.313-.375-.563-.219-.265-.516-.453-.281-.187-.625-.28-.344-.11-.765-.11-.704 0-1.22.297-.5.28-.827.78-.313.5-.47 1.157-.155.64-.155 1.36v.203zm16.226 3.453q-.5.734-1.234 1.14-.734.407-1.703.407-.781 0-1.406-.235-.625-.25-1.078-.765-.438-.516-.688-1.297-.234-.782-.234-1.89v-5.86h1.687v5.875q0 .812.125 1.343.125.516.375.829.266.312.625.453.375.125.86.125 1.03 0 1.656-.422.64-.422.953-1.125v-7.078h1.687v9.86h-1.53l-.095-1.36zm11.259-8.672q.234 0 .484.015.266 0 .484.032.235.031.422.078.203.047.344.11l-.234 1.64q-.485-.11-.938-.156-.437-.047-.922-.047-1.187 0-1.922.547-.734.53-1.078 1.484v6.328h-1.687v-9.86h1.593l.094 1.563q.594-.797 1.438-1.265.843-.47 1.922-.47zm11.21 10.031q-.093-.187-.155-.469-.063-.297-.094-.609-.25.266-.563.5-.312.219-.703.39-.375.172-.812.266-.422.11-.891.11-.797 0-1.437-.22-.625-.234-1.063-.624-.437-.39-.687-.922-.235-.531-.235-1.156 0-.813.313-1.422.328-.61.922-1.016.593-.406 1.421-.594.844-.203 1.875-.203h1.829v-.78q0-.454-.172-.798-.157-.36-.453-.61-.297-.25-.735-.39-.422-.14-.969-.14-.5 0-.906.14-.39.125-.672.344-.265.203-.422.484-.14.282-.14.594h-1.688q0-.531.266-1.047.281-.531.781-.937.5-.422 1.219-.672.734-.25 1.656-.25.844 0 1.563.203.718.203 1.234.625.531.406.828 1.031.297.61.297 1.438v4.578q0 .5.094 1.047.094.547.25.968v.141h-1.75zm-2.984-1.281q.5 0 .922-.125.438-.14.782-.344.343-.203.593-.469.266-.28.407-.562v-2h-1.563q-1.469 0-2.297.437-.812.438-.812 1.375 0 .36.125.672.125.313.359.531.25.22.625.36.375.125.86.125zm16.055-3.531q0 1.046-.265 1.968-.25.907-.75 1.594-.485.672-1.203 1.063-.72.375-1.657.375-.953 0-1.656-.329-.687-.343-1.187-.984l-.079 1.125h-1.546v-14h1.687v5.203q.484-.61 1.156-.922.688-.312 1.61-.312.937 0 1.656.375.734.36 1.219 1.031.5.656.75 1.594.265.922.265 2.015v.204zm-1.687-.204q0-.718-.14-1.359-.141-.656-.454-1.156-.312-.5-.812-.781-.5-.297-1.22-.297-.437 0-.812.125-.36.11-.656.312-.281.203-.5.485-.219.265-.375.593v4.313q.156.328.375.61.234.28.516.5.297.202.656.312.375.11.812.11.688 0 1.188-.282.5-.297.812-.781.313-.5.454-1.141.156-.64.156-1.36v-.203zm4.79-8.984h5.046v12.547h3.219v1.453h-8.266v-1.453h3.36v-11.078h-3.36v-1.469zm15.288 14.188q-1.03 0-1.906-.36-.875-.36-1.5-.984-.61-.64-.953-1.516-.344-.875-.344-1.906v-.39q0-1.188.375-2.126.39-.953 1.016-1.593.64-.657 1.437-1 .813-.344 1.657-.344 1.062 0 1.86.375.796.36 1.327 1.015.531.641.781 1.532.266.875.266 1.906v.75h-7.031q.015.687.25 1.281.234.578.64 1.031.407.438.97.704.562.25 1.25.25.905 0 1.593-.36.703-.375 1.172-.969l1.031.797q-.25.375-.625.72-.36.327-.844.593-.484.265-1.093.422-.61.172-1.329.172zm-.218-8.844q-.516 0-.97.187-.452.188-.812.547-.359.36-.625.89-.25.516-.343 1.204h5.297v-.125q-.016-.5-.188-.984-.156-.485-.469-.86-.297-.39-.765-.625-.47-.234-1.125-.234z"/><path fill="#e67c73" d="M811.976 206.882h3.625v18h-3.625v-1.39h2.031v-15.235h-2.031v-1.375zm11.196 0h3.625v18h-3.625v-1.39h2.03v-15.235h-2.03v-1.375zm12.023 14.062q0-.265.078-.5.094-.25.25-.422.172-.187.422-.28.25-.095.578-.095.328 0 .578.094.25.094.407.281.172.172.25.422.093.235.093.5 0 .266-.093.5-.078.235-.25.407-.157.171-.407.265-.25.094-.578.094-.328 0-.578-.094-.25-.094-.422-.265-.156-.172-.25-.407-.078-.234-.078-.5zm0-8q0-.265.078-.5.094-.25.25-.422.172-.187.422-.28.25-.095.578-.095.328 0 .578.094.25.094.407.281.172.172.25.422.093.235.093.5 0 .266-.093.5-.078.235-.25.407-.157.171-.407.265-.25.094-.578.094-.328 0-.578-.094-.25-.094-.422-.265-.156-.172-.25-.407-.078-.234-.078-.5z"/><path fill="#4285f4" d="M858.649 209.788v2.39h3.75v1.313h-3.75v5.344q0 .578.14.953.141.375.391.594.266.219.594.312.344.094.719.094.265 0 .547-.031.296-.031.578-.078.28-.047.515-.094.25-.047.407-.094l.234 1.203q-.219.125-.516.22-.297.093-.656.155-.344.078-.75.11-.39.047-.781.047-.656 0-1.235-.188-.562-.187-.984-.594-.422-.406-.672-1.047-.234-.64-.234-1.562v-5.344h-2.578v-1.312h2.578v-2.39h1.703zm13.664 2.219q.235 0 .485.015.265 0 .484.032.234.031.422.078.203.047.344.11l-.235 1.64q-.484-.11-.937-.156-.438-.047-.922-.047-1.188 0-1.922.547-.734.53-1.078 1.484v6.328h-1.688v-9.86h1.594l.094 1.563q.594-.797 1.437-1.265.844-.47 1.922-.47zm11.133 8.672q-.5.734-1.234 1.14-.734.407-1.703.407-.781 0-1.406-.235-.625-.25-1.079-.765-.437-.516-.687-1.297-.234-.782-.234-1.89v-5.86h1.687v5.875q0 .812.125 1.343.125.516.375.829.266.312.625.453.375.125.86.125 1.03 0 1.656-.422.64-.422.953-1.125v-7.078h1.687v9.86h-1.531l-.094-1.36zm9.149 1.547q-1.031 0-1.906-.36t-1.5-.984q-.61-.64-.953-1.516-.344-.875-.344-1.906v-.39q0-1.188.375-2.126.39-.953 1.015-1.593.641-.657 1.438-1 .812-.344 1.656-.344 1.063 0 1.86.375.796.36 1.328 1.015.53.641.78 1.532.267.875.267 1.906v.75h-7.032q.016.687.25 1.281.235.578.64 1.031.407.438.97.704.562.25 1.25.25.906 0 1.593-.36.704-.375 1.172-.969l1.032.797q-.25.375-.625.72-.36.327-.844.593-.485.265-1.094.422-.61.172-1.328.172zm-.219-8.844q-.515 0-.969.187-.453.188-.812.547-.36.36-.625.89-.25.516-.344 1.204h5.297v-.125q-.016-.5-.187-.984-.157-.485-.47-.86-.296-.39-.765-.625-.469-.234-1.125-.234z"/><path fill="#ff9800" d="M418.147 138.634c0-6.282 5.093-11.375 11.376-11.375H571.59a11.375 11.375 0 0 1 11.376 11.375v45.501c0 6.282-5.093 11.375-11.376 11.375H429.523c-6.283 0-11.376-5.093-11.376-11.375z" fill-rule="evenodd"/><path stroke="#666" stroke-linejoin="round" stroke-linecap="butt" d="M418.147 138.634c0-6.282 5.093-11.375 11.376-11.375H571.59a11.375 11.375 0 0 1 11.376 11.375v45.501c0 6.282-5.093 11.375-11.376 11.375H429.523c-6.283 0-11.376-5.093-11.376-11.375z"/><path fill="#fff" d="M472.112 166.031q0-.5-.187-.937-.172-.453-.594-.828-.422-.39-1.11-.703-.671-.328-1.687-.594-1.234-.344-2.36-.844-1.124-.515-1.983-1.219-.86-.718-1.375-1.671-.516-.954-.516-2.188 0-1.203.5-2.172.516-.984 1.406-1.672.906-.687 2.125-1.062 1.219-.375 2.656-.375 1.485 0 2.704.437 1.234.422 2.125 1.203.89.782 1.375 1.844.5 1.063.5 2.344h-3.563q-.031-.64-.234-1.172-.203-.531-.61-.906-.39-.39-.984-.61-.578-.218-1.375-.218-.734 0-1.297.187-.562.172-.953.485-.39.312-.594.75-.203.437-.203.953 0 .53.266.968.265.422.765.766.516.344 1.235.64.718.282 1.64.516 1.297.39 2.39.938 1.095.547 1.876 1.297.797.734 1.234 1.703.438.953.438 2.125 0 1.25-.516 2.219-.5.968-1.39 1.64-.875.672-2.094 1.016-1.219.344-2.672.344-.89 0-1.781-.172-.89-.157-1.72-.485-.812-.343-1.515-.843-.703-.516-1.218-1.188-.5-.687-.797-1.547-.297-.86-.297-1.906h3.594q.03.86.296 1.484.282.61.766 1 .484.39 1.172.578.687.172 1.5.172.734 0 1.297-.172.562-.171.953-.468.39-.297.594-.72.218-.421.218-.937zm9.903-7.187q.703-1.031 1.703-1.61 1.016-.593 2.266-.593 1.11 0 2.031.344.922.328 1.578 1.03.672.688 1.047 1.798.375 1.093.375 2.64v8.532h-3.625v-8.547q0-.766-.187-1.313-.188-.547-.547-.875-.344-.344-.844-.5-.484-.172-1.11-.172-.921 0-1.593.328-.656.329-1.094.907v10.172h-3.625v-20h3.625v7.859zm21.184 12.14q-.14-.265-.234-.593-.079-.344-.157-.719-.297.328-.687.61-.39.28-.875.5-.469.218-1.047.343-.563.125-1.219.125-1.078 0-1.984-.312-.906-.313-1.563-.875-.656-.563-1.015-1.328-.36-.782-.36-1.688 0-2.234 1.657-3.453 1.656-1.219 4.953-1.219h2.015v-.828q0-1.016-.672-1.61-.656-.593-1.906-.593-1.11 0-1.625.484-.5.469-.5 1.266h-3.61q0-.906.391-1.703.407-.813 1.157-1.422.765-.61 1.859-.969 1.11-.36 2.531-.36 1.266 0 2.36.313 1.109.313 1.906.922.812.61 1.266 1.547.468.922.468 2.156v6.032q0 1.14.14 1.89.142.735.407 1.266v.219H503.2zm-3.453-2.53q.547 0 1.015-.126.47-.14.844-.343.375-.22.64-.485.282-.265.438-.531v-2.422h-1.843q-.844 0-1.454.156-.593.157-.968.453-.375.297-.563.704-.187.406-.187.89 0 .735.515 1.219.516.484 1.563.484zm23.293-4.376q0 1.532-.36 2.844-.359 1.313-1.062 2.281-.687.953-1.719 1.5-1.015.547-2.343.547-1.141 0-2-.39-.86-.391-1.5-1.094v6.64h-3.61v-19.5h3.344l.125 1.375q.656-.78 1.531-1.203.89-.437 2.078-.437 1.344 0 2.36.515 1.031.516 1.734 1.47.703.937 1.063 2.265.359 1.312.359 2.906v.281zm-3.61-.281q0-.875-.171-1.656-.156-.781-.5-1.344-.344-.562-.89-.89-.548-.329-1.313-.329-.953 0-1.563.375-.594.375-.937 1.047v5.89q.343.657.937 1.063.61.39 1.594.39.766 0 1.297-.327.547-.344.89-.922.344-.594.5-1.375.157-.781.157-1.64v-.282zm13.794 7.453q-1.625 0-2.953-.531-1.328-.547-2.282-1.453-.953-.922-1.468-2.156-.516-1.25-.516-2.672v-.516q0-1.625.5-2.953.516-1.328 1.422-2.297.922-.969 2.172-1.5t2.719-.531q1.515 0 2.703.5 1.203.5 2.031 1.422.828.906 1.25 2.187.437 1.281.437 2.828v1.532h-9.562q.11.718.422 1.312.328.594.812 1.031.5.422 1.141.657.64.234 1.39.234.532 0 1.063-.094.531-.11 1-.312.484-.203.906-.5.422-.313.735-.703l1.797 1.953q-.329.468-.875.937-.532.469-1.282.828-.734.344-1.64.563-.89.234-1.922.234zm-.438-11.687q-.609 0-1.125.218-.5.22-.89.625-.375.407-.64.97-.25.546-.392 1.234h5.938v-.282q-.016-.578-.219-1.078-.187-.515-.562-.875-.36-.375-.89-.594-.532-.218-1.22-.218z"/><path fill="#bdbdbd" d="M429.155 195.689h142.582v59.716H429.155z" fill-rule="evenodd"/><path stroke="#666" stroke-linejoin="round" stroke-linecap="butt" d="M429.155 195.689h142.582v59.716H429.155z"/><path fill="#000" d="M486.499 217.384l-.25 4.312h-1.61v-5.609h1.86v1.297zm14.027 8.719l3.39-4.703h2.532l-4.719 6.28 4.86 6.407h-2.516l-3.5-4.828-3.5 4.828h-2.531l4.843-6.406-4.718-6.281h2.5l3.359 4.703zm14.777-8.719l-.25 4.312h-1.61v-5.609h1.86v1.297z"/><path fill="#bdbdbd" d="M429.155 255.392h142.582v59.717H429.155z" fill-rule="evenodd"/><path stroke="#666" stroke-linejoin="round" stroke-linecap="butt" d="M429.155 255.392h142.582v59.717H429.155z"/><path fill="#000" d="M486.499 277.087l-.25 4.313h-1.61v-5.609h1.86v1.296zm13.449 12.204l.562 1.53 3.875-9.718h2.422l-6.437 14.64q-.219.5-.563 1.048-.344.546-.844 1.015-.484.469-1.14.781-.656.329-1.516.329-.156 0-.344-.016-.187-.016-.375-.047-.187-.031-.359-.078-.156-.031-.266-.047l.36-1.766h.219l.296.032q.157.015.297.015h.22q.437 0 .812-.25.375-.234.656-.578t.484-.703q.219-.36.328-.594l.875-1.687-5.468-12.094h2.421l3.485 8.188zm15.355-12.204l-.25 4.313h-1.61v-5.609h1.86v1.296z"/><path d="M539.496 228.496l93.291-76.378"/><path stroke="#666" stroke-width="4" stroke-linejoin="round" stroke-linecap="butt" d="M551.226 218.892l62.991-51.57"/><path fill="#666" stroke="#666" stroke-width="4" stroke-linecap="butt" d="M541.044 227.23a6.58 6.58 0 1 1 10.182-8.337 6.58 6.58 0 0 1-10.182 8.336z"/><path fill="#666" stroke="#666" stroke-width="4" stroke-linecap="butt" d="M618.403 172.434l9.86-16.612-18.231 6.387z" fill-rule="evenodd"/><path fill="#fbbc05" fill-opacity=".377" d="M632.787 293.515c0-18.392 14.91-33.302 33.303-33.302h222.844a33.302 33.302 0 0 1 33.302 33.302v133.206c0 18.393-14.91 33.303-33.302 33.303H666.09c-18.393 0-33.303-14.91-33.303-33.303z" fill-rule="evenodd"/><path stroke="#666" stroke-linejoin="round" stroke-linecap="butt" d="M632.787 293.515c0-18.392 14.91-33.302 33.303-33.302h222.844a33.302 33.302 0 0 1 33.302 33.302v133.206c0 18.393-14.91 33.303-33.302 33.303H666.09c-18.393 0-33.303-14.91-33.303-33.303z"/><path fill="#000" d="M655.463 295.179v4.86h-2.562v-13.267h4.531q1.094 0 1.969.313.875.312 1.484.875.61.562.938 1.344.343.781.343 1.75 0 .89-.343 1.64-.328.75-.938 1.313-.61.547-1.484.86-.875.312-1.969.312h-1.969zm0-2.078h1.969q.547 0 .938-.157.406-.172.671-.453.282-.281.407-.656.14-.375.14-.766 0-.468-.14-.86-.125-.405-.407-.702-.265-.313-.671-.485-.391-.171-.938-.171h-1.969v4.25zm15.633-3.094q.578 0 1.063.078.484.062.797.156l-.375 2.531q-.5-.125-1.032-.171-.515-.063-1-.063-1.062 0-1.703.406-.64.407-.968 1.172v5.922h-2.532v-9.86h2.36l.125 1.61q.593-.828 1.437-1.297.844-.484 1.828-.484zm3.774 5.015q0-1.078.312-1.984.313-.922.907-1.594.593-.687 1.453-1.062.86-.375 1.969-.375 1.125 0 1.984.375.86.375 1.453 1.062.61.672.906 1.594.313.906.313 1.984v.188q0 1.078-.313 2-.297.922-.89 1.594-.594.672-1.469 1.047-.86.375-1.953.375-1.125 0-2-.375-.86-.375-1.453-1.047-.594-.672-.907-1.594-.312-.922-.312-2v-.188zm2.531.188q0 .625.11 1.172.125.531.375.937.265.407.671.64.407.235.985.235.547 0 .937-.234.407-.234.657-.64.25-.407.375-.938.125-.547.125-1.172v-.188q0-.609-.125-1.14-.125-.547-.375-.953-.25-.407-.657-.64-.39-.235-.968-.235-.563 0-.97.234-.39.234-.655.64-.25.407-.375.954-.11.531-.11 1.14v.188zm17.868-.016q0 1.078-.25 2-.25.922-.75 1.594-.485.672-1.203 1.063-.72.375-1.641.375-.797 0-1.406-.266-.594-.281-1.032-.781v4.656h-2.53v-13.656h2.327l.094.968q.453-.546 1.078-.843.625-.297 1.453-.297.938 0 1.657.36.718.359 1.203 1.015.5.656.75 1.578t.25 2.047v.187zm-2.532-.187q0-.61-.125-1.156-.109-.547-.359-.938-.234-.406-.61-.625-.374-.234-.906-.234-.671 0-1.093.265-.422.266-.657.735v4.11q.235.468.657.75.422.28 1.11.28.53 0 .905-.234.391-.25.625-.656.235-.407.344-.953.11-.547.11-1.157v-.187zm9.65 5.219q-1.141 0-2.079-.375-.922-.375-1.594-1.016-.656-.64-1.015-1.516-.36-.875-.36-1.86v-.374q0-1.125.36-2.047.359-.937.984-1.61.64-.687 1.516-1.046.875-.375 1.906-.375 1.062 0 1.89.344.844.343 1.422.984.579.64.875 1.547.313.89.313 1.969v1.078h-6.688q.063.5.282.922.234.406.578.718.344.297.781.47.453.155.984.155.375 0 .735-.078.375-.078.703-.219.344-.14.64-.343.297-.219.516-.5l1.266 1.375q-.235.328-.625.656-.375.328-.89.578-.516.25-1.141.406-.625.157-1.36.157zm-.298-8.172q-.422 0-.781.156-.36.14-.625.422-.266.281-.453.672-.188.39-.266.875h4.14v-.203q-.015-.391-.155-.75-.125-.36-.391-.61-.25-.265-.625-.406-.36-.156-.844-.156zm13.79-2.047q.578 0 1.062.078.484.062.797.156l-.375 2.531q-.5-.125-1.031-.171-.516-.063-1-.063-1.063 0-1.703.406-.641.407-.97 1.172v5.922h-2.53v-9.86h2.359l.125 1.61q.594-.828 1.437-1.297.844-.484 1.829-.484zm8.773-2.235v2.407h3.672v1.875h-3.672v4.234q0 .531.11.89.125.36.343.579.235.219.563.312.328.078.719.078.297 0 .593-.015.313-.031.594-.063.281-.047.516-.093.25-.047.422-.094l.234 1.734q-.25.156-.61.281-.359.11-.765.172-.39.078-.828.11-.438.047-.844.047-.812 0-1.484-.204-.656-.218-1.125-.671-.469-.454-.735-1.141-.25-.703-.25-1.672v-4.484h-2.25v-1.875h2.25v-2.407h2.547zm10.743 8.125l.297 1.063 2.625-6.781h2.797l-5.016 11.328q-.156.375-.422.812-.25.438-.64.813-.391.375-.954.625-.562.265-1.328.265-.187 0-.344-.015-.156-.016-.296-.047-.141-.016-.282-.047-.14-.031-.312-.078l.312-1.922h.39q.25.016.392.016.296 0 .53-.188.235-.172.391-.39.172-.22.266-.407.11-.172.14-.172l.61-1.156-4.172-9.437h2.781l2.235 5.718zm18.86-5.718h5.375v7.797h2.672v2.062h-8.047v-2.062h2.812v-5.72h-2.812v-2.077zm2.625-2.516q0-.297.109-.547.11-.25.297-.422.187-.187.453-.28.281-.11.61-.11.671 0 1.062.39.39.375.39.97 0 .593-.39.968t-1.063.375q-.328 0-.609-.094-.266-.11-.453-.281-.188-.188-.297-.438-.11-.25-.11-.53zm10.195 2.516l.156 1.375q.532-.75 1.282-1.14.765-.407 1.687-.407.735 0 1.36.219.625.218 1.062.703.453.468.703 1.218.25.75.25 1.829v6.062h-2.531v-6.031q0-.578-.14-.953-.126-.39-.376-.61-.234-.218-.578-.297-.344-.093-.781-.093-.656 0-1.11.265-.453.266-.734.72v7h-2.547v-9.86h2.297zm11.352 9.86v-7.985h-2.594v-1.875h2.594v-.532q0-.984.313-1.718.312-.75.875-1.266.578-.516 1.39-.766.828-.265 1.844-.265.312 0 .61.031.296.016.577.063.282.03.563.078.297.047.61.093l-.173 1.985q-.343-.063-.78-.11-.438-.062-1.032-.062-1.188 0-1.719.5-.531.5-.531 1.437v.532h3.547v1.875h-3.547v7.984h-2.547zm8.399-5.017q0-1.078.312-1.984.313-.922.907-1.594.593-.687 1.453-1.062.859-.375 1.968-.375 1.125 0 1.985.375.86.375 1.453 1.062.61.672.906 1.594.313.906.313 1.984v.188q0 1.078-.313 2-.297.922-.89 1.594-.594.672-1.47 1.047-.859.375-1.952.375-1.125 0-2-.375-.86-.375-1.453-1.047-.594-.672-.907-1.594-.312-.922-.312-2v-.188zm2.531.188q0 .625.11 1.172.124.531.374.937.266.407.672.64.407.235.985.235.547 0 .937-.234.406-.234.656-.64.25-.407.375-.938.125-.547.125-1.172v-.188q0-.609-.125-1.14-.125-.547-.375-.953-.25-.407-.656-.64-.39-.235-.969-.235-.562 0-.968.234-.391.234-.657.64-.25.407-.375.954-.109.531-.109 1.14v.188zm16.086-5.203q.578 0 1.063.078.484.062.797.156l-.375 2.531q-.5-.125-1.032-.171-.515-.063-1-.063-1.062 0-1.703.406-.64.407-.969 1.172v5.922h-2.53v-9.86h2.359l.125 1.61q.593-.828 1.437-1.297.844-.484 1.828-.484zm5.696.172l.078 1.203q.281-.64.765-1 .5-.375 1.22-.375 1.187 0 1.562 1.047.281-.5.734-.766.453-.281 1.094-.281.437 0 .828.172.39.156.672.515.297.36.453.922.156.563.156 1.39v7.032h-2.312v-7.047q0-.281-.063-.453-.047-.187-.156-.281-.094-.11-.234-.156-.125-.047-.266-.047-.266 0-.453.125-.172.125-.266.328v7.531h-2.234v-7.047q0-.281-.063-.469-.047-.187-.14-.28-.094-.095-.235-.141-.125-.047-.265-.047-.297 0-.469.172-.172.156-.281.437v7.375h-2.297v-9.86h2.172zm15.773 9.86q-.093-.188-.156-.423-.062-.234-.11-.5-.202.235-.484.438-.265.187-.609.343-.328.157-.734.235-.39.094-.86.094-.75 0-1.39-.22-.625-.218-1.078-.609-.454-.39-.72-.937-.25-.547-.25-1.188 0-1.546 1.157-2.39 1.172-.86 3.469-.86h1.422v-.593q0-.703-.469-1.11-.469-.422-1.344-.422-.765 0-1.125.329-.36.328-.36.89h-2.53q0-.625.28-1.187.282-.578.813-1 .532-.422 1.297-.672.766-.25 1.766-.25.89 0 1.656.219.781.218 1.344.64.562.422.875 1.078.328.657.328 1.5v4.235q0 .797.094 1.312.093.516.297.89v.157h-2.579zm-2.406-1.782q.375 0 .703-.078.328-.094.594-.235.266-.156.453-.343.203-.188.313-.375v-1.704h-1.297q-.594 0-1.016.125-.422.11-.687.313-.266.203-.39.5-.126.281-.126.625 0 .5.36.844.359.328 1.093.328zm12.102-10.485v2.407h3.672v1.875h-3.672v4.234q0 .531.11.89.124.36.343.579.235.219.563.312.328.078.718.078.297 0 .594-.015.313-.031.594-.063.281-.047.516-.093.25-.047.421-.094l.235 1.734q-.25.156-.61.281-.359.11-.765.172-.39.078-.828.11-.438.047-.844.047-.813 0-1.484-.204-.657-.218-1.125-.671-.47-.454-.735-1.141-.25-.703-.25-1.672v-4.484h-2.25v-1.875h2.25v-2.407h2.547zm7.211 2.407h5.375v7.797h2.672v2.062h-8.047v-2.062h2.813v-5.72h-2.813v-2.077zm2.625-2.516q0-.297.11-.547.109-.25.296-.422.188-.187.454-.28.28-.11.609-.11.672 0 1.062.39.391.375.391.97 0 .593-.39.968-.391.375-1.063.375-.328 0-.61-.094-.265-.11-.453-.281-.187-.188-.296-.438-.11-.25-.11-.53zm7.555 7.36q0-1.079.313-1.985.312-.922.906-1.594.594-.687 1.453-1.062.86-.375 1.969-.375 1.125 0 1.984.375.86.375 1.453 1.062.61.672.907 1.594.312.906.312 1.984v.188q0 1.078-.312 2-.297.922-.891 1.594-.594.672-1.469 1.047-.86.375-1.953.375-1.125 0-2-.375-.86-.375-1.453-1.047-.594-.672-.906-1.594-.313-.922-.313-2v-.188zm2.531.187q0 .625.11 1.172.125.531.375.937.265.407.672.64.406.235.984.235.547 0 .938-.234.406-.234.656-.64.25-.407.375-.938.125-.547.125-1.172v-.188q0-.609-.125-1.14-.125-.547-.375-.953-.25-.407-.656-.64-.391-.235-.97-.235-.562 0-.968.234-.39.234-.656.64-.25.407-.375.954-.11.531-.11 1.14v.188zm11.305-5.031l.157 1.375q.53-.75 1.28-1.14.767-.407 1.688-.407.735 0 1.36.219.625.218 1.062.703.453.468.703 1.218.25.75.25 1.829v6.062h-2.53v-6.031q0-.578-.141-.953-.125-.39-.375-.61-.235-.218-.579-.297-.343-.093-.78-.093-.657 0-1.11.265-.453.266-.735.72v7h-2.546v-9.86h2.296z"/><path fill="#673ab7" d="M661.76 346.179q-.015.703-.14 1.437-.11.719-.344 1.39-.235.673-.61 1.266-.359.579-.875 1.016-.5.438-1.171.688-.657.25-1.47.25-.827 0-1.484-.25-.656-.25-1.171-.688-.516-.437-.891-1.031-.375-.594-.61-1.266-.234-.672-.359-1.39-.125-.72-.125-1.422v-1.516q0-.719.11-1.437.125-.72.359-1.391.25-.688.61-1.266.374-.593.874-1.03.516-.438 1.172-.688.672-.266 1.485-.266.828 0 1.484.266.672.25 1.172.687.515.438.875 1.031.375.578.61 1.25.25.672.359 1.407.125.718.14 1.437v1.516zm-1.672-1.532q-.015-.484-.078-1-.047-.515-.187-1.015-.125-.5-.344-.953-.219-.469-.547-.813-.328-.36-.781-.562-.438-.203-1.031-.203-.579 0-1.032.203-.437.203-.765.562-.328.344-.547.813-.219.453-.36.968-.125.5-.187 1.016-.063.516-.063.984v1.532q0 .453.063.984.062.516.203 1.016.14.5.36.968.218.47.546.829.328.343.766.562.453.203 1.047.203.578 0 1.031-.203.453-.219.781-.562.328-.36.532-.813.218-.469.343-.969.14-.515.188-1.03.047-.517.062-.985v-1.532zm6.743 7.391v-8.547h-2.703v-1.312h2.703v-.688q0-.953.28-1.656.282-.719.782-1.203.516-.485 1.219-.735.719-.25 1.594-.25.593 0 1.156.11.578.094 1.172.25l-.188 1.39q-.375-.125-.875-.218-.5-.094-1.062-.094-1.188.016-1.781.61-.594.577-.594 1.796v.688h3.797v1.312h-3.797v8.547h-1.703zm11.204 0v-8.547h-2.703v-1.312h2.703v-.688q0-.953.282-1.656.28-.719.78-1.203.517-.485 1.22-.735.718-.25 1.593-.25.594 0 1.157.11.578.094 1.172.25l-.188 1.39q-.375-.125-.875-.218-.5-.094-1.062-.094-1.188.016-1.782.61-.593.577-.593 1.796v.688h3.796v1.312h-3.796v8.547h-1.704zm15.252-2.61q0-.312-.125-.546-.125-.235-.406-.438-.282-.203-.75-.375-.453-.172-1.141-.297-.86-.187-1.562-.421-.688-.25-1.188-.594-.484-.344-.766-.797-.265-.469-.265-1.078 0-.594.281-1.11.281-.53.781-.921.516-.391 1.219-.61.703-.234 1.563-.234.906 0 1.625.234.734.235 1.25.656.515.407.78.97.282.562.282 1.218h-1.687q0-.328-.172-.625-.157-.313-.453-.547-.282-.234-.704-.375-.406-.156-.921-.156-.547 0-.954.125-.406.11-.671.312-.266.203-.407.47-.14.265-.14.546t.109.516q.11.234.375.421.281.172.734.329.454.14 1.141.265.906.203 1.625.453t1.203.61q.5.343.75.812.266.453.266 1.063 0 .656-.297 1.203-.281.531-.813.922-.53.375-1.265.593-.735.204-1.61.204-1.015 0-1.796-.266-.782-.281-1.329-.719-.53-.437-.828-1.015-.281-.594-.281-1.22h1.688q.03.516.265.876.25.36.61.578.359.219.796.312.438.079.875.079 1.063 0 1.672-.391.625-.39.64-1.031zm8.992 2.798q-1.03 0-1.906-.36-.875-.36-1.5-.984-.61-.64-.953-1.516-.344-.875-.344-1.906v-.39q0-1.188.375-2.126.39-.953 1.016-1.593.64-.657 1.437-1 .813-.344 1.657-.344 1.062 0 1.859.375.797.36 1.328 1.015.531.641.781 1.532.266.875.266 1.906v.75h-7.031q.015.687.25 1.281.234.578.64 1.031.407.438.97.704.562.25 1.25.25.905 0 1.593-.36.703-.375 1.172-.969l1.031.797q-.25.375-.625.72-.36.327-.844.593-.484.265-1.094.422-.609.172-1.328.172zm-.218-8.844q-.516 0-.97.187-.452.188-.812.547-.359.36-.625.89-.25.516-.343 1.204h5.296v-.125q-.015-.5-.187-.984-.156-.485-.469-.86-.297-.39-.765-.625-.47-.234-1.125-.234zm11.055-3.594v2.39h3.75v1.313h-3.75v5.344q0 .578.14.953t.39.594q.266.219.595.312.343.094.718.094.266 0 .547-.031.297-.031.578-.078.282-.047.516-.094.25-.047.406-.094l.235 1.203q-.22.125-.516.22-.297.093-.656.155-.344.078-.75.11-.39.047-.782.047-.656 0-1.234-.188-.562-.187-.984-.594-.422-.406-.672-1.047-.235-.64-.235-1.562v-5.344h-2.578v-1.312h2.578v-2.39h1.704z"/><path fill="#e67c73" d="M723.249 350.944q0-.265.078-.5.094-.25.25-.422.172-.187.422-.28.25-.095.578-.095.328 0 .578.094.25.094.406.281.172.172.25.422.094.235.094.5 0 .266-.094.5-.078.235-.25.407-.156.171-.406.265t-.578.094q-.328 0-.578-.094-.25-.094-.422-.265-.156-.172-.25-.407-.078-.234-.078-.5zm0-8q0-.265.078-.5.094-.25.25-.422.172-.187.422-.28.25-.095.578-.095.328 0 .578.094.25.094.406.281.172.172.25.422.094.235.094.5 0 .266-.094.5-.078.235-.25.407-.156.171-.406.265t-.578.094q-.328 0-.578-.094-.25-.094-.422-.265-.156-.172-.25-.407-.078-.234-.078-.5z"/><path fill="#db4437" d="M748.171 352.038h-1.688v-11.11l-3.468 1.313v-1.531l5.031-1.938h.125v13.266z"/><path fill="#e67c73" d="M659.026 364.257h-2.016v15.234h2.016v1.39h-3.61v-18h3.61v1.376zm11.195 0h-2.015v15.234h2.015v1.39h-3.61v-18h3.61v1.376z"/><path fill="#673ab7" d="M682.089 374.444l1.015-9.672h1.594l-1.61 13.266h-1.718l-1.703-10-1.719 10h-1.734l-1.61-13.266h1.594l1.016 9.672 1.703-9.672h1.469l1.703 9.672zm11.086-6.437q.234 0 .484.015.266 0 .485.032.234.031.422.078.203.047.343.11l-.234 1.64q-.484-.11-.938-.156-.437-.047-.921-.047-1.188 0-1.922.547-.735.53-1.078 1.484v6.328h-1.688v-9.86h1.594l.094 1.563q.593-.797 1.437-1.265.844-.47 1.922-.47zm4.992.172h5.047v8.406h3.219v1.453h-8.266v-1.453h3.36v-6.938h-3.36v-1.468zm3.141-2.578q0-.422.25-.704.25-.296.766-.296.5 0 .75.296.25.282.25.704 0 .406-.25.687-.25.266-.75.266-.516 0-.766-.266-.25-.281-.25-.687zm11.79.187v2.39h3.75v1.313h-3.75v5.344q0 .578.14.953t.39.594q.266.219.594.312.344.094.72.094.265 0 .546-.031.297-.031.578-.078.281-.047.516-.094.25-.047.406-.094l.234 1.203q-.218.125-.515.22-.297.093-.657.155-.343.078-.75.11-.39.047-.78.047-.657 0-1.235-.188-.563-.187-.985-.594-.421-.406-.671-1.047-.235-.64-.235-1.562v-5.344h-2.578v-1.312h2.578v-2.39h1.703zm13.68 12.25q-.094-.187-.157-.469-.062-.297-.094-.609-.25.266-.562.5-.313.219-.703.39-.375.172-.813.266-.422.11-.89.11-.797 0-1.438-.22-.625-.234-1.062-.624-.438-.39-.688-.922-.234-.531-.234-1.156 0-.813.312-1.422.328-.61.922-1.016.594-.406 1.422-.594.844-.203 1.875-.203h1.828v-.78q0-.454-.172-.798-.156-.36-.453-.61-.297-.25-.734-.39-.422-.14-.97-.14-.5 0-.905.14-.391.125-.672.344-.266.203-.422.484-.14.282-.14.594h-1.688q0-.531.265-1.047.282-.531.782-.937.5-.422 1.218-.672.735-.25 1.657-.25.843 0 1.562.203.719.203 1.235.625.53.406.828 1.031.297.61.297 1.438v4.578q0 .5.093 1.047.094.547.25.968v.141h-1.75zm-2.985-1.281q.5 0 .922-.125.437-.14.781-.344.344-.203.594-.469.265-.28.406-.562v-2h-1.562q-1.47 0-2.297.437-.813.438-.813 1.375 0 .36.125.672.125.313.36.531.25.22.625.36.375.125.859.125zm16.055-3.531q0 1.046-.266 1.968-.25.907-.75 1.594-.484.672-1.203 1.063-.719.375-1.656.375-.953 0-1.656-.329-.688-.343-1.188-.984l-.078 1.125h-1.547v-14h1.688v5.203q.484-.61 1.156-.922.687-.312 1.61-.312.937 0 1.656.375.734.36 1.218 1.031.5.656.75 1.594.266.922.266 2.015v.204zm-1.688-.204q0-.718-.14-1.359-.14-.656-.453-1.156-.313-.5-.813-.781-.5-.297-1.219-.297-.437 0-.812.125-.36.11-.656.312-.282.203-.5.485-.22.265-.375.593v4.313q.156.328.375.61.234.28.515.5.297.202.657.312.375.11.812.11.688 0 1.188-.282.5-.297.812-.781.313-.5.453-1.141.156-.64.156-1.36v-.203zm4.79-8.984h5.047v12.547h3.218v1.453h-8.265v-1.453h3.36v-11.078h-3.36v-1.469zm15.289 14.188q-1.031 0-1.906-.36t-1.5-.984q-.61-.64-.953-1.516-.344-.875-.344-1.906v-.39q0-1.188.375-2.126.39-.953 1.016-1.593.64-.657 1.437-1 .813-.344 1.656-.344 1.063 0 1.86.375.797.36 1.328 1.015.531.641.781 1.532.266.875.266 1.906v.75h-7.032q.016.687.25 1.281.235.578.641 1.031.406.438.969.704.562.25 1.25.25.906 0 1.594-.36.703-.375 1.171-.969l1.032.797q-.25.375-.625.72-.36.327-.844.593-.484.265-1.094.422-.61.172-1.328.172zm-.219-8.844q-.515 0-.968.187-.454.188-.813.547-.36.36-.625.89-.25.516-.344 1.204h5.297v-.125q-.015-.5-.187-.984-.157-.485-.47-.86-.296-.39-.765-.625-.468-.234-1.125-.234z"/><path fill="#e67c73" d="M767.185 362.882h3.625v18h-3.625v-1.39h2.03v-15.235h-2.03v-1.375zm11.195 0h3.625v18h-3.625v-1.39h2.031v-15.235h-2.03v-1.375zm12.024 14.062q0-.265.078-.5.094-.25.25-.422.172-.187.422-.28.25-.095.578-.095.328 0 .578.094.25.094.406.281.172.172.25.422.094.235.094.5 0 .266-.094.5-.078.235-.25.407-.156.171-.406.265t-.578.094q-.328 0-.578-.094-.25-.094-.422-.265-.156-.172-.25-.407-.078-.234-.078-.5zm0-8q0-.265.078-.5.094-.25.25-.422.172-.187.422-.28.25-.095.578-.095.328 0 .578.094.25.094.406.281.172.172.25.422.094.235.094.5 0 .266-.094.5-.078.235-.25.407-.156.171-.406.265t-.578.094q-.328 0-.578-.094-.25-.094-.422-.265-.156-.172-.25-.407-.078-.234-.078-.5z"/><path fill="#4285f4" d="M813.857 365.788v2.39h3.75v1.313h-3.75v5.344q0 .578.141.953.14.375.39.594.266.219.594.312.344.094.72.094.265 0 .546-.031.297-.031.578-.078.281-.047.516-.094.25-.047.406-.094l.234 1.203q-.218.125-.515.22-.297.093-.656.155-.344.078-.75.11-.391.047-.782.047-.656 0-1.234-.188-.563-.187-.984-.594-.422-.406-.672-1.047-.235-.64-.235-1.562v-5.344h-2.578v-1.312h2.578v-2.39h1.703zm13.665 2.219q.234 0 .484.015.266 0 .485.032.234.031.421.078.204.047.344.11l-.234 1.64q-.485-.11-.938-.156-.437-.047-.922-.047-1.187 0-1.921.547-.735.53-1.079 1.484v6.328h-1.687v-9.86h1.594l.093 1.563q.594-.797 1.438-1.265.844-.47 1.922-.47zm11.133 8.672q-.5.734-1.234 1.14-.735.407-1.704.407-.78 0-1.406-.235-.625-.25-1.078-.765-.437-.516-.687-1.297-.235-.782-.235-1.89v-5.86H834v5.875q0 .812.125 1.343.125.516.375.829.265.312.625.453.375.125.859.125 1.031 0 1.656-.422.64-.422.953-1.125v-7.078h1.688v9.86h-1.531l-.094-1.36zm9.149 1.547q-1.032 0-1.907-.36t-1.5-.984q-.609-.64-.953-1.516-.344-.875-.344-1.906v-.39q0-1.188.375-2.126.391-.953 1.016-1.593.64-.657 1.438-1 .812-.344 1.656-.344 1.062 0 1.86.375.796.36 1.327 1.015.532.641.782 1.532.265.875.265 1.906v.75h-7.031q.016.687.25 1.281.234.578.64 1.031.407.438.97.704.562.25 1.25.25.906 0 1.593-.36.703-.375 1.172-.969l1.031.797q-.25.375-.625.72-.36.327-.844.593-.484.265-1.093.422-.61.172-1.328.172zm-.22-8.844q-.515 0-.968.187-.453.188-.812.547-.36.36-.625.89-.25.516-.344 1.204h5.297v-.125q-.016-.5-.188-.984-.156-.485-.469-.86-.296-.39-.765-.625-.469-.234-1.125-.234z"/><path fill="#e67c73" d="M659.026 390.257h-2.016v15.234h2.016v1.39h-3.61v-18h3.61v1.376zm11.195 0h-2.015v15.234h2.015v1.39h-3.61v-18h3.61v1.376z"/><path fill="#673ab7" d="M682.808 397.913h-5.532v4.688h6.453v1.437h-8.14v-13.266h8.062v1.438h-6.375v4.266h5.532v1.437zm5.414-3.734l.125 1.453q.531-.766 1.312-1.188.782-.437 1.75-.437.782 0 1.407.219.64.218 1.078.687.453.453.687 1.172.25.719.25 1.687v6.266h-1.687v-6.219q0-.656-.157-1.109-.14-.453-.421-.734-.282-.297-.704-.422-.406-.125-.953-.125-.843 0-1.484.422-.64.421-1.031 1.125v7.062h-1.688v-9.86h1.516zm16.086 8.5q-.5.734-1.234 1.14-.735.407-1.703.407-.782 0-1.407-.235-.625-.25-1.078-.765-.437-.516-.687-1.297-.235-.782-.235-1.89v-5.86h1.688v5.875q0 .812.125 1.343.125.516.375.829.265.312.625.453.375.125.86.125 1.03 0 1.655-.422.641-.422.954-1.125v-7.078h1.687v9.86h-1.531l-.094-1.36zm5.57-8.5l.047.937q.297-.531.782-.812.5-.297 1.187-.297 1.36 0 1.813 1.047.297-.469.765-.75.485-.297 1.157-.297 1.093 0 1.671.672.579.656.579 2v7.36h-1.594v-7.376q0-1.25-1.14-1.234-.298 0-.516.093-.22.079-.375.22-.141.14-.22.327-.077.188-.109.375v7.594h-1.609v-7.39q0-.594-.266-.907-.265-.328-.828-.312-.53 0-.828.218-.281.204-.422.547v7.844h-1.609v-9.86h1.516zm14.774 10.047q-1.031 0-1.906-.36t-1.5-.984q-.61-.64-.953-1.516-.344-.875-.344-1.906v-.39q0-1.188.375-2.126.39-.953 1.016-1.593.64-.657 1.437-1 .813-.344 1.657-.344 1.062 0 1.859.375.797.36 1.328 1.015.531.641.781 1.532.266.875.266 1.906v.75h-7.031q.015.687.25 1.281.234.578.64 1.031.407.438.969.704.563.25 1.25.25.906 0 1.594-.36.703-.375 1.172-.969l1.03.797q-.25.375-.624.72-.36.327-.844.593-.484.265-1.094.422-.609.172-1.328.172zm-.218-8.844q-.516 0-.97.187-.452.188-.812.547-.36.36-.625.89-.25.516-.343 1.204h5.296v-.125q-.015-.5-.187-.984-.156-.485-.469-.86-.297-.39-.765-.625-.47-.234-1.125-.234zm13.523-1.375q.235 0 .485.015.265 0 .484.032.234.031.422.078.203.047.344.11l-.235 1.64q-.484-.11-.937-.156-.438-.047-.922-.047-1.188 0-1.922.547-.734.53-1.078 1.484v6.328h-1.688v-9.86h1.594l.094 1.563q.594-.797 1.437-1.265.844-.47 1.922-.47zm11.211 10.031q-.093-.187-.156-.469-.062-.297-.094-.609-.25.266-.562.5-.313.219-.703.39-.375.172-.813.266-.422.11-.89.11-.797 0-1.438-.22-.625-.234-1.062-.624-.438-.39-.688-.922-.234-.531-.234-1.156 0-.813.312-1.422.328-.61.922-1.016.594-.406 1.422-.594.844-.203 1.875-.203h1.828v-.78q0-.454-.172-.798-.156-.36-.453-.61-.297-.25-.734-.39-.422-.14-.969-.14-.5 0-.906.14-.39.125-.672.344-.266.203-.422.484-.14.282-.14.594h-1.688q0-.531.266-1.047.28-.531.78-.937.5-.422 1.22-.672.734-.25 1.656-.25.844 0 1.562.203.72.203 1.235.625.531.406.828 1.031.297.61.297 1.438v4.578q0 .5.093 1.047.094.547.25.968v.141h-1.75zm-2.984-1.281q.5 0 .922-.125.437-.14.781-.344.344-.203.594-.469.266-.28.406-.562v-2h-1.562q-1.469 0-2.297.437-.813.438-.813 1.375 0 .36.125.672.125.313.36.531.25.22.625.36.375.125.86.125zm16.055-3.531q0 1.046-.266 1.968-.25.907-.75 1.594-.484.672-1.203 1.063-.718.375-1.656.375-.953 0-1.656-.329-.688-.343-1.188-.984l-.078 1.125h-1.547v-14h1.688v5.203q.484-.61 1.156-.922.688-.312 1.61-.312.937 0 1.656.375.734.36 1.218 1.031.5.656.75 1.594.266.922.266 2.015v.204zm-1.687-.204q0-.718-.141-1.359-.14-.656-.453-1.156-.313-.5-.813-.781-.5-.297-1.218-.297-.438 0-.813.125-.36.11-.656.312-.281.203-.5.485-.219.265-.375.593v4.313q.156.328.375.61.234.28.515.5.297.202.657.312.375.11.812.11.688 0 1.188-.282.5-.297.812-.781.313-.5.453-1.141.157-.64.157-1.36v-.203zm4.789-8.984h5.047v12.547h3.218v1.453h-8.265v-1.453h3.36v-11.078h-3.36v-1.469zm15.29 14.188q-1.032 0-1.907-.36t-1.5-.984q-.61-.64-.953-1.516-.344-.875-.344-1.906v-.39q0-1.188.375-2.126.39-.953 1.016-1.593.64-.657 1.437-1 .813-.344 1.656-.344 1.063 0 1.86.375.797.36 1.328 1.015.531.641.781 1.532.266.875.266 1.906v.75h-7.031q.015.687.25 1.281.234.578.64 1.031.406.438.969.704.562.25 1.25.25.906 0 1.594-.36.703-.375 1.172-.969l1.03.797q-.25.375-.624.72-.36.327-.844.593-.484.265-1.094.422-.61.172-1.328.172zm-.22-8.844q-.515 0-.968.187-.453.188-.813.547-.36.36-.625.89-.25.516-.344 1.204h5.297v-.125q-.015-.5-.187-.984-.156-.485-.469-.86-.297-.39-.766-.625-.468-.234-1.125-.234z"/><path fill="#e67c73" d="M789.576 388.882h3.625v18h-3.625v-1.39h2.031v-15.235h-2.031v-1.375zm11.195 0h3.625v18h-3.625v-1.39h2.032v-15.235h-2.032v-1.375zm12.024 14.062q0-.265.078-.5.094-.25.25-.422.172-.187.422-.28.25-.095.578-.095.328 0 .578.094.25.094.406.281.172.172.25.422.094.235.094.5 0 .266-.094.5-.078.235-.25.407-.156.171-.406.265t-.578.094q-.328 0-.578-.094-.25-.094-.422-.265-.156-.172-.25-.407-.078-.234-.078-.5zm0-8q0-.265.078-.5.094-.25.25-.422.172-.187.422-.28.25-.095.578-.095.328 0 .578.094.25.094.406.281.172.172.25.422.094.235.094.5 0 .266-.094.5-.078.235-.25.407-.156.171-.406.265t-.578.094q-.328 0-.578-.094-.25-.094-.422-.265-.156-.172-.25-.407-.078-.234-.078-.5z"/><path fill="#4285f4" d="M836.249 391.788v2.39h3.75v1.313h-3.75v5.344q0 .578.14.953t.39.594q.267.219.595.312.343.094.718.094.266 0 .547-.031.297-.031.578-.078.282-.047.516-.094.25-.047.406-.094l.235 1.203q-.22.125-.516.22-.297.093-.656.155-.344.078-.75.11-.39.047-.781.047-.657 0-1.235-.188-.562-.187-.984-.594-.422-.406-.672-1.047-.234-.64-.234-1.562v-5.344h-2.579v-1.312h2.579v-2.39h1.703zm13.664 2.219q.234 0 .484.015.266 0 .485.032.234.031.422.078.203.047.343.11l-.234 1.64q-.484-.11-.938-.156-.437-.047-.921-.047-1.188 0-1.922.547-.735.53-1.078 1.484v6.328h-1.688v-9.86h1.594l.094 1.563q.593-.797 1.437-1.265.844-.47 1.922-.47zm11.133 8.672q-.5.734-1.234 1.14-.735.407-1.703.407-.782 0-1.407-.235-.625-.25-1.078-.765-.437-.516-.687-1.297-.235-.782-.235-1.89v-5.86h1.688v5.875q0 .812.125 1.343.125.516.375.829.265.312.625.453.375.125.86.125 1.03 0 1.655-.422.641-.422.954-1.125v-7.078h1.687v9.86h-1.531l-.094-1.36zm9.149 1.547q-1.031 0-1.906-.36t-1.5-.984q-.61-.64-.954-1.516-.343-.875-.343-1.906v-.39q0-1.188.375-2.126.39-.953 1.015-1.593.64-.657 1.438-1 .812-.344 1.656-.344 1.063 0 1.86.375.796.36 1.328 1.015.53.641.78 1.532.266.875.266 1.906v.75h-7.03q.015.687.25 1.281.234.578.64 1.031.406.438.969.704.562.25 1.25.25.906 0 1.593-.36.703-.375 1.172-.969l1.031.797q-.25.375-.625.72-.359.327-.843.593-.485.265-1.094.422-.61.172-1.328.172zm-.219-8.844q-.516 0-.969.187-.453.188-.812.547-.36.36-.625.89-.25.516-.344 1.204h5.297v-.125q-.016-.5-.188-.984-.156-.485-.468-.86-.297-.39-.766-.625-.469-.234-1.125-.234z"/><path fill="#e67c73" d="M659.026 416.257h-2.016v15.234h2.016v1.39h-3.61v-18h3.61v1.376zm11.195 0h-2.015v15.234h2.015v1.39h-3.61v-18h3.61v1.376z"/><path fill="#673ab7" d="M684.104 426.054q-.109.922-.468 1.687-.36.766-.938 1.328-.562.547-1.344.86-.765.297-1.734.297-.812 0-1.484-.235-.672-.234-1.203-.64-.516-.422-.891-.97-.375-.562-.625-1.218-.25-.656-.375-1.375t-.14-1.453v-1.844q.015-.75.14-1.469.125-.718.375-1.375.25-.656.625-1.203.375-.562.89-.968.532-.422 1.188-.657.672-.234 1.5-.234 1 0 1.781.312.782.313 1.344.875.563.547.906 1.344.344.781.453 1.719h-1.687q-.078-.594-.281-1.11-.203-.53-.547-.921-.328-.39-.813-.61-.484-.218-1.156-.218-.594 0-1.062.203-.454.187-.797.531-.328.328-.547.781-.219.438-.36.938-.14.5-.203 1.031-.047.516-.047 1.016v1.859q0 .5.047 1.031.063.516.203 1.016.141.5.36.953.219.437.547.781.343.344.797.547.453.188 1.062.188.672 0 1.156-.204.485-.218.813-.593.344-.375.547-.89.203-.517.28-1.11h1.688zm2.134-1.032q0-1.062.312-1.984.313-.922.89-1.594.579-.672 1.407-1.047.828-.39 1.86-.39 1.046 0 1.874.39.844.375 1.422 1.047.578.672.89 1.594.313.922.313 1.984v.204q0 1.062-.312 1.968-.313.907-.89 1.594-.579.672-1.407 1.063-.828.375-1.86.375-1.046 0-1.89-.375-.828-.391-1.406-1.063-.578-.687-.891-1.594-.312-.906-.312-1.968v-.204zm1.687.204q0 .718.172 1.39.172.656.516 1.156.359.5.89.797.531.282 1.235.282.687 0 1.203-.282.53-.297.875-.797.359-.5.53-1.156.173-.672.173-1.39v-.204q0-.718-.188-1.375-.172-.671-.531-1.171-.344-.5-.875-.797-.516-.297-1.219-.297-.703 0-1.218.297-.516.297-.875.797-.344.5-.516 1.171-.172.657-.172 1.375v.204zm11.492-5.047l.125 1.453q.532-.766 1.313-1.188.781-.437 1.75-.437.781 0 1.406.219.64.218 1.078.687.453.453.688 1.172.25.719.25 1.687v6.266h-1.688v-6.219q0-.656-.156-1.11-.14-.452-.422-.733-.281-.297-.703-.422-.406-.125-.953-.125-.844 0-1.484.422-.641.421-1.032 1.125v7.062h-1.687v-9.86h1.515zm12.196 9.86v-8.548h-2.703v-1.312h2.703v-.688q0-.953.281-1.656.282-.719.782-1.203.515-.485 1.218-.735.719-.25 1.594-.25.594 0 1.156.11.578.094 1.172.25l-.187 1.39q-.375-.125-.875-.218-.5-.094-1.063-.094-1.187.016-1.781.61-.594.577-.594 1.796v.688h3.797v1.312h-3.797v8.547h-1.703zm8.955-9.86h5.047v8.406h3.218v1.453h-8.265v-1.453h3.36v-6.938h-3.36v-1.468zm3.14-2.578q0-.422.25-.704.25-.296.766-.296.5 0 .75.296.25.282.25.704 0 .406-.25.687-.25.266-.75.266-.516 0-.766-.266-.25-.281-.25-.687zm7.493 7.421q0-1.093.265-2.015.266-.938.766-1.594.516-.672 1.25-1.031.734-.375 1.64-.375.923 0 1.61.328.688.312 1.172.922l.078-1.078h1.531v9.656q0 .969-.312 1.719-.297.765-.86 1.281-.546.531-1.312.797-.766.281-1.688.281-.39 0-.89-.094-.485-.078-.985-.28-.5-.188-.968-.517-.47-.328-.813-.812l.875-1q.313.375.64.625.329.266.657.422.344.156.672.219.344.062.687.062.594 0 1.079-.172.484-.172.828-.5.343-.328.515-.828.188-.484.188-1.125v-.844q-.485.563-1.156.86-.672.297-1.563.297-.89 0-1.625-.375-.734-.391-1.234-1.063-.5-.687-.782-1.594-.265-.922-.265-1.968v-.204zm1.672.204q0 .718.156 1.359.156.64.469 1.14.328.485.828.782.5.281 1.203.281.437 0 .781-.094.36-.11.64-.297.282-.203.5-.468.22-.266.376-.578v-4.516q-.156-.313-.375-.563-.219-.265-.516-.453-.281-.187-.625-.28-.344-.11-.765-.11-.704 0-1.22.297-.5.28-.827.78-.313.5-.47 1.157-.155.64-.155 1.36v.203zm16.226 3.453q-.5.734-1.234 1.14-.734.407-1.703.407-.781 0-1.406-.235-.625-.25-1.078-.765-.438-.516-.688-1.297-.234-.782-.234-1.89v-5.86h1.687v5.875q0 .812.125 1.343.125.516.375.829.266.312.625.453.375.125.86.125 1.03 0 1.656-.422.64-.422.953-1.125v-7.078h1.687v9.86h-1.53l-.095-1.36zm11.259-8.672q.234 0 .484.015.266 0 .484.032.235.031.422.078.203.047.344.11l-.234 1.64q-.485-.11-.938-.156-.437-.047-.922-.047-1.187 0-1.922.547-.734.53-1.078 1.484v6.328h-1.687v-9.86h1.593l.094 1.563q.594-.797 1.438-1.265.843-.47 1.922-.47zm11.21 10.031q-.093-.187-.155-.469-.063-.297-.094-.61-.25.267-.563.5-.312.22-.703.392-.375.171-.812.265-.422.11-.891.11-.797 0-1.437-.22-.625-.234-1.063-.624-.437-.39-.687-.922-.235-.531-.235-1.156 0-.813.313-1.422.328-.61.922-1.016.593-.406 1.421-.594.844-.203 1.875-.203h1.829v-.78q0-.454-.172-.798-.157-.36-.453-.61-.297-.25-.735-.39-.422-.14-.969-.14-.5 0-.906.14-.39.125-.672.344-.265.203-.422.484-.14.282-.14.594h-1.688q0-.531.266-1.047.281-.531.781-.937.5-.422 1.219-.672.734-.25 1.656-.25.844 0 1.563.203.718.203 1.234.625.531.406.828 1.031.297.61.297 1.438v4.578q0 .5.094 1.047.094.547.25.968v.141h-1.75zm-2.984-1.281q.5 0 .922-.125.438-.14.782-.344.343-.203.593-.469.266-.28.407-.562v-2h-1.563q-1.469 0-2.297.437-.812.438-.812 1.375 0 .36.125.672.125.313.359.531.25.22.625.36.375.125.86.125zm16.055-3.531q0 1.046-.265 1.968-.25.907-.75 1.594-.485.672-1.203 1.063-.72.375-1.657.375-.953 0-1.656-.329-.687-.343-1.187-.984l-.079 1.125h-1.546v-14h1.687v5.203q.484-.61 1.156-.922.688-.312 1.61-.312.937 0 1.656.375.734.36 1.219 1.031.5.656.75 1.594.265.922.265 2.015v.204zm-1.687-.204q0-.718-.14-1.359-.141-.656-.454-1.156-.312-.5-.812-.781-.5-.297-1.22-.297-.437 0-.812.125-.36.11-.656.312-.281.203-.5.485-.219.265-.375.593v4.313q.156.328.375.61.234.28.516.5.297.202.656.312.375.11.812.11.688 0 1.188-.282.5-.297.812-.781.313-.5.454-1.141.156-.64.156-1.36v-.203zm4.79-8.984h5.046v12.547h3.219v1.453h-8.266v-1.453h3.36v-11.078h-3.36v-1.469zm15.288 14.188q-1.03 0-1.906-.36-.875-.36-1.5-.984-.61-.64-.953-1.516-.344-.875-.344-1.906v-.39q0-1.188.375-2.126.39-.953 1.016-1.593.64-.657 1.437-1 .813-.344 1.657-.344 1.062 0 1.86.375.796.36 1.327 1.015.531.641.781 1.532.266.875.266 1.906v.75h-7.031q.015.687.25 1.281.234.578.64 1.031.407.438.97.704.562.25 1.25.25.905 0 1.593-.36.703-.375 1.172-.969l1.031.797q-.25.375-.625.72-.36.327-.844.593-.484.265-1.093.422-.61.172-1.329.172zm-.218-8.844q-.516 0-.97.187-.452.188-.812.547-.359.36-.625.89-.25.516-.343 1.204h5.297v-.125q-.016-.5-.188-.984-.156-.485-.469-.86-.297-.39-.765-.625-.47-.234-1.125-.234z"/><path fill="#e67c73" d="M811.976 414.882h3.625v18h-3.625v-1.39h2.031v-15.235h-2.031v-1.375zm11.196 0h3.625v18h-3.625v-1.39h2.03v-15.235h-2.03v-1.375zm12.023 14.062q0-.265.078-.5.094-.25.25-.422.172-.187.422-.28.25-.095.578-.095.328 0 .578.094.25.094.407.281.172.172.25.422.093.235.093.5 0 .266-.093.5-.078.235-.25.407-.157.171-.407.265-.25.094-.578.094-.328 0-.578-.094-.25-.094-.422-.265-.156-.172-.25-.407-.078-.234-.078-.5zm0-8q0-.265.078-.5.094-.25.25-.422.172-.187.422-.28.25-.095.578-.095.328 0 .578.094.25.094.407.281.172.172.25.422.093.235.093.5 0 .266-.093.5-.078.235-.25.407-.157.171-.407.265-.25.094-.578.094-.328 0-.578-.094-.25-.094-.422-.265-.156-.172-.25-.407-.078-.234-.078-.5z"/><path fill="#4285f4" d="M858.649 417.788v2.39h3.75v1.313h-3.75v5.344q0 .578.14.953.141.375.391.594.266.219.594.312.344.094.719.094.265 0 .547-.031.296-.031.578-.078.28-.047.515-.094.25-.047.407-.094l.234 1.203q-.219.125-.516.22-.297.093-.656.155-.344.078-.75.11-.39.047-.781.047-.656 0-1.235-.188-.562-.187-.984-.594-.422-.406-.672-1.047-.234-.64-.234-1.562v-5.344h-2.578v-1.312h2.578v-2.39h1.703zm13.664 2.219q.235 0 .485.015.265 0 .484.032.234.031.422.078.203.047.344.11l-.235 1.64q-.484-.11-.937-.156-.438-.047-.922-.047-1.188 0-1.922.547-.734.53-1.078 1.484v6.328h-1.688v-9.86h1.594l.094 1.563q.594-.797 1.437-1.265.844-.47 1.922-.47zm11.133 8.672q-.5.734-1.234 1.14-.734.407-1.703.407-.781 0-1.406-.235-.625-.25-1.079-.765-.437-.516-.687-1.297-.234-.782-.234-1.89v-5.86h1.687v5.875q0 .812.125 1.343.125.516.375.829.266.312.625.453.375.125.86.125 1.03 0 1.656-.422.64-.422.953-1.125v-7.078h1.687v9.86h-1.531l-.094-1.36zm9.149 1.547q-1.031 0-1.906-.36t-1.5-.984q-.61-.64-.953-1.516-.344-.875-.344-1.906v-.39q0-1.188.375-2.126.39-.953 1.015-1.593.641-.657 1.438-1 .812-.344 1.656-.344 1.063 0 1.86.375.796.36 1.328 1.015.53.641.78 1.532.267.875.267 1.906v.75h-7.032q.016.687.25 1.281.235.578.64 1.031.407.438.97.704.562.25 1.25.25.906 0 1.593-.36.704-.375 1.172-.969l1.032.797q-.25.375-.625.72-.36.327-.844.593-.485.265-1.094.422-.61.172-1.328.172zm-.219-8.844q-.515 0-.969.187-.453.188-.812.547-.36.36-.625.89-.25.516-.344 1.204h5.297v-.125q-.016-.5-.187-.984-.157-.485-.47-.86-.296-.39-.765-.625-.469-.234-1.125-.234z"/><path fill="#34a853" d="M15.194 227.019c0-6.283 5.093-11.376 11.376-11.376h166.225a11.376 11.376 0 0 1 11.376 11.376v45.5c0 6.283-5.093 11.376-11.376 11.376H26.57c-6.283 0-11.376-5.093-11.376-11.376z" fill-rule="evenodd"/><path stroke="#666" stroke-linejoin="round" stroke-linecap="butt" d="M15.194 227.019c0-6.283 5.093-11.376 11.376-11.376h166.225a11.376 11.376 0 0 1 11.376 11.376v45.5c0 6.283-5.093 11.376-11.376 11.376H26.57c-6.283 0-11.376-5.093-11.376-11.376z"/><path fill="#fff" d="M45.142 240.416h3.656l.016 13.14q-.016 1.344-.516 2.47-.5 1.109-1.375 1.921-.86.797-2.047 1.25-1.171.438-2.53.438-1.423 0-2.595-.36-1.171-.375-2.015-1.093-.844-.72-1.313-1.813-.468-1.094-.484-2.578h3.672q.015 1.531.672 2.219.672.672 2.062.672.625 0 1.14-.235.532-.234.891-.656.375-.422.563-1 .203-.578.203-1.234v-13.141zm16.903 14q0-.5-.188-.938-.172-.453-.594-.828-.421-.39-1.109-.703-.672-.328-1.687-.594-1.235-.343-2.36-.843-1.125-.516-1.984-1.22-.86-.718-1.375-1.671-.516-.953-.516-2.187 0-1.204.5-2.172.516-.985 1.406-1.672.907-.688 2.125-1.063 1.22-.375 2.657-.375 1.484 0 2.703.438 1.234.422 2.125 1.203.89.781 1.375 1.844.5 1.062.5 2.343H62.06q-.031-.64-.234-1.171-.203-.532-.61-.907-.39-.39-.984-.61-.578-.218-1.375-.218-.734 0-1.297.188-.562.172-.953.484-.39.313-.594.75-.203.438-.203.953 0 .531.266.969.266.422.766.766.515.343 1.234.64.719.281 1.64.516 1.297.39 2.391.937t1.875 1.297q.797.735 1.235 1.703.437.953.437 2.125 0 1.25-.516 2.219-.5.969-1.39 1.64-.875.673-2.094 1.016-1.219.344-2.672.344-.89 0-1.781-.172-.89-.156-1.719-.484-.812-.344-1.515-.844-.704-.516-1.22-1.187-.5-.688-.796-1.547-.297-.86-.297-1.907h3.594q.031.86.297 1.485.28.61.765 1t1.172.578q.688.172 1.5.172.735 0 1.297-.172.563-.172.953-.469t.594-.719q.219-.421.219-.937zm19.371-3.125q0 1.812-.484 3.36-.47 1.53-1.391 2.64-.906 1.11-2.219 1.734-1.297.61-2.937.61t-2.922-.61q-1.266-.625-2.14-1.734-.876-1.125-1.329-2.656-.453-1.532-.453-3.344v-2.766q0-1.828.453-3.36.453-1.53 1.328-2.64.875-1.125 2.14-1.75 1.267-.625 2.907-.625 1.656 0 2.953.625 1.313.625 2.219 1.75.922 1.11 1.39 2.64.485 1.532.485 3.36v2.766zm-3.703-2.797q0-1.156-.188-2.125-.187-.984-.593-1.687-.407-.704-1.047-1.094-.625-.39-1.516-.39-.89 0-1.484.39t-.969 1.094q-.36.703-.516 1.687-.156.969-.156 2.125v2.797q0 1.14.156 2.125.157.969.516 1.687.375.72.969 1.125.594.391 1.5.391.875 0 1.5-.39.64-.407 1.031-1.11.406-.719.594-1.687.203-.985.203-2.141v-2.797zm19.309 3.984q0 1.563-.36 2.891-.343 1.313-1.03 2.266-.688.937-1.72 1.468-1.015.532-2.39.532-1.235 0-2.14-.453-.907-.47-1.548-1.313l-.172 1.5h-3.265v-20h3.625v7.188q.625-.72 1.468-1.125.86-.407 2-.407 1.391 0 2.422.532 1.032.53 1.72 1.484.687.953 1.03 2.281.36 1.313.36 2.875v.281zm-3.625-.28q0-.86-.14-1.626-.126-.765-.438-1.344-.313-.578-.86-.921-.547-.344-1.375-.344-.984 0-1.61.422-.609.422-.952 1.14v5.61q.343.734.953 1.156.625.406 1.64.406.813 0 1.344-.312.547-.328.86-.891.312-.562.437-1.328.14-.781.14-1.688v-.28zm9.09-6.907h7.203v14.406q0 1.406-.406 2.406-.39 1.016-1.172 1.672-.766.657-1.875.969-1.094.313-2.516.313-.594 0-1.187-.047-.594-.047-1.14-.172l.171-2.938q.156.032.437.063.282.031.579.047.296.03.562.03.266.017.39.017.532 0 .985-.125.469-.11.797-.391.328-.266.516-.719.203-.453.203-1.125v-11.453h-3.547v-2.953zm3.297-3.61q0-.421.14-.78.157-.36.422-.61.281-.25.656-.39.391-.141.86-.141.953 0 1.515.547.579.53.579 1.375 0 .843-.579 1.39-.562.531-1.515.531-.469 0-.86-.14-.375-.14-.656-.39-.265-.266-.422-.61-.14-.36-.14-.781zm17.371 17.954q-1.625 0-2.953-.532-1.328-.546-2.281-1.453-.953-.922-1.47-2.156-.515-1.25-.515-2.672v-.515q0-1.625.5-2.954.516-1.328 1.422-2.296.922-.97 2.172-1.5 1.25-.532 2.719-.532 1.515 0 2.703.5 1.203.5 2.031 1.422.828.906 1.25 2.188.438 1.28.438 2.828v1.531h-9.563q.11.719.422 1.313.328.593.813 1.03.5.423 1.14.657.64.234 1.39.234.532 0 1.063-.093.532-.11 1-.313.485-.203.907-.5.421-.312.734-.703l1.797 1.953q-.328.469-.875.938-.531.468-1.281.828-.735.344-1.641.562-.89.235-1.922.235zm-.437-11.688q-.61 0-1.125.219-.5.219-.891.625-.375.406-.64.969-.25.547-.391 1.234h5.937v-.281q-.015-.578-.219-1.078-.187-.516-.562-.875-.36-.375-.89-.594-.532-.219-1.22-.219zm15.824 8.797q.547 0 1.016-.156.484-.156.843-.438.375-.297.579-.703.203-.406.171-.89h3.407q.03 1.093-.453 2.03-.47.938-1.297 1.61-.813.672-1.907 1.063-1.078.375-2.28.375-1.641 0-2.891-.547-1.235-.547-2.063-1.516-.812-.969-1.25-2.25-.422-1.297-.422-2.781v-.39q0-1.485.422-2.782t1.25-2.25q.828-.969 2.063-1.531 1.234-.563 2.859-.563 1.297 0 2.406.39 1.11.392 1.906 1.11.797.703 1.235 1.719.453 1 .422 2.25h-3.407q.032-.516-.156-.984-.187-.47-.547-.813-.343-.344-.843-.547-.485-.203-1.063-.203-.86 0-1.422.36-.562.343-.89.937-.329.578-.47 1.344-.14.75-.14 1.562v.39q0 .813.125 1.579.14.766.469 1.344.328.578.89.937.579.344 1.438.344zm16.403-14.906v3.453h5.265v2.656h-5.265v6.063q0 .765.172 1.28.187.517.5.829.328.297.796.438.47.125 1.032.125.422 0 .859-.032.438-.047.828-.11.406-.062.75-.124.344-.063.578-.125l.36 2.484q-.375.219-.891.39-.5.157-1.078.25-.563.11-1.188.157-.625.063-1.218.063-1.157 0-2.11-.297-.937-.313-1.61-.953-.671-.641-1.03-1.641-.36-1-.36-2.39v-6.407h-3.218v-2.656h3.218v-3.453h3.61zm26.16 17.531q-.093-.187-.156-.422-.062-.234-.11-.5-.202.235-.484.438-.265.187-.609.343-.328.157-.734.235-.391.094-.86.094-.75 0-1.39-.22-.625-.218-1.079-.609-.453-.39-.718-.937-.25-.547-.25-1.188 0-1.546 1.156-2.39 1.172-.86 3.469-.86h1.422v-.593q0-.703-.47-1.11-.468-.422-1.343-.422-.766 0-1.125.329-.36.328-.36.89h-2.53q0-.625.28-1.187.282-.578.813-1 .531-.422 1.297-.672.766-.25 1.766-.25.89 0 1.656.219.781.218 1.344.64.562.422.875 1.078.328.657.328 1.5v4.235q0 .797.094 1.312.093.516.296.89v.157h-2.578zm-2.406-1.781q.375 0 .703-.078.328-.094.594-.235.266-.156.453-.343.203-.188.313-.375v-1.704h-1.297q-.594 0-1.016.125-.422.11-.687.313-.266.203-.391.5-.125.281-.125.625 0 .5.36.844.359.328 1.093.328z"/><path fill="#bdbdbd" d="M27.815 284.072h163.496v59.717H27.815z" fill-rule="evenodd"/><path stroke="#666" stroke-linejoin="round" stroke-linecap="butt" d="M27.815 284.072h163.496v59.717H27.815z"/><path fill="#000" d="M105.175 313.908l.859-8.5h8.75v2.11h-6.922l-.484 4.546q.5-.296 1.203-.515.703-.219 1.64-.219 1.172 0 2.11.406.937.407 1.594 1.157.656.734 1 1.796.359 1.047.359 2.344 0 1.219-.328 2.266-.328 1.031-.985 1.797-.656.75-1.671 1.187-1 .422-2.36.422-1.047 0-1.984-.297-.922-.297-1.64-.875-.72-.594-1.188-1.484-.453-.89-.578-2.063h2.062q.203 1.453 1.078 2.203.875.75 2.25.75.766 0 1.36-.28.609-.282 1-.782.406-.516.609-1.219.219-.719.219-1.61 0-.796-.235-1.484-.234-.687-.672-1.187-.421-.516-1.062-.813-.625-.296-1.453-.296-.531 0-.922.078-.39.078-.719.218-.312.141-.594.344-.265.188-.562.453l-1.734-.453z"/><path fill="#bdbdbd" d="M27.815 343.775h163.496v59.717H27.815z" fill-rule="evenodd"/><path stroke="#666" stroke-linejoin="round" stroke-linecap="butt" d="M27.815 343.775h163.496v59.717H27.815z"/><path fill="#000" d="M112.393 365.095v1.953h-.187q-1.078 0-1.938.22-.843.218-1.484.608-.64.391-1.11.922-.453.532-.765 1.172-.297.625-.469 1.313-.156.687-.203 1.406.297-.36.688-.672.406-.312.859-.531.469-.235 1-.36.547-.14 1.125-.14 1.281 0 2.203.484.922.485 1.516 1.281.609.797.89 1.813.282 1 .282 2.047 0 1.187-.344 2.25-.328 1.047-1 1.844-.656.78-1.656 1.25-.985.453-2.282.453-.937 0-1.703-.266-.765-.281-1.375-.734-.61-.47-1.062-1.094-.453-.64-.766-1.36-.297-.734-.453-1.515-.14-.781-.14-1.578v-1.016q0-1.172.14-2.344.156-1.187.5-2.265.36-1.078.953-2.016.594-.937 1.5-1.625.906-.703 2.156-1.094 1.266-.406 2.938-.406h.187zm-2.828 7.688q-.562 0-1.078.187-.516.172-.969.485-.437.312-.781.765-.328.438-.531.985v.718q0 1.125.265 2 .282.875.735 1.47.453.593 1.047.905.609.313 1.265.313.75 0 1.328-.281.594-.297 1-.813.407-.516.61-1.234.203-.735.203-1.578 0-.75-.188-1.454-.187-.703-.578-1.25-.375-.562-.968-.89-.579-.328-1.36-.328z"/><path d="M540.85 282.575l91.937 77.543"/><path stroke="#666" stroke-width="4" stroke-linejoin="round" stroke-linecap="butt" d="M552.439 292.349l62.003 52.296"/><path fill="#666" stroke="#666" stroke-width="4" stroke-linecap="butt" d="M542.38 283.864a6.58 6.58 0 1 1 10.059 8.485 6.58 6.58 0 0 1-10.06-8.485z"/><path fill="#666" stroke="#666" stroke-width="4" stroke-linecap="butt" d="M610.182 349.695l18.135 6.653-9.616-16.754z" fill-rule="evenodd"/><path fill="#34a853" d="M229.17 309.57c0-6.283 5.094-11.376 11.376-11.376h166.225a11.376 11.376 0 0 1 11.376 11.376v45.5c0 6.283-5.093 11.376-11.376 11.376H240.546c-6.282 0-11.375-5.093-11.375-11.375z" fill-rule="evenodd"/><path stroke="#666" stroke-linejoin="round" stroke-linecap="butt" d="M229.17 309.57c0-6.283 5.094-11.376 11.376-11.376h166.225a11.376 11.376 0 0 1 11.376 11.376v45.5c0 6.283-5.093 11.376-11.376 11.376H240.546c-6.282 0-11.375-5.093-11.375-11.375z"/><path fill="#fff" d="M259.118 322.967h3.657l.015 13.14q-.015 1.344-.515 2.47-.5 1.109-1.375 1.921-.86.797-2.047 1.25-1.172.438-2.531.438-1.422 0-2.594-.36-1.172-.375-2.016-1.093-.844-.72-1.312-1.813-.47-1.094-.485-2.578h3.672q.016 1.531.672 2.219.672.672 2.063.672.625 0 1.14-.235.531-.234.89-.656.376-.422.563-1 .203-.578.203-1.234v-13.14zm16.903 14q0-.5-.187-.937-.172-.454-.594-.829-.422-.39-1.11-.703-.671-.328-1.687-.593-1.234-.344-2.36-.844-1.124-.516-1.984-1.219-.86-.719-1.375-1.672t-.515-2.187q0-1.203.5-2.172.515-.985 1.406-1.672.906-.688 2.125-1.063 1.219-.375 2.656-.375 1.484 0 2.703.438 1.235.422 2.125 1.203.89.781 1.375 1.844.5 1.062.5 2.344h-3.562q-.032-.641-.235-1.172-.203-.532-.61-.907-.39-.39-.983-.609-.579-.219-1.375-.219-.735 0-1.297.188-.563.172-.953.484-.391.313-.594.75-.203.438-.203.953 0 .532.265.97.266.42.766.765.516.343 1.234.64.719.282 1.64.516 1.298.39 2.392.937 1.093.547 1.875 1.297.796.735 1.234 1.703.437.954.437 2.125 0 1.25-.515 2.22-.5.968-1.39 1.64-.876.672-2.095 1.015-1.218.344-2.671.344-.891 0-1.782-.172-.89-.156-1.718-.484-.813-.344-1.516-.844-.703-.515-1.219-1.187-.5-.688-.797-1.547-.297-.86-.297-1.906h3.594q.031.859.297 1.484.281.61.766 1 .484.39 1.172.578.687.172 1.5.172.734 0 1.296-.172.563-.172.954-.469.39-.297.593-.718.219-.422.219-.938zm19.371-3.125q0 1.813-.484 3.36-.469 1.53-1.39 2.64-.907 1.11-2.22 1.734-1.296.61-2.937.61-1.64 0-2.922-.61-1.265-.625-2.14-1.734-.875-1.125-1.328-2.656-.454-1.531-.454-3.344v-2.766q0-1.828.454-3.359.453-1.531 1.328-2.64.875-1.126 2.14-1.75 1.266-.626 2.907-.626 1.656 0 2.953.625 1.312.625 2.218 1.75.922 1.11 1.391 2.641.484 1.531.484 3.36v2.765zm-3.703-2.797q0-1.156-.187-2.125-.188-.984-.594-1.687-.406-.703-1.047-1.094-.625-.39-1.515-.39-.891 0-1.485.39-.594.39-.969 1.094-.359.703-.515 1.687-.156.969-.156 2.125v2.797q0 1.14.156 2.125.156.969.515 1.688.375.718.97 1.125.593.39 1.5.39.874 0 1.5-.39.64-.407 1.03-1.11.407-.719.594-1.687.203-.985.203-2.14v-2.798zM311 335.03q0 1.562-.36 2.89-.344 1.313-1.032 2.266-.687.937-1.718 1.469-1.016.53-2.39.53-1.235 0-2.142-.452-.906-.47-1.546-1.313l-.172 1.5h-3.266v-20h3.625v7.188q.625-.72 1.469-1.125.86-.407 2-.407 1.39 0 2.422.532 1.031.53 1.718 1.484.688.953 1.032 2.281.36 1.313.36 2.875v.282zm-3.626-.282q0-.86-.14-1.625-.126-.765-.438-1.343-.313-.579-.86-.922-.546-.344-1.374-.344-.985 0-1.61.422-.61.422-.953 1.14v5.61q.344.734.953 1.156.625.406 1.64.406.813 0 1.345-.312.546-.328.859-.89.312-.563.437-1.329.141-.781.141-1.687v-.282zm9.09-6.906h7.203v14.406q0 1.407-.406 2.407-.39 1.015-1.172 1.671-.765.657-1.875.97-1.094.312-2.515.312-.594 0-1.188-.047t-1.14-.172l.171-2.938q.157.032.438.063t.578.047q.297.031.562.031.266.016.391.016.531 0 .984-.125.47-.11.797-.39.328-.267.516-.72.203-.453.203-1.125v-11.453h-3.547v-2.953zm3.297-3.61q0-.421.14-.78.157-.36.423-.61.28-.25.656-.39.39-.141.86-.141.952 0 1.515.547.578.53.578 1.375 0 .843-.578 1.39-.563.532-1.516.532-.469 0-.86-.141-.374-.14-.655-.39-.266-.266-.422-.61-.14-.36-.14-.781zm17.371 17.954q-1.625 0-2.953-.531-1.328-.547-2.28-1.454-.954-.921-1.47-2.156-.515-1.25-.515-2.672v-.515q0-1.625.5-2.953.515-1.329 1.422-2.297.921-.97 2.171-1.5 1.25-.532 2.72-.532 1.515 0 2.702.5 1.203.5 2.032 1.422.828.907 1.25 2.188.437 1.281.437 2.828v1.531h-9.562q.109.719.421 1.313.329.593.813 1.03.5.423 1.14.657.641.235 1.391.235.531 0 1.063-.094.53-.11 1-.313.484-.203.906-.5.422-.312.734-.703l1.797 1.953q-.328.47-.875.938-.531.469-1.281.828-.734.344-1.64.562-.891.235-1.923.235zm-.437-11.688q-.61 0-1.125.22-.5.218-.89.624-.376.406-.641.969-.25.547-.39 1.234h5.937v-.281q-.016-.578-.22-1.078-.187-.516-.562-.875-.36-.375-.89-.594-.532-.219-1.22-.219zm15.824 8.797q.547 0 1.016-.156.484-.156.844-.438.375-.296.578-.703.203-.406.172-.89h3.406q.031 1.093-.453 2.03-.469.938-1.297 1.61-.812.672-1.906 1.063-1.078.375-2.281.375-1.641 0-2.891-.547-1.234-.547-2.063-1.516-.812-.968-1.25-2.25-.421-1.297-.421-2.78v-.392q0-1.484.421-2.78.422-1.298 1.25-2.25.829-.97 2.063-1.532 1.234-.563 2.86-.563 1.296 0 2.406.391 1.109.39 1.906 1.11.797.703 1.234 1.718.453 1 .422 2.25h-3.406q.031-.515-.156-.984-.188-.469-.547-.813-.344-.343-.844-.547-.484-.203-1.063-.203-.859 0-1.421.36-.563.343-.891.937-.328.578-.469 1.344-.14.75-.14 1.562v.391q0 .813.125 1.578.14.766.468 1.344.328.578.89.937.58.344 1.438.344zm16.403-14.906v3.453h5.266v2.656h-5.266v6.063q0 .765.172 1.281.187.516.5.828.328.297.797.438.469.125 1.031.125.422 0 .86-.032.437-.046.828-.109.406-.062.75-.125.343-.062.578-.125l.359 2.484q-.375.22-.89.391-.5.156-1.079.25-.562.11-1.187.156-.625.063-1.219.063-1.156 0-2.11-.297-.937-.313-1.609-.953-.672-.64-1.031-1.64-.36-1-.36-2.391v-6.407h-3.218v-2.656h3.219v-3.453h3.609zm28.894 12.703q0 1.11-.25 2.031-.234.907-.719 1.578-.484.657-1.203 1.032-.719.375-1.672.375-.875 0-1.515-.328-.625-.329-1.078-.907l-.125 1.047h-2.266v-14h2.531v5.031q.438-.5 1.031-.78.594-.282 1.391-.282.969 0 1.688.375.734.36 1.218 1.031.485.656.72 1.594.25.922.25 2.016v.187zm-2.531-.187q0-.61-.094-1.141-.094-.547-.328-.938-.219-.406-.61-.64-.374-.25-.937-.25-.703 0-1.14.297-.422.297-.657.797v3.937q.235.5.656.797.438.281 1.157.281.578 0 .937-.219.375-.218.594-.609.234-.406.328-.937.094-.547.094-1.188v-.187z"/><path fill="#bdbdbd" d="M241.792 366.624h163.496v59.716H241.792z" fill-rule="evenodd"/><path stroke="#666" stroke-linejoin="round" stroke-linecap="butt" d="M241.792 366.624h163.496v59.716H241.792z"/><path fill="#000" d="M329.182 389.178l-7.062 15.844h-2.282l7.047-15.172h-9.234v-1.89h11.531v1.218z"/><path fill="#bdbdbd" d="M241.792 426.326h163.496v59.717H241.792z" fill-rule="evenodd"/><path stroke="#666" stroke-linejoin="round" stroke-linecap="butt" d="M241.792 426.326h163.496v59.717H241.792z"/><path fill="#000" d="M328.885 452.115q-.015 1.281-.703 2.281-.672.985-1.812 1.547.656.282 1.187.703.531.407.906.954.391.53.594 1.171.203.625.203 1.344 0 1.156-.422 2.063-.421.906-1.156 1.53-.734.61-1.719.938-.984.313-2.109.313-1.156 0-2.14-.313-.985-.328-1.72-.937-.734-.61-1.156-1.516-.421-.906-.421-2.078 0-.719.187-1.344.203-.64.578-1.171.375-.547.906-.97.532-.421 1.188-.702-.563-.282-1.031-.672-.453-.39-.766-.875-.312-.485-.5-1.063-.172-.578-.172-1.203 0-1.11.375-1.984.375-.875 1.031-1.469.672-.61 1.594-.922.922-.312 2.016-.312 1.078 0 2 .312.922.313 1.594.922.687.594 1.078 1.469.39.875.39 1.984zm-1.781 7.953q0-.718-.25-1.312-.234-.594-.672-1.016-.437-.437-1.047-.672-.593-.234-1.312-.234-.735 0-1.328.234-.594.235-1.016.672-.422.422-.656 1.016-.235.594-.235 1.312 0 .735.235 1.328.234.579.656.985.422.39 1.016.61.609.202 1.359.202.719 0 1.313-.203.593-.219 1.015-.61.438-.405.672-.984.25-.593.25-1.328zm-.406-7.922q0-.64-.219-1.171-.219-.547-.594-.938-.375-.39-.906-.61-.531-.218-1.156-.218-.64 0-1.156.203-.516.203-.891.594-.375.39-.578.937-.203.532-.203 1.203 0 .672.203 1.204.203.53.578.921.39.375.906.579.531.203 1.156.203.625 0 1.141-.203.531-.204.906-.579.39-.39.594-.921.219-.547.219-1.204z"/><path d="M204.17 249.769c53.495 0 80.24-22.094 106.988-44.189 26.748-22.094 53.499-44.189 106.997-44.189"/><path stroke="#595959" stroke-width="4" stroke-linejoin="round" stroke-linecap="butt" d="M204.17 249.769c53.495 0 80.24-22.094 106.988-44.189 13.374-11.047 26.749-22.094 43.467-30.38 8.36-4.143 17.555-7.595 28.004-10.011a137.772 137.772 0 0 1 10.176-1.952l1.06-.16.346-.049"/><path fill="#595959" stroke="#595959" stroke-width="4" stroke-linecap="butt" d="M394.661 169.62l17.66-7.83-18.561-5.353z" fill-rule="evenodd"/><path d="M323.659 298.194c0-68.41 47.244-136.819 94.488-136.819"/><path stroke="#595959" stroke-width="4" stroke-linejoin="round" stroke-linecap="butt" d="M323.659 298.194c0-34.205 11.81-68.41 29.527-94.063 8.859-12.827 19.193-23.516 30.266-30.998a80.01 80.01 0 0 1 8.432-4.994 71.808 71.808 0 0 1 2.68-1.298l.193-.087"/><path fill="#595959" stroke="#595959" stroke-width="4" stroke-linecap="butt" d="M396.238 173.193l16.21-10.507-19.171-2.371z" fill-rule="evenodd"/></g></svg>