<?xml version="1.0" encoding="UTF-8" standalone="no"?>
<svg
   xmlns:dc="http://purl.org/dc/elements/1.1/"
   xmlns:cc="http://creativecommons.org/ns#"
   xmlns:rdf="http://www.w3.org/1999/02/22-rdf-syntax-ns#"
   xmlns:svg="http://www.w3.org/2000/svg"
   xmlns="http://www.w3.org/2000/svg"
   xmlns:xlink="http://www.w3.org/1999/xlink"
   xmlns:sodipodi="http://sodipodi.sourceforge.net/DTD/sodipodi-0.dtd"
   xmlns:inkscape="http://www.inkscape.org/namespaces/inkscape"
   width="351.03937"
   height="64"
   id="svg2"
   version="1.1"
   inkscape:version="0.48.2 r9819"
   sodipodi:docname="cc_byncsa.flat.guokr.svg">
  <metadata
     id="metadata35">
    <rdf:RDF>
      <cc:Work
         rdf:about="">
        <dc:format>image/svg+xml</dc:format>
        <dc:type
           rdf:resource="http://purl.org/dc/dcmitype/StillImage" />
        <dc:title />
      </cc:Work>
    </rdf:RDF>
  </metadata>
  <defs
     id="defs33" />
  <sodipodi:namedview
     pagecolor="#ffffff"
     bordercolor="#666666"
     borderopacity="1"
     objecttolerance="10"
     gridtolerance="10"
     guidetolerance="10"
     inkscape:pageopacity="0"
     inkscape:pageshadow="2"
     inkscape:window-width="1088"
     inkscape:window-height="746"
     id="namedview31"
     showgrid="false"
     inkscape:zoom="2.72619"
     inkscape:cx="175.51968"
     inkscape:cy="61.344983"
     inkscape:window-x="55"
     inkscape:window-y="0"
     inkscape:window-maximized="0"
     inkscape:current-layer="g3057"
     fit-margin-top="0"
     fit-margin-left="0"
     fit-margin-right="0"
     fit-margin-bottom="0"
     inkscape:snap-grids="true"
     inkscape:snap-page="false"
     showguides="true"
     inkscape:guide-bbox="true"
     inkscape:snap-global="false">
    <sodipodi:guide
       orientation="1,0"
       position="24.952733,105.26934"
       id="guide3057" />
    <sodipodi:guide
       orientation="1,0"
       position="74.858199,102.93002"
       id="guide3059" />
    <sodipodi:guide
       orientation="0,1"
       position="-5.0685239,58.872855"
       id="guide3061" />
    <sodipodi:guide
       orientation="0,1"
       position="-22.613414,5.8482968"
       id="guide3063" />
    <inkscape:grid
       type="xygrid"
       id="grid3065"
       empspacing="5"
       visible="true"
       enabled="true"
       snapvisiblegridlinesonly="true" />
    <sodipodi:guide
       orientation="1,0"
       position="124.98094,66.588207"
       id="guide3067" />
    <sodipodi:guide
       orientation="1,0"
       position="174.83673,100.39453"
       id="guide3069" />
    <sodipodi:guide
       orientation="1,0"
       position="200.1061,86.393931"
       id="guide3071" />
    <sodipodi:guide
       orientation="1,0"
       position="249.96189,84.345063"
       id="guide3073" />
    <sodipodi:guide
       orientation="1,0"
       position="274.88978,61.466038"
       id="guide3075" />
    <sodipodi:guide
       orientation="1,0"
       position="325.08704,51.563176"
       id="guide3077" />
  </sodipodi:namedview>
  <linearGradient
     id="a"
     x2="0"
     y2="36.249138"
     gradientTransform="matrix(7.1603236,0,0,1.7655592,-138.66667,0)"
     x1="0"
     y1="0"
     gradientUnits="userSpaceOnUse">
    <stop
       offset="0"
       id="stop5"
       style="stop-color:#ffffff;stop-opacity:0" />
    <stop
       offset="0.1"
       id="stop7"
       style="stop-color:#aaaaaa;stop-opacity:0" />
    <stop
       offset="0.89999998"
       id="stop9"
       style="stop-color:#000000;stop-opacity:0" />
    <stop
       offset="1"
       id="stop11"
       style="stop-color:#000000;stop-opacity:0" />
  </linearGradient>
  <rect
     rx="5.2672009"
     width="104"
     height="64"
     id="rect13"
     x="0"
     y="0"
     style="fill:#555555" />
  <rect
     style="fill:#85c155"
     y="0"
     x="101.45181"
     id="rect3034"
     height="64"
     width="249.58755"
     rx="6.2756753" />
  <path
     d="m 100.21955,0 h 35.68799 v 64 h -35.68799 z"
     id="path17"
     inkscape:connector-curvature="0"
     style="fill:#85c155" />
  <g
     transform="matrix(0.78125,0,0,0.78125,125.1302,6.798057)"
     id="layer3"
     inkscape:label="Dessin"
     style="display:inline">
    <path
       inkscape:connector-curvature="0"
       style="fill:#ffffff;fill-opacity:1;fill-rule:nonzero;stroke:none"
       d="M 31.1875,0 C 13.904525,0.43835438 0,14.612004 0,32 0,49.663996 14.336004,64 32,64 49.663996,64 64,49.663996 64,32 64,14.336004 49.663996,0 32,0 31.724,0 31.461833,-0.00695801 31.1875,0 z M 31.15625,5.5 C 31.439783,5.49101 31.714297,5.5 32,5.5 46.628003,5.4999998 58.5,17.371998 58.5,32 58.499998,46.628001 46.628002,58.5 32,58.5 17.371999,58.499999 5.5,46.628002 5.5,32 5.4999999,17.657701 16.922915,5.9512829 31.15625,5.5 z"
       id="path1334" />
    <g
       id="g6525"
       style="fill:#ffffff;fill-opacity:1">
      <path
         transform="translate(-0.0625,0.185547)"
         d="m 36.6875,15.75 c 0,2.554317 -2.070683,4.625 -4.625,4.625 -2.554317,0 -4.625,-2.070683 -4.625,-4.625 0,-2.554317 2.070683,-4.625 4.625,-4.625 2.554317,0 4.625,2.070683 4.625,4.625 z"
         sodipodi:ry="4.625"
         sodipodi:rx="4.625"
         sodipodi:cy="15.75"
         sodipodi:cx="32.0625"
         id="path2838"
         style="fill:#ffffff;fill-opacity:1;fill-rule:evenodd;stroke:none"
         sodipodi:type="arc" />
      <path
         inkscape:connector-curvature="0"
         sodipodi:nodetypes="ccccssccssccc"
         d="m 27.215125,52.689453 9.56975,0 0,-15.378905 2.893008,0 c 0,0 -0.0011,-10.990367 0,-12.720111 -0.0028,-0.456306 0.04119,-1.365057 -0.620739,-2.026989 -0.661932,-0.661932 -1.555399,-0.621804 -2.02699,-0.620739 -0.47159,0.0011 -9.588717,0.0011 -10.060308,0 -0.471591,-0.0011 -1.365057,-0.04119 -2.026989,0.620739 -0.661933,0.661932 -0.617898,1.570683 -0.620739,2.026989 0.0011,1.729744 0,12.720111 0,12.720111 l 2.893007,0 0,15.378905 z"
         style="fill:#ffffff;fill-opacity:1;fill-rule:evenodd;stroke:none"
         id="path3572" />
    </g>
  </g>
  <g
     transform="matrix(0.78998926,0,0,0.78890484,24.562303,6.561046)"
     id="g3001">
    <path
       d="M 31.957,0.311 C 23.275,0.311 15.635,3.524 9.731,9.514 3.653,15.678 0.354,23.666 0.354,32 c 0,8.422 3.212,16.236 9.29,22.313 6.078,6.078 13.978,9.377 22.313,9.377 8.334,0 16.409,-3.299 22.66,-9.463 C 60.521,48.41 63.646,40.683 63.646,32 63.646,23.405 60.521,15.592 54.53,9.601 48.453,3.523 40.639,0.311 31.957,0.311 z m 0.086,5.73 c 7.12,0 13.458,2.691 18.406,7.641 4.862,4.861 7.466,11.286 7.466,18.318 0,7.119 -2.518,13.371 -7.379,18.146 -5.123,5.035 -11.721,7.727 -18.493,7.727 -6.858,0 -13.283,-2.691 -18.232,-7.641 C 8.862,45.283 6.084,38.772 6.084,32 6.084,25.142 8.862,18.631 13.811,13.594 18.673,8.646 24.924,6.041 32.043,6.041 z"
       style="fill:#ffffff"
       id="path4"
       inkscape:connector-curvature="0" />
    <path
       id="c"
       d="m 31.635,26.734 c -1.79,-3.264 -4.844,-4.563 -8.389,-4.563 -5.16,0 -9.267,3.65 -9.267,9.828 0,6.283 3.861,9.829 9.442,9.829 3.581,0 6.635,-1.966 8.319,-4.949 l -3.931,-2.001 c -0.878,2.105 -2.212,2.738 -3.896,2.738 -2.914,0 -4.248,-2.422 -4.248,-5.617 0,-3.193 1.124,-5.616 4.248,-5.616 0.842,0 2.527,0.456 3.51,2.563 l 4.212,-2.212 z"
       style="fill:#ffffff"
       inkscape:connector-curvature="0" />
    <use
       xlink:href="#c"
       transform="translate(18.281,0)"
       id="use7"
       x="0"
       y="0"
       width="64"
       height="64" />
  </g>
  <g
     id="g3118"
     transform="matrix(0.78125,0,0,0.78125,200.38329,6.7410061)">
    <path
       id="path1334-2"
       d="M 31.1875,0 C 13.904525,0.43835438 0,14.612004 0,32 0,49.663996 14.336004,64 32,64 49.663996,64 64,49.663996 64,32 64,14.336004 49.663996,0 32,0 31.724,0 31.461833,-0.00695801 31.1875,0 z M 31.15625,5.5 C 31.439783,5.49101 31.714297,5.5 32,5.5 46.628003,5.4999998 58.5,17.371998 58.5,32 58.499998,46.628001 46.628002,58.5 32,58.5 17.371999,58.499999 5.5,46.628002 5.5,32 5.4999999,17.657701 16.922915,5.9512829 31.15625,5.5 z"
       style="fill:#ffffff;fill-opacity:1;fill-rule:nonzero;stroke:none"
       inkscape:connector-curvature="0" />
    <path
       sodipodi:nodetypes="cssscssssccscscscscsc"
       id="text1367"
       d="m 25.645354,38.743144 c 2.060785,2.882165 8.350338,3.090297 10.509761,1.868256 0.792612,-0.448548 0.990593,-1.746893 0.99061,-2.62708 -1.7e-5,-0.604037 -0.158986,-1.078643 -0.476909,-1.423821 -0.335617,-0.345158 -1.18935,-1.221267 -2.178478,-1.480153 -5.016376,-1.294371 -8.491636,-2.911072 -9.851701,-4.084658 -1.695676,-1.466952 -1.969426,-2.425066 -1.969424,-4.979331 -2e-6,-2.554225 0.73449,-4.695027 2.394839,-6.231053 1.660341,-1.535974 4.071374,-2.303973 7.233107,-2.304 3.020403,2.7e-5 7.268292,0.797284 9.339407,3.255827 l -3.45305,3.7562 c -1.947465,-1.634972 -3.395851,-1.7827 -5.780377,-1.782722 -1.501388,2.2e-5 -2.282971,0.215753 -2.91884,0.647191 -0.635885,0.414224 -0.953823,0.957864 -0.953816,1.630921 -7e-6,0.604065 0.291435,1.104559 0.874332,1.501484 0.582878,0.414221 2.106318,1.035524 5.14441,1.863911 3.408993,0.931971 5.722878,2.062397 6.941663,3.39128 1.20108,1.328913 1.80163,3.0979 1.801653,5.306968 -2.3e-5,2.657804 -0.936175,4.849624 -2.808459,6.575463 -1.854661,1.725844 -4.13762,3.067171 -7.422971,3.06717 -4.228954,-10e-7 -9.873737,-1.493943 -11.431097,-4.255298"
       style="font-size:53.81440353px;font-style:normal;font-variant:normal;font-weight:bold;font-stretch:normal;text-align:start;line-height:100%;writing-mode:lr-tb;text-anchor:start;fill:#ffffff;fill-opacity:1;stroke:none;font-family:Arial Narrow"
       inkscape:connector-curvature="0" />
    <path
       sodipodi:nodetypes="ccccc"
       id="rect2247"
       d="m 12.187615,-70.54866 5.802823,0.04135 0,56.072166 -5.802823,-0.04135 0,-56.072166 z"
       style="fill:#ffffff;fill-opacity:1;fill-rule:nonzero;stroke:none"
       transform="matrix(-0.408348,0.912826,-0.911726,-0.410798,0,0)"
       inkscape:connector-curvature="0" />
    <path
       id="rect2278"
       d="m 30.375,12.875 0,6.84375 3.25,0 0,-6.84375 -3.25,0 z m 0,32.09375 0,6.15625 3.25,0 0,-6.15625 -3.25,0 z"
       style="fill:#ffffff;fill-opacity:1;fill-rule:nonzero;stroke:none"
       inkscape:connector-curvature="0" />
  </g>
  <g
     id="g3057"
     transform="translate(251.17909,-67.037773)">
    <g
       id="g3829"
       transform="matrix(0.78121202,0,0,0.78121202,23.475986,82.103021)">
      <path
         inkscape:connector-curvature="0"
         style="fill:#ffffff;fill-opacity:1;fill-rule:nonzero;stroke:none"
         d="M 31.1875,-10.637556 C 13.904525,-10.199202 0,3.9744476 0,21.362444 c 0,17.663996 14.336004,32 32,32 17.663996,0 32,-14.336004 32,-32 0,-17.6639964 -14.336004,-32 -32,-32 -0.276,0 -0.538167,-0.007 -0.8125,0 z m -0.03125,5.4999996 c 0.283533,-0.00899 0.558047,0 0.84375,0 14.628003,-2e-7 26.5,11.871998 26.5,26.5000004 -2e-6,14.628001 -11.871998,26.5 -26.5,26.5 -14.628001,-1e-6 -26.5,-11.871998 -26.5,-26.5 -1e-7,-14.3422994 11.422915,-26.0487175 25.65625,-26.5000004 z"
         id="path1334-9" />
      <path
         inkscape:connector-curvature="0"
         style="fill:#ffffff;fill-opacity:1;fill-rule:nonzero;stroke:none"
         d="m 18.115779,16.146991 -2.740778,0 6.21875,6.96875 6.21875,-6.96875 -2.243852,0 c 0.486099,-3.3998 3.476871,-5.586425 6.931352,-5.3125 0.136556,0.01083 0.267854,0 0.40625,0 5.62743,0 7.84682,4.255865 8.03125,10.53125 0.19247,6.549199 -3.60349,10.620376 -8.03125,10.53125 -4.673386,-0.09221 -6.444049,-2.32751 -7.125,-5.71875 l -8.34375,0 c 1.373177,7.811231 7.123855,12.392036 15.28125,12.40625 9.23458,0.01625 15.906248,-7.709347 15.906248,-17.21875 0,-10.154893 -6.669368,-17.2187504 -15.906248,-17.2187504 -0.274244,0 -0.541652,-0.01489 -0.8125,0 -0.0656,0.0036 -0.12197,-0.0011 -0.1875,0 -5.772209,0.09597 -13.602929,4.139742 -13.602972,12.0000004 z"
         id="path2371"
         sodipodi:nodetypes="cccccssssccsssssc" />
    </g>
  </g>
</svg>
